<?xml version="1.0" encoding="utf-8"?>
<!-- Generator: Adobe Illustrator 25.2.1, SVG Export Plug-In . SVG Version: 6.00 Build 0)  -->
<svg version="1.1" id="Layer_3" xmlns="http://www.w3.org/2000/svg" xmlns:xlink="http://www.w3.org/1999/xlink" x="0px" y="0px"
	 viewBox="0 0 312.4 305.5" style="enable-background:new 0 0 312.4 305.5;" xml:space="preserve">
<style type="text/css">
	.single-st0{fill:#1D1E1D;}
	.single-st1{fill:#F7FCFE;}
	.single-st2{fill:#FFFFFF;}
	.single-st3{fill:#2FD1C5;}
	.single-st4{fill:#1C1D1C;}
	.single-st5{opacity:0.2;}
</style>
<path class="single-st0" d="M312.3,154.6c0.2-9.8-0.6-19.6-2.4-29.2C297.8,58.2,242.4,7.3,174.5,0.7c-3.5-0.2-7-0.4-10.6-0.7
	C93.9-1.9,31.6,44,12.6,111.4c-0.2,0.7-0.6,1.3-1.1,1.8c-13.2,11.5-15.4,31.2-4.9,45.3c0.3,0.5,0.5,1,0.5,1.6
	c0.1,1.9,0.2,3.7,0.4,5.6c0,0.2,0,0.4,0,0.6c0.1,1.1,0.1,2.2,0.2,3.4c0.1,0.8,0.2,1.6,0.3,2.4c0.1,0.7,0.3,1.3,0.4,2
	c0,0.1,0,0.1,0,0.2c0.2,1.6,0.5,3.1,0.7,4.7c14.5,83.1,93.6,138.7,176.7,124.2C258.3,290.5,311.4,228.1,312.3,154.6L312.3,154.6z
	 M10.7,138.1c-1.4-1.8-1.3-4-1.1-6.1c0.3-2.8,0.9-5.5,2-8c1.4-3.4,4.1-5.4,7.3-6.9c0.3-0.1,0.7-0.1,1,0c1.7,0.4,3,1.8,3.4,3.5
	c0.5,2.3,0.6,4.6,0.3,6.9c-0.1,2.3-0.6,4.5-1.4,6.6c-1.4,3.4-4.2,5.2-7.6,6C13,140.4,11.7,139.4,10.7,138.1L10.7,138.1z M15.2,168.8
	l0-0.2c5.7-1.7,11.4-3.5,17.2-5.2c10.2-3,20.5-5.9,30.8-8.4c1.2-0.4,2.5-0.5,3.8-0.3c0.9,0.1,1.7,0.6,2.2,1.3
	c1.7,2.7,1.4,6.3-0.8,8.7c-1.1,0.9-2.4,1.4-3.8,1.4c-5.6,0.3-11.3,0.5-16.9,0.8c-5.4,0.3-10.7,0.6-16.1,0.9
	c-5.3,0.3-10.5,0.6-15.8,0.9C15.6,168.8,15.4,168.8,15.2,168.8L15.2,168.8z M192,294.7c-1.5,0.4-3.1,0.6-4.7,0.8
	c-6.6,1.1-13.3,2-19.9,3.4c-2,0.4-4,0.5-6,0.3c-2.1-0.1-4.1-0.3-6.8-0.4c-3.6-0.2-7.7-0.4-11.9-1c-19.1-2.5-37.4-7.7-54.2-17.5
	C75,272.7,62.7,263,52.1,251.7c-10.8-11.6-19.6-24.9-25.9-39.4c-4.9-11.3-8.5-23.2-10.6-35.3c-0.4-2.1,0.2-2.7,2.3-2.9
	c7-0.4,14-0.9,21-1.3c6.4-0.4,12.8-0.7,19.2-1.1c2.6-0.1,5.2-0.2,7.8-0.3c3.5,0,6.6-2,8.2-5.1c2-3.5,2.3-7.7,0.9-11.4
	c-1-2.6-3.1-4.7-5.7-5.6c-2.4-0.9-2.6-1.5-2.1-4c2.3-12.2-0.7-22.8-10-31.4c-8.5-8.3-20.8-11.3-32.1-7.8c-1.3,0.3-2.5,0.7-3.8,1.2
	c-0.6,0.2-0.8,0-0.8-0.6c0-0.3,0.1-0.6,0.2-0.9c2.6-5.7,5.2-11.4,7.9-17.1c1.7-3.9,4.7-7.1,8.5-9.1c6.8-3.7,13.6-7.5,20.9-10.2
	c5.6-2.1,11.4-3.4,17.4-3.9c2.7-0.3,5.4-0.7,8.1-0.9c1.8-0.2,3.6-0.2,5.4-0.2c5.5,0,11,0.2,16.4,0.8c12.4,1.3,24.5,4.4,36,9.3
	c5.9,2.5,10.2,6.7,13.7,11.9c4.9,7.5,8.8,15.7,11.5,24.2c4.1,12,7.7,24.1,10.6,36.5c1.1,4.8,1.9,9.7,2.5,14.6
	c0.3,2.5-0.3,5.1-1.8,7.2c-9,13.8-20.4,25.3-33.5,35.2c-5.9,4.5-11.7,9.1-16.6,14.7c-6.4,7-11.2,15.4-14.2,24.4
	c-0.5,1.5-0.9,3-1.1,4.5c-0.4,2.7,0.8,5.4,3.1,7c3,2.1,6.4,3.7,10,4.7c4.4,1.2,8.9,2,13.4,2.4c2.6,0.3,5.2,0.6,7.8,0.9
	c5.6,0.7,11.1-0.1,16.6-0.8c5.3-0.5,10.5-1.5,15.6-3c1.1-0.3,1.7,0.1,1.7,1.2c-0.2,7.7,2.4,14.6,6,21.3c1.7,3.1,3.6,6.2,5.5,9.2
	c0.4,0.6,0.7,1.2,1,1.8C193.6,293.6,193.3,294.3,192,294.7z M305.3,164.2c-0.6,5.8-1.4,11.5-2.6,17.2c-1.9,9.4-4.8,18.5-8.5,27.3
	c-7.6,18-18.7,34.3-32.8,47.9c-7.8,7.6-16.5,14.3-25.8,20c-6.7,4.1-13.8,7.6-21,10.6c-4.8,2-9.7,3.4-14.6,5
	c-1.1,0.4-2.4-0.1-2.9-1.3l0,0c-2.4-4.5-5.3-8.7-7.7-13.1c-2.5-4.6-4-9.6-4.3-14.8c-0.1-1.6-0.4-3.1-0.6-4.7
	c-0.2-1.1,0.1-1.6,1.2-1.9c4.9-1.1,9-3.8,12.7-7.1c2.6-2.3,5.2-4.6,7.9-6.9c0.7-0.6,1.5-1.2,2.3-1.8c0.5-0.3,0.7-1,0.4-1.6
	c0,0-0.1-0.1-0.1-0.1c-0.3-0.5-0.6-0.9-0.9-1.4c-0.6-1-1-1-2-0.4c-9.1,5.6-18.2,11.2-27.2,16.9c-2.6,1.7-5.6,2.1-8.6,2.6
	c-3.6,0.6-7.2,1.1-10.8,1.5c-5.6,0.7-11.3,0.7-16.9,0c-5.2-0.6-10.3-1.6-15.4-2.7c-2.7-0.7-5.3-1.7-7.8-3.2
	c-1.4-0.7-2.4-2.2-2.5-3.8c0.6-2.9,1.4-5.8,2.6-8.5c3-7.1,7.6-13.2,12.7-19c5-5.5,10.7-10.4,16.8-14.7c10.3-7.5,19.4-16.6,26.8-26.9
	c5-6.9,10.1-13.8,15.1-20.7c1-1.4,0.9-2-0.3-2.9c-1.3-1-2.3-0.8-3.2,0.4c-1,1.3-2,2.6-3.1,4.2c-0.4-2.2-0.8-4.1-1.1-6.1
	c-1.7-9.9-4.5-19.5-7.3-29.1c-2.6-8.7-5.2-17.4-8.8-25.8c-2.8-6.5-6-12.8-10.6-18.3c-4.2-5-9.5-9-15.5-11.7
	c-5.5-2.3-11.2-4.1-17.1-5.4c-8.9-2.1-17.9-3.4-27-4c-13.1-1-26.3,0.6-38.8,4.8c-6.1,2-12,4.8-17.6,8.1c-0.1,0.1-0.2,0.1-0.4,0.2
	c-0.7,0.4-1.6,0.9-2.2,0.4c-0.4-0.3,0.5-1.1,0.8-1.6C44.3,63.1,51,55,58.5,47.8c8.5-8.4,18-15.7,28.3-21.6
	c15.6-8.9,32.7-15,50.4-17.9c5.7-0.9,11.4-1.5,17.1-1.7c7.4-0.3,14.8-0.1,22.1,0.7c7.7,0.7,15.3,2.3,22.6,4.9
	c3.4,0.4,6.8,1.3,10.1,2.6c9.5,3.5,18.6,7.9,27.3,13.2c8,4.9,15.6,10.6,22.4,17c20.8,19.3,35.6,44.3,42.6,71.8
	c1.9,7.5,3.2,15.1,3.8,22.7c0.3,3.7,0.5,7.5,0.5,11.2C305.9,155.2,305.8,159.7,305.3,164.2z"/>
<path class="single-st1" d="M154.6,298.8c-3.6-0.2-7.7-0.4-11.9-1c-19.1-2.5-37.4-7.7-54.2-17.5C75,272.7,62.7,263,52.1,251.7
	c-10.8-11.6-19.6-24.9-25.9-39.4c-4.9-11.3-8.5-23.2-10.6-35.3c-0.4-2.1,0.2-2.7,2.3-2.9c7-0.4,14-0.9,21-1.3
	c6.4-0.4,12.8-0.7,19.2-1.1c2.6-0.1,5.2-0.2,7.8-0.3c3.5,0,6.6-2,8.2-5.1c2-3.5,2.3-7.7,0.9-11.4c-1-2.6-3.1-4.7-5.7-5.6
	c-2.4-0.9-2.6-1.5-2.1-4c2.3-12.2-0.7-22.8-10-31.4c-8.5-8.3-20.8-11.3-32.1-7.8c-1.3,0.3-2.5,0.7-3.8,1.2c-0.6,0.2-0.8,0-0.8-0.6
	c0-0.3,0.1-0.6,0.2-0.9c2.6-5.7,5.2-11.4,7.9-17.1c1.7-3.9,4.7-7.1,8.5-9.1c6.8-3.7,13.6-7.5,20.9-10.2c5.6-2.1,11.4-3.4,17.4-3.9
	c2.7-0.3,5.4-0.7,8.1-0.9c1.8-0.2,3.6-0.2,5.4-0.2c5.5,0,11,0.2,16.4,0.8c12.4,1.3,24.5,4.4,36,9.3c5.9,2.5,10.2,6.7,13.7,11.9
	c4.9,7.5,8.8,15.7,11.5,24.2c4.1,12,7.7,24.1,10.6,36.5c1.1,4.8,1.9,9.7,2.5,14.6c0.3,2.5-0.3,5.1-1.8,7.2
	c-9,13.8-20.4,25.3-33.5,35.2c-5.9,4.5-11.7,9.1-16.6,14.7c-6.4,7-11.2,15.4-14.2,24.4c-0.5,1.5-0.9,3-1.1,4.5
	c-0.4,2.7,0.8,5.4,3.1,7c3,2.1,6.4,3.7,10,4.7c4.4,1.2,8.9,2,13.4,2.4c2.6,0.3,5.2,0.6,7.8,0.9c5.6,0.7,11.1-0.1,16.6-0.8
	c5.3-0.5,10.5-1.5,15.6-3c1.1-0.3,1.7,0.1,1.7,1.2c-0.2,7.7,2.4,14.6,6,21.3c1.7,3.1,3.6,6.2,5.5,9.2c0.4,0.6,0.7,1.2,1,1.8
	c0.5,1.2,0.2,1.9-1.1,2.3c-1.5,0.4-3.1,0.6-4.7,0.8c-6.6,1.1-13.3,2-19.9,3.4c-2,0.4-4,0.5-6,0.3C159.3,299.1,157.3,299,154.6,298.8
	z M125.6,96.9c-18.8-0.8-34.8,13.8-35.6,32.7c-0.8,18.8,13.8,34.8,32.7,35.6c18.8,0.8,34.8-13.8,35.6-32.7c0,0,0,0,0,0
	c0-0.1,0-0.2,0-0.3C158.9,113.5,144.3,97.7,125.6,96.9z"/>
<path class="single-st2" d="M23.6,127.4c-0.1,2.3-0.6,4.5-1.4,6.6c-1.4,3.4-4.2,5.2-7.6,6c-1.6,0.4-2.9-0.6-3.9-1.9c-1.4-1.8-1.3-4-1.1-6.1
	c0.3-2.8,0.9-5.5,2-8c1.4-3.4,4.1-5.4,7.3-6.9c0.3-0.1,0.7-0.1,1,0c1.7,0.4,3,1.8,3.4,3.5C23.8,122.8,23.9,125.1,23.6,127.4z"/>
<g id="Color_1_default">
	<g id="Color_1-2">
		<path class="single-st3" d="M116.8,248.3c0.6-2.9,1.4-5.8,2.6-8.5c3-7.1,7.6-13.2,12.7-19c5-5.5,10.7-10.4,16.8-14.7
			c10.3-7.5,19.4-16.6,26.8-26.9c5-6.9,10.1-13.8,15.1-20.7c1-1.4,0.9-2-0.3-2.9c-1.3-1-2.3-0.8-3.2,0.4c-1,1.3-2,2.6-3.1,4.2
			c-0.4-2.2-0.8-4.1-1.1-6.1c-1.7-9.9-4.5-19.5-7.3-29.1c-2.6-8.7-5.2-17.4-8.8-25.8c-2.8-6.5-6-12.8-10.6-18.3
			c-4.2-5-9.5-9-15.5-11.7c-5.5-2.3-11.2-4.1-17.1-5.4c-8.9-2.1-17.9-3.4-27-4c-13.1-1-26.3,0.6-38.8,4.8c-6.1,2-12,4.8-17.6,8.1
			c-0.1,0.1-0.2,0.1-0.4,0.2c-0.7,0.4-1.6,0.9-2.2,0.4c-0.4-0.3,0.5-1.1,0.8-1.6C44.3,63.1,51,55,58.5,47.8
			c8.5-8.4,18-15.7,28.3-21.6c15.6-8.9,32.7-15,50.4-17.9c5.7-0.9,11.4-1.5,17.1-1.7c7.4-0.3,14.8-0.1,22.1,0.7
			c7.7,0.7,15.3,2.3,22.6,4.9c0.1,0.4,0.5,0.5,0.8,0.8c3.8,2.8,7.5,5.6,11.1,8.5c3.4,2.7,6.7,5.5,9.7,8.6c3,2.9,5.8,6.1,8.5,9.3
			c1.6,2,3.1,3.9,4.6,5.9c3.8,5.4,7.3,11,10.2,16.9c3.6,7.2,6.6,14.8,8.8,22.6c2.5,8.5,4.1,17.1,4.8,25.9c0.4,4.5,0.6,8.9,0.5,13.4
			c-0.1,5.5-0.6,11-1.3,16.5c-0.6,4.2-1.3,8.3-2.3,12.4c-1.6,6.8-3.6,13.4-6.2,19.9c-6.7,16.9-16.9,32.1-30,44.7
			c-3.1,3-6.3,5.8-9.7,8.5c-4.8,3.8-10,7.2-15.3,10.2c-8.1,4.6-16.8,8.1-25.8,10.5c-6.6,1.7-13.2,2.9-20,3.4
			c-4.3,0.3-8.6,0.5-12.9,0.3c-4.4-0.1-8.8-0.6-13.2-1.3C119.8,249,118.3,248.7,116.8,248.3z M207,148.4c1.5,0.1,3,0.3,4.6,0.3
			c1.9,0.1,3.7-0.7,5-2.1c4.1-5.3,8.2-10.6,12.3-15.9c1.3-1.5,1.4-3.7,0.3-5.3c-0.9-1.6-1.8-3.2-2.7-4.8c-0.5-1-1.1-2-1.8-2.9
			c-0.6-0.9-1.8-1.1-2.7-0.6c-0.2,0.1-0.3,0.3-0.5,0.4c-0.3,0.3-0.5,0.6-0.8,0.9c-4,5.3-8.1,10.7-12.1,16c-2.7,3.5-5.3,7-7.9,10.5
			c-1,1.3-0.7,2.2,0.8,2.8c0.4,0.2,0.8,0.2,1.2,0.3C204.1,148.2,205.5,148.3,207,148.4z M229.8,149.9c2.2,0,4.9,0.5,7.6,0.3
			c1.9-0.2,2.6-1.3,1.7-3c-2.2-4.1-4.3-8.1-6.5-12.2c-1-1.9-2.9-2-4.1-0.3c-2.7,3.6-5.4,7.3-8,11c-1.4,2-0.4,3.1,1.6,3.6
			c0.2,0,0.5,0.1,0.7,0.1C224.9,149.6,227.1,149.7,229.8,149.9L229.8,149.9z"/>
		<path class="single-st3" d="M15.2,168.6c5.7-1.7,11.4-3.5,17.2-5.2c10.2-3,20.5-5.9,30.8-8.4c1.2-0.4,2.5-0.5,3.8-0.3
			c0.9,0.1,1.7,0.6,2.2,1.3c1.7,2.7,1.4,6.3-0.8,8.7c-1.1,0.9-2.4,1.4-3.8,1.4c-5.6,0.3-11.3,0.5-16.9,0.8
			c-5.4,0.3-10.7,0.6-16.1,0.9c-5.3,0.3-10.5,0.6-15.8,0.9c-0.2,0-0.4,0-0.6,0L15.2,168.6z"/>
	</g>
	<g id="Color_2">
		<path class="single-st3" d="M116.8,248.3c1.5,0.4,3,0.7,4.6,0.9c4.4,0.7,8.8,1.1,13.2,1.3c4.3,0.1,8.6,0,12.9-0.3
			c6.8-0.6,13.5-1.7,20-3.4c9-2.4,17.7-5.9,25.8-10.5c5.4-3,10.5-6.5,15.3-10.2c3.4-2.6,6.6-5.5,9.7-8.5
			c13.1-12.6,23.3-27.8,30-44.7c2.6-6.5,4.6-13.1,6.2-19.9c1-4.1,1.7-8.2,2.3-12.4c0.8-5.5,1.2-11,1.3-16.5c0.1-4.5-0.1-9-0.5-13.4
			c-0.7-8.8-2.3-17.5-4.8-25.9c-2.2-7.8-5.2-15.3-8.8-22.6c-3-5.9-6.4-11.5-10.2-16.9c-1.5-2-3-4-4.6-5.9c-2.6-3.3-5.5-6.4-8.5-9.3
			c-3.1-3-6.3-5.9-9.7-8.6c-3.7-2.9-7.4-5.7-11.1-8.5c-0.3-0.2-0.7-0.4-0.8-0.8c3.4,0.4,6.8,1.3,10.1,2.6
			c9.5,3.5,18.6,7.9,27.3,13.2c8,4.9,15.6,10.6,22.4,17c20.8,19.3,35.6,44.3,42.6,71.8c1.9,7.5,3.2,15.1,3.8,22.7
			c0.3,3.7,0.5,7.5,0.5,11.2c0.1,4.5-0.1,9.1-0.5,13.6c-0.6,5.8-1.4,11.5-2.6,17.2c-1.9,9.4-4.8,18.5-8.5,27.3
			c-7.6,18-18.7,34.3-32.8,47.9c-7.8,7.6-16.5,14.3-25.8,20c-6.7,4.1-13.8,7.6-21,10.6c-4.8,2-9.7,3.4-14.6,5
			c-1.1,0.4-2.4-0.1-2.9-1.3l0,0c-2.4-4.5-5.3-8.7-7.7-13.1c-2.5-4.6-4-9.6-4.3-14.8c-0.1-1.6-0.4-3.1-0.6-4.7
			c-0.2-1.1,0.1-1.6,1.2-1.9c4.9-1.1,9-3.8,12.7-7.1c2.6-2.3,5.2-4.6,7.9-6.9c0.7-0.6,1.5-1.2,2.3-1.8c0.5-0.3,0.7-1,0.4-1.6
			c0,0-0.1-0.1-0.1-0.1c-0.3-0.5-0.6-0.9-0.9-1.4c-0.6-1-1-1-2-0.4c-9.1,5.6-18.2,11.2-27.2,16.9c-2.6,1.7-5.6,2.1-8.6,2.6
			c-3.6,0.6-7.2,1.1-10.8,1.5c-5.6,0.7-11.3,0.7-16.9,0c-5.2-0.6-10.3-1.6-15.4-2.7c-2.7-0.7-5.3-1.7-7.8-3.2
			C117.8,251.4,116.9,249.9,116.8,248.3z"/>
		<path class="single-st3" d="M207,148.4c-1.5-0.1-3-0.2-4.5-0.3c-0.4,0-0.8-0.1-1.2-0.3c-1.5-0.6-1.7-1.6-0.8-2.8c2.6-3.5,5.3-7,7.9-10.5
			c4-5.3,8.1-10.7,12.1-16c0.2-0.3,0.5-0.6,0.8-0.9c0.6-0.8,1.9-1,2.7-0.4c0.2,0.1,0.3,0.3,0.4,0.5c0.7,0.9,1.3,1.9,1.8,2.9
			c0.9,1.6,1.8,3.2,2.7,4.8c1.1,1.6,1,3.8-0.3,5.3c-4.1,5.3-8.1,10.6-12.3,15.9c-1.2,1.4-3.1,2.2-5,2.1
			C210.1,148.7,208.6,148.5,207,148.4z"/>
		<path class="single-st3" d="M229.8,149.9c-2.7-0.2-4.9-0.3-7.1-0.4c-0.2,0-0.5,0-0.7-0.1c-1.9-0.5-3-1.7-1.6-3.6c2.6-3.7,5.3-7.3,8-11
			c1.3-1.7,3.1-1.6,4.1,0.3c2.2,4,4.4,8.1,6.5,12.2c0.9,1.7,0.2,2.8-1.7,3C234.7,150.4,232,149.9,229.8,149.9z"/>
	</g>
</g>
<path class="single-st4" d="M125.6,96.9c18.8,0.8,33.5,16.7,32.7,35.6s-16.7,33.5-35.6,32.7S89.2,148.5,90,129.6c0-0.1,0-0.1,0-0.2
	C90.9,110.7,106.8,96.1,125.6,96.9z M118.2,119.9c0.2-2,0.2-4-0.2-6c-0.4-2.6-2.9-4.3-5.5-3.9c0,0,0,0,0,0c-0.1,0-0.2,0-0.4,0.1
	c-3.9,0.7-7.2,3.1-9,6.6c-1.8,3.6-2.7,7.6-2.5,11.7c0,2.9,2.3,5.4,5.3,5.4c0.4,0,0.8,0,1.2-0.1c1.9-0.3,3.8-0.9,5.6-1.8
	c1.9-1,3.4-2.6,4.1-4.6C117.7,124.9,118.1,122.4,118.2,119.9L118.2,119.9z"/>
<path class="single-st2" d="M118.2,119.9c-0.1,2.5-0.5,5.1-1.4,7.4c-0.8,2-2.3,3.6-4.1,4.6c-1.7,0.9-3.6,1.5-5.6,1.8
	c-2.9,0.6-5.7-1.2-6.3-4.1c-0.1-0.4-0.1-0.8-0.1-1.2c-0.2-4,0.7-8.1,2.5-11.7c1.8-3.5,5.1-5.9,9-6.6c2.6-0.6,5.1,0.9,5.8,3.5v0
	c0,0.1,0.1,0.2,0.1,0.4C118.3,115.9,118.4,117.9,118.2,119.9z"/>
<g id="Color_2-2" class="single-st5">
	<path d="M116.8,248.3c1.5,0.4,3,0.7,4.6,0.9c4.4,0.7,8.8,1.1,13.2,1.3c4.3,0.1,8.6,0,12.9-0.3c6.8-0.6,13.5-1.7,20-3.4
		c9-2.4,17.7-5.9,25.8-10.5c5.4-3,10.5-6.5,15.3-10.2c3.4-2.6,6.6-5.5,9.7-8.5c13.1-12.6,23.3-27.8,30-44.7
		c2.6-6.5,4.6-13.1,6.2-19.9c1-4.1,1.7-8.2,2.3-12.4c0.8-5.5,1.2-11,1.3-16.5c0.1-4.5-0.1-9-0.5-13.4c-0.7-8.8-2.3-17.5-4.8-25.9
		c-2.2-7.8-5.2-15.3-8.8-22.6c-3-5.9-6.4-11.5-10.2-16.9c-1.5-2-3-4-4.6-5.9c-2.6-3.3-5.5-6.4-8.5-9.3c-3.1-3-6.3-5.9-9.7-8.6
		c-3.7-2.9-7.4-5.7-11.1-8.5c-0.3-0.2-0.7-0.4-0.8-0.8c3.4,0.4,6.8,1.3,10.1,2.6c9.5,3.5,18.6,7.9,27.3,13.2
		c8,4.9,15.6,10.6,22.4,17c20.8,19.3,35.6,44.3,42.6,71.8c1.9,7.5,3.2,15.1,3.8,22.7c0.3,3.7,0.5,7.5,0.5,11.2
		c0.1,4.5-0.1,9.1-0.5,13.6c-0.6,5.8-1.4,11.5-2.6,17.2c-1.9,9.4-4.8,18.5-8.5,27.3c-7.6,18-18.7,34.3-32.8,47.9
		c-7.8,7.6-16.5,14.3-25.8,20c-6.7,4.1-13.8,7.6-21,10.6c-4.8,2-9.7,3.4-14.6,5c-1.1,0.4-2.4-0.1-2.9-1.3l0,0
		c-2.4-4.5-5.3-8.7-7.7-13.1c-2.5-4.6-4-9.6-4.3-14.8c-0.1-1.6-0.4-3.1-0.6-4.7c-0.2-1.1,0.1-1.6,1.2-1.9c4.9-1.1,9-3.8,12.7-7.1
		c2.6-2.3,5.2-4.6,7.9-6.9c0.7-0.6,1.5-1.2,2.3-1.8c0.5-0.3,0.7-1,0.4-1.6c0,0-0.1-0.1-0.1-0.1c-0.3-0.5-0.6-0.9-0.9-1.4
		c-0.6-1-1-1-2-0.4c-9.1,5.6-18.2,11.2-27.2,16.9c-2.6,1.7-5.6,2.1-8.6,2.6c-3.6,0.6-7.2,1.1-10.8,1.5c-5.6,0.7-11.3,0.7-16.9,0
		c-5.2-0.6-10.3-1.6-15.4-2.7c-2.7-0.7-5.3-1.7-7.8-3.2C117.8,251.4,116.9,249.9,116.8,248.3z"/>
	<path d="M207,148.4c-1.5-0.1-3-0.2-4.5-0.3c-0.4,0-0.8-0.1-1.2-0.3c-1.5-0.6-1.7-1.6-0.8-2.8c2.6-3.5,5.3-7,7.9-10.5
		c4-5.3,8.1-10.7,12.1-16c0.2-0.3,0.5-0.6,0.8-0.9c0.6-0.8,1.9-1,2.7-0.4c0.2,0.1,0.3,0.3,0.4,0.5c0.7,0.9,1.3,1.9,1.8,2.9
		c0.9,1.6,1.8,3.2,2.7,4.8c1.1,1.6,1,3.8-0.3,5.3c-4.1,5.3-8.1,10.6-12.3,15.9c-1.2,1.4-3.1,2.2-5,2.1
		C210.1,148.7,208.6,148.5,207,148.4z"/>
	<path d="M229.8,149.9c-2.7-0.2-4.9-0.3-7.1-0.4c-0.2,0-0.5,0-0.7-0.1c-1.9-0.5-3-1.7-1.6-3.6c2.6-3.7,5.3-7.3,8-11
		c1.3-1.7,3.1-1.6,4.1,0.3c2.2,4,4.4,8.1,6.5,12.2c0.9,1.7,0.2,2.8-1.7,3C234.7,150.4,232,149.9,229.8,149.9z"/>
</g>
</svg>
