<svg id="Layer_1" data-name="Layer 1" xmlns="http://www.w3.org/2000/svg" viewBox="0 0 299.19319 301.94446">
  <defs>
    <style>
      .cls-1 {
        fill: #e9e9ea;
      }

      .cls-2 {
        fill: #fff;
      }

      .cls-3 {
        fill: #bdc2c3;
      }

      .cls-4 {
        fill: #f0efef;
      }
    </style>
  </defs>
  <g>
    <ellipse class="cls-1" cx="149.5966" cy="150.97232" rx="147.09668" ry="148.47229"/>
    <path class="cls-2" d="M200,54.0278A142.97015,142.97015,0,0,1,302.2291,96.76585a146.95582,146.95582,0,0,1,0,206.46834,143.6346,143.6346,0,0,1-204.4582,0,146.95579,146.95579,0,0,1,0-206.46834A142.97013,142.97013,0,0,1,200,54.0278m0-5C117.38005,49.0278,50.4034,116.62035,50.4034,200S117.38005,350.97226,200,350.97226,349.59659,283.37964,349.59659,200,282.62,49.0278,200,49.0278Z" transform="translate(-50.4034 -49.0278)"/>
  </g>
  <g>
    <path class="cls-3" d="M326.1326,201.62326a120.40409,120.40409,0,0,0-1.92961-23.57457A123.23116,123.23116,0,0,0,214.76091,77.29539q-4.26172-.26268-8.52735-.52552a123.37741,123.37741,0,0,0-122.1767,89.95757,2.83832,2.83832,0,0,1-.87949,1.42068,27.09451,27.09451,0,0,0-3.98278,36.60926,2.23132,2.23132,0,0,1,.43765,1.28046c.067,1.50171.13446,3.0058.28843,4.5a1.30244,1.30244,0,0,1-.02566.50671c.11608.89849.10387,1.80455.19264,2.70811.06464.65764.16075,1.31336.25528,1.96949.11962.52913.24565,1.05673.33056,1.5939.01.04649.02153.08924.02961.14189.19424,1.26842.37408,2.53962.59858,3.80282a123.30631,123.30631,0,0,0,204.8215,69.73406,122.91,122.91,0,0,0,40.00942-89.37159ZM82.52108,188.27674c-1.1523-1.49121-1.05071-3.22337-.88116-4.948a23.4388,23.4388,0,0,1,1.60069-6.49226c1.11951-2.78022,3.33665-4.36669,5.93352-5.5616a1.06609,1.06609,0,0,1,.79244.00876,3.73954,3.73954,0,0,1,2.70984,2.79361,16.55968,16.55968,0,0,1,.21306,5.56856,17.7605,17.7605,0,0,1-1.09987,5.31732,8.17769,8.17769,0,0,1-6.11252,4.82606A3.13418,3.13418,0,0,1,82.52108,188.27674Zm3.57834,24.79966.008-.14468c4.62494-1.39677,9.24249-2.81856,13.87644-4.18479,8.25342-2.43332,16.54614-4.7252,24.89362-6.81656a7.22237,7.22237,0,0,1,3.08-.23377,2.76193,2.76193,0,0,1,1.77881,1.07617,5.79593,5.79593,0,0,1-.62434,7.03863,4.568,4.568,0,0,1-3.083,1.12994c-4.55675.23-9.11458.43853-13.67072.67954-4.33747.22949-8.67355.48644-13.00987.73706q-6.38219.36883-12.76378.74637A4.06348,4.06348,0,0,1,86.09942,213.0764ZM228.93661,314.7967a26.43108,26.43108,0,0,1-3.77665.64307c-5.37105.886-10.76937,1.63506-16.10131,2.7132a19.38562,19.38562,0,0,1-4.84512.24482c-1.66766-.0755-3.333-.20257-5.47635-.337-2.88207-.15011-6.24162-.33342-9.57964-.76862-15.464-2.016-30.218-6.23754-43.80442-14.09607a126.66613,126.66613,0,0,1-29.42544-23.17732A111.91355,111.91355,0,0,1,95.03394,248.181a127.58357,127.58357,0,0,1-8.58607-28.54651c-.30073-1.66787.14946-2.20781,1.81969-2.30868,5.66374-.342,11.32613-.70637,16.99022-1.04272q7.76088-.46091,15.52439-.87843c2.09781-.114,4.19748-.20031,6.29722-.2711a7.51685,7.51685,0,0,0,6.64335-4.09722,10.8268,10.8268,0,0,0,.69811-9.24548,7.618,7.618,0,0,0-4.63869-4.56316c-1.90574-.763-2.09788-1.2489-1.72163-3.24172,1.86713-9.89029-.54048-18.44083-8.05731-25.35947a26.14325,26.14325,0,0,0-25.93314-6.28861c-1.02105.27789-2.032.60023-3.0306.95046-.51992.1823-.65275-.03733-.62182-.47181a2.06739,2.06739,0,0,1,.19757-.69854q3.17681-6.89136,6.36406-13.7778a15.41562,15.41562,0,0,1,6.83049-7.36106,136.83949,136.83949,0,0,1,16.88115-8.24071,55.75661,55.75661,0,0,1,14.04331-3.17664c2.19474-.22287,4.37832-.56,6.57459-.76258,1.43672-.13251,2.887-.15317,4.33153-.16022a116.97784,116.97784,0,0,1,13.26638.67894,101.87693,101.87693,0,0,1,29.082,7.52164,25.41258,25.41258,0,0,1,11.09626,9.63466,80.77592,80.77592,0,0,1,9.31932,19.58552,296.87057,296.87057,0,0,1,8.5291,29.4501,100.36373,100.36373,0,0,1,1.99326,11.82124,8.34969,8.34969,0,0,1-1.41371,5.81579,116.07744,116.07744,0,0,1-27.02823,28.457,94.30214,94.30214,0,0,0-13.43091,11.87964,54.24745,54.24745,0,0,0-11.44742,19.71363,18.8075,18.8075,0,0,0-.92785,3.63348,5.82424,5.82424,0,0,0,2.46491,5.63077,25.915,25.915,0,0,0,8.085,3.80951,54.22993,54.22993,0,0,0,10.85427,1.90148c2.095.20679,4.20169.48739,6.30394.73767,4.50081.53582,8.93424-.11817,13.37831-.60811a70.13718,70.13718,0,0,0,12.56644-2.40789c.85545-.25726,1.39276.12066,1.37442.96113-.13572,6.221,1.90436,11.81988,4.84582,17.17121,1.39528,2.53842,2.93307,4.99,4.45689,7.45077a10.86112,10.86112,0,0,1,.77913,1.43756C230.207,313.89806,229.955,314.47256,228.93661,314.7967Zm91.53222-105.43545a135.13081,135.13081,0,0,1-2.105,13.89707,119.07277,119.07277,0,0,1-6.835,22.07107,115.557,115.557,0,0,1-26.52426,38.65484,118.762,118.762,0,0,1-20.8347,16.12537,123.30472,123.30472,0,0,1-16.9774,8.5342c-3.84536,1.582-7.82519,2.7669-11.77935,4.02766a1.79468,1.79468,0,0,1-2.32757-1.022c-1.91213-3.631-4.24844-7.01007-6.22627-10.60245a29.309,29.309,0,0,1-3.51027-11.92264c-.104-1.2736-.31661-2.53907-.5013-3.80513-.12707-.87127.09393-1.32484.95655-1.51834a23.5163,23.5163,0,0,0,10.27182-5.72353c2.12437-1.8529,4.22441-3.73364,6.34823-5.5872.5962-.52036,1.23479-.99265,1.86-1.47921a.92005.92005,0,0,0,.23292-1.363c-.23159-.37063-.47519-.7339-.7013-1.10779-.47122-.77918-.81154-.84739-1.59424-.36142-7.33424,4.55409-14.687,9.07873-21.99846,13.669a17.557,17.557,0,0,1-6.91987,2.0753c-2.906.454-5.81615.89581-8.73663,1.24019a52.37611,52.37611,0,0,1-13.64433-.03106,121.44836,121.44836,0,0,1-12.46824-2.20922,22.91118,22.91118,0,0,1-6.27394-2.5494,3.75136,3.75136,0,0,1-2.01042-3.082,31.76769,31.76769,0,0,1,2.11888-6.854,56.75053,56.75053,0,0,1,10.28162-15.31628,82.26866,82.26866,0,0,1,13.5547-11.87363A95.42,95.42,0,0,0,215.787,221.48c4.03539-5.5845,8.1246-11.13014,12.18573-16.69608.80954-1.10947.7529-1.62967-.21936-2.34607a1.60416,1.60416,0,0,0-2.59557.352c-.809,1.06149-1.61165,2.12778-2.53834,3.35215-.325-1.75314-.6348-3.32-.904-4.8939a200.3073,200.3073,0,0,0-5.93466-23.4757,187.00427,187.00427,0,0,0-7.13121-20.83323c-2.273-5.25964-4.82395-10.36723-8.55628-14.78068a34.69022,34.69022,0,0,0-12.524-9.45552,80.95549,80.95549,0,0,0-13.80256-4.32614,124.308,124.308,0,0,0-21.78284-3.20667,81.07952,81.07952,0,0,0-31.34274,3.84725,69.73169,69.73169,0,0,0-14.1852,6.55092c-.09318.05706-.18967.10893-.28566.1613-.55989.30522-1.30384.70034-1.74013.33189-.31185-.26333.3726-.88961.64761-1.3241a108.04456,108.04456,0,0,1,16.05637-19.43066,110.48485,110.48485,0,0,1,22.89533-17.47235,122.32469,122.32469,0,0,1,40.70325-14.44372,117.78894,117.78894,0,0,1,13.83942-1.3595,127.62842,127.62842,0,0,1,17.85814.5599,74.31439,74.31439,0,0,1,18.27788,3.94857,33.81023,33.81023,0,0,1,8.12962,2.07818A133.55108,133.55108,0,0,1,264.876,99.23972,110.69338,110.69338,0,0,1,283.008,112.97386a119.19975,119.19975,0,0,1,34.38161,58.00025,109.75661,109.75661,0,0,1,3.0932,18.35776c.23692,3.01766.38347,6.033.41413,9.06041A98.01074,98.01074,0,0,1,320.46883,209.36125Z" transform="translate(-50.4034 -49.0278)"/>
    <path class="cls-3" d="M168.1698,277.29163a31.76755,31.76755,0,0,1,2.11889-6.854,56.75063,56.75063,0,0,1,10.28163-15.31628A82.26916,82.26916,0,0,1,194.125,243.24769a95.42018,95.42018,0,0,0,21.662-21.76764c4.0354-5.58451,8.12458-11.13015,12.18572-16.69608.80954-1.10949.75291-1.62968-.21938-2.34606a1.60412,1.60412,0,0,0-2.59555.352c-.809,1.06148-1.61165,2.12777-2.53833,3.35214-.325-1.75314-.63481-3.32006-.904-4.89392a200.30221,200.30221,0,0,0-5.93466-23.47569,186.99438,186.99438,0,0,0-7.13121-20.83321c-2.27293-5.25966-4.82394-10.36722-8.55626-14.78069a34.69038,34.69038,0,0,0-12.524-9.45553,80.9596,80.9596,0,0,0-13.80257-4.32612,124.30835,124.30835,0,0,0-21.78286-3.20669,81.07935,81.07935,0,0,0-31.34274,3.84727,69.73261,69.73261,0,0,0-14.18519,6.5509c-.09319.05709-.18966.10895-.28567.1613-.55987.30523-1.30382.70036-1.74011.33191-.31183-.26336.3726-.88961.64761-1.32411a108.04487,108.04487,0,0,1,16.05635-19.43066A110.48411,110.48411,0,0,1,144.02946,97.8345a122.32413,122.32413,0,0,1,40.70325-14.44373,117.79151,117.79151,0,0,1,13.83942-1.35951,127.62861,127.62861,0,0,1,17.85816.55992,74.32214,74.32214,0,0,1,18.27794,3.94841c.11057.30875.40074.44017.63607.61351,3.03521,2.23578,6.04429,4.50583,8.99753,6.849a87.72782,87.72782,0,0,1,7.85139,6.9276,93.35355,93.35355,0,0,1,6.83408,7.514c1.25791,1.58135,2.52241,3.159,3.69929,4.79791a100.72775,100.72775,0,0,1,8.25355,13.65151,105.40679,105.40679,0,0,1,7.10829,18.22172,107.58849,107.58849,0,0,1,3.88081,20.938,97.17723,97.17723,0,0,1,.37783,10.84389,114.44457,114.44457,0,0,1-1.0783,13.31063c-.49917,3.36843-1.086,6.7177-1.85375,10.02745a110.285,110.285,0,0,1-4.99833,16.05333A102.38392,102.38392,0,0,1,250.16536,252.389a96.74864,96.74864,0,0,1-7.84707,6.82894,99.633,99.633,0,0,1-12.36778,8.27916,89.13093,89.13093,0,0,1-20.82245,8.4552,92.139,92.139,0,0,1-16.15883,2.78287,99.06586,99.06586,0,0,1-10.44277.28019,83.34355,83.34355,0,0,1-10.67787-1.01108A20.1343,20.1343,0,0,1,168.1698,277.29163Zm72.9048-80.67169c1.22907.07708,2.45865.22282,3.68711.21389a4.81808,4.81808,0,0,0,4.00146-1.69689q4.98391-6.3998,9.89919-12.85292a3.54681,3.54681,0,0,0,.24194-4.28305c-.75625-1.26573-1.44406-2.57222-2.19236-3.84288a15.40524,15.40524,0,0,0-1.45807-2.36832,1.559,1.559,0,0,0-2.54483-.10083,7.17974,7.17974,0,0,0-.62256.75889q-4.90016,6.46537-9.79573,12.93426-3.21245,4.24861-6.4097,8.50869c-.7754,1.03428-.5501,1.80448.63387,2.29784a2.85111,2.85111,0,0,0,.95419.2086C238.67135,196.46414,239.87283,196.54462,241.0746,196.61994Zm18.404,1.1542a59.08643,59.08643,0,0,0,6.13017.24592c1.53742-.13483,2.08118-1.08277,1.37117-2.42359q-2.60715-4.9235-5.27377-9.81536c-.8313-1.51994-2.30856-1.60926-3.344-.20884-2.17572,2.94262-4.33976,5.89445-6.46482,8.87371-1.12378,1.57552-.28691,2.48736,1.26487,2.92417a2.78518,2.78518,0,0,0,.572.04363C255.50961,197.52532,257.28505,197.63658,259.4786,197.77414Z" transform="translate(-50.4034 -49.0278)"/>
    <path class="cls-4" d="M198.73718,318.0608c-2.88208-.15011-6.2416-.33343-9.57964-.76859-15.464-2.01606-30.218-6.23757-43.80444-14.09607a126.667,126.667,0,0,1-29.42542-23.17734A111.91364,111.91364,0,0,1,95.03393,248.181a127.58448,127.58448,0,0,1-8.58606-28.54651c-.30074-1.66788.14945-2.2078,1.81971-2.30865,5.66373-.342,11.32613-.70639,16.99019-1.04275q7.76091-.46091,15.5244-.87843c2.09782-.114,4.19746-.20031,6.29724-.27108a7.51685,7.51685,0,0,0,6.64334-4.09724,10.82676,10.82676,0,0,0,.69811-9.24548,7.61816,7.61816,0,0,0-4.63871-4.56317c-1.90572-.763-2.09785-1.24886-1.72164-3.24168,1.86714-9.8903-.54047-18.44083-8.05729-25.35949a26.14341,26.14341,0,0,0-25.93315-6.28863c-1.02106.2779-2.032.60023-3.03061.95046-.51989.18233-.65271-.03731-.6218-.47178a2.0673,2.0673,0,0,1,.19759-.69856q3.17674-6.89133,6.364-13.77779a15.41572,15.41572,0,0,1,6.83047-7.36106,136.841,136.841,0,0,1,16.88117-8.2407,55.75671,55.75671,0,0,1,14.04329-3.17667c2.19476-.22284,4.37832-.56,6.57459-.76256,1.43675-.1325,2.887-.15319,4.33154-.16021a116.98264,116.98264,0,0,1,13.26639.67893,101.8768,101.8768,0,0,1,29.082,7.52164,25.41291,25.41291,0,0,1,11.09629,9.63467,80.77615,80.77615,0,0,1,9.31931,19.58553,296.87667,296.87667,0,0,1,8.52909,29.45008,100.363,100.363,0,0,1,1.99326,11.82124,8.34984,8.34984,0,0,1-1.4137,5.81579,116.07853,116.07853,0,0,1-27.02822,28.457,94.3,94.3,0,0,0-13.43093,11.87963,54.24712,54.24712,0,0,0-11.44741,19.71365,18.80658,18.80658,0,0,0-.92785,3.63346,5.8242,5.8242,0,0,0,2.4649,5.63078,25.91569,25.91569,0,0,0,8.085,3.80952,54.22879,54.22879,0,0,0,10.85428,1.90144c2.095.20681,4.20169.4874,6.30395.7377,4.50079.5358,8.93423-.11819,13.37829-.6081a70.13882,70.13882,0,0,0,12.56644-2.40791c.85548-.25724,1.39276.12066,1.37441.96114-.13571,6.221,1.90439,11.81986,4.84583,17.17121,1.39528,2.53841,2.93308,4.98995,4.45691,7.45078a10.85766,10.85766,0,0,1,.77912,1.43753c.41929.98335.16723,1.55786-.85111,1.882a26.43754,26.43754,0,0,1-3.77666.64307c-5.37106.886-10.76938,1.635-16.10131,2.71321a19.38567,19.38567,0,0,1-4.84513.24482C202.54586,318.3223,200.88052,318.19521,198.73718,318.0608Zm-23.4573-163.04623a27.58736,27.58736,0,1,0,26.39588,28.51822A27.53618,27.53618,0,0,0,175.27988,155.01457Z" transform="translate(-50.4034 -49.0278)"/>
    <path class="cls-3" d="M168.1698,277.29163a20.1343,20.1343,0,0,0,3.67879.7126,83.34355,83.34355,0,0,0,10.67787,1.01108,99.06586,99.06586,0,0,0,10.44277-.28019,92.139,92.139,0,0,0,16.15883-2.78287,89.13093,89.13093,0,0,0,20.82245-8.4552,99.633,99.633,0,0,0,12.36778-8.27916,96.74864,96.74864,0,0,0,7.84707-6.82894,102.38392,102.38392,0,0,0,24.25133-36.10084,110.285,110.285,0,0,0,4.99833-16.05333c.76777-3.30975,1.35458-6.659,1.85375-10.02745a114.44457,114.44457,0,0,0,1.0783-13.31063,97.17723,97.17723,0,0,0-.37783-10.84389,107.58849,107.58849,0,0,0-3.88081-20.938,105.40679,105.40679,0,0,0-7.10829-18.22172,100.72775,100.72775,0,0,0-8.25355-13.65151c-1.17688-1.63887-2.44138-3.21656-3.69929-4.79791a93.35355,93.35355,0,0,0-6.83408-7.514,87.72782,87.72782,0,0,0-7.85139-6.9276c-2.95324-2.34315-5.96232-4.6132-8.99753-6.849-.23533-.17334-.5255-.30476-.63607-.61351a33.81749,33.81749,0,0,1,8.12954,2.07833A133.55417,133.55417,0,0,1,264.876,99.23971,110.69532,110.69532,0,0,1,283.008,112.97386a119.1995,119.1995,0,0,1,34.38162,58.00024,109.75339,109.75339,0,0,1,3.09318,18.35775c.23693,3.01767.38349,6.03308.41415,9.06043a98.01047,98.01047,0,0,1-.42807,10.969,135.13981,135.13981,0,0,1-2.105,13.89709,119.07444,119.07444,0,0,1-6.835,22.07106,115.55817,115.55817,0,0,1-26.52423,38.65484,118.76254,118.76254,0,0,1-20.83474,16.12538,123.30819,123.30819,0,0,1-16.97736,8.5342c-3.8454,1.582-7.82522,2.76689-11.77938,4.02766a1.79473,1.79473,0,0,1-2.32758-1.022c-1.91213-3.631-4.24842-7.01006-6.22625-10.60244a29.30938,29.30938,0,0,1-3.51028-11.92262c-.10395-1.27362-.3166-2.53909-.50128-3.80513-.1271-.87127.09392-1.32485.95652-1.51834a23.51618,23.51618,0,0,0,10.27184-5.72357c2.12435-1.85288,4.2244-3.73362,6.34821-5.58716.59622-.52036,1.23482-.99265,1.86-1.47924a.92.92,0,0,0,.23292-1.363c-.23156-.37063-.47519-.73388-.70128-1.10776-.47121-.77919-.81157-.84742-1.59425-.36143-7.33426,4.55409-14.687,9.0787-21.99848,13.669a17.55715,17.55715,0,0,1-6.91985,2.07529c-2.906.454-5.81617.89581-8.73663,1.24019a52.37663,52.37663,0,0,1-13.64434-.031,121.44185,121.44185,0,0,1-12.46825-2.20922,22.91157,22.91157,0,0,1-6.27392-2.5494A3.75144,3.75144,0,0,1,168.1698,277.29163Z" transform="translate(-50.4034 -49.0278)"/>
    <path class="cls-3" d="M86.10744,212.93173c4.62495-1.39677,9.24251-2.81858,13.87646-4.18479,8.2534-2.43332,16.54614-4.72523,24.89359-6.81658a7.22271,7.22271,0,0,1,3.08-.23376,2.76187,2.76187,0,0,1,1.77881,1.07618,5.796,5.796,0,0,1-.62431,7.03861,4.5681,4.5681,0,0,1-3.083,1.13c-4.55673.23-9.11457.43853-13.6707.67955-4.33749.22945-8.67354.48642-13.0099.737q-6.38213.36885-12.76375.74641a4.0698,4.0698,0,0,1-.4852-.028Z" transform="translate(-50.4034 -49.0278)"/>
    <path class="cls-2" d="M92.88945,179.64581a17.75885,17.75885,0,0,1-1.09985,5.31731,8.17756,8.17756,0,0,1-6.11253,4.82606,3.13417,3.13417,0,0,1-3.156-1.51243c-1.15227-1.49124-1.05071-3.22339-.88115-4.948a23.4388,23.4388,0,0,1,1.60068-6.49225c1.11951-2.78021,3.33666-4.36667,5.93354-5.56159a1.06627,1.06627,0,0,1,.79245.00873,3.73958,3.73958,0,0,1,2.70983,2.79365A16.55931,16.55931,0,0,1,92.88945,179.64581Z" transform="translate(-50.4034 -49.0278)"/>
    <path class="cls-3" d="M241.0746,196.62c-1.20177-.07534-2.40325-.15582-3.60549-.22274a2.85111,2.85111,0,0,1-.95419-.2086c-1.184-.49336-1.40927-1.26356-.63387-2.29784q3.195-4.26169,6.4097-8.50869,4.89282-6.471,9.79573-12.93426a7.17974,7.17974,0,0,1,.62256-.75889,1.559,1.559,0,0,1,2.54483.10083,15.40524,15.40524,0,0,1,1.45807,2.36832c.7483,1.27066,1.43611,2.57715,2.19236,3.84288a3.54681,3.54681,0,0,1-.24194,4.28305q-4.91941,6.44955-9.89919,12.85292a4.81808,4.81808,0,0,1-4.00146,1.69689C243.53325,196.84276,242.30367,196.697,241.0746,196.62Z" transform="translate(-50.4034 -49.0278)"/>
    <path class="cls-3" d="M259.4786,197.77414c-2.19355-.13756-3.969-.24882-5.7444-.36036a2.78518,2.78518,0,0,1-.572-.04363c-1.55178-.43681-2.38865-1.34865-1.26487-2.92417,2.12506-2.97926,4.2891-5.93109,6.46482-8.87371,1.03544-1.40042,2.5127-1.3111,3.344.20884q2.67324,4.88786,5.27377,9.81536c.71,1.34082.16625,2.28876-1.37117,2.42359A59.08643,59.08643,0,0,1,259.4786,197.77414Z" transform="translate(-50.4034 -49.0278)"/>
    <path class="cls-3" d="M175.27988,155.01457a27.58733,27.58733,0,1,1-28.71694,26.26118A27.58991,27.58991,0,0,1,175.27988,155.01457Zm-5.97254,18.52522a16.87177,16.87177,0,0,0-.146-4.81448,3.852,3.852,0,0,0-4.72921-3.094,10.18115,10.18115,0,0,0-7.28027,5.34288,19.39942,19.39942,0,0,0-2.01128,9.44064,4.307,4.307,0,0,0,5.20733,4.27236,14.23918,14.23918,0,0,0,4.49036-1.46127,7.1048,7.1048,0,0,0,3.34554-3.67541A18.99145,18.99145,0,0,0,169.30734,173.53979Z" transform="translate(-50.4034 -49.0278)"/>
    <path class="cls-2" d="M169.30821,173.54048a19.01616,19.01616,0,0,1-1.12444,6.01,7.1048,7.1048,0,0,1-3.34554,3.67541,14.23918,14.23918,0,0,1-4.49036,1.46127,4.307,4.307,0,0,1-5.20733-4.27236,19.39942,19.39942,0,0,1,2.01128-9.44064,10.18115,10.18115,0,0,1,7.28027-5.34288,3.852,3.852,0,0,1,4.72921,3.094A16.90755,16.90755,0,0,1,169.30821,173.54048Z" transform="translate(-50.4034 -49.0278)"/>
  </g>
</svg>
