<?xml version="1.0" encoding="utf-8"?>
<!-- Generator: Adobe Illustrator 25.2.1, SVG Export Plug-In . SVG Version: 6.00 Build 0)  -->
<svg version="1.1" width="500" id="Layer_2" xmlns="http://www.w3.org/2000/svg" xmlns:xlink="http://www.w3.org/1999/xlink" x="0px" y="0px"
	viewBox="0 0 1000 1000" style="enable-background:new 0 0 1000 1000;" xml:space="preserve">
<style type="text/css">
	.st0{fill:#323C54;}
	.st1{fill:#EBF4FB;}
	.st2{fill:#C7E0F5;}
	.st3{fill:#EAF2FB;}
	.st4{fill:#E9F2FA;}
	.st5{fill:#B2DAF4;}
	.st6{fill:#B2DBF4;}
	.st7{fill:#E8F1FA;}
	.st8{fill:#C5DFF3;}
	.st9{fill:#F7EBF4;}
	.st10{fill:#B0D9F4;}
	.st11{fill:#E7F0FA;}
	.st12{fill:#F1E6F2;}
	.st13{fill:#364057;}
	.st14{fill:#FFFFFF;}
	.st15{fill:#373636;}
	.st16{fill:#8C8C8C;}
	.st17{fill:#171617;}
	.st18{fill:#3A3B3A;}
	.st19{fill:#40403F;}
	.st20{fill:#E74342;}
	.st21{fill:#F7FCFE;}
</style>
<g>
	<g id="ajbOlw.tif_3_">
		<g>
			<path class="st0" d="M59.39,665.86c9.38-5.01,18.62-2.11,27.65,0.89c13.14,4.36,24.49,12,37.05,22.81
				c-2.73-21.06-1.43-39.57-0.46-58.09c4.21-80.39,21.77-157.24,66.7-225.21c61.83-93.52,150.75-146.41,260.29-165.32
				c58.33-10.07,117.1-12.11,175.43,0.7c77.79,17.08,138.22,61.38,187.93,121.82c58.3,70.89,88.31,153.11,97.26,243.68
				c2.61,26.44,4.3,52.92,4.2,79.5c-0.03,6.86,0.53,11.03,9.3,6.13c11.13-6.22,22.51-4.89,32.79,3.07c1.98,8.71-4.11,4.35-6.59,3.57
				c-9.61-3.03-18.63-2.97-27.7,2.05c-5.01,2.77-9.13,6.43-9.54,11.83c-0.49,6.49,6.76,2.35,9.56,5.32c1.8,1.9,6.02,2.43,5.02,5.78
				c-0.98,3.3-4.63,2.47-7.42,2.03c-7.01-1.11-14.02-2.19-21.15-1.45c-2.07,0.22-4.61,0.18-4.83,2.96
				c-0.16,2.03,1.87,2.75,3.45,3.52c4.12,2.03,8.4,3.81,12.31,6.2c2.43,1.48,6.71,2.88,4.98,6.71c-1.55,3.42-5.1,0.93-7.64,0.41
				c-7.72-1.6-14.78-5.09-21.42-9.1c-15.25-9.22-30.48-11.28-47.64-4.65c-6.6,2.55-7.74,5.27-7.77,11.11
				c-0.06,12.39-0.58,24.77-0.97,37.16c-0.11,3.57-0.07,7.61-5.13,7.69c-24.93,0.42-50.07,3.71-74.38-5.05
				c-22.27-10.87-45.11-20.36-68.42-28.76c-4.23-1.52-9.13-2.35-11.99-6.32c-8.74-12.12-21.07-11.68-34.87-11
				c2.25,4.45,8.87,6.34,6.11,10.06c-3.01,4.05-8.04,0.28-11.56-1.45c-16.44-8.08-33.71-9.94-51.73-8.72
				c-6.03,0.41-7.72,2.34-7.65,8.2c0.18,14.11,0.33,28.27-2.34,42.25c-3.46,0.93-6.91,1.85-10.37,2.78
				c-21.56-1.05-43.49,2.53-64.62-2.85c-15.17-3.86-28.61-3.22-41.36,6.02c-1.74,1.26-3.74,2.61-5.67,0.67
				c-2.59-2.59-0.16-4.54,1.41-6.26c5.75-6.29,13.24-9.55,23.35-11.15c-20.29-11.37-38.68-21.88-57.3-31.97
				c-5.62-3.05-10.04-7.71-17.71-8c-15.33-0.58-29.57,1.3-42.91,9.24c-7.06,4.2-15.04,7.1-23.09,7.55
				c-17.37,0.98-34.44,2.61-50.63,9.57c-2.12,0.91-5.03,2.28-6.46-0.92c-1.14-2.55,1.48-3.52,3.05-4.81
				c1.19-0.99,3.43-1.49,1.69-4.33c-7.81-0.83-15.87-0.82-23.97,0.17c-12.73,1.56-25.01,4.8-37.15,8.87
				c-2.54,0.85-6.45,4.51-8.17,0.16c-1.33-3.37,3.56-4.35,5.77-6.33c2.76-2.48,7.39-2.36,9.32-6.65
				c-21.21-14.07-44-23.16-69.38-24.65c-10.42-0.61-19.03-3.86-23.29-13.73c-8.69-20.14-26.72-26.93-45.47-32.94
				C77.02,672.08,66,674.26,59.39,665.86z M550.44,774c0.34,0.61,0.83,1.07,1.46,1.37c1.4,1.35,2.96,4.26,4.78,2.51
				c2.11-2.03-0.98-3.11-2.4-4.27c-0.69-0.74-1.38-1.48-2.07-2.21c-0.68-0.74-1.36-1.47-2.04-2.21
				c-4.31-7.07-12.48-11.45-15.21-19.63c0.87-0.81,1.73-1.62,2.6-2.42c7.65,8.93,15.3,17.87,23.22,27.12
				c2.24-3.05,2.94-3.56,2.93-4.06c-0.51-26.86-1.23-53.73-1.53-80.59c-0.07-5.93-3.51-4.68-6.98-4.73
				c-17.34-0.24-34.72,0.01-51.99-1.18c-6.81-0.47-7.49,1.53-7.38,7.12c0.5,25.1,0.76,50.21,0.99,75.32
				c0.12,13.74,0.01,13.45,13.29,12.99c12.07-0.41,24.16-0.09,36.92-0.09c-2.39-5.52-7.83-7.01-8.15-12.34
				c4.59,0.21,6.16,4.15,9.38,5.35C548.98,772.7,549.71,773.35,550.44,774z M897.41,609.09c-0.48-0.53-0.95-1.07-1.43-1.6
				c-6.81-10.13-17.74-15.76-28.36-25.05c15.23,1.81,22.91,11.78,32.76,20.78c0.71-12.38-2.25-22.5-4.08-32.7
				c-4.87-27.1-11.77-53.69-20.98-79.67c-1.66-4.69-2.58-8.15-9.09-4.51c-9.45,5.29-19.64,9.25-29.52,13.78
				c-20.13,5.8-40.43,10.91-62.14,13.16c32.07,38.3,41.97,58.06,50.48,99.06c1.62,7.81-0.53,18.54,5.42,22.76
				c6.52,4.63,16.22-1.45,24.68-1.78c3.84-0.15,7.61-2.17,11.41-3.35c9.92-2.23,18.34-7.79,27.99-11.99
				c-4.23-6.24-11.89-8.15-15.78-15.22c6.9-0.52,9.98,4.89,14.76,6.32c0.79,0.63,1.58,1.26,2.38,1.89c0.78,0.64,1.56,1.27,2.34,1.91
				c0.25,1.01,0.62,1.96,1.88,1.34c0.12-0.06-0.45-1.54-0.7-2.35C898.77,610.94,898.09,610.01,897.41,609.09z M140.66,602.07
				c-2.05-2.65-3.48-1.53-4.7,0.78c-6.52,7.94,3.69,14.25,2.13,21.73c-2.86,0.66-2.46-4.19-7.06-2.79c0,10.74-0.18,21.94,0.05,33.13
				c0.25,11.96-0.2,24.07,1.6,35.82c3.07,20.02,13.79,26.43,27.11,24.08c9.23,2.29,18.56,4.24,27.65,6.97
				c8.79,2.64,16.79,7.24,25.04,11.25c7.79,3.78,13.03,13.01,25.7,12.73c-7.57-6.96-14.35-11.35-15.88-19.82
				c6.77,4.98,12.15,11.65,20.14,14.72c1.22,1.46,2.76,3.68,4.48,1.57c1.21-1.5-1.43-2.34-2.54-3.33
				c-9.01-9.27-18.63-18.06-24.29-30.23c10.35,8.37,18.31,19.41,30.29,26.16c-1.89-30.19-4.09-59.47,0.85-88.68
				c0.67-3.99,0.7-6.67-4.2-7.73c-35.78-7.74-69.71-20.97-103.34-35.08C142.67,602.92,141.67,602.5,140.66,602.07z M270.42,336.52
				c-5.41-2.95-8.45,1.02-11.85,4.02c-30.82,27.2-56.48,58.56-75.56,95.02c-8.12,15.52-12.1,13.59,8.51,20.12
				c20.85,9.14,42.51,15.7,65.99,21.88c-9.35-14.79-9.35-14.79-9.28-21.54c9.71,10.82,15.91,25.14,32.15,26.38
				c-6.43-7.9-12.68-15.64-17.18-24.92c10.82,8.59,18.24,20.9,30.57,27.65c1.58,0.8,3.15,1.6,4.73,2.4
				c41.31,9.33,82.99,15.66,125.49,15.21c18.01,3.21,35.99,6.32,46.72-14.27c0.16-0.31,0.3-0.63,0.45-0.95
				c33.96-31.74,75.42-44.6,120.73-47.13c7.62-0.43,8.54-3.44,7.98-9.72c-1.46-16.52-2.52-33.08-3.73-49.62
				c-4.62-7.13-9.65-6.18-14.9-0.74c-3.54,0.12-7.08,0.25-10.62,0.37c0.01-2.47,0.01-4.93,0.02-7.4
				c35.41-2.08,70.7-5.28,105.91-9.66c8.46-1.05,9.62-3.07,5.43-10.76c-14.3-26.29-31.46-50.44-51.34-72.77
				c-3.42-3.84-6.52-5.01-11.87-4.16c-33.4,5.31-67.12,7.31-100.73,3.54c-13.98-1.57-23.11,0.79-27.05,14.99
				c-3.61-1.63-3.36-5.03-3.74-8.15c3.86-7,2.19-9.82-6.18-10.87c-20.78-2.61-40.88-8.33-60.33-16.11
				c-3.17-1.27-5.92-1.29-9.18-0.44c-34.96,9.09-68.1,21.7-94.56,47.59c-5.37-4.16-10.99-10.56-14.58,1.59
				c-11.25,7.22-23.77,12.85-31.21,24.85C270.93,334.11,270.68,335.32,270.42,336.52z M791.98,687.47
				c-5.92-0.71-11.87-1.22-17.74-2.2c-5.81-0.96-7.86,0.56-7.75,6.99c0.38,22.18,0.07,44.38-0.06,66.57
				c-0.04,6.94-3.19,16.99,0.18,20.06c4.63,4.23,13.82-0.68,21.13-0.77c7.84,0,15.69,0,24.11,0c-1.73-6.05-7.54-9.29-7.42-16.07
				c7.2,3.36,8.41,11.35,15.7,13.7c-4.56-10.05-13.03-18.12-14.72-30.17c4.52,5.32,9.04,10.64,15.7,18.48
				c0-22.67,0.05-42.36-0.02-62.05c-0.05-16.78-0.1-16.71-16.39-14.96C800.49,687.51,796.22,687.35,791.98,687.47z M203.97,473.33
				c-2.66-7.35-10.34-5.6-15.46-8.49c-17.06-7.12-17.13-7.15-23.92,10.16c-12.31,31.35-21.33,63.62-26.42,96.91
				c-3.77,24.63-6.8,18.23,15.35,27.44c5.93,2.33,11.86,4.67,18.25,7.19c0.48-4.61,0.81-7.71,1.13-10.81
				c1.35,0.01,2.7,0.01,4.05,0.02c1.7,4.64-4.71,11.34,4.03,14.26c35.54,11.89,71.32,22.81,108.61,27.86
				c11.51,2.7,23.1,4.64,36.91,4.73c-8.55-8.18-15.19-15.51-19.58-26.62c6.09,2.12,6.91,6.38,9.43,8.99
				c7.74,8.04,14.62,17.22,26.53,19.64c1.91,0.05,3.83,0.11,5.74,0.17c15.44,2.75,31.02,1.23,46.54,1.76
				c6.76,0.23,9.01-1.57,9.57-8.53c3.42-42.68,16.71-82.08,40.5-117.84c1.31-1.97,3.47-3.62,3.03-7.05
				c-16.5,1.15-32.95-0.26-49.42-1.08c-20.44-3.7-20.44-3.7-24.52,13.45c-0.6,1.24-1.29,2.44-1.78,3.72
				c-14.02,36.48-19.08,74.87-24.21,113.24c-1.73,0.01-3.45,0.02-5.18,0.02c-3.17-2.45-7.23-3.88-9.06-7.86
				c0.18-2.17,0.36-4.34,0.55-6.51c2.39,1.92,4.77,3.83,7.67,6.16c1.53-5.29,2-9.48-2.6-12.62c2.06-0.36,4.21-0.55,5.21-2.84
				c0.37-4.17,0.59-8.37,1.14-12.52c3.05-22.93,9.45-45.16,14.15-67.75l-0.07,0.05c1.74-1.01,1.89-2.67,1.8-4.43
				c3.12-8.17,6.25-16.35,9.66-25.28c-53.98-6.15-105.67-17.69-156.1-34.7c-3.5-1.18-5.26-0.24-6.89,2.45
				C206.36,476.52,204.71,475.56,203.97,473.33z M776.5,564.43c1.91,1.62,3.99,5.35,6.32,2.54c1.52-1.83-2.49-3.19-4.29-4.5
				c-1.81-1.4-3.62-2.8-5.69-4.39c3.9-1.76,6.68-0.38,9.18,1.59c3.25,2.55,5.95,4.26,9.94,0.54c4.56-4.25,0.89-7.04-0.99-9.98
				c-25.81-40.24-63.2-61.44-110.3-66.5c-2.66-0.29-6.13-1.43-5.36,3.58c0.01,11.36-1.16,22.88,0.35,34.04
				c1.51,11.19,3.12,21.93-0.2,33.04c-1.98,6.62,0.9,10.57,8.18,9.29c7.38-1.29,14.06,1.03,20.73,3.22
				c18.51,6.06,32.97,17.55,43.02,33.96c10.14-10.5,19.66-20.35,29.29-30.33c-2.17-3.46-8.09-4.05-10.37-8.77
				C770.86,558.32,772.86,564.47,776.5,564.43z M587.04,259.69c5.78-1.05,10.2,2.04,14.64,4.9c2.7,1.73,5.07,3.16,8.72,2.59
				c13.6-2.14,27.22-4.09,42.94-8.47c-35.31-11.36-69.2-16.42-104-15.69c-31.23-1.84-96.71,4.89-117.14,12.37
				c49.32,13.7,98.29,18.26,149.9,14.6c-9.38-8.07-19.94-9.38-30.77-15.99c18.57,0.63,30.72,12.16,46.67,15.83
				C595.54,263.12,589.32,263.82,587.04,259.69z M792,678.13c7.4,0.36,14.85,0.37,22.2,1.21c5.61,0.64,6.51-1.84,6.4-6.55
				c-0.72-31.54-3.94-62.66-14.84-92.55c-6.11-16.77-6.22-16.76-19.98-4.77c-3.71,3.24-7.22,6.7-10.82,10.06
				c-6.73,5.68-13.37,11.49-20.24,17c-3.37,2.7-3.62,5.17-1.75,9.06c6.65,13.89,8.82,28.99,10.99,44.04
				c1.15,8-0.69,19.94,3.76,23.04C773.07,682.4,783.67,678.64,792,678.13z M870.76,718.98c14.43,6.37,16.9,4.9,17.2-10.01
				c0.39-19.69-0.21-39.31-2.19-58.93c-1.93-19.09-1.51-19.14-19.31-12.36c-10.41,1.83-20.71,4.56-31.37,4.43
				c-4.02-0.05-5.47,1.16-5.35,5.47c0.65,23.71,1.14,47.42,1.3,71.14c0.04,6.33,2.17,7.1,7.61,5.17
				C848.99,720.24,859.46,716.67,870.76,718.98z M636.64,276.71c22.24,23.4,41.26,49.09,55.14,78.34c2.02,4.26,4.41,5.65,9,4.82
				c19.07-3.47,38.38-5.61,57.15-10.7c8.6-0.57,16.85-2.57,26.33-5.11c-32.81-33.77-68.74-60.06-110.71-77.78
				c-1.92-0.81-4.22-2.16-5.97-1.74c-10.64,2.55-21.24,5.35-31.7,8.55C633.42,273.83,634.91,275.77,636.64,276.71z M677.62,597.21
				c-1.82-2.32-3.99-1.88-6.24-0.81c1.27,0.98,2.53,1.95,3.8,2.93c7.24,8.3,16.96,14.41,21.14,25.83
				c-7.47-6.22-14.93-12.44-24.09-20.06c3.15,14.54,5.16,26.75,4.73,39.16c-0.18,5.14,2.55,6.28,6.75,7.55
				c13.22,3.98,26.33,8.37,39.38,12.88c10.5,3.63,20.86,7.66,32.17,11.85c-0.93-16.31-2.8-30.99-6.22-45.46
				c-2.78-11.74-6.29-21.17-21.94-21.94c-12.19-0.6-24.13-6.22-36.95-9.82c1.93,5.73,8.55,6.28,9.22,13.77
				C691.16,607.09,684.39,602.15,677.62,597.21z M569.15,502.66c24.74-15.5,51.37-25.84,81.67-28.52
				c-58.27-36.22-101.68-29.21-158.84,9.27c-9.78,6.75-18.03,14.98-25.69,25.15c22.22,6.89,42.73,14.65,63.14,22.67
				c2.8,1.1,6.73,3.3,8.12-1.05c1.11-3.46-3.29-3.87-5.55-4.93c-7.76-3.64-15.67-6.94-23.52-10.37c13.46-2.39,23.86,6.75,38.3,9.47
				c-4.59-7.29-12.43-6.71-14.4-14.38c15.37,12.32,25.76,2.89,36.16-6.46C568.78,503.28,568.94,502.95,569.15,502.66z M656.62,548.6
				c4.32,2.68,8.63,5.36,12.95,8.05c0.44-0.73,0.87-1.45,1.31-2.18c-4.1-2.8-8.2-5.6-12.31-8.4c0.57-1.57,0.66-3.57,3.36-2.08
				c8.5,4.69,8.91,0.02,8.82-7.03c-0.22-15.9,0.06-31.82,0.68-47.71c0.17-4.5-0.31-6.3-5.3-6.25
				c-47.06,0.44-86.72,17.81-119.42,51.44c-2.58,2.65-3.7,4.59-0.19,7.62c15.58,13.44,29.12,28.91,42.78,44.21
				c3.92,4.39,6.25,3.65,10.15,0.17c11.01-9.82,24.08-16.14,38.2-20.04c8.5-2.35,17.28-3.69,27.02-5.71
				c-13.27-8.42-25.39-16.1-37.5-23.78c0.55-0.85,1.1-1.69,1.65-2.54C638.09,539.11,647.36,543.86,656.62,548.6z M270.27,742.91
				c11.64,4.26,22.99,5.71,34.26-1.65c3.75-2.44,8.52-3.4,12.92-4.74c2.6-0.79,5.68-2.13,7.85,0.67c2.29,2.95-2.33,4.34-2.19,7.41
				c15.78,0.02,28.06-8.23,41.13-15.2c-5.65-6.58-14.19-9.57-17.99-20.54c7.36,5.28,12.59,8.82,17.59,12.67
				c8.28,6.38,8.21,6.47,16.24,4.07c-9.03-7.69-17.91-15.25-26.79-22.82c16.9,4.37,26.79,20.27,45.86,25.87
				c-6.9-10.24-16.04-14.48-18.51-24.59c7.43,6.12,14.87,12.24,23.92,19.7c-2.25-22.31-2.24-42.65-1.72-63
				c0.1-4.05-1.05-5.53-5.38-5.39c-37.66,1.16-74.95-2.84-112.12-8.36c-6.9-1.49-13.84-2.81-20.68-4.52
				c-5.25-1.31-6.44,0.6-6.77,5.72c-1.73,27.12-2.75,54.21-2.13,81.43C256.03,741.06,259.44,744.98,270.27,742.91z M481.94,665.32
				c1.4,1.8,2.15,4.3,5.02,4.62c1.54-3.39-0.7-5.14-2.88-6.91c-2.16-5.61-8.53-9.05-8.97-16.05c5.72,1,6.87,7.74,12.3,8.03
				c0.27-0.59,0.52-0.9,0.55-1.23c3.19-39.89,13.92-77.13,38.65-109.42c4.05-5.29-0.61-5.61-3.73-6.84
				c-17.77-6.99-35.73-13.57-53.24-21.16c-6.14-2.66-9.13-1.86-12.84,3.48c-20.45,29.53-34.14,61.72-40.15,97.2
				c-4.86,28.69-5.05,28.68,21.29,41.14c13.22,6.25,26.58,12.14,42.3,17.07c-5.51-12.85-17.14-18.47-23.71-31.35
				C468.17,650.37,474.36,658.66,481.94,665.32z M768.59,356.87c-49.25,9.03-98.64,17.1-151.62,21.53
				c9.3,4.79,15.51,7.99,21.71,11.18c-2.35,4.47-4.69,1.82-7.49,0.31c-6.43-3.47-13.06-6.6-19.67-9.73
				c-2.98-1.41-6.48-3.04-4.64,3.07c-4.43,1.09-3.97,3.94-3.33,7.57c2.2,12.57,3.61,25.29,2.99,38.05
				c-0.37,7.68,1.22,10.8,10.05,11.1c57.26,1.95,107.06,21.93,147.72,62.99c1.94,1.96,3.56,4.59,7.01,3.87
				c20.95-4.35,41.95-8.52,62.74-17.23c-6.46-5.15-14.18-6.22-19.3-13.64c11.13,1.49,18.63,8.49,28.18,9.62
				c-12.39-10.73-27.39-17.33-40.1-27.71c7.03,2.87,14.06,5.75,21.08,8.62c6.05,3.42,12.1,6.84,18.12,10.25
				c1.65-2.75,0.3-4.57-0.47-6.51c-16.44-41.21-42.08-76.79-68.52-111.88C771.88,356.76,770.55,355.94,768.59,356.87z
				 M539.77,543.01c-34.05,37.83-40.95,84.42-45.59,131.75c-0.53,5.43,3.57,6.85,7.78,5.66c16.98-4.79,34.31-1.82,51.43-2.24
				c7.43-0.18,9.39-2,10.03-8.89c2.31-24.87,7.64-48.91,23.23-69.35c2.79-3.66,0.93-5.53-1.41-7.89
				C569.61,576.26,553.75,560.69,539.77,543.01z M677.12,656.68c0,27.3,0.26,52.78-0.17,78.25c-0.12,7.27,3.11,9.5,9.36,11.36
				c22.2,6.61,43.95,14.48,67.05,25.93c-7.72-14.06-14.06-26.6-17.24-40.48c8.96,7.79,10.98,20.22,19.31,29.57
				c2.22-12.16-8.1-19.14-9.43-29.44c5.7-0.2,4.89,6.63,9.93,7.7c0-16.99-0.04-33.78,0.03-50.56c0.02-3.8-2.81-4.58-5.43-5.47
				C726.48,675.35,702.14,667.96,677.12,656.68z M487.34,773.06c0-20.11,0.02-39.53-0.01-58.94c-0.01-8.48,2.42-18.15-0.86-25.13
				c-3.68-7.86-15.26-6.75-23.22-9.97c-17-6.87-33.15-15.53-50.43-23.91c-2.31,24.67-1.19,48.35-1.43,71.98
				c-0.04,3.8,1.75,5.64,4.9,7.23C440.55,746.6,464.71,759.07,487.34,773.06z M778.19,355.25c31.85,35.43,54.81,75.35,73.01,118.12
				c2.34,5.49,3.71,8.74,11.12,5.68c7.36-3.03,6.34-6.27,3.94-11.85c-16.9-39.27-39.86-74.65-67.29-107.38
				C792.99,352.69,787.37,350.76,778.19,355.25z M896.14,689.26c0,7.43-0.06,14.85,0.04,22.27c0.03,1.87-1.22,4.66,1.83,5.18
				c2.72,0.46,5.79,0.61,7.22-2.78c2.22-5.24,3.76-10.63,3.99-16.38c0.88-21.64-1.83-43.06-4.21-64.48
				c-0.35-3.14,2.32-10.52-5.07-8.27c-4.57,1.39-12.26,2.43-9.38,11.97C895.72,653.8,896.78,671.5,896.14,689.26z M651.08,573.53
				c24.77,20.68,54.08,18.92,81.86,28.06C721.42,578.88,688.49,567.83,651.08,573.53z M721.83,480.34
				c-31.48-18.44-62.06-29.47-97.37-29.4C654.44,469.05,685.83,477.36,721.83,480.34z"/>
			<path class="st1" d="M557.83,788.96c3.46-0.93,6.91-1.85,10.37-2.78c2.25,13.26,17.08,16.25,29.17,7.93
				c18.16-12.5,33-10.51,49.9,1.06c8.72,5.96,18.84,2.31,25.61-6.27c1.96-0.22,3.92-0.44,5.88-0.66c0.9,1.63,2.23,2.83,4.11,2.83
				c13.95,0.05,27.72,4.28,41.77,1.86c3.05-1.05,10.14,8.13,9.01-3.54c5.67-2.5,11.34-4.99,17-7.49
				c24.31,8.76,49.45,5.47,74.38,5.05c5.07-0.09,5.02-4.13,5.13-7.69c0.4-12.38,0.92-24.77,0.97-37.16
				c0.03-5.84,1.16-8.56,7.77-11.11c17.16-6.63,32.39-4.56,47.64,4.65c6.63,4.01,13.7,7.5,21.42,9.1c2.54,0.53,6.09,3.01,7.64-0.41
				c1.73-3.83-2.55-5.23-4.98-6.71c-3.9-2.39-8.18-4.16-12.31-6.2c-1.58-0.78-3.61-1.5-3.45-3.52c0.22-2.78,2.76-2.74,4.83-2.96
				c7.13-0.74,14.14,0.34,21.15,1.45c2.79,0.44,6.44,1.27,7.42-2.03c1-3.35-3.23-3.88-5.02-5.78c-2.8-2.97-10.06,1.18-9.56-5.32
				c0.41-5.4,4.53-9.05,9.54-11.83c9.06-5.01,18.09-5.08,27.7-2.05c2.49,0.78,8.57,5.14,6.59-3.57c21.1,3.04,30.06,19.2,38.4,35.81
				c1.86,3.7,2.34,8.11,3.34,12.22c2.32,9.57-0.72,14.84-10.06,17.48c-2.37,0.67-4.75,1.53-7.18,1.77
				c-26.57,2.58-40.15,17.88-43.68,43.61c-4.07,29.7-23.93,46.08-49.68,56.81c-27.32,11.38-55.86,16.19-85.54,17.53
				c-29.16,1.33-58.15,1.64-85.35-9.08c-25.72-10.14-52.31-11.97-78.95-12.35c-65.25-0.95-130.59-2.09-195.78,0.19
				c-65.57,2.29-131.09,0.53-196.62,1.54c-4.06,0.06-8.58,1.59-12.14-1.98c7.58-4.07,16.22-3.7,24.32-5.53
				c32.2-7.27,63.47-18.78,96.9-20.55c15.1-0.8,29.65-3.54,42.78-12.79c6.59-4.65,15.73-6.74,24.36-5.55
				c39.68,5.5,77.97-0.5,115.19-14.07C544.94,798.29,553.23,796.36,557.83,788.96z"/>
			<path class="st2" d="M557.83,788.96c-4.6,7.4-12.89,9.33-20.02,11.93c-37.22,13.58-75.51,19.58-115.19,14.07
				c-8.63-1.2-17.77,0.9-24.36,5.55c-13.13,9.26-27.68,11.99-42.78,12.79c-33.42,1.77-64.7,13.28-96.9,20.55
				c-8.1,1.83-16.74,1.46-24.32,5.53c-46.96,1.22-93.75-0.42-140.13-8.65c-1.62-0.29-3.1-1.33-4.64-2.03
				c-1.69-15.37,6.91-28.41,9.75-42.76c3.07-15.5,0.18-28.76-13.73-37.8c-6.05-3.93-8.23-7.32-1.76-12.71
				c3.31-2.75,5.35-6.48,5.77-10.92c6.92-0.41,13.38,0.82,20.12,5.02c-4.09,1.44-7.11,2.39-10.03,3.59
				c-1.86,0.76-4.49,1.55-3.29,4.31c1.16,2.64,3.48,1.47,5.46,0.73c15.84-5.94,31.24-3.14,46.58,2.16c2.92,1.01,6,3.65,10.06,0.55
				c-10.45-11.45-23.35-13.13-37.05-12.62c-2.76,0.1-7.37,0.84-8.03-0.38c-7.6-14.09-20.25-11.19-32.38-10.28
				c-2.24-5.06-7.1-7.33-11.19-10.4c-10.75-8.07-12.12-17.66-5.39-29.14c5.27-8.99,12.39-15.77,20.84-21.46
				c18.76,6.01,36.79,12.8,45.47,32.94c4.26,9.87,12.87,13.12,23.29,13.73c25.37,1.5,48.17,10.58,69.38,24.65
				c-1.93,4.29-6.56,4.17-9.32,6.65c-2.21,1.98-7.1,2.96-5.77,6.33c1.72,4.36,5.62,0.7,8.17-0.16c12.13-4.08,24.42-7.32,37.15-8.87
				c8.1-0.99,16.16-0.99,23.97-0.17c1.74,2.84-0.5,3.34-1.69,4.33c-1.56,1.29-4.19,2.27-3.05,4.81c1.43,3.2,4.34,1.84,6.46,0.92
				c16.19-6.96,33.26-8.59,50.63-9.57c8.05-0.45,16.03-3.35,23.09-7.55c13.34-7.94,27.58-9.82,42.91-9.24
				c7.68,0.29,12.09,4.95,17.71,8c18.62,10.09,37.01,20.61,57.3,31.97c-10.11,1.6-17.59,4.87-23.35,11.15
				c-1.57,1.72-4.01,3.67-1.41,6.26c1.94,1.94,3.93,0.59,5.67-0.67c12.75-9.24,26.19-9.88,41.36-6.02
				C514.34,791.49,536.27,787.91,557.83,788.96z M440.88,784.05c-1.3-5.67-5.34-7.28-9.3-8.44c-13.83-4.02-27.15-2.6-39.68,4.69
				c-2.01,1.17-5.37,2.28-3.93,5.21c1.81,3.69,4.8,1.13,7.17,0.02c11.72-5.48,23.65-6.27,35.9-1.9
				C434.02,784.7,437.07,785.63,440.88,784.05z"/>
			<path class="st1" d="M85.24,676.6c-8.45,5.69-15.57,12.46-20.84,21.46c-6.72,11.47-5.36,21.06,5.39,29.14
				c4.09,3.08,8.95,5.34,11.19,10.4c-3.62,1.35-7.34,2.49-10.82,4.14c-2.31,1.1-6.31,2.04-4.64,5.64c1.32,2.86,4.27,0.75,6.53,0.01
				c5.67-1.87,11.31-4.07,17.49-2.86c-0.42,4.43-2.47,8.16-5.77,10.92c-6.47,5.39-4.29,8.78,1.76,12.71
				c13.9,9.04,16.8,22.3,13.73,37.8c-2.85,14.35-11.44,27.39-9.75,42.76c-15.87-0.31-29.61-6.9-42.04-15.77
				c-14.72-10.51-15.47-25.95-11.93-42.04c0.98-4.46,3.01-8.69,4.2-13.12c3.38-12.64-0.69-19.42-13.28-22.55
				C2.53,749.28-6.1,731.38,4.41,708.49c10.85-23.64,27.95-39.62,54.98-42.64C66,674.26,77.02,672.08,85.24,676.6z"/>
			<path class="st3" d="M423.99,502.74c-42.5,0.45-84.18-5.88-125.49-15.21c10.21-40.27,24.04-79.05,46.56-114.35
				c3.18-4.99,5.72-7.27,12.5-5.66c17.53,4.16,35.34,7.19,53.39,8.33c4.25,0.34,8.49,0.69,12.74,1.03c3.48,1.25,7.04,1.64,10.7,1.13
				c5.66,0.32,11.32,0.64,16.98,0.96c7.06,1.25,14.15,1.9,21.32,1.36c3.54,0.1,7.09,0.19,10.63,0.29c2.13,0.05,4.27,0.11,6.4,0.16
				c25.54,1.29,51.08,1.47,76.61,0c1.42-0.03,2.85-0.07,4.27-0.1c3.54-0.12,7.08-0.25,10.62-0.37c4.92,1.14,10.03-1.41,14.9,0.74
				c1.22,16.54,2.28,33.1,3.73,49.62c0.55,6.28-0.36,9.3-7.98,9.72c-45.31,2.53-86.77,15.39-120.73,47.13
				C454.15,488.62,439.27,496.3,423.99,502.74z"/>
			<path class="st3" d="M289.58,637.88c-37.29-5.05-73.07-15.98-108.61-27.86c-8.75-2.93-2.33-9.62-4.03-14.26
				c6.94-40.67,16.01-80.77,31.68-119.12c1.63-2.69,3.39-3.63,6.89-2.45c50.42,17.01,102.11,28.55,156.1,34.7
				c-3.42,8.94-6.54,17.11-9.66,25.28c-1.68,1.04-2.32,2.5-1.8,4.43c0,0,0.07-0.05,0.07-0.05c-14.13,2.81-20.72,15.22-29.75,24.13
				C309.36,583.49,297.87,609.91,289.58,637.88z"/>
			<path class="st3" d="M823.93,466.48c-7.03-2.87-14.06-5.75-21.08-8.62c12.71,10.39,27.7,16.98,40.1,27.71
				c-9.55-1.13-17.05-8.13-28.18-9.62c5.12,7.42,12.84,8.49,19.3,13.64c-20.8,8.71-41.8,12.88-62.74,17.23
				c-3.46,0.72-5.07-1.91-7.01-3.87c-40.66-41.07-90.47-61.04-147.72-62.99c-8.83-0.3-10.42-3.41-10.05-11.1
				c0.62-12.76-0.78-25.48-2.99-38.05c-0.64-3.63-1.1-6.48,3.33-7.57c0,0-0.23-0.12-0.23-0.12c-2.07,1.94-0.09,3.53,1.02,4.03
				c11.85,5.34,22.67,13.21,35.9,15.2c2.51,0.38,5.81,4.28,7.32,0.91c2.1-4.7-4.34-2.9-5.8-5.35c-0.59-3.96-1.43-7.74-6.41-8.32
				c-6.2-3.2-12.41-6.39-21.71-11.18c52.98-4.43,102.38-12.5,151.62-21.53c0.86,2.65,1.12,5.73,2.66,7.9
				c19.51,27.45,34.04,57.65,49.05,87.61C822.55,456.88,824.51,461.31,823.93,466.48z"/>
			<path class="st3" d="M490.98,294.45c3.94-14.2,13.07-16.56,27.05-14.99c33.61,3.77,67.33,1.77,100.73-3.54
				c5.36-0.85,8.45,0.32,11.87,4.16c19.88,22.33,37.04,46.48,51.34,72.77c4.18,7.69,3.02,9.71-5.43,10.76
				c-35.2,4.38-70.5,7.58-105.91,9.66c-29.1,0-58.2,0.01-87.31,0.01c-3.54-0.12-7.09-0.24-10.63-0.36
				c-1.43-0.05-2.85-0.09-4.28-0.14c-1.38-0.11-2.77-0.21-4.15-0.32c-1.18-3.66,0.69-6.84,1.63-10.15
				C472.54,339.06,481.45,316.64,490.98,294.45z"/>
			<path class="st4" d="M316.98,306.47c26.47-25.89,59.61-38.5,94.56-47.59c3.27-0.85,6.01-0.83,9.18,0.44
				c19.45,7.78,39.55,13.5,60.33,16.11c8.37,1.05,10.04,3.87,6.18,10.87c-10.77,18.18-16.31,38.54-23.4,58.25
				c-7.02-3.7-7.66-13.17-16.06-15.24c1.58,12.76,19.92,19.14,10.63,35.75c-8.98-14.41-17.52-28.12-26.06-41.83
				c0.65,11.72,6.44,20.87,11.76,30.32c3.55,6.31,9.79,11.05,11.02,18.7c-0.53-0.28-1.04-0.25-1.54,0.08
				c-1.48-0.51-2.96-1.02-4.44-1.53c-0.74-0.83-1.48-1.66-2.22-2.49c-4.69-7.5-9.38-15-14.06-22.49
				c-1.32,9.29,2.43,16.26,8.26,22.35c-4.45,5.24-10.3,0.33-15.23,2.09c-3.57-0.42-7.13-0.85-10.7-1.27
				c-3.52-0.29-7.05-0.58-10.57-0.87c-12.54-2.07-25.13-3.94-37.63-6.27c-26.04-4.84-51.68-11.12-76.81-21.58
				C298.15,327.49,307.86,317.21,316.98,306.47z"/>
			<path class="st4" d="M293.77,485.13c-12.33-6.74-19.75-19.06-30.57-27.65c4.5,9.28,10.75,17.03,17.18,24.92
				c-16.24-1.24-22.44-15.56-32.15-26.38c-0.07,6.75-0.07,6.75,9.28,21.54c-23.48-6.19-45.13-12.74-65.99-21.88
				c15.88-33.62,35.65-64.65,59.55-93.27c6.65-7.97,16.21-13.82,19.68-24.38c23.19,10.4,46.66,20.05,72.13,26.29
				c-10.85,17.29-20.91,33.91-28.73,51.74c-7.96,18.17-15.04,36.61-17.81,56.41c-0.71,0.63-1.42,1.26-2.13,1.88
				c-8.25-7.74-14.69-17.05-21.84-25.81c2.32,12.34,8.59,21.76,19.46,27.87c0.84,0.75,1.69,1.5,2.53,2.26
				C294.17,480.83,293.97,482.98,293.77,485.13z"/>
			<path class="st5" d="M481.94,665.32c-7.57-6.66-13.77-14.95-25.42-21.42c6.56,12.88,18.2,18.5,23.71,31.35
				c-15.71-4.92-29.08-10.81-42.3-17.07c-26.34-12.46-26.15-12.45-21.29-41.14c6.01-35.48,19.71-67.67,40.15-97.2
				c3.7-5.35,6.69-6.14,12.84-3.48c17.52,7.58,35.47,14.17,53.24,21.16c3.12,1.23,7.78,1.54,3.73,6.84
				c-24.73,32.29-35.46,69.53-38.65,109.42c-0.03,0.33-0.28,0.64-0.55,1.23c-5.42-0.29-6.58-7.02-12.3-8.03
				c0.44,7,6.81,10.44,8.97,16.05C483.36,663.79,482.65,664.55,481.94,665.32z"/>
			<path class="st6" d="M285.34,647c37.17,5.52,74.46,9.51,112.12,8.36c4.33-0.13,5.48,1.35,5.38,5.39
				c-0.51,20.34-0.53,40.69,1.72,63c-9.06-7.46-16.49-13.58-23.92-19.7c2.47,10.12,11.61,14.36,18.51,24.59
				c-19.07-5.59-28.97-21.5-45.86-25.87c8.88,7.57,17.76,15.13,26.79,22.82c-8.02,2.4-7.96,2.32-16.24-4.07
				c-4.99-3.85-10.22-7.39-17.59-12.67c3.79,10.97,12.33,13.96,17.99,20.54c-13.07,6.97-25.35,15.22-41.13,15.2
				c-0.14-3.07,4.48-4.46,2.19-7.41c-2.17-2.8-5.25-1.47-7.85-0.67c-4.4,1.34-9.17,2.3-12.92,4.74
				c-11.27,7.35-22.62,5.91-34.26,1.65c-0.48-2.38-1.55-4.81-1.36-7.14C271.36,705.63,276.35,675.94,285.34,647z"/>
			<path class="st7" d="M143.68,603.34c33.62,14.12,67.55,27.35,103.33,35.09c4.91,1.06,4.88,3.74,4.2,7.73
				c-4.94,29.21-2.74,58.49-0.85,88.68c-11.98-6.75-19.94-17.79-30.29-26.16c5.66,12.18,15.28,20.96,24.29,30.23
				c-0.64,0.59-1.29,1.17-1.93,1.76c-7.99-3.07-13.36-9.74-20.14-14.72c1.53,8.47,8.3,12.86,15.88,19.82
				c-12.68,0.28-17.92-8.96-25.7-12.73c-8.25-4-16.25-8.6-25.04-11.25c-9.09-2.73-18.43-4.68-27.65-6.97
				c-4.92-28.25-9.97-56.48-8.42-85.36c4.21,1.76,6.58,7.01,13.24,6.91c-7.61-11.36-18.01-19.56-22-32
				C142.97,604.03,143.33,603.69,143.68,603.34z"/>
			<path class="st4" d="M656.62,548.61c-9.27-4.75-18.53-9.5-27.8-14.25c-0.55,0.85-1.1,1.69-1.65,2.54
				c12.11,7.68,24.23,15.36,37.5,23.78c-9.74,2.02-18.52,3.36-27.02,5.71c-14.12,3.91-27.2,10.22-38.2,20.04
				c-3.9,3.48-6.23,4.22-10.15-0.17c-13.66-15.3-27.2-30.77-42.78-44.21c-3.51-3.03-2.39-4.97,0.19-7.62
				c32.7-33.63,72.37-50.99,119.42-51.44c4.99-0.05,5.47,1.75,5.3,6.25c-0.61,15.89-0.9,31.81-0.68,47.71
				c0.1,7.05-0.32,11.71-8.82,7.03c-2.71-1.49-2.79,0.51-3.36,2.08C657.92,546.91,657.27,547.76,656.62,548.61z"/>
			<path class="st4" d="M539.77,543.01c13.98,17.68,29.85,33.25,45.48,49.04c2.34,2.37,4.2,4.23,1.41,7.89
				c-15.6,20.44-20.93,44.48-23.23,69.35c-0.64,6.9-2.61,8.72-10.03,8.89c-17.12,0.41-34.45-2.56-51.43,2.24
				c-4.21,1.19-8.31-0.22-7.78-5.66C498.81,627.43,505.71,580.84,539.77,543.01z"/>
			<path class="st5" d="M348.31,642.45c5.13-38.37,10.19-76.76,24.21-113.24c0.49-1.28,1.18-2.48,1.78-3.72
				c8.17-4.48,16.35-8.97,24.52-13.45c16.47,0.82,32.92,2.23,49.42,1.08c0.44,3.43-1.73,5.09-3.03,7.05
				c-23.79,35.76-37.09,75.16-40.5,117.84c-0.56,6.96-2.8,8.76-9.57,8.53c-15.51-0.53-31.1,0.99-46.54-1.76
				C348.51,644.01,348.41,643.23,348.31,642.45z"/>
			<path class="st8" d="M672.87,788.9c-6.77,8.58-16.89,12.23-25.61,6.27c-16.9-11.56-31.73-13.55-49.9-1.06
				c-12.09,8.32-26.92,5.33-29.17-7.93c2.67-13.98,2.52-28.13,2.34-42.25c-0.07-5.86,1.62-7.79,7.65-8.2
				c18.02-1.22,35.29,0.64,51.73,8.72c3.51,1.73,8.55,5.49,11.56,1.45c2.76-3.72-3.86-5.61-6.11-10.06
				c13.79-0.69,26.12-1.12,34.87,11c2.86,3.97,7.76,4.79,11.99,6.32c23.31,8.4,46.16,17.89,68.42,28.76
				c-5.67,2.49-11.33,4.99-17,7.49c-6.09-5.66-12.91-10.33-21.39-10.57c-5.72-0.16-9.88-2.18-14.19-5.61
				c-7.43-5.92-16.52-7.83-25.75-8.89c-2.45-0.28-5.54-0.52-5.8,2.8c-0.21,2.67,2.66,2.61,4.69,3.19
				c5.43,1.54,10.93,2.98,16.14,5.09c2.57,1.04,7.64,2.1,6.04,5.77c-3.88,8.9,3.26,5.55,6.03,5.59c8.96,0.11,17.7,0.49,25.22,6.18
				c-14.06,2.41-27.82-1.81-41.77-1.86c-1.88-0.01-3.21-1.2-4.11-2.83c-5.52-14.28-29.28-21.44-42.42-12.82
				c-1.5,0.99-3.33,1.97-2.78,3.97c0.77,2.78,3.06,2.44,5.18,1.63C651.88,776.02,662.94,780.01,672.87,788.9z"/>
			<path class="st5" d="M677.12,656.68c25.02,11.28,49.36,18.67,73.41,26.86c2.62,0.89,5.45,1.67,5.43,5.47
				c-0.07,16.78-0.03,33.56-0.03,50.56c-5.04-1.07-4.24-7.9-9.93-7.7c1.32,10.3,11.65,17.28,9.43,29.44
				c-8.33-9.35-10.35-21.77-19.31-29.57c3.18,13.88,9.52,26.42,17.24,40.48c-23.1-11.45-44.85-19.32-67.05-25.93
				c-6.24-1.86-9.48-4.09-9.36-11.36C677.39,709.46,677.12,683.98,677.12,656.68z"/>
			<path class="st3" d="M866.57,629.97c-3.8,1.17-7.57,3.2-11.41,3.35c-8.46,0.32-18.16,6.4-24.68,1.78
				c-5.95-4.22-3.8-14.95-5.42-22.76c-8.51-41-18.41-60.76-50.48-99.06c21.71-2.25,42.01-7.36,62.14-13.16
				c3.39,3.16,5.15,6.94,6.68,11.49C856.32,550.07,861.39,590.02,866.57,629.97z"/>
			<path class="st5" d="M487.34,773.06c-22.63-13.99-46.79-26.46-71.04-38.73c-3.15-1.59-4.94-3.43-4.9-7.23
				c0.24-23.64-0.88-47.31,1.43-71.98c17.28,8.38,33.43,17.03,50.43,23.91c7.96,3.22,19.54,2.11,23.22,9.97
				c3.27,6.98,0.84,16.65,0.86,25.13C487.36,733.53,487.34,752.95,487.34,773.06z"/>
			<path class="st4" d="M548.25,772.05c-3.22-1.2-4.79-5.15-9.38-5.36c0.32,5.33,5.76,6.82,8.15,12.34
				c-12.76,0-24.85-0.33-36.92,0.09c-13.28,0.45-13.16,0.75-13.29-12.99c-0.23-25.11-0.49-50.21-0.99-75.32
				c-0.11-5.59,0.57-7.59,7.38-7.12c17.28,1.18,34.66,0.94,51.99,1.18c3.47,0.05,6.91-1.2,6.98,4.73
				c0.3,26.87,1.02,53.73,1.53,80.59c0.01,0.5-0.7,1.01-2.93,4.06c-7.92-9.25-15.57-18.19-23.22-27.12
				c-0.87,0.81-1.73,1.62-2.6,2.42c2.73,8.18,10.9,12.55,15.21,19.63C549.52,770.14,548.89,771.1,548.25,772.05z"/>
			<path class="st4" d="M766.32,561.73c2.28,4.73,8.2,5.31,10.37,8.77c-9.63,9.98-19.15,19.83-29.29,30.33
				c-10.06-16.4-24.51-27.89-43.02-33.96c-6.68-2.19-13.35-4.51-20.73-3.22c-7.28,1.27-10.16-2.67-8.18-9.29
				c3.32-11.11,1.71-21.85,0.2-33.04c-1.51-11.16-0.34-22.68-0.35-34.04c3.77,0.29,7.56-0.56,11.14,2
				c20.92,14.96,39.7,32.29,57.36,50.9c1.71,1.8,3.73,3.63,3.32,6.3c-1.54,9.93,4.92,9.68,11.57,9.31c2.16,2.56,3.51,6.18,7.8,5.97
				L766.32,561.73z"/>
			<path class="st9" d="M866.57,629.97c-5.18-39.95-10.25-79.89-23.17-118.37c-1.53-4.55-3.29-8.33-6.68-11.49
				c9.88-4.53,20.07-8.49,29.52-13.78c6.51-3.64,7.42-0.18,9.09,4.51c9.2,25.98,16.11,52.57,20.98,79.67
				c1.83,10.2,4.79,20.32,4.08,32.7c-9.85-9-17.53-18.97-32.76-20.78c10.62,9.29,21.55,14.92,28.36,25.05
				c-0.81,0.53-1.62,1.06-2.44,1.59c-4.78-1.43-7.86-6.84-14.76-6.32c3.89,7.07,11.55,8.99,15.78,15.22
				C884.91,622.18,876.49,627.74,866.57,629.97z"/>
			<path class="st4" d="M491.97,483.41c57.16-38.48,100.58-45.49,158.84-9.27c-30.3,2.68-56.92,13.02-81.67,28.52
				C542.88,498.41,518.37,487.15,491.97,483.41z"/>
			<path class="st10" d="M677.62,597.21c6.77,4.94,13.53,9.88,21.74,15.88c-0.67-7.49-7.3-8.04-9.22-13.77
				c12.82,3.6,24.76,9.22,36.95,9.82c15.65,0.77,19.16,10.2,21.94,21.94c3.42,14.47,5.29,29.15,6.22,45.46
				c-11.31-4.18-21.67-8.22-32.17-11.85c-13.05-4.51-26.16-8.89-39.38-12.88c-4.21-1.27-6.93-2.41-6.75-7.55
				c0.44-12.41-1.58-24.62-4.73-39.16c9.15,7.62,16.62,13.84,24.09,20.06c-4.18-11.42-13.9-17.53-21.14-25.83
				C675.99,598.63,676.81,597.92,677.62,597.21z"/>
			<path class="st3" d="M757.93,349.17c-18.76,5.09-38.08,7.23-57.15,10.7c-4.59,0.84-6.98-0.56-9-4.82
				c-13.88-29.25-32.9-54.94-55.14-78.34c4.45-3.29,7.98,0.52,11.55,1.87c8.87,3.37,17.61,7.14,26.19,11.21
				C705.71,304.66,735.12,322.3,757.93,349.17z"/>
			<path class="st10" d="M289.58,637.88c8.29-27.97,19.78-54.39,40.87-75.2c9.03-8.91,15.62-21.32,29.75-24.13
				c-4.7,22.59-11.11,44.82-14.15,67.75c-0.55,4.15-0.77,8.34-1.14,12.52c-8.94-0.39-9.19-10.21-16.07-14.98
				c1.09,8.56,5.08,13.72,10.86,17.82c4.6,3.15,4.13,7.33,2.6,12.62c-2.9-2.33-5.29-4.24-7.67-6.16c-1.32-1.52-3.03-2.04-3.87,0.03
				c-1.25,3.09,1.35,4.74,3.32,6.47c1.84,3.98,5.9,5.41,9.06,7.86c-0.09,0.71-0.18,1.43-0.27,2.14
				c-11.91-2.42-18.78-11.6-26.53-19.64c-2.52-2.62-3.34-6.88-9.43-8.99c4.39,11.1,11.03,18.44,19.58,26.62
				C312.68,642.52,301.09,640.58,289.58,637.88z M326.38,619.38c-1.82-6.31-3.68-12.6-9.1-17.18
				C318.64,608.72,318.82,615.82,326.38,619.38z"/>
			<path class="st11" d="M870.76,718.98c-11.31-2.31-21.77,1.25-32.12,4.92c-5.44,1.93-7.56,1.16-7.61-5.17
				c-0.16-23.72-0.65-47.43-1.3-71.14c-0.12-4.31,1.33-5.52,5.35-5.47c10.66,0.13,20.96-2.6,31.37-4.43
				c4.11,12.93,2.63,26.54,3.54,39.69C870.95,691.05,874.44,705.09,870.76,718.98z"/>
			<path class="st9" d="M774.96,585.53c3.6-3.36,7.11-6.83,10.82-10.06c13.76-11.99,13.87-11.99,19.98,4.77
				c10.9,29.89,14.11,61.02,14.84,92.55c0.11,4.71-0.78,7.19-6.4,6.55c-7.35-0.84-14.8-0.85-22.2-1.21
				C793.75,645.9,787.32,615.17,774.96,585.53z"/>
			<path class="st9" d="M757.93,349.17c-22.81-26.86-52.22-44.51-83.56-59.38c-8.58-4.07-17.32-7.84-26.19-11.21
				c-3.57-1.35-7.1-5.17-11.55-1.87c-1.73-0.94-3.22-2.88-0.78-3.63c10.46-3.21,21.06-6,31.7-8.55c1.75-0.42,4.05,0.93,5.97,1.74
				c41.98,17.72,77.91,44.01,110.71,77.78C774.78,346.6,766.53,348.6,757.93,349.17z"/>
			<path class="st11" d="M587.04,259.69c2.28,4.14,8.5,3.43,10.97,10.12c-15.95-3.66-28.1-15.19-46.67-15.83
				c10.83,6.61,21.39,7.92,30.77,15.99c-51.62,3.66-100.58-0.9-149.9-14.6c20.42-7.48,85.91-14.2,117.14-12.37
				c2.89,3.59,7.39,3.85,11.26,5.37C569.53,251.88,579.56,252.8,587.04,259.69z"/>
			<path class="st9" d="M758.71,555.8c-6.65,0.37-13.11,0.62-11.57-9.31c0.41-2.67-1.61-4.5-3.32-6.3
				c-17.66-18.61-36.45-35.94-57.36-50.9c-3.58-2.56-7.37-1.71-11.14-2c-0.77-5,2.7-3.86,5.36-3.58
				c47.1,5.06,84.49,26.26,110.3,66.5c1.89,2.94,5.55,5.74,0.99,9.98c-4,3.72-6.69,2.01-9.94-0.54c-2.51-1.96-5.29-3.34-9.18-1.59
				c2.06,1.6,3.88,2.99,5.69,4.39c-0.68,0.66-1.35,1.31-2.03,1.97c-3.64,0.04-5.64-6.11-10.18-2.71c0,0,0.18,0.05,0.18,0.05
				c1.48-3.39-0.92-3.66-3.15-3.63C761.28,558.17,759.39,558.32,758.71,555.8z"/>
			<path class="st7" d="M172.89,595.73c-0.32,3.1-0.65,6.19-1.13,10.81c-6.4-2.52-12.33-4.85-18.25-7.19
				c-0.25-34.3,8.85-66.86,19.55-98.91c4.06-12.16,6.86-25.24,15.44-35.6c5.12,2.89,12.8,1.13,15.46,8.49
				C185.81,512.16,174.64,552.75,172.89,595.73z"/>
			<path class="st12" d="M791.98,687.47c4.24-0.12,8.51,0.04,12.71-0.41c16.29-1.75,16.34-1.82,16.39,14.96
				c0.06,19.69,0.02,39.38,0.02,62.05c-6.66-7.84-11.18-13.16-15.7-18.48c1.69,12.05,10.16,20.12,14.72,30.17
				c-7.29-2.36-8.5-10.35-15.7-13.7c-0.11,6.78,5.7,10.02,7.42,16.07c-8.42,0-16.27,0-24.11,0c0.7-4.15,2.06-8.3,2-12.43
				C789.37,739.59,793.56,713.61,791.98,687.47z M805.7,763.14c-0.68-4.14-1.49-6.41-4.77-7.07
				C799.54,759.92,801.28,761.54,805.7,763.14z"/>
			<path class="st4" d="M774.96,585.53c12.36,29.64,18.79,60.37,17.04,92.6c-8.33,0.51-18.93,4.27-24.29,0.54
				c-4.45-3.1-2.6-15.05-3.76-23.04c-2.17-15.05-4.35-30.15-10.99-44.04c-1.86-3.89-1.61-6.36,1.75-9.06
				C761.59,597.01,768.23,591.21,774.96,585.53z"/>
			<path class="st10" d="M491.97,483.41c26.4,3.74,50.91,15,77.18,19.25c-0.21,0.29-0.37,0.62-0.63,0.86
				c-10.4,9.35-20.79,18.78-36.16,6.46c1.97,7.67,9.81,7.09,14.4,14.38c-14.44-2.71-24.84-11.85-38.3-9.47
				c7.85,3.43,15.77,6.73,23.52,10.37c2.26,1.06,6.66,1.47,5.55,4.93c-1.39,4.35-5.32,2.15-8.12,1.05
				c-20.42-8.02-40.93-15.78-63.14-22.67C473.94,498.39,482.19,490.16,491.97,483.41z"/>
			<path class="st13" d="M293.77,485.13c0.2-2.15,0.4-4.3,0.59-6.44c4.45-0.86,4.72-3.05,1.98-6.2c2.77-19.8,9.86-38.25,17.81-56.41
				c7.81-17.84,17.88-34.46,28.73-51.74c-25.47-6.24-48.94-15.9-72.13-26.3c0.04-0.54-0.07-1.04-0.33-1.51
				c0.26-1.21,0.51-2.41,0.77-3.62c10.31,7.12,17.33,4.65,21.79-7.01c1.21-3.16,4.05-5.66,5.91-8.61c1.78-2.81,5.69-4.9,3.5-9.23
				c3.59-12.15,9.21-5.74,14.58-1.59c-9.12,10.74-18.82,21.02-26.79,33.81c25.14,10.46,50.78,16.74,76.81,21.58
				c12.5,2.32,25.08,4.19,37.63,6.27c-3.59,7.23,7.52,2.45,6.32,7.72c-18.05-1.14-35.87-4.17-53.39-8.33
				c-6.78-1.61-9.31,0.68-12.5,5.66c-22.52,35.3-36.35,74.08-46.56,114.35C296.92,486.73,295.35,485.93,293.77,485.13z"/>
			<path class="st5" d="M188.51,464.84c-8.59,10.36-11.38,23.44-15.44,35.6c-10.7,32.05-19.81,64.61-19.55,98.91
				c-22.14-9.21-19.12-2.82-15.35-27.44c5.09-33.29,14.11-65.56,26.42-96.91C171.38,457.69,171.45,457.72,188.51,464.84z"/>
			<path class="st11" d="M791.98,687.47c1.57,26.14-2.61,52.11-2.25,78.23c0.06,4.13-1.3,8.29-2,12.43
				c-7.3,0.08-16.49,4.99-21.13,0.77c-3.36-3.07-0.22-13.12-0.18-20.06c0.13-22.19,0.44-44.39,0.06-66.57
				c-0.11-6.44,1.94-7.96,7.75-6.99C780.12,686.25,786.07,686.76,791.98,687.47z"/>
			<path class="st12" d="M778.19,355.25c9.18-4.49,14.8-2.56,20.78,4.58c27.42,32.73,50.39,68.11,67.29,107.38
				c2.4,5.58,3.42,8.82-3.94,11.85c-7.41,3.05-8.78-0.19-11.12-5.68C833,430.6,810.05,390.68,778.19,355.25z"/>
			<path class="st10" d="M270.42,336.52c0.26,0.47,0.37,0.98,0.33,1.51c-3.47,10.56-13.02,16.42-19.67,24.38
				c-23.89,28.62-43.67,59.65-59.55,93.27c-20.61-6.53-16.64-4.6-8.51-20.12c19.08-36.46,44.73-67.82,75.56-95.02
				C261.97,337.54,265.01,333.58,270.42,336.52z"/>
			<path class="st10" d="M151.36,629.46c-1.55,28.88,3.5,57.12,8.42,85.36c-13.31,2.35-24.04-4.06-27.11-24.08
				c-1.8-11.75-1.35-23.86-1.6-35.82c-0.23-11.19-0.05-22.39-0.05-33.13c4.6-1.39,4.2,3.45,7.06,2.79
				c1.56-7.48-8.65-13.79-2.13-21.73c-0.17,0.57-0.02,1.02,0.46,1.37C138.74,614.2,145.59,621.51,151.36,629.46z"/>
			<path class="st7" d="M285.34,647c-9,28.94-13.99,58.63-16.43,88.77c-0.19,2.33,0.88,4.75,1.36,7.14
				c-10.84,2.07-14.24-1.85-14.51-13.28c-0.63-27.22,0.4-54.3,2.13-81.43c0.33-5.12,1.51-7.03,6.77-5.72
				C271.51,644.19,278.45,645.51,285.34,647z"/>
			<path class="st9" d="M870.76,718.98c3.68-13.89,0.19-27.93-0.76-41.61c-0.91-13.15,0.57-26.76-3.54-39.69
				c17.8-6.78,17.39-6.74,19.31,12.36c1.98,19.62,2.57,39.24,2.19,58.93C887.67,723.88,885.19,725.35,870.76,718.98z"/>
			<path class="st12" d="M823.93,466.48c0.58-5.17-1.38-9.6-3.64-14.1c-15.01-29.95-29.54-60.15-49.05-87.61
				c-1.54-2.17-1.8-5.24-2.66-7.9c1.96-0.93,3.29-0.11,4.48,1.46c26.44,35.09,52.08,70.68,68.52,111.88
				c0.77,1.94,2.13,3.76,0.47,6.51C836.03,473.32,829.98,469.9,823.93,466.48z"/>
			<path class="st12" d="M587.04,259.69c-7.48-6.89-17.51-7.81-26.44-11.32c-3.87-1.52-8.38-1.78-11.26-5.37
				c34.81-0.73,68.7,4.33,104,15.69c-15.72,4.38-29.34,6.34-42.94,8.47c-3.66,0.57-6.02-0.85-8.72-2.59
				C597.25,261.73,592.82,258.63,587.04,259.69z"/>
			<path class="st12" d="M896.14,689.26c0.65-17.75-0.42-35.46-5.57-52.49c-2.89-9.54,4.8-10.58,9.38-11.97
				c7.4-2.25,4.72,5.13,5.07,8.27c2.38,21.42,5.09,42.84,4.21,64.48c-0.23,5.75-1.77,11.14-3.99,16.38
				c-1.44,3.38-4.5,3.23-7.22,2.78c-3.05-0.51-1.81-3.31-1.83-5.18C896.08,704.11,896.14,696.68,896.14,689.26z"/>
			<path class="st13" d="M455.13,372.26c-1.23-7.65-7.47-12.39-11.02-18.7c-5.31-9.44-11.1-18.6-11.76-30.32
				c8.54,13.71,17.08,27.42,26.06,41.83c9.29-16.61-9.06-22.99-10.63-35.75c8.4,2.07,9.04,11.54,16.06,15.24
				c7.1-19.72,12.63-40.07,23.4-58.25c0.38,3.11,0.13,6.51,3.74,8.14c-9.53,22.19-18.44,44.61-25.08,67.87
				c-0.95,3.32-2.81,6.49-1.63,10.15C461.22,372.4,458.18,372.33,455.13,372.26z"/>
			<path class="st10" d="M651.08,573.53c37.41-5.7,70.34,5.34,81.86,28.06C705.16,592.45,675.85,594.21,651.08,573.53z"/>
			<path class="st13" d="M172.89,595.73c1.74-42.98,12.92-83.57,31.07-122.4c0.75,2.23,2.39,3.19,4.65,3.3
				c-15.67,38.35-24.74,78.45-31.68,119.12C175.59,595.74,174.24,595.74,172.89,595.73z"/>
			<path class="st12" d="M721.83,480.34c-36.01-2.98-67.39-11.29-97.37-29.4C659.77,450.87,690.35,461.9,721.83,480.34z"/>
			<path class="st13" d="M483.33,373.29c29.1,0,58.2-0.01,87.31-0.01c-0.01,2.47-0.01,4.93-0.02,7.4c-1.42,0.03-2.85,0.07-4.27,0.1
				c-0.67-4.47-4.11-4.03-7.25-4.03c-20.7-0.01-41.4-0.01-62.11,0c-3.15,0-6.58-0.44-7.25,4.03c-2.13-0.05-4.27-0.11-6.4-0.16
				C483.32,378.18,483.33,375.73,483.33,373.29z"/>
			<path class="st10" d="M423.99,502.74c15.28-6.44,30.16-14.11,47.17-15.21c-0.15,0.32-0.28,0.64-0.45,0.95
				C459.98,509.06,442,505.95,423.99,502.74z"/>
			<path class="st8" d="M302.39,308.06c2.19,4.33-1.73,6.42-3.5,9.23c-1.86,2.95-4.7,5.45-5.91,8.61
				c-4.46,11.65-11.48,14.12-21.79,7.01C278.63,320.91,291.14,315.27,302.39,308.06z"/>
			<path class="st11" d="M398.83,512.04c-8.17,4.48-16.35,8.97-24.52,13.45C378.39,508.34,378.39,508.34,398.83,512.04z"/>
			<path class="st8" d="M638.68,389.58c4.98,0.59,5.82,4.36,6.41,8.32c-2.08-0.6-4.6,0.05-6.1-2.16c0.11-0.3,0.23-0.6,0.34-0.89
				c-0.16,0.27-0.33,0.53-0.49,0.8c-11.54-2.09-21.08-9.31-32.18-12.54c0,0,0.23,0.12,0.23,0.12c-1.84-6.11,1.66-4.48,4.64-3.07
				c6.61,3.13,13.23,6.26,19.67,9.73C633.98,391.4,636.33,394.05,638.68,389.58z"/>
			<path class="st13" d="M339.7,621.65c-5.78-4.11-9.77-9.27-10.86-17.82c6.89,4.78,7.14,14.6,16.07,14.98
				C343.91,621.1,341.75,621.28,339.7,621.65z"/>
			<path class="st13" d="M596.14,381.05c-4.87-2.16-9.98,0.4-14.9-0.74C586.48,374.87,591.51,373.92,596.14,381.05z"/>
			<path class="st4" d="M658.57,546.07c4.1,2.8,8.2,5.6,12.31,8.4c-0.44,0.73-0.87,1.45-1.31,2.18c-4.32-2.68-8.63-5.36-12.95-8.04
				C657.27,547.76,657.92,546.91,658.57,546.07z"/>
			<path class="st9" d="M778.53,562.47c1.81,1.31,5.81,2.67,4.29,4.5c-2.33,2.82-4.41-0.92-6.32-2.54
				C777.18,563.78,777.85,563.12,778.53,562.47z"/>
			<path class="st5" d="M484.08,663.02c2.18,1.77,4.42,3.52,2.88,6.91c-2.87-0.32-3.62-2.82-5.02-4.61
				C482.65,664.55,483.36,663.79,484.08,663.02z"/>
			<path class="st13" d="M136.42,604.22c-0.48-0.35-0.63-0.81-0.46-1.37c1.23-2.3,2.65-3.43,4.7-0.78c0.2,0.67,0.25,1.35,0.16,2.04
				C139.36,604.15,137.89,604.19,136.42,604.22z"/>
			<path class="st13" d="M342.86,644.62c0.09-0.71,0.18-1.43,0.27-2.14c1.73-0.01,3.45-0.02,5.18-0.02c0.1,0.78,0.19,1.55,0.29,2.33
				C346.69,644.73,344.78,644.68,342.86,644.62z"/>
			<path class="st13" d="M334.07,634.62c-1.97-1.73-4.57-3.38-3.32-6.47c0.84-2.08,2.55-1.55,3.87-0.03
				C334.44,630.28,334.26,632.45,334.07,634.62z"/>
			<path class="st10" d="M675.18,599.33c-1.27-0.98-2.53-1.95-3.8-2.93c2.26-1.07,4.43-1.51,6.24,0.81
				C676.81,597.92,675.99,598.63,675.18,599.33z"/>
			<path class="st4" d="M554.28,773.61c1.42,1.16,4.51,2.24,2.4,4.27c-1.82,1.75-3.38-1.16-4.78-2.51
				C552.7,774.78,553.49,774.2,554.28,773.61z"/>
			<path class="st7" d="M244.37,738.92c1.11,0.99,3.76,1.83,2.54,3.33c-1.71,2.11-3.26-0.11-4.48-1.57
				C243.08,740.09,243.73,739.5,244.37,738.92z"/>
			<path class="st10" d="M360.14,538.59c-0.53-1.93,0.11-3.39,1.8-4.43C362.03,535.92,361.88,537.58,360.14,538.59z"/>
			<path class="st9" d="M899.45,611.86c0.25,0.82,0.82,2.29,0.7,2.36c-1.26,0.62-1.64-0.33-1.88-1.34
				C898.65,612.53,899.05,612.19,899.45,611.86z"/>
			<path class="st9" d="M897.41,609.08c0.68,0.93,1.35,1.85,2.03,2.78c-0.4,0.33-0.79,0.67-1.18,1.02
				c-0.78-0.64-1.56-1.27-2.34-1.91C896.42,610.34,896.92,609.71,897.41,609.08z"/>
			<path class="st9" d="M895.92,610.96c-0.79-0.63-1.58-1.26-2.38-1.89c0.81-0.53,1.62-1.06,2.44-1.59c0.48,0.53,0.95,1.07,1.43,1.6
				C896.92,609.71,896.42,610.34,895.92,610.96z"/>
			<path class="st7" d="M140.82,604.12c0.09-0.69,0.03-1.37-0.16-2.04c1.01,0.43,2.01,0.85,3.02,1.27
				c-0.35,0.34-0.71,0.69-1.07,1.03C141.98,604.52,141.39,604.44,140.82,604.12z"/>
			<path class="st4" d="M550.16,769.19c0.68,0.74,1.36,1.47,2.04,2.21c-0.59,0.87-1.18,1.74-1.77,2.61
				c-0.73-0.65-1.46-1.3-2.19-1.95C548.89,771.1,549.52,770.14,550.16,769.19z"/>
			<path class="st4" d="M552.2,771.4c0.69,0.74,1.38,1.48,2.07,2.21c-0.79,0.59-1.58,1.17-2.37,1.76c-0.63-0.3-1.12-0.76-1.47-1.37
				C551.03,773.14,551.62,772.27,552.2,771.4z"/>
			<path class="st13" d="M724.63,792.94c-7.53-5.69-16.27-6.07-25.22-6.18c-2.77-0.03-9.91,3.32-6.03-5.59
				c1.6-3.67-3.47-4.73-6.04-5.77c-5.21-2.12-10.71-3.55-16.14-5.09c-2.03-0.57-4.9-0.52-4.69-3.19c0.26-3.32,3.35-3.08,5.8-2.8
				c9.23,1.06,18.33,2.97,25.75,8.89c4.3,3.43,8.47,5.46,14.19,5.61c8.48,0.23,15.31,4.91,21.39,10.57
				C734.77,801.08,727.68,791.89,724.63,792.94z"/>
			<path class="st13" d="M672.87,788.9c-9.93-8.89-20.99-12.88-34.15-7.87c-2.12,0.81-4.41,1.15-5.18-1.63
				c-0.55-2,1.28-2.99,2.78-3.97c13.15-8.63,36.9-1.46,42.42,12.82C676.79,788.47,674.83,788.69,672.87,788.9z"/>
			<path class="st13" d="M89.54,744.53c-6.19-1.21-11.82,0.99-17.49,2.86c-2.25,0.74-5.21,2.85-6.53-0.01
				c-1.66-3.6,2.33-4.54,4.64-5.64c3.48-1.65,7.2-2.79,10.82-4.14c12.13-0.91,24.78-3.81,32.38,10.28c0.66,1.22,5.26,0.49,8.03,0.38
				c13.7-0.51,26.6,1.17,37.05,12.62c-4.06,3.1-7.15,0.45-10.06-0.55c-15.34-5.3-30.74-8.1-46.58-2.16
				c-1.98,0.74-4.3,1.91-5.46-0.73c-1.21-2.75,1.43-3.55,3.29-4.31c2.92-1.2,5.94-2.14,10.03-3.59
				C102.92,745.34,96.45,744.12,89.54,744.53z"/>
			<path class="st0" d="M440.88,784.05c-3.81,1.58-6.86,0.65-9.84-0.41c-12.24-4.37-24.17-3.58-35.9,1.9
				c-2.37,1.11-5.36,3.67-7.17-0.02c-1.44-2.94,1.92-4.05,3.93-5.21c12.53-7.29,25.84-8.71,39.68-4.69
				C435.54,776.77,439.58,778.38,440.88,784.05z"/>
			<path class="st0" d="M455.13,372.26c3.05,0.07,6.09,0.14,9.14,0.21c1.38,0.11,2.77,0.21,4.15,0.32
				c-0.65,4.54-4.16,3.78-7.25,4.01c-3.35,0.25-7.12-1.17-9.8,2.16c-5.66-0.32-11.32-0.64-16.98-0.96c-3.03-5.44-6.77-4.2-10.7-1.13
				c-4.25-0.34-8.49-0.69-12.74-1.03c1.19-5.27-9.91-0.49-6.32-7.72c3.52,0.29,7.05,0.58,10.57,0.87c2.95,5.63,6.72,4.32,10.7,1.27
				c4.93-1.76,10.78,3.15,15.23-2.09c1.93,0.05,3.87,0.1,5.81,0.15c0.74,0.83,1.48,1.66,2.22,2.49c0.69,2.79,1.62,4.89,4.44,1.53
				C454.09,372.01,454.6,371.98,455.13,372.26z"/>
			<path class="st0" d="M489.73,380.78c0.67-4.47,4.11-4.03,7.25-4.03c20.7-0.01,41.4-0.01,62.11,0c3.14,0,6.58-0.44,7.25,4.03
				C540.8,382.25,515.26,382.08,489.73,380.78z"/>
			<path class="st13" d="M451.37,378.97c2.68-3.34,6.44-1.92,9.8-2.16c3.09-0.23,6.6,0.53,7.25-4.01c1.43,0.05,2.85,0.09,4.28,0.14
				c0,2.47,0,4.93,0,7.4C465.52,380.87,458.43,380.22,451.37,378.97z"/>
			<path class="st0" d="M472.7,380.33c0-2.47,0-4.93,0-7.4c3.54,0.12,7.09,0.24,10.63,0.36c0,2.44,0,4.89,0,7.33
				C479.78,380.52,476.24,380.43,472.7,380.33z"/>
			<path class="st13" d="M423.69,376.88c3.93-3.07,7.67-4.31,10.7,1.13C430.73,378.51,427.16,378.13,423.69,376.88z"/>
			<path class="st0" d="M638.99,395.75c1.51,2.21,4.03,1.56,6.1,2.16c1.46,2.45,7.9,0.65,5.8,5.35c-1.5,3.37-4.8-0.53-7.32-0.91
				c-13.23-2-24.05-9.86-35.9-15.2c-1.12-0.5-3.09-2.09-1.02-4.03c11.1,3.23,20.64,10.45,32.18,12.54L638.99,395.75z"/>
			<path class="st13" d="M446.93,368.33c-1.93-0.05-3.87-0.1-5.81-0.15c-5.83-6.09-9.57-13.06-8.26-22.35
				C437.56,353.33,442.25,360.83,446.93,368.33z"/>
			<path class="st13" d="M425.9,370.27c-3.98,3.06-7.75,4.37-10.7-1.27C418.77,369.43,422.33,369.85,425.9,370.27z"/>
			<path class="st13" d="M453.59,372.34c-2.82,3.36-3.75,1.26-4.44-1.53C450.63,371.32,452.11,371.83,453.59,372.34z"/>
			<path class="st13" d="M291.84,476.43c-10.87-6.11-17.14-15.53-19.46-27.87c7.15,8.76,13.59,18.07,21.84,25.81
				C293.42,475.06,292.63,475.74,291.84,476.43z"/>
			<path class="st0" d="M291.84,476.43c0.79-0.69,1.59-1.37,2.38-2.06c0.71-0.63,1.42-1.26,2.13-1.88c2.74,3.15,2.47,5.34-1.98,6.2
				C293.52,477.93,292.68,477.18,291.84,476.43z"/>
			<path class="st0" d="M140.82,604.12c0.56,0.32,1.16,0.4,1.79,0.26c3.99,12.44,14.39,20.64,22,32c-6.66,0.09-9.03-5.16-13.24-6.91
				c-5.77-7.95-12.62-15.25-14.95-25.23C137.89,604.19,139.36,604.15,140.82,604.12z"/>
			<path class="st0" d="M758.71,555.8c0.68,2.52,2.57,2.37,4.65,2.34c2.23-0.03,4.63,0.24,3.15,3.63
				C762.22,561.98,760.87,558.36,758.71,555.8z"/>
			<path class="st13" d="M326.38,619.38c-7.56-3.56-7.73-10.66-9.1-17.18C322.7,606.78,324.56,613.07,326.38,619.38z"/>
			<path class="st0" d="M805.7,763.14c-4.41-1.6-6.16-3.23-4.77-7.07C804.2,756.74,805.02,759,805.7,763.14z"/>
			<path class="st3" d="M638.84,395.65c0.16-0.27,0.33-0.53,0.49-0.8c-0.11,0.3-0.23,0.6-0.34,0.89
				C638.99,395.75,638.84,395.65,638.84,395.65z"/>
		</g>
	</g>
	<g>
		<g>
			<g>
				<g>
					<circle class="st14" cx="341.16" cy="432.64" r="198.16"/>
					<path class="st14" d="M341.16,640.28c-114.49,0-207.64-93.15-207.64-207.64c0-114.49,93.15-207.64,207.64-207.64
						S548.8,318.15,548.8,432.64C548.8,547.13,455.66,640.28,341.16,640.28z M341.16,243.95c-104.04,0-188.69,84.65-188.69,188.69
						c0,104.04,84.65,188.69,188.69,188.69s188.69-84.64,188.69-188.69C529.85,328.6,445.21,243.95,341.16,243.95z"/>
				</g>
			</g>
			<g>
				<path class="st15" d="M339.58,310.63c0.67-0.76,1.34-1.51,2.01-2.27c0.91,1.34,1.9,2.64,2.73,4.03
					c23.62,39.16,47.22,78.33,70.81,117.5c0.54,0.9,0.81,1.97,1.21,2.97c-3.84,0.54-6.76-1.76-9.96-3.2
					c-21.86-9.83-43.73-19.68-65.59-29.52c-0.03-26.64-0.04-53.28-0.12-79.93C340.66,317,341.35,313.66,339.58,310.63z"/>
				<path class="st16" d="M339.58,310.63c1.77,3.03,1.08,6.37,1.09,9.58c0.08,26.64,0.09,53.28,0.12,79.93
					c-0.34,0.24-0.57,0.57-0.68,0.97c-12.76,3.97-24.28,10.81-36.6,15.79c-12.48,5.04-23.98,12.46-37.27,15.56
					c5.32-13.25,13.92-24.62,21.1-36.8c15.26-25.89,30.95-51.54,46.53-77.24C335.52,315.67,336.54,312.39,339.58,310.63z"/>
				<path class="st17" d="M340.1,401.11c0.11-0.4,0.34-0.73,0.68-0.97c21.86,9.84,43.73,19.68,65.59,29.52
					c3.2,1.44,6.13,3.74,9.96,3.2c1.62,1.3,1.9,2.55-0.14,3.72c-25.27,14.42-49.52,30.61-75.56,43.71
					C340.46,453.89,340.28,427.5,340.1,401.11z"/>
				<path class="st18" d="M340.1,401.11c0.18,26.39,0.36,52.78,0.54,79.17c-24.6-14.33-49.19-28.67-73.82-42.95
					c-2.6-1.51-2.85-2.95-0.58-4.87c13.29-3.1,24.79-10.51,37.27-15.56C315.82,411.92,327.34,405.08,340.1,401.11z"/>
				<path class="st19" d="M340.72,495.66c24.65-14.48,49.3-28.96,73.95-43.44c0.38,0.4,0.77,0.8,1.15,1.2
					c-1.26,1.85-2.5,3.72-3.8,5.54c-22.02,31.02-44.01,62.05-66.15,92.99c-1.4,1.96-1.69,5.96-5.86,4.75
					C341.55,536.37,340.19,516,340.72,495.66z"/>
				<path class="st16" d="M340.72,495.66c-0.52,20.34,0.83,40.71-0.71,61.04c-12.08-14.14-21.84-29.98-32.73-44.98
					c-11.88-16.37-23.47-32.96-35.15-49.48c-1.64-2.32-3.83-4.44-4.24-9.71C293.08,467.44,316.9,481.55,340.72,495.66z"/>
			</g>
		</g>
		<g>
			<circle class="st20" cx="587.05" cy="596.88" r="206.92"/>
			<path class="st21" d="M488.51,703.18c-11,0-22.01,0.01-33.01,0c-2.29,0-4.53-0.37-6.7-1.13c-6.68-2.34-9.69-7.9-8.06-14.8
				c0.58-2.47,1.62-4.75,2.87-6.94c21.39-37.66,42.77-75.32,64.16-112.98c21.78-38.35,43.56-76.69,65.33-115.04
				c1.6-2.81,3.41-5.44,6-7.43c4.91-3.78,10.48-3.64,15.23,0.37c2.17,1.83,3.85,4.04,5.21,6.51c10.61,19.33,21.65,38.42,32.53,57.6
				c2.69,4.75,4.15,9.9,4.73,15.29c0.86,8-0.33,15.72-3.92,22.92c-2.12,4.25-4.68,8.28-7.05,12.39
				c-23.73,41.12-47.4,82.28-71.24,123.34c-6.09,10.48-15.48,16.71-27.33,19.22c-2.5,0.53-5.04,0.72-7.6,0.72
				c-10.38-0.03-20.77-0.01-31.15-0.01C488.51,703.2,488.51,703.19,488.51,703.18z"/>
			<path class="st21" d="M672.54,703.19c-15.21,0-30.42,0-45.63,0c-2.54,0-5.01-0.42-7.39-1.33c-6.13-2.34-9.05-7.93-7.61-14.49
				c0.55-2.52,1.56-4.84,2.85-7.06c15.02-25.9,30.05-51.79,45.07-77.69c1.41-2.43,3.05-4.67,5.23-6.49
				c4.94-4.12,10.92-4.11,15.84,0.03c2.17,1.83,3.82,4.06,5.22,6.5c14.78,25.95,29.56,51.91,44.35,77.86
				c1.57,2.75,2.84,5.61,3.08,8.8c0.48,6.26-2.58,10.78-8.55,12.78c-2.65,0.89-5.38,1.11-8.16,1.11c-14.76-0.01-29.52,0-44.29,0
				C672.54,703.21,672.54,703.2,672.54,703.19z"/>
		</g>
	</g>
</g>
</svg>