<?xml version="1.0" encoding="utf-8"?>
<!-- Generator: Adobe Illustrator 25.2.1, SVG Export Plug-In . SVG Version: 6.00 Build 0)  -->
<svg version="1.1" id="Layer_2" xmlns="http://www.w3.org/2000/svg" xmlns:xlink="http://www.w3.org/1999/xlink" x="0px" y="0px"
	 viewBox="0 0 1000 1000" style="enable-background:new 0 0 1000 1000;" xml:space="preserve">
<style type="text/css">
	.st0{fill:#313B54;}
	.st1{fill:#EAF4FE;}
	.st2{fill:#C7E0F5;}
	.st3{fill:#E9F3FD;}
	.st4{fill:#E9F2FC;}
	.st5{fill:#E8F2FB;}
	.st6{fill:#AFDAFB;}
	.st7{fill:#AFDBFC;}
	.st8{fill:#E7F1FB;}
	.st9{fill:#C5DFF3;}
	.st10{fill:#F7EBF9;}
	.st11{fill:#AED9F9;}
	.st12{fill:#E6F0FA;}
	.st13{fill:#F2E7F4;}
	.st14{fill:#353F57;}
	.st15{fill:#E74242;}
	.st16{fill:#1D1E1D;}
	.st17{fill:#F7FBFE;}
	.st18{fill:#952D2D;}
	.st19{fill:#FEFEFE;}
	.st20{fill:#1C1D1C;}
	.st21{fill:#FFFFFF;}
</style>
<g>
	<g id="ajbOlw.tif">
		<g>
			<path class="st0" d="M59.92,666.33c9.37-5.01,18.6-2.1,27.63,0.89c13.13,4.35,24.47,11.99,37.02,22.79
				c-2.73-21.04-1.43-39.54-0.46-58.03c4.2-80.32,21.75-157.1,66.64-225.01c61.77-93.44,150.61-146.27,260.06-165.17
				c58.28-10.06,116.99-12.1,175.27,0.7c77.73,17.06,138.1,61.33,187.76,121.71c58.25,70.83,88.23,152.97,97.17,243.47
				c2.61,26.41,4.3,52.87,4.19,79.43c-0.03,6.85,0.53,11.02,9.29,6.12c11.12-6.22,22.49-4.88,32.76,3.06
				c1.98,8.7-4.1,4.35-6.58,3.57c-9.6-3.03-18.62-2.96-27.67,2.05c-5.01,2.77-9.13,6.42-9.54,11.81c-0.49,6.49,6.76,2.34,9.56,5.31
				c1.79,1.9,6.02,2.43,5.02,5.78c-0.98,3.29-4.63,2.47-7.42,2.03c-7.01-1.11-14.01-2.19-21.13-1.45c-2.07,0.21-4.61,0.18-4.83,2.95
				c-0.16,2.02,1.87,2.74,3.45,3.52c4.12,2.03,8.39,3.81,12.29,6.19c2.43,1.48,6.71,2.88,4.97,6.71c-1.55,3.42-5.09,0.93-7.63,0.41
				c-7.71-1.6-14.77-5.09-21.4-9.09c-15.24-9.21-30.45-11.27-47.6-4.65c-6.6,2.55-7.74,5.27-7.76,11.1
				c-0.06,12.38-0.58,24.75-0.97,37.13c-0.11,3.56-0.07,7.6-5.13,7.69c-24.91,0.42-50.03,3.7-74.32-5.04
				c-22.25-10.86-45.07-20.34-68.36-28.73c-4.23-1.52-9.12-2.35-11.98-6.31c-8.74-12.11-21.05-11.67-34.83-10.99
				c2.25,4.45,8.86,6.34,6.11,10.05c-3,4.04-8.03,0.28-11.55-1.44c-16.42-8.07-33.68-9.93-51.68-8.72
				c-6.02,0.41-7.72,2.34-7.64,8.19c0.18,14.1,0.33,28.25-2.34,42.21c-3.45,0.92-6.91,1.85-10.36,2.77
				c-21.54-1.05-43.45,2.53-64.56-2.84c-15.15-3.85-28.58-3.22-41.32,6.02c-1.74,1.26-3.73,2.61-5.67,0.67
				c-2.59-2.59-0.16-4.54,1.41-6.25c5.75-6.28,13.22-9.54,23.32-11.14c-20.27-11.36-38.65-21.86-57.25-31.94
				c-5.62-3.04-10.03-7.7-17.7-7.99c-15.32-0.58-29.54,1.3-42.87,9.23c-7.05,4.19-15.03,7.09-23.07,7.54
				c-17.35,0.98-34.41,2.61-50.58,9.56c-2.12,0.91-5.03,2.27-6.46-0.92c-1.14-2.54,1.48-3.52,3.04-4.81
				c1.19-0.99,3.43-1.49,1.69-4.33c-7.81-0.83-15.86-0.82-23.95,0.17c-12.71,1.56-24.99,4.79-37.11,8.87
				c-2.54,0.85-6.44,4.51-8.16,0.16c-1.33-3.37,3.56-4.35,5.76-6.32c2.76-2.47,7.38-2.35,9.32-6.65
				c-21.19-14.06-43.96-23.14-69.31-24.63c-10.41-0.61-19.01-3.86-23.27-13.72c-8.68-20.12-26.69-26.9-45.43-32.91
				C77.54,672.54,66.53,674.72,59.92,666.33z M550.53,774.37c0.34,0.61,0.83,1.07,1.46,1.37c1.4,1.35,2.95,4.26,4.77,2.51
				c2.11-2.03-0.98-3.11-2.4-4.26c-0.69-0.74-1.38-1.47-2.07-2.21c-0.68-0.74-1.36-1.47-2.04-2.21
				c-4.31-7.07-12.47-11.44-15.19-19.61c0.87-0.81,1.73-1.61,2.6-2.42c7.64,8.92,15.29,17.85,23.2,27.1
				c2.24-3.05,2.94-3.56,2.93-4.06c-0.51-26.84-1.23-53.68-1.53-80.52c-0.07-5.92-3.5-4.68-6.97-4.73
				c-17.32-0.24-34.69,0.01-51.95-1.18c-6.8-0.47-7.48,1.53-7.37,7.12c0.5,25.08,0.76,50.16,0.99,75.25
				c0.12,13.73,0.01,13.44,13.28,12.98c12.06-0.41,24.14-0.09,36.88-0.09c-2.39-5.52-7.83-7.01-8.14-12.33
				c4.58,0.21,6.15,4.15,9.37,5.35C549.07,773.07,549.8,773.72,550.53,774.37z M897.19,609.6c-0.48-0.53-0.95-1.06-1.43-1.6
				c-6.81-10.12-17.73-15.75-28.34-25.03c15.22,1.81,22.89,11.77,32.73,20.76c0.71-12.37-2.25-22.48-4.08-32.67
				c-4.87-27.08-11.76-53.64-20.96-79.6c-1.66-4.69-2.58-8.14-9.08-4.5c-9.44,5.28-19.63,9.24-29.49,13.77
				c-20.11,5.79-40.39,10.9-62.08,13.15c32.05,38.26,41.93,58,50.44,98.97c1.62,7.81-0.53,18.53,5.42,22.74
				c6.52,4.62,16.21-1.45,24.66-1.78c3.84-0.15,7.6-2.17,11.4-3.35c9.91-2.22,18.32-7.78,27.97-11.98
				c-4.23-6.23-11.88-8.14-15.76-15.21c6.89-0.52,9.97,4.88,14.75,6.32c0.79,0.63,1.58,1.26,2.37,1.89
				c0.78,0.64,1.56,1.27,2.34,1.91c0.25,1.01,0.62,1.96,1.88,1.34c0.12-0.06-0.45-1.54-0.7-2.35
				C898.55,611.45,897.87,610.53,897.19,609.6z M141.12,602.6c-2.05-2.65-3.47-1.52-4.7,0.78c-6.51,7.93,3.69,14.24,2.13,21.71
				c-2.86,0.66-2.46-4.18-7.05-2.79c0,10.73-0.18,21.92,0.05,33.1c0.25,11.95-0.2,24.05,1.6,35.79
				c3.07,20.01,13.78,26.4,27.08,24.06c9.22,2.29,18.54,4.23,27.63,6.97c8.78,2.64,16.77,7.24,25.02,11.24
				c7.78,3.77,13.02,13,25.68,12.72c-7.57-6.96-14.33-11.34-15.86-19.8c6.77,4.98,12.14,11.64,20.12,14.71
				c1.22,1.45,2.76,3.68,4.47,1.57c1.21-1.49-1.43-2.34-2.54-3.32c-9-9.26-18.61-18.04-24.27-30.21
				c10.34,8.36,18.3,19.4,30.26,26.13c-1.88-30.16-4.08-59.41,0.85-88.6c0.67-3.99,0.7-6.66-4.2-7.72
				c-35.75-7.73-69.65-20.95-103.24-35.05C143.13,603.45,142.12,603.02,141.12,602.6z M270.76,337.28
				c-5.4-2.94-8.45,1.02-11.84,4.02c-30.8,27.18-56.43,58.51-75.49,94.94c-8.12,15.51-12.09,13.58,8.51,20.11
				c20.83,9.13,42.47,15.68,65.93,21.86c-9.34-14.78-9.34-14.78-9.27-21.52c9.7,10.81,15.89,25.12,32.12,26.36
				c-6.43-7.89-12.67-15.63-17.17-24.9c10.81,8.58,18.22,20.88,30.54,27.62c1.57,0.8,3.15,1.6,4.72,2.4
				c41.27,9.33,82.91,15.64,125.38,15.2c18,3.21,35.96,6.32,46.68-14.25c0.16-0.31,0.3-0.63,0.45-0.95
				c33.93-31.71,75.36-44.56,120.62-47.09c7.61-0.43,8.53-3.44,7.98-9.71c-1.46-16.51-2.51-33.05-3.73-49.57
				c-4.62-7.12-9.64-6.18-14.89-0.74c-3.54,0.12-7.07,0.25-10.61,0.37c0.01-2.46,0.01-4.93,0.02-7.39
				c35.37-2.08,70.64-5.28,105.81-9.65c8.45-1.05,9.61-3.07,5.43-10.75c-14.29-26.27-31.43-50.4-51.29-72.71
				c-3.42-3.84-6.51-5.01-11.86-4.16c-33.37,5.3-67.06,7.3-100.64,3.54c-13.97-1.57-23.09,0.79-27.03,14.98
				c-3.61-1.63-3.36-5.03-3.74-8.14c3.85-6.99,2.19-9.81-6.18-10.86c-20.76-2.61-40.84-8.32-60.28-16.1
				c-3.17-1.27-5.91-1.29-9.18-0.44c-34.92,9.08-68.04,21.68-94.48,47.55c-5.37-4.15-10.98-10.55-14.57,1.58
				c-11.24,7.21-23.74,12.84-31.18,24.82C271.28,334.87,271.02,336.08,270.76,337.28z M791.86,687.92
				c-5.91-0.71-11.86-1.22-17.72-2.2c-5.81-0.96-7.85,0.55-7.74,6.99c0.38,22.16,0.07,44.34-0.06,66.51
				c-0.04,6.93-3.18,16.98,0.18,20.04c4.63,4.22,13.81-0.68,21.11-0.76c7.84,0,15.67,0,24.09,0c-1.72-6.04-7.53-9.28-7.42-16.06
				c7.19,3.35,8.4,11.34,15.69,13.69c-4.55-10.04-13.02-18.1-14.71-30.14c4.51,5.31,9.03,10.63,15.68,18.47
				c0-22.65,0.05-42.33-0.02-62c-0.05-16.77-0.1-16.69-16.38-14.95C800.36,687.96,796.09,687.8,791.86,687.92z M204.37,473.97
				c-2.66-7.35-10.33-5.59-15.45-8.48c-17.04-7.12-17.12-7.14-23.9,10.15c-12.3,31.32-21.31,63.56-26.4,96.82
				c-3.76,24.6-6.79,18.21,15.33,27.42c5.92,2.33,11.85,4.66,18.24,7.18c0.48-4.61,0.81-7.7,1.13-10.8c1.35,0.01,2.7,0.01,4.04,0.02
				c1.7,4.63-4.71,11.33,4.03,14.25c35.51,11.88,71.25,22.79,108.51,27.84c11.5,2.7,23.07,4.64,36.88,4.72
				c-8.54-8.17-15.17-15.5-19.56-26.59c6.08,2.12,6.9,6.37,9.42,8.99c7.74,8.03,14.61,17.2,26.5,19.62
				c1.91,0.05,3.82,0.11,5.73,0.16c15.42,2.74,31,1.23,46.5,1.75c6.76,0.23,9-1.57,9.56-8.52c3.41-42.64,16.7-82.01,40.47-117.73
				c1.31-1.96,3.47-3.62,3.03-7.05c-16.48,1.15-32.92-0.26-49.37-1.07c-20.42-3.69-20.42-3.69-24.5,13.44
				c-0.6,1.24-1.29,2.44-1.78,3.72c-14.01,36.44-19.07,74.8-24.19,113.14c-1.72,0.01-3.45,0.02-5.17,0.02
				c-3.16-2.45-7.22-3.87-9.05-7.85c0.18-2.17,0.36-4.33,0.55-6.5c2.39,1.91,4.77,3.83,7.67,6.15c1.53-5.28,2-9.47-2.59-12.61
				c2.05-0.36,4.21-0.54,5.21-2.84c0.37-4.17,0.59-8.36,1.14-12.51c3.05-22.91,9.44-45.12,14.14-67.69l-0.07,0.05
				c1.74-1.01,1.89-2.67,1.8-4.42c3.12-8.17,6.24-16.33,9.65-25.26c-53.94-6.14-105.58-17.67-155.96-34.67
				c-3.5-1.18-5.25-0.24-6.88,2.45C206.76,477.16,205.12,476.2,204.37,473.97z M776.39,564.99c1.91,1.62,3.99,5.35,6.31,2.53
				c1.52-1.83-2.48-3.19-4.29-4.5c-1.81-1.4-3.62-2.8-5.68-4.39c3.89-1.76,6.67-0.38,9.17,1.59c3.25,2.55,5.94,4.26,9.94,0.54
				c4.55-4.24,0.89-7.04-0.99-9.98c-25.79-40.21-63.15-61.38-110.2-66.44c-2.66-0.29-6.13-1.43-5.36,3.57
				c0.01,11.35-1.16,22.86,0.35,34.01c1.51,11.18,3.12,21.91-0.2,33.01c-1.98,6.61,0.9,10.56,8.17,9.28
				c7.37-1.29,14.04,1.03,20.72,3.21c18.49,6.06,32.94,17.54,42.99,33.93c10.13-10.49,19.64-20.34,29.27-30.3
				c-2.17-3.46-8.08-4.04-10.36-8.77C770.76,558.89,772.75,565.03,776.39,564.99z M587.1,260.52c5.77-1.05,10.19,2.04,14.63,4.89
				c2.7,1.73,5.06,3.16,8.71,2.58c13.59-2.14,27.2-4.09,42.9-8.47c-35.28-11.35-69.13-16.41-103.91-15.68
				c-31.2-1.83-96.63,4.89-117.03,12.36c49.28,13.68,98.2,18.24,149.77,14.58c-9.37-8.06-19.92-9.37-30.74-15.97
				c18.55,0.63,30.69,12.15,46.63,15.81C595.59,263.94,589.38,264.65,587.1,260.52z M791.88,678.59c7.4,0.36,14.84,0.37,22.18,1.21
				c5.61,0.64,6.5-1.84,6.39-6.55c-0.72-31.51-3.94-62.61-14.82-92.47c-6.11-16.75-6.21-16.75-19.96-4.77
				c-3.71,3.23-7.21,6.7-10.81,10.06c-6.73,5.68-13.36,11.48-20.23,16.99c-3.37,2.7-3.61,5.16-1.75,9.05
				c6.64,13.88,8.82,28.96,10.98,44c1.15,7.99-0.69,19.92,3.75,23.02C772.96,682.86,783.55,679.1,791.88,678.59z M870.57,719.4
				c14.41,6.36,16.89,4.9,17.18-10c0.39-19.67-0.21-39.27-2.19-58.88c-1.93-19.08-1.51-19.12-19.3-12.35
				c-10.4,1.83-20.69,4.56-31.34,4.43c-4.02-0.05-5.47,1.16-5.35,5.47c0.65,23.69,1.14,47.38,1.3,71.08
				c0.04,6.32,2.17,7.09,7.6,5.17C848.82,720.65,859.27,717.1,870.57,719.4z M636.65,277.53c22.22,23.38,41.23,49.05,55.09,78.27
				c2.02,4.25,4.41,5.65,8.99,4.81c19.05-3.47,38.35-5.6,57.1-10.69c8.59-0.57,16.83-2.57,26.3-5.11
				c-32.78-33.74-68.68-60.01-110.62-77.71c-1.92-0.81-4.21-2.16-5.97-1.74c-10.63,2.55-21.22,5.34-31.68,8.55
				C633.44,274.65,634.92,276.58,636.65,277.53z M677.6,597.74c-1.81-2.32-3.99-1.88-6.24-0.8c1.26,0.97,2.53,1.95,3.79,2.92
				c7.24,8.3,16.94,14.4,21.12,25.81c-7.46-6.21-14.92-12.43-24.06-20.04c3.15,14.52,5.16,26.73,4.72,39.13
				c-0.18,5.13,2.54,6.27,6.75,7.54c13.21,3.98,26.3,8.36,39.34,12.86c10.49,3.62,20.84,7.66,32.14,11.84
				c-0.93-16.3-2.8-30.97-6.22-45.42c-2.78-11.73-6.28-21.15-21.92-21.92c-12.18-0.6-24.11-6.21-36.92-9.81
				c1.92,5.73,8.54,6.28,9.21,13.76C691.13,607.61,684.36,602.68,677.6,597.74z M569.22,503.27c24.72-15.49,51.32-25.82,81.59-28.5
				c-58.21-36.19-101.59-29.18-158.7,9.26c-9.78,6.74-18.02,14.96-25.67,25.13c22.2,6.88,42.69,14.64,63.09,22.65
				c2.8,1.1,6.72,3.3,8.11-1.04c1.1-3.46-3.29-3.87-5.55-4.93c-7.75-3.64-15.66-6.93-23.5-10.36c13.45-2.39,23.83,6.75,38.26,9.46
				c-4.59-7.28-12.42-6.71-14.39-14.37c15.36,12.31,25.74,2.89,36.13-6.45C568.85,503.9,569.02,503.56,569.22,503.27z
				 M656.62,549.18c4.31,2.68,8.62,5.36,12.93,8.04c0.44-0.73,0.87-1.45,1.31-2.18c-4.1-2.8-8.2-5.6-12.3-8.39
				c0.57-1.57,0.66-3.57,3.36-2.08c8.49,4.68,8.91,0.02,8.81-7.02c-0.22-15.89,0.06-31.79,0.68-47.67c0.17-4.49-0.31-6.29-5.29-6.25
				c-47.01,0.44-86.64,17.79-119.31,51.39c-2.58,2.65-3.7,4.59-0.19,7.62c15.57,13.43,29.09,28.88,42.74,44.17
				c3.91,4.38,6.25,3.64,10.14,0.17c11-9.82,24.06-16.12,38.17-20.03c8.49-2.35,17.26-3.69,26.99-5.71
				c-13.26-8.41-25.36-16.08-37.47-23.76c0.55-0.85,1.1-1.69,1.65-2.54C638.11,539.69,647.36,544.43,656.62,549.18z M270.62,743.31
				c11.63,4.26,22.97,5.7,34.23-1.65c3.74-2.44,8.51-3.4,12.91-4.74c2.6-0.79,5.67-2.12,7.84,0.67c2.29,2.95-2.33,4.33-2.19,7.4
				c15.76,0.02,28.04-8.23,41.09-15.19c-5.65-6.58-14.18-9.56-17.97-20.52c7.36,5.28,12.58,8.81,17.57,12.66
				c8.27,6.38,8.21,6.46,16.23,4.07c-9.02-7.68-17.89-15.24-26.76-22.8c16.88,4.36,26.77,20.25,45.82,25.84
				c-6.9-10.23-16.02-14.46-18.5-24.57c7.43,6.12,14.85,12.23,23.9,19.68c-2.25-22.29-2.24-42.61-1.72-62.94
				c0.1-4.04-1.05-5.52-5.37-5.39c-37.62,1.16-74.88-2.83-112.02-8.35c-6.89-1.49-13.82-2.81-20.66-4.52
				c-5.25-1.31-6.44,0.6-6.76,5.72c-1.73,27.1-2.75,54.16-2.13,81.35C256.39,741.46,259.79,745.38,270.62,743.31z M482.09,665.78
				c1.4,1.8,2.15,4.3,5.02,4.61c1.54-3.39-0.7-5.13-2.88-6.9c-2.15-5.61-8.52-9.04-8.96-16.03c5.71,1,6.87,7.73,12.28,8.02
				c0.27-0.59,0.52-0.9,0.55-1.23c3.19-39.85,13.9-77.06,38.61-109.32c4.05-5.29-0.61-5.61-3.72-6.83
				c-17.76-6.99-35.69-13.56-53.2-21.14c-6.14-2.66-9.12-1.86-12.82,3.48c-20.43,29.51-34.11,61.67-40.12,97.12
				c-4.86,28.67-5.05,28.66,21.27,41.1c13.21,6.25,26.56,12.13,42.26,17.05c-5.5-12.83-17.13-18.46-23.69-31.32
				C468.34,650.85,474.52,659.14,482.09,665.78z M768.49,357.61c-49.2,9.02-98.55,17.08-151.49,21.51
				c9.29,4.79,15.49,7.98,21.69,11.17c-2.34,4.47-4.69,1.81-7.48,0.31c-6.43-3.47-13.04-6.59-19.65-9.72
				c-2.97-1.41-6.47-3.04-4.63,3.06c-4.42,1.09-3.96,3.94-3.33,7.57c2.2,12.56,3.61,25.27,2.98,38.02
				c-0.37,7.68,1.22,10.79,10.04,11.09c57.21,1.95,106.97,21.91,147.59,62.94c1.94,1.96,3.55,4.58,7.01,3.87
				c20.93-4.35,41.91-8.51,62.69-17.21c-6.45-5.14-14.17-6.22-19.29-13.63c11.12,1.49,18.61,8.49,28.16,9.61
				c-12.38-10.72-27.36-17.31-40.06-27.69c7.02,2.87,14.04,5.74,21.07,8.62c6.04,3.42,12.08,6.84,18.11,10.24
				c1.65-2.75,0.3-4.57-0.47-6.51c-16.42-41.17-42.04-76.72-68.46-111.78C771.78,357.5,770.44,356.68,768.49,357.61z M539.87,543.59
				c-34.02,37.79-40.92,84.34-45.55,131.63c-0.53,5.43,3.57,6.84,7.77,5.65c16.97-4.79,34.28-1.82,51.39-2.23
				c7.42-0.18,9.39-2,10.02-8.89c2.3-24.85,7.63-48.86,23.21-69.29c2.79-3.66,0.93-5.52-1.41-7.89
				C569.69,576.81,553.84,561.25,539.87,543.59z M677.1,657.15c0,27.27,0.26,52.73-0.17,78.18c-0.12,7.27,3.11,9.5,9.35,11.35
				c22.18,6.6,43.91,14.47,66.99,25.91c-7.72-14.05-14.05-26.57-17.23-40.44c8.95,7.79,10.97,20.2,19.3,29.54
				c2.22-12.15-8.09-19.12-9.42-29.41c5.69-0.2,4.89,6.62,9.92,7.69c0-16.98-0.04-33.75,0.03-50.51c0.02-3.8-2.81-4.58-5.43-5.47
				C726.42,675.8,702.1,668.43,677.1,657.15z M487.49,773.43c0-20.09,0.02-39.49-0.01-58.89c-0.01-8.47,2.41-18.13-0.85-25.11
				c-3.68-7.85-15.25-6.75-23.2-9.96c-16.99-6.87-33.12-15.52-50.39-23.88c-2.31,24.65-1.19,48.3-1.43,71.92
				c-0.04,3.79,1.75,5.63,4.9,7.22C440.74,746.99,464.88,759.45,487.49,773.43z M778.08,355.99c31.83,35.4,54.76,75.28,72.94,118.02
				c2.34,5.49,3.71,8.73,11.11,5.68c7.36-3.03,6.34-6.26,3.94-11.84c-16.88-39.24-39.83-74.58-67.23-107.28
				C792.87,353.43,787.25,351.51,778.08,355.99z M895.92,689.7c0,7.42-0.06,14.84,0.04,22.25c0.03,1.87-1.22,4.66,1.83,5.17
				c2.72,0.46,5.78,0.61,7.21-2.77c2.22-5.24,3.75-10.62,3.99-16.37c0.88-21.62-1.83-43.03-4.21-64.43
				c-0.35-3.14,2.32-10.52-5.07-8.27c-4.57,1.39-12.25,2.43-9.37,11.96C895.5,654.28,896.57,671.97,895.92,689.7z M651.08,574.08
				c24.75,20.66,54.03,18.9,81.79,28.03C721.36,579.42,688.46,568.39,651.08,574.08z M721.77,480.97
				c-31.45-18.42-62.01-29.45-97.29-29.38C654.44,469.7,685.8,478,721.77,480.97z"/>
			<path class="st1" d="M557.92,789.32c3.45-0.92,6.91-1.85,10.36-2.77c2.25,13.25,17.06,16.24,29.14,7.92
				c18.15-12.49,32.97-10.5,49.85,1.05c8.71,5.96,18.83,2.31,25.59-6.26c1.96-0.22,3.91-0.44,5.87-0.66
				c0.89,1.63,2.23,2.82,4.1,2.83c13.94,0.05,27.69,4.27,41.74,1.86c3.05-1.05,10.14,8.12,9-3.54c5.66-2.49,11.33-4.99,16.99-7.48
				c24.29,8.75,49.41,5.47,74.32,5.04c5.06-0.09,5.01-4.12,5.13-7.69c0.4-12.37,0.92-24.75,0.97-37.13
				c0.03-5.83,1.16-8.55,7.76-11.1c17.15-6.62,32.36-4.56,47.6,4.65c6.63,4.01,13.69,7.5,21.4,9.09c2.54,0.53,6.08,3.01,7.63-0.41
				c1.73-3.83-2.55-5.22-4.97-6.71c-3.9-2.38-8.18-4.16-12.29-6.19c-1.58-0.78-3.61-1.5-3.45-3.52c0.22-2.77,2.76-2.74,4.83-2.95
				c7.13-0.74,14.13,0.34,21.13,1.45c2.79,0.44,6.44,1.26,7.42-2.03c1-3.35-3.22-3.87-5.02-5.78c-2.8-2.97-10.05,1.18-9.56-5.31
				c0.41-5.39,4.53-9.04,9.54-11.81c9.06-5.01,18.07-5.08,27.67-2.05c2.48,0.78,8.57,5.14,6.58-3.57
				c21.08,3.04,30.04,19.19,38.36,35.78c1.86,3.7,2.34,8.1,3.34,12.21c2.32,9.56-0.72,14.83-10.05,17.47
				c-2.37,0.67-4.75,1.53-7.18,1.77c-26.55,2.58-40.12,17.87-43.64,43.57c-4.06,29.67-23.91,46.04-49.63,56.76
				c-27.29,11.37-55.81,16.17-85.47,17.52c-29.14,1.32-58.1,1.64-85.27-9.07c-25.7-10.13-52.27-11.95-78.88-12.34
				c-65.2-0.95-130.48-2.08-195.61,0.19c-65.51,2.29-130.97,0.53-196.45,1.54c-4.05,0.06-8.57,1.59-12.13-1.98
				c7.57-4.07,16.2-3.7,24.3-5.53c32.17-7.27,63.42-18.76,96.81-20.53c15.09-0.8,29.62-3.53,42.74-12.78
				c6.59-4.64,15.72-6.74,24.34-5.54c39.64,5.5,77.9-0.5,115.09-14.06C545.03,798.64,553.33,796.71,557.92,789.32z"/>
			<path class="st2" d="M557.92,789.32c-4.59,7.39-12.88,9.32-20,11.92c-37.19,13.56-75.44,19.56-115.09,14.06
				c-8.62-1.2-17.75,0.9-24.34,5.54c-13.12,9.25-27.65,11.98-42.74,12.78c-33.39,1.77-64.64,13.27-96.81,20.53
				c-8.09,1.83-16.72,1.46-24.3,5.53c-46.92,1.22-93.67-0.42-140-8.64c-1.62-0.29-3.1-1.33-4.64-2.02
				c-1.69-15.36,6.9-28.38,9.75-42.72c3.07-15.49,0.18-28.73-13.72-37.77c-6.04-3.93-8.22-7.31-1.76-12.7
				c3.3-2.75,5.35-6.48,5.77-10.91c6.91-0.41,13.37,0.82,20.1,5.02c-4.08,1.44-7.1,2.39-10.02,3.59c-1.85,0.76-4.49,1.55-3.28,4.3
				c1.15,2.64,3.48,1.47,5.45,0.73c15.82-5.93,31.21-3.14,46.54,2.16c2.91,1.01,6,3.65,10.06,0.55
				c-10.44-11.44-23.33-13.12-37.02-12.61c-2.76,0.1-7.36,0.84-8.02-0.38c-7.6-14.08-20.23-11.18-32.35-10.27
				c-2.24-5.06-7.09-7.32-11.18-10.39c-10.74-8.07-12.11-17.65-5.39-29.11c5.27-8.99,12.38-15.75,20.82-21.44
				c18.74,6,36.75,12.79,45.43,32.91c4.26,9.87,12.86,13.11,23.27,13.72c25.35,1.5,48.12,10.57,69.31,24.63
				c-1.93,4.29-6.56,4.17-9.32,6.65c-2.21,1.98-7.09,2.96-5.76,6.32c1.71,4.35,5.62,0.7,8.16-0.16c12.12-4.07,24.4-7.31,37.11-8.87
				c8.09-0.99,16.14-0.99,23.95-0.17c1.74,2.84-0.5,3.34-1.69,4.33c-1.56,1.29-4.18,2.26-3.04,4.81c1.43,3.2,4.34,1.83,6.46,0.92
				c16.17-6.95,33.23-8.58,50.58-9.56c8.04-0.45,16.02-3.35,23.07-7.54c13.33-7.93,27.55-9.81,42.87-9.23
				c7.67,0.29,12.08,4.95,17.7,7.99c18.6,10.08,36.98,20.59,57.25,31.94c-10.1,1.6-17.58,4.86-23.32,11.14
				c-1.57,1.72-4,3.67-1.41,6.25c1.93,1.93,3.93,0.59,5.67-0.67c12.73-9.23,26.17-9.87,41.32-6.02
				C514.47,791.85,536.38,788.27,557.92,789.32z M441.07,784.41c-1.3-5.67-5.33-7.28-9.29-8.43c-13.82-4.02-27.12-2.6-39.64,4.68
				c-2.01,1.17-5.37,2.28-3.93,5.21c1.81,3.69,4.8,1.13,7.17,0.02c11.71-5.48,23.63-6.27,35.86-1.9
				C434.22,785.06,437.27,785.99,441.07,784.41z"/>
			<path class="st1" d="M85.75,677.06c-8.45,5.69-15.56,12.45-20.82,21.44c-6.72,11.46-5.35,21.04,5.39,29.11
				c4.09,3.07,8.94,5.33,11.18,10.39c-3.62,1.35-7.34,2.49-10.81,4.14c-2.31,1.1-6.3,2.04-4.64,5.64c1.32,2.86,4.27,0.75,6.52,0.01
				c5.67-1.87,11.3-4.07,17.48-2.86c-0.42,4.43-2.46,8.15-5.77,10.91c-6.46,5.38-4.28,8.77,1.76,12.7
				c13.89,9.03,16.79,22.28,13.72,37.77c-2.84,14.34-11.43,27.37-9.75,42.72c-15.86-0.31-29.59-6.89-42-15.76
				c-14.71-10.5-15.45-25.93-11.92-42c0.98-4.46,3.01-8.68,4.19-13.11c3.37-12.63-0.69-19.4-13.27-22.53
				c-23.9-5.95-32.52-23.83-22.02-46.7c10.84-23.62,27.92-39.59,54.93-42.6C66.53,674.72,77.54,672.54,85.75,677.06z"/>
			<path class="st3" d="M424.2,503.35c-42.46,0.45-84.1-5.87-125.38-15.2c10.2-40.24,24.02-78.98,46.52-114.25
				c3.18-4.98,5.71-7.27,12.48-5.66c17.51,4.16,35.31,7.18,53.35,8.32c4.24,0.34,8.48,0.69,12.73,1.03
				c3.47,1.25,7.04,1.63,10.69,1.13c5.66,0.32,11.31,0.64,16.97,0.96c7.05,1.25,14.14,1.9,21.3,1.36c3.54,0.1,7.08,0.19,10.62,0.29
				c2.13,0.05,4.26,0.11,6.4,0.16c25.52,1.29,51.03,1.46,76.55,0c1.42-0.03,2.85-0.07,4.27-0.1c3.54-0.12,7.07-0.25,10.61-0.37
				c4.92,1.14,10.02-1.41,14.89,0.74c1.22,16.53,2.27,33.07,3.73,49.57c0.55,6.27-0.36,9.29-7.98,9.71
				c-45.27,2.53-86.69,15.38-120.63,47.09C454.33,489.25,439.46,496.92,424.2,503.35z"/>
			<path class="st3" d="M289.91,638.37c-37.26-5.05-73-15.96-108.51-27.84c-8.74-2.92-2.33-9.62-4.03-14.25
				c6.93-40.63,15.99-80.7,31.65-119.01c1.63-2.69,3.38-3.63,6.88-2.45c50.38,17,102.02,28.53,155.96,34.67
				c-3.41,8.93-6.53,17.09-9.65,25.26c-1.68,1.03-2.32,2.49-1.8,4.42c0,0,0.07-0.05,0.07-0.05c-14.12,2.81-20.7,15.21-29.73,24.11
				C309.67,584.03,298.19,610.43,289.91,638.37z"/>
			<path class="st4" d="M823.78,467.12c-7.02-2.87-14.04-5.74-21.07-8.62c12.7,10.38,27.68,16.97,40.06,27.69
				c-9.54-1.12-17.03-8.12-28.16-9.61c5.12,7.41,12.83,8.48,19.29,13.63c-20.78,8.7-41.76,12.86-62.69,17.21
				c-3.45,0.72-5.07-1.91-7.01-3.87c-40.63-41.03-90.39-60.99-147.59-62.94c-8.82-0.3-10.41-3.41-10.04-11.09
				c0.62-12.75-0.78-25.46-2.98-38.02c-0.64-3.63-1.1-6.48,3.33-7.57c0,0-0.23-0.12-0.23-0.12c-2.07,1.94-0.09,3.53,1.02,4.03
				c11.84,5.34,22.65,13.2,35.87,15.19c2.51,0.38,5.81,4.27,7.31,0.91c2.09-4.69-4.34-2.89-5.8-5.34c-0.59-3.96-1.43-7.73-6.41-8.32
				c-6.2-3.19-12.4-6.39-21.69-11.17c52.93-4.43,102.28-12.49,151.49-21.51c0.86,2.65,1.12,5.73,2.65,7.89
				c19.49,27.43,34.01,57.6,49,87.53C822.4,457.53,824.36,461.96,823.78,467.12z"/>
			<path class="st4" d="M491.13,295.25c3.94-14.19,13.06-16.54,27.03-14.98c33.58,3.76,67.27,1.77,100.64-3.54
				c5.35-0.85,8.45,0.32,11.86,4.16c19.86,22.31,37.01,46.44,51.29,72.71c4.18,7.69,3.02,9.7-5.43,10.75
				c-35.17,4.38-70.44,7.57-105.81,9.65c-29.08,0-58.15,0.01-87.23,0.01c-3.54-0.12-7.08-0.24-10.62-0.36
				c-1.42-0.05-2.85-0.09-4.27-0.14c-1.38-0.11-2.76-0.21-4.14-0.32c-1.18-3.66,0.69-6.83,1.63-10.14
				C472.7,339.82,481.61,317.42,491.13,295.25z"/>
			<path class="st5" d="M317.28,307.26c26.44-25.86,59.55-38.47,94.48-47.55c3.26-0.85,6-0.82,9.18,0.44
				c19.44,7.78,39.52,13.49,60.28,16.1c8.37,1.05,10.03,3.87,6.18,10.86c-10.76,18.17-16.29,38.5-23.38,58.2
				c-7.01-3.69-7.65-13.16-16.04-15.22c1.57,12.74,19.9,19.12,10.62,35.71c-8.97-14.39-17.5-28.09-26.03-41.79
				c0.65,11.71,6.44,20.86,11.74,30.29c3.55,6.31,9.78,11.04,11.01,18.69c-0.53-0.28-1.04-0.25-1.54,0.08
				c-1.48-0.51-2.96-1.02-4.44-1.53c-0.74-0.83-1.48-1.66-2.21-2.48c-4.68-7.49-9.37-14.98-14.05-22.47
				c-1.31,9.28,2.42,16.24,8.25,22.33c-4.45,5.24-10.29,0.33-15.22,2.09c-3.56-0.42-7.13-0.84-10.69-1.27
				c-3.52-0.29-7.04-0.58-10.56-0.87c-12.53-2.07-25.11-3.94-37.59-6.26c-26.01-4.83-51.63-11.11-76.75-21.56
				C298.47,328.26,308.17,317.99,317.28,307.26z"/>
			<path class="st5" d="M294.1,485.76c-12.32-6.74-19.73-19.04-30.54-27.62c4.5,9.28,10.74,17.01,17.17,24.9
				c-16.23-1.24-22.42-15.54-32.12-26.36c-0.07,6.75-0.07,6.75,9.27,21.52c-23.45-6.18-45.09-12.73-65.93-21.86
				c15.87-33.59,35.62-64.59,59.5-93.19c6.65-7.96,16.19-13.81,19.66-24.36c23.17,10.39,46.62,20.04,72.07,26.27
				c-10.84,17.27-20.89,33.88-28.7,51.7c-7.95,18.15-15.03,36.58-17.8,56.36c-0.71,0.63-1.42,1.25-2.12,1.88
				c-8.25-7.73-14.68-17.03-21.82-25.78c2.32,12.33,8.58,21.74,19.44,27.84c0.84,0.75,1.68,1.5,2.53,2.25
				C294.49,481.47,294.29,483.61,294.1,485.76z"/>
			<path class="st6" d="M482.09,665.79c-7.57-6.65-13.76-14.93-25.4-21.4c6.56,12.86,18.18,18.49,23.69,31.32
				c-15.7-4.92-29.05-10.8-42.26-17.05c-26.32-12.45-26.13-12.43-21.27-41.1c6.01-35.45,19.69-67.61,40.12-97.12
				c3.7-5.34,6.69-6.14,12.82-3.48c17.5,7.58,35.44,14.15,53.2,21.14c3.11,1.22,7.77,1.54,3.72,6.83
				c-24.71,32.26-35.43,69.46-38.61,109.32c-0.03,0.33-0.28,0.64-0.55,1.23c-5.42-0.29-6.57-7.02-12.28-8.02
				c0.44,7,6.8,10.43,8.96,16.03C483.52,664.26,482.8,665.02,482.09,665.79z"/>
			<path class="st7" d="M285.67,647.49c37.14,5.52,74.39,9.51,112.02,8.35c4.33-0.13,5.48,1.35,5.37,5.39
				c-0.51,20.33-0.53,40.65,1.72,62.94c-9.05-7.45-16.48-13.57-23.9-19.68c2.47,10.11,11.6,14.34,18.5,24.57
				c-19.05-5.59-28.94-21.48-45.82-25.84c8.87,7.56,17.75,15.12,26.76,22.8c-8.02,2.4-7.95,2.31-16.23-4.07
				c-4.99-3.85-10.21-7.38-17.57-12.66c3.79,10.96,12.32,13.95,17.97,20.52c-13.05,6.96-25.33,15.21-41.09,15.19
				c-0.14-3.07,4.48-4.45,2.19-7.4c-2.17-2.8-5.24-1.46-7.84-0.67c-4.39,1.34-9.16,2.29-12.91,4.74c-11.26,7.35-22.6,5.9-34.23,1.65
				c-0.48-2.38-1.54-4.8-1.36-7.13C271.7,706.06,276.69,676.4,285.67,647.49z"/>
			<path class="st8" d="M144.14,603.86c33.59,14.11,67.49,27.33,103.24,35.06c4.9,1.06,4.87,3.74,4.2,7.72
				c-4.93,29.19-2.73,58.44-0.85,88.6c-11.97-6.74-19.92-17.78-30.26-26.13c5.66,12.17,15.26,20.94,24.27,30.21
				c-0.64,0.59-1.29,1.17-1.93,1.76c-7.98-3.07-13.35-9.73-20.12-14.71c1.53,8.47,8.29,12.84,15.86,19.8
				c-12.67,0.28-17.9-8.95-25.68-12.72c-8.24-4-16.23-8.6-25.02-11.24c-9.09-2.73-18.41-4.68-27.63-6.97
				c-4.91-28.22-9.96-56.43-8.41-85.29c4.21,1.76,6.57,7,13.23,6.91c-7.6-11.35-18-19.55-21.98-31.97
				C143.43,604.56,143.79,604.21,144.14,603.86z"/>
			<path class="st5" d="M656.62,549.18c-9.26-4.74-18.51-9.49-27.77-14.23c-0.55,0.85-1.1,1.69-1.65,2.54
				c12.1,7.67,24.21,15.35,37.47,23.76c-9.73,2.02-18.5,3.36-26.99,5.71c-14.11,3.9-27.17,10.21-38.17,20.03
				c-3.89,3.48-6.23,4.22-10.14-0.17c-13.65-15.29-27.17-30.74-42.74-44.17c-3.51-3.03-2.39-4.97,0.19-7.62
				c32.67-33.6,72.3-50.95,119.31-51.39c4.98-0.05,5.47,1.75,5.29,6.25c-0.61,15.88-0.89,31.78-0.68,47.67
				c0.1,7.04-0.32,11.7-8.81,7.02c-2.7-1.49-2.79,0.51-3.36,2.08C657.92,547.49,657.27,548.33,656.62,549.18z"/>
			<path class="st5" d="M539.87,543.59c13.97,17.66,29.82,33.22,45.44,48.99c2.34,2.36,4.2,4.23,1.41,7.89
				c-15.58,20.42-20.91,44.44-23.21,69.29c-0.64,6.89-2.6,8.71-10.02,8.89c-17.11,0.41-34.42-2.55-51.39,2.23
				c-4.2,1.19-8.3-0.22-7.77-5.65C498.95,627.93,505.85,581.38,539.87,543.59z"/>
			<path class="st6" d="M348.59,642.94c5.13-38.34,10.19-76.69,24.19-113.14c0.49-1.28,1.18-2.48,1.78-3.72
				c8.17-4.48,16.33-8.96,24.5-13.44c16.46,0.82,32.89,2.23,49.37,1.07c0.44,3.43-1.72,5.08-3.03,7.05
				c-23.77,35.73-37.06,75.1-40.47,117.73c-0.56,6.96-2.8,8.75-9.56,8.52c-15.5-0.53-31.07,0.99-46.5-1.75
				C348.78,644.5,348.68,643.72,348.59,642.94z"/>
			<path class="st9" d="M672.85,789.26c-6.76,8.57-16.88,12.22-25.59,6.26c-16.89-11.55-31.71-13.54-49.85-1.05
				c-12.08,8.31-26.89,5.33-29.14-7.92c2.67-13.96,2.51-28.11,2.34-42.21c-0.07-5.85,1.62-7.79,7.64-8.19
				c18.01-1.22,35.26,0.64,51.68,8.72c3.51,1.73,8.54,5.49,11.55,1.44c2.76-3.72-3.86-5.6-6.11-10.05
				c13.78-0.69,26.1-1.12,34.83,10.99c2.86,3.97,7.75,4.79,11.98,6.31c23.29,8.39,46.12,17.87,68.36,28.73
				c-5.66,2.49-11.32,4.99-16.99,7.48c-6.08-5.65-12.9-10.33-21.37-10.56c-5.71-0.16-9.88-2.18-14.18-5.61
				c-7.42-5.91-16.5-7.82-25.73-8.88c-2.45-0.28-5.54-0.52-5.8,2.8c-0.21,2.66,2.66,2.61,4.69,3.18c5.43,1.54,10.92,2.97,16.13,5.09
				c2.57,1.04,7.63,2.1,6.03,5.76c-3.87,8.9,3.25,5.55,6.02,5.58c8.95,0.11,17.68,0.49,25.2,6.18c-14.04,2.41-27.8-1.81-41.74-1.86
				c-1.88-0.01-3.21-1.2-4.1-2.83c-5.52-14.27-29.25-21.42-42.39-12.81c-1.5,0.98-3.33,1.97-2.78,3.97
				c0.77,2.78,3.06,2.43,5.17,1.63C651.88,776.39,662.93,780.38,672.85,789.26z"/>
			<path class="st6" d="M677.1,657.15c24.99,11.27,49.31,18.65,73.35,26.83c2.62,0.89,5.44,1.67,5.43,5.47
				c-0.07,16.77-0.03,33.53-0.03,50.51c-5.04-1.07-4.23-7.89-9.92-7.69c1.32,10.29,11.64,17.26,9.42,29.41
				c-8.33-9.34-10.34-21.75-19.3-29.54c3.18,13.87,9.51,26.39,17.23,40.44c-23.08-11.44-44.81-19.31-66.99-25.91
				c-6.24-1.86-9.47-4.09-9.35-11.35C677.37,709.89,677.1,684.43,677.1,657.15z"/>
			<path class="st4" d="M866.38,630.47c-3.8,1.17-7.56,3.2-11.4,3.35c-8.45,0.32-18.14,6.4-24.66,1.78
				c-5.95-4.22-3.8-14.94-5.42-22.74c-8.51-40.97-18.39-60.71-50.44-98.97c21.69-2.25,41.97-7.35,62.08-13.15
				c3.39,3.16,5.15,6.93,6.68,11.48C856.14,550.64,861.2,590.56,866.38,630.47z"/>
			<path class="st6" d="M487.49,773.43c-22.61-13.98-46.75-26.44-70.98-38.7c-3.15-1.59-4.94-3.43-4.9-7.22
				c0.24-23.62-0.88-47.27,1.43-71.92c17.27,8.37,33.4,17.02,50.39,23.88c7.95,3.21,19.52,2.11,23.2,9.96
				c3.27,6.98,0.84,16.64,0.85,25.11C487.51,733.94,487.49,753.34,487.49,773.43z"/>
			<path class="st5" d="M548.34,772.42c-3.22-1.2-4.78-5.14-9.37-5.35c0.32,5.33,5.75,6.82,8.14,12.33
				c-12.74,0-24.83-0.33-36.88,0.09c-13.27,0.45-13.15,0.75-13.28-12.98c-0.23-25.08-0.49-50.17-0.99-75.25
				c-0.11-5.59,0.57-7.58,7.37-7.12c17.26,1.18,34.62,0.94,51.95,1.18c3.47,0.05,6.9-1.2,6.97,4.73c0.3,26.84,1.02,53.68,1.53,80.52
				c0.01,0.5-0.7,1.01-2.93,4.06c-7.92-9.25-15.56-18.17-23.2-27.1c-0.87,0.81-1.73,1.61-2.6,2.42
				c2.73,8.17,10.89,12.54,15.19,19.61C549.62,770.52,548.98,771.47,548.34,772.42z"/>
			<path class="st5" d="M766.22,562.29c2.28,4.72,8.19,5.31,10.36,8.76c-9.63,9.97-19.14,19.81-29.27,30.3
				c-10.05-16.39-24.49-27.87-42.99-33.93c-6.67-2.19-13.34-4.51-20.72-3.21c-7.27,1.27-10.15-2.67-8.17-9.28
				c3.32-11.1,1.71-21.83,0.2-33.01c-1.51-11.15-0.34-22.66-0.35-34.01c3.77,0.29,7.56-0.56,11.13,2
				c20.9,14.95,39.67,32.26,57.31,50.85c1.71,1.8,3.73,3.62,3.32,6.29c-1.54,9.92,4.92,9.67,11.56,9.3
				c2.16,2.55,3.51,6.17,7.79,5.96L766.22,562.29z"/>
			<path class="st10" d="M866.38,630.47c-5.18-39.91-10.24-79.82-23.15-118.26c-1.53-4.55-3.29-8.32-6.68-11.48
				c9.87-4.52,20.05-8.49,29.49-13.77c6.5-3.64,7.42-0.18,9.08,4.5c9.19,25.96,16.09,52.52,20.96,79.6
				c1.83,10.19,4.79,20.3,4.08,32.67c-9.85-8.99-17.52-18.95-32.73-20.76c10.61,9.28,21.53,14.91,28.34,25.03
				c-0.81,0.53-1.62,1.06-2.43,1.59c-4.78-1.43-7.86-6.83-14.75-6.32c3.88,7.06,11.54,8.98,15.76,15.21
				C884.7,622.69,876.29,628.24,866.38,630.47z"/>
			<path class="st5" d="M492.12,484.04c57.11-38.45,100.49-45.45,158.7-9.26c-30.27,2.68-56.87,13.01-81.59,28.5
				C542.98,499.03,518.49,487.77,492.12,484.04z"/>
			<path class="st11" d="M677.6,597.74c6.76,4.94,13.52,9.87,21.73,15.87c-0.67-7.49-7.29-8.03-9.21-13.76
				c12.8,3.6,24.74,9.21,36.92,9.81c15.63,0.77,19.14,10.19,21.92,21.92c3.42,14.46,5.29,29.12,6.22,45.42
				c-11.3-4.18-21.65-8.21-32.14-11.84c-13.04-4.51-26.13-8.88-39.34-12.86c-4.2-1.27-6.93-2.41-6.75-7.54
				c0.44-12.4-1.58-24.6-4.72-39.13c9.14,7.61,16.6,13.83,24.06,20.04c-4.18-11.41-13.88-17.51-21.12-25.81
				C675.97,599.15,676.79,598.45,677.6,597.74z"/>
			<path class="st4" d="M757.84,349.92c-18.75,5.09-38.04,7.22-57.1,10.69c-4.59,0.83-6.97-0.56-8.99-4.81
				c-13.87-29.22-32.87-54.89-55.09-78.27c4.44-3.29,7.97,0.52,11.53,1.87c8.86,3.36,17.6,7.13,26.16,11.2
				C705.67,305.45,735.04,323.08,757.84,349.92z"/>
			<path class="st11" d="M289.91,638.37c8.28-27.94,19.76-54.34,40.83-75.14c9.02-8.9,15.61-21.3,29.73-24.11
				c-4.7,22.57-11.1,44.78-14.14,67.69c-0.55,4.15-0.77,8.34-1.14,12.51c-8.93-0.39-9.18-10.2-16.06-14.97
				c1.09,8.55,5.08,13.7,10.85,17.81c4.6,3.14,4.13,7.33,2.59,12.61c-2.9-2.32-5.28-4.24-7.67-6.15c-1.32-1.52-3.03-2.04-3.87,0.03
				c-1.25,3.09,1.35,4.73,3.32,6.46c1.83,3.98,5.89,5.4,9.05,7.85c-0.09,0.71-0.18,1.43-0.27,2.14
				c-11.9-2.42-18.76-11.59-26.5-19.62c-2.52-2.61-3.33-6.87-9.42-8.99c4.39,11.09,11.02,18.43,19.56,26.59
				C312.98,643.01,301.4,641.07,289.91,638.37z M326.67,619.89c-1.81-6.31-3.67-12.59-9.1-17.17
				C318.94,609.24,319.12,616.33,326.67,619.89z"/>
			<path class="st12" d="M870.57,719.4c-11.3-2.31-21.75,1.25-32.09,4.92c-5.43,1.93-7.56,1.16-7.6-5.17
				c-0.16-23.69-0.65-47.39-1.3-71.08c-0.12-4.31,1.33-5.52,5.35-5.47c10.65,0.13,20.94-2.59,31.34-4.43
				c4.11,12.92,2.62,26.52,3.54,39.65C870.76,691.5,874.24,705.52,870.57,719.4z"/>
			<path class="st10" d="M774.85,586.07c3.6-3.36,7.1-6.82,10.81-10.06c13.75-11.98,13.86-11.98,19.96,4.77
				c10.89,29.86,14.1,60.96,14.82,92.47c0.11,4.71-0.78,7.19-6.39,6.55c-7.34-0.84-14.78-0.85-22.18-1.21
				C793.62,646.38,787.2,615.68,774.85,586.07z"/>
			<path class="st10" d="M757.84,349.92c-22.79-26.84-52.17-44.47-83.48-59.33c-8.57-4.06-17.3-7.83-26.16-11.2
				c-3.56-1.35-7.09-5.16-11.53-1.87c-1.73-0.94-3.21-2.88-0.77-3.63c10.45-3.2,21.04-5.99,31.68-8.55
				c1.75-0.42,4.04,0.93,5.97,1.74c41.94,17.7,77.84,43.97,110.62,77.71C774.67,347.35,766.43,349.35,757.84,349.92z"/>
			<path class="st12" d="M587.1,260.52c2.28,4.13,8.49,3.43,10.96,10.11c-15.93-3.66-28.08-15.18-46.63-15.81
				c10.82,6.6,21.37,7.91,30.74,15.97c-51.57,3.66-100.49-0.9-149.77-14.58c20.41-7.47,85.83-14.19,117.03-12.36
				c2.88,3.59,7.39,3.85,11.25,5.37C569.61,252.72,579.63,253.64,587.1,260.52z"/>
			<path class="st10" d="M758.61,556.37c-6.64,0.37-13.1,0.62-11.56-9.3c0.41-2.67-1.6-4.49-3.32-6.29
				c-17.64-18.59-36.41-35.9-57.31-50.85c-3.57-2.56-7.36-1.71-11.13-2c-0.77-5,2.7-3.86,5.36-3.57
				c47.06,5.06,84.41,26.24,110.2,66.44c1.88,2.94,5.54,5.73,0.99,9.98c-3.99,3.72-6.69,2.01-9.94-0.54
				c-2.5-1.96-5.28-3.34-9.17-1.59c2.06,1.59,3.87,2.99,5.68,4.39c-0.68,0.65-1.35,1.31-2.03,1.96c-3.64,0.04-5.63-6.11-10.17-2.71
				c0,0,0.18,0.05,0.18,0.05c1.48-3.39-0.92-3.66-3.15-3.63C761.18,558.74,759.3,558.89,758.61,556.37z"/>
			<path class="st8" d="M173.33,596.26c-0.32,3.09-0.65,6.19-1.13,10.8c-6.39-2.52-12.32-4.85-18.24-7.18
				c-0.25-34.27,8.85-66.8,19.54-98.82c4.06-12.15,6.85-25.22,15.43-35.57c5.12,2.89,12.78,1.13,15.45,8.48
				C186.23,512.76,175.07,553.32,173.33,596.26z"/>
			<path class="st13" d="M791.86,687.92c4.23-0.12,8.5,0.04,12.7-0.41c16.28-1.75,16.33-1.82,16.38,14.95
				c0.06,19.67,0.02,39.34,0.02,62c-6.66-7.84-11.17-13.15-15.68-18.47c1.68,12.04,10.15,20.1,14.71,30.14
				c-7.29-2.36-8.5-10.34-15.69-13.69c-0.11,6.77,5.69,10.02,7.42,16.06c-8.41,0-16.25,0-24.09,0c0.7-4.14,2.06-8.29,2-12.42
				C789.25,739.99,793.43,714.04,791.86,687.92z M805.56,763.52c-0.68-4.14-1.49-6.4-4.76-7.06
				C799.41,760.3,801.15,761.92,805.56,763.52z"/>
			<path class="st5" d="M774.85,586.07c12.35,29.62,18.77,60.32,17.02,92.52c-8.32,0.51-18.91,4.27-24.27,0.54
				c-4.44-3.1-2.6-15.03-3.75-23.02c-2.17-15.03-4.34-30.12-10.98-44c-1.86-3.89-1.61-6.35,1.75-9.05
				C761.49,597.54,768.13,591.75,774.85,586.07z"/>
			<path class="st11" d="M492.12,484.04c26.37,3.73,50.86,14.99,77.11,19.23c-0.21,0.29-0.37,0.62-0.63,0.86
				c-10.39,9.34-20.77,18.76-36.13,6.45c1.97,7.66,9.8,7.09,14.39,14.37c-14.43-2.71-24.81-11.84-38.26-9.46
				c7.85,3.43,15.75,6.72,23.5,10.36c2.26,1.06,6.65,1.47,5.55,4.93c-1.39,4.35-5.31,2.14-8.11,1.04
				c-20.4-8.01-40.89-15.77-63.09-22.65C474.1,499,482.34,490.78,492.12,484.04z"/>
			<path class="st14" d="M294.1,485.76c0.2-2.15,0.4-4.29,0.59-6.44c4.45-0.86,4.71-3.05,1.98-6.19
				c2.77-19.78,9.85-38.21,17.8-56.36c7.81-17.82,17.86-34.43,28.7-51.7c-25.45-6.24-48.9-15.88-72.07-26.27
				c0.04-0.54-0.07-1.04-0.33-1.51c0.26-1.21,0.51-2.41,0.77-3.62c10.3,7.11,17.32,4.64,21.78-7c1.21-3.15,4.04-5.66,5.91-8.6
				c1.77-2.81,5.68-4.89,3.5-9.22c3.59-12.14,9.2-5.74,14.57-1.58c-9.11,10.73-18.81,21-26.77,33.78
				c25.12,10.45,50.73,16.72,76.75,21.56c12.49,2.32,25.06,4.19,37.59,6.26c-3.58,7.22,7.51,2.44,6.32,7.71
				c-18.04-1.14-35.84-4.17-53.35-8.32c-6.77-1.61-9.31,0.68-12.48,5.66c-22.5,35.27-36.32,74.01-46.52,114.25
				C297.24,487.36,295.67,486.56,294.1,485.76z"/>
			<path class="st6" d="M188.92,465.49c-8.58,10.35-11.37,23.42-15.43,35.57c-10.69,32.02-19.79,64.55-19.54,98.82
				c-22.12-9.21-19.1-2.81-15.33-27.42c5.09-33.26,14.1-65.5,26.4-96.82C171.81,458.35,171.88,458.38,188.92,465.49z"/>
			<path class="st12" d="M791.86,687.92c1.57,26.11-2.61,52.07-2.24,78.16c0.06,4.13-1.3,8.28-2,12.42
				c-7.3,0.08-16.48,4.99-21.11,0.76c-3.36-3.07-0.22-13.11-0.18-20.04c0.13-22.17,0.44-44.35,0.06-66.51
				c-0.11-6.43,1.94-7.95,7.74-6.99C780.01,686.7,785.95,687.21,791.86,687.92z"/>
			<path class="st13" d="M778.08,355.99c9.17-4.48,14.79-2.56,20.76,4.58c27.4,32.7,50.35,68.05,67.23,107.28
				c2.4,5.57,3.42,8.81-3.94,11.84c-7.4,3.05-8.77-0.19-11.11-5.68C832.84,431.27,809.91,391.4,778.08,355.99z"/>
			<path class="st11" d="M270.76,337.28c0.26,0.47,0.37,0.97,0.33,1.51c-3.46,10.55-13.01,16.4-19.66,24.36
				c-23.87,28.59-43.63,59.6-59.5,93.19c-20.59-6.53-16.62-4.6-8.51-20.11c19.06-36.43,44.69-67.76,75.49-94.94
				C262.32,338.3,265.36,334.34,270.76,337.28z"/>
			<path class="st11" d="M151.81,629.96c-1.55,28.86,3.5,57.06,8.41,85.28c-13.3,2.34-24.01-4.05-27.08-24.06
				c-1.8-11.74-1.35-23.84-1.6-35.79c-0.23-11.18-0.05-22.37-0.05-33.1c4.59-1.39,4.2,3.45,7.05,2.79
				c1.56-7.47-8.64-13.77-2.13-21.71c-0.17,0.57-0.02,1.02,0.46,1.37C139.21,614.72,146.05,622.02,151.81,629.96z"/>
			<path class="st8" d="M285.67,647.49c-8.99,28.91-13.97,58.58-16.41,88.69c-0.19,2.32,0.88,4.75,1.36,7.13
				c-10.83,2.07-14.23-1.85-14.49-13.27c-0.63-27.19,0.4-54.25,2.13-81.35c0.33-5.12,1.51-7.02,6.76-5.72
				C271.85,644.67,278.78,646,285.67,647.49z"/>
			<path class="st10" d="M870.57,719.4c3.67-13.88,0.19-27.9-0.76-41.57c-0.91-13.14,0.57-26.74-3.54-39.65
				c17.79-6.77,17.37-6.73,19.3,12.35c1.98,19.61,2.57,39.21,2.19,58.88C887.46,724.3,884.98,725.77,870.57,719.4z"/>
			<path class="st13" d="M823.78,467.12c0.58-5.16-1.38-9.59-3.64-14.09c-14.99-29.93-29.52-60.1-49-87.53
				c-1.54-2.17-1.8-5.24-2.65-7.89c1.96-0.93,3.29-0.11,4.47,1.46c26.42,35.06,52.04,70.61,68.46,111.78
				c0.77,1.94,2.12,3.76,0.47,6.51C835.87,473.96,829.82,470.54,823.78,467.12z"/>
			<path class="st13" d="M587.1,260.52c-7.47-6.88-17.49-7.8-26.41-11.31c-3.86-1.52-8.37-1.78-11.25-5.37
				c34.78-0.73,68.63,4.33,103.91,15.68c-15.7,4.38-29.31,6.33-42.9,8.47c-3.65,0.57-6.02-0.85-8.71-2.58
				C597.3,262.56,592.88,259.47,587.1,260.52z"/>
			<path class="st13" d="M895.92,689.7c0.65-17.74-0.42-35.43-5.57-52.44c-2.89-9.53,4.8-10.57,9.37-11.96
				c7.39-2.25,4.72,5.13,5.07,8.27c2.38,21.4,5.09,42.8,4.21,64.43c-0.23,5.74-1.76,11.13-3.99,16.37c-1.43,3.38-4.5,3.23-7.21,2.77
				c-3.05-0.51-1.8-3.3-1.83-5.17C895.86,704.54,895.92,697.12,895.92,689.7z"/>
			<path class="st14" d="M455.31,372.99c-1.23-7.64-7.46-12.38-11.01-18.69c-5.31-9.43-11.09-18.58-11.74-30.29
				c8.53,13.7,17.07,27.39,26.03,41.79c9.28-16.59-9.05-22.97-10.62-35.71c8.39,2.07,9.03,11.53,16.04,15.22
				c7.09-19.7,12.62-40.04,23.38-58.2c0.38,3.11,0.13,6.51,3.74,8.14c-9.52,22.17-18.43,44.57-25.06,67.81
				c-0.95,3.31-2.81,6.49-1.63,10.14C461.4,373.13,458.35,373.06,455.31,372.99z"/>
			<path class="st11" d="M651.08,574.08c37.38-5.69,70.28,5.34,81.79,28.03C705.11,592.99,675.83,594.74,651.08,574.08z"/>
			<path class="st14" d="M173.33,596.26c1.74-42.94,12.91-83.5,31.05-122.29c0.75,2.23,2.39,3.19,4.65,3.3
				c-15.66,38.32-24.72,78.38-31.65,119.01C176.02,596.27,174.67,596.27,173.33,596.26z"/>
			<path class="st13" d="M721.77,480.97c-35.98-2.98-67.33-11.28-97.29-29.38C659.77,451.53,690.32,462.55,721.77,480.97z"/>
			<path class="st14" d="M483.48,374.02c29.08,0,58.15-0.01,87.23-0.01c-0.01,2.46-0.01,4.93-0.02,7.39
				c-1.42,0.03-2.85,0.07-4.27,0.1c-0.67-4.47-4.11-4.02-7.25-4.02c-20.68-0.01-41.37-0.01-62.05,0c-3.14,0-6.57-0.44-7.25,4.03
				c-2.13-0.05-4.26-0.11-6.4-0.16C483.48,378.9,483.48,376.46,483.48,374.02z"/>
			<path class="st11" d="M424.2,503.35c15.27-6.43,30.13-14.1,47.12-15.2c-0.15,0.32-0.28,0.64-0.45,0.95
				C460.16,509.67,442.19,506.56,424.2,503.35z"/>
			<path class="st9" d="M302.71,308.84c2.18,4.33-1.72,6.42-3.5,9.22c-1.86,2.94-4.7,5.45-5.91,8.6c-4.46,11.64-11.47,14.11-21.78,7
				C278.96,321.69,291.47,316.05,302.71,308.84z"/>
			<path class="st12" d="M399.06,512.65c-8.17,4.48-16.33,8.96-24.5,13.44C378.64,508.95,378.64,508.95,399.06,512.65z"/>
			<path class="st9" d="M638.69,390.3c4.98,0.59,5.81,4.36,6.41,8.32c-2.08-0.6-4.59,0.05-6.1-2.16c0.11-0.3,0.23-0.6,0.34-0.89
				c-0.16,0.27-0.33,0.53-0.49,0.8c-11.53-2.09-21.07-9.3-32.15-12.53c0,0,0.23,0.12,0.23,0.12c-1.84-6.1,1.66-4.47,4.63-3.07
				c6.61,3.13,13.22,6.25,19.65,9.72C634,392.11,636.35,394.76,638.69,390.3z"/>
			<path class="st14" d="M339.98,622.15c-5.77-4.1-9.76-9.26-10.85-17.81c6.88,4.77,7.13,14.59,16.06,14.97
				C344.19,621.61,342.03,621.79,339.98,622.15z"/>
			<path class="st14" d="M596.19,381.77c-4.87-2.15-9.97,0.4-14.89-0.74C586.54,375.59,591.57,374.65,596.19,381.77z"/>
			<path class="st5" d="M658.57,546.64c4.1,2.8,8.2,5.6,12.3,8.39c-0.44,0.73-0.87,1.45-1.31,2.18c-4.31-2.68-8.62-5.36-12.93-8.04
				C657.27,548.33,657.92,547.49,658.57,546.64z"/>
			<path class="st10" d="M778.42,563.03c1.8,1.31,5.8,2.67,4.29,4.5c-2.33,2.82-4.41-0.92-6.31-2.53
				C777.07,564.34,777.74,563.68,778.42,563.03z"/>
			<path class="st6" d="M484.23,663.49c2.18,1.77,4.42,3.51,2.88,6.9c-2.87-0.32-3.62-2.82-5.02-4.61
				C482.8,665.02,483.52,664.26,484.23,663.49z"/>
			<path class="st14" d="M136.88,604.75c-0.48-0.35-0.63-0.81-0.46-1.37c1.23-2.3,2.65-3.42,4.7-0.78c0.2,0.67,0.25,1.35,0.16,2.04
				C139.82,604.68,138.35,604.71,136.88,604.75z"/>
			<path class="st14" d="M343.14,645.11c0.09-0.71,0.18-1.43,0.27-2.14c1.73-0.01,3.45-0.02,5.17-0.02c0.1,0.78,0.19,1.55,0.29,2.33
				C346.97,645.22,345.05,645.16,343.14,645.11z"/>
			<path class="st14" d="M334.36,635.11c-1.97-1.73-4.57-3.38-3.32-6.46c0.84-2.07,2.55-1.55,3.87-0.03
				C334.73,630.78,334.54,632.95,334.36,635.11z"/>
			<path class="st11" d="M675.16,599.86c-1.26-0.97-2.53-1.95-3.79-2.92c2.25-1.07,4.42-1.51,6.24,0.8
				C676.79,598.45,675.97,599.15,675.16,599.86z"/>
			<path class="st5" d="M554.37,773.98c1.42,1.16,4.51,2.24,2.4,4.26c-1.82,1.75-3.38-1.16-4.77-2.51
				C552.79,775.15,553.58,774.57,554.37,773.98z"/>
			<path class="st8" d="M244.74,739.32c1.11,0.98,3.76,1.83,2.54,3.32c-1.71,2.11-3.25-0.11-4.47-1.57
				C243.45,740.49,244.09,739.9,244.74,739.32z"/>
			<path class="st11" d="M360.4,539.17c-0.52-1.93,0.11-3.39,1.8-4.42C362.29,536.5,362.14,538.16,360.4,539.17z"/>
			<path class="st10" d="M899.23,612.37c0.25,0.82,0.82,2.29,0.7,2.35c-1.26,0.62-1.63-0.33-1.88-1.34
				C898.43,613.04,898.83,612.7,899.23,612.37z"/>
			<path class="st10" d="M897.2,609.6c0.68,0.93,1.35,1.85,2.03,2.77c-0.4,0.33-0.79,0.67-1.18,1.01c-0.78-0.64-1.56-1.27-2.34-1.91
				C896.2,610.85,896.7,610.23,897.2,609.6z"/>
			<path class="st10" d="M895.71,611.48c-0.79-0.63-1.58-1.26-2.37-1.89c0.81-0.53,1.62-1.06,2.43-1.59
				c0.48,0.53,0.95,1.06,1.43,1.6C896.7,610.23,896.2,610.85,895.71,611.48z"/>
			<path class="st8" d="M141.28,604.64c0.09-0.69,0.03-1.37-0.16-2.04c1,0.42,2.01,0.85,3.02,1.27c-0.35,0.34-0.71,0.69-1.07,1.03
				C142.44,605.04,141.85,604.96,141.28,604.64z"/>
			<path class="st5" d="M550.26,769.56c0.68,0.74,1.36,1.47,2.04,2.21c-0.59,0.87-1.18,1.74-1.77,2.61
				c-0.73-0.65-1.46-1.3-2.19-1.95C548.98,771.47,549.62,770.52,550.26,769.56z"/>
			<path class="st5" d="M552.3,771.77c0.69,0.74,1.38,1.47,2.07,2.21c-0.79,0.59-1.58,1.17-2.37,1.76c-0.63-0.3-1.12-0.76-1.46-1.37
				C551.12,773.51,551.71,772.64,552.3,771.77z"/>
			<path class="st14" d="M724.56,793.3c-7.52-5.68-16.25-6.07-25.2-6.18c-2.77-0.03-9.9,3.31-6.02-5.58
				c1.6-3.67-3.47-4.72-6.03-5.76c-5.21-2.11-10.7-3.55-16.13-5.09c-2.02-0.57-4.89-0.52-4.69-3.18c0.26-3.31,3.35-3.08,5.8-2.8
				c9.23,1.06,18.31,2.97,25.73,8.88c4.3,3.43,8.46,5.45,14.18,5.61c8.48,0.23,15.29,4.91,21.37,10.56
				C734.7,801.42,727.62,792.25,724.56,793.3z"/>
			<path class="st14" d="M672.85,789.26c-9.93-8.88-20.97-12.87-34.12-7.87c-2.12,0.81-4.4,1.15-5.17-1.63
				c-0.55-2,1.28-2.99,2.78-3.97c13.14-8.62,36.87-1.46,42.39,12.81C676.77,788.82,674.81,789.04,672.85,789.26z"/>
			<path class="st14" d="M90.04,744.92c-6.18-1.21-11.81,0.99-17.48,2.86c-2.25,0.74-5.2,2.85-6.52-0.01
				c-1.66-3.6,2.33-4.54,4.64-5.64c3.47-1.65,7.2-2.78,10.81-4.14c12.12-0.91,24.76-3.81,32.35,10.27c0.66,1.22,5.26,0.48,8.02,0.38
				c13.68-0.51,26.58,1.17,37.02,12.61c-4.06,3.09-7.14,0.45-10.06-0.55c-15.33-5.3-30.72-8.09-46.54-2.16
				c-1.98,0.74-4.3,1.91-5.45-0.73c-1.2-2.75,1.43-3.54,3.28-4.3c2.92-1.19,5.94-2.14,10.02-3.59
				C103.41,745.74,96.95,744.52,90.04,744.92z"/>
			<path class="st0" d="M441.07,784.41c-3.81,1.58-6.85,0.65-9.83-0.41c-12.23-4.36-24.15-3.57-35.86,1.9
				c-2.37,1.11-5.36,3.67-7.17-0.02c-1.44-2.93,1.92-4.04,3.93-5.21c12.52-7.28,25.82-8.7,39.64-4.68
				C435.74,777.13,439.77,778.74,441.07,784.41z"/>
			<path class="st0" d="M455.31,372.99c3.04,0.07,6.09,0.14,9.13,0.21c1.38,0.11,2.76,0.21,4.14,0.32
				c-0.65,4.54-4.16,3.78-7.24,4.01c-3.35,0.25-7.11-1.17-9.79,2.16c-5.66-0.32-11.31-0.64-16.97-0.96
				c-3.03-5.44-6.76-4.2-10.69-1.13c-4.24-0.34-8.48-0.69-12.73-1.03c1.19-5.26-9.9-0.49-6.32-7.71c3.52,0.29,7.04,0.58,10.56,0.87
				c2.94,5.63,6.71,4.32,10.69,1.27c4.93-1.76,10.77,3.15,15.22-2.09c1.93,0.05,3.87,0.1,5.8,0.15c0.74,0.83,1.48,1.66,2.21,2.48
				c0.69,2.79,1.62,4.89,4.44,1.53C454.27,372.74,454.78,372.71,455.31,372.99z"/>
			<path class="st0" d="M489.87,381.51c0.67-4.47,4.1-4.03,7.25-4.03c20.68-0.01,41.37-0.01,62.05,0c3.14,0,6.57-0.44,7.25,4.02
				C540.9,382.97,515.39,382.8,489.87,381.51z"/>
			<path class="st14" d="M451.55,379.69c2.68-3.34,6.44-1.91,9.79-2.16c3.08-0.23,6.6,0.53,7.24-4.01c1.42,0.05,2.85,0.09,4.27,0.14
				c0,2.46,0,4.93,0,7.39C465.69,381.59,458.61,380.94,451.55,379.69z"/>
			<path class="st0" d="M472.86,381.05c0-2.46,0-4.93,0-7.39c3.54,0.12,7.08,0.24,10.62,0.36c0,2.44,0,4.88,0,7.32
				C479.94,381.25,476.4,381.15,472.86,381.05z"/>
			<path class="st14" d="M423.89,377.6c3.93-3.07,7.67-4.31,10.69,1.13C430.93,379.24,427.37,378.86,423.89,377.6z"/>
			<path class="st0" d="M639,396.46c1.51,2.21,4.02,1.56,6.1,2.16c1.46,2.45,7.89,0.65,5.8,5.34c-1.5,3.36-4.8-0.53-7.31-0.91
				c-13.21-2-24.02-9.85-35.87-15.19c-1.11-0.5-3.09-2.09-1.02-4.03c11.09,3.23,20.62,10.44,32.15,12.53L639,396.46z"/>
			<path class="st14" d="M447.12,369.06c-1.93-0.05-3.87-0.1-5.8-0.15c-5.83-6.09-9.57-13.05-8.25-22.33
				C437.75,354.08,442.44,361.57,447.12,369.06z"/>
			<path class="st14" d="M426.1,371c-3.98,3.05-7.75,4.36-10.69-1.27C418.98,370.16,422.54,370.58,426.1,371z"/>
			<path class="st14" d="M453.77,373.07c-2.81,3.36-3.74,1.26-4.44-1.53C450.81,372.05,452.29,372.56,453.77,373.07z"/>
			<path class="st14" d="M292.16,477.07c-10.86-6.11-17.12-15.51-19.44-27.84c7.14,8.75,13.57,18.05,21.82,25.78
				C293.75,475.69,292.95,476.38,292.16,477.07z"/>
			<path class="st0" d="M292.16,477.07c0.79-0.69,1.58-1.37,2.38-2.06c0.71-0.63,1.42-1.25,2.12-1.88c2.74,3.14,2.47,5.33-1.98,6.19
				C293.85,478.57,293,477.82,292.16,477.07z"/>
			<path class="st0" d="M141.28,604.64c0.56,0.32,1.16,0.4,1.78,0.25c3.98,12.42,14.37,20.62,21.98,31.97
				c-6.66,0.09-9.02-5.15-13.23-6.91c-5.76-7.94-12.61-15.24-14.93-25.21C138.35,604.71,139.82,604.68,141.28,604.64z"/>
			<path class="st0" d="M758.61,556.37c0.68,2.52,2.57,2.37,4.64,2.34c2.23-0.03,4.63,0.24,3.15,3.63
				C762.12,562.54,760.78,558.92,758.61,556.37z"/>
			<path class="st14" d="M326.67,619.89c-7.55-3.56-7.73-10.65-9.1-17.17C323,607.3,324.86,613.59,326.67,619.89z"/>
			<path class="st0" d="M805.56,763.52c-4.41-1.6-6.15-3.22-4.76-7.06C804.07,757.12,804.88,759.38,805.56,763.52z"/>
			<path class="st4" d="M638.85,396.36c0.16-0.27,0.33-0.53,0.49-0.8c-0.11,0.3-0.23,0.6-0.34,0.89
				C639,396.46,638.85,396.36,638.85,396.36z"/>
		</g>
	</g>
	<g>
		<g>
			<path class="st15" d="M517.73,297.86c-0.01-0.22,0.1-0.33,0.33-0.32c-5.99,0.38-11.97,0.75-17.96,1.13
				c0.11,0.09,0.22,0.17,0.33,0.26C506.19,298.57,511.96,298.21,517.73,297.86z"/>
			<path class="st16" d="M305.8,669.27c13.14,23.78,29.8,44.82,49.87,63.14c30.67,27.98,66.08,47.29,106.27,57.77
				c17.11,4.46,34.51,6.98,52.18,7.72c15.68,0.65,31.28-0.13,46.79-2.41c30.51-4.47,59.26-14.19,86.15-29.31
				c23.49-13.21,44.34-29.73,62.44-49.7c32.56-35.93,53.15-77.76,61.64-125.53c0.46-2.56,0.82-5.14,1.21-7.71
				c0.02-0.11,0.04-0.19,0.06-0.29c0.17-1.09,0.43-2.16,0.67-3.23c0.19-1.33,0.39-2.66,0.52-4c0.18-1.83,0.16-3.67,0.39-5.49
				c-0.08-0.27-0.1-0.59-0.05-1.03c0.31-3.03,0.45-6.08,0.59-9.13c0.04-0.98,0.3-1.79,0.89-2.6c17.07-23.57,13.67-54.86-8.08-74.26
				c-0.93-0.83-1.46-1.74-1.78-2.88c-12.6-44.62-35.83-82.81-69.5-114.63c-21.66-20.47-46.27-36.48-73.68-48.15
				c-22.88-9.73-46.69-15.89-71.43-18.45c-11.05-1.14-22.11-1.59-33.21-1.24c-5.77,0.36-11.53,0.71-17.3,1.07
				c-29.29,2.85-57.24,10.55-83.78,23.27c-32,15.34-59.53,36.53-82.48,63.56c-29.03,34.19-47.63,73.4-55.73,117.54
				c-2.9,15.8-4.15,31.75-3.91,47.82C275.14,593.1,285.49,632.52,305.8,669.27z M762.27,527.11c-5.54-1.33-10.1-4.21-12.4-9.79
				c-1.46-3.53-1.93-7.26-2.23-10.79c-0.25-3.94-0.58-7.64,0.43-11.3c0.8-2.9,2.58-4.83,5.5-5.67c0.54-0.15,1.05-0.28,1.61-0.02
				c5.27,2.42,9.77,5.64,12.04,11.28c1.71,4.24,2.8,8.63,3.25,13.17c0.34,3.5,0.55,7.01-1.79,10.04
				C767.06,526.14,764.89,527.74,762.27,527.11z M760.43,574.41c-8.63-0.5-17.26-1.02-25.89-1.51c-8.8-0.51-17.59-1.03-26.39-1.5
				c-9.24-0.49-18.49-0.91-27.73-1.38c-2.31-0.12-4.47-0.61-6.25-2.29c-3.54-3.34-4.2-10.4-1.27-14.28c0.91-1.2,2.12-1.91,3.61-2.18
				c2.13-0.38,4.19-0.04,6.25,0.47c16.93,4.24,33.75,8.89,50.5,13.83c9.4,2.77,18.77,5.66,28.15,8.49c0.01,0.1,0.01,0.2,0.02,0.29
				C761.09,574.37,760.76,574.43,760.43,574.41z M469.95,776.87c0.43-1.01,1-1.98,1.58-2.92c3.09-4.99,6.21-9.96,9.04-15.11
				c5.97-10.85,10.1-22.21,9.83-34.83c-0.04-1.7,1.05-2.47,2.79-1.95c8.33,2.51,16.87,3.93,25.49,4.88
				c9.01,0.99,18.01,2.32,27.14,1.23c4.26-0.51,8.54-1.08,12.79-1.5c7.47-0.74,14.86-1.63,22.02-3.86c5.81-1.8,11.48-4.02,16.4-7.73
				c3.78-2.85,5.54-6.62,5-11.42c-0.29-2.56-1.11-4.95-1.88-7.37c-4.81-15.03-12.74-28.24-23.22-39.99
				c-8.13-9.11-17.58-16.71-27.24-24.1c-21.34-16.31-40.01-35.16-54.83-57.72c-2.49-3.79-3.32-7.41-2.87-11.8
				c0.83-8.09,2.26-16.07,4.04-23.98c4.58-20.25,10.67-40.08,17.3-59.74c4.72-13.98,10.61-27.44,18.9-39.73
				c5.75-8.52,12.89-15.44,22.51-19.54c18.9-8.06,38.6-13.03,58.99-15.26c8.93-0.98,17.92-1.42,26.91-1.38
				c2.93,0.01,5.87,0.06,8.79,0.33c4.46,0.41,8.88,1.09,13.34,1.55c9.76,0.99,19.27,2.99,28.49,6.44
				c11.95,4.48,23.06,10.67,34.24,16.72c6.36,3.44,10.86,8.44,13.86,14.93c4.29,9.32,8.61,18.63,12.91,27.95
				c0.2,0.44,0.37,0.94,0.4,1.42c0.06,0.88-0.21,1.33-1.26,0.96c-2.03-0.71-4.08-1.36-6.15-1.93c-10.02-2.73-20.09-3.12-30.16-0.28
				c-8.58,2.42-15.93,7.04-22.45,13.04c-15.25,14.03-20.13,31.38-16.34,51.44c0.76,4.04,0.37,5.03-3.49,6.58
				c-4.43,1.77-7.79,4.71-9.41,9.26c-2.29,6.43-1.91,12.79,1.42,18.75c2.89,5.18,7.39,8.11,13.48,8.31
				c4.26,0.14,8.52,0.32,12.77,0.55c10.5,0.57,21,1.16,31.49,1.78c11.49,0.68,22.98,1.42,34.46,2.12c3.39,0.2,4.3,1.3,3.69,4.68
				c-3.6,19.96-9.29,39.3-17.42,57.91c-10.46,23.94-24.55,45.49-42.38,64.58c-17.49,18.73-37.54,34.2-59.69,47.01
				c-27.56,15.94-57.49,24.5-88.86,28.59c-6.77,0.88-13.59,1.25-19.43,1.56c-4.35,0.27-7.73,0.53-11.11,0.68
				c-3.28,0.15-6.46,0.18-9.83-0.5c-10.82-2.19-21.77-3.71-32.66-5.5c-2.56-0.42-5.18-0.51-7.66-1.3
				C469.61,780.03,469.1,778.86,469.95,776.87z M285.14,544.56c0.06-6.14,0.36-12.26,0.84-18.38c0.99-12.6,3.18-25,6.27-37.24
				c4.12-16.28,9.91-31.94,17.28-47.03c8.56-17.52,19.18-33.69,31.64-48.66c6.46-7.76,13.42-15.06,20.81-21.96
				c11.31-10.55,23.57-19.84,36.78-27.86c14.2-8.62,29.18-15.66,44.7-21.55c5.32-2.02,10.8-3.56,16.49-4.22
				c11.99-4.36,24.42-6.78,37.08-8.01c12.04-1.17,24.11-1.66,36.22-1.14c9.42,0.4,18.78,1.25,28.07,2.76
				c29.29,4.76,56.75,14.75,82.57,29.3c17.12,9.65,32.4,21.73,46.44,35.44c12.27,11.98,23.38,24.9,32.57,39.41
				c0.56,0.88,1.95,2.15,1.31,2.69c-0.89,0.75-2.39-0.05-3.53-0.67c-0.19-0.11-0.39-0.21-0.58-0.33
				c-9.07-5.56-18.71-9.89-28.77-13.29c-20.65-6.98-41.89-9.16-63.58-7.8c-14.91,0.93-29.66,2.96-44.19,6.5
				c-9.52,2.32-19,4.78-28,8.78c-9.95,4.42-18.39,10.88-25.4,19.18c-7.57,8.95-12.75,19.31-17.36,29.98
				c-5.92,13.71-10.2,27.98-14.47,42.26c-4.69,15.7-9.27,31.43-12.04,47.62c-0.55,3.19-1.17,6.37-1.83,9.93
				c-1.88-2.48-3.51-4.65-5.15-6.8c-1.57-2.07-3.15-2.27-5.27-0.71c-1.97,1.45-2.09,2.51-0.44,4.76
				c8.24,11.29,16.53,22.54,24.72,33.87c12.32,17.05,26.83,31.83,43.94,44.16c9.9,7.13,19.34,14.92,27.5,24.09
				c8.37,9.4,15.88,19.39,20.86,31.07c1.91,4.48,3.44,9.09,4.3,13.9c-0.18,2.85-1.72,4.83-4.08,6.25c-3.97,2.4-8.25,4.04-12.73,5.17
				c-8.32,2.1-16.83,3.26-25.29,4.48c-9.17,1.33-18.46,1.15-27.68,0.06c-5.92-0.7-11.83-1.59-17.72-2.52
				c-4.86-0.76-9.7-1.48-14.04-4.21c-14.83-9.31-29.75-18.49-44.62-27.73c-1.59-0.99-2.28-0.85-3.23,0.73
				c-0.46,0.76-0.95,1.5-1.42,2.25c-0.66,1.06-0.54,1.98,0.47,2.76c1.27,0.99,2.56,1.95,3.77,3c4.31,3.76,8.57,7.57,12.88,11.33
				c6.12,5.34,12.74,9.79,20.84,11.61c1.75,0.39,2.2,1.31,1.94,3.08c-0.37,2.57-0.81,5.14-1.02,7.72
				c-0.7,8.56-2.96,16.63-7.12,24.18c-4.01,7.29-8.75,14.14-12.63,21.51c-1.09,2.08-2.72,2.71-4.72,2.07
				c-8.02-2.56-16.09-4.96-23.89-8.17c-11.92-4.9-23.41-10.64-34.44-17.31c-15.34-9.29-29.34-20.29-42.26-32.71
				c-9.53-9.17-18.23-19.05-26.09-29.67c-11.2-15.13-20.39-31.4-27.71-48.74c-6.11-14.46-10.66-29.4-13.86-44.77
				c-1.95-9.33-3.3-18.73-4.27-28.19C285.25,559.43,285.06,552,285.14,544.56z"/>
			<path class="st15" d="M587.48,706.05c-7.18,1.1-14.4,1.88-21.66,2.05c-7.06,0.16-14.12,0.01-21.18-0.57
				c-11.1-0.92-22.03-2.78-32.78-5.64c-14.79-3.94-28.88-9.64-42.24-17.15c-8.81-4.95-17.12-10.6-25.09-16.79
				c-5.57-4.33-10.86-8.96-15.92-13.85c-11.3-10.93-21.34-22.92-29.94-36.11c-7.66-11.74-14.05-24.12-19.25-37.12
				c-4.23-10.58-7.57-21.47-10.14-32.56c-1.56-6.71-2.75-13.51-3.76-20.34c-1.33-8.96-1.91-17.98-2.19-27
				c-0.22-7.33,0.17-14.67,0.77-22c1.18-14.44,3.89-28.58,7.87-42.47c3.66-12.76,8.47-25.08,14.42-36.96
				c4.85-9.68,10.43-18.91,16.74-27.69c2.39-3.32,4.95-6.52,7.5-9.73c4.29-5.39,9.03-10.36,13.86-15.24
				c4.99-5.04,10.37-9.65,15.93-14.05c5.99-4.75,12.09-9.36,18.25-13.89c0.48-0.35,1.07-0.62,1.29-1.24
				c11.99-4.36,24.42-6.78,37.08-8.01c12.04-1.17,24.11-1.66,36.22-1.14c9.42,0.4,18.78,1.25,28.07,2.76
				c29.29,4.76,56.75,14.75,82.57,29.3c17.12,9.65,32.4,21.73,46.44,35.44c12.27,11.98,23.38,24.9,32.57,39.41
				c0.56,0.88,1.95,2.15,1.31,2.69c-0.89,0.75-2.39-0.05-3.53-0.67c-0.19-0.11-0.39-0.21-0.58-0.33
				c-9.07-5.56-18.71-9.89-28.77-13.29c-20.65-6.98-41.89-9.16-63.58-7.8c-14.91,0.93-29.66,2.96-44.19,6.5
				c-9.52,2.32-19,4.78-28,8.78c-9.95,4.42-18.39,10.88-25.4,19.18c-7.57,8.95-12.75,19.31-17.36,29.98
				c-5.92,13.71-10.2,27.98-14.47,42.26c-4.69,15.7-9.27,31.43-12.04,47.62c-0.55,3.19-1.17,6.37-1.83,9.93
				c-1.88-2.48-3.51-4.65-5.15-6.8c-1.57-2.07-3.15-2.27-5.26-0.71c-1.97,1.45-2.09,2.51-0.45,4.76
				c8.24,11.29,16.53,22.54,24.72,33.87c12.32,17.05,26.83,31.83,43.94,44.16c9.9,7.13,19.34,14.92,27.5,24.09
				c8.37,9.4,15.88,19.39,20.86,31.07c1.91,4.48,3.44,9.09,4.3,13.9C592.52,705.46,589.97,705.67,587.48,706.05z M454.37,540.52
				c0.67-0.04,1.31-0.16,1.94-0.42c2.4-1,2.86-2.56,1.29-4.66c-4.32-5.76-8.66-11.51-13-17.26c-6.62-8.75-13.24-17.49-19.87-26.24
				c-0.4-0.53-0.8-1.07-1.26-1.54c-1.72-1.72-3.57-1.64-5.16,0.2c-1.24,1.44-2,3.18-2.96,4.8c-1.52,2.58-2.91,5.23-4.45,7.8
				c-1.81,3.04-1.59,5.96,0.49,8.69c6.65,8.72,13.34,17.42,20.08,26.07c2.02,2.59,4.98,3.42,8.12,3.44
				c2.49,0.02,4.99-0.28,7.48-0.43C449.49,540.82,451.93,540.65,454.37,540.52z M421.37,542.58c0.39-0.02,0.79,0.01,1.16-0.09
				c3.15-0.89,4.85-2.74,2.57-5.93c-4.31-6.04-8.7-12.03-13.11-18c-2.1-2.84-5.1-2.66-6.78,0.42c-3.62,6.61-7.17,13.25-10.7,19.91
				c-1.44,2.72-0.34,4.64,2.78,4.92c4.45,0.39,8.85-0.49,12.43-0.5C414.17,543.03,417.77,542.8,421.37,542.58z"/>
			<path class="st17" d="M521.82,787.99c-3.28,0.15-6.46,0.18-9.83-0.5c-10.82-2.19-21.77-3.71-32.66-5.5
				c-2.56-0.42-5.18-0.51-7.66-1.3c-2.07-0.66-2.58-1.82-1.73-3.82c0.43-1.01,1-1.98,1.58-2.92c3.09-4.99,6.21-9.96,9.04-15.11
				c5.97-10.86,10.1-22.21,9.83-34.83c-0.04-1.7,1.05-2.47,2.79-1.95c8.33,2.51,16.87,3.93,25.49,4.88
				c9.01,0.99,18.01,2.32,27.14,1.23c4.26-0.51,8.54-1.08,12.79-1.5c7.47-0.74,14.86-1.63,22.02-3.86c5.81-1.8,11.48-4.02,16.4-7.73
				c3.78-2.85,5.54-6.62,5-11.42c-0.29-2.56-1.11-4.95-1.88-7.37c-4.81-15.03-12.74-28.24-23.22-39.99
				c-8.13-9.11-17.58-16.71-27.24-24.1c-21.34-16.31-40.01-35.16-54.83-57.72c-2.49-3.79-3.32-7.41-2.87-11.8
				c0.83-8.09,2.26-16.07,4.04-23.98c4.58-20.25,10.67-40.08,17.3-59.74c4.72-13.98,10.61-27.44,18.9-39.73
				c5.75-8.52,12.89-15.44,22.51-19.54c18.9-8.06,38.6-13.03,58.99-15.26c8.93-0.98,17.92-1.42,26.91-1.38
				c2.93,0.01,5.87,0.06,8.79,0.32c4.46,0.41,8.88,1.09,13.34,1.55c9.76,0.99,19.27,2.99,28.49,6.44
				c11.95,4.48,23.06,10.67,34.24,16.72c6.36,3.44,10.86,8.44,13.86,14.93c4.29,9.32,8.61,18.63,12.91,27.95
				c0.2,0.44,0.37,0.94,0.4,1.42c0.06,0.88-0.21,1.33-1.26,0.96c-2.03-0.71-4.08-1.36-6.15-1.93c-10.02-2.73-20.09-3.12-30.16-0.28
				c-8.58,2.42-15.93,7.04-22.45,13.04c-15.25,14.03-20.13,31.38-16.34,51.44c0.76,4.04,0.37,5.03-3.49,6.58
				c-4.43,1.77-7.79,4.71-9.41,9.26c-2.29,6.43-1.91,12.79,1.42,18.75c2.89,5.18,7.39,8.11,13.48,8.31
				c4.26,0.14,8.52,0.32,12.77,0.55c10.5,0.57,21,1.16,31.49,1.78c11.49,0.68,22.98,1.42,34.46,2.12c3.39,0.2,4.3,1.3,3.69,4.68
				c-3.6,19.96-9.29,39.3-17.42,57.91c-10.46,23.94-24.55,45.49-42.38,64.58c-17.49,18.73-37.54,34.2-59.69,47.01
				c-27.56,15.94-57.49,24.5-88.86,28.59c-6.77,0.88-13.59,1.25-19.43,1.56C528.58,787.58,525.21,787.84,521.82,787.99z
				 M526.97,514.42c1.13,31.33,27.45,55.17,58.05,53.98c30.99-1.21,55.27-27.27,53.75-58.56c-1.53-31.41-27.94-54.55-58.25-53.27
				C548.4,458.11,525.91,485.04,526.97,514.42z"/>
			<path class="st18" d="M594.94,704.61c-2.42,0.85-4.97,1.06-7.46,1.45c-7.18,1.1-14.4,1.88-21.66,2.05
				c-7.06,0.16-14.12,0.01-21.18-0.57c-11.1-0.92-22.03-2.78-32.78-5.64c-14.79-3.94-28.88-9.64-42.24-17.15
				c-8.81-4.95-17.12-10.6-25.09-16.79c-5.57-4.33-10.86-8.96-15.92-13.85c-11.3-10.93-21.34-22.92-29.94-36.11
				c-7.66-11.74-14.05-24.12-19.25-37.12c-4.23-10.58-7.57-21.47-10.14-32.56c-1.56-6.71-2.75-13.51-3.76-20.34
				c-1.33-8.96-1.91-17.98-2.19-27c-0.22-7.33,0.17-14.67,0.77-22c1.18-14.44,3.89-28.58,7.87-42.47
				c3.66-12.76,8.47-25.08,14.42-36.96c4.85-9.68,10.43-18.91,16.74-27.69c2.39-3.32,4.95-6.52,7.5-9.73
				c4.29-5.39,9.03-10.36,13.86-15.24c4.99-5.04,10.37-9.65,15.93-14.05c5.99-4.75,12.09-9.36,18.25-13.89
				c0.48-0.35,1.07-0.62,1.29-1.24c-5.69,0.65-11.17,2.2-16.49,4.22c-15.52,5.88-30.5,12.93-44.7,21.55
				c-13.21,8.01-25.47,17.31-36.78,27.86c-7.39,6.9-14.35,14.2-20.81,21.96c-12.46,14.97-23.09,31.14-31.64,48.66
				c-7.37,15.09-13.16,30.76-17.28,47.03c-3.1,12.24-5.28,24.63-6.27,37.24c-0.48,6.12-0.78,12.24-0.84,18.38
				c-0.08,7.44,0.11,14.86,0.87,22.25c0.97,9.46,2.32,18.86,4.27,28.19c3.21,15.37,7.76,30.31,13.86,44.77
				c7.32,17.33,16.51,33.61,27.71,48.74c7.86,10.62,16.56,20.51,26.09,29.67c12.92,12.42,26.92,23.42,42.26,32.71
				c11.03,6.67,22.52,12.41,34.44,17.31c7.8,3.21,15.87,5.61,23.89,8.17c2,0.64,3.63,0.01,4.72-2.07
				c3.88-7.37,8.62-14.22,12.63-21.51c4.16-7.56,6.42-15.62,7.12-24.18c0.21-2.58,0.64-5.15,1.02-7.72
				c0.26-1.77-0.19-2.69-1.94-3.08c-8.1-1.82-14.71-6.27-20.84-11.61c-4.31-3.76-8.57-7.57-12.88-11.33c-1.21-1.06-2.5-2.01-3.77-3
				c-1.01-0.79-1.13-1.71-0.47-2.76c0.47-0.75,0.96-1.49,1.42-2.25c0.96-1.58,1.65-1.72,3.23-0.73
				c14.88,9.24,29.79,18.42,44.62,27.73c4.34,2.72,9.18,3.45,14.04,4.21c5.89,0.92,11.8,1.82,17.72,2.52
				c9.22,1.09,18.5,1.26,27.68-0.06c8.47-1.22,16.97-2.38,25.29-4.48c4.47-1.13,8.76-2.78,12.73-5.17
				C593.22,709.43,594.76,707.46,594.94,704.61z"/>
			<path class="st15" d="M761.4,574.06c-9.38-2.83-18.75-5.72-28.15-8.49c-16.74-4.94-33.56-9.59-50.5-13.83
				c-2.06-0.52-4.12-0.86-6.25-0.47c-1.49,0.27-2.7,0.98-3.61,2.18c-2.94,3.88-2.27,10.94,1.27,14.28c1.78,1.68,3.94,2.18,6.25,2.29
				c9.24,0.47,18.49,0.89,27.73,1.38c8.8,0.47,17.59,0.99,26.39,1.5c8.63,0.5,17.26,1.01,25.89,1.51c0.33,0.02,0.66-0.04,0.98-0.06
				C761.41,574.25,761.4,574.15,761.4,574.06z"/>
			<path class="st19" d="M747.64,506.54c0.3,3.53,0.77,7.26,2.23,10.79c2.3,5.58,6.86,8.46,12.4,9.79c2.62,0.63,4.79-0.98,6.4-3.07
				c2.34-3.02,2.13-6.54,1.79-10.04c-0.45-4.54-1.54-8.93-3.25-13.17c-2.27-5.64-6.77-8.86-12.04-11.28
				c-0.56-0.26-1.07-0.14-1.61,0.02c-2.92,0.84-4.69,2.77-5.5,5.67C747.06,498.9,747.39,502.6,747.64,506.54z"/>
			<path class="st18" d="M447.05,540.97c2.44-0.15,4.87-0.32,7.31-0.45c0.67-0.04,1.31-0.16,1.94-0.42c2.4-1,2.86-2.56,1.29-4.66
				c-4.32-5.76-8.66-11.51-13-17.26c-6.62-8.75-13.24-17.49-19.87-26.24c-0.4-0.53-0.8-1.07-1.26-1.54
				c-1.72-1.72-3.57-1.64-5.16,0.2c-1.24,1.44-2,3.18-2.96,4.8c-1.52,2.58-2.91,5.23-4.45,7.8c-1.81,3.04-1.59,5.96,0.49,8.69
				c6.65,8.72,13.34,17.42,20.08,26.07c2.02,2.59,4.98,3.42,8.12,3.44C442.07,541.42,444.56,541.12,447.05,540.97z"/>
			<path class="st18" d="M409.72,543.31c4.45-0.28,8.05-0.5,11.65-0.73c0.39-0.02,0.79,0.01,1.16-0.09
				c3.15-0.89,4.85-2.74,2.57-5.93c-4.31-6.04-8.7-12.03-13.11-18c-2.1-2.84-5.1-2.66-6.78,0.42c-3.62,6.61-7.17,13.25-10.7,19.91
				c-1.44,2.72-0.34,4.64,2.78,4.92C401.73,544.2,406.14,543.32,409.72,543.31z"/>
			<path class="st20" d="M638.77,509.84c1.52,31.29-22.75,57.35-53.75,58.56c-30.59,1.19-56.91-22.65-58.05-53.98
				c-1.06-29.38,21.43-56.32,53.54-57.85C610.83,455.29,637.24,478.44,638.77,509.84z M594.91,506.34c1.38,3.3,3.62,5.8,6.79,7.46
				c2.87,1.5,5.92,2.48,9.11,2.96c5.81,0.88,10.38-2.82,10.56-8.67c0.21-6.7-1.07-13.2-4.08-19.15c-3.02-5.97-8.31-9.42-14.77-10.84
				c-4.65-1.02-8.5,1.64-9.59,6.28c-0.76,3.23-0.47,6.5-0.3,9.77C592.94,498.3,593.28,502.44,594.91,506.34z"/>
			<path class="st19" d="M592.63,494.15c0.31,4.15,0.65,8.29,2.28,12.19c1.38,3.3,3.62,5.8,6.79,7.46c2.87,1.5,5.92,2.48,9.11,2.96
				c5.81,0.88,10.38-2.82,10.56-8.67c0.21-6.7-1.07-13.2-4.08-19.15c-3.02-5.97-8.31-9.42-14.77-10.84
				c-4.65-1.02-8.5,1.64-9.59,6.28C592.16,487.61,592.46,490.89,592.63,494.15z"/>
		</g>
		<g>
			<g>
				<circle class="st15" cx="313.57" cy="421.04" r="179.38"/>
				<path class="st21" d="M313.57,609.01c-103.64,0-187.96-84.32-187.96-187.96c0-103.64,84.32-187.96,187.96-187.96
					s187.96,84.32,187.96,187.96C501.53,524.69,417.21,609.01,313.57,609.01z M313.57,250.24c-94.18,0-170.81,76.62-170.81,170.81
					c0,94.18,76.62,170.81,170.81,170.81s170.81-76.62,170.81-170.81C484.38,326.86,407.76,250.24,313.57,250.24z"/>
			</g>
			<path class="st17" d="M228.15,513.2c-9.54,0-19.08,0-28.62,0c-1.99,0-3.93-0.32-5.81-0.98c-5.79-2.03-8.4-6.85-6.99-12.83
				c0.51-2.14,1.41-4.12,2.49-6.02c18.54-32.65,37.08-65.29,55.62-97.94c18.88-33.24,37.76-66.49,56.64-99.73
				c1.38-2.44,2.96-4.71,5.2-6.44c4.26-3.28,9.09-3.15,13.21,0.32c1.88,1.58,3.34,3.5,4.51,5.64c9.2,16.76,18.77,33.3,28.2,49.93
				c2.33,4.12,3.6,8.58,4.1,13.26c0.75,6.93-0.29,13.63-3.4,19.87c-1.83,3.68-4.05,7.17-6.11,10.74
				c-20.57,35.65-41.09,71.33-61.75,106.93c-5.28,9.09-13.42,14.48-23.69,16.67c-2.17,0.46-4.37,0.63-6.59,0.62
				c-9-0.02-18-0.01-27-0.01C228.15,513.22,228.15,513.21,228.15,513.2z"/>
			<path class="st17" d="M387.68,513.21c-13.19,0-26.37,0-39.56,0c-2.2,0-4.34-0.36-6.4-1.15c-5.31-2.03-7.85-6.87-6.6-12.56
				c0.48-2.18,1.35-4.2,2.47-6.12c13.02-22.45,26.05-44.9,39.07-67.35c1.22-2.11,2.65-4.05,4.53-5.62
				c4.28-3.57,9.47-3.56,13.73,0.03c1.88,1.58,3.31,3.52,4.52,5.63c12.82,22.5,25.63,45,38.45,67.5c1.36,2.38,2.46,4.86,2.67,7.63
				c0.41,5.42-2.24,9.35-7.41,11.08c-2.3,0.77-4.67,0.97-7.07,0.96c-12.8-0.01-25.6,0-38.39,0
				C387.68,513.22,387.68,513.21,387.68,513.21z"/>
		</g>
	</g>
</g>
</svg>