<?xml version="1.0" encoding="utf-8"?>
<!-- Generator: Adobe Illustrator 25.2.1, SVG Export Plug-In . SVG Version: 6.00 Build 0)  -->
<svg version="1.1" xmlns="http://www.w3.org/2000/svg" xmlns:xlink="http://www.w3.org/1999/xlink" x="0px" y="0px"
	 viewBox="0 0 1000 1000" style="enable-background:new 0 0 1000 1000;" xml:space="preserve">
<style type="text/css">
	.st0{fill:#323C54;}
	.st1{fill:#EBF4FB;}
	.st2{fill:#C7E0F5;}
	.st3{fill:#EAF2FB;}
	.st4{fill:#E9F2FA;}
	.st5{fill:#B2DAF4;}
	.st6{fill:#B2DBF4;}
	.st7{fill:#E8F1FA;}
	.st8{fill:#C5DFF3;}
	.st9{fill:#F7EBF4;}
	.st10{fill:#B0D9F4;}
	.st11{fill:#E7F0FA;}
	.st12{fill:#F1E6F2;}
	.st13{fill:#364057;}
	.st14{fill:#E74242;}
	.st15{fill:#1D1E1D;}
	.st16{fill:#F7FBFE;}
	.st17{fill:#952D2D;}
	.st18{fill:#FEFEFE;}
	.st19{fill:#1C1D1C;}
	.st20{fill:#FFFFFF;}
	.st21{fill:#2A5AD9;}
	.st22{fill:#FDFDFC;}
	.st23{fill:#F4AB37;}
</style>
<g id="Layer_1">
	<g id="ajbOlw.tif_1_">
		<g>
			<path class="st0" d="M59.8,667.2c9.4-5,18.6-2.1,27.6,0.9c13.1,4.3,24.5,12,37,22.8c-2.7-21-1.4-39.5-0.5-58
				c4.2-80.3,21.8-157.1,66.7-225.1c61.8-93.5,150.6-146.3,260.1-165.2c58.3-10.1,117-12.1,175.3,0.7
				c77.7,17.1,138.1,61.3,187.8,121.7c58.3,70.8,88.2,153,97.2,243.5c2.6,26.4,4.3,52.9,4.2,79.5c0,6.9,0.5,11,9.3,6.1
				c11.1-6.2,22.5-4.9,32.8,3.1c2,8.7-4.1,4.3-6.6,3.6c-9.6-3-18.6-3-27.7,2c-5,2.8-9.1,6.4-9.5,11.8c-0.5,6.5,6.8,2.3,9.6,5.3
				c1.8,1.9,6,2.4,5,5.8c-1,3.3-4.6,2.5-7.4,2c-7-1.1-14-2.2-21.1-1.5c-2.1,0.2-4.6,0.2-4.8,3c-0.2,2,1.9,2.7,3.5,3.5
				c4.1,2,8.4,3.8,12.3,6.2c2.4,1.5,6.7,2.9,5,6.7c-1.5,3.4-5.1,0.9-7.6,0.4c-7.7-1.6-14.8-5.1-21.4-9.1
				c-15.2-9.2-30.5-11.3-47.6-4.7c-6.6,2.5-7.7,5.3-7.8,11.1c-0.1,12.4-0.6,24.8-1,37.1c-0.1,3.6-0.1,7.6-5.1,7.7
				c-24.9,0.4-50,3.7-74.3-5c-22.2-10.9-45.1-20.3-68.4-28.7c-4.2-1.5-9.1-2.3-12-6.3c-8.7-12.1-21.1-11.7-34.8-11
				c2.2,4.5,8.9,6.3,6.1,10c-3,4-8,0.3-11.5-1.4c-16.4-8.1-33.7-9.9-51.7-8.7c-6,0.4-7.7,2.3-7.6,8.2c0.2,14.1,0.3,28.2-2.3,42.2
				c-3.5,0.9-6.9,1.8-10.4,2.8c-21.5-1-43.5,2.5-64.6-2.8c-15.2-3.9-28.6-3.2-41.3,6c-1.7,1.3-3.7,2.6-5.7,0.7
				c-2.6-2.6-0.2-4.5,1.4-6.3c5.8-6.3,13.2-9.5,23.3-11.1c-20.3-11.4-38.7-21.9-57.3-32c-5.6-3-10-7.7-17.7-8
				c-15.3-0.6-29.5,1.3-42.9,9.2c-7,4.2-15,7.1-23.1,7.5c-17.4,1-34.4,2.6-50.6,9.6c-2.1,0.9-5,2.3-6.5-0.9c-1.1-2.5,1.5-3.5,3-4.8
				c1.2-1,3.4-1.5,1.7-4.3c-7.8-0.8-15.9-0.8-24,0.2c-12.7,1.6-25,4.8-37.1,8.9c-2.5,0.8-6.4,4.5-8.2,0.2c-1.3-3.4,3.6-4.3,5.8-6.3
				c2.8-2.5,7.4-2.4,9.3-6.7c-21.2-14.1-44-23.1-69.3-24.6c-10.4-0.6-19-3.9-23.3-13.7c-8.7-20.1-26.7-26.9-45.4-32.9
				C77.4,673.4,66.4,675.6,59.8,667.2z M550.6,775.3c0.3,0.6,0.8,1.1,1.5,1.4c1.4,1.3,3,4.3,4.8,2.5c2.1-2-1-3.1-2.4-4.3
				c-0.7-0.7-1.4-1.5-2.1-2.2c-0.7-0.7-1.4-1.5-2-2.2c-4.3-7.1-12.5-11.4-15.2-19.6c0.9-0.8,1.7-1.6,2.6-2.4
				c7.6,8.9,15.3,17.8,23.2,27.1c2.2-3,2.9-3.6,2.9-4.1c-0.5-26.8-1.2-53.7-1.5-80.5c-0.1-5.9-3.5-4.7-7-4.7
				c-17.3-0.2-34.7,0-52-1.2c-6.8-0.5-7.5,1.5-7.4,7.1c0.5,25.1,0.8,50.2,1,75.3c0.1,13.7,0,13.4,13.3,13
				c12.1-0.4,24.2-0.1,36.9-0.1c-2.4-5.5-7.8-7-8.2-12.3c4.6,0.2,6.2,4.2,9.4,5.3C549.1,774,549.8,774.6,550.6,775.3z M897.3,610.5
				c-0.5-0.5-1-1.1-1.4-1.6c-6.8-10.1-17.7-15.8-28.3-25c15.2,1.8,22.9,11.8,32.7,20.8c0.7-12.4-2.2-22.5-4.1-32.7
				c-4.9-27.1-11.8-53.7-21-79.6c-1.7-4.7-2.6-8.1-9.1-4.5c-9.5,5.3-19.6,9.2-29.5,13.8c-20.1,5.8-40.4,10.9-62.1,13.1
				c32,38.3,41.9,58,50.5,99c1.6,7.8-0.5,18.5,5.4,22.8c6.5,4.6,16.2-1.5,24.7-1.8c3.8-0.2,7.6-2.2,11.4-3.3c9.9-2.2,18.3-7.8,28-12
				c-4.2-6.2-11.9-8.2-15.8-15.2c6.9-0.5,10,4.9,14.8,6.3c0.8,0.6,1.6,1.3,2.4,1.9c0.8,0.6,1.6,1.3,2.3,1.9c0.2,1,0.6,2,1.9,1.3
				c0.1-0.1-0.5-1.5-0.7-2.3C898.7,612.3,898,611.4,897.3,610.5z M141.1,603.5c-2.1-2.7-3.5-1.5-4.7,0.8c-6.5,7.9,3.7,14.2,2.1,21.7
				c-2.9,0.7-2.5-4.2-7.1-2.8c0,10.7-0.2,21.9,0.1,33.1c0.2,12-0.2,24.1,1.6,35.8c3.1,20,13.8,26.4,27.1,24.1
				c9.2,2.3,18.6,4.2,27.6,7c8.8,2.6,16.8,7.2,25,11.2c7.8,3.8,13,13,25.7,12.7c-7.6-7-14.3-11.3-15.9-19.8
				c6.8,5,12.1,11.6,20.1,14.7c1.2,1.5,2.8,3.7,4.5,1.6c1.2-1.5-1.4-2.3-2.5-3.3c-9-9.3-18.6-18-24.3-30.2
				c10.3,8.4,18.3,19.4,30.3,26.1c-1.9-30.2-4.1-59.4,0.9-88.6c0.7-4,0.7-6.7-4.2-7.7c-35.8-7.7-69.7-21-103.3-35
				C143.1,604.3,142.1,603.9,141.1,603.5z M270.7,338.1c-5.4-2.9-8.5,1-11.9,4c-30.8,27.2-56.4,58.5-75.5,95
				c-8.1,15.5-12.1,13.6,8.5,20.1c20.8,9.1,42.5,15.7,65.9,21.9c-9.3-14.8-9.3-14.8-9.3-21.5c9.7,10.8,15.9,25.1,32.1,26.4
				c-6.4-7.9-12.7-15.6-17.2-24.9c10.8,8.6,18.2,20.9,30.5,27.6c1.6,0.8,3.1,1.6,4.7,2.4c41.3,9.3,82.9,15.6,125.4,15.2
				c18,3.2,36,6.3,46.7-14.3c0.2-0.3,0.3-0.6,0.5-1c33.9-31.7,75.4-44.6,120.6-47.1c7.6-0.4,8.5-3.4,8-9.7
				c-1.5-16.5-2.5-33-3.7-49.6c-4.6-7.1-9.7-6.2-14.9-0.7c-3.5,0.1-7.1,0.2-10.6,0.4c0-2.5,0-4.9,0-7.4c35.4-2.1,70.7-5.3,105.8-9.7
				c8.5-1,9.6-3.1,5.4-10.8c-14.3-26.3-31.4-50.4-51.3-72.7c-3.4-3.8-6.5-5-11.9-4.2c-33.4,5.3-67.1,7.3-100.7,3.5
				c-14-1.6-23.1,0.8-27,15c-3.6-1.6-3.4-5-3.7-8.1c3.9-7,2.2-9.8-6.2-10.9c-20.8-2.6-40.9-8.3-60.3-16.1c-3.2-1.3-5.9-1.3-9.2-0.4
				c-34.9,9.1-68,21.7-94.5,47.6c-5.4-4.1-11-10.6-14.6,1.6c-11.2,7.2-23.8,12.9-31.2,24.8C271.2,335.7,271,336.9,270.7,338.1z
				 M792,688.8c-5.9-0.7-11.9-1.2-17.7-2.2c-5.8-1-7.9,0.6-7.8,7c0.4,22.2,0.1,44.3-0.1,66.5c0,6.9-3.2,17,0.2,20
				c4.6,4.2,13.8-0.7,21.1-0.8c7.8,0,15.7,0,24.1,0c-1.7-6-7.5-9.3-7.4-16.1c7.2,3.3,8.4,11.3,15.7,13.7c-4.5-10-13-18.1-14.7-30.2
				c4.5,5.3,9,10.6,15.7,18.5c0-22.7,0-42.3,0-62c0-16.8-0.1-16.7-16.4-15C800.5,688.8,796.2,688.7,792,688.8z M204.3,474.8
				c-2.7-7.4-10.3-5.6-15.4-8.5c-17.1-7.1-17.1-7.1-23.9,10.1c-12.3,31.3-21.3,63.6-26.4,96.8c-3.8,24.6-6.8,18.2,15.3,27.4
				c5.9,2.3,11.9,4.7,18.2,7.2c0.5-4.6,0.8-7.7,1.1-10.8c1.4,0,2.7,0,4,0c1.7,4.6-4.7,11.3,4,14.2c35.5,11.9,71.3,22.8,108.5,27.8
				c11.5,2.7,23.1,4.6,36.9,4.7c-8.5-8.2-15.2-15.5-19.6-26.6c6.1,2.1,6.9,6.4,9.4,9c7.7,8,14.6,17.2,26.5,19.6
				c1.9,0,3.8,0.1,5.7,0.2c15.4,2.7,31,1.2,46.5,1.8c6.8,0.2,9-1.6,9.6-8.5c3.4-42.7,16.7-82,40.5-117.8c1.3-2,3.5-3.6,3-7
				c-16.5,1.2-32.9-0.3-49.4-1.1c-20.4-3.7-20.4-3.7-24.5,13.4c-0.6,1.2-1.3,2.4-1.8,3.7c-14,36.5-19.1,74.8-24.2,113.2
				c-1.7,0-3.5,0-5.2,0c-3.2-2.5-7.2-3.9-9-7.8c0.2-2.2,0.4-4.3,0.5-6.5c2.4,1.9,4.8,3.8,7.7,6.2c1.5-5.3,2-9.5-2.6-12.6
				c2-0.4,4.2-0.5,5.2-2.8c0.4-4.2,0.6-8.4,1.1-12.5c3-22.9,9.5-45.1,14.1-67.7l-0.1,0c1.7-1,1.9-2.7,1.8-4.4
				c3.1-8.2,6.2-16.3,9.7-25.3c-54-6.1-105.6-17.7-156-34.7c-3.5-1.2-5.2-0.2-6.9,2.5C206.7,478,205.1,477,204.3,474.8z
				 M776.5,565.8c1.9,1.6,4,5.3,6.3,2.5c1.5-1.8-2.5-3.2-4.3-4.5c-1.8-1.4-3.6-2.8-5.7-4.4c3.9-1.8,6.7-0.4,9.2,1.6
				c3.2,2.5,6,4.3,9.9,0.5c4.5-4.2,0.9-7-1-10c-25.8-40.2-63.2-61.4-110.2-66.5c-2.7-0.3-6.1-1.4-5.4,3.6c0,11.4-1.2,22.9,0.3,34
				c1.5,11.2,3.1,21.9-0.2,33c-2,6.6,0.9,10.6,8.2,9.3c7.4-1.3,14,1,20.7,3.2c18.5,6.1,33,17.5,43,33.9
				c10.1-10.5,19.7-20.3,29.3-30.3c-2.2-3.5-8.1-4-10.4-8.8C770.8,559.7,772.8,565.9,776.5,565.8z M587.2,261.3
				c5.8-1,10.2,2,14.6,4.9c2.7,1.7,5.1,3.2,8.7,2.6c13.6-2.1,27.2-4.1,42.9-8.5c-35.3-11.4-69.2-16.4-103.9-15.7
				c-31.2-1.8-96.6,4.9-117.1,12.4c49.3,13.7,98.2,18.2,149.8,14.6c-9.4-8.1-19.9-9.4-30.8-16c18.5,0.6,30.7,12.2,46.6,15.8
				C595.6,264.7,589.4,265.4,587.2,261.3z M792,679.5c7.4,0.4,14.8,0.4,22.2,1.2c5.6,0.6,6.5-1.8,6.4-6.5
				c-0.7-31.5-3.9-62.6-14.8-92.5c-6.1-16.8-6.2-16.8-20-4.8c-3.7,3.2-7.2,6.7-10.8,10.1c-6.7,5.7-13.4,11.5-20.2,17
				c-3.4,2.7-3.6,5.2-1.8,9c6.6,13.9,8.8,29,11,44c1.2,8-0.7,19.9,3.8,23C773,683.7,783.7,680,792,679.5z M870.7,720.3
				c14.4,6.4,16.9,4.9,17.2-10c0.4-19.7-0.2-39.3-2.2-58.9c-1.9-19.1-1.5-19.1-19.3-12.3c-10.4,1.8-20.7,4.6-31.3,4.4
				c-4,0-5.5,1.2-5.3,5.5c0.7,23.7,1.1,47.4,1.3,71.1c0,6.3,2.2,7.1,7.6,5.2C848.9,721.5,859.4,718,870.7,720.3z M636.7,278.3
				c22.2,23.4,41.2,49.1,55.1,78.3c2,4.3,4.4,5.6,9,4.8c19-3.5,38.4-5.6,57.1-10.7c8.6-0.6,16.8-2.6,26.3-5.1
				c-32.8-33.8-68.7-60-110.6-77.7c-1.9-0.8-4.2-2.2-6-1.7c-10.6,2.5-21.2,5.3-31.7,8.5C633.5,275.4,635,277.4,636.7,278.3z
				 M677.7,598.6c-1.8-2.3-4-1.9-6.2-0.8c1.3,1,2.5,2,3.8,2.9c7.2,8.3,17,14.4,21.1,25.8c-7.5-6.2-14.9-12.4-24.1-20
				c3.2,14.5,5.2,26.7,4.7,39.1c-0.2,5.1,2.5,6.3,6.8,7.5c13.2,4,26.3,8.4,39.3,12.9c10.5,3.6,20.8,7.7,32.2,11.8
				c-0.9-16.3-2.8-31-6.2-45.4c-2.8-11.7-6.3-21.2-21.9-21.9c-12.2-0.6-24.1-6.2-36.9-9.8c1.9,5.7,8.5,6.3,9.2,13.8
				C691.2,608.5,684.4,603.5,677.7,598.6z M569.3,504.1c24.7-15.5,51.3-25.8,81.6-28.5c-58.2-36.2-101.6-29.2-158.7,9.3
				c-9.8,6.7-18,15-25.7,25.1c22.2,6.9,42.7,14.6,63.1,22.7c2.8,1.1,6.7,3.3,8.1-1c1.1-3.5-3.3-3.9-5.5-4.9
				c-7.8-3.6-15.7-6.9-23.5-10.4c13.5-2.4,23.8,6.8,38.3,9.5c-4.6-7.3-12.4-6.7-14.4-14.4c15.4,12.3,25.7,2.9,36.1-6.5
				C568.9,504.7,569,504.4,569.3,504.1z M656.7,550c4.3,2.7,8.6,5.4,12.9,8c0.4-0.7,0.9-1.5,1.3-2.2c-4.1-2.8-8.2-5.6-12.3-8.4
				c0.6-1.6,0.7-3.6,3.4-2.1c8.5,4.7,8.9,0,8.8-7c-0.2-15.9,0.1-31.8,0.7-47.7c0.2-4.5-0.3-6.3-5.3-6.2
				c-47,0.4-86.7,17.8-119.3,51.4c-2.6,2.7-3.7,4.6-0.2,7.6c15.6,13.4,29.1,28.9,42.8,44.2c3.9,4.4,6.2,3.6,10.1,0.2
				c11-9.8,24.1-16.1,38.2-20c8.5-2.3,17.3-3.7,27-5.7c-13.3-8.4-25.4-16.1-37.5-23.8c0.5-0.8,1.1-1.7,1.7-2.5
				C638.2,540.5,647.4,545.3,656.7,550z M270.6,744.2c11.6,4.3,23,5.7,34.2-1.7c3.7-2.4,8.5-3.4,12.9-4.7c2.6-0.8,5.7-2.1,7.8,0.7
				c2.3,3-2.3,4.3-2.2,7.4c15.8,0,28-8.2,41.1-15.2c-5.6-6.6-14.2-9.6-18-20.5c7.4,5.3,12.6,8.8,17.6,12.7c8.3,6.4,8.2,6.5,16.2,4.1
				c-9-7.7-17.9-15.2-26.8-22.8c16.9,4.4,26.8,20.3,45.8,25.8c-6.9-10.2-16-14.5-18.5-24.6c7.4,6.1,14.9,12.2,23.9,19.7
				c-2.2-22.3-2.2-42.6-1.7-63c0.1-4-1-5.5-5.4-5.4c-37.6,1.2-74.9-2.8-112-8.3c-6.9-1.5-13.8-2.8-20.7-4.5
				c-5.2-1.3-6.4,0.6-6.8,5.7c-1.7,27.1-2.8,54.2-2.1,81.4C256.4,742.3,259.8,746.3,270.6,744.2z M482.1,666.7
				c1.4,1.8,2.1,4.3,5,4.6c1.5-3.4-0.7-5.1-2.9-6.9c-2.2-5.6-8.5-9-9-16c5.7,1,6.9,7.7,12.3,8c0.3-0.6,0.5-0.9,0.5-1.2
				c3.2-39.9,13.9-77.1,38.6-109.3c4-5.3-0.6-5.6-3.7-6.8c-17.8-7-35.7-13.6-53.2-21.1c-6.1-2.7-9.1-1.9-12.8,3.5
				c-20.4,29.5-34.1,61.7-40.1,97.1c-4.9,28.7-5,28.7,21.3,41.1c13.2,6.2,26.6,12.1,42.3,17.1c-5.5-12.8-17.1-18.5-23.7-31.3
				C468.4,651.7,474.5,660,482.1,666.7z M768.6,358.4c-49.2,9-98.6,17.1-151.5,21.5c9.3,4.8,15.5,8,21.7,11.2
				c-2.3,4.5-4.7,1.8-7.5,0.3c-6.4-3.5-13-6.6-19.7-9.7c-3-1.4-6.5-3-4.6,3.1c-4.4,1.1-4,3.9-3.3,7.6c2.2,12.6,3.6,25.3,3,38
				c-0.4,7.7,1.2,10.8,10,11.1c57.2,2,107,21.9,147.6,63c1.9,2,3.5,4.6,7,3.9c20.9-4.4,41.9-8.5,62.7-17.2
				c-6.5-5.1-14.2-6.2-19.3-13.6c11.1,1.5,18.6,8.5,28.2,9.6c-12.4-10.7-27.4-17.3-40.1-27.7c7,2.9,14,5.8,21.1,8.6
				c6,3.4,12.1,6.8,18.1,10.2c1.7-2.8,0.3-4.6-0.5-6.5c-16.4-41.2-42-76.7-68.5-111.8C771.9,358.3,770.5,357.5,768.6,358.4z
				 M539.9,544.4c-34,37.8-40.9,84.4-45.6,131.7c-0.5,5.4,3.6,6.8,7.8,5.7c17-4.8,34.3-1.8,51.4-2.2c7.4-0.2,9.4-2,10-8.9
				c2.3-24.9,7.6-48.9,23.2-69.3c2.8-3.7,0.9-5.5-1.4-7.9C569.7,577.7,553.9,562.1,539.9,544.4z M677.2,658
				c0,27.3,0.3,52.7-0.2,78.2c-0.1,7.3,3.1,9.5,9.3,11.4c22.2,6.6,43.9,14.5,67,25.9c-7.7-14-14-26.6-17.2-40.5
				c9,7.8,11,20.2,19.3,29.5c2.2-12.2-8.1-19.1-9.4-29.4c5.7-0.2,4.9,6.6,9.9,7.7c0-17,0-33.8,0-50.5c0-3.8-2.8-4.6-5.4-5.5
				C726.5,676.7,702.2,669.3,677.2,658z M487.5,774.3c0-20.1,0-39.5,0-58.9c0-8.5,2.4-18.1-0.9-25.1c-3.7-7.9-15.2-6.8-23.2-10
				c-17-6.9-33.1-15.5-50.4-23.9c-2.3,24.7-1.2,48.3-1.4,71.9c0,3.8,1.8,5.6,4.9,7.2C440.8,747.9,464.9,760.3,487.5,774.3z
				 M778.2,356.8c31.8,35.4,54.8,75.3,73,118.1c2.3,5.5,3.7,8.7,11.1,5.7c7.4-3,6.3-6.3,3.9-11.8c-16.9-39.2-39.8-74.6-67.2-107.3
				C793,354.2,787.3,352.3,778.2,356.8z M896,690.6c0,7.4-0.1,14.8,0,22.3c0,1.9-1.2,4.7,1.8,5.2c2.7,0.5,5.8,0.6,7.2-2.8
				c2.2-5.2,3.8-10.6,4-16.4c0.9-21.6-1.8-43-4.2-64.4c-0.3-3.1,2.3-10.5-5.1-8.3c-4.6,1.4-12.3,2.4-9.4,12
				C895.6,655.2,896.7,672.8,896,690.6z M651.1,574.9c24.8,20.7,54,18.9,81.8,28C721.4,580.3,688.5,569.2,651.1,574.9z M721.8,481.8
				c-31.5-18.4-62-29.5-97.3-29.4C654.5,470.5,685.9,478.8,721.8,481.8z"/>
			<path class="st1" d="M558,790.2c3.5-0.9,6.9-1.8,10.4-2.8c2.2,13.2,17.1,16.2,29.2,7.9c18.2-12.5,33-10.5,49.9,1
				c8.7,6,18.8,2.3,25.6-6.3c2-0.2,3.9-0.4,5.9-0.7c0.9,1.6,2.2,2.8,4.1,2.8c13.9,0,27.7,4.3,41.8,1.9c3-1,10.1,8.1,9-3.5
				c5.7-2.5,11.3-5,17-7.5c24.3,8.8,49.4,5.5,74.3,5c5.1-0.1,5-4.1,5.1-7.7c0.4-12.4,0.9-24.8,1-37.1c0-5.8,1.2-8.5,7.8-11.1
				c17.2-6.6,32.4-4.6,47.6,4.7c6.6,4,13.7,7.5,21.4,9.1c2.5,0.5,6.1,3,7.6-0.4c1.7-3.8-2.5-5.2-5-6.7c-3.9-2.4-8.2-4.2-12.3-6.2
				c-1.6-0.8-3.6-1.5-3.5-3.5c0.2-2.8,2.8-2.7,4.8-3c7.1-0.7,14.1,0.3,21.1,1.5c2.8,0.4,6.4,1.3,7.4-2c1-3.3-3.2-3.9-5-5.8
				c-2.8-3-10,1.2-9.6-5.3c0.4-5.4,4.5-9,9.5-11.8c9.1-5,18.1-5.1,27.7-2c2.5,0.8,8.6,5.1,6.6-3.6c21.1,3,30,19.2,38.4,35.8
				c1.9,3.7,2.3,8.1,3.3,12.2c2.3,9.6-0.7,14.8-10,17.5c-2.4,0.7-4.8,1.5-7.2,1.8c-26.5,2.6-40.1,17.9-43.7,43.6
				c-4.1,29.7-23.9,46-49.6,56.8c-27.3,11.4-55.8,16.2-85.5,17.5c-29.1,1.3-58.1,1.6-85.3-9.1c-25.7-10.1-52.3-12-78.9-12.3
				c-65.2-1-130.5-2.1-195.7,0.2c-65.5,2.3-131,0.5-196.5,1.5c-4.1,0.1-8.6,1.6-12.1-2c7.6-4.1,16.2-3.7,24.3-5.5
				c32.2-7.3,63.4-18.8,96.8-20.5c15.1-0.8,29.6-3.5,42.8-12.8c6.6-4.7,15.7-6.7,24.3-5.5c39.6,5.5,77.9-0.5,115.1-14.1
				C545.1,799.5,553.4,797.6,558,790.2z"/>
			<path class="st2" d="M558,790.2c-4.6,7.4-12.9,9.3-20,11.9c-37.2,13.6-75.5,19.6-115.1,14.1c-8.6-1.2-17.8,0.9-24.3,5.5
				c-13.1,9.2-27.7,12-42.8,12.8c-33.4,1.8-64.7,13.3-96.8,20.5c-8.1,1.8-16.7,1.5-24.3,5.5c-46.9,1.2-93.7-0.4-140-8.6
				c-1.6-0.3-3.1-1.3-4.6-2c-1.7-15.4,6.9-28.4,9.8-42.7c3.1-15.5,0.2-28.7-13.7-37.8c-6-3.9-8.2-7.3-1.8-12.7
				c3.3-2.8,5.3-6.5,5.8-10.9c6.9-0.4,13.4,0.8,20.1,5c-4.1,1.4-7.1,2.4-10,3.6c-1.8,0.8-4.5,1.5-3.3,4.3c1.2,2.6,3.5,1.5,5.4,0.7
				c15.8-5.9,31.2-3.1,46.6,2.2c2.9,1,6,3.7,10.1,0.5c-10.4-11.5-23.3-13.1-37-12.6c-2.8,0.1-7.4,0.8-8-0.4
				c-7.6-14.1-20.2-11.2-32.4-10.3c-2.2-5.1-7.1-7.3-11.2-10.4c-10.7-8.1-12.1-17.7-5.4-29.1c5.3-9,12.4-15.8,20.8-21.4
				c18.7,6,36.8,12.8,45.4,32.9c4.3,9.9,12.9,13.1,23.3,13.7c25.4,1.5,48.1,10.6,69.3,24.6c-1.9,4.3-6.6,4.2-9.3,6.7
				c-2.2,2-7.1,3-5.8,6.3c1.7,4.3,5.6,0.7,8.2-0.2c12.1-4.1,24.4-7.3,37.1-8.9c8.1-1,16.2-1,24-0.2c1.7,2.8-0.5,3.3-1.7,4.3
				c-1.6,1.3-4.2,2.3-3,4.8c1.4,3.2,4.3,1.8,6.5,0.9c16.2-7,33.2-8.6,50.6-9.6c8-0.5,16-3.3,23.1-7.5c13.3-7.9,27.6-9.8,42.9-9.2
				c7.7,0.3,12.1,5,17.7,8c18.6,10.1,37,20.6,57.3,32c-10.1,1.6-17.6,4.9-23.3,11.1c-1.6,1.7-4,3.7-1.4,6.3c1.9,1.9,3.9,0.6,5.7-0.7
				c12.7-9.2,26.2-9.9,41.3-6C514.5,792.8,536.4,789.2,558,790.2z M441.1,785.3c-1.3-5.7-5.3-7.3-9.3-8.4c-13.8-4-27.1-2.6-39.6,4.7
				c-2,1.2-5.4,2.3-3.9,5.2c1.8,3.7,4.8,1.1,7.2,0c11.7-5.5,23.6-6.3,35.9-1.9C434.2,786,437.3,786.9,441.1,785.3z"/>
			<path class="st1" d="M85.7,677.9c-8.4,5.7-15.6,12.5-20.8,21.4c-6.7,11.5-5.3,21,5.4,29.1c4.1,3.1,8.9,5.3,11.2,10.4
				c-3.6,1.3-7.3,2.5-10.8,4.1c-2.3,1.1-6.3,2-4.6,5.6c1.3,2.9,4.3,0.8,6.5,0c5.7-1.9,11.3-4.1,17.5-2.9c-0.4,4.4-2.5,8.2-5.8,10.9
				c-6.5,5.4-4.3,8.8,1.8,12.7c13.9,9,16.8,22.3,13.7,37.8c-2.8,14.3-11.4,27.4-9.8,42.7c-15.9-0.3-29.6-6.9-42-15.8
				c-14.7-10.5-15.5-25.9-11.9-42c1-4.5,3-8.7,4.2-13.1c3.4-12.6-0.7-19.4-13.3-22.5c-23.9-6-32.5-23.8-22-46.7
				c10.9-23.6,27.9-39.6,54.9-42.6C66.4,675.6,77.4,673.4,85.7,677.9z"/>
			<path class="st3" d="M424.2,504.2c-42.5,0.5-84.1-5.9-125.4-15.2c10.2-40.2,24-79,46.5-114.3c3.2-5,5.7-7.3,12.5-5.7
				c17.5,4.2,35.3,7.2,53.4,8.3c4.2,0.3,8.5,0.7,12.7,1c3.5,1.2,7,1.6,10.7,1.1c5.7,0.3,11.3,0.6,17,1c7,1.2,14.1,1.9,21.3,1.4
				c3.5,0.1,7.1,0.2,10.6,0.3c2.1,0,4.3,0.1,6.4,0.2c25.5,1.3,51,1.5,76.6,0c1.4,0,2.8-0.1,4.3-0.1c3.5-0.1,7.1-0.2,10.6-0.4
				c4.9,1.1,10-1.4,14.9,0.7c1.2,16.5,2.3,33.1,3.7,49.6c0.5,6.3-0.4,9.3-8,9.7c-45.3,2.5-86.7,15.4-120.7,47.1
				C454.3,490.1,439.5,497.8,424.2,504.2z"/>
			<path class="st3" d="M289.9,639.2c-37.3-5-73-16-108.5-27.8c-8.7-2.9-2.3-9.6-4-14.2c6.9-40.6,16-80.7,31.7-119
				c1.6-2.7,3.4-3.6,6.9-2.5c50.4,17,102.1,28.5,156,34.7c-3.4,8.9-6.5,17.1-9.7,25.3c-1.7,1-2.3,2.5-1.8,4.4l0.1,0
				c-14.1,2.8-20.7,15.2-29.7,24.1C309.6,584.9,298.2,611.3,289.9,639.2z"/>
			<path class="st3" d="M823.9,468c-7-2.9-14-5.8-21.1-8.6c12.7,10.4,27.7,17,40.1,27.7c-9.5-1.1-17-8.1-28.2-9.6
				c5.1,7.4,12.8,8.5,19.3,13.6c-20.8,8.7-41.8,12.9-62.7,17.2c-3.5,0.7-5.1-1.9-7-3.9c-40.6-41-90.4-61-147.6-63
				c-8.8-0.3-10.4-3.4-10-11.1c0.6-12.8-0.8-25.5-3-38c-0.6-3.6-1.1-6.5,3.3-7.6l-0.2-0.1c-2.1,1.9-0.1,3.5,1,4
				c11.8,5.3,22.7,13.2,35.9,15.2c2.5,0.4,5.8,4.3,7.3,0.9c2.1-4.7-4.3-2.9-5.8-5.3c-0.6-4-1.4-7.7-6.4-8.3
				c-6.2-3.2-12.4-6.4-21.7-11.2c53-4.4,102.3-12.5,151.5-21.5c0.9,2.6,1.1,5.7,2.7,7.9c19.5,27.4,34,57.6,49,87.6
				C822.5,458.4,824.5,462.8,823.9,468z"/>
			<path class="st3" d="M491.1,296c3.9-14.2,13.1-16.5,27-15c33.6,3.8,67.3,1.8,100.7-3.5c5.3-0.9,8.5,0.3,11.9,4.2
				c19.9,22.3,37,46.5,51.3,72.7c4.2,7.7,3,9.7-5.4,10.8c-35.2,4.4-70.5,7.6-105.8,9.7c-29.1,0-58.2,0-87.2,0
				c-3.5-0.1-7.1-0.2-10.6-0.4c-1.4,0-2.9-0.1-4.3-0.1c-1.4-0.1-2.8-0.2-4.1-0.3c-1.2-3.7,0.7-6.8,1.6-10.1
				C472.7,340.6,481.6,318.2,491.1,296z"/>
			<path class="st4" d="M317.3,308c26.5-25.9,59.6-38.5,94.5-47.6c3.3-0.9,6-0.8,9.2,0.4c19.4,7.8,39.5,13.5,60.3,16.1
				c8.4,1,10,3.9,6.2,10.9c-10.8,18.2-16.3,38.5-23.4,58.2c-7-3.7-7.6-13.2-16-15.2c1.6,12.8,19.9,19.1,10.6,35.7
				c-9-14.4-17.5-28.1-26-41.8c0.6,11.7,6.4,20.9,11.8,30.3c3.5,6.3,9.8,11,11,18.7c-0.5-0.3-1-0.2-1.5,0.1c-1.5-0.5-3-1-4.4-1.5
				c-0.7-0.8-1.5-1.7-2.2-2.5c-4.7-7.5-9.4-15-14-22.5c-1.3,9.3,2.4,16.2,8.2,22.3c-4.5,5.2-10.3,0.3-15.2,2.1
				c-3.6-0.4-7.1-0.8-10.7-1.3c-3.5-0.3-7-0.6-10.6-0.9c-12.5-2.1-25.1-3.9-37.6-6.3c-26-4.8-51.6-11.1-76.8-21.6
				C298.4,329,308.1,318.8,317.3,308z"/>
			<path class="st4" d="M294.1,486.6c-12.3-6.7-19.7-19-30.5-27.6c4.5,9.3,10.7,17,17.2,24.9c-16.2-1.2-22.4-15.5-32.1-26.4
				c-0.1,6.8-0.1,6.8,9.3,21.5c-23.5-6.2-45.1-12.7-65.9-21.9c15.9-33.6,35.6-64.6,59.5-93.2c6.7-8,16.2-13.8,19.7-24.4
				c23.2,10.4,46.6,20,72.1,26.3c-10.8,17.3-20.9,33.9-28.7,51.7c-8,18.1-15,36.6-17.8,56.4c-0.7,0.6-1.4,1.2-2.1,1.9
				c-8.2-7.7-14.7-17-21.8-25.8c2.3,12.3,8.6,21.7,19.5,27.9c0.8,0.8,1.7,1.5,2.5,2.3C294.5,482.3,294.3,484.4,294.1,486.6z"/>
			<path class="st5" d="M482.1,666.7c-7.6-6.7-13.8-14.9-25.4-21.4c6.6,12.9,18.2,18.5,23.7,31.3c-15.7-4.9-29.1-10.8-42.3-17.1
				c-26.3-12.5-26.1-12.4-21.3-41.1c6-35.5,19.7-67.6,40.1-97.1c3.7-5.3,6.7-6.1,12.8-3.5c17.5,7.6,35.5,14.2,53.2,21.1
				c3.1,1.2,7.8,1.5,3.7,6.8c-24.7,32.3-35.4,69.5-38.6,109.3c0,0.3-0.3,0.6-0.5,1.2c-5.4-0.3-6.6-7-12.3-8c0.4,7,6.8,10.4,9,16
				C483.5,665.1,482.8,665.9,482.1,666.7z"/>
			<path class="st6" d="M285.6,648.4c37.1,5.5,74.4,9.5,112,8.3c4.3-0.1,5.5,1.3,5.4,5.4c-0.5,20.3-0.5,40.7,1.7,63
				c-9-7.5-16.5-13.6-23.9-19.7c2.5,10.1,11.6,14.3,18.5,24.6c-19.1-5.6-29-21.5-45.8-25.8c8.9,7.6,17.8,15.1,26.8,22.8
				c-8,2.4-8,2.3-16.2-4.1c-5-3.8-10.2-7.4-17.6-12.7c3.8,11,12.3,14,18,20.5c-13.1,7-25.3,15.2-41.1,15.2c-0.1-3.1,4.5-4.5,2.2-7.4
				c-2.2-2.8-5.2-1.5-7.8-0.7c-4.4,1.3-9.2,2.3-12.9,4.7c-11.3,7.3-22.6,5.9-34.2,1.7c-0.5-2.4-1.5-4.8-1.4-7.1
				C271.7,707,276.6,677.3,285.6,648.4z"/>
			<path class="st7" d="M144.1,604.7c33.6,14.1,67.5,27.3,103.3,35.1c4.9,1.1,4.9,3.7,4.2,7.7c-4.9,29.2-2.7,58.5-0.9,88.6
				c-12-6.7-19.9-17.8-30.3-26.1c5.7,12.2,15.3,21,24.3,30.2c-0.6,0.6-1.3,1.2-1.9,1.8c-8-3.1-13.4-9.7-20.1-14.7
				c1.5,8.5,8.3,12.8,15.9,19.8c-12.7,0.3-17.9-9-25.7-12.7c-8.2-4-16.2-8.6-25-11.2c-9.1-2.7-18.4-4.7-27.6-7
				c-4.9-28.2-10-56.4-8.4-85.3c4.2,1.8,6.6,7,13.2,6.9c-7.6-11.3-18-19.5-22-32C143.4,605.4,143.7,605.1,144.1,604.7z"/>
			<path class="st4" d="M656.7,550c-9.3-4.8-18.5-9.5-27.8-14.2c-0.5,0.8-1.1,1.7-1.7,2.5c12.1,7.7,24.2,15.3,37.5,23.8
				c-9.7,2-18.5,3.4-27,5.7c-14.1,3.9-27.2,10.2-38.2,20c-3.9,3.5-6.2,4.2-10.1-0.2c-13.7-15.3-27.2-30.8-42.8-44.2
				c-3.5-3-2.4-5,0.2-7.6c32.7-33.6,72.3-51,119.3-51.4c5,0,5.5,1.8,5.3,6.2c-0.6,15.9-0.9,31.8-0.7,47.7c0.1,7-0.3,11.7-8.8,7
				c-2.7-1.5-2.8,0.5-3.4,2.1C658,548.3,657.3,549.2,656.7,550z"/>
			<path class="st4" d="M539.9,544.4c14,17.7,29.8,33.2,45.5,49c2.3,2.4,4.2,4.2,1.4,7.9c-15.6,20.4-20.9,44.5-23.2,69.3
				c-0.6,6.9-2.6,8.7-10,8.9c-17.1,0.4-34.4-2.5-51.4,2.2c-4.2,1.2-8.3-0.2-7.8-5.7C499,628.8,505.9,582.2,539.9,544.4z"/>
			<path class="st5" d="M348.6,643.8c5.1-38.3,10.2-76.7,24.2-113.2c0.5-1.3,1.2-2.5,1.8-3.7c8.2-4.5,16.3-9,24.5-13.4
				c16.5,0.8,32.9,2.2,49.4,1.1c0.4,3.4-1.7,5.1-3,7c-23.8,35.7-37.1,75.1-40.5,117.8c-0.6,7-2.8,8.8-9.6,8.5
				c-15.5-0.5-31.1,1-46.5-1.8C348.8,645.4,348.7,644.6,348.6,643.8z"/>
			<path class="st8" d="M672.9,790.2c-6.8,8.6-16.9,12.2-25.6,6.3c-16.9-11.6-31.7-13.5-49.9-1c-12.1,8.3-26.9,5.3-29.2-7.9
				c2.7-14,2.5-28.1,2.3-42.2c-0.1-5.8,1.6-7.8,7.6-8.2c18-1.2,35.3,0.6,51.7,8.7c3.5,1.7,8.5,5.5,11.5,1.4c2.8-3.7-3.9-5.6-6.1-10
				c13.8-0.7,26.1-1.1,34.8,11c2.9,4,7.8,4.8,12,6.3c23.3,8.4,46.1,17.9,68.4,28.7c-5.7,2.5-11.3,5-17,7.5
				c-6.1-5.7-12.9-10.3-21.4-10.6c-5.7-0.2-9.9-2.2-14.2-5.6c-7.4-5.9-16.5-7.8-25.7-8.9c-2.5-0.3-5.5-0.5-5.8,2.8
				c-0.2,2.7,2.7,2.6,4.7,3.2c5.4,1.5,10.9,3,16.1,5.1c2.6,1,7.6,2.1,6,5.8c-3.9,8.9,3.2,5.5,6,5.6c9,0.1,17.7,0.5,25.2,6.2
				c-14,2.4-27.8-1.8-41.8-1.9c-1.9,0-3.2-1.2-4.1-2.8c-5.5-14.3-29.3-21.4-42.4-12.8c-1.5,1-3.3,2-2.8,4c0.8,2.8,3.1,2.4,5.2,1.6
				C651.9,777.3,663,781.3,672.9,790.2z"/>
			<path class="st5" d="M677.2,658c25,11.3,49.3,18.7,73.4,26.8c2.6,0.9,5.4,1.7,5.4,5.5c-0.1,16.8,0,33.5,0,50.5
				c-5-1.1-4.2-7.9-9.9-7.7c1.3,10.3,11.6,17.3,9.4,29.4c-8.3-9.3-10.3-21.8-19.3-29.5c3.2,13.9,9.5,26.4,17.2,40.5
				c-23.1-11.4-44.8-19.3-67-25.9c-6.2-1.9-9.5-4.1-9.3-11.4C677.4,710.8,677.2,685.3,677.2,658z"/>
			<path class="st3" d="M866.5,631.3c-3.8,1.2-7.6,3.2-11.4,3.3c-8.5,0.3-18.2,6.4-24.7,1.8c-6-4.2-3.8-14.9-5.4-22.8
				c-8.5-41-18.4-60.7-50.5-99c21.7-2.2,42-7.4,62.1-13.1c3.4,3.2,5.2,6.9,6.7,11.5C856.2,551.5,861.3,591.4,866.5,631.3z"/>
			<path class="st5" d="M487.5,774.3c-22.6-14-46.8-26.4-71-38.7c-3.1-1.6-4.9-3.4-4.9-7.2c0.2-23.6-0.9-47.3,1.4-71.9
				c17.3,8.4,33.4,17,50.4,23.9c8,3.2,19.5,2.1,23.2,10c3.3,7,0.8,16.6,0.9,25.1C487.5,734.8,487.5,754.2,487.5,774.3z"/>
			<path class="st4" d="M548.4,773.3c-3.2-1.2-4.8-5.1-9.4-5.3c0.3,5.3,5.8,6.8,8.2,12.3c-12.8,0-24.8-0.3-36.9,0.1
				c-13.3,0.5-13.1,0.8-13.3-13c-0.2-25.1-0.5-50.2-1-75.3c-0.1-5.6,0.6-7.6,7.4-7.1c17.3,1.2,34.6,0.9,52,1.2c3.5,0,6.9-1.2,7,4.7
				c0.3,26.8,1,53.7,1.5,80.5c0,0.5-0.7,1-2.9,4.1c-7.9-9.2-15.6-18.2-23.2-27.1c-0.9,0.8-1.7,1.6-2.6,2.4
				c2.7,8.2,10.9,12.5,15.2,19.6C549.7,771.4,549,772.4,548.4,773.3z"/>
			<path class="st4" d="M766.3,563.1c2.3,4.7,8.2,5.3,10.4,8.8c-9.6,10-19.1,19.8-29.3,30.3c-10-16.4-24.5-27.9-43-33.9
				c-6.7-2.2-13.3-4.5-20.7-3.2c-7.3,1.3-10.2-2.7-8.2-9.3c3.3-11.1,1.7-21.8,0.2-33c-1.5-11.1-0.3-22.7-0.3-34
				c3.8,0.3,7.6-0.6,11.1,2c20.9,15,39.7,32.3,57.3,50.9c1.7,1.8,3.7,3.6,3.3,6.3c-1.5,9.9,4.9,9.7,11.6,9.3c2.2,2.5,3.5,6.2,7.8,6
				L766.3,563.1z"/>
			<path class="st9" d="M866.5,631.3c-5.2-39.9-10.2-79.8-23.2-118.3c-1.5-4.5-3.3-8.3-6.7-11.5c9.9-4.5,20.1-8.5,29.5-13.8
				c6.5-3.6,7.4-0.2,9.1,4.5c9.2,26,16.1,52.5,21,79.6c1.8,10.2,4.8,20.3,4.1,32.7c-9.8-9-17.5-19-32.7-20.8
				c10.6,9.3,21.5,14.9,28.3,25c-0.8,0.5-1.6,1.1-2.4,1.6c-4.8-1.4-7.9-6.8-14.8-6.3c3.9,7.1,11.5,9,15.8,15.2
				C884.8,623.5,876.4,629.1,866.5,631.3z"/>
			<path class="st4" d="M492.1,484.9c57.1-38.5,100.5-45.5,158.7-9.3c-30.3,2.7-56.9,13-81.6,28.5
				C543,499.9,518.5,488.6,492.1,484.9z"/>
			<path class="st10" d="M677.7,598.6c6.8,4.9,13.5,9.9,21.7,15.9c-0.7-7.5-7.3-8-9.2-13.8c12.8,3.6,24.7,9.2,36.9,9.8
				c15.6,0.8,19.2,10.2,21.9,21.9c3.4,14.5,5.3,29.1,6.2,45.4c-11.3-4.2-21.7-8.2-32.2-11.8c-13-4.5-26.1-8.9-39.3-12.9
				c-4.2-1.3-6.9-2.4-6.8-7.5c0.4-12.4-1.6-24.6-4.7-39.1c9.1,7.6,16.6,13.8,24.1,20c-4.2-11.4-13.9-17.5-21.1-25.8
				C676,600,676.8,599.3,677.7,598.6z"/>
			<path class="st3" d="M757.9,350.7c-18.8,5.1-38,7.2-57.1,10.7c-4.6,0.8-7-0.6-9-4.8c-13.9-29.2-32.9-54.9-55.1-78.3
				c4.5-3.3,8,0.5,11.5,1.9c8.9,3.4,17.6,7.1,26.2,11.2C705.7,306.2,735.1,323.9,757.9,350.7z"/>
			<path class="st10" d="M289.9,639.2c8.3-28,19.8-54.4,40.8-75.2c9-8.9,15.6-21.3,29.7-24.1c-4.7,22.6-11.1,44.8-14.1,67.7
				c-0.5,4.2-0.8,8.3-1.1,12.5c-8.9-0.4-9.2-10.2-16.1-15c1.1,8.5,5.1,13.7,10.9,17.8c4.6,3.1,4.1,7.3,2.6,12.6
				c-2.9-2.3-5.3-4.2-7.7-6.2c-1.3-1.5-3-2-3.9,0c-1.2,3.1,1.4,4.7,3.3,6.5c1.8,4,5.9,5.4,9,7.8c-0.1,0.7-0.2,1.4-0.3,2.1
				c-11.9-2.4-18.8-11.6-26.5-19.6c-2.5-2.6-3.3-6.9-9.4-9c4.4,11.1,11,18.4,19.6,26.6C313,643.9,301.4,641.9,289.9,639.2z
				 M326.6,620.8c-1.8-6.3-3.7-12.6-9.1-17.2C318.9,610.1,319.1,617.2,326.6,620.8z"/>
			<path class="st11" d="M870.7,720.3c-11.3-2.3-21.8,1.2-32.1,4.9c-5.4,1.9-7.6,1.2-7.6-5.2c-0.2-23.7-0.7-47.4-1.3-71.1
				c-0.1-4.3,1.3-5.5,5.3-5.5c10.7,0.1,21-2.6,31.3-4.4c4.1,12.9,2.6,26.5,3.5,39.7C870.9,692.4,874.4,706.4,870.7,720.3z"/>
			<path class="st9" d="M774.9,586.9c3.6-3.4,7.1-6.8,10.8-10.1c13.8-12,13.9-12,20,4.8c10.9,29.9,14.1,61,14.8,92.5
				c0.1,4.7-0.8,7.2-6.4,6.5c-7.3-0.8-14.8-0.8-22.2-1.2C793.7,647.2,787.3,616.5,774.9,586.9z"/>
			<path class="st9" d="M757.9,350.7c-22.8-26.9-52.2-44.5-83.5-59.3c-8.6-4.1-17.3-7.8-26.2-11.2c-3.6-1.4-7.1-5.2-11.5-1.9
				c-1.7-0.9-3.2-2.9-0.8-3.6c10.5-3.2,21-6,31.7-8.5c1.8-0.4,4,0.9,6,1.7c42,17.7,77.9,44,110.6,77.7
				C774.8,348.1,766.5,350.1,757.9,350.7z"/>
			<path class="st11" d="M587.2,261.3c2.3,4.1,8.5,3.4,11,10.1c-15.9-3.7-28.1-15.2-46.6-15.8c10.8,6.6,21.4,7.9,30.8,16
				c-51.6,3.7-100.5-0.9-149.8-14.6c20.4-7.5,85.8-14.2,117.1-12.4c2.9,3.6,7.4,3.9,11.3,5.4C569.7,253.5,579.7,254.4,587.2,261.3z"
				/>
			<path class="st9" d="M758.7,557.2c-6.6,0.4-13.1,0.6-11.6-9.3c0.4-2.7-1.6-4.5-3.3-6.3c-17.7-18.6-36.4-35.9-57.3-50.9
				c-3.6-2.6-7.4-1.7-11.1-2c-0.8-5,2.7-3.9,5.4-3.6c47.1,5.1,84.4,26.2,110.2,66.5c1.9,2.9,5.5,5.7,1,10c-4,3.7-6.7,2-9.9-0.5
				c-2.5-2-5.3-3.3-9.2-1.6c2.1,1.6,3.9,3,5.7,4.4c-0.7,0.7-1.3,1.3-2,2c-3.6,0-5.6-6.1-10.2-2.7l0.2,0c1.5-3.4-0.9-3.7-3.2-3.6
				C761.3,559.6,759.4,559.7,758.7,557.2z"/>
			<path class="st7" d="M173.3,597.1c-0.3,3.1-0.6,6.2-1.1,10.8c-6.4-2.5-12.3-4.8-18.2-7.2c-0.2-34.3,8.9-66.8,19.5-98.8
				c4.1-12.1,6.9-25.2,15.4-35.6c5.1,2.9,12.8,1.1,15.4,8.5C186.2,513.6,175,554.2,173.3,597.1z"/>
			<path class="st12" d="M792,688.8c4.2-0.1,8.5,0,12.7-0.4c16.3-1.8,16.3-1.8,16.4,15c0.1,19.7,0,39.3,0,62
				c-6.7-7.8-11.2-13.2-15.7-18.5c1.7,12,10.2,20.1,14.7,30.2c-7.3-2.4-8.5-10.3-15.7-13.7c-0.1,6.8,5.7,10,7.4,16.1
				c-8.4,0-16.2,0-24.1,0c0.7-4.1,2.1-8.3,2-12.4C789.3,740.9,793.5,714.9,792,688.8z M805.7,764.4c-0.7-4.1-1.5-6.4-4.8-7.1
				C799.5,761.2,801.2,762.8,805.7,764.4z"/>
			<path class="st4" d="M774.9,586.9c12.3,29.6,18.8,60.3,17,92.5c-8.3,0.5-18.9,4.3-24.3,0.5c-4.4-3.1-2.6-15-3.8-23
				c-2.2-15-4.3-30.1-11-44c-1.9-3.9-1.6-6.3,1.8-9C761.6,598.4,768.2,592.6,774.9,586.9z"/>
			<path class="st10" d="M492.1,484.9c26.4,3.7,50.9,15,77.1,19.2c-0.2,0.3-0.4,0.6-0.6,0.9c-10.4,9.3-20.8,18.8-36.1,6.5
				c2,7.7,9.8,7.1,14.4,14.4c-14.4-2.7-24.8-11.8-38.3-9.5c7.9,3.4,15.8,6.7,23.5,10.4c2.3,1.1,6.7,1.5,5.5,4.9
				c-1.4,4.3-5.3,2.1-8.1,1c-20.4-8-40.9-15.8-63.1-22.7C474.1,499.8,482.4,491.6,492.1,484.9z"/>
			<path class="st13" d="M294.1,486.6c0.2-2.1,0.4-4.3,0.6-6.4c4.5-0.9,4.7-3,2-6.2c2.8-19.8,9.9-38.2,17.8-56.4
				c7.8-17.8,17.9-34.4,28.7-51.7c-25.5-6.2-48.9-15.9-72.1-26.3c0-0.5-0.1-1-0.3-1.5c0.3-1.2,0.5-2.4,0.8-3.6
				c10.3,7.1,17.3,4.6,21.8-7c1.2-3.2,4-5.7,5.9-8.6c1.8-2.8,5.7-4.9,3.5-9.2c3.6-12.1,9.2-5.7,14.6-1.6
				c-9.1,10.7-18.8,21-26.8,33.8c25.1,10.5,50.8,16.7,76.8,21.6c12.5,2.3,25.1,4.2,37.6,6.3c-3.6,7.2,7.5,2.4,6.3,7.7
				c-18-1.1-35.9-4.2-53.4-8.3c-6.8-1.6-9.3,0.7-12.5,5.7c-22.5,35.3-36.3,74-46.5,114.3C297.2,488.2,295.6,487.4,294.1,486.6z"/>
			<path class="st5" d="M188.9,466.3c-8.6,10.4-11.4,23.4-15.4,35.6c-10.7,32-19.8,64.6-19.5,98.8c-22.1-9.2-19.1-2.8-15.3-27.4
				c5.1-33.3,14.1-65.5,26.4-96.9C171.8,459.2,171.8,459.2,188.9,466.3z"/>
			<path class="st11" d="M792,688.8c1.6,26.1-2.6,52.1-2.2,78.2c0.1,4.1-1.3,8.3-2,12.4c-7.3,0.1-16.5,5-21.1,0.8
				c-3.4-3.1-0.2-13.1-0.2-20c0.1-22.2,0.4-44.4,0.1-66.5c-0.1-6.4,1.9-8,7.8-7C780.1,687.6,786,688.1,792,688.8z"/>
			<path class="st12" d="M778.2,356.8c9.2-4.5,14.8-2.6,20.8,4.6c27.4,32.7,50.4,68.1,67.2,107.3c2.4,5.6,3.4,8.8-3.9,11.8
				c-7.4,3-8.8-0.2-11.1-5.7C832.9,432.1,810,392.2,778.2,356.8z"/>
			<path class="st10" d="M270.7,338.1c0.3,0.5,0.4,1,0.3,1.5c-3.5,10.5-13,16.4-19.7,24.4c-23.9,28.6-43.6,59.6-59.5,93.2
				c-20.6-6.5-16.6-4.6-8.5-20.1c19.1-36.4,44.7-67.8,75.5-95C262.3,339.1,265.3,335.1,270.7,338.1z"/>
			<path class="st10" d="M151.8,630.8c-1.6,28.9,3.5,57.1,8.4,85.3c-13.3,2.3-24-4.1-27.1-24.1c-1.8-11.7-1.4-23.8-1.6-35.8
				c-0.2-11.2-0.1-22.4-0.1-33.1c4.6-1.4,4.2,3.5,7.1,2.8c1.6-7.5-8.6-13.8-2.1-21.7c-0.2,0.6,0,1,0.5,1.4
				C139.1,615.6,146,622.9,151.8,630.8z"/>
			<path class="st7" d="M285.6,648.4c-9,28.9-14,58.6-16.4,88.7c-0.2,2.3,0.9,4.8,1.4,7.1c-10.8,2.1-14.2-1.8-14.5-13.3
				c-0.6-27.2,0.4-54.3,2.1-81.4c0.3-5.1,1.5-7,6.8-5.7C271.8,645.5,278.8,646.9,285.6,648.4z"/>
			<path class="st9" d="M870.7,720.3c3.7-13.9,0.2-27.9-0.8-41.6c-0.9-13.1,0.6-26.8-3.5-39.7c17.8-6.8,17.4-6.7,19.3,12.3
				c2,19.6,2.6,39.2,2.2,58.9C887.6,725.2,885.1,726.7,870.7,720.3z"/>
			<path class="st12" d="M823.9,468c0.6-5.2-1.4-9.6-3.6-14.1c-15-29.9-29.5-60.1-49-87.6c-1.5-2.2-1.8-5.2-2.7-7.9
				c2-0.9,3.3-0.1,4.5,1.5c26.4,35.1,52,70.6,68.5,111.8c0.8,1.9,2.1,3.8,0.5,6.5C836,474.8,829.9,471.4,823.9,468z"/>
			<path class="st12" d="M587.2,261.3c-7.5-6.9-17.5-7.8-26.4-11.3c-3.9-1.5-8.4-1.8-11.3-5.4c34.8-0.7,68.7,4.3,103.9,15.7
				c-15.7,4.4-29.3,6.3-42.9,8.5c-3.7,0.6-6-0.9-8.7-2.6C597.3,263.3,592.9,260.2,587.2,261.3z"/>
			<path class="st12" d="M896,690.6c0.7-17.7-0.4-35.4-5.6-52.5c-2.9-9.5,4.8-10.6,9.4-12c7.4-2.2,4.7,5.1,5.1,8.3
				c2.4,21.4,5.1,42.8,4.2,64.4c-0.2,5.7-1.8,11.1-4,16.4c-1.4,3.4-4.5,3.2-7.2,2.8c-3-0.5-1.8-3.3-1.8-5.2
				C896,705.4,896,698,896,690.6z"/>
			<path class="st13" d="M455.3,373.8c-1.2-7.6-7.5-12.4-11-18.7c-5.3-9.4-11.1-18.6-11.8-30.3c8.5,13.7,17.1,27.4,26,41.8
				c9.3-16.6-9-23-10.6-35.7c8.4,2.1,9,11.5,16,15.2c7.1-19.7,12.6-40,23.4-58.2c0.4,3.1,0.1,6.5,3.7,8.1
				c-9.5,22.2-18.4,44.6-25.1,67.8c-1,3.3-2.8,6.5-1.6,10.1C461.4,373.9,458.4,373.9,455.3,373.8z"/>
			<path class="st10" d="M651.1,574.9c37.4-5.7,70.3,5.3,81.8,28C705.2,593.8,675.9,595.6,651.1,574.9z"/>
			<path class="st13" d="M173.3,597.1c1.7-43,12.9-83.5,31.1-122.3c0.8,2.2,2.4,3.2,4.6,3.3c-15.7,38.3-24.7,78.4-31.7,119
				C176,597.1,174.6,597.1,173.3,597.1z"/>
			<path class="st12" d="M721.8,481.8c-36-3-67.3-11.3-97.3-29.4C659.8,452.4,690.4,463.4,721.8,481.8z"/>
			<path class="st13" d="M483.5,374.8c29.1,0,58.2,0,87.2,0c0,2.5,0,4.9,0,7.4c-1.4,0-2.8,0.1-4.3,0.1c-0.7-4.5-4.1-4-7.2-4
				c-20.7,0-41.4,0-62.1,0c-3.1,0-6.6-0.4-7.2,4c-2.1,0-4.3-0.1-6.4-0.2C483.5,379.7,483.5,377.3,483.5,374.8z"/>
			<path class="st10" d="M424.2,504.2c15.3-6.4,30.1-14.1,47.1-15.2c-0.1,0.3-0.3,0.6-0.5,1C460.2,510.5,442.2,507.4,424.2,504.2z"
				/>
			<path class="st8" d="M302.7,309.6c2.2,4.3-1.7,6.4-3.5,9.2c-1.9,3-4.7,5.5-5.9,8.6c-4.5,11.6-11.5,14.1-21.8,7
				C278.9,322.5,291.4,316.8,302.7,309.6z"/>
			<path class="st11" d="M399,513.5c-8.2,4.5-16.3,9-24.5,13.4C378.6,509.8,378.6,509.8,399,513.5z"/>
			<path class="st8" d="M638.8,391.1c5,0.6,5.8,4.4,6.4,8.3c-2.1-0.6-4.6,0-6.1-2.2c0.1-0.3,0.2-0.6,0.3-0.9
				c-0.2,0.3-0.3,0.5-0.5,0.8c-11.5-2.1-21.1-9.3-32.2-12.5l0.2,0.1c-1.8-6.1,1.7-4.5,4.6-3.1c6.6,3.1,13.2,6.2,19.7,9.7
				C634.1,392.9,636.4,395.6,638.8,391.1z"/>
			<path class="st13" d="M340,623c-5.8-4.1-9.8-9.3-10.9-17.8c6.9,4.8,7.1,14.6,16.1,15C344.2,622.5,342,622.7,340,623z"/>
			<path class="st13" d="M596.2,382.6c-4.9-2.2-10,0.4-14.9-0.7C586.6,376.4,591.6,375.5,596.2,382.6z"/>
			<path class="st4" d="M658.6,547.5c4.1,2.8,8.2,5.6,12.3,8.4c-0.4,0.7-0.9,1.5-1.3,2.2c-4.3-2.7-8.6-5.4-12.9-8
				C657.3,549.2,658,548.3,658.6,547.5z"/>
			<path class="st9" d="M778.5,563.9c1.8,1.3,5.8,2.7,4.3,4.5c-2.3,2.8-4.4-0.9-6.3-2.5C777.2,565.2,777.8,564.5,778.5,563.9z"/>
			<path class="st5" d="M484.2,664.4c2.2,1.8,4.4,3.5,2.9,6.9c-2.9-0.3-3.6-2.8-5-4.6C482.8,665.9,483.5,665.1,484.2,664.4z"/>
			<path class="st13" d="M136.8,605.6c-0.5-0.3-0.6-0.8-0.5-1.4c1.2-2.3,2.6-3.4,4.7-0.8c0.2,0.7,0.2,1.3,0.2,2
				C139.8,605.5,138.3,605.6,136.8,605.6z"/>
			<path class="st13" d="M343.1,646c0.1-0.7,0.2-1.4,0.3-2.1c1.7,0,3.5,0,5.2,0c0.1,0.8,0.2,1.5,0.3,2.3
				C347,646.1,345,646,343.1,646z"/>
			<path class="st13" d="M334.3,636c-2-1.7-4.6-3.4-3.3-6.5c0.8-2.1,2.5-1.5,3.9,0C334.7,631.7,334.5,633.8,334.3,636z"/>
			<path class="st10" d="M675.2,600.7c-1.3-1-2.5-2-3.8-2.9c2.2-1.1,4.4-1.5,6.2,0.8C676.8,599.3,676,600,675.2,600.7z"/>
			<path class="st4" d="M554.4,774.9c1.4,1.2,4.5,2.2,2.4,4.3c-1.8,1.8-3.4-1.2-4.8-2.5C552.8,776.1,553.6,775.5,554.4,774.9z"/>
			<path class="st7" d="M244.7,740.2c1.1,1,3.8,1.8,2.5,3.3c-1.7,2.1-3.3-0.1-4.5-1.6C243.4,741.4,244.1,740.8,244.7,740.2z"/>
			<path class="st10" d="M360.4,540c-0.5-1.9,0.1-3.4,1.8-4.4C362.3,537.3,362.1,539,360.4,540z"/>
			<path class="st9" d="M899.3,613.2c0.2,0.8,0.8,2.3,0.7,2.3c-1.3,0.6-1.6-0.3-1.9-1.3C898.5,613.9,899,613.6,899.3,613.2z"/>
			<path class="st9" d="M897.3,610.5c0.7,0.9,1.3,1.8,2,2.8c-0.4,0.3-0.8,0.7-1.2,1c-0.8-0.6-1.6-1.3-2.3-1.9
				C896.3,611.7,896.8,611.1,897.3,610.5z"/>
			<path class="st9" d="M895.8,612.3c-0.8-0.6-1.6-1.3-2.4-1.9c0.8-0.5,1.6-1.1,2.4-1.6c0.5,0.5,1,1.1,1.4,1.6
				C896.8,611.1,896.3,611.7,895.8,612.3z"/>
			<path class="st7" d="M141.2,605.5c0.1-0.7,0-1.4-0.2-2c1,0.4,2,0.8,3,1.3c-0.4,0.3-0.7,0.7-1.1,1
				C142.4,605.9,141.8,605.8,141.2,605.5z"/>
			<path class="st4" d="M550.3,770.5c0.7,0.7,1.4,1.5,2,2.2c-0.6,0.9-1.2,1.7-1.8,2.6c-0.7-0.7-1.5-1.3-2.2-2
				C549,772.4,549.7,771.4,550.3,770.5z"/>
			<path class="st4" d="M552.3,772.7c0.7,0.7,1.4,1.5,2.1,2.2c-0.8,0.6-1.6,1.2-2.4,1.8c-0.6-0.3-1.1-0.8-1.5-1.4
				C551.2,774.4,551.7,773.5,552.3,772.7z"/>
			<path class="st13" d="M724.6,794.2c-7.5-5.7-16.3-6.1-25.2-6.2c-2.8,0-9.9,3.3-6-5.6c1.6-3.7-3.5-4.7-6-5.8
				c-5.2-2.1-10.7-3.5-16.1-5.1c-2-0.6-4.9-0.5-4.7-3.2c0.3-3.3,3.3-3.1,5.8-2.8c9.2,1.1,18.3,3,25.7,8.9c4.3,3.4,8.5,5.5,14.2,5.6
				c8.5,0.2,15.3,4.9,21.4,10.6C734.8,802.3,727.7,793.2,724.6,794.2z"/>
			<path class="st13" d="M672.9,790.2c-9.9-8.9-21-12.9-34.1-7.9c-2.1,0.8-4.4,1.2-5.2-1.6c-0.5-2,1.3-3,2.8-4
				c13.1-8.6,36.9-1.5,42.4,12.8C676.8,789.7,674.9,790,672.9,790.2z"/>
			<path class="st13" d="M90,745.8c-6.2-1.2-11.8,1-17.5,2.9c-2.2,0.7-5.2,2.8-6.5,0c-1.7-3.6,2.3-4.5,4.6-5.6
				c3.5-1.7,7.2-2.8,10.8-4.1c12.1-0.9,24.8-3.8,32.4,10.3c0.7,1.2,5.3,0.5,8,0.4c13.7-0.5,26.6,1.2,37,12.6
				c-4.1,3.1-7.1,0.5-10.1-0.5c-15.3-5.3-30.7-8.1-46.6-2.2c-2,0.7-4.3,1.9-5.4-0.7c-1.2-2.8,1.4-3.5,3.3-4.3
				c2.9-1.2,5.9-2.1,10-3.6C103.3,746.6,96.9,745.4,90,745.8z"/>
			<path class="st0" d="M441.1,785.3c-3.8,1.6-6.9,0.7-9.8-0.4c-12.2-4.4-24.2-3.6-35.9,1.9c-2.4,1.1-5.4,3.7-7.2,0
				c-1.4-2.9,1.9-4,3.9-5.2c12.5-7.3,25.8-8.7,39.6-4.7C435.7,778,439.8,779.7,441.1,785.3z"/>
			<path class="st0" d="M455.3,373.8c3,0.1,6.1,0.1,9.1,0.2c1.4,0.1,2.8,0.2,4.1,0.3c-0.6,4.5-4.2,3.8-7.2,4
				c-3.4,0.2-7.1-1.2-9.8,2.2c-5.7-0.3-11.3-0.6-17-1c-3-5.4-6.8-4.2-10.7-1.1c-4.2-0.3-8.5-0.7-12.7-1c1.2-5.3-9.9-0.5-6.3-7.7
				c3.5,0.3,7,0.6,10.6,0.9c3,5.6,6.7,4.3,10.7,1.3c4.9-1.8,10.8,3.1,15.2-2.1c1.9,0,3.9,0.1,5.8,0.1c0.7,0.8,1.5,1.7,2.2,2.5
				c0.7,2.8,1.6,4.9,4.4,1.5C454.3,373.5,454.8,373.5,455.3,373.8z"/>
			<path class="st0" d="M489.9,382.3c0.7-4.5,4.1-4,7.2-4c20.7,0,41.4,0,62.1,0c3.1,0,6.6-0.4,7.2,4
				C540.9,383.8,515.4,383.6,489.9,382.3z"/>
			<path class="st13" d="M451.6,380.5c2.7-3.3,6.4-1.9,9.8-2.2c3.1-0.2,6.6,0.5,7.2-4c1.4,0,2.9,0.1,4.3,0.1c0,2.5,0,4.9,0,7.4
				C465.7,382.4,458.6,381.7,451.6,380.5z"/>
			<path class="st0" d="M472.9,381.9c0-2.5,0-4.9,0-7.4c3.5,0.1,7.1,0.2,10.6,0.4c0,2.4,0,4.9,0,7.3C480,382,476.4,382,472.9,381.9z
				"/>
			<path class="st13" d="M423.9,378.4c3.9-3.1,7.7-4.3,10.7,1.1C430.9,380,427.4,379.7,423.9,378.4z"/>
			<path class="st0" d="M639,397.3c1.5,2.2,4,1.6,6.1,2.2c1.5,2.5,7.9,0.6,5.8,5.3c-1.5,3.4-4.8-0.5-7.3-0.9
				c-13.2-2-24-9.9-35.9-15.2c-1.1-0.5-3.1-2.1-1-4c11.1,3.2,20.6,10.4,32.2,12.5L639,397.3z"/>
			<path class="st13" d="M447.1,369.9c-1.9,0-3.9-0.1-5.8-0.1c-5.8-6.1-9.6-13-8.2-22.3C437.8,354.9,442.4,362.4,447.1,369.9z"/>
			<path class="st13" d="M426.1,371.8c-4,3-7.8,4.4-10.7-1.3C419,371,422.5,371.4,426.1,371.8z"/>
			<path class="st13" d="M453.8,373.9c-2.8,3.4-3.8,1.3-4.4-1.5C450.8,372.9,452.3,373.4,453.8,373.9z"/>
			<path class="st13" d="M292.1,477.9c-10.9-6.1-17.1-15.5-19.5-27.9c7.1,8.8,13.6,18.1,21.8,25.8
				C293.7,476.5,292.9,477.2,292.1,477.9z"/>
			<path class="st0" d="M292.1,477.9c0.8-0.7,1.6-1.4,2.4-2.1c0.7-0.6,1.4-1.2,2.1-1.9c2.7,3.1,2.5,5.3-2,6.2
				C293.8,479.4,293,478.6,292.1,477.9z"/>
			<path class="st0" d="M141.2,605.5c0.6,0.3,1.2,0.4,1.8,0.3c4,12.4,14.4,20.6,22,32c-6.7,0.1-9-5.2-13.2-6.9
				c-5.8-7.9-12.6-15.2-14.9-25.2C138.3,605.6,139.8,605.5,141.2,605.5z"/>
			<path class="st0" d="M758.7,557.2c0.7,2.5,2.6,2.4,4.6,2.3c2.2,0,4.6,0.2,3.2,3.6C762.2,563.4,760.9,559.8,758.7,557.2z"/>
			<path class="st13" d="M326.6,620.8c-7.5-3.6-7.7-10.7-9.1-17.2C323,608.2,324.8,614.5,326.6,620.8z"/>
			<path class="st0" d="M805.7,764.4c-4.4-1.6-6.2-3.2-4.8-7.1C804.2,758,805,760.3,805.7,764.4z"/>
			<path class="st3" d="M638.9,397.2c0.2-0.3,0.3-0.5,0.5-0.8c-0.1,0.3-0.2,0.6-0.3,0.9C639,397.3,638.9,397.2,638.9,397.2z"/>
		</g>
	</g>
	<g>
		<path class="st14" d="M514.5,299c0-0.2,0.1-0.3,0.3-0.3c-6,0.4-12,0.8-18,1.1c0.1,0.1,0.2,0.2,0.3,0.3
			C502.9,299.7,508.7,299.4,514.5,299z"/>
		<path class="st15" d="M302,671.5c13.2,23.8,29.9,44.9,50,63.3c30.8,28.1,66.3,47.4,106.6,57.9c17.2,4.5,34.6,7,52.3,7.7
			c15.7,0.7,31.4-0.1,46.9-2.4c30.6-4.5,59.4-14.2,86.4-29.4c23.6-13.2,44.5-29.8,62.6-49.8c32.7-36,53.3-78,61.8-125.9
			c0.5-2.6,0.8-5.2,1.2-7.7c0-0.1,0-0.2,0.1-0.3c0.2-1.1,0.4-2.2,0.7-3.2c0.2-1.3,0.4-2.7,0.5-4c0.2-1.8,0.2-3.7,0.4-5.5
			c-0.1-0.3-0.1-0.6-0.1-1c0.3-3,0.5-6.1,0.6-9.2c0-1,0.3-1.8,0.9-2.6c17.1-23.6,13.7-55-8.1-74.5c-0.9-0.8-1.5-1.7-1.8-2.9
			c-12.6-44.7-35.9-83-69.7-115c-21.7-20.5-46.4-36.6-73.9-48.3c-22.9-9.8-46.8-15.9-71.6-18.5c-11.1-1.1-22.2-1.6-33.3-1.2
			c-5.8,0.4-11.6,0.7-17.3,1.1c-29.4,2.9-57.4,10.6-84,23.3c-32.1,15.4-59.7,36.6-82.7,63.7c-29.1,34.3-47.8,73.6-55.9,117.9
			c-2.9,15.8-4.2,31.8-3.9,48C271.2,595.1,281.6,634.6,302,671.5z M759.7,528.9c-5.6-1.3-10.1-4.2-12.4-9.8
			c-1.5-3.5-1.9-7.3-2.2-10.8c-0.3-3.9-0.6-7.7,0.4-11.3c0.8-2.9,2.6-4.8,5.5-5.7c0.5-0.2,1-0.3,1.6,0c5.3,2.4,9.8,5.7,12.1,11.3
			c1.7,4.3,2.8,8.7,3.3,13.2c0.3,3.5,0.6,7-1.8,10.1C764.5,527.9,762.4,529.6,759.7,528.9z M757.9,576.3c-8.7-0.5-17.3-1-26-1.5
			c-8.8-0.5-17.6-1-26.5-1.5c-9.3-0.5-18.5-0.9-27.8-1.4c-2.3-0.1-4.5-0.6-6.3-2.3c-3.6-3.3-4.2-10.4-1.3-14.3
			c0.9-1.2,2.1-1.9,3.6-2.2c2.1-0.4,4.2,0,6.3,0.5c17,4.3,33.8,8.9,50.6,13.9c9.4,2.8,18.8,5.7,28.2,8.5c0,0.1,0,0.2,0,0.3
			C758.6,576.3,758.2,576.4,757.9,576.3z M466.6,779.4c0.4-1,1-2,1.6-2.9c3.1-5,6.2-10,9.1-15.2c6-10.9,10.1-22.3,9.9-34.9
			c0-1.7,1.1-2.5,2.8-2c8.4,2.5,16.9,3.9,25.6,4.9c9,1,18.1,2.3,27.2,1.2c4.3-0.5,8.6-1.1,12.8-1.5c7.5-0.7,14.9-1.6,22.1-3.9
			c5.8-1.8,11.5-4,16.4-7.7c3.8-2.9,5.6-6.6,5-11.5c-0.3-2.6-1.1-5-1.9-7.4c-4.8-15.1-12.8-28.3-23.3-40.1
			c-8.2-9.1-17.6-16.8-27.3-24.2c-21.4-16.4-40.1-35.3-55-57.9c-2.5-3.8-3.3-7.4-2.9-11.8c0.8-8.1,2.3-16.1,4.1-24
			c4.6-20.3,10.7-40.2,17.3-59.9c4.7-14,10.6-27.5,19-39.8c5.8-8.5,12.9-15.5,22.6-19.6c19-8.1,38.7-13.1,59.2-15.3
			c9-1,18-1.4,27-1.4c2.9,0,5.9,0.1,8.8,0.3c4.5,0.4,8.9,1.1,13.4,1.6c9.8,1,19.3,3,28.6,6.5c12,4.5,23.1,10.7,34.3,16.8
			c6.4,3.4,10.9,8.5,13.9,15c4.3,9.3,8.6,18.7,12.9,28c0.2,0.4,0.4,0.9,0.4,1.4c0.1,0.9-0.2,1.3-1.3,1c-2-0.7-4.1-1.4-6.2-1.9
			c-10.1-2.7-20.2-3.1-30.2-0.3c-8.6,2.4-16,7.1-22.5,13.1c-15.3,14.1-20.2,31.5-16.4,51.6c0.8,4.1,0.4,5-3.5,6.6
			c-4.4,1.8-7.8,4.7-9.4,9.3c-2.3,6.4-1.9,12.8,1.4,18.8c2.9,5.2,7.4,8.1,13.5,8.3c4.3,0.1,8.5,0.3,12.8,0.6
			c10.5,0.6,21.1,1.2,31.6,1.8c11.5,0.7,23,1.4,34.6,2.1c3.4,0.2,4.3,1.3,3.7,4.7c-3.6,20-9.3,39.4-17.5,58.1
			c-10.5,24-24.6,45.6-42.5,64.8c-17.5,18.8-37.6,34.3-59.9,47.1c-27.6,16-57.6,24.6-89.1,28.7c-6.8,0.9-13.6,1.3-19.5,1.6
			c-4.4,0.3-7.7,0.5-11.1,0.7c-3.3,0.1-6.5,0.2-9.9-0.5c-10.8-2.2-21.8-3.7-32.8-5.5c-2.6-0.4-5.2-0.5-7.7-1.3
			C466.3,782.5,465.7,781.4,466.6,779.4z M281.3,546.4c0.1-6.2,0.4-12.3,0.8-18.4c1-12.6,3.2-25.1,6.3-37.3
			c4.1-16.3,9.9-32,17.3-47.2c8.6-17.6,19.2-33.8,31.7-48.8c6.5-7.8,13.5-15.1,20.9-22c11.3-10.6,23.6-19.9,36.9-27.9
			c14.2-8.6,29.3-15.7,44.8-21.6c5.3-2,10.8-3.6,16.5-4.2c12-4.4,24.5-6.8,37.2-8c12.1-1.2,24.2-1.7,36.3-1.1
			c9.4,0.4,18.8,1.3,28.2,2.8c29.4,4.8,56.9,14.8,82.8,29.4c17.2,9.7,32.5,21.8,46.6,35.5c12.3,12,23.4,25,32.7,39.5
			c0.6,0.9,2,2.2,1.3,2.7c-0.9,0.7-2.4-0.1-3.5-0.7c-0.2-0.1-0.4-0.2-0.6-0.3c-9.1-5.6-18.8-9.9-28.9-13.3c-20.7-7-42-9.2-63.8-7.8
			c-15,0.9-29.7,3-44.3,6.5c-9.5,2.3-19.1,4.8-28.1,8.8c-10,4.4-18.4,10.9-25.5,19.2c-7.6,9-12.8,19.4-17.4,30.1
			c-5.9,13.7-10.2,28.1-14.5,42.4c-4.7,15.7-9.3,31.5-12.1,47.8c-0.5,3.2-1.2,6.4-1.8,10c-1.9-2.5-3.5-4.7-5.2-6.8
			c-1.6-2.1-3.2-2.3-5.3-0.7c-2,1.5-2.1,2.5-0.4,4.8c8.3,11.3,16.6,22.6,24.8,34c12.4,17.1,26.9,31.9,44.1,44.3
			c9.9,7.2,19.4,15,27.6,24.2c8.4,9.4,15.9,19.4,20.9,31.2c1.9,4.5,3.4,9.1,4.3,13.9c-0.2,2.9-1.7,4.8-4.1,6.3
			c-4,2.4-8.3,4.1-12.8,5.2c-8.3,2.1-16.9,3.3-25.4,4.5c-9.2,1.3-18.5,1.2-27.8,0.1c-5.9-0.7-11.9-1.6-17.8-2.5
			c-4.9-0.8-9.7-1.5-14.1-4.2c-14.9-9.3-29.8-18.5-44.7-27.8c-1.6-1-2.3-0.8-3.2,0.7c-0.5,0.8-1,1.5-1.4,2.3c-0.7,1.1-0.5,2,0.5,2.8
			c1.3,1,2.6,2,3.8,3c4.3,3.8,8.6,7.6,12.9,11.4c6.1,5.4,12.8,9.8,20.9,11.6c1.8,0.4,2.2,1.3,1.9,3.1c-0.4,2.6-0.8,5.1-1,7.7
			c-0.7,8.6-3,16.7-7.1,24.3c-4,7.3-8.8,14.2-12.7,21.6c-1.1,2.1-2.7,2.7-4.7,2.1c-8-2.6-16.1-5-24-8.2c-12-4.9-23.5-10.7-34.5-17.4
			c-15.4-9.3-29.4-20.3-42.4-32.8c-9.6-9.2-18.3-19.1-26.2-29.8c-11.2-15.2-20.4-31.5-27.8-48.9c-6.1-14.5-10.7-29.5-13.9-44.9
			c-2-9.4-3.3-18.8-4.3-28.3C281.4,561.3,281.2,553.9,281.3,546.4z"/>
		<path class="st14" d="M584.5,708.4c-7.2,1.1-14.4,1.9-21.7,2.1c-7.1,0.2-14.2,0-21.2-0.6c-11.1-0.9-22.1-2.8-32.9-5.7
			c-14.8-3.9-29-9.7-42.4-17.2c-8.8-5-17.2-10.6-25.2-16.8c-5.6-4.3-10.9-9-16-13.9c-11.3-11-21.4-23-30-36.2
			c-7.7-11.8-14.1-24.2-19.3-37.2c-4.2-10.6-7.6-21.5-10.2-32.7c-1.6-6.7-2.8-13.5-3.8-20.4c-1.3-9-1.9-18-2.2-27.1
			c-0.2-7.3,0.2-14.7,0.8-22.1c1.2-14.5,3.9-28.7,7.9-42.6c3.7-12.8,8.5-25.2,14.5-37.1c4.9-9.7,10.5-19,16.8-27.8
			c2.4-3.3,5-6.5,7.5-9.8c4.3-5.4,9.1-10.4,13.9-15.3c5-5,10.4-9.7,16-14.1c6-4.8,12.1-9.4,18.3-13.9c0.5-0.4,1.1-0.6,1.3-1.2
			c12-4.4,24.5-6.8,37.2-8c12.1-1.2,24.2-1.7,36.3-1.1c9.4,0.4,18.8,1.3,28.2,2.8c29.4,4.8,56.9,14.8,82.8,29.4
			c17.2,9.7,32.5,21.8,46.6,35.5c12.3,12,23.4,25,32.7,39.5c0.6,0.9,2,2.2,1.3,2.7c-0.9,0.7-2.4-0.1-3.5-0.7
			c-0.2-0.1-0.4-0.2-0.6-0.3c-9.1-5.6-18.8-9.9-28.9-13.3c-20.7-7-42-9.2-63.8-7.8c-15,0.9-29.7,3-44.3,6.5
			c-9.5,2.3-19.1,4.8-28.1,8.8c-10,4.4-18.4,10.9-25.5,19.2c-7.6,9-12.8,19.4-17.4,30.1c-5.9,13.7-10.2,28.1-14.5,42.4
			c-4.7,15.7-9.3,31.5-12.1,47.8c-0.5,3.2-1.2,6.4-1.8,10c-1.9-2.5-3.5-4.7-5.2-6.8c-1.6-2.1-3.2-2.3-5.3-0.7
			c-2,1.5-2.1,2.5-0.4,4.8c8.3,11.3,16.6,22.6,24.8,34c12.4,17.1,26.9,31.9,44.1,44.3c9.9,7.2,19.4,15,27.6,24.2
			c8.4,9.4,15.9,19.4,20.9,31.2c1.9,4.5,3.4,9.1,4.3,13.9C589.5,707.8,587,708,584.5,708.4z M451,542.4c0.7,0,1.3-0.2,1.9-0.4
			c2.4-1,2.9-2.6,1.3-4.7c-4.3-5.8-8.7-11.5-13-17.3c-6.6-8.8-13.3-17.5-19.9-26.3c-0.4-0.5-0.8-1.1-1.3-1.5
			c-1.7-1.7-3.6-1.6-5.2,0.2c-1.2,1.4-2,3.2-3,4.8c-1.5,2.6-2.9,5.2-4.5,7.8c-1.8,3-1.6,6,0.5,8.7c6.7,8.7,13.4,17.5,20.1,26.1
			c2,2.6,5,3.4,8.1,3.5c2.5,0,5-0.3,7.5-0.4C446.1,542.7,448.5,542.5,451,542.4z M417.9,544.4c0.4,0,0.8,0,1.2-0.1
			c3.2-0.9,4.9-2.7,2.6-5.9c-4.3-6.1-8.7-12.1-13.2-18.1c-2.1-2.8-5.1-2.7-6.8,0.4c-3.6,6.6-7.2,13.3-10.7,20
			c-1.4,2.7-0.3,4.7,2.8,4.9c4.5,0.4,8.9-0.5,12.5-0.5C410.7,544.9,414.3,544.7,417.9,544.4z"/>
		<path class="st16" d="M518.6,790.5c-3.3,0.1-6.5,0.2-9.9-0.5c-10.8-2.2-21.8-3.7-32.8-5.5c-2.6-0.4-5.2-0.5-7.7-1.3
			c-2.1-0.7-2.6-1.8-1.7-3.8c0.4-1,1-2,1.6-2.9c3.1-5,6.2-10,9.1-15.2c6-10.9,10.1-22.3,9.9-34.9c0-1.7,1.1-2.5,2.8-2
			c8.4,2.5,16.9,3.9,25.6,4.9c9,1,18.1,2.3,27.2,1.2c4.3-0.5,8.6-1.1,12.8-1.5c7.5-0.7,14.9-1.6,22.1-3.9c5.8-1.8,11.5-4,16.4-7.7
			c3.8-2.9,5.6-6.6,5-11.5c-0.3-2.6-1.1-5-1.9-7.4c-4.8-15.1-12.8-28.3-23.3-40.1c-8.2-9.1-17.6-16.8-27.3-24.2
			c-21.4-16.4-40.1-35.3-55-57.9c-2.5-3.8-3.3-7.4-2.9-11.8c0.8-8.1,2.3-16.1,4.1-24c4.6-20.3,10.7-40.2,17.3-59.9
			c4.7-14,10.6-27.5,19-39.8c5.8-8.5,12.9-15.5,22.6-19.6c19-8.1,38.7-13.1,59.2-15.3c9-1,18-1.4,27-1.4c2.9,0,5.9,0.1,8.8,0.3
			c4.5,0.4,8.9,1.1,13.4,1.6c9.8,1,19.3,3,28.6,6.5c12,4.5,23.1,10.7,34.3,16.8c6.4,3.4,10.9,8.5,13.9,15c4.3,9.3,8.6,18.7,12.9,28
			c0.2,0.4,0.4,0.9,0.4,1.4c0.1,0.9-0.2,1.3-1.3,1c-2-0.7-4.1-1.4-6.2-1.9c-10.1-2.7-20.2-3.1-30.2-0.3c-8.6,2.4-16,7.1-22.5,13.1
			c-15.3,14.1-20.2,31.5-16.4,51.6c0.8,4.1,0.4,5-3.5,6.6c-4.4,1.8-7.8,4.7-9.4,9.3c-2.3,6.4-1.9,12.8,1.4,18.8
			c2.9,5.2,7.4,8.1,13.5,8.3c4.3,0.1,8.5,0.3,12.8,0.6c10.5,0.6,21.1,1.2,31.6,1.8c11.5,0.7,23,1.4,34.6,2.1
			c3.4,0.2,4.3,1.3,3.7,4.7c-3.6,20-9.3,39.4-17.5,58.1c-10.5,24-24.6,45.6-42.5,64.8c-17.5,18.8-37.6,34.3-59.9,47.1
			c-27.6,16-57.6,24.6-89.1,28.7c-6.8,0.9-13.6,1.3-19.5,1.6C525.4,790.1,522,790.4,518.6,790.5z M523.8,516.2
			c1.1,31.4,27.5,55.3,58.2,54.1c31.1-1.2,55.4-27.3,53.9-58.7c-1.5-31.5-28-54.7-58.4-53.4C545.3,459.7,522.7,486.7,523.8,516.2z"
			/>
		<path class="st17" d="M591.9,706.9c-2.4,0.9-5,1.1-7.5,1.4c-7.2,1.1-14.4,1.9-21.7,2.1c-7.1,0.2-14.2,0-21.2-0.6
			c-11.1-0.9-22.1-2.8-32.9-5.7c-14.8-3.9-29-9.7-42.4-17.2c-8.8-5-17.2-10.6-25.2-16.8c-5.6-4.3-10.9-9-16-13.9
			c-11.3-11-21.4-23-30-36.2c-7.7-11.8-14.1-24.2-19.3-37.2c-4.2-10.6-7.6-21.5-10.2-32.7c-1.6-6.7-2.8-13.5-3.8-20.4
			c-1.3-9-1.9-18-2.2-27.1c-0.2-7.3,0.2-14.7,0.8-22.1c1.2-14.5,3.9-28.7,7.9-42.6c3.7-12.8,8.5-25.2,14.5-37.1
			c4.9-9.7,10.5-19,16.8-27.8c2.4-3.3,5-6.5,7.5-9.8c4.3-5.4,9.1-10.4,13.9-15.3c5-5,10.4-9.7,16-14.1c6-4.8,12.1-9.4,18.3-13.9
			c0.5-0.4,1.1-0.6,1.3-1.2c-5.7,0.7-11.2,2.2-16.5,4.2c-15.6,5.9-30.6,13-44.8,21.6c-13.2,8-25.5,17.4-36.9,27.9
			c-7.4,6.9-14.4,14.2-20.9,22c-12.5,15-23.2,31.2-31.7,48.8c-7.4,15.1-13.2,30.8-17.3,47.2c-3.1,12.3-5.3,24.7-6.3,37.3
			c-0.5,6.1-0.8,12.3-0.8,18.4c-0.1,7.5,0.1,14.9,0.9,22.3c1,9.5,2.3,18.9,4.3,28.3c3.2,15.4,7.8,30.4,13.9,44.9
			c7.3,17.4,16.6,33.7,27.8,48.9c7.9,10.7,16.6,20.6,26.2,29.8c13,12.5,27,23.5,42.4,32.8c11.1,6.7,22.6,12.4,34.5,17.4
			c7.8,3.2,15.9,5.6,24,8.2c2,0.6,3.6,0,4.7-2.1c3.9-7.4,8.6-14.3,12.7-21.6c4.2-7.6,6.4-15.7,7.1-24.3c0.2-2.6,0.6-5.2,1-7.7
			c0.3-1.8-0.2-2.7-1.9-3.1c-8.1-1.8-14.8-6.3-20.9-11.6c-4.3-3.8-8.6-7.6-12.9-11.4c-1.2-1.1-2.5-2-3.8-3c-1-0.8-1.1-1.7-0.5-2.8
			c0.5-0.8,1-1.5,1.4-2.3c1-1.6,1.7-1.7,3.2-0.7c14.9,9.3,29.9,18.5,44.7,27.8c4.4,2.7,9.2,3.5,14.1,4.2c5.9,0.9,11.8,1.8,17.8,2.5
			c9.2,1.1,18.6,1.3,27.8-0.1c8.5-1.2,17-2.4,25.4-4.5c4.5-1.1,8.8-2.8,12.8-5.2C590.2,711.8,591.8,709.8,591.9,706.9z"/>
		<path class="st14" d="M758.9,576c-9.4-2.8-18.8-5.7-28.2-8.5c-16.8-4.9-33.7-9.6-50.6-13.9c-2.1-0.5-4.1-0.9-6.3-0.5
			c-1.5,0.3-2.7,1-3.6,2.2c-2.9,3.9-2.3,11,1.3,14.3c1.8,1.7,4,2.2,6.3,2.3c9.3,0.5,18.5,0.9,27.8,1.4c8.8,0.5,17.6,1,26.5,1.5
			c8.7,0.5,17.3,1,26,1.5c0.3,0,0.7,0,1-0.1C758.9,576.2,758.9,576.1,758.9,576z"/>
		<path class="st18" d="M745.1,508.3c0.3,3.5,0.8,7.3,2.2,10.8c2.3,5.6,6.9,8.5,12.4,9.8c2.6,0.6,4.8-1,6.4-3.1
			c2.3-3,2.1-6.6,1.8-10.1c-0.4-4.6-1.5-9-3.3-13.2c-2.3-5.7-6.8-8.9-12.1-11.3c-0.6-0.3-1.1-0.1-1.6,0c-2.9,0.8-4.7,2.8-5.5,5.7
			C744.5,500.6,744.8,504.3,745.1,508.3z"/>
		<path class="st17" d="M443.6,542.8c2.4-0.2,4.9-0.3,7.3-0.5c0.7,0,1.3-0.2,1.9-0.4c2.4-1,2.9-2.6,1.3-4.7
			c-4.3-5.8-8.7-11.5-13-17.3c-6.6-8.8-13.3-17.5-19.9-26.3c-0.4-0.5-0.8-1.1-1.3-1.5c-1.7-1.7-3.6-1.6-5.2,0.2
			c-1.2,1.4-2,3.2-3,4.8c-1.5,2.6-2.9,5.2-4.5,7.8c-1.8,3-1.6,6,0.5,8.7c6.7,8.7,13.4,17.5,20.1,26.1c2,2.6,5,3.4,8.1,3.5
			C438.6,543.3,441.1,543,443.6,542.8z"/>
		<path class="st17" d="M406.2,545.2c4.5-0.3,8.1-0.5,11.7-0.7c0.4,0,0.8,0,1.2-0.1c3.2-0.9,4.9-2.7,2.6-5.9
			c-4.3-6.1-8.7-12.1-13.2-18.1c-2.1-2.8-5.1-2.7-6.8,0.4c-3.6,6.6-7.2,13.3-10.7,20c-1.4,2.7-0.3,4.7,2.8,4.9
			C398.2,546.1,402.6,545.2,406.2,545.2z"/>
		<path class="st19" d="M635.9,511.6c1.5,31.4-22.8,57.5-53.9,58.7c-30.7,1.2-57.1-22.7-58.2-54.1c-1.1-29.5,21.5-56.5,53.7-58
			C607.9,456.9,634.4,480.1,635.9,511.6z M591.9,508.1c1.4,3.3,3.6,5.8,6.8,7.5c2.9,1.5,5.9,2.5,9.1,3c5.8,0.9,10.4-2.8,10.6-8.7
			c0.2-6.7-1.1-13.2-4.1-19.2c-3-6-8.3-9.5-14.8-10.9c-4.7-1-8.5,1.6-9.6,6.3c-0.8,3.2-0.5,6.5-0.3,9.8
			C589.9,500,590.3,504.2,591.9,508.1z"/>
		<path class="st18" d="M589.6,495.9c0.3,4.2,0.7,8.3,2.3,12.2c1.4,3.3,3.6,5.8,6.8,7.5c2.9,1.5,5.9,2.5,9.1,3
			c5.8,0.9,10.4-2.8,10.6-8.7c0.2-6.7-1.1-13.2-4.1-19.2c-3-6-8.3-9.5-14.8-10.9c-4.7-1-8.5,1.6-9.6,6.3
			C589.2,489.3,589.5,492.6,589.6,495.9z"/>
	</g>
	<g>
		<g>
			<circle class="st20" cx="309.8" cy="422.6" r="179.9"/>
			<path class="st20" d="M309.8,611c-103.9,0-188.5-84.6-188.5-188.5c0-103.9,84.6-188.5,188.5-188.5s188.5,84.6,188.5,188.5
				C498.3,526.5,413.7,611,309.8,611z M309.8,251.3c-94.4,0-171.3,76.8-171.3,171.3c0,94.4,76.8,171.3,171.3,171.3
				S481.1,517,481.1,422.6C481.1,328.1,404.2,251.3,309.8,251.3z"/>
		</g>
	</g>
	<path class="st21" d="M485.1,420c0,1.8,0,3.5,0,5.3c0,1.5-0.1,3-0.1,4.6c-0.2,4.4-0.6,8.8-1.1,13.2c-1.3,10.7-3.5,21.3-6.7,31.6
		c-10.7,33.8-29.7,61.9-57.2,84.3c-17.8,14.5-37.8,25-59.7,31.6c-13.2,4-26.6,6.3-40.3,7.1c-1.6,0.1-3.2,0-4.7,0.3
		c-3.6,0-7.2,0-10.9,0c-0.4-0.2-0.7-0.1-1.1-0.1c-7-0.2-13.9-0.9-20.8-2c-13.3-2.1-26.3-5.7-38.8-10.8c-26.1-10.7-48.4-26.6-66.7-48
		c-25.9-30.4-39.9-65.6-42.2-105.5c-0.7-12.8,0.1-25.6,2.3-38.3c3.1-17.9,8.8-35,17.2-51.1c13.4-25.7,32-46.9,55.8-63.4
		c14-9.8,29.2-17.3,45.5-22.6c14.8-4.8,29.9-7.6,45.4-8.4c9.8-0.5,19.5-0.2,29.2,1c10.3,1.2,20.5,3.3,30.5,6.3
		c29.3,8.9,54.5,24.4,75.7,46.5c17.6,18.3,30.5,39.4,38.9,63.3c4.1,11.6,6.9,23.5,8.4,35.6c0.7,5,1,10.1,1.3,15.2
		C485.1,417,485.1,418.5,485.1,420z M270.5,325.2c-13.6,0-27.3,0-40.9,0c-0.5,0-1,0-1.5,0c-1.3,0.1-1.6,0.3-1.6,1.6
		c0,0.4,0,0.9,0,1.3c0,19.2,0,38.3,0,57.5c0,2.8,0,2.9-2.8,2.9c-7.6,0-15.1,0-22.7,0c-1.8,0-1.9,0.1-1.9,1.9c0,6.1,0,12.2,0,18.3
		c0,0.4,0,0.9,0.1,1.3c0,0.7,0.4,1,1.1,1c0.3,0,0.7,0,1.1,0c7.8,0,15.6,0,23.4,0c1.7,0,1.8,0.2,1.8,1.8c0,6.7,0,13.3,0,20
		c0,2.1-0.2,2.3-2.3,2.3c-8.1,0-16.1,0-24.2,0c-0.5,0-1-0.1-0.9,0.7c0,6.7,0,13.4,0,20.1c0,1.6,0.3,1.8,1.9,1.8c7.7,0,15.4,0,23.1,0
		c0.3,0,0.6,0,1,0c1.2,0,1.4,0.3,1.4,1.4c0,0.4,0,0.8,0,1.2c0,19.5,0,39,0,58.4c0,1.4-0.2,1.3,1.3,1.3c24.6,0,49.2,0,73.9,0
		c2.3,0,4.6,0,6.9-0.1c10.5-0.3,20.7-1.7,30.8-4.8c11.6-3.5,22.3-8.5,32-15.8c13.9-10.5,24.4-23.7,30.6-40.1
		c0.4-1.2,1.4-1.8,2.7-1.8c6.9,0,13.8,0,20.8,0c2,0,2.5-0.5,2.5-2.5c0-4.1-0.1-8.3,0-12.4c0.1-2.1-0.2-4.1,0.3-6.2
		c0.2-1-0.1-1.3-1.2-1.3c-5.4,0-10.7,0-16.1,0c-2.3,0-2.5-0.2-2.3-2.5c0.5-6.5,0.5-13,0-19.5c-0.2-1.8,0.1-2.1,1.9-2.1
		c4.8,0,9.5,0,14.3,0c0.4,0,0.8,0,1.1,0c1.4-0.1,2-0.6,2-2c0-6.2,0-12.4,0-18.7c0-1.6-0.3-1.9-1.8-1.9c-6.9,0-13.8,0-20.7,0
		c-1.3,0-2.5-0.7-2.9-1.9c-1.7-4.9-4-9.5-6.6-13.9c-8.9-14.8-21-26.4-36.3-34.6c-16-8.6-33.1-12.7-51.2-12.9
		C295.8,325.1,283.1,325.2,270.5,325.2z"/>
	<path class="st22" d="M485,415.5c0,0,0.1,0,0.1,0c0,1.5,0,3,0,4.6C485.1,418.5,485.1,417,485,415.5z"/>
	<path class="st22" d="M485.1,429.8L485.1,429.8l-0.1,0c0-1.5,0.1-3,0.1-4.6C485.1,426.8,485.1,428.3,485.1,429.8z"/>
	<path class="st23" d="M313.3,389c-20.7,0-41.4,0-62,0c-2.8,0-2.8,0-2.8-2.8c0-12.5,0-24.9,0-37.4c0-2.6,0.2-2.8,2.8-2.8
		c19.4,0,38.8,0,58.3,0c19.1,0,36,6.1,50.7,18.3c7.3,6,13,13.4,17.3,21.8c0.3,0.5,0.4,1,0.4,1.6c-0.1,1.2-0.2,1.3-1.6,1.3
		C355.2,389,334.2,389,313.3,389z"/>
	<path class="st23" d="M311,457.8c19.4,0,38.8,0,58.2,0c2.4,0,4.8-0.2,7.3-0.1c1.6,0.1,2.1,0.4,1.3,2.2c-0.7,1.6-1.6,3.1-2.5,4.6
		c-6.7,11-15.7,19.7-27.2,25.7c-4.2,2.2-8.5,4.1-13,5.5c-4.5,1.4-9,2.6-13.7,3.2c-4,0.5-7.9,1.3-11.9,1.4c-19.5,0.1-38.9,0-58.4,0
		c-2.6,0-2.7-0.1-2.7-2.7c0-12.3,0-24.6,0-36.9c0-0.6,0.1-1.2,0.1-1.8c0.1-0.6,0.4-0.9,1.1-1c0.6,0,1.2,0,1.8,0
		C271.3,457.8,291.2,457.8,311,457.8z"/>
	<path class="st23" d="M316.7,435c-21.9,0-43.8,0-65.6,0c-2.7,0-2.7,0-2.7-2.7c0-6.3,0-12.5,0-18.8c0-0.3,0-0.6,0-0.9
		c0.1-1.3,0.5-1.7,1.9-1.8c0.2,0,0.5,0,0.7,0c43.8,0,87.7,0,131.5,0c2.1,0,2.5,0.3,2.7,2.4c0.5,6.7,0.5,13.4-0.1,20
		c-0.1,1.3-0.4,1.6-1.8,1.7c-0.3,0-0.6,0-1,0C360.5,435,338.6,435,316.7,435z"/>
	<rect x="199" y="309.5" class="st21" width="231.6" height="219.5"/>
	<g>
		<path class="st18" d="M409.1,422c0,18.5,0,37,0,55.5c0,1.3-0.4,2.1-1.6,2.7c-32.1,18.6-64.2,37.2-96.3,55.9c-1,0.6-1.7,0.6-2.8,0
			c-32.2-18.5-64.4-37-96.6-55.5c-1.1-0.6-1.4-1.4-1.4-2.6c0-37.1,0-74.2,0-111.3c0-1.2,0.4-1.9,1.5-2.6
			c32.2-18.6,64.4-37.3,96.5-56c0.9-0.6,1.6-0.6,2.6,0c32.2,18.6,64.5,37.1,96.8,55.6c1.2,0.7,1.3,1.5,1.3,2.6
			C409.1,385,409.1,403.5,409.1,422z M367,422.1c0-10.4,0-20.8,0-31.2c0-1.2-0.2-1.9-1.4-2.6c-18.3-10.4-36.6-20.9-54.9-31.4
			c-0.8-0.5-1.4-0.5-2.2,0c-18.2,10.6-36.4,21.2-54.7,31.8c-1.1,0.6-1.3,1.3-1.3,2.5c0,20.9,0,41.8,0,62.7c0,1.3,0.4,1.9,1.5,2.5
			c18.1,10.4,36.2,20.8,54.3,31.2c1.1,0.7,1.9,0.7,3.1,0c17.9-10.5,35.8-20.9,53.8-31.3c1.3-0.7,1.7-1.6,1.7-3
			C367,442.8,367,432.4,367,422.1z"/>
		<path class="st21" d="M367,422.1c0,10.3,0,20.7,0,31c0,1.5-0.4,2.3-1.7,3c-17.9,10.4-35.9,20.8-53.8,31.3c-1.2,0.7-2,0.6-3.1,0
			c-18.1-10.4-36.2-20.8-54.3-31.2c-1.1-0.6-1.5-1.3-1.5-2.5c0-20.9,0-41.8,0-62.7c0-1.1,0.2-1.8,1.3-2.5
			c18.2-10.6,36.5-21.2,54.7-31.8c0.8-0.5,1.4-0.5,2.2,0c18.3,10.5,36.5,21,54.9,31.4c1.2,0.7,1.4,1.4,1.4,2.6
			C367,401.2,367,411.7,367,422.1z"/>
	</g>
</g>
<g id="Layer_2">
</g>
</svg>
