<?xml version="1.0" encoding="utf-8"?>
<!-- Generator: Adobe Illustrator 25.2.1, SVG Export Plug-In . SVG Version: 6.00 Build 0)  -->
<svg version="1.1" id="Layer_1" xmlns="http://www.w3.org/2000/svg" xmlns:xlink="http://www.w3.org/1999/xlink" x="0px" y="0px"
	 viewBox="0 0 1374.9 649" style="enable-background:new 0 0 1374.9 649;" xml:space="preserve">
<style type="text/css">
	.st0{fill:#0C0A09;}
	.st1{fill:#DC8563;}
	.st2{fill:#FDFDFD;}
	.st3{fill:#FCFCFD;}
	.st4{fill:#9F5F56;}
	.st5{fill:#A7BDD8;}
	.st6{fill:#0C0706;}
	.st7{fill:#9D5E55;}
	.st8{fill:#D58260;}
	.st9{fill:#9E5F55;}
	.st10{fill:#9D5E54;}
	.st11{fill:#D17F5E;}
	.st12{fill:#A4B7CF;}
	.st13{fill:#2F1C17;}
	.st14{fill:#D78361;}
</style>
<g id="Penguins_1">
	<path class="st0" d="M889.9,337.1c2.3-1.5,4.3-3.3,5.9-5.5c2.9-3.5,5.6-7,8.4-10.7c1.4-2,3.3-3.7,5.5-4.8c1.7-1,3.8-0.7,5.2,0.7
		c1.5,1.4,1.8,3.7,0.6,5.4c-7,12-14.7,23.6-25.4,32.6c-2.9,2.4-5,5.6-6,9.2c-2.8,8.7-6.2,17.2-10.3,25.4c-4.2,8.2-7.3,17-10.7,25.6
		c-2.2,5.6-5.6,10.6-10,14.7c-11.2,10.4-23.7,19.2-36.2,27.9c-5.6,3.7-11.7,6.5-18.2,8.2c-10.4,3.4-21,5.8-31.8,7.3
		c-3.9,0.5-7.7,1.5-11.4,3c-15.6,5.8-31.9,8.4-48.4,9.8c-15.1,1.4-30.3,1.5-45.4,0.6c-12.3-0.9-24.5-1.3-36.8-2.2
		c-1.7-0.2-3.3,0-5,0.3c-3.9,1-8,0.9-11.9-0.3c-9.5-2.8-18.6-7-27-12.3c-10.6-6.7-21.7-12.7-30.9-21.5c-2.2-2.1-4.3-4.3-6.5-6.4
		c-1.3-1.3-3.1-1.8-4.8-1.5c-3.9,0.5-7.8-0.4-11.7-0.9c-2-0.4-3.6-1.8-4.2-3.7c-0.9-2.4,0.8-3.7,3-4.1c1.4-0.3,1.8-0.6,0.7-1.8
		c-5.5-6.1-9.1-13.5-14.1-20c-2.9-4.1-6-8-9.4-11.7c-4-4-5.3-9.6-7.7-14.5c-1.9-3.7-3.4-7.5-4.7-11.5c-0.4-1.1-0.7-2.2-2.3-2.2
		c-7.9,0.1-13.9-4-19.2-9.1c-3.1-3.1-6.1-6.4-8.8-9.9c-2.5-3-1.5-6.8,2.1-9.3c2.9-1.9,6-1.1,8.1,2.1c0.7,1.3,1.5,2.6,2.4,3.7
		c-0.3-2.1-0.5-4.2-0.8-6.3c-0.6-4.8-0.3-9.7,0.8-14.4c0.5-2.6,1.7-5.1,3.5-7c2.6-2.5,2.7-5.5,2.6-8.7c0-2.4,0-4.9-0.2-7.4
		c-0.9-9.5,4-15.8,11.2-21c6.5-4.7,14.1-6.8,21.6-9.2c3.7-1.2,7.3-2.9,10.7-4.9c9.6-6,19.6-11.3,29.9-15.8c1.3-0.5,2.5-1.2,3.6-1.9
		c3.4-1.8,5.4-5.5,5.1-9.4c-0.7-17.1,2.1-33.7,9.9-49.3c15.6-30.7,46.5-40.8,77.2-25.2c17.4,8.8,30.3,22.6,40.8,38.7
		c0.4,0.6,0.8,1.1,1.1,1.8c0.8,1.5,1.5,1.5,2.5,0.1c2.7-3.7,5.6-7.1,8.7-10.4c10-10.5,21.5-18.7,35.4-23.2
		c24.9-8.1,49.1,0,64.4,21.2c6.4,9,10.9,19.1,13.3,29.9c0.2,2.5,2.3,4.3,4.8,4.3c7.9,1.1,15.8,2.4,23.5,4.1c2.8,0.7,5.4,2,7.6,3.7
		c6.8,5.1,13.2,10.6,17.6,18.1c2.2,3.9,6.1,6.4,8.8,9.8c4.8,6.1,5.9,13.8,8.6,20.9c4,10.8,2.5,21.9,1,32.9c-0.5,3.6-0.5,7,2,10
		C888.9,333,889.6,335,889.9,337.1z M505.8,396.2l-0.1-0.2L505.8,396.2l0.6,0.6c0.1,0.4,0.5,0.8,0.9,0.8l0.6,0.6l0.6,0.6l0.6,0.6
		c0.4,0.6,0.6,1.5,1.8,1.2c0.2-1.1-0.8-1.2-1.4-1.5l-0.7-0.5l-0.6-0.6l-0.6-0.6c-0.2-0.5-0.7-0.7-1.2-0.6c0-0.3-0.3-0.5-0.7-0.5
		C505.9,396.1,505.8,396.1,505.8,396.2L505.8,396.2z M593.8,412.1c-2.2,0.9-4.3,2.1-6.2,3.5c-8.6,7-18.8,11.1-28.6,16.1
		c-2.2,1.1-4.6,1.8-7,2.3c-7.2,1.3-14.6,1.9-22,1.6c-1-0.1-2,0-2.9,0.4c-0.5,0.3-1.1,0.5-1.2,1.2c-0.1,0.7,0.5,1,1.1,1.2
		c1.9,0.8,3.9,1.2,6,1.1c7.5-0.1,14.9-1,22.3-1.8c3.4,0,6.6-1.1,9.3-3.1c3-2.4,6.4-4.3,10-5.5c3.2-1,6.3-2.2,9.3-3.7
		c6.2-3.6,13.1-5.7,20.3-6.3c1.7-0.3,3.4-0.6,5.1-1.1c-3.6-2-7-4.2-10.3-6.7c-0.7-0.4-1.5-0.6-2.3-0.4c0-1.1-0.5-1.8-1.8-1.9
		c-1.3-0.3-2.7-0.7-4-1c-0.8-0.2-2.1,0.1-1.9-1.2c0.1-1.1,1.2-1.2,2.1-1.3c3.7-0.4,7.3,0.6,10.3,2.8c10.3,6.8,22.1,10.9,34.4,12
		c0.6,0,1.3,0,1.4,0.7c0.1,0.7-0.7,1-1.4,1.1c-1,0.2-1.9,0.3-2.9,0.2c-6.2-0.4-12.3-0.5-18.4-2.4c-1.1-0.4-2.4-0.4-3.4,0.2
		c-3.5,1.9-7.2,3.1-11.1,3.7c-2.5,0.3-4.8,1-7,2.1c0.9,0.6,2,0.7,3,0.4c8.8-0.7,17.7,0.2,26.2,2.8c10.5,2.8,21.3,4.1,32.2,4
		c17.3,0,34.3-1.9,50.5-8.8c8.3-3.4,16.9-6,25.7-7.5c2.5-0.6,5-0.8,7.6-0.8c0.8,0,1.8,0.2,1.8,1.2c0,1-1,0.9-1.7,1.1
		c-0.7,0.2-1.5,0.4-2.3,0.6c-1.2-0.1-2.4,0-3.5,0.4c-5.7,1.4-11.3,3.3-16.8,5.6c-17.8,7.6-36.8,11.7-56.1,12.1
		c-14.4,0.3-28.7-1.6-42.6-5.4c-6.8-2-13.9-2.7-21-2.3c-1.4,0.2-2.8,0.1-4.1-0.2c-2.7-0.7-5.6-0.1-7.7,1.6
		c-5.6,1.9-11.6,3.3-16.6,6.7c-4.5,3.1-10,4.4-15.4,3.6c-1.5-0.4-3.2-0.3-4.6,0.5c3.6,3.3,7.3,6.4,11.2,9.2c0.2,0.8,1,1.3,1.8,1.3
		c0.8,1,1.8,1.8,3,2.3c0.3,0.4,0.6,0.7,1,1c7.9,5.9,16.5,10.6,24.9,15.8c5.6,3.4,11.5,6.4,17.6,8.8c2.8,1.1,5.8,2.4,8.8,1.6
		c5.9-1.6,12-1.5,18.1-2.1c9.8-1.1,18.8-4.8,27.9-8.4c8.1-3.3,16.5-5.8,25-7.7c0.9-0.2,2.5-0.9,2.8,0.5s-1.3,1.2-2.2,1.4
		c-6.6,1.8-13.1,4.1-19.5,6.8c-5.3,2.2-10.6,4.5-15.8,6.7l0.2,1.2c36.6,2.1,73,1.4,108.9-11.8c-6.4-0.9-12.9-1.1-19.4-0.5
		c-10.6,1.3-20.7,4.9-31.2,6.4c-2.6,0.4-5.3,1-7.8,1.3c-1,0.1-2.7,0.9-3-0.6s1.4-1.3,2.4-1.7c0.6-0.2,1.3-0.4,2-0.6
		c6.8-1.7,13.6-3.3,20.3-5.2c10.6-3,21.2-5.2,32.3-4c6.3,0.5,12.6,0.7,18.9,0.5c13.2-0.2,26.2-3.9,37.6-10.6
		c10.9-6.6,21.3-14.2,30.9-22.6c4.6-3.8,9.4-7.6,12.1-13.2c3.5-7.2,6.6-14.7,9.4-22.2l0.4-0.6l-0.3-0.1v0.7c-3.1,1.1-4.3,4-6.2,6.3
		c-5,6-8.3,13.1-13.2,19.1c-2.7,3.4-6.1,6.2-10.6,5.1c-3.4-0.8-4.2,0.7-5.3,3c-2.5,5.4-6.8,9.7-12.1,12.3c-0.7,0.4-1.8,1-2.4,0
		s0.4-1.5,1-2.1c1.3-1.3,3.2-2.1,4-4.8c-8.5,3.5-17.2,4.7-24.6,9.2c-10.3,6.3-21.9,6.2-33.2,7.6v-2.1c2.5-0.7,4.9-1.4,7.4-2
		c8-2,16.3-2.5,23.5-7c4.8-3,10.3-4.4,15.6-5.9c4.4-1.2,8.9-2.4,13.3-3.6c1.1-0.3,2.3-0.5,2.8-1.5c2.2-4.8,7-7.7,9.2-12.5
		c1-2.4,2.9-4.3,5.3-5.3l0.4,1.6c-0.8,1.2-1.5,2.5-2.2,3.8c-0.8,1.8-2.7,4.1-1.1,5.3c1.6,1.2,3.8-0.7,5.3-2.2c2.8-2.9,5.1-6.2,7-9.7
		c4.9-7.6,9.4-15.5,18.3-19.4c0.4-0.2,0.7-0.9,1-1.4c4.1-7.9,7.4-16.2,10.1-24.7c0.7-1,0.9-2.2,0.5-3.4c-3.9,3.1-7.8,6.1-11.6,9.2
		c-5.6,4.7-9.9,11-16.6,14.4c-3.9,2-7.7,4.4-11.5,6.5c-8.8,5-17.7,9.6-25.3,16.7c-14.6,13.6-32.3,21-52,23.7
		c-10.4,1.4-20.4,3.9-29.1,10.3c-3.3,2.1-7.1,3.4-11.1,3.8c-2.8,0.5-5.7,0.2-8.4,1.1c-1.8,0-3.5,0-5.3,0c-1.1-0.1-3.1,0.8-3.2-1
		s1.9-1.1,3.1-1.4c0.3,0,0.6-0.1,0.9-0.1c10-1.2,19.8-3,28.2-9.2c4.5-2.9,9.5-4.8,14.8-5.6c7-1.3,14.1-1.5,20.9-3.5
		c8.9-2.6,18.2-4.6,25.6-10.8c5.7-4.4,11.2-9,16.4-14c4.5-4.3,9.7-7.8,15.3-10.3c2.1-1,4.3-2,6.4-3c9.1-4.6,18-9.2,24.6-17.2
		c2.8-3.4,6.8-5.6,10.3-8.3c6.2-4.9,13.6-8,18.9-13.9s10.4-11.8,15.1-18.1c2-2.7,3.8-5.5,5.7-8.3c0.5-0.7,1.3-1.5,0.5-2.3
		c-0.8-0.8-1.8,0-2.6,0.5c-1.6,1-2.9,2.4-3.8,4.1c-6.5,9.8-15.2,17.9-25.5,23.6c-1.9,1.1-3.8,2.5-5.5,4
		c-8.3,7.6-17.8,13.6-28.2,17.9c-6.9,2.6-13.6,5.8-19.9,9.8c-0.8,0.6-1.8,0.6-2.6,0c3.7-3.5,7.9-6.4,12.5-8.7
		c6.6-3.5,13.2-7,19.8-10.6c1.2-0.5,2.2-1.3,3-2.4c2.4-4,5.3-7.8,6.5-12.5c1.5-5.5,6.1-8.8,9.4-13c0.3-0.4,0.8-0.6,1.3-0.5
		c0.8,0.4,0.4,1,0.1,1.5c-1.3,2.5-2.8,4.9-4.6,7.2c-3.1,4.2-4.2,9.2-5.9,13.9h-0.4v0.3l0.3-0.3c1.2,0,1.9-0.9,2.8-1.4
		c4.8-2.9,8.2-7.6,12.9-10.7c3.5-2.3,4.3-5.3,1.8-8.7c-3.2-4.5-3.3-9.2-2.5-14.3c1.8-11.5,1.6-22.9-2.7-34c-1-2.7-2.5-5.1-4.6-7
		c-0.8-0.8-3.1-1.2-2.3-2.5c0.8-1.3,2.1,0.6,3.3,0.7c0.1,0,0.3-0.2,0.4-0.3c-2.5-8.2-8.8-14.1-19.4-15l0,0c-0.1-0.7-0.8-0.6-1.2-0.8
		c-1.2-0.9-2.8-1.5-3.6-2.9c-0.6-1.1-1.2-1-2.1-0.2c-3,2.7-6.7,2.9-10.6,2.5c-5.9-0.7-11.8-1.3-18.1-2c2,2.7,5,4.5,8.3,5.2
		c4.6,1.3,8.9,3.7,12.5,6.9c2.3,2.3,5.1,4,8.1,5.1l0.4,0.2l-0.2-0.4c-0.2-1.5-0.5-2.9-1.1-4.2c-0.2-1-1-2.3,0.3-2.8
		c1.3-0.5,1.6,0.9,2,1.8c0.7,1.3,1.4,2.6,2,3.9c3.3,7.4,7.8,14.3,13.3,20.3c0.8,0.9,1.5,2.8,2.7,2.1s0.9-2.7,0.7-4.1
		c-0.2-1-0.5-1.9-0.9-2.8c-0.7-1.5-1.3-3.1-1.8-4.7c-0.2-0.9-1.2-2.4,0.9-2.7c0.1,1,0.6,1.9,1.3,2.5c4.8,5.3,4.2,11.5,2.7,17.8
		c-1.5,6.3-3,12.8-4.8,19.1c-0.5,1.8,1,5.5-3.4,4.5c-0.1,0-0.3,0.2-0.4,0.4c-2.7,4-5.5,7.9-8.5,12.3c4.2-1.1,5.9-4.5,8.9-6.5
		c0.2,1.2-0.2,2.5-1.1,3.3c-2.8,3.9-6.5,7.1-10.8,9.4c-9.6,4.9-17.4,12.8-22.1,22.5c-1.9,3.8-5.1,6.5-9.1,9.6
		c1.6-4.5,3.5-8.9,5.6-13.2c-0.7-0.5-1.1-0.2-1.5,0c-6.1,1.8-12.1,4-18,6.6c-18.1,7.7-36.7,13.1-56.7,13.4
		c-11-0.1-21.8,2.2-31.8,6.7c-6.2,3.1-12.9,4.9-19.8,5.4c-3.1,0-6.1,0.6-9,1.6c-0.7,0.3-1.6,0.7-2-0.4c-0.4-1,0.4-1.4,1-1.9
		c2.2-1.4,4.5-2.3,7-2.9c1.5,0,2.9-0.3,4.3-0.8h-3.9c-1.5,0-2.9,0-4.4,0.3c-8.8,1-17.7,2.3-26.6,0c-9.5-2.4-19.3-3.9-29.1-4.3
		c-3.7-0.2-7.5-0.9-10.1-3.5c-3.8-3.8-8.2-4.7-13.2-4.5c-2.1,0.2-4.1,0.1-6.2-0.4c-0.6-0.2-1.3-0.3-1.2-1c0.1-0.7,0.8-0.7,1.4-0.7
		c2.1,0.1,4.2-0.3,6.2-1c-3.8-1.6-7.9-2.3-12-2.2c-2.1,0.2-4.1-0.3-5.9-1.4c-3.6-2.5-7.9-3.7-12.2-3.5c-4.7,0.3-9.4-1-13.3-3.8
		l5.5-0.3c-4.2-3-8.7-5.6-13.3-7.8c-6.6-3.1-13-6.5-19.2-10.3c-2.8-1.4-5.4-3.3-7.5-5.6c-5.1-6-11-11.3-17.6-15.6
		c-2.3-1.5-4.9-3.1-5.6-5.8c-1.4-4.1-3.1-8-5.3-11.8c-1.1-1.9-1.6-4.1-1.5-6.2c0-0.8,0.3-1.6,1.3-1.8c0.9-0.2,1.3,0.4,1.5,1.1
		c0.6,1.3,1.4,2.4,2.4,3.3c2.6,4,4.7,8.1,6.5,12.5c7.6-11.8,11.2-15.3,16.1-15.6c-0.2,0.3-0.2,0.6-0.5,0.8
		c-5.2,3.3-8.3,8.4-11.4,13.5c-2.6,4.4-2.4,4.5,1.8,7.4c2,1.3,2.7,0.9,3.5-1.2c1.4-3.5,2-7,4.4-10.3c8.4-11.5,19.1-21,31.4-28
		c4.7-2.7,4.6-2.8,3.1-7.9c0-0.2-0.3-0.4-0.4-0.6c-9.6,8-21.9,11.3-31.3,19.4c-0.5-0.2-0.7-0.7-0.7-1.2c0.6-0.6,1.1-1.3,1.8-1.8
		c7.3-6.1,15.5-11.3,24.1-15.3c5.7-2.5,6-3.6,4-9.5c-0.1-0.4-0.1-0.8-0.1-1.2c0.2-3.1-0.8-6-1-9c-0.1-1.4-0.9-0.9-1.6-0.5
		c-1.8,1.4-3.7,2.5-5.8,3.5c-13.3,5.3-25.4,12.8-37.5,20.5c-7.9,5-15.6,10.4-18.7,20c-0.3,0.9-0.8,1.8-1.9,1.4
		c-1.1-0.4-0.8-1.5-0.7-2.3c0.4-2.5,1.2-4.8,2.3-7c1.2-2.3,2.4-4.6,3.5-6.8l-0.6-0.6c-4.9,2.2-9.3,5.3-13,9.1
		c-2.8,3.1-4.3,7.1-4.2,11.3c0,6,0.8,12,0.2,18c-0.6,3.2,0.9,6.4,3.7,8.1c1.2,0.8,2,2,2.3,3.3c1.1,4.5,2.7,8.8,4.7,13
		c-0.5,0.3-0.8,0.8-0.8,1.4c-1.8-1.1-3.2-2.6-4.1-4.5c-2.6-6.3-7.3-11.2-10.6-17.9c-4,13.3-2.6,24.9,7.6,35.4
		c-8.8-1.9-15.3-5.7-20-12.4c-0.6-0.8-1.1-1.8-2.3-1.2c-1,0.4-1.6,1.6-1.1,2.6c0,0.1,0.1,0.2,0.2,0.4c0.5,1.1,1.1,2.1,1.9,3
		c1.8,1.9,3.5,3.8,5.3,5.6c6.1,6,13.1,9.9,21.9,9.7c1.3-0.1,2.6,0.6,3.4,1.7c3.2,3.7,6.6,7.7,12.1,7.4c7.9-0.4,14.8,2.3,21.6,5.8
		c4.3,2.2,8.2,5.2,13.2,5.9v1.2c-2.2,0.1-4.3-0.3-6.3-1.1c-5.9-2.1-11.8-4.3-17.7-6.3c-1.7-0.8-3.5-1.1-5.4-1c0,0.3,0,0.6,0,0.7
		c0.2,0.3,0.5,0.6,0.8,0.9c5,5,11,8.9,17.6,11.6c5.7,2,11.3,4.6,16.6,7.7c8.4,5.5,17.1,10.5,26.1,14.9c1.4,0.9,3.2,0.9,4.6,0
		c5-2.7,9.6-6,15.1-7.7L593.8,412.1z M862.3,259.3c0.1,0.1,0.1,0.2,0.2,0.4c0,0,0.2,0,0.2-0.1L862.3,259.3c-0.9-2.4-2.3-4.6-4.1-6.4
		c-5.5-6.2-11.7-11.8-20-13.8c-6.9-1.6-13.7,0.4-20.5,1c-1.2,0.1-1.3,0.9-1.2,1.9c0.2,2.9,0.5,5.9,0.6,8.8c-0.1,1.2,0.8,2.2,2,2.4
		c0.1,0,0.3,0,0.4,0c5.9,0.7,11.8,1.8,17.6,3.2c5.6,1.2,10.3,0.5,13.9-4.3c0.3-0.4,0.7-1.1,1.4-0.9s0.6,1,0.3,1.5
		c-1.2,2.2,0.2,3.3,1.8,4.2C856.7,258.5,859.4,259.3,862.3,259.3L862.3,259.3z M546.5,427.4c-0.6-0.7-1.2-0.8-1.8,0h-4.1v-1.1
		c0.5-0.2,0.9-0.3,1.4-0.3c4.1-0.1,8.2,0.1,12.3,0.8c5.9,1.2,10.8-1.9,15.8-4.4c1-0.1,2.2-0.2,2.3-1.3c0-1.1-1.3-1-2.1-1.3
		c-5.7-2.4-11.2-5.2-16.4-8.5c-5.3-3.1-10.3-6.4-16.2-7.9c-0.4-0.3-0.8-0.5-1.3-0.7c-10.6-4.1-19.9-9.9-26.8-19c-0.4-0.6-1-1-1.8-1
		c-3.2-0.1-6.3-0.9-9.2-2.5c1.8,4.4,2,9.6,7.1,12.1c1.6,0.8,3,1.8,4.3,3c4.2,3.9,9.3,6.7,14.9,8c0.8,0.2,2.1,0.1,1.9,1.3
		s-1.5,1.1-2.4,0.9c-3.7-0.4-7.3-1.5-10.7-3.2c-0.7-0.4-1.4-1.4-2.4-0.4c5,6.8,10.2,13.5,14.6,20.7c1.8,2.9,3.5,5.9,6.9,7.5
		c3.2,3.5,7.2,3.2,11.2,2.1c4,0.3,8-0.8,11.3-3.1L546.5,427.4z M830.6,355.6c0.8-0.4,1.5-0.9,2.2-1.4c5.1-4.6,10.1-9.4,16.5-12.3
		c0.7-0.3,1.2-1,1.3-1.8c1.1-4.1,3.3-7.9,6.2-11c1.2-1.2,1.6-2.9,1.2-4.5c-1-4.4-1.9-8.8-2.9-13.2c-0.2-0.8-0.4-1.7,0.5-2
		s1.4,0.5,1.8,1.2c0.7,1.5,1.2,3.1,1.6,4.7c0.7,2.9,1.2,5.9,1.9,9.2c1.8-1.9,4.2-2.4,4.7-5.1c1-5.7,2-11.4,3.2-17.1
		c0.4-1.2,0-2.6-1.1-3.3c-5.9-4.9-10.8-10.9-14.5-17.6c-0.6-1.1-1.6-2-2.8-2.3c-3.8-1.2-7.2-3.3-10-6.1c-2.1-2.2-4.8-3.8-7.7-4.8
		c-5.5-1.6-11.6-2.2-15-8.1c-0.2,0.7-0.3,1.5-0.4,2.3c-1.2,5.2,0.8,8,5.6,10.5c7.3,3.8,15,6.9,21.8,11.8c5.2,3.7,8.3,9.2,12.7,14.3
		c-1.4,0-2.7-0.6-3.7-1.6c-2.5-2.4-5-4.7-7.5-7c-0.7-0.6-1.4-1.9-2.4-1.3c-1,0.6-0.1,1.8,0.1,2.6c3.8,12.5,3.5,25.2,0.9,37.9
		c-0.3,1.5-0.2,4.3-2,4c-1.8-0.3-0.5-2.8-0.4-4.3c0-3.2,1.1-6.4,0.5-10c-2.6,3.3-4.5,7-5.7,11c-3.1,8.2-2.1,17.4-6.7,25.2l-0.2,0.6
		L830.6,355.6z M834.8,323.9c0.3-0.2,0.5-0.6,0.3-0.9c0.8-1.7,1.7-3.3,2.7-4.9c4.3-5.7,4.6-11.9,3.3-18.5c-0.8-3.7-1.4-7.5-1.8-11.3
		c0-1.6-1-3-2.5-3.6c-6.1-3.1-12.3-6.1-18.4-9.4c-2.4-1.3-2.9-0.4-3.2,1.8c-3.5,20.6-11.6,40.2-23.9,57.2c-2.8,4-2.9,4,1.3,6.2
		c0.4,0.2,0.9,0.5,1.3,0.8c0.8,0.5,1.6,1.2,1,2.1c-0.5,0.9-1.4,0.2-2.2,0c-10.5-3.3-21.2-6.1-31.9-8.3c-12.6-2.8-25.3-4.8-38.3-4
		c-15.6,1-31,4.4-45.6,10.1c-2.7,1.1-5.7,1.6-8.6,1.2c-8-0.8-15.9-2.3-23.7-4.5c-17.8-5.5-36.5-7.6-55.1-6.1
		c-3.8,0.3-7.5,0.8-11.5,1.3c0.4-1.8,1.8-2,2.8-2.3c2.5-0.8,5.1-1.4,7.7-2c1.8-0.3,1.9-0.9,0.9-2.3c-2.5-3.4-5.1-6.7-7.3-10.3
		c-5.5-9.1-10.1-18.7-13.5-28.8c-0.5-1.4-0.7-2.3-2.6-1.3c-9.8,5.8-19.1,12.1-26.6,20.8c-1.8,2.3-3.8,4.5-5.9,6.5
		c-2.1,1.4-2.9,4-2,6.3c-0.1,0.7-0.3,1.3-0.6,2c-3.5,4.5-0.3,7,2.4,10.3c4.3,5.4,9.9,8.8,15.7,12.1c9.4,5.5,19.5,9.8,28.7,15.6
		c3.3,2.1,7,3.3,10.8,3.7c1.4,0,2.7,0.5,3.8,1.4c3.8,3.9,9,4,13.9,5c8.2,1.8,15.9,5.3,22.5,10.5c2,1.7,4.5,2.6,7.2,2.6
		c8.2-0.2,16.3,0.5,24.3,2.2c9,1.9,18.3,2.4,27.5,1.3c5.9-0.7,12-1.6,17.8,0.5c2.3,1,5,0.9,7.3-0.3c14.1-7.2,29.3-9.8,45.1-9.4
		c9,0.2,17.9-1.2,26.4-4.2c12-4.2,23.9-9,36.1-12.7c0.8-0.2,1.4-0.6,2-1.2c4.5-5.1,8.8-10.4,8.8-17.8c0.1-2.6,0.6-5.1,1.4-7.5
		c1-3.3,1.8-6.6,2.2-10c0.1,0,0.2-0.2,0.1-0.3C834.9,323.9,834.8,323.8,834.8,323.9L834.8,323.9z M667.8,314.2l-1.4-9.3
		c0.3-0.3,0.3-0.9-0.1-1.2c0,0,0,0,0,0l-0.5-5.8c0.4-0.8,0.4-1.7-0.1-2.4c-0.2-4.1-0.2-8.3,0-12.4c0.4-0.3,0.4-0.9,0.1-1.2
		c1.8-21.9,8.6-43.2,19.9-62c0.7-1.1,0.6-2.5-0.2-3.5c-2.4-3.8-4.7-7.7-7.4-11.4c-9.8-13.7-21.7-25.1-37.3-32.1
		c-20.4-9.2-40.8-5.8-55.1,9.2c-9,9.5-14.1,21-16.8,33.6c-4.8,21.4-3,42.6,3.2,63.5c5,16.8,13,32.6,23.6,46.5
		c0.7,1.4,2.3,2.2,3.8,2.1c10.4-0.5,20.8,0.1,31.1,1.8c7.6,1.1,15.1,2.7,22.6,4.2c6.1,1.6,12.4,1.8,18.7,2.5c0.4,0.1,0.8,0.1,1.2,0
		c1.2-0.1,1.8-0.7,1.2-2C671.4,327.6,669.8,320.7,667.8,314.2L667.8,314.2z M672.7,280.4c-1,9.1-0.9,18.2,0.4,27.3
		c1.1,7.9,3.2,15.6,6.2,23c0.5,1.1,0.7,2.5,2.6,1.9c5.1-1.5,10.2-3,15.3-4.4c0.6,0,1.2-0.1,1.8-0.2c14.2-3,28.7-3.7,43.1-2
		c12.7,1.6,24.6,5.5,36.8,9.3c2,1,4.5,0.2,5.6-1.8c19.3-26,28.4-58.2,25.6-90.5c-0.8-14.8-5.6-29.2-13.8-41.5
		c-12-17.4-28.4-25.6-49.7-22.4c-11.3,1.8-21.1,6.9-29.9,13.9c-17.4,13.8-28.8,31.7-36.3,52.3C675.9,256.6,673.4,268.3,672.7,280.4
		L672.7,280.4z M498.5,379.6l0.1-0.2h-0.1L498.5,379.6z"/>
	<path class="st1" d="M879.2,364.7c-2.7,8.5-6.1,16.8-10.1,24.7c-0.3,0.5-0.5,1.2-1,1.4c-8.8,3.9-13.4,11.8-18.3,19.4
		c-1.9,3.5-4.3,6.8-7,9.7c-1.6,1.5-3.9,3.2-5.3,2.2c-1.3-1,0.3-3.5,1.1-5.3c0.7-1.3,1.4-2.6,2.2-3.8c0.6-0.3,1.3-0.8,1-1.5
		c-0.3-0.8-0.9-0.5-1.4,0c-2.4,1-4.3,2.9-5.3,5.3c-2.2,4.8-7,7.7-9.2,12.5c-0.5,1-1.8,1.2-2.8,1.5c-4.4,1.2-8.9,2.4-13.3,3.6
		c-5.4,1.5-10.9,2.9-15.6,5.9c-7.2,4.6-15.6,5.1-23.5,7c-2.5,0.6-4.9,1.3-7.4,2c-1.3,0.3-1.2,1.2-0.9,2.2c-8.1,2-16.1,4.4-23.9,7.3
		c-12.2,4.4-25.3,5.4-38.1,3c-4.6-0.8-9-2.4-13.8-2.6c-8.4-0.3-16.1,2.9-24.3,3.9c-2.9,0.4-5.8,1.9-8.8,0.4c2.1-1.1,4.9-1.3,6.5-3.8
		c-0.3-0.2-0.7-0.3-1.1-0.4c-0.6,0-1.2,0.1-1.8,0.3c-4.9,1.4-10.1,1.8-15.1,1c-7.3-0.9-14.1-3.7-20.9-5.9
		c-8.9-3.1-18.2-4.8-27.7-5.1c-1.6,0.1-3.3,0.1-4.9-0.1c-4.6-0.8-9-2.4-13.7-2.4l-1,0.2c-0.1-1.1-0.8-1.2-1.6-1
		c-0.2,0-0.5,0.5-0.4,0.6c0.3,1,1.2,1,2.1,1l1,0.2l0.7,0.5c1.7,2.4,4.5,3,6.9,4c5.4,2.3,11.2,2.4,16.9,3.2
		c8.6,1.2,16.9,4.2,25.3,6.3c2.8,0.7,5.6,2.6,8.8,1.2l1.1,0.2c0.3,0.8,0.7,1.1,1.3,0.3l7,0.5l0.1,0.7c-0.4,0-0.8,0-1.2,0.1
		c-8.1,3-16.4,2.7-24.8,1.7c-4.2-0.6-8.4-1.5-12.6-2.2c-0.3,0-0.6,0-0.9,0c-7.8-3.1-16.4-3.9-24-7.9c-1.3-0.7-2.1-0.6-1.6,1.2
		c-1.8,0.1-3.5-0.3-5.1-1.1c-2.9-1.1-5.6-2.9-9-2.4c-1.1-0.5-2.1-1.3-3-2.3c0.1-1.3-0.8-1.3-1.8-1.3c-3.9-2.9-7.7-5.9-11.2-9.2
		c1.4-0.7,3.1-0.9,4.6-0.5c5.4,0.8,10.9-0.5,15.4-3.6c5-3.4,10.9-4.8,16.6-6.7c0.4,0.9,1.3,1.5,2.4,1.6c5.2,0.8,10.6,1,15.8,0.5
		c2-0.2,4.1,0,6,0.8c13.7,4.8,28,7.5,42.4,8.2c8.7,0.4,17.4,0.1,26.1-1c10.7-1.1,21.2-3.9,31-8.5c8.6-4.2,17-9,26.3-11.7
		c0.8-0.2,1.8-0.5,1.8-1.7c0.8-0.2,1.5-0.4,2.3-0.6s1.8,0.1,1.7-1.1c-0.1-1.2-1-1.1-1.8-1.2c-2.6-0.1-5.1,0.2-7.6,0.8
		c-8.8,1.5-17.4,4.1-25.7,7.5c-16.2,6.9-33.1,8.8-50.5,8.8c-10.8,0.1-21.6-1.3-32.1-4c-8.5-2.5-17.4-3.5-26.2-2.8
		c-1,0.3-2.1,0.2-3-0.4c2.2-1.1,4.6-1.9,7-2.1c3.9-0.6,7.7-1.8,11.1-3.7c1-0.6,2.3-0.7,3.4-0.2c6,1.9,12.2,2.1,18.4,2.4
		c1,0,2-0.1,2.9-0.2c0.7-0.1,1.5-0.1,1.4-1.1c-0.1-1-0.8-0.7-1.4-0.7c-12.3-1-24.1-5.2-34.4-12c-3-2.2-6.6-3.2-10.3-2.8
		c-0.9,0.1-2,0.2-2.1,1.3c-0.2,1.3,1.1,1,1.9,1.2c1.3,0.4,2.7,0.7,4,1c0.4,1.1-0.8,1-1.2,1.4c-5.5,1.7-10.1,5-15.1,7.7
		c-1.4,0.9-3.2,0.9-4.6,0c-9-4.5-17.7-9.4-26.1-14.9c-5.3-3.1-10.8-5.6-16.6-7.7c-6.6-2.6-12.6-6.6-17.6-11.6
		c-0.3-0.3-0.5-0.6-0.8-0.9c-0.1-0.1,0-0.4,0-0.7c1.9-0.1,3.7,0.2,5.4,1c5.9,2.1,11.8,4.2,17.7,6.3c2,0.8,4.2,1.1,6.3,1.1
		c0.5,0,1,0,1-0.6c0-0.6-0.6-0.6-1-0.6c-4.9-0.7-8.8-3.7-13.2-5.9c-6.8-3.5-13.7-6.2-21.6-5.8c-5.5,0.3-8.9-3.7-12.1-7.4
		c-0.8-1.1-2.1-1.7-3.4-1.7c-8.8,0.2-15.8-3.6-21.9-9.7c-1.8-1.8-3.5-3.6-5.3-5.6c-0.7-0.9-1.4-1.9-1.9-3c-0.6-0.9-0.3-2.2,0.6-2.8
		c0.1-0.1,0.2-0.1,0.4-0.2c1.2-0.6,1.8,0.4,2.3,1.2c4.7,6.7,11.2,10.6,20,12.4c-10.2-10.5-11.6-22.1-7.6-35.4
		c3.3,6.7,8,11.6,10.6,17.9c2.9,4.1,7,7.2,11.6,9c2.7,0.4,5.2,1.8,7,3.8c7.9,9.1,18.2,14.3,29.1,18.6c-0.8,2-0.2,3,1.9,3.7
		c3.2,1.2,6.3,2.7,9.5,4c1,0.3,1.9,1.1,2.4,2c1.9,4.3,5.3,7.5,8.8,10.6c1.2,1.1,2.4,3,4.6,2.1c3.7,0.2,5.3-0.8,5.3-3.9
		c-0.1-1.1-0.2-2.1-0.5-3.1c0.9,0,1.8,0.1,2.6,0.4c4.9,1.9,9.9,3.5,14.8,5.5c5.8,2,11.5,4.5,16.9,7.3c9.6,5.5,20,7,30.9,6.1
		c1.4,0.1,2.7-0.4,3.8-1.2c11.8-1,23.7-1.2,35.6-0.8c1.2,0.1,2.4,0.4,3.5,0.8c9.3,3.2,18.9,3.5,28.6,2.8c12.2-1,24.2-2.9,36-5.9
		c11.6-2.7,23-5.6,35.1-5.8c7.8-0.2,15.5-2.1,22.5-5.4c3-1.1,5.5-3.1,7.3-5.7c0.3-0.5,1.1-0.9,0.5-1.5c-0.6-0.6-1.2-0.3-1.8,0.2
		c-3.6,2.8-7.8,4.7-12.3,5.4c-4.6,1-9.3,1.8-13.9,2.4c-9.2,1-18.4,1-27.4,3.5c-6.3,1.8-12.8,3.1-19.2,4.5c-15,3.3-30.1,5.7-45.6,3.2
		c-5.1-0.8-9.8-2.9-15-3.1c-11.7-0.4-23.4,0-35.1,0.5c-11.8,0.5-23.6-1.9-34.3-7.1c-7.8-4-15.9-7.3-24.3-9.9
		c-3.7-1.2-7.4-2.7-10.9-4.4c-1.4-0.4-2.3-1.8-2-3.3c0.5-3.5-1.2-7-4.3-8.8c-4.2-1.9-8.5-3.6-12.9-5.1c-0.6-0.2-1.6-0.4-1.8,0.3
		c-0.4,1,0.7,1.3,1.4,1.5c3.5,1.6,7.2,3.1,10.9,4.6c2.8,1.1,4.5,3.9,4.2,6.9c-1.9-0.8-2.9-3.2-5.6-3.5c0.7,1.1,1.1,2,1.6,2.7
		c2.9,4.2,4.8,9,7.5,13.4c0.6,1,1.2,2.5,0.1,3.2c-1.1,0.7-1.8-0.8-2.4-1.6c-2.5-3.4-4.9-6.9-7.4-10.3s-4.4-7.8-10.1-8.4
		c-3.7-0.4-7.4-2.4-11.1-3.7c-8.5-3-16.5-6.8-22.8-13.6c-2.6-2.8-6-4.7-9.8-5.4c-3.3-0.7-6.6-1.4-8.5-4.7c-2-4.2-3.6-8.5-4.7-13
		c-0.3-1.4-1.1-2.6-2.3-3.3c-2.8-1.7-4.2-4.9-3.7-8.1c0.6-6-0.2-12-0.2-18c-0.1-4.2,1.4-8.2,4.2-11.3c3.7-3.9,8.1-7,13-9.1l0.6,0.6
		c-1.2,2.3-2.4,4.5-3.5,6.8c-1.1,2.2-1.9,4.6-2.3,7c-0.1,0.8-0.4,1.9,0.7,2.3c1.1,0.4,1.7-0.5,1.9-1.4c3-9.7,10.8-15,18.7-20
		c12-7.7,24.1-15.2,37.5-20.5c2-1,4-2.2,5.8-3.5c0.8-0.5,1.5-0.9,1.6,0.5c0.2,3,1.2,5.9,1,9c-0.6,0.1-1.1,0.3-1.7,0.5
		c-5,3.2-10.4,5.9-16.1,7.9c-5.8,2.1-12.1,3.2-17,7.6c-2.3,2-4.8,3.8-7,5.7c-4.9,4.2-9,8.8-9.4,15.7c0,0.9-0.4,1.5-1.3,1.6
		c-1.1-0.9-1.9-2-2.4-3.3c-0.3-0.7-0.7-1.2-1.5-1.1c-0.8,0.2-1.2,0.9-1.3,1.8c-0.1,2.2,0.4,4.3,1.5,6.2c2.1,3.7,3.9,7.7,5.3,11.8
		c0.8,2.7,3.4,4.3,5.6,5.8c6.6,4.3,12.5,9.6,17.6,15.6c2.2,2.3,4.7,4.2,7.5,5.6c6.2,3.8,12.6,7.2,19.2,10.3
		c4.7,2.2,9.1,4.8,13.3,7.8l-5.5,0.3c3.9,2.7,8.6,4,13.3,3.8c4.4-0.2,8.6,1,12.2,3.5c1.8,1.1,3.9,1.5,5.9,1.4
		c4.1-0.1,8.2,0.6,12,2.2c-2,0.7-4.1,1-6.2,1c-0.6,0-1.3,0-1.4,0.7s0.6,0.9,1.2,1c2,0.4,4.1,0.6,6.2,0.4c5-0.1,9.4,0.8,13.2,4.5
		c2.6,2.6,6.4,3.3,10.1,3.5c9.8,0.5,19.6,1.9,29.1,4.3c8.9,2.3,17.8,1,26.6,0c1.5-0.2,2.9-0.2,4.4-0.3v0.8c-2.5,0.6-4.9,1.5-7,2.9
		c-0.6,0.5-1.4,0.9-1,1.9c0.4,0.9,1.3,0.7,2,0.4c2.9-1,5.9-1.6,9-1.6c6.9-0.5,13.6-2.3,19.8-5.4c10-4.5,20.8-6.7,31.8-6.7
		c20-0.3,38.6-5.6,56.7-13.4c5.8-2.6,11.8-4.8,18-6.6c0.5-0.1,0.9-0.4,1.5,0c-2.1,4.3-4,8.7-5.6,13.2c4-3,7.3-5.7,9.1-9.6
		c4.7-9.7,12.4-17.7,22.1-22.5c4.3-2.3,8-5.5,10.8-9.4c0.9-0.9,1.3-2.1,1.1-3.3c-3,2-4.7,5.5-8.9,6.5c3-4.4,5.7-8.3,8.5-12.3
		c0.1-0.2,0.3-0.4,0.4-0.4c4.4,1,2.9-2.8,3.4-4.5c1.8-6.3,3.3-12.7,4.8-19.1s2.1-12.3-2.7-17.8c-0.8-0.6-1.2-1.5-1.3-2.5
		c0-1.1-0.4-2.1-1.1-3c-2.4-3.8-4.9-7.5-7.3-11.3c-1.2-2-3.1-3.5-3.3-6c10.6,0.8,16.8,6.8,19.4,15c-0.2,0.1-0.3,0.3-0.4,0.3
		c-1.2,0-2.5-2-3.3-0.7s1.4,1.8,2.3,2.5c2,2,3.6,4.4,4.6,7c4.3,11.1,4.4,22.4,2.7,34c-0.8,5.1-0.8,9.8,2.5,14.3
		c2.5,3.5,1.8,6.4-1.8,8.7c-4.7,3.1-8.1,7.7-12.9,10.7c-0.9,0.5-1.7,1.4-2.8,1.4l0,0c1.8-4.7,2.9-9.7,5.9-13.9
		c1.8-2.2,3.4-4.6,4.6-7.2c0.2-0.5,0.7-1.1-0.1-1.5c-0.5-0.2-1,0-1.3,0.5c-3.3,4.2-7.9,7.5-9.4,13c-1.3,4.7-4.1,8.5-6.5,12.5
		c-0.7,1-1.8,1.9-3,2.4c-6.6,3.5-13.2,6.9-19.8,10.6c-4.6,2.3-8.8,5.2-12.5,8.7c0.8,0.6,1.8,0.6,2.6,0c6.3-3.9,12.9-7.2,19.9-9.8
		c10.3-4.3,19.9-10.4,28.2-17.9c1.7-1.5,3.5-2.9,5.5-4c10.3-5.7,19-13.8,25.5-23.6c0.9-1.6,2.2-3,3.8-4.1c0.8-0.5,1.8-1.4,2.6-0.5
		c0.8,1,0,1.7-0.5,2.3c-1.9,2.8-3.7,5.6-5.7,8.3c-4.7,6.3-9.9,12.3-15.1,18.1s-12.7,9.1-18.9,13.9c-3.5,2.7-7.4,4.9-10.3,8.3
		c-6.7,8-15.6,12.7-24.6,17.2c-2.1,1.1-4.3,2-6.4,3c-5.7,2.5-10.9,6-15.3,10.3c-5.2,4.9-10.7,9.6-16.4,14
		c-7.4,6.1-16.7,8.1-25.6,10.8c-6.8,2-14,2.2-20.9,3.5c-5.3,0.7-10.4,2.6-14.8,5.6c-8.4,6.2-18.2,8-28.2,9.2c-0.3,0-0.6,0-0.9,0.1
		c-1.2,0.3-3.2-0.1-3.1,1.4c0.1,1.5,2,0.9,3.2,1c1.8,0.1,3.5,0,5.3,0c0.2,1.3,1.3,1.1,2.1,1c3.3-0.1,6.6-0.4,9.9-1
		c5.9-1.3,11.5-3.4,16.8-6.2c4.1-2.3,8.5-4.1,13.1-5.3c9.9-2.4,19.9-4.4,29.6-7.4c14.1-4.6,26.7-12.7,36.7-23.6
		c2.9-3.1,6.4-5.5,10.4-7c6.6-2.7,13.5-4.6,19.6-8.6c9.4-6.3,16.8-14.7,24.6-22.6C877.6,365.7,878.1,364.8,879.2,364.7z
		 M693.5,456.4c0.6,1.8,2.4,1.8,3.8,2.3c11.7,3.9,23.3,2.9,34.7-1.2c1.6-0.6,3.7-0.7,4.6-2.7l1.4-0.6c0.9-0.4,2-0.8,1.6-2.1
		c-0.4-1.2-1.6-0.8-2.5-0.5c-8.3,1.8-16.7,2.6-25.1,2.4c-6.4,0.2-12.8,0.1-19.1-0.4c-0.6,0-1.3-0.2-1.5,0.5s0.3,1.1,0.8,1.4
		L693.5,456.4z"/>
	<path class="st2" d="M672.7,280.3c0.7-12,3.2-23.8,7.6-35c7.5-20.6,19-38.6,36.3-52.3c8.8-7,18.6-12.2,29.9-13.9
		c21.3-3.2,37.6,5,49.7,22.4c8.3,12.3,13.1,26.7,13.8,41.5c2.7,32.3-6.4,64.4-25.6,90.5c-1.1,2-3.6,2.8-5.6,1.8
		c-12.1-3.8-24.1-7.7-36.8-9.3c-14.4-1.7-28.9-1-43.1,2c-0.6,0.1-1.2,0.1-1.8,0.2c-2.5-3.4-5.1-6.7-7.4-10.2
		C681.8,306.5,676,293.7,672.7,280.3z"/>
	<path class="st2" d="M653.3,333.4c-7.5-1.4-15-3.1-22.6-4.2c-10.3-1.7-20.7-2.3-31.1-1.8c-1.6,0.1-3.1-0.7-3.8-2.1
		c-10.6-14-18.6-29.7-23.6-46.5c-6.1-20.9-7.9-42.1-3.2-63.5c2.8-12.6,7.8-24.1,16.8-33.6c14.4-15,34.7-18.4,55.1-9.2
		c15.6,7,27.5,18.4,37.3,32.1c2.6,3.7,4.9,7.6,7.4,11.4c0.8,1,0.9,2.4,0.2,3.5c-11.4,18.8-18.2,40.1-19.9,62
		c-0.7,0.4-0.8,0.8-0.1,1.2c-0.2,4.1-0.2,8.3,0,12.4c-0.7,0.5-0.8,1.4-0.3,2.1c0.1,0.1,0.2,0.3,0.4,0.4l0.5,5.8
		c-0.7,0.5-0.5,0.9,0.1,1.2l1.4,9.3c-1,5.5-2.7,10.7-7.3,14.3C658.3,330.2,655.7,331.7,653.3,333.4z"/>
	<path class="st3" d="M531.5,319.9c-0.9-2.3-0.1-4.9,2-6.3c2.2-2,4.2-4.2,5.9-6.5c7.5-8.8,16.9-15,26.6-20.8
		c1.8-1.1,2.1-0.1,2.6,1.3c3.4,10.1,8,19.7,13.5,28.8c2.2,3.5,4.8,6.9,7.3,10.3c1,1.4,0.9,1.9-0.9,2.3c-2.6,0.5-5.2,1.2-7.7,2
		c-1.1,0.3-2.3,0.5-2.8,2.3c3.9-0.5,7.7-1,11.5-1.3c18.6-1.5,37.3,0.5,55.1,6.1c7.8,2.2,15.7,3.7,23.7,4.5c2.9,0.3,5.9-0.1,8.6-1.2
		c14.6-5.7,30-9.1,45.6-10.1c13-0.9,25.7,1.2,38.3,4c10.8,2.2,21.4,5,31.9,8.3c0.7,0.2,1.7,0.8,2.2,0c0.5-0.8-0.3-1.6-1-2.1
		c-0.4-0.3-0.8-0.5-1.3-0.8c-4.1-2.3-4.1-2.3-1.3-6.2c12.2-17,20.4-36.6,23.9-57.2c0.4-2.2,0.8-3.1,3.2-1.8
		c6.1,3.3,12.2,6.3,18.4,9.4c1.5,0.6,2.4,2,2.5,3.6c0.4,3.8,1.1,7.6,1.8,11.3c1.3,6.6,1,12.9-3.3,18.5c-1,1.6-1.9,3.2-2.7,4.9
		c-0.3,0.1-0.5,0.5-0.4,0.8c0,0,0,0.1,0.1,0.1c0.1,0.1,0,0.2-0.1,0.3c0,0,0,0,0,0c-1.1,0.3-1.4,1.3-2,2.1c-2.7,3.9-5.3,7.8-7.7,11.9
		c-4.2,7-10.3,12.5-16.6,17.8c-8.7,7.3-18,13.5-29.5,15.1c-6.8,1-13.5,2.3-20.3,3.3c-11.7,1.6-23.4,3.8-35.2,4.2
		c-1.9,0-3.7,0.6-5.3,1.7c-0.9,0.8-2.2,0.8-3.3,0.2c-4.5-2.4-9.4-2.6-14.3-3c-7.7-0.5-14.4,2.6-21,5.9c-1.7,1-3.7,1.3-5.6,1
		c-3.5-0.7-6.9-1.6-10.4-2c-8.6-1.1-17.2-3-25.9-1c-0.7,0.2-1.4,0-1.9-0.5c-6.2-5.1-13.7-7.6-20.7-11.2c-3.8-2.1-8-3.4-12.3-3.9
		c-3.3-0.4-6.4-1.9-8.8-4.2c-4-3.3-7.6-7.1-12.3-9.4c-7.1-3.4-14.9-5.5-21.7-9.6c-0.2-0.1-0.4-0.1-0.6-0.2
		c-5.2-2.4-10.7-3.9-13.8-9.6c-1.5-2.8-4.4-4.9-6.1-7.8c-0.5-1.1-1.5-1.9-2.7-2.1C534.8,322.4,532.9,321.4,531.5,319.9z"/>
	<path class="st4" d="M604.2,464.8c4.2,0.7,8.4,1.6,12.6,2.2c8.4,1.1,16.7,1.4,24.8-1.7c0.4-0.1,0.8-0.1,1.2-0.1
		c0.5,0.1,1-0.2,1.2-0.7c3.2,0,6.3-0.3,9.4-1.1c3,1.5,5.9,0,8.8-0.4c8.1-1,15.8-4.2,24.3-3.9c4.8,0.2,9.2,1.8,13.8,2.6
		c12.7,2.4,25.9,1.4,38.1-3c7.8-2.9,15.8-5.3,23.9-7.3h0.9c11.3-1.5,22.9-1.4,33.2-7.6c7.4-4.5,16.2-5.6,24.6-9.2
		c-0.9,2.6-2.7,3.5-4,4.8c-0.6,0.6-1.8,1-1,2.1c0.7,1.1,1.8,0.4,2.4,0c5.3-2.6,9.6-7,12.1-12.3c1.1-2.3,2-3.8,5.3-3
		c4.4,1.1,7.8-1.8,10.6-5.1c4.9-6,8.2-13.2,13.2-19.1c1.9-2.3,3.2-5.2,6.2-6.3l0,0c-2.7,7.6-5.9,15-9.4,22.2
		c-2.7,5.5-7.5,9.4-12.1,13.2c-9.7,8.4-20,15.9-30.9,22.6c-11.4,6.7-24.4,10.3-37.6,10.6c-6.3,0.2-12.6,0-18.9-0.5
		c-11.1-1.1-21.8,1-32.3,4c-6.7,1.9-13.5,3.5-20.3,5.2c-0.7,0.2-1.4,0.3-2,0.6c-1,0.4-2.7,0.3-2.4,1.7c0.3,1.3,2,0.7,3,0.6
		c2.6-0.4,5.3-1,7.8-1.3c10.6-1.5,20.6-5.1,31.2-6.4c6.4-0.6,12.9-0.4,19.4,0.5c-35.9,13.2-72.3,13.8-108.9,11.8l-0.2-1.2
		c5.3-2.2,10.6-4.5,15.8-6.7c6.3-2.7,12.8-5,19.5-6.8c0.8-0.2,2.5-0.2,2.2-1.4c-0.3-1.3-1.9-0.7-2.8-0.5c-8.6,1.8-16.9,4.4-25,7.7
		c-9,3.5-18.1,7.3-27.9,8.4c-6,0.7-12.1,0.6-18.1,2.1c-3,0.8-6-0.5-8.8-1.6c-6.1-2.4-12-5.3-17.6-8.8c-8.3-5.2-17-9.9-24.9-15.8
		c-0.4-0.3-0.7-0.7-1-1c3.3-0.5,6.1,1.3,9,2.4c1.6,0.8,3.3,1.2,5.1,1.1c1.7,1.5,3.7,2.6,5.8,3.5c7.6,3.4,16.1,3.4,23.9,6.2
		c0.6,0.5,1.5,0.9,1.8,0c0.2-0.9-1-0.8-1.8-0.8C606.6,465.7,604.7,466.3,604.2,464.8z M610.1,467.6c-0.1,0.1-0.5,0.2-0.5,0.4
		c-0.1,0.6,0.4,0.8,0.8,1c0.4,0.2,0.8,0.1,0.8-0.5C611.2,468,610.7,467.8,610.1,467.6L610.1,467.6z"/>
	<path class="st5" d="M531.5,319.9c1.4,1.5,3.3,2.5,5.4,2.9c1.2,0.3,2.2,1.1,2.7,2.1c1.8,2.9,4.6,5.1,6.1,7.8
		c3.1,5.7,8.7,7.2,13.8,9.6c0.2,0,0.4,0.1,0.6,0.2c6.8,4.1,14.6,6.2,21.7,9.6c4.8,2.3,8.3,6.2,12.3,9.4c2.4,2.3,5.5,3.7,8.8,4.2
		c4.3,0.5,8.5,1.8,12.3,3.9c7,3.5,14.5,6.1,20.7,11.2c0.5,0.5,1.2,0.7,1.9,0.5c8.8-2,17.3,0,25.9,1c3.5,0.4,6.9,1.3,10.4,2
		c1.9,0.4,3.9,0,5.6-1c6.6-3.3,13.3-6.5,21-5.9c4.9,0.3,9.8,0.5,14.3,3c1,0.7,2.3,0.6,3.3-0.2c1.6-1.1,3.4-1.7,5.3-1.7
		c11.9-0.4,23.5-2.6,35.2-4.2c6.8-0.9,13.5-2.3,20.3-3.3c11.4-1.7,20.8-7.8,29.5-15.1c6.2-5.3,12.3-10.7,16.6-17.8
		c2.4-4.1,5-8,7.7-11.9c0.5-0.8,0.9-1.8,2-2.1c-0.4,3.4-1.2,6.8-2.2,10c-0.8,2.4-1.3,5-1.4,7.5c0,7.4-4.3,12.7-8.8,17.8
		c-0.5,0.6-1.2,1-2,1.2c-12.3,3.7-24.1,8.5-36.1,12.7c-8.5,3-17.4,4.4-26.4,4.2c-15.8-0.4-30.9,2.2-45.1,9.4
		c-2.2,1.2-4.9,1.3-7.3,0.3c-5.8-2.2-11.9-1.2-17.8-0.5c-9.2,1.1-18.5,0.7-27.5-1.3c-8-1.7-16.2-2.4-24.3-2.2
		c-2.6,0-5.2-0.9-7.2-2.6c-6.6-5.1-14.3-8.7-22.5-10.5c-4.9-1-10-1.1-13.9-5c-1.1-0.9-2.4-1.4-3.8-1.4c-3.8-0.4-7.5-1.7-10.8-3.7
		c-9.3-5.8-19.4-10.1-28.7-15.6c-5.8-3.4-11.3-6.8-15.7-12.1c-2.7-3.4-5.9-5.8-2.4-10.3C531.1,321.2,531.3,320.6,531.5,319.9z"/>
	<path class="st6" d="M494.2,347.1c1.9,3.2,5.3,4,8.5,4.7c3.8,0.7,7.2,2.6,9.8,5.4c6.3,6.8,14.3,10.6,22.8,13.6
		c3.7,1.3,7.4,3.3,11.1,3.7c5.8,0.6,7.5,4.8,10.1,8.4c2.6,3.6,4.9,6.9,7.4,10.3c0.6,0.8,1.2,2.4,2.4,1.6s0.5-2.2-0.1-3.2
		c-2.7-4.4-4.6-9.2-7.5-13.4c-0.5-0.8-1-1.6-1.6-2.7c2.8,0.3,3.7,2.6,5.6,3.5c0.3-3-1.4-5.8-4.2-6.9c-3.6-1.5-7.3-3-10.9-4.6
		c-0.7-0.3-1.8-0.5-1.4-1.5c0.3-0.7,1.2-0.5,1.8-0.3c4.4,1.4,8.7,3.1,12.9,5.1c3.1,1.8,4.8,5.3,4.3,8.8c-0.3,1.5,0.6,2.9,2,3.3
		c3.5,1.7,7.2,3.2,10.9,4.4c8.4,2.6,16.5,5.9,24.3,9.9c10.6,5.2,22.4,7.7,34.3,7.1c11.7-0.4,23.4-0.9,35.1-0.5
		c5.3,0.2,9.9,2.3,15,3.1c15.5,2.5,30.6,0.1,45.6-3.2c6.4-1.4,12.9-2.7,19.2-4.5c9-2.6,18.3-2.5,27.4-3.5c4.7-0.5,9.3-1.3,13.9-2.4
		c4.5-0.7,8.7-2.6,12.3-5.4c0.6-0.5,1.3-0.8,1.8-0.2c0.5,0.5-0.2,1-0.5,1.5c-1.8,2.6-4.3,4.6-7.3,5.7c-7.1,3.3-14.7,5.2-22.5,5.4
		c-12.1,0.2-23.5,3.1-35.1,5.8c-11.8,2.9-23.9,4.9-36,5.9c-9.7,0.7-19.3,0.4-28.6-2.8c-1.1-0.4-2.3-0.7-3.5-0.8
		c-11.9-0.4-23.8-0.2-35.6,0.8c-0.6-0.2-1.2-0.3-1.8-0.3c-14.6,0.6-28.2-3.3-41-10.1c-8.7-4.6-18.3-6.8-27.5-10.7
		c0.1,1.1,0.4,2.1,1.1,3c0.3,1,0.4,2.1,0.5,3.1c0,3.1-1.6,4.2-5.3,3.9c-4-4.5-7.6-9.4-10.6-14.7c-0.5-0.7-0.7-1.6-1.6-2
		c-4.9-2.3-9.9-4.1-15-5.6c-10.9-4.3-21.3-9.5-29.1-18.6c-1.8-2-4.3-3.4-7-3.8c-3.1-0.3-5.8-2-7.5-4.5
		C493.2,347.8,493.6,347.3,494.2,347.1z"/>
	<path class="st7" d="M830.2,355.2c4.5-7.8,3.5-17,6.7-25.2c1.2-4,3.1-7.7,5.7-11c0.6,3.6-0.5,6.8-0.5,10c0,1.5-1.4,4,0.4,4.3
		c1.9,0.3,1.7-2.5,2-4c2.6-12.7,2.9-25.3-0.9-37.9c-0.2-0.8-1.3-2-0.1-2.6s1.8,0.7,2.4,1.3c2.5,2.3,5,4.7,7.5,7c1,1,2.3,1.6,3.7,1.6
		c-4.4-5.2-7.5-10.6-12.7-14.3c-6.8-4.8-14.4-8-21.8-11.8c-4.8-2.4-6.8-5.3-5.6-10.5c0.1-0.8,0.2-1.5,0.4-2.3
		c3.4,5.9,9.5,6.5,15,8.1c2.9,1,5.5,2.6,7.7,4.8c2.8,2.8,6.2,4.9,10,6.1c1.2,0.4,2.2,1.2,2.8,2.3c3.7,6.7,8.6,12.7,14.5,17.6
		c1.1,0.8,1.5,2.1,1.1,3.3c-1.1,5.7-2.1,11.4-3.2,17.1c-0.5,2.6-2.9,3.2-4.7,5.1c-0.7-3.4-1.2-6.3-1.9-9.2c-0.4-1.6-1-3.2-1.6-4.7
		c-0.3-0.7-0.7-1.6-1.8-1.2c-1.1,0.4-0.7,1.2-0.5,2c1,4.4,1.9,8.8,2.9,13.2c0.5,1.6,0,3.4-1.2,4.5c-2.9,3.2-5,7-6.1,11.1
		c-0.1,0.8-0.6,1.4-1.3,1.8c-6.4,2.9-11.4,7.7-16.5,12.3c-0.7,0.5-1.4,1-2.2,1.4L830.2,355.2z"/>
	<path class="st4" d="M509.8,304.2c1-0.1,1.2-0.7,1.3-1.6c0.4-6.8,4.5-11.5,9.4-15.7c2.3-2,4.8-3.7,7-5.7c4.9-4.4,11.2-5.5,17-7.6
		c5.6-2,11-4.7,16.1-7.9c0.5-0.2,1.1-0.4,1.7-0.5c0,0.4,0,0.8,0.1,1.2c1.9,5.8,1.6,7-4,9.5c-8.7,4-16.8,9.2-24.1,15.3
		c-0.6,0.6-1.2,1.2-1.8,1.8c-0.6,0.3-1.3,0.7-0.7,1.5s1,0.3,1.4-0.2c9.3-8.1,21.7-11.4,31.3-19.4c0.1,0.2,0.4,0.3,0.4,0.6
		c1.5,5.1,1.6,5.3-3.1,7.9c-12.4,7-23.1,16.5-31.5,27.9c-2.4,3.3-3.1,6.9-4.4,10.3c-0.8,2.1-1.6,2.5-3.5,1.2c-4.2-2.9-4.4-3-1.8-7.4
		c3-5.1,6.2-10.2,11.4-13.5c0.2-0.1,0.3-0.5,0.5-0.8c-4.8,0.3-8.4,3.8-16.1,15.6C514.6,312.3,512.4,308.1,509.8,304.2z"/>
	<path class="st8" d="M532.9,429.9c-3.3-1.6-5.1-4.6-6.9-7.5c-4.4-7.3-9.6-13.9-14.6-20.7c0.9-1,1.6,0,2.4,0.4
		c3.3,1.7,7,2.8,10.7,3.2c0.9,0.1,2.2,0.4,2.4-0.9s-1.1-1.1-1.9-1.3c-5.6-1.3-10.7-4.1-14.9-8c-1.3-1.2-2.7-2.3-4.3-3
		c-5.2-2.5-5.3-7.7-7.1-12.1c2.8,1.6,5.9,2.4,9.2,2.5c0.7,0,1.4,0.4,1.8,1c7,9.1,16.3,14.9,26.8,19c0.4,0.2,0.9,0.4,1.3,0.7
		c0,1.6,1.4,2.3,2.5,3c3,2,6,4.1,9.1,5.9c6.5,4.1,13.5,7.5,20.8,10.1c-5,2.5-9.9,5.6-15.8,4.4c-4.1-0.6-8.2-0.9-12.3-0.8
		c-0.5,0-1,0.2-1.4,0.3c-0.8,0-2-0.5-2,0.8c0,0.7,1.3,0.4,2,0.3h4.1c0.4,0.5,1.2,0.5,1.7,0.1c0,0,0,0,0.1-0.1l8.9,1.6
		c-3.3,2.3-7.3,3.4-11.3,3.1c0-0.9-0.7-1-1.4-1.2c-2.1-0.8-4-1.8-5.9-3.1c-1.1-0.7-2-2.5-3.3-1.8
		C532.2,426.7,533.2,428.6,532.9,429.9z"/>
	<path class="st9" d="M736,419.2c0,1.2-1,1.4-1.8,1.7c-9.3,2.7-17.6,7.5-26.3,11.7c-9.8,4.5-20.3,7.4-31,8.5
		c-8.7,1.1-17.4,1.5-26.1,1c-14.5-0.7-28.8-3.4-42.4-8.2c-1.9-0.7-3.9-1-6-0.8c-5.3,0.5-10.6,0.3-15.8-0.5c-1-0.1-1.9-0.7-2.4-1.6
		c2.2-1.7,5-2.3,7.7-1.6c1.3,0.3,2.7,0.3,4.1,0.2c7.1-0.5,14.2,0.3,21,2.3c13.9,3.8,28.2,5.7,42.6,5.4c19.3-0.4,38.4-4.5,56.1-12.1
		c5.4-2.3,11-4.2,16.8-5.6C733.7,419.2,734.8,419.1,736,419.2z"/>
	<path class="st8" d="M862.2,259.3c-2.8,0-5.4-0.8-7.7-2.3c-1.6-0.9-3-2-1.8-4.2c0.3-0.5,0.4-1.2-0.3-1.5c-0.7-0.3-1,0.4-1.4,0.9
		c-3.5,4.9-8.3,5.6-13.9,4.3c-5.8-1.5-11.7-2.5-17.6-3.2c-1.2,0.1-2.2-0.8-2.3-2c0-0.1,0-0.3,0-0.4c-0.1-2.9-0.4-5.9-0.6-8.8
		c0-1,0-1.8,1.2-1.9c6.8-0.6,13.6-2.7,20.5-1c8.4,2,14.5,7.6,20,13.8c1.8,1.8,3.2,4,4.1,6.4L862.2,259.3z"/>
	<path class="st9" d="M856.4,261.5c0.2,2.5,2.1,4.1,3.3,6c2.3,3.8,4.9,7.5,7.3,11.3c0.7,0.8,1.1,1.9,1.1,3c-2.1,0.3-1.1,1.8-0.9,2.7
		c0.5,1.6,1.1,3.2,1.8,4.7c0.4,0.9,0.7,1.8,0.9,2.8c0.2,1.5,0.5,3.5-0.7,4.1s-1.9-1.2-2.7-2.1c-5.5-6-9.9-12.9-13.3-20.3
		c-0.6-1.3-1.3-2.7-2-3.9c-0.4-0.8-0.9-2.1-2-1.8c-1.1,0.4-0.6,1.8-0.3,2.8c0.6,1.3,0.9,2.8,1.1,4.2l-0.2,0.2
		c-3.1-1.1-5.8-2.8-8.1-5.1c-3.6-3.2-7.9-5.6-12.5-6.9c-3.3-0.6-6.2-2.5-8.3-5.2c6.3,0.7,12.2,1.2,18.1,2c3.8,0.5,7.5,0.2,10.6-2.5
		c0.8-0.7,1.5-0.8,2.1,0.2c0.8,1.4,2.4,2,3.6,2.9C855.4,261.2,856,261.6,856.4,261.5L856.4,261.5z"/>
	<path class="st10" d="M879.2,364.7c-1.1,0.1-1.6,1-2.3,1.8c-7.9,7.8-15.3,16.3-24.6,22.6c-6.1,4.1-13,6-19.6,8.6
		c-3.9,1.5-7.5,3.9-10.4,7c-10.1,10.9-22.7,19-36.9,23.5c-9.7,3-19.7,5-29.6,7.4c-4.6,1.2-9,3-13.1,5.3c-5.3,2.9-10.9,5-16.8,6.2
		c-3.3,0.5-6.6,0.9-9.9,1c-0.8,0-1.9,0.2-2.1-1c2.7-1,5.6-0.7,8.4-1.1c3.9-0.4,7.7-1.7,11.1-3.8c8.7-6.4,18.7-8.9,29.1-10.3
		c19.7-2.6,37.4-10,52-23.7c7.6-7,16.5-11.7,25.3-16.7c3.8-2.2,7.6-4.5,11.5-6.5c6.7-3.5,11-9.7,16.6-14.4c3.7-3.1,7.6-6.1,11.6-9.2
		C880,362.4,879.9,363.7,879.2,364.7z"/>
	<path class="st5" d="M672.7,280.3c3.3,13.5,9.1,26.2,17.1,37.6c2.3,3.5,4.9,6.8,7.4,10.2c-5.1,1.5-10.2,2.9-15.3,4.4
		c-1.9,0.6-2.1-0.8-2.6-1.9c-3-7.4-5.1-15.1-6.2-23C671.8,298.5,671.7,289.4,672.7,280.3z"/>
	<path class="st11" d="M596.7,411c0.8-0.1,1.6,0,2.3,0.4c3.3,2.5,6.7,4.7,10.3,6.7c-1.7,0.5-3.4,0.8-5.1,1.1
		c-7.1,0.6-14.1,2.8-20.3,6.4c-3,1.5-6.1,2.7-9.3,3.7c-3.6,1.2-7,3.1-10,5.5c-2.7,2-6,3.1-9.3,3.1c-7.4,0.7-14.8,1.6-22.3,1.8
		c-2.1,0.1-4.1-0.3-6-1.1c-0.5-0.2-1.1-0.5-1.1-1.2c0.1-0.7,0.7-0.9,1.2-1.2c0.9-0.4,1.9-0.5,2.9-0.4c7.4,0.2,14.7-0.3,22-1.6
		c2.4-0.5,4.8-1.2,7-2.3c9.7-5,20-9.1,28.6-16.1c1.9-1.4,4-2.6,6.2-3.5C594.9,412,595.9,411.6,596.7,411z"/>
	<path class="st12" d="M653.3,333.4c2.4-1.6,5-3.1,7.3-5c4.5-3.6,6.2-8.8,7.3-14.3c2,6.7,3.5,13.5,6.5,19.8c0.6,1.3,0,1.8-1.2,2
		c-0.4,0.1-0.8,0.1-1.2,0C665.8,335.1,659.4,334.9,653.3,333.4z"/>
	<path class="st10" d="M570.1,422.2c-7.3-2.6-14.3-6-20.8-10.1c-3.1-1.8-6.1-3.9-9.1-5.9c-1.1-0.7-2.4-1.4-2.5-3
		c6,1.5,11.1,4.9,16.2,7.9c5.2,3.3,10.7,6.1,16.4,8.5c0.8,0.3,2.1,0.4,2.1,1.3C572.3,421.9,571,422.1,570.1,422.2z"/>
	<path class="st9" d="M532.9,429.9c0.3-1.4-0.8-3.2,0.7-4c1.5-0.8,2.3,1.1,3.3,1.8c1.9,1.2,3.8,2.2,5.9,3.1c0.7,0.2,1.3,0.4,1.4,1.2
		C540.1,433.1,536.1,433.5,532.9,429.9z"/>
	<path class="st13" d="M596.7,411c-0.9,0.6-1.9,1-2.9,1.1v-1.6c0.5-0.4,1.6-0.3,1.2-1.4C596.2,409.1,596.6,409.9,596.7,411z"/>
	<path class="st10" d="M695.8,391.9v-0.8h4.3C698.8,391.6,697.3,391.9,695.8,391.9z"/>
	<path class="st12" d="M665.8,297.7c-0.7-0.4-0.9-1.3-0.5-2c0.1-0.2,0.2-0.3,0.4-0.4C666.1,296,666.2,296.9,665.8,297.7z"/>
	<path class="st13" d="M540.6,427.3c-0.7,0.1-2,0.4-2-0.3c0-1.2,1.2-0.8,2-0.8L540.6,427.3z"/>
	<path class="st6" d="M763.1,451.5h-0.9c-0.2-1-0.4-1.9,0.9-2.2V451.5z"/>
	<path class="st7" d="M509.5,399c0.6,0.4,1.5,0.4,1.4,1.5c-1.1,0.3-1.3-0.6-1.8-1.2L509.5,399z"/>
	<path class="st6" d="M840.3,411.5c0.5-0.4,1.1-0.7,1.4,0c0.3,0.7-0.3,1.2-1,1.5C840.6,412.6,840.4,412.1,840.3,411.5z"/>
	<path class="st13" d="M533,294.1c-0.4,0.5-1,0.8-1.4,0.2c-0.4-0.5,0.1-1.1,0.7-1.5C532.3,293.4,532.6,293.9,533,294.1z"/>
	<path class="st13" d="M546.5,427.4c-0.4,0.5-1.2,0.5-1.7,0.1c0,0,0,0-0.1-0.1C545.4,426.6,546,426.7,546.5,427.4z"/>
	<path class="st4" d="M559,451c0.9,0,1.8,0,1.8,1.3C559.9,452.3,559.2,451.8,559,451z"/>
	<path class="st13" d="M542.4,389.7c0.5,0,1-0.1,1,0.6c0,0.7-0.5,0.7-1,0.6L542.4,389.7z"/>
	<path class="st12" d="M666.5,304.8c-0.7-0.4-0.9-0.7-0.1-1.2C666.7,303.9,666.8,304.4,666.5,304.8
		C666.5,304.8,666.5,304.8,666.5,304.8z"/>
	<path class="st12" d="M665.8,282.8c-0.7-0.5-0.5-0.9,0.1-1.2C666.2,281.9,666.2,282.5,665.8,282.8z"/>
	<path class="st7" d="M506.5,396.6c0.5-0.1,1,0.2,1.2,0.6c-0.1,0.1-0.2,0.2-0.3,0.3C506.9,397.5,506.5,397.2,506.5,396.6
		L506.5,396.6z"/>
	<path class="st4" d="M865.9,395.6v-0.7l0.3,0.1L865.9,395.6L865.9,395.6z"/>
	<path class="st14" d="M856.4,261.6c-0.5,0.1-1.1-0.3-1.2-0.8C855.7,260.9,856.3,260.8,856.4,261.6z"/>
	<path class="st7" d="M508.8,398.4l0.7,0.5l-0.3,0.3l-0.6-0.6L508.8,398.4z"/>
	<path class="st7" d="M508.6,398.7l-0.6-0.6l0.3-0.3l0.6,0.6L508.6,398.7z"/>
	<path class="st7" d="M506.4,396.7l-0.6-0.6l0,0c0.3-0.1,0.6,0.1,0.7,0.5c0,0,0,0,0,0L506.4,396.7z"/>
	<path class="st7" d="M505.8,396.1l-0.2-0.1L505.8,396.1L505.8,396.1z"/>
	<polygon class="st8" points="498.4,379.5 498.4,379.3 498.5,379.3 	"/>
	<path class="st7" d="M830.6,355.6l-0.6,0.2c0-0.2,0.1-0.4,0.2-0.6L830.6,355.6z"/>
	<path class="st14" d="M866.4,354.8l-0.3,0.3v-0.3h0.4L866.4,354.8z"/>
	<path class="st5" d="M834.8,323.8c-0.2-0.3-0.1-0.7,0.2-0.8c0,0,0.1,0,0.1-0.1C835.2,323.3,835.1,323.7,834.8,323.8z"/>
	<path class="st9" d="M850,275l0.2,0.4l-0.4-0.2L850,275z"/>
	<path class="st8" d="M862.3,259.2l0.4,0.3c0,0-0.2,0.1-0.2,0.1C862.4,259.5,862.3,259.4,862.3,259.2L862.3,259.2z"/>
	<path class="st7" d="M507.9,398.1l-0.6-0.6l0.3-0.3l0.6,0.6L507.9,398.1z"/>
	<path class="st6" d="M653.4,463.4c-3.1,0.7-6.2,1.1-9.4,1.1c-0.4-0.3-1-0.3-1.3,0l-7-0.5c-0.3-0.4-0.8-0.5-1.3-0.3l-1.1-0.2
		c-0.2-0.2-0.4-0.4-0.7-0.5c-15-5-30.2-9-45.8-11.9c-3.8-0.6-7.3-2.7-11.4-2.3l-0.7-0.5v-1.1c4.7,0,9.1,1.6,13.7,2.4
		c1.6,0.2,3.3,0.2,4.9,0.1c9.4,0.3,18.8,2,27.7,5.1c6.9,2.2,13.7,4.9,20.9,5.9c5.1,0.8,10.2,0.5,15.1-1c0.6-0.2,1.2-0.3,1.8-0.3
		c0.4,0.1,0.7,0.2,1.1,0.4C658.2,462.1,655.5,462.3,653.4,463.4z"/>
	<path class="st6" d="M693.5,456.3l-1.5-0.9c-0.5-0.3-1.1-0.7-0.8-1.4c0.3-0.7,1-0.6,1.5-0.5c6.4,0.4,12.8,0.6,19.1,0.4
		c8.4,0.1,16.9-0.7,25.1-2.4c1-0.2,2.1-0.7,2.5,0.5c0.5,1.3-0.6,1.7-1.6,2.1l-1.4,0.6c-0.4,0-0.8,0-1.2,0
		C721.7,457.8,707.5,458.4,693.5,456.3z"/>
	<path class="st10" d="M569,390.8c-0.7-0.8-1-1.9-1.1-3c9.2,3.8,18.8,6.1,27.5,10.7c12.8,6.8,26.4,10.7,41,10.1
		c0.6,0,1.2,0.1,1.8,0.3c-1,0.9-2.4,1.3-3.8,1.2c-10.9,0.9-21.3-0.6-30.9-6.1c-5.5-2.9-11.1-5.3-16.9-7.3c-4.9-1.9-9.9-3.7-14.8-5.5
		C570.8,390.9,569.9,390.8,569,390.8z"/>
	<path class="st10" d="M575.4,448.7c4-0.4,7.6,1.8,11.4,2.3c15.5,2.9,30.8,6.8,45.8,11.9c0.2,0.1,0.5,0.3,0.7,0.5
		c-3.1,1.4-5.9-0.5-8.8-1.2c-8.4-2.1-16.7-5-25.3-6.3c-5.7-0.8-11.5-1-16.9-3.2C579.9,451.7,577.1,451.2,575.4,448.7z"/>
	<path class="st10" d="M693.5,456.3c14,2,28.2,1.4,42-1.8c0.4,0,0.8,0,1.2,0c-0.8,2.1-2.9,2.1-4.6,2.7c-11.4,4.1-23,5.1-34.7,1.2
		C695.9,458.2,694.1,458.1,693.5,456.3z"/>
	<path class="st9" d="M537.1,375.5c5.1,1.5,10.2,3.4,15,5.6c0.9,0.4,1.1,1.3,1.6,2c3,5.3,6.5,10.2,10.6,14.7c-2.2,0.9-3.5-1-4.6-2.1
		c-3.4-3.1-6.9-6.2-8.8-10.6c-0.5-1-1.4-1.7-2.4-2c-3.2-1.4-6.2-2.9-9.5-4C536.9,378.5,536.3,377.4,537.1,375.5z"/>
	<path class="st0" d="M607.3,467.7c-7.8-2.7-16.3-2.7-23.9-6.2c-2.1-0.9-4-2.1-5.8-3.5c-0.5-1.8,0.3-2,1.6-1.2
		c7.6,4,16.2,4.8,24,7.9c0.3,0,0.6,0,0.9,0c0.5,1.6,2.5,0.9,3.2,2.1L607.3,467.7z"/>
	<path class="st10" d="M573.7,448c-0.9,0-1.8,0-2.1-1c0-0.2,0.2-0.6,0.4-0.6c0.8-0.2,1.5-0.1,1.6,1L573.7,448z"/>
	<path class="st10" d="M634.4,463.7c0.4-0.3,1-0.1,1.3,0.3C635,464.8,634.7,464.4,634.4,463.7z"/>
	<path class="st10" d="M642.6,464.5c0.4-0.3,1-0.3,1.3,0c-0.2,0.5-0.7,0.7-1.2,0.7L642.6,464.5z"/>
	<path class="st13" d="M573.7,448v-0.6l1-0.2v1.1L573.7,448z"/>
	<path class="st13" d="M610.1,467.6c0.6,0.1,1,0.4,1.1,0.9s-0.4,0.6-0.8,0.5c-0.4-0.1-1-0.3-0.8-1
		C609.6,467.9,610,467.8,610.1,467.6z"/>
	<path class="st13" d="M607.3,467.7v-0.9c0.7,0,1.9-0.1,1.8,0.8S607.9,468.2,607.3,467.7z"/>
</g>
</svg>
