<svg id="Layer_1" data-name="Layer 1" xmlns="http://www.w3.org/2000/svg" viewBox="0 0 508.67 608.62"><defs><style>.cls-1{fill:#030202;}.cls-2{fill:#686868;}.cls-3{fill:#3f3f3f;}.cls-4{fill:#383838;}.cls-5{fill:#f17f29;}.cls-6{fill:#151515;}.cls-7{fill:#e8802c;}.cls-8{fill:#ededed;}.cls-9{fill:#f4b816;}.cls-10{fill:#222;}.cls-11{fill:#d37b7d;}.cls-12{fill:#d4d4d4;}.cls-13{fill:#1a1a1a;}.cls-14{fill:#020202;}.cls-15{fill:#f0f0f0;}</style></defs><path class="cls-1" d="M351.15,732.48c-3.53-.81-4.9-2.27-6-5.2-1.38-3.6-2.19-8.73-7.88-9.44-2.14-.27-2.81-2.37-2.09-4.48,3.21-9.51-.63-19.34,1.33-28.91.32-1.58-.95-1.94-2.25-2.37-13.73-4.52-18.64-15.85-21.45-28.52-1.21-5.45-1.24-11.11-.82-17.75a66.32,66.32,0,0,0,4.66,6.31c1.88,2,4.13,4,7.11,2.32s2.68-4.39,1.91-7.2a65.75,65.75,0,0,0-6.48-15.55c-3.09-5.34-6.05-10.78-7.91-18.54,8.35,6.52,16.87,9.52,25.77,14-2.11-7.57-.14-15.49-7-20.71-1.14-.87-1.59-2.08.67-2.23a9.71,9.71,0,0,0,1.64-.38c-3.7-6.35,2.64-7.88,5.26-11.31,1.56-2,1.56-5,1-7.28-.65-2.62-3.55-1.48-5.4-1.49-5.23,0-10.58-.33-15.66.65-9.75,1.9-16.77-2.26-22.35-9.28-3.13-3.93-6.27-5.22-10.68-3.18-5.22,2.42-8.89,1.13-10.9-4.28s-6.2-6.2-11.07-4.65c-4.32,1.38-6.47-.06-7.71-4.33-2.46-8.41-5.38-16.69-7.92-25.07-2.1-6.91-2-7.09,4.74-5.29,4.69,1.27,9.38,1.48,13.26-1.38,4.89-3.61,9.34-2.27,14-.19,2.49,1.1,4.95,2.25,7.41,3.41,1.53.72,2.79,1.65,3.88-.86,2.28-5.22,7.13-6,12.08-6.21,9.47-.34,18.76,1,28,3.09,1.41.31,3.5,1.78,4.28-.66s-1.6-2.46-3-3.15c-30.6-15-38.64-46.52-18.86-74.27a8.73,8.73,0,0,0,1.8-5.73c-.92-29.82,6-57.62,22.15-82.83,2.14-3.35,1.33-5.34-.93-8,7.8.57,8.08.2,6.56-7.27-.41-2,1.07-3.1,2.44-2.2,4.06,2.67,5.53-.73,7.61-2.77,8-7.85,16.78-14.46,27.34-18.46,6.9-2.61,8.86-8.91,11.23-15.12.53.12,1.26.06,1.59.4,5.8,6,6,6.14,10.68-1.29,3.06-4.87,6.35-5.8,10.63-2.08,2.94,2.56,4.93,2.21,6.71-1.2,2.77-5.31,8.49-9.58,5.35-17.19,9.87.5,13.78,7.41,17.55,14.41,7-6.81,9.17-6.81,16.85-.29,1.36,1.16,2.24,2.8,4.66,2.48,17.33-2.27,32.41,4.37,47,12.43a136.63,136.63,0,0,1,26.25,19.25c1.72,1.59,2.69,2.51,4.86.09,6.19-6.9,7.48-6.49,10.72,2.36.35.94.75,1.85,1.16,2.89,2.41-1.39,2.68-4.64,5.81-4.92,1.67,3.19-3.15,4.74-1.83,8.05,4.13-1.67,8.26-3.38,12.41-5s6.48-.53,6.24,4.33c-.2,4.31-.87,8,5,10.42,4.15,1.69,3.14,8.12,3.91,12.59.49,2.84-.84,6.8,4.84,5.92,2.22-.34,2.5,2.95,3.31,4.8,2.15,4.9.78,10.66,3.88,15.53.48.77.08,2.75,1.88,3,11.09,1.29,16.15,7.44,15.28,18.56,0,.47.66,1,1.47,2.13,3.17-9.41,6.5-18.27,12.87-26.15,1.56,4.33,1.23,8.84,3.38,12.63,1.61,2.85,3.48,5.54,7.09,5.26s5.15-3.29,6-6.41c2.48-9,.88-17.66-3-26.21,13.78,3.74,22.31,17.24,22.95,36.22,3.66-.31,6-3.29,10-4.79a42.66,42.66,0,0,1-5.48,25.27c-2.91,5-6.59,9.65-9.82,14.52-3.08,4.64-5,9.51-3.72,15.34,1.68,7.4,6.73,9.94,13.44,6.4,3.75-2,6.48-5.06,8.8-9,2.44,13-7.32,32.86-19.9,40-3.91,2.21-4.38,4.22-3.59,8.3a126.45,126.45,0,0,1,2.43,24.95c0,3,.54,3.64,3.48,2.63,5.34-1.82,10.41-3.76,15-7.39,7.09-5.63,9.83-6,15.5.77,6.25,7.44,13.13,6.68,21.05,5.42,11.59-1.84,12.17-1.5,14.28,9.6.72,3.81,2.28,5.07,5.82,5.83,18.66,4,19.89,5.57,20.59,24.36.11,2.91,0,5.84,0,8.79-.31.08-.89.4-1,.26-7.81-7.1-14.55-4.93-22,1.29a110.57,110.57,0,0,1-18.87,12.28c-3.88,2.06-6.09,1.39-8.22-1.92-1.92-3-4-5.85-5.77-8.92A44.74,44.74,0,0,0,691.5,563c-2.19-2.23-3.93-4.4-6,.38s-5.93,3.39-9.46,1.54c-4.06,12.75-5,13.36-12.68,8-2.66,5.36-5.14,10.32-4.7,16.79.59,8.73-.16,17.56-.31,26.34-.06,3.82-1.39,7.92,3.65,10.19,2.23,1,.43,2.65-.55,4-2,2.84-6.69,4.45-4,9.67.46.89-2.83,3.69-4.63,5.9a24.6,24.6,0,0,0,3,1c6.89,1.18,7.18,1.39,2.86,6.86-2.28,2.89-.94,4.17.81,6.09,6.23,6.83,6.19,6.84-1.71,12-2.43,1.58-4.79,3.27-7.59,5.19,3.47,2.43,5.87,4.93,1.92,8.48a1.39,1.39,0,0,0,.32,2.51c5.4,2.35,2.18,4.78-.07,6.77-2.93,2.6-4.36,4.47-.12,7.41,3.5,2.43,2.12,5.31-1.33,6.53-4.33,1.53-6.38,4.41-8.07,8.56-2.52,6.22-8,10.16-13.51,13.55-3.4,2.07-7,3.58-4.21,8.63-3.46.73-4.65-4.54-8.21-1.81-2.9,2.22.87,4.18-.63,6.63-2.91-6.06-6.94-3.23-11-1.65-4.28,1.67-8.56,3.7-13,4.44-12.34,2-21.64,8.9-30.69,16.94-14.54,12.93-29.63,25.24-44.51,37.77-1.68,1.41-3.32,3.83-5.91,2.11-3.08-2.06-.81-4.51.12-6.64,2-4.53,4.16-9,5.37-14.37-8,4.45-16,9-24.08,13.32-2.21,1.19-4.73,3.83-7.18.73-2.16-2.73.85-4.54,2-6.51,1.91-3.15,4.12-6.11,7-10.33-7.1.47-12,3.37-17.24,4.86-2,.58-4.5,2.68-6.12-.22-1.39-2.51,1.34-3.61,2.74-4.94,4.7-4.45,9.51-8.78,14.68-13.53-2.75-1.66-5.38-1.06-7.87-1-21.75.6-43.67,2.53-65.13-1.53-10.87-2.05-19.53-.51-28.64,5.11-9.39,5.8-19.51,10.44-29.33,15.57-2,1-4.12,2.58-6.28.46s-.26-4.18.8-6.13a5.88,5.88,0,0,0,.36-.51c1.48-3.48,6.8-7.26,4.36-9.84-2.22-2.37-6.7,2.43-10.26,3.88s-6.76,3.31-10.13,5c-1.57.78-3.19,1.26-4.59-.26-1.61-1.73-1-3.45.24-5.07,4.21-5.4,8.44-10.78,13.22-16.87-7.71,1-14.48,1.89-21.28,2.6-2.65.28-5.92.7-6.75-2.84-.74-3.2,2.35-4.06,4.44-5.26C331.07,744,340.51,738.57,351.15,732.48Zm34.34-230.87.44-.85-.84.46c-.4.29-1.08.51-.3,1.09A6.19,6.19,0,0,0,385.49,501.61ZM347.41,739.8c-9.47,2.52-19.56,8.1-21.79,12,5.5-1.33,16.59-7.05,22.25-11.5,1.46-.52,3.71.07,3.74-2.72A4.44,4.44,0,0,0,347.41,739.8Zm-8.56-111.65,0,.05c-2.1-9.16-10.53-9.9-17.23-12.94-.39-.55-.81-1-1.36-.21,0,.06.5.51.76.78,3,7.28,7.79,13.84,8.79,21.91.53,4.29.37,8.46-3.24,11.53s-6.86,0-10.17-1.69c.22,13.84,6.56,23.67,17.34,27.27,2.7,1.71,4.66,1.65,5.1-2.12.7-5.94,1.39-11.89,2.14-17.83.32-2.57-.8-3.89-3.31-4.18.7-4,.52-7.85-2.49-11,5.09.89,6.74-1.16,5.21-6-.43-1.37-.69-2.8-1-4.2Zm19.26-160.61,2.22-.15c1.37-1.95,6.86.79,5.2-4.66-1.95-6.36-8.83-11.26-15.81-11.09a16.82,16.82,0,0,0-15.65,13,16.39,16.39,0,0,0,8.7,18.34c6.72,3.44,13.36,2.25,18.38-3.55-4.3-.41-8.13-1.91-12.4-1.48-3.54.36-6.35-1.09-6.41-5.35,4.2-2.18,10.64-1.78,10-10C354.81,468.33,354.81,468.33,358.11,467.54Zm298.2,6.08c-.66.49-1.3,1-2,1.46a3.54,3.54,0,0,0-.77,5.43c1.7,2.25,3.42.06,4.71-.82a35.33,35.33,0,0,0,14-17.71c-4.93,2.94-9,3.54-13.27,2-3.13-2.53-6.27-4.62-7.56-9.13-3.15-11-.1-20,6.8-28.4a74.36,74.36,0,0,0,13.62-24.52c-1.58.76-2.22,1.1-2.89,1.39-2.4,1-4.6,3.79-7.36,2.2-2.94-1.7-1.24-4.93-1.18-7.48.22-9.07-1.7-17.27-8.89-23.5a2,2,0,0,0-.25-.48c-.05-.06-.23,0-.34,0l.64.45c-.16,7,.79,14.17-3,20.64-4,6.83-10,7.59-15.13,1.63-2.11-2.45-3.49-5.51-5.56-8.88-1.84,4.1-3.37,7.93-5.24,11.6-2.48,4.89-1.39,8.28,3.72,10.33,3,3.36,6.6,6.14,6.92,11.27.47,7.68,3.78,14.56,6.66,21.54q4.31,9.22,8.62,18.44a1.71,1.71,0,0,0-.67,2.12C649.47,467.67,651.2,472,656.31,473.62ZM634,461.22c.27,1.62-.52,3.42.79,5.16.69-2.06.91-3.77-.74-5.21.4-4.09-1.33-7.68-2.48-11.47-2.44-8.07-9.83-14.09-9-23.58.55-6.33-3.39-9.4-10.51-9.22,1.29,2.42,4.67,3.63,4.31,6.7-.79,6.86,2.51,11.9,6.61,16.83C628.05,446.57,630.08,454.39,634,461.22ZM375.28,519l1.28-1.22c1.77-2.81,3.66-5.54,5.25-8.45.83-1.52,3-3.52,1.43-4.91-2.12-1.85-3.48,1.05-5.05,2.16-9.47,6.67-19.75,10.36-31.54,9-2.13-.26-4.88-1.49-6.3.92s.91,4.23,2,6.19c2.49,4.6,6.76,8.94,2,14.59-.32.37,0,1.82.49,2.26,4,3.65,2.75,8.39,2.8,12.86.07,7.74-1.69,15.29-2.37,23-.48,5.36.39,11.06-5.5,14.35a2.41,2.41,0,0,0-.71,2.17c2.4,6.37.33,13.27,2.67,19.71,5.58,15.3,7,31.19,5.85,47.35-1.21,17.09-7.62,33.67-4.39,51.32.64,3.53,1.58,5,4.19,6.32,2.24,5.92,5.09,11.19,12.39,11.81,3.25.27,5.85,1.83,8.41,3.8,7.65,5.91,14.56,12.44,23.43,17.18,12.54,6.71,25.39,9.23,39,9.32,19.21.12,38.41.73,57.63-.88,18.91-1.58,37.73-3.62,56.43-6.72,10.21-1.69,10.16-2,10.35-12.31,2.47-10.55,3.87-21.27,5.53-32a673.3,673.3,0,0,0,6.79-71.54c1.49-31.61-1.66-62.91-7.44-94-3.69-19.86-6.35-39.92-11.65-59.46-1.25-4.63-2.58-8.88-9-8.2-3.3.35-5.47-1.63-5.78-5.21-.39-4.57-.57-9.17-1.35-13.67-.86-5,.87-11.72-7.48-12.56-2-.2-2.62-2.46-2.51-4.52.17-3.13-.2-6.4.59-9.36a18.27,18.27,0,0,0-1.75-13.86c-12.44-23.82-29.24-43.7-52.37-57.71-38.5-23.32-95.15-21.74-127.65,15.05-13.25,15-21,32.47-22.29,52.62-.32,5,.9,6.61,5.86,3.28,11.76-7.91,24.94-9.5,38.29-5.68,16.09,4.6,27,15.38,32.47,31.27,1.14,3.3,2.49,4,5.91,3.18,4.83-1.15,9.71-1.75,13.47,3.32,6.89,9.27,11.75,19.15,12.16,30.95.13,4-1.14,6.49-4.65,8.68-13.12,8.17-26,16.79-39.05,25-2.76,1.73-5.39,6.29-9,3.62s1.58-5.82,1.25-9ZM358.7,474.38c12,2.26,23.95,4.55,35.94,6.78,6.11,1.14,7.23,2.91,4.57,8.5-1.79,3.75-4.13,7.22-6.18,10.85-3.3,5.86-6.55,11.74-9.83,17.61,11-6.57,20.87-14.25,31.59-20.39,5.67-3.25,6.5-7.1,5.42-12.18A42.16,42.16,0,0,0,416,473.89c-7.11-12.73-6-15-21.67-10.15C382.57,467.35,370.89,471.34,358.7,474.38Zm-86.55,55.3c7.34,2.86,14.69,5.64,22.55,6.8a3,3,0,0,0,2.35-.6c7.58-8.13,17-7.31,26.65-5.69,2.39.41,4.91.06,7.37.06a124.11,124.11,0,0,0-22-4.89c-2.57-.36-6-1.14-7.56,1.59-3.22,5.69-8.1,4-12.43,3C283.48,528.68,277.92,529.25,272.15,529.68Zm87.47-33.1c5.76-1.1,10.39-1.68,15.23-.6,10.26,2.3,14.72-.19,20-10.58-3.08,0-6.9-3.11-8.66,0-3.46,6.05-8.46,5-13.62,4.78C367.65,489.91,363.07,490.56,359.62,496.58ZM708.35,537a105,105,0,0,1-21.92-14c-2.39-2-3.65-1-4.84,1.18-2.15,4-5.5,5.34-9.9,4.9a72.41,72.41,0,0,0-7.37,0c3.93,1.66,7.9,1.07,11.73,2.33,1.88.62,4.44.87,5.93-.87,3.11-3.64,5.75-2.14,8.38.36A21.69,21.69,0,0,0,708.35,537ZM381.87,520.7a1.59,1.59,0,0,0-.54-.16c-.06,0-.11.29-.16.44a1.6,1.6,0,0,0,.53.16C381.76,521.14,381.81,520.86,381.87,520.7Z" transform="translate(-245.66 -195.69)"/><path class="cls-2" d="M516.76,285.13c.18-7.46-4.57-12.82-7.68-18.74-8.3-15.81-7.87-22,3.22-35.78,7.68-9.51,7.9-12.82,1.58-22.81a16.67,16.67,0,0,1-1.8-3.28c-1-3-2.45-6.32,1.4-8.24,3.56-1.77,5.9.74,7.85,3.33,9.44,12.56,9.19,23.75-.73,36-.14.16-.27.33-.42.47-12.48,11.36-12.52,23.95-3.8,37.48C518.71,277.18,520,281,516.76,285.13Z" transform="translate(-245.66 -195.69)"/><path class="cls-2" d="M526.13,299.87c-2.12-5.56-2.14-11.11-1.83-16.6a19.66,19.66,0,0,0-2.88-11.85c-5.15-8.55-2.75-20.37,4.77-25.24,1.69-1.1,3.66-2.77,5.69-1.23s.1,3.41-.52,5c-2.68,7-5,13.75.54,20.68,2.11,2.67,2,6.37.92,9.69C530.77,286.85,527.63,293,526.13,299.87Z" transform="translate(-245.66 -195.69)"/><path class="cls-2" d="M268.21,497.07c-5-4.31-7.83-14-4.53-18.94,2.81-4.18,2.49-8.12,1.75-12.45-1.31-7.74-1.11-15.36,2.07-22.67.71-1.63,1.36-4,3.83-3.16,2,.68,1.36,2.72,1.13,4.35-.88,6.12.74,12,1.64,18,1,7,1.5,13.62-5,18.79-3.15,2.52-1.8,6.58-1.75,10.05C267.41,493,269,494.89,268.21,497.07Z" transform="translate(-245.66 -195.69)"/><path class="cls-2" d="M283.67,471.7c-3.77,7.68-.84,13.11,4.5,18.55,4.42,4.5,3.46,16.91-.68,21-1.46,1.44-2.7.58-3.76-.49-1.6-1.61-1.77-3.81-1.7-5.86a36,36,0,0,0-3.56-16.88C275.92,482.55,277.7,477.24,283.67,471.7Z" transform="translate(-245.66 -195.69)"/><path class="cls-2" d="M499.22,262.19c.28,5.48-.21,12,2.12,18.35,1.22,3.31-1.9,6-2.35,9.24,0,.32-1,.76-1.5.73-1.08-.05-1.26-1-1.08-1.82,1.36-6.23-1.69-11.3-4.19-16.58-3.49-7.41-1.25-14.21,2.76-20.69.67-1.08,1.65-2.1,3-1.83,1.85.36,1.88,2,1.8,3.47C499.65,255.76,499.46,258.46,499.22,262.19Z" transform="translate(-245.66 -195.69)"/><path class="cls-3" d="M375.32,519c.33,3.2-4.94,6.31-1.25,9s6.26-1.89,9-3.62c13.09-8.22,25.93-16.84,39.05-25,3.51-2.19,4.78-4.7,4.65-8.68-.41-11.8-5.27-21.68-12.16-30.95-3.76-5.07-8.64-4.47-13.47-3.32-3.42.81-4.77.12-5.91-3.18-5.48-15.89-16.38-26.67-32.47-31.27-13.35-3.82-26.53-2.23-38.29,5.68-5,3.33-6.18,1.73-5.86-3.28,1.26-20.15,9-37.61,22.29-52.62,32.5-36.79,89.15-38.37,127.65-15.05,23.13,14,39.93,33.89,52.37,57.71a18.27,18.27,0,0,1,1.75,13.86c-.79,3-.42,6.23-.59,9.36-.11,2.06.49,4.32,2.51,4.52,8.35.84,6.62,7.55,7.48,12.56.78,4.5,1,9.1,1.35,13.67.31,3.58,2.48,5.56,5.78,5.21,6.38-.68,7.71,3.57,9,8.2,5.3,19.54,8,39.6,11.65,59.46,5.78,31.07,8.93,62.37,7.44,94a673.3,673.3,0,0,1-6.79,71.54c-1.66,10.69-3.06,21.41-5.53,32-3.36-.53-5.8,2.19-9,2.48-13.23,1.22-26.46,2.6-39.7,3.74-20.91,1.81-41.62-2-62.41-3-7.07-.36-14.67-.55-21.55-2.35-9.79-2.56-19.84-4.27-29.37-7.5-13-4.41-26.47-7.58-38.63-14.35-1.91-1.07-4.1-4.42-7-1.19-2.61-1.33-3.55-2.79-4.19-6.32-3.23-17.65,3.18-34.23,4.39-51.32,1.15-16.16-.27-32.05-5.85-47.35-2.34-6.44-.27-13.34-2.67-19.71a2.41,2.41,0,0,1,.71-2.17c5.89-3.29,5-9,5.5-14.35.68-7.66,2.44-15.21,2.37-23,0-4.47,1.24-9.21-2.8-12.86-.48-.44-.81-1.89-.49-2.26,4.78-5.65.51-10-2-14.59l8.72.07c7.36,3.63,13-1.14,19.17-3.79C371.89,521.24,373.62,518.44,375.32,519ZM490.8,465h0a3.64,3.64,0,0,0,2.49-2.5l0,0a2,2,0,0,0,1.23-2.47l0,0c1.8.15,2.47-.84,2.48-2.48l0,0c3-1.58,3.4-4.62,4-7.5.17-3.58.56-7.19-1.94-10.25.39-1.84.74-3.68,1.2-5.5,9.74-38.4-26-68.64-60.09-58.56-32.8,9.7-45.42,53.48-21.63,78.05a24.78,24.78,0,0,1,5.49,7.53c6.22,14.44,28.2,23.2,44.12,17.6,2.94-.21,5.13-2.57,8.22-2.6,3.75,0,5.57-2.26,5.45-6,1-.13,2.14-.15,2.56-1.41h0c1.9.13,3.67.08,3.76-2.5h0A2.16,2.16,0,0,0,490.8,465Zm37.57,191.57c-1.4-6.11,4.36-8.67,7.75-12.66.89-1.06,2.75-2.12,1.6-3.59s-3.07-.75-4.49.32a25.14,25.14,0,0,1-2.33,2.08c-1.48.83-2.58,4.58-4.64,1.59-1.28-1.85-3.08-4.82-.08-7.32a47.63,47.63,0,0,0,5.49-5.13c1.65-1.89,5.89-3.85,3.61-6.24-2.91-3.06-4.45,2-6.75,3.18-2,1.05-3.62,5.41-5.54,3.19s-3.54-6.36-1.18-9.9c1-1.54,2.61-2.69,3.83-4.12,1-1.14,2.72-1.92,2.28-3.94-4,.09-5.08,5.15-8.47,4.9s-2.88-5.7-6.64-6.36c-1.48,3.23.86,5.39,1.57,7.89.84,3-.75,4.71-3,6.26-2.86,2-3.43-.79-4.73-2.11-.78-.79-1-2.53-2.76-1.79-1.13,1.93-.24,3.68.69,5.29,2.6,4.46-1.38,6.22-3.73,7.92-3.12,2.26-3.44-1.59-4.65-3.17-1.07-1.4-1.38-3.54-3.9-3.59a5.58,5.58,0,0,0,.7,4.82c2.87,5,2.4,9.05-2.3,12.88-1.46,1.18-3.78,3.16-2.77,7,2.2-2.05,3.76-3.67,5.5-5.06,1.5-1.19,3.13-3.8,5.19-1.73s3.48,4.94,1,7.86c-1.34,1.6-3,2.94-4.35,4.52-2.84,3.31-6,6.42-7.38,10.88A134.8,134.8,0,0,0,500.14,661c1.12-.93,2.65-3.53,3.78-1.54s4.45,4,1.87,7.06c-1.07,1.28-2.37,2.37-3.47,3.63-2,2.28-5.75,6.05-4.18,7.35,3.13,2.59,4.95-2.21,7-4.08,3.11-2.84,4.66-2.87,6,1.4.77,2.4,1.47,5.16,4.52,7.08-.14-4.43-2-7.74-3.1-11.21s1.31-5.3,3.53-6.49c2.64-1.42,2.51,1.88,3.58,3.1.9,1,.83,2.89,3.07,3.07C524.82,666.11,515,656.66,528.37,656.54Zm-165.2-89.6c4.89-8.78,8.66-17.79,8-28.7-3.37,2.22-1,7.52-4.9,7.26-4.59-.31-.6-5.14-2.73-8.15-1.63,3.83-5.42,6-4.81,9.69.75,4.48-.47,6.37-5.61,6.18,8.62,2.86,1.11,9.66,4.28,14.27,2.07-3,2-6.15,2.86-9,.51-1.78,1.35-3.25,3.42-2.71s1.24,2.15.93,3.57C364,561.84,363.63,564.4,363.17,566.94Z" transform="translate(-245.66 -195.69)"/><path class="cls-4" d="M347.33,716.58c2.9-3.23,5.09.12,7,1.19,12.16,6.77,25.64,9.94,38.63,14.35,9.53,3.23,19.58,4.94,29.37,7.5,6.88,1.8,14.48,2,21.55,2.35,20.79,1.07,41.5,4.84,62.41,3,13.24-1.14,26.47-2.52,39.7-3.74,3.16-.29,5.6-3,9-2.48-.19,10.35-.14,10.62-10.35,12.31-18.7,3.1-37.52,5.14-56.43,6.72-19.22,1.61-38.42,1-57.63.88-13.59-.09-26.44-2.61-39-9.32-8.87-4.74-15.78-11.27-23.43-17.18-2.56-2-5.16-3.53-8.41-3.8C352.42,727.77,349.57,722.5,347.33,716.58Z" transform="translate(-245.66 -195.69)"/><path class="cls-5" d="M648.63,461.05q-4.3-9.21-8.62-18.44c3.83-8.3,8.89-28.42,8-32-1.65,1.9-3.12,3.89-4.89,5.56-4.38,4.11-7,3-9.43-2.39-2-4.37-1.77-9.07-3.14-14.54-2.54,3.89-3.15,7.3-4.11,10.56-5.11-2.05-6.2-5.44-3.72-10.33,1.87-3.67,3.4-7.5,5.24-11.6,2.07,3.37,3.45,6.43,5.56,8.88,5.14,6,11.15,5.2,15.13-1.63,3.77-6.47,2.82-13.64,3-20.64l0,.06c7.19,6.23,9.11,14.43,8.89,23.5-.06,2.55-1.76,5.78,1.18,7.48,2.76,1.59,5-1.18,7.36-2.2.67-.29,1.31-.63,2.89-1.39a74.36,74.36,0,0,1-13.62,24.52c-6.9,8.38-9.95,17.43-6.8,28.4,1.29,4.51,4.43,6.6,7.56,9.13l-2.52,1a7.62,7.62,0,0,1-1.17,0,3.67,3.67,0,0,0-3.75-2.5l-.07-.06-1.26-1.21ZM664.14,411c-5.42,2.71-10.52,5.69-10.48,12.82,3.54-4.23,10.1-6,10.46-12.83l.3-.5Z" transform="translate(-245.66 -195.69)"/><path class="cls-6" d="M358.7,474.38c12.19-3,23.87-7,35.63-10.64,15.68-4.82,14.56-2.58,21.67,10.15a42.16,42.16,0,0,1,4.21,11.66c1.08,5.08.25,8.93-5.42,12.18-10.72,6.14-20.57,13.82-31.59,20.39,3.28-5.87,6.53-11.75,9.83-17.61,2.05-3.63,4.39-7.1,6.18-10.85,2.66-5.59,1.54-7.36-4.57-8.5C382.65,478.93,370.68,476.64,358.7,474.38Z" transform="translate(-245.66 -195.69)"/><path class="cls-7" d="M335.21,639.69c3,3.18,3.19,7,2.49,11-3.57,1.54-3.24,8.26-9.53,6.57-4.34-1.17-4.33,1.52-3.42,5.13,1.4,5.48,6.52,7.94,9,12.43-10.78-3.6-17.12-13.43-17.34-27.27,3.31,1.64,6.42,4.88,10.17,1.69s3.77-7.24,3.24-11.53c-1-8.07-5.8-14.63-8.79-21.91l.6-.57c6.7,3,15.13,3.78,17.23,12.94-2-.34-3.33-2.57-6.58-1.56C335.44,630.62,335,635.2,335.21,639.69Z" transform="translate(-245.66 -195.69)"/><path class="cls-8" d="M342.35,472.63c0,4.26,2.86,5.71,6.4,5.35,4.27-.43,8.1,1.07,12.4,1.48-5,5.8-11.66,7-18.38,3.55a16.39,16.39,0,0,1-8.7-18.34,16.82,16.82,0,0,1,15.65-13c7-.17,13.86,4.73,15.81,11.09,1.66,5.45-3.83,2.71-5.2,4.66-1.39-2.46-.56-6.06-3.88-7.53h0c-.15-1.76-1.58-1.08-2.52-1.32a12.17,12.17,0,0,0-11.83.05c2.49,4.59-4,9.42.38,14Z" transform="translate(-245.66 -195.69)"/><path class="cls-9" d="M626.43,409.8c1-3.26,1.57-6.67,4.11-10.56,1.37,5.47,1.17,10.17,3.14,14.54,2.43,5.41,5.05,6.5,9.43,2.39,1.77-1.67,3.24-3.66,4.89-5.56.9,3.58-4.16,23.7-8,32-2.88-7-6.19-13.86-6.66-21.54C633,415.94,629.38,413.16,626.43,409.8Z" transform="translate(-245.66 -195.69)"/><path class="cls-4" d="M351,522.77l-8.72-.07c-1.06-2-3.34-3.85-2-6.19s4.17-1.18,6.3-.92c11.79,1.39,22.07-2.3,31.54-9,1.57-1.11,2.93-4,5.05-2.16,1.58,1.39-.6,3.39-1.43,4.91-1.59,2.91-3.48,5.64-5.25,8.45-2-1.27-1,.69-1.28,1.22h0c-1.7-.59-3.43,2.21-5.11,0-.06-.82-.45-2.16-1.13-1.73C363.52,520.67,357.05,521,351,522.77Z" transform="translate(-245.66 -195.69)"/><path class="cls-9" d="M333.77,674.85c-2.5-4.49-7.62-7-9-12.43-.91-3.61-.92-6.3,3.42-5.13,6.29,1.69,6-5,9.53-6.57,2.51.29,3.63,1.61,3.31,4.18-.75,5.94-1.44,11.89-2.14,17.83C338.43,676.5,336.47,676.56,333.77,674.85Z" transform="translate(-245.66 -195.69)"/><path class="cls-10" d="M272.15,529.68c5.77-.43,11.33-1,17,.3,4.33,1,9.21,2.66,12.43-3,1.55-2.73,5-2,7.56-1.59a124.11,124.11,0,0,1,22,4.89c-2.46,0-5,.35-7.37-.06-9.67-1.62-19.07-2.44-26.65,5.69a3,3,0,0,1-2.35.6C286.84,535.32,279.49,532.54,272.15,529.68Z" transform="translate(-245.66 -195.69)"/><path class="cls-11" d="M359.62,496.58c3.45-6,8-6.67,13-6.44,5.16.23,10.16,1.27,13.62-4.78,1.76-3.07,5.58.08,8.66,0-5.31,10.39-9.77,12.88-20,10.58C370,494.9,365.38,495.48,359.62,496.58Z" transform="translate(-245.66 -195.69)"/><path class="cls-10" d="M634,461.22c-3.88-6.83-5.91-14.65-11-20.79-4.1-4.93-7.4-10-6.61-16.83.36-3.07-3-4.28-4.31-6.7,7.12-.18,11.06,2.89,10.51,9.22-.84,9.49,6.55,15.51,9,23.58,1.15,3.79,2.88,7.38,2.48,11.47Z" transform="translate(-245.66 -195.69)"/><path class="cls-10" d="M708.35,537a21.69,21.69,0,0,1-18-6.14c-2.63-2.5-5.27-4-8.38-.36-1.49,1.74-4.05,1.49-5.93.87-3.83-1.26-7.8-.67-11.73-2.33a72.41,72.41,0,0,1,7.37,0c4.4.44,7.75-.95,9.9-4.9C682.78,522,684,521,686.43,523A105,105,0,0,0,708.35,537Z" transform="translate(-245.66 -195.69)"/><path class="cls-7" d="M656.51,465l2.52-1c4.23,1.54,8.34.94,13.27-2a35.33,35.33,0,0,1-14,17.71c-1.29.88-3,3.07-4.71.82a3.54,3.54,0,0,1,.77-5.43l2-1.45c3.08.14,5.51-1.25,6-4.19s-3.13-1.8-4.4-3.22A15.93,15.93,0,0,0,656.51,465Z" transform="translate(-245.66 -195.69)"/><path class="cls-12" d="M358.11,467.54c-3.3.79-3.3.79-5.78-4.94.65,8.25-5.79,7.85-10,10l.14-.07c.24-3.84,4.11-7.86,3.33-10.22-1.37-4.13,1-3.37,2.65-3.47s3.59.55,5.38.87c.86.4,1.66,1.88,2.61.13h0C355,462.85,359,464.66,358.11,467.54Zm-6.71-4.76c-1.61-1.55-3.21-2.35-5.75,0Z" transform="translate(-245.66 -195.69)"/><path class="cls-9" d="M656.51,465a15.93,15.93,0,0,1,1.38,1.21c1.27,1.42,4.88.27,4.4,3.22s-2.9,4.33-6,4.19c-5.11-1.63-6.84-6-8.35-10.46a1.71,1.71,0,0,1,.67-2.12l1.63.17,1.26,1.21.07.06a3.85,3.85,0,0,0,3.75,2.5A7.62,7.62,0,0,0,656.51,465Z" transform="translate(-245.66 -195.69)"/><path class="cls-9" d="M335.21,639.69c-.21-4.49.23-9.07-2.91-13.05,3.25-1,4.62,1.22,6.58,1.56l0-.05.54,1.32c.34,1.4.6,2.83,1,4.2C342,638.53,340.3,640.58,335.21,639.69Z" transform="translate(-245.66 -195.69)"/><path class="cls-3" d="M347.87,740.34c-5.66,4.45-16.75,10.17-22.25,11.5,2.23-3.94,12.32-9.52,21.79-12Z" transform="translate(-245.66 -195.69)"/><path class="cls-13" d="M358.11,467.54c.93-2.88-3.09-4.69-1.66-7.68,3.32,1.47,2.49,5.07,3.88,7.53Z" transform="translate(-245.66 -195.69)"/><path class="cls-3" d="M347.41,739.8a4.44,4.44,0,0,1,4.2-2.18c0,2.79-2.28,2.2-3.74,2.72Z" transform="translate(-245.66 -195.69)"/><path class="cls-10" d="M634,461.17c1.65,1.44,1.43,3.15.74,5.21-1.31-1.74-.52-3.54-.79-5.16Z" transform="translate(-245.66 -195.69)"/><path class="cls-3" d="M375.28,519c.31-.53-.74-2.49,1.28-1.22Z" transform="translate(-245.66 -195.69)"/><path class="cls-6" d="M381.87,520.7c-.06.16-.11.44-.17.44a1.6,1.6,0,0,1-.53-.16c.05-.15.1-.44.16-.44A1.59,1.59,0,0,1,381.87,520.7Z" transform="translate(-245.66 -195.69)"/><path class="cls-4" d="M385.09,501.21l.84-.45-.44.85Z" transform="translate(-245.66 -195.69)"/><path class="cls-4" d="M385.49,501.61a6.19,6.19,0,0,1-.7.7c-.78-.58-.1-.8.3-1.1Z" transform="translate(-245.66 -195.69)"/><path class="cls-7" d="M321.05,615.83c-.26-.27-.8-.72-.76-.78.55-.79,1-.34,1.36.21Z" transform="translate(-245.66 -195.69)"/><path class="cls-7" d="M339.39,629.47l-.54-1.32Z" transform="translate(-245.66 -195.69)"/><path class="cls-5" d="M651.62,374.48,651,374c.11,0,.29,0,.34,0a2,2,0,0,1,.25.48Z" transform="translate(-245.66 -195.69)"/><path class="cls-14" d="M424.17,461.19a24.78,24.78,0,0,0-5.49-7.53c-23.79-24.57-11.17-68.35,21.63-78.05,34.05-10.08,69.83,20.16,60.09,58.56-.46,1.82-.81,3.66-1.2,5.5-1.13,1.73-2.31,3.44-3.4,5.19-7.5,12-17.49,20.77-31.79,23.27-5.6,1-11.43.7-17.15,1a42.59,42.59,0,0,0,27.32,1.76c-2.51,3.09-4.93,2.62-7.16,2.88-12,1.39-23.11-1.83-34-6.3h0a2,2,0,0,0-2.54-1.27l0,0-1.3-1.29,0,0-1.33-1.43C427.79,461,425.9,461.22,424.17,461.19ZM438,421.87a16.71,16.71,0,0,0,16.34,16.42c9.12.18,16.38-7.27,16.42-16.83A16.62,16.62,0,0,0,454.56,405C445.63,404.83,438,412.63,438,421.87Z" transform="translate(-245.66 -195.69)"/><path class="cls-13" d="M528.37,656.54c-13.33.12-3.55,9.57-5.59,13.82-2.24-.18-2.17-2.06-3.07-3.07-1.07-1.22-.94-4.52-3.58-3.1-2.22,1.19-4.66,2.95-3.53,6.49s3,6.78,3.1,11.21c-3.05-1.92-3.75-4.68-4.52-7.08-1.38-4.27-2.93-4.24-6-1.4-2.05,1.87-3.87,6.67-7,4.08-1.57-1.3,2.21-5.07,4.18-7.35,1.1-1.26,2.4-2.35,3.47-3.63,2.58-3.07-.77-5.14-1.87-7.06s-2.66.61-3.78,1.54A134.8,134.8,0,0,1,488,670.44c1.37-4.46,4.54-7.57,7.38-10.88,1.37-1.58,3-2.92,4.35-4.52,2.44-2.92,1-5.82-1-7.86s-3.69.54-5.19,1.73c-1.74,1.39-3.3,3-5.5,5.06-1-3.87,1.31-5.85,2.77-7,4.7-3.83,5.17-7.9,2.3-12.88a5.58,5.58,0,0,1-.7-4.82c2.52,0,2.83,2.19,3.9,3.59,1.21,1.58,1.53,5.43,4.65,3.17,2.35-1.7,6.33-3.46,3.73-7.92-.93-1.61-1.82-3.36-.69-5.29,1.8-.74,2,1,2.76,1.79,1.3,1.32,1.87,4.12,4.73,2.11,2.21-1.55,3.8-3.31,3-6.26-.71-2.5-3.05-4.66-1.57-7.89,3.76.66,3.38,6.12,6.64,6.36s4.5-4.81,8.47-4.9c.44,2-1.32,2.8-2.28,3.94-1.22,1.43-2.8,2.58-3.83,4.12-2.36,3.54-.72,7.69,1.18,9.9s3.53-2.14,5.54-3.19c2.3-1.2,3.84-6.24,6.75-3.18,2.28,2.39-2,4.35-3.61,6.24a47.63,47.63,0,0,1-5.49,5.13c-3,2.5-1.2,5.47.08,7.32,2.06,3,3.16-.76,4.64-1.59a25.14,25.14,0,0,0,2.33-2.08c1.42-1.07,3.26-1.88,4.49-.32s-.71,2.53-1.6,3.59C532.73,647.87,527,650.43,528.37,656.54ZM510.7,643.08c-1.27-2-1.23-5.33-3.66-5.41s-4.59,2.32-4.7,4.93c-.09,2.15.78,5.14,3.34,5.24S509.76,645.5,510.7,643.08Zm1.44-8.56c.64,1.79.18,5.24,3,5.53,1.79.18,4.51-2.25,3.95-4.66s-.68-6.1-3.58-6.42C513.33,628.74,512,631.5,512.14,634.52Zm-.32,15.12c-1.87,2-4.75,3-4.42,5.87.23,2.09.41,5.61,2.79,5.7s4.39-2.49,4.38-5.28A8.37,8.37,0,0,0,511.82,649.64Zm11.23-2.17c-1.51-1.28.26-5.05-2.65-4.68a5,5,0,0,0-4.17,5.39c.19,1.7.78,4.1,3.27,3.69A4,4,0,0,0,523.05,647.47Z" transform="translate(-245.66 -195.69)"/><path class="cls-4" d="M433,467.46c10.9,4.47,22,7.69,34,6.3,2.23-.26,4.65.21,7.16-2.88a42.59,42.59,0,0,1-27.32-1.76c5.72-.29,11.55,0,17.15-1,14.3-2.5,24.29-11.27,31.79-23.27,1.09-1.75,2.27-3.46,3.4-5.19,2.5,3.06,2.11,6.67,1.94,10.25-3,1.81-3.38,2.48-4,7.5l0,0c-1.77-.11-2.51.8-2.48,2.48l0,0a1.93,1.93,0,0,0-1.23,2.47l0,0c-1.86-.19-2.62.71-2.49,2.5h0a2,2,0,0,0-2.5,1.26h0a3.46,3.46,0,0,0-3.76,2.5h0a2.27,2.27,0,0,0-2.56,1.41c.12,3.77-1.7,6-5.45,6-3.09,0-5.28,2.39-8.22,2.6-8.65.11-17.21-.5-25.26-4C439.2,473.15,434.77,472.06,433,467.46Z" transform="translate(-245.66 -195.69)"/><path class="cls-13" d="M363.17,566.94c.46-2.54.85-5.1,1.4-7.62.31-1.42,1.16-3-.93-3.57s-2.91.93-3.42,2.71c-.82,2.88-.79,6.06-2.86,9-3.17-4.61,4.34-11.41-4.28-14.27,5.14.19,6.36-1.7,5.61-6.18-.61-3.69,3.18-5.86,4.81-9.69,2.13,3-1.86,7.84,2.73,8.15,3.89.26,1.53-5,4.9-7.26C371.83,549.15,368.06,558.16,363.17,566.94Zm4-17c.12-2-1.23-2.06-2.49-1.93-2.06.22-2.67,1.88-2.82,3.57a2.18,2.18,0,0,0,2.36,2.34C367,554,366.23,551.23,367.16,549.91Z" transform="translate(-245.66 -195.69)"/><path class="cls-1" d="M433,467.46c1.76,4.6,6.19,5.69,10,7.35,8.05,3.48,16.61,4.09,25.26,4-15.92,5.6-37.9-3.16-44.12-17.6,1.73,0,3.62-.19,3.77,2.37.45.47.89.95,1.33,1.42l0,0,1.3,1.29,0,0a1.9,1.9,0,0,0,2.54,1.27Z" transform="translate(-245.66 -195.69)"/><path class="cls-6" d="M351,522.77c6-1.82,12.48-2.1,18-5.52.68-.43,1.07.91,1.13,1.73C364.09,521.63,358.4,526.4,351,522.77Z" transform="translate(-245.66 -195.69)"/><path class="cls-6" d="M497.1,457.42c.66-5,1-5.69,4-7.5C500.5,452.8,500.15,455.84,497.1,457.42Z" transform="translate(-245.66 -195.69)"/><path class="cls-6" d="M484.53,468.74a3.46,3.46,0,0,1,3.76-2.5C488.2,468.82,486.43,468.87,484.53,468.74Z" transform="translate(-245.66 -195.69)"/><path class="cls-6" d="M494.59,459.93c0-1.68.71-2.59,2.48-2.48C497.06,459.09,496.39,460.08,494.59,459.93Z" transform="translate(-245.66 -195.69)"/><path class="cls-6" d="M490.81,465c-.13-1.79.63-2.69,2.49-2.5A3.64,3.64,0,0,1,490.81,465Z" transform="translate(-245.66 -195.69)"/><path class="cls-6" d="M493.33,462.44a1.93,1.93,0,0,1,1.23-2.47A2,2,0,0,1,493.33,462.44Z" transform="translate(-245.66 -195.69)"/><path class="cls-6" d="M488.3,466.23a2,2,0,0,1,2.5-1.26A2.16,2.16,0,0,1,488.3,466.23Z" transform="translate(-245.66 -195.69)"/><path class="cls-6" d="M482,470.16a2.27,2.27,0,0,1,2.56-1.41C484.1,470,483,470,482,470.16Z" transform="translate(-245.66 -195.69)"/><path class="cls-9" d="M664.12,411c-.36,6.8-6.92,8.6-10.46,12.83,0-7.13,5.06-10.11,10.48-12.82Z" transform="translate(-245.66 -195.69)"/><path class="cls-7" d="M655.34,465a3.85,3.85,0,0,1-3.75-2.5A3.67,3.67,0,0,1,655.34,465Z" transform="translate(-245.66 -195.69)"/><path class="cls-7" d="M651.52,462.43l-1.26-1.21Z" transform="translate(-245.66 -195.69)"/><path class="cls-9" d="M664.14,411l.28-.51-.3.5Z" transform="translate(-245.66 -195.69)"/><path class="cls-1" d="M353.85,459.74c-1.79-.32-3.61-1-5.38-.87s-4-.66-2.65,3.47c.78,2.36-3.09,6.38-3.33,10.22-4.4-4.54,2.11-9.37-.38-14a12.17,12.17,0,0,1,11.83-.05A6,6,0,0,0,353.85,459.74Z" transform="translate(-245.66 -195.69)"/><path class="cls-13" d="M353.85,459.74a6,6,0,0,1,.09-1.19c.94.24,2.37-.44,2.52,1.32C355.51,461.62,354.71,460.14,353.85,459.74Z" transform="translate(-245.66 -195.69)"/><path class="cls-1" d="M351.4,462.78h-5.75C348.19,460.43,349.79,461.23,351.4,462.78Z" transform="translate(-245.66 -195.69)"/><path class="cls-15" d="M438,421.87c0-9.24,7.6-17,16.53-16.91a16.62,16.62,0,0,1,16.23,16.5c0,9.56-7.3,17-16.42,16.83A16.71,16.71,0,0,1,438,421.87Zm20.14-3.4c-4.35-4.8-7.89-2.76-11.18,1.32-2.54,5.26-.28,8.92,4.24,11.35,3.93,2.1,10.3-.39,12.47-4.41s.8-8.88-3.64-12c.44,4.48,6.11,9.74-1.94,12.64C457.52,424.4,461.83,421.46,458.17,418.47Zm2.61-3.16c-4.74-5.65-9.21-5.55-14.53-.23C450.78,413.49,455.33,412.49,460.78,415.31Z" transform="translate(-245.66 -195.69)"/><path class="cls-4" d="M433,467.47a1.9,1.9,0,0,1-2.54-1.27A2,2,0,0,1,433,467.47Z" transform="translate(-245.66 -195.69)"/><path class="cls-4" d="M429.27,465c-.44-.47-.88-1-1.33-1.42Z" transform="translate(-245.66 -195.69)"/><path class="cls-4" d="M430.52,466.23l-1.3-1.29Z" transform="translate(-245.66 -195.69)"/><path class="cls-3" d="M510.7,643.08c-.94,2.42-2.47,4.85-5,4.76s-3.43-3.09-3.34-5.24c.11-2.61,2.25-5,4.7-4.93S509.43,641.1,510.7,643.08Z" transform="translate(-245.66 -195.69)"/><path class="cls-3" d="M512.14,634.52c-.16-3,1.19-5.78,3.33-5.55,2.9.32,3,4.09,3.58,6.42s-2.16,4.84-3.95,4.66C512.32,639.76,512.78,636.31,512.14,634.52Z" transform="translate(-245.66 -195.69)"/><path class="cls-3" d="M511.82,649.64a8.37,8.37,0,0,1,2.75,6.29c0,2.79-2.13,5.36-4.38,5.28s-2.56-3.61-2.79-5.7C507.07,652.63,510,651.59,511.82,649.64Z" transform="translate(-245.66 -195.69)"/><path class="cls-3" d="M523.05,647.47a4,4,0,0,1-3.55,4.4c-2.49.41-3.08-2-3.27-3.69a5,5,0,0,1,4.17-5.39C523.31,642.42,521.54,646.19,523.05,647.47Z" transform="translate(-245.66 -195.69)"/><path class="cls-3" d="M367.16,549.91c-.93,1.32-.12,4.05-3,4a2.18,2.18,0,0,1-2.36-2.34c.15-1.69.76-3.35,2.82-3.57C365.93,547.85,367.28,547.94,367.16,549.91Z" transform="translate(-245.66 -195.69)"/><path class="cls-10" d="M458.12,427.37c8.05-2.9,2.38-8.16,1.94-12.64,4.44,3.12,5.83,7.94,3.64,12s-8.54,6.51-12.47,4.41c-4.52-2.43-6.78-6.09-4.24-11.35l1.3,1.54c.11,2.89.52,5.63,3.6,7,2.4,1.44,4.53,1.25,6.31-1.05Z" transform="translate(-245.66 -195.69)"/><path class="cls-10" d="M458.17,418.47c3.66,3-.65,5.93-.05,8.9l.08-.11c-1.94-1.3-4.38,1.22-6.22-.82-.37-4.08-.37-4.08,1.07-3.66,3.35,1,3.35,1,3.8-3Z" transform="translate(-245.66 -195.69)"/><path class="cls-10" d="M460.78,415.31c-5.45-2.82-10-1.82-14.53-.23C451.57,409.76,456,409.66,460.78,415.31Z" transform="translate(-245.66 -195.69)"/><path class="cls-4" d="M458.17,418.47l-1.32,1.33c-3.44-2.77-6.12-1.3-8.56,1.53l-1.3-1.54C450.28,415.71,453.82,413.67,458.17,418.47Z" transform="translate(-245.66 -195.69)"/><path class="cls-12" d="M448.29,421.33c2.44-2.83,5.12-4.3,8.56-1.53-.45,3.94-.45,3.94-3.8,3-1.44-.42-1.44-.42-1.07,3.66l-.09,1.87C448.81,427,448.4,424.22,448.29,421.33Z" transform="translate(-245.66 -195.69)"/><path class="cls-15" d="M451.89,428.31l.09-1.87c1.84,2,4.28-.48,6.22.82C456.42,429.56,454.29,429.75,451.89,428.31Z" transform="translate(-245.66 -195.69)"/></svg>