<?xml version="1.0" encoding="utf-8"?>
<!-- Generator: Adobe Illustrator 24.0.0, SVG Export Plug-In . SVG Version: 6.00 Build 0)  -->
<svg version="1.1" id="PefiDoctorCrown" xmlns="http://www.w3.org/2000/svg" xmlns:xlink="http://www.w3.org/1999/xlink" x="0px"
	 y="0px" viewBox="0 0 542.4 769.3" style="enable-background:new 0 0 542.4 769.3;" xml:space="preserve">
<style type="text/css">
	.penguin_doctor_crown-st0{fill:#2D2D2D;}
	.penguin_doctor_crown-st1{fill:#E5C333;}
	.penguin_doctor_crown-st2{fill:#FFFFFF;}
	.penguin_doctor_crown-st3{fill:#B6C0D6;}
	.penguin_doctor_crown-st4{fill:#E7F0F7;}
	.penguin_doctor_crown-st5{fill:#F5FBFF;}
	.penguin_doctor_crown-st6{fill:#C57F00;}
	.penguin_doctor_crown-st7{opacity:0.4;fill:#8D5D15;enable-background:new    ;}
	.penguin_doctor_crown-st8{fill:#A56921;}
	.penguin_doctor_crown-st9{fill:#8D5D15;}
	.penguin_doctor_crown-st10{fill:#FFB700;}
	.penguin_doctor_crown-st11{fill:#6FBE44;}
	.penguin_doctor_crown-st12{fill:#65AB45;}
	.penguin_doctor_crown-st13{fill:#D4F4D0;}
</style>
<g id="Color_1_">
	<path id="Color-4" class="penguin_doctor_crown-st0" d="M494.8,367.7c-8.2,255-8.2,255-8.2,255.2c0,12.2-2.1,24.3-6.4,35.7
		c-13.5,34.4-47.7,54.5-81.4,65.5c6.2-10.2,30-51.7,15.3-67.7c-3.4-3.8-8.4-5.5-13.4-4.6c2.1-10.2-3-24.5-15.8-24.1
		c5.5-17.1,9.8-34.6,12.9-52.3c29.6-17,53.7-34,55.8-35.5c5.7-4.1-0.5-12.9-6.3-8.8c-12.2,8.7-33.5,22.7-56.6,35.9
		c-0.4,0.2-0.7,0.4-1.1,0.6c-33.6,19.1-70.9,36.2-89.6,32.2c-4-0.9-6.8-2.7-8.5-5.7c-14.3-24.7,9.9-52,40.7-86.6
		c33.2-37.4,70.7-79.8,72.9-134h0.2v-5.2c0.8-105.5-83-181.8-184.6-173.6C348.7,134.7,498.6,223.2,494.8,367.7z"/>
	<path id="Color-5" class="penguin_doctor_crown-st0" d="M152.6,388.6l70.5-19.5c2.3,12.4,1.4,25.1-2.7,37L152.6,388.6z"/>
</g>
<g id="Shape">
	<g id="Layer_1-2">
		<polygon class="penguin_doctor_crown-st1" points="367.1,638.4 361.6,626.3 353.6,624.7 341.2,635.7 326.6,645.9 312.5,664.9 301.4,684.6 294.1,711.9 
			296,735.9 306.7,754.3 317.3,761.1 338.8,763.8 366.1,754.5 392,724.6 407.9,694.2 413.4,669.3 407.3,657.9 394.7,659.5 
			394.5,640 384.7,633 372.1,635.7 		"/>
		<polygon class="penguin_doctor_crown-st1" points="51.8,628 40.3,619.1 31.5,617.8 24.3,624.5 24.3,635.7 21.1,642.6 8.7,644.5 5.4,650.2 5.4,662.7 
			25.7,707.5 43.7,729 65.2,746.9 86.8,748.3 106.8,742.9 121.4,724.6 125.1,694.2 117.5,669.3 101.1,641.8 87,624.5 73.6,612.9 
			60.9,609.2 52.3,618.7 		"/>
		<path class="penguin_doctor_crown-st2" d="M292.2,741.2c-69.1,2.8-133.1-6.9-150.6-13.4c-4.7-1.6-9.3-3.6-13.8-5.9c11.2-38.2-17.3-88.2-52-113.9
			c8.9-38.1,41.5-68.8,80.1-75.4c2.9-0.5,4.9-3.3,4.4-6.3l0,0c-2.2-12.3-38.5,6.3-44.9,10.4V398.8c16.9,15.3,45.5,19.2,66.1,8.4
			l45.1,11.6c9.4-19.7,10.9-42.3,4.1-63.1l-15.7,4.4c6.8-47.7-46.9-84.2-88.6-60.8c13.2-36.7,37.7-68.3,69.8-90.4
			c103.2-22.7,199.6,49.7,198.2,160c-0.2,52.4-37.5,94.4-70.4,131.5c-32.3,36.4-60.2,67.8-41.9,99.2c19.4,28.1,71.7-1.4,103.3-17.2
			c-3.3,16.9-7.8,33.6-13.4,49.9c-0.1,0.1-0.2,0.1-0.3,0.2c-15.3-38.4-55.9,15.8-67,34.7C288.6,692.4,284.6,720.8,292.2,741.2z"/>
		<circle cx="307.9" cy="346.4" r="58.5"/>
		<path d="M450.2,225.2c-65.6-69.8-181.5-79.5-259.7-25.5c-38.6,26.4-66.5,65.6-78.8,110.7c-19.7,18.7-23.1,54.1-6.9,76.4v93.8
			c-7.3,8.1-37.7,45.7-26.7,94c-5.5,9.2-9.6,19.1-12.3,29.4c-9-1.9-17.1,5.4-18.6,12.9c-16.7-11.9-32.5,0.6-29,19.4
			c-5-0.9-10.1,0.9-13.5,4.6c-15.9,17.2,13.1,64.2,16.4,69.5c24.6,39.4,77.1,63.3,102.7,21.5c4.6,2.3,9.3,4.4,14.2,6.1
			c14.7,7.4,107.6,17.9,159.6,13.8c23.4,32.9,69.3,13.9,90.8-13.3c56.1-14.4,110.2-52,109-115.5c0-1.5,8.2-255,8.2-255
			C507.5,314.9,487.4,263.3,450.2,225.2z M152.6,388.6l70.5-19.5c2.3,12.4,1.4,25.1-2.7,37L152.6,388.6z M104.7,498.3v45.8
			c-3,2.6-6.2,5.1-9,8c-3.1,3.1-6.1,6.3-8.8,9.7C84.2,534.6,95.8,511.5,104.7,498.3z M103.9,738.3c-20.6,13-53.7-2.1-73.7-33.7
			c-16.2-24.3-30.7-68.1-7.7-55.1c4.1,3.3,10.3-1.3,8.4-6.1c-6.8-20.4,2.2-27.5,16.8-11.8c3.3,4.1,10.4,0.8,9.4-4.3
			c-1.4-29.8,27.4-2.6,47.9,30.1C125.1,688.9,124.5,725.3,103.9,738.3z M292.2,741.2c-69.1,2.8-133.1-6.9-150.6-13.4
			c-4.7-1.6-9.3-3.6-13.8-5.9c11.2-38.2-17.3-88.2-52-113.9c8.9-38.1,41.5-68.8,80.1-75.4c2.9-0.5,4.9-3.3,4.4-6.3l0,0
			c-2.2-12.3-38.5,6.3-44.9,10.4V398.8c16.9,15.3,45.5,19.2,66.1,8.4l45.1,11.6c9.4-19.7,10.9-42.3,4.1-63.1l-15.7,4.4
			c6.8-47.7-46.9-84.2-88.6-60.8c13.2-36.7,37.7-68.3,69.8-90.4c103.2-22.7,199.6,49.7,198.2,160c-0.2,52.4-37.5,94.4-70.4,131.5
			c-32.3,36.4-60.2,67.8-41.9,99.2c19.4,28.1,71.7-1.4,103.3-17.2c-3.3,16.9-7.8,33.6-13.4,49.9c-0.1,0.1-0.2,0.1-0.3,0.2
			c-15.3-38.4-55.9,15.8-67,34.7C288.6,692.4,284.6,720.8,292.2,741.2L292.2,741.2z M388.5,720.1c-45.4,70.7-122.2,36-74.8-47.3
			c19.2-30.8,49.2-60.7,47.9-30.1c-0.9,5.2,6.1,8.4,9.4,4.3c2.2-2.5,11.3-11.1,16.3-8c4.7,3,2.3,14.8,0.5,19.8
			c-2,4.9,4.3,9.5,8.3,6.2C419.1,651.7,404.8,695.9,388.5,720.1L388.5,720.1z M494.8,367.7c-8.2,255-8.2,255-8.2,255.2
			c0,12.2-2.1,24.3-6.4,35.7c-13.5,34.4-47.7,54.5-81.4,65.5c6.2-10.2,30-51.7,15.3-67.7c-3.4-3.8-8.4-5.5-13.4-4.6
			c2.1-10.2-3-24.5-15.8-24.1c5.5-17.1,9.8-34.6,12.9-52.3c29.6-17,53.7-34,55.8-35.5c5.7-4.1-0.5-12.9-6.3-8.8
			c-12.2,8.7-33.5,22.7-56.6,35.9c-0.4,0.2-0.7,0.4-1.1,0.6c-33.6,19.1-70.9,36.2-89.6,32.2c-4-0.9-6.8-2.7-8.5-5.7
			c-14.3-24.7,9.9-52,40.7-86.6c33.2-37.4,70.7-79.8,72.9-134h0.2v-5.2c0.8-105.5-83-181.8-184.6-173.6
			C348.7,134.7,498.6,223.2,494.8,367.7L494.8,367.7z"/>
		<circle class="penguin_doctor_crown-st2" cx="286.8" cy="328.7" r="19.1"/>
		<circle class="penguin_doctor_crown-st2" cx="133.1" cy="334.4" r="19.7"/>
		<g id="Layer_5">
			<rect x="137.6" y="505.7" class="penguin_doctor_crown-st3" width="166.4" height="189"/>
			<path d="M299,510.7v179H142.6v-179H299 M309,500.7H132.6v199H309V500.7z"/>
		</g>
		<path id="Color" class="penguin_doctor_crown-st0" d="M223.8,649c-3,0-5.8-1.4-7.6-3.8l-15-22c-0.3-0.2-0.6-0.3-0.9-0.3h-6.8c-4.9,0-8.9-3.7-8.9-8.2
			V492.5c0-4.5,4-8.1,8.9-8.1h89.7c4.9,0,8.9,3.7,8.9,8.1v122.2c0,4.5-4,8.2-8.9,8.2h-35.8c-0.3,0-0.6,0.1-0.9,0.3l-15,22
			C229.7,647.7,226.9,649.1,223.8,649z"/>
		<path d="M283.1,488.4c2.7,0,4.9,1.9,4.9,4.2v122.2c0,2.3-2.2,4.2-4.9,4.2h-35.8c-1.7-0.1-3.3,0.7-4.2,2.1l-3.7,5.5l-11.3,16.6
			c-1.8,2.3-5.2,2.8-7.6,0.9c0,0,0,0,0,0c-0.3-0.2-0.7-0.6-0.9-0.9l-11.3-16.6l-3.7-5.5c-1-1.3-2.6-2.1-4.2-2.1h-6.8
			c-2.7,0-4.9-1.9-4.9-4.2V492.5c0-2.3,2.2-4.2,4.9-4.2L283.1,488.4 M283.1,480.4h-89.7c-7.1,0-12.9,5.5-12.9,12.2v122.2
			c0,6.7,5.8,12.2,12.9,12.2h5.4l2.8,4l11.3,16.6c4.3,6,12.7,7.4,18.7,3.1c1.2-0.9,2.2-1.9,3.1-3.1L246,631l2.8-4h34.4
			c7.1,0,12.9-5.5,12.9-12.2V492.5C296.1,485.8,290.3,480.4,283.1,480.4L283.1,480.4z"/>
		<polygon class="penguin_doctor_crown-st3" points="219.9,485.8 385.9,463.4 253.3,573 		"/>
		<path d="M372.5,469.2L255,566.3l-29.5-77.2L372.5,469.2 M399.2,457.6l-27.8,3.8l-147.1,19.9l-10,1.4l3.6,9.4l29.6,77.2l4,10.4
			l8.6-7.1l117.5-97.1L399.2,457.6z"/>
		<polygon class="penguin_doctor_crown-st3" points="142,531.9 126,469.6 225.1,485.8 191.7,573 		"/>
		<path d="M131.4,474.5l88.2,14.4L190,566.3l-44.4-36.7L131.4,474.5 M120.6,464.7l3,11.9l14.2,55.1l0.6,2.5l2,1.7l44.4,36.7l8.6,7.1
			l4-10.4l29.6-77.4l3.5-9.2l-9.7-1.6l-88.2-14.4L120.6,464.7L120.6,464.7z"/>
		<path id="Color-2" class="penguin_doctor_crown-st0" d="M219.9,482h5.9c6.6,0,11.9,5.3,11.9,11.8c0,0,0,0,0,0.1l0,0v8.8c0,6.6-5.3,11.9-11.8,11.9
			c0,0,0,0-0.1,0h-5.9c-6.6,0-11.9-5.3-11.9-11.8c0,0,0,0,0-0.1l0,0v-8.8C208,487.4,213.4,482.1,219.9,482z"/>
		<path d="M225.8,486c4.4,0,7.9,3.5,7.9,7.9v8.8c0,4.4-3.5,7.9-7.9,7.9h-5.9c-4.4,0-7.9-3.5-7.9-7.9v-8.8c0-4.4,3.5-7.9,7.9-7.9
			H225.8 M225.8,478h-5.9c-8.8,0-15.9,7.1-15.9,15.9c0,0,0,0,0,0v8.8c0,8.8,7.1,15.9,15.9,15.9c0,0,0,0,0,0h5.9
			c8.8,0,15.9-7.1,15.9-15.9c0,0,0,0,0,0v-8.8C241.7,485.2,234.6,478.1,225.8,478C225.9,478,225.8,478,225.8,478z"/>
		<path class="penguin_doctor_crown-st4" d="M104.7,498.3v45.8c-3,2.6-6.2,5.1-9,8c-3.1,3.1-6.1,6.3-8.8,9.7C84.2,534.6,95.8,511.5,104.7,498.3z"/>
		<path class="penguin_doctor_crown-st5" d="M259,709c-6,0-10.8-4.8-10.8-10.8V545c0.1-62.4,50.7-113,113.1-113.1h120.6c5.8,0,11.3,2.3,15.4,6.4
			c4.1,4.1,6.4,9.7,6.4,15.5c-1.4,11.8-3.3,23.2-5.4,35.3c-4.5,27-9.2,54.8-9,85c0.5,37.6,2.9,75.2,7.2,112.6
			c0.6,5.4-1.2,10.9-4.9,14.9c-4.3,4.8-10.5,7.5-16.9,7.5H259V709z"/>
		<path class="penguin_doctor_crown-st4" d="M503.8,453.7c0-5.8-2.3-11.4-6.4-15.5c-4.1-4.1-9.6-6.4-15.4-6.4h-24c2.4,1.1,4.6,2.6,6.5,4.5
			c4.1,4.1,6.4,9.7,6.4,15.5c-1.4,11.8-3.3,23.2-5.4,35.3c-4.5,27-9.2,54.8-9,85c0.5,37.6,2.9,75.2,7.2,112.6
			c0.6,5.4-1.2,10.9-4.9,14.9c-4.3,4.8-10.5,7.5-16.9,7.5H252.8c1.8,1.3,4,1.9,6.2,1.9h215.8c6.4,0,12.6-2.8,16.9-7.5
			c3.7-4,5.5-9.5,4.9-14.9c-4.3-37.4-6.7-75-7.2-112.6c-0.1-30.2,4.5-58.1,9-85C500.5,476.9,502.4,465.5,503.8,453.7z"/>
		<path d="M486.2,437.2c4.4,0,8.7,1.7,11.8,4.8c3.1,3.1,4.9,7.2,4.9,11.6c-4.5,35.5-14.8,75.9-14.7,120.3c0.5,37.8,3,75.5,7.3,113.1
			c1,9-7.5,16.5-16.7,16.5H259.2c-3,0-5.4-2.4-5.5-5.4V545c0-59.5,49.1-107.7,109.6-107.7L486.2,437.2 M486.2,426.4H363.4
			c-66.5,0-120.6,53.2-120.6,118.5v153.3c0.1,9,7.5,16.2,16.5,16.2h219.6c8.1,0,15.8-3.4,21.3-9.3c4.8-5.1,7.1-12.1,6.4-19.1
			c-4.3-37.2-6.7-74.6-7.3-112.1c-0.1-29.6,4.6-57.3,9.1-84c2.1-12.2,4-23.6,5.4-34.9l0.1-0.7v-0.7c-0.1-7.2-3-14.2-8.1-19.3
			C500.6,429.3,493.5,426.5,486.2,426.4z"/>
		<path class="penguin_doctor_crown-st2" d="M124.8,709v-5.4c-0.1-30.7-22-69.1-52.2-91.4l-2.9-2.1l0.8-3.5c5.8-23.9,19.7-45.1,39.5-59.8V430l6.9,2
			c54.5,15.9,82.2,53.6,82.2,112.3v153.9c0,6-4.8,10.8-10.8,10.8H124.8z"/>
		<path class="penguin_doctor_crown-st4" d="M154,708.1v-5.4c-0.1-30.7-22-69.1-52.2-91.4l-2.9-2.1l0.8-3.5c5.8-23.9,19.7-45.1,39.5-59.8V440.5
			c-7.2-3.4-14.7-6.2-22.3-8.4l-6.9-2V547c-19.7,14.7-33.7,35.9-39.5,59.8l-0.8,3.5l2.9,2.1c30.1,22.3,52,60.7,52.2,91.4v5.4h63.6
			c1.5,0,2.9-0.3,4.3-0.9L154,708.1z"/>
		<path d="M115.5,437.2c49.5,14.4,78.3,48,78.3,107.1v153.9c0,3-2.4,5.4-5.4,5.4c0,0,0,0,0,0h-58.2c-0.1-34.7-25-74-54.3-95.7
			c5.5-23.6,20.1-44.3,39.6-58.3v-13.1L115.5,437.2 M104.7,422.9v121.4c-19.6,15.4-33.5,36.9-39.3,61.2l-1.6,6.9l5.7,4.2
			c28.8,21.3,49.9,58,50,87.1v10.8h69c8.9,0,16.2-7.2,16.2-16.2c0,0,0,0,0,0V544.4c0-61.3-29-100.9-86.1-117.5
			C118.6,426.9,104.7,422.9,104.7,422.9z"/>
		<path class="penguin_doctor_crown-st5" d="M137.7,504.8l10.1-18.3l-37.8-26v-28l6.5,1.4c47.9,9.9,82.6,56.7,82.6,111.1v39.4L137.7,504.8z"/>
		<path d="M115.5,439.1c44.5,9.2,78.3,53.1,78.3,105.8v23.5l-49.6-64.2l10.8-19.5l-39.5-27.2L115.5,439.1 M104.7,425.8v37.5l4.7,3.2
			l31.4,21.6l-6,10.9l-3.4,6.2l4.3,5.6l49.6,64.2l19.3,25v-55.2c0-57-36.6-106-86.9-116.4C117.7,428.4,104.7,425.8,104.7,425.8z"/>
		<path class="penguin_doctor_crown-st2" d="M248.2,545c0.1-62.4,50.7-113,113.1-113.1h32.9l-89.5,54.8l11.3,18.2L248.1,583v-38H248.2z"/>
		<path d="M375,437.2l-77.8,47.6l12.1,19.5l-55.8,64.2V545c0-59.5,48.2-107.7,107.7-107.7c0,0,0,0,0,0L375,437.2 M413.4,426.4h-52.1
			c-65.4,0.1-118.4,53.1-118.5,118.5v52.4l19-21.8l55.8-64.2l5.2-6l-4.2-6.8l-6.4-10.2l68.5-41.9L413.4,426.4z"/>
		<path class="penguin_doctor_crown-st5" d="M248.2,545c0.1-62.4,50.7-113,113.1-113.1h32.9l-89.5,54.8l11.3,18.2L248.1,583v-38H248.2z"/>
		<path d="M375,437.2l-77.8,47.6l12.1,19.5l-55.8,64.2V545c0-59.5,48.2-107.7,107.7-107.7c0,0,0,0,0,0L375,437.2 M413.4,426.4h-52.1
			c-65.4,0.1-118.4,53.1-118.5,118.5v52.4l19-21.8l55.8-64.2l5.2-6l-4.2-6.8l-6.4-10.2l68.5-41.9L413.4,426.4z"/>
		<path class="penguin_doctor_crown-st1" d="M308.9,669.9c-21.7,34.1-20.5,73.7,2.8,88.3s59.8-1.2,81.5-35.3c13.9-21.8,26.8-52.5,17.1-62.9
			c-6.8-7.3-17.3,0.7-17.3,0.7s7.4-19.8-2.7-26.2s-23.4,9-23.4,9s2.4-16.2-9.1-18.8C344.7,621.8,323.2,647.4,308.9,669.9z"/>
		<path d="M331.2,768.9c-7.9,0.1-15.7-2-22.4-6.2c-12.8-8.1-20.2-22.7-20.8-41.2c-0.6-17.7,5.2-37.1,16.3-54.5l0,0
			c10-15.7,35.3-51.8,54.7-47.5c7.4,1.7,11,7.1,12.6,12.9c6.4-4.3,14.5-6.9,21.6-2.4c7.8,4.9,8.5,14.3,7.5,21.7
			c5-0.9,10.1,0.8,13.5,4.6c15.9,17.1-13.1,64.1-16.5,69.4C380.5,752.8,354.2,768.9,331.2,768.9z M313.4,672.8
			c-9.9,15.6-15.1,32.8-14.6,48.4c0.5,14.9,6.1,26.4,15.8,32.5c20.7,13,54-2.1,74.1-33.7c15.7-24.7,23.6-50,17.7-56.4
			c-3.3-3.6-10,1.3-10,1.3c-1.9,1.4-4.6,1.4-6.5,0c-1.9-1.4-2.7-3.9-1.9-6.1c1.9-5.2,4.3-16.8-0.5-19.8c-5.1-3.2-14.3,5.5-16.5,8
			c-2,2.2-5.4,2.4-7.6,0.4c-1.3-1.2-2-3-1.8-4.7c0-0.1,1.5-11.3-5-12.8C349.8,628.5,332.4,642.9,313.4,672.8L313.4,672.8z"/>
		<path id="Color-2-2" class="penguin_doctor_crown-st0" d="M308.6,599.4c-2.5,0-4.9-0.2-7.3-0.7c-6.3-1.4-10.9-4.5-13.8-9.4c-7.7-13.1-7-26.9,2.2-43.6
			c7.9-14.3,21.2-29,36.5-46c16.5-18.3,35.1-39.1,48.1-61.7l1.1-2l48.5-0.2l25.8,95.1l-5.1,3.6c-11.6,8.2-31.7,21.1-53.2,33.2
			l-0.3,0.2l-0.6,0.3c-36.8,20.6-64.2,31.1-81.6,31.1L308.6,599.4z"/>
		<path d="M420.8,439.9l24.2,89.4l-2.8,2c-11.5,8.1-31.5,21-53.1,33.1l-0.3,0.2l-0.3,0.2c-36.2,20.3-63,30.6-79.7,30.6h-0.2
			c-2.2,0-4.4-0.2-6.5-0.7c-5.1-1.1-8.9-3.6-11.2-7.5c-15.1-25.6,8.4-51.7,38.2-84.8c16.7-18.6,35.4-39.4,48.6-62.3L420.8,439.9
			 M427,431.8h-6.2l-43.1,0.2h-4.6l-2.3,4c-12.7,22.2-31.2,42.8-47.6,61c-15.5,17.2-28.8,32-37,46.7c-9.9,17.7-10.6,33.3-2.2,47.5
			c3.4,5.8,9.1,9.7,16.4,11.3l0,0c2.7,0.5,5.4,0.8,8.1,0.8h0.2c18.3,0,45.7-10.3,83.6-31.6l0.3-0.2l0.6-0.3l0.3-0.2
			c21.5-12.1,41.6-25.1,53.2-33.3l2.8-2l4.6-3.2l-1.5-5.4l-24.2-89.4L427,431.8L427,431.8z"/>
		<path class="penguin_doctor_crown-st5" d="M477.2,431.8c14.4,21.8,15.7,49.8,3.4,72.9c-41.6,42.4-92,75-147.6,95.6c-0.8,0.3-1.7,0.5-2.6,0.5
			c-2.7,0-5.2-1.4-6.6-3.7L306.5,570l-14.3-22.4c-1.9-2.9-1.7-6.6,0.5-9.3c15.8-19.2,31.1-39,45.5-58.9c6.6-9.1,13.1-18.4,19.5-27.7
			c8.2-12.2,21.9-19.5,36.6-19.6C394.2,432.1,452.9,431.9,477.2,431.8"/>
		<path d="M330.4,606.2c-4.5-0.1-8.7-2.4-11.2-6.2l-31.6-49.6c-3.1-4.8-2.8-11.2,0.9-15.6c15.7-19.1,30.9-38.8,45.3-58.6
			c6.5-9,13-18.3,19.4-27.6c9.2-13.7,24.6-21.9,41.1-21.9c1.8,0,59.1-0.2,83-0.2h2.9l1.6,2.4c15.5,23.5,16.9,53.6,3.6,78.4l-0.9,1.2
			c-42.1,42.9-93.2,76-149.6,96.9C333.5,605.9,332,606.2,330.4,606.2z M474.3,437.2c-25.4,0-78.3,0.2-80,0.2
			c-12.9,0-25,6.5-32.2,17.2c-6.4,9.4-13,18.8-19.6,27.9c-14.5,20-29.8,39.9-45.7,59.2c-0.7,0.8-0.7,2-0.1,2.9l31.6,49.6
			c0.5,0.7,1.3,1.2,2.1,1.2c32.8-12,63.9-28.3,92.4-48.5c19.1-13.5,36.9-28.7,53.3-45.3C486.7,481.3,486,456.9,474.3,437.2z"/>
	</g>
	<path class="penguin_doctor_crown-st6" d="M492.2,110.6c-8.4,17.3-11.4,37.1-12.5,44.6c-0.2,1.3-0.3,2.3-0.4,2.7c-0.1,0.2-0.1,0.5-0.1,0.7l-2.6,26.5
		l-151-14.9l-2.5-0.2l-151-14.9l2.6-26.5c0.1-0.2,0.1-0.5,0.1-0.7c0-0.5,0-1.4,0.1-2.8c0.4-7.6,1.3-27.6-3.6-46.2
		c-4.4-16.8-19.5-52.5-26.6-68.9c1.6,1.2,3.6,2.7,6,4.6c4.2,3.4,9.3,5.2,14.2,6.9c9.8,3.4,19,6.7,24.6,21.4
		c5.2,13.9,0.9,20.5-3.3,26.9c-2.6,4-5.3,8.1-5.4,13.5c0,1.3-0.1,2.7-0.1,4.2c-0.1,2.6-0.2,5.5-0.2,8.4c0,1.4,0.9,2.6,2.2,2.9
		c1.3,0.4,2.7-0.2,3.4-1.4l0.3-0.6c0.1-0.2,0.2-0.3,0.3-0.5c1.8-2.4,4.1-4.3,6.7-5.7c8.1-4.6,17.8-5.3,26.4-1.7
		c4.1,1.6,7.6,4.4,10.1,8c2.5,3.8,3.3,8.5,2.2,12.9c-1,3.8-4.2,6.6-8.1,7.2c-4.3,0.5-7.2-0.2-8.9-1.9c-2.2-2.3-1.7-6-1.7-6
		c0.2-1.2-0.4-2.3-1.4-3c-1-0.6-2.3-0.7-3.3,0c-4.4,2.7-11.3,10.4-6.4,20.8c2,4.2,6.8,7,14.4,8.4l48.4,4.8
		c11.2,1.1,18.4-0.5,22.1-4.8c2.6-2.9,4-6.7,3.7-10.6c-0.6-6.6-6.1-11.1-6.4-11.4c-0.9-0.7-2.1-0.9-3.2-0.4c-1,0.5-1.7,1.5-1.8,2.6
		c-0.2,2-1.2,3.8-2.8,5.1c-2.4,1.7-6.3,1.8-11.5,0.3c-4.2-1.1-7.3-4.6-7.9-8.8c-0.4-4.1,1.5-8.7,5.1-11.9c3.8-3.2,8.4-5.2,13.2-5.8
		c10.6-1.7,21.4,1,30,7.4c2.6,1.9,4.8,4.3,6.4,7.1c1.2,2.4,1.9,5.1,2.1,7.8c0.1,1.4,1.3,2.6,2.7,2.7c1.5,0.2,2.9-0.7,3.2-2.1
		c2.2-7,0-14.5-5.9-20.6c-2.5-2.6-5.3-5-8.1-7.4c-8-6.9-14.8-12.8-14-21.3c1.7-17.6,14-21.6,24.9-25.2c4.1-1.3,8.1-2.6,11-4.6
		c3.8-2.7,7.2-6,10-9.8c2,4.3,4.6,8.2,7.9,11.5c2.5,2.5,6.1,4.5,9.9,6.6c10,5.6,21.3,11.9,19.5,29.6c-0.9,8.5-8.8,13-17.9,18.1
		c-3.1,1.8-6.3,3.6-9.3,5.6c-6.9,4.8-10.5,11.7-9.7,19c0.1,1.5,1.3,2.7,2.8,2.7c1.4,0.1,2.8-0.8,3.2-2.1c0.7-2.6,1.9-5.1,3.5-7.2
		c2.1-2.4,4.8-4.4,7.7-5.7c9.7-4.6,20.8-5.1,30.9-1.4c4.6,1.6,8.8,4.5,11.8,8.3c2.9,3.9,3.9,8.7,2.7,12.7c-1.5,4-5.2,6.8-9.5,7.1
		c-5.3,0.4-9.2-0.4-11.2-2.5c-1.3-1.5-1.9-3.5-1.7-5.5c0.2-1.1-0.3-2.3-1.2-2.9c-0.9-0.7-2.2-0.8-3.2-0.2c-0.3,0.1-6.6,3.5-8.5,9.9
		c-1.1,3.8-0.5,7.8,1.5,11.1c2.7,4.9,9.5,7.9,20.7,9l48.4,4.8c7.7,0.2,13-1.6,15.7-5.4c6.8-9.2,1.6-18.2-2.2-21.6
		c-0.9-0.8-2.1-1-3.2-0.6c-1.1,0.4-1.8,1.5-1.9,2.6c0,0-0.2,3.8-2.8,5.6c-2,1.4-5.1,1.4-9.1,0.1c-3.7-1.3-6.3-4.7-6.6-8.6
		c-0.2-4.5,1.5-9,4.7-12.2c3.1-3.1,7.1-5.1,11.4-5.9c9.1-1.8,18.6,0.8,25.6,6.9c2.3,1.9,4.2,4.2,5.5,6.9c0.1,0.2,0.1,0.4,0.2,0.5
		l0.2,0.6c0.5,1.3,1.7,2.1,3.1,2c1.4-0.1,2.5-1.1,2.8-2.4c0.6-2.9,1.1-5.7,1.5-8.3c0.2-1.5,0.5-2.8,0.7-4.1c1-5.3-0.9-9.9-2.7-14.3
		c-2.9-7.1-5.8-14.4,2-27c8.3-13.4,18-14.8,28.3-16.2c5.2-0.7,10.5-1.5,15.3-4c2.7-1.4,4.9-2.5,6.8-3.3
		C521.6,62.9,499.8,95,492.2,110.6z"/>
	<polygon class="penguin_doctor_crown-st6" points="325,175.3 322.5,175.1 171.5,160.2 170.1,175.2 166.3,213 164.9,228 315.8,242.9 318.4,243.1 
		469.3,258 470.8,243 474.5,205.2 476,190.2 	"/>
	<polygon class="penguin_doctor_crown-st7" points="354.8,249.5 380.3,178.6 477.1,188.6 474,258.2 	"/>
	<polygon class="penguin_doctor_crown-st8" points="363.1,250.4 388.6,179.5 479.6,194.6 474,258.2 	"/>
	<polygon class="penguin_doctor_crown-st9" points="472.2,251.8 164,217.8 472.9,244.6 	"/>
	<polygon class="penguin_doctor_crown-st9" points="475.5,195.6 165.7,159.1 476.6,184.8 	"/>
	<path class="penguin_doctor_crown-st9" d="M469.9,70.7c5.7-9,12.1-13.1,18.8-15.1c-5.2,3.3-9.5,7.7-12.6,13c-9.4,15.2-5.6,24.8-2.5,32.4
		c1.6,3.9,3,7.4,2.3,11c-0.2,1.3-0.5,2.7-0.7,4.2c0,0.1,0,0.1,0,0.2c-1-1.1-2.1-2.2-3.2-3.1c-0.4-0.4-0.9-0.7-1.4-1.1
		c0-0.1,0-0.2,0-0.2c1-5.4-0.9-9.9-2.7-14.3C464.8,90.3,461.9,83.4,469.9,70.7z"/>
	<path class="penguin_doctor_crown-st9" d="M426.6,112.8c-4.4,4.5-6.7,10.6-6.3,16.8c0.2,2.7,1.1,5.3,2.6,7.5c-0.7-0.2-1.5-0.3-2.2-0.6
		c-3.8-1.3-6.4-4.7-6.7-8.7c-0.2-4.5,1.5-9,4.7-12.2l0,0c3.1-3,7-5,11.3-5.8C428.7,110.8,427.6,111.8,426.6,112.8z"/>
	<path class="penguin_doctor_crown-st9" d="M242.4,98.4L242.4,98.4c2.5,3.8,3.4,8.4,2.3,12.8c-1.1,3.8-4.4,6.7-8.3,7.2c-0.7,0.1-1.5,0.1-2.3,0.1
		c1.9-1.9,3.3-4.3,4-6.9c1.6-6.1,0.5-12.5-2.9-17.8c-0.8-1.2-1.7-2.3-2.7-3.4C236.5,92.2,239.9,94.9,242.4,98.4z"/>
	<path class="penguin_doctor_crown-st9" d="M200.8,44.2c5.4,13.9,1.2,20.2-3.3,26.9c-2.7,4-5.4,8.1-5.5,13.5v0.2c-0.5,0.3-1.1,0.5-1.6,0.8
		c-1.3,0.7-2.6,1.5-3.7,2.4v-0.2c0-1.5,0.1-2.9,0.1-4.3c0.1-3.7,2.1-6.8,4.4-10.3c4.5-6.9,10.2-15.5,3.9-32.3
		c-2-5.8-5.4-11-9.8-15.2C191.6,29.1,197,34.3,200.8,44.2z"/>
	<path class="penguin_doctor_crown-st9" d="M214.6,128.8c-3.5-1-5.8-2.4-6.7-4.2c-1.6-2.9-1.5-6.4,0.2-9.2c0.6,1.5,1.4,2.9,2.5,4.1
		c0.6,0.6,1.2,1.1,1.9,1.5c0,2.6,0.5,5.1,1.7,7.4C214.4,128.5,214.5,128.7,214.6,128.8z"/>
	<path class="penguin_doctor_crown-st9" d="M439.9,151c0.1-0.1,0.3-0.3,0.4-0.4c1.6-2,2.6-4.4,3.1-6.9c0.8-0.3,1.5-0.7,2.2-1.1c1.3-0.9,2.4-2.1,3.3-3.5
		c1.1,3.1,0.5,6.5-1.6,9C446.1,149.8,443.5,150.7,439.9,151z"/>
	<path class="penguin_doctor_crown-st10" d="M144.6,10.2c7.5,5.7,18.6,27,25.2,44c14.8,38.1,11.7,70.4,9.8,91l-9.6,85.5l-7.4-3.5l9.4-122.9
		c0.3-7.7-0.8-15.4-3.3-22.7l-11.9-35.2L144.6,10.2z"/>
	<polygon class="penguin_doctor_crown-st7" points="380.1,179.8 391.3,148.5 480.7,161.6 477.1,188.6 	"/>
	<path class="penguin_doctor_crown-st11" d="M260.3,213.4c-7.9-0.8-13.5-9.2-12.6-18.8s8.1-16.8,16-16c7.9,0.8,13.5,9.2,12.6,18.8
		S268.2,214.2,260.3,213.4z"/>
	<path d="M263.4,181.2c6.5,0.6,11.1,7.8,10.3,16.1s-6.7,14.4-13.3,13.7c-6.5-0.6-11.1-7.8-10.3-16.1S256.9,180.5,263.4,181.2
		 M263.9,176.1c-9.3-0.9-17.7,7.3-18.8,18.2s5.6,20.6,14.9,21.6s17.7-7.3,18.8-18.2S273.2,177.1,263.9,176.1z"/>
	<path class="penguin_doctor_crown-st12" d="M269.2,183.8c1.4,2.9,1.9,6.2,1.6,9.4c-0.8,8.2-6.7,14.4-13.2,13.7c-2.1-0.2-4.1-1.1-5.7-2.6
		c1.8,3.7,5,6.3,8.7,6.7c6.5,0.6,12.4-5.5,13.2-13.7C274.3,191.7,272.4,186.7,269.2,183.8z"/>
	<path class="penguin_doctor_crown-st11" d="M372.7,225.1c-7.9-0.8-13.5-9.2-12.6-18.8s8.1-16.8,16-16s13.5,9.2,12.6,18.8S380.6,225.9,372.7,225.1z"/>
	<path d="M375.8,192.8c6.5,0.6,11.1,7.8,10.3,16.1s-6.7,14.4-13.3,13.7s-11.1-7.8-10.3-16.1S369.3,192.2,375.8,192.8 M376.3,187.8
		c-9.3-0.9-17.7,7.3-18.8,18.2s5.6,20.6,14.9,21.6s17.7-7.3,18.8-18.2S385.6,188.7,376.3,187.8L376.3,187.8z"/>
	<path class="penguin_doctor_crown-st12" d="M381.6,195.5c1.4,2.9,1.9,6.2,1.6,9.4c-0.8,8.2-6.7,14.4-13.3,13.7c-2.1-0.2-4.1-1.1-5.7-2.6
		c1.8,3.7,5,6.3,8.7,6.7c6.5,0.6,12.4-5.5,13.3-13.7C386.7,203.4,384.8,198.4,381.6,195.5z"/>
	<path class="penguin_doctor_crown-st11" d="M428.3,230.6c-7.9-0.8-13.5-9.2-12.6-18.8s8.1-16.8,16-16s13.5,9.2,12.6,18.8S436.2,231.4,428.3,230.6z"/>
	<path d="M431.5,198.3c6.5,0.6,11.1,7.8,10.3,16.1s-6.7,14.4-13.3,13.7s-11.1-7.8-10.3-16.1S425,197.7,431.5,198.3 M432,193.3
		c-9.3-0.9-17.7,7.3-18.8,18.2s5.6,20.6,14.9,21.6s17.7-7.3,18.8-18.2S441.3,194.2,432,193.3L432,193.3z"/>
	<path class="penguin_doctor_crown-st12" d="M437.2,200.9c1.4,2.9,1.9,6.2,1.6,9.4c-0.8,8.2-6.7,14.4-13.3,13.7c-2.1-0.2-4.1-1.1-5.7-2.6
		c1.8,3.7,5,6.3,8.7,6.7c6.5,0.6,12.4-5.5,13.3-13.7C442.4,208.9,440.5,203.9,437.2,200.9z"/>
	<path class="penguin_doctor_crown-st11" d="M204.6,207.9c-7.9-0.8-13.5-9.2-12.6-18.8s8.1-16.8,16-16s13.5,9.2,12.6,18.8S212.5,208.7,204.6,207.9z"/>
	<path d="M207.8,175.7c6.5,0.6,11.1,7.8,10.3,16.1s-6.7,14.4-13.3,13.7s-11.1-7.8-10.3-16.1S201.3,175,207.8,175.7 M208.3,170.7
		c-9.3-0.9-17.7,7.3-18.8,18.2s5.6,20.6,14.9,21.6s17.7-7.3,18.8-18.2S217.6,171.6,208.3,170.7L208.3,170.7z"/>
	<path class="penguin_doctor_crown-st12" d="M213.5,178.3c1.4,2.9,1.9,6.2,1.6,9.4c-0.8,8.2-6.7,14.4-13.2,13.7c-2.1-0.2-4.1-1.1-5.7-2.6
		c1.8,3.7,5,6.3,8.7,6.7c6.5,0.6,12.4-5.5,13.3-13.7C218.6,186.2,216.7,181.2,213.5,178.3z"/>
	<path class="penguin_doctor_crown-st11" d="M317,219.6c-7.9-0.8-13.5-9.2-12.6-18.8s8.1-16.8,16-16s13.5,9.2,12.6,18.8S324.9,220.4,317,219.6z"/>
	<path d="M320.2,187.4c6.5,0.6,11.1,7.8,10.3,16.1s-6.7,14.4-13.2,13.7s-11.1-7.8-10.3-16.1S313.7,186.7,320.2,187.4 M320.7,182.3
		c-9.3-0.9-17.7,7.3-18.8,18.2s5.6,20.6,14.9,21.6s17.7-7.3,18.8-18.2S330,183.3,320.7,182.3z"/>
	<path class="penguin_doctor_crown-st12" d="M325.9,190c1.4,2.9,1.9,6.2,1.6,9.4c-0.8,8.2-6.7,14.4-13.3,13.7c-2.1-0.2-4.1-1.1-5.7-2.6
		c1.8,3.7,5,6.3,8.7,6.7c6.5,0.6,12.4-5.5,13.2-13.7C331.1,197.9,329.2,192.9,325.9,190z"/>
	<path class="penguin_doctor_crown-st13" d="M202,180.3L202,180.3c1.9,0,3.5,1.6,3.5,3.5c0,0,0,0,0,0l0,0c0,1.9-1.6,3.5-3.5,3.5l0,0
		c-1.9,0-3.5-1.6-3.5-3.5v0l0,0C198.5,181.8,200.1,180.3,202,180.3L202,180.3z"/>
	<path class="penguin_doctor_crown-st13" d="M258.5,186.5L258.5,186.5c1.9,0,3.5,1.6,3.5,3.5l0,0c0,1.9-1.6,3.5-3.5,3.5l0,0c-1.9,0-3.5-1.6-3.5-3.5l0,0
		C255,188.1,256.6,186.5,258.5,186.5z"/>
	<path class="penguin_doctor_crown-st13" d="M313.1,193.7L313.1,193.7c1.9,0,3.5,1.6,3.5,3.5l0,0v0l0,0c0,1.9-1.6,3.5-3.5,3.5h0c-1.9,0-3.5-1.6-3.5-3.5
		l0,0l0,0C309.6,195.2,311.2,193.7,313.1,193.7L313.1,193.7L313.1,193.7z"/>
	<path class="penguin_doctor_crown-st13" d="M370.1,198.1L370.1,198.1c1.9,0,3.5,1.6,3.5,3.5l0,0c0,1.9-1.6,3.5-3.5,3.5l0,0c-1.9,0-3.5-1.6-3.5-3.5l0,0
		C366.6,199.7,368.2,198.1,370.1,198.1z"/>
	<path class="penguin_doctor_crown-st13" d="M425.9,205.6L425.9,205.6c1.9,0,3.5,1.6,3.5,3.5c0,0,0,0,0,0l0,0l0,0c0,1.9-1.6,3.5-3.5,3.5h0l0,0
		c-1.9,0-3.5-1.6-3.5-3.5v0l0,0l0,0C422.5,207.2,424,205.6,425.9,205.6L425.9,205.6L425.9,205.6z"/>
	<path class="penguin_doctor_crown-st10" d="M260.3,108.6c-0.5,1.4-0.4,2.9,0,4.3c0.5,1.4,1.8,2.4,3.3,2.5c1.7,0,3.1-1.5,3.8-3.1s0.9-3.3,1.5-4.9
		c1.1-2.8,3.4-4.9,6.3-5.7c0.5-0.1,0.9-0.3,1.2-0.7c0.4-0.8-0.6-1.6-1.5-1.9C268.9,97.6,261.8,102.9,260.3,108.6z"/>
	<path class="penguin_doctor_crown-st10" d="M299.2,65c-0.9,2.7-0.8,5.6,0.1,8.3c1,2.6,3.5,4.8,6.4,4.8c3.3,0,6-2.8,7.3-5.9s1.7-6.4,2.9-9.5
		c2.2-5.3,6.6-9.4,12.1-11c0.9-0.1,1.8-0.6,2.3-1.3c0.9-1.6-1.2-3.2-2.9-3.6C315.9,43.9,302.2,54,299.2,65z"/>
	<path class="penguin_doctor_crown-st8" d="M398.6,153.4c0,0,20.7,1.2,37.8,3.7h0.1c1.3,0.2,10.6,1.3,15.6-5.4c6.8-9.2,1.6-18.2-2.2-21.6
		c-0.9-0.8-2.1-1-3.2-0.6c-1.1,0.4-1.8,1.5-1.9,2.6c0,0-0.2,3.8-2.8,5.6c-2,1.4-5.1,1.4-9.1,0.1c-3.7-1.3-6.3-4.7-6.6-8.6
		c-0.2-4.5,1.5-9,4.7-12.2c3.1-3.1,7.1-5.1,11.4-5.9c9.1-1.8,18.6,0.8,25.6,6.9c2.3,1.9,4.2,4.2,5.5,6.9c0.1,0.2,0.1,0.4,0.2,0.5
		l0.2,0.6c0.5,1.3,1.7,2.1,3.1,2c1.4-0.1,2.5-1.1,2.8-2.4c0.6-2.9,1.1-5.7,1.5-8.3c0.2-1.5,0.5-2.8,0.7-4.1c1-5.3-0.9-9.9-2.7-14.3
		c-2.9-7.1-5.8-14.4,2-27c8.3-13.4,18-14.8,28.3-16.2c5.2-0.7,10.5-1.5,15.3-4c2.7-1.4,4.9-2.5,6.8-3.3
		c-10.1,14.6-31.9,46.7-39.5,62.3c-8.4,17.3-11.4,37.1-12.5,44.6c-0.2,1.3-0.4,2.3-0.4,2.7c-0.1,0.2-0.1,0.5-0.1,0.7l-2.6,26.5
		l-86.9-8.5L398.6,153.4z"/>
	<path d="M542.2,41.3c-0.4-1-1.4-1.7-2.4-1.8h-0.1c-1.1-0.1-14.9,3.6-18,4.6c-2.6,0.9-5.3,1.6-8,2.1c-3.5,0.6-7,1-10.6,1.2
		c-12.6,1-27,2.1-38.4,20.1c-9.6,15.2-5.7,24.8-2.5,32.5c1.3,3,2.3,5.8,2.5,8.5c-5.9-3-12.5-4.3-19.1-3.9
		c-5.4-1.5-11.1-1.7-16.6-0.7c-5.6,1-10.8,3.6-14.8,7.6c-4.5,4.4-6.8,10.6-6.4,16.9c0.5,6.5,4.9,12,11,13.9
		c3.5,1.2,7.3,1.5,10.9,0.7c0.4,0.2,0.9,0.4,1.3,0.5c1.9,0.6,3.8,0.9,5.7,1.1c-0.4,0.8-0.8,1.6-1.4,2.3c-1.6,2.1-5.4,3.1-10.9,2.9
		l-35.9-3.5c-11.7-1.2-15-4.2-16-5.9c-2.3-4.2-1.1-7.5,0.7-9.7c0.5,1.6,1.4,3,2.6,4.3c3.4,3.6,8.8,5.1,16.2,4.5
		c6.8-0.5,12.6-4.9,14.8-11.4c1.8-5.8,0.5-12.6-3.6-18.1c-3.3-4.4-8.3-8-14.6-10.4c-7.9-2.9-16.4-3.6-24.7-2
		c8.5-5,16.5-10.6,17.5-20.8c2.2-21.5-12.1-29.6-22.6-35.4c-3.4-1.9-6.7-3.7-8.6-5.7c-5.6-5.5-8.8-14.3-9.9-17.7c0,0-0.6-2.8-1-2.5
		c-0.3-0.4-1.5,2.3-1.5,2.3c-1.8,3.2-6.6,11.1-13.1,15.4c-2.3,1.5-5.8,2.7-9.6,3.9c-11.4,3.7-27,8.8-29,30.3
		c-1,10.2,5.7,17.3,13.1,23.8c-7.8-3.2-16.3-4.2-24.6-2.8c-6.6,1.1-12.2,3.6-16.3,7.3c-5.1,4.6-7.7,10.9-7,17
		c0.9,6.7,5.7,12.3,12.3,14c7.1,2,12.8,1.6,16.8-1.3c1.4-1,2.5-2.2,3.4-3.7c1.3,2.5,1.9,5.9-1.2,9.6c-1.3,1.5-5.1,3.8-16.8,2.7
		l-35.9-3.5c-5.5-1-9-2.7-10.1-5c-0.4-0.8-0.7-1.7-0.9-2.5c1.9,0.3,3.9,0.3,5.8,0.1c0.5-0.1,0.9-0.2,1.4-0.3c3.4,1.5,7.2,2,10.8,1.5
		c6.4-0.8,11.8-5.3,13.5-11.5c1.6-6.1,0.5-12.6-3-17.8c-3.2-4.7-7.8-8.3-13.1-10.3c-5.2-2.1-10.8-3-16.4-2.6
		c-6.4-1.7-13.1-1.7-19.5,0.1c0.7-2.7,2.3-5.1,4.1-7.9c4.6-6.9,10.4-15.5,3.9-32.3c-7.7-19.9-21.5-23.8-33.7-27.2
		c-3.4-0.9-6.8-2-10.1-3.3c-2.6-1.1-5-2.3-7.5-3.6c-2.8-1.6-15.7-7.9-16.7-8h-0.1c-1.1-0.1-2.1,0.4-2.8,1.3c-0.6,0.9-0.7,2-0.3,3
		c0.2,0.5,24.4,55,29.9,76.3c4.6,17.7,3.7,37.1,3.4,44.4c-0.1,1.2-0.1,2.1-0.1,2.7v0.1l-10,101.9c-0.2,1.7,1.1,3.1,2.7,3.3l154,15.2
		l2.5,0.2l154,15.2c1.7,0.2,3.2-1,3.3-2.7l0,0l10-101.9v-0.1c0.1-0.6,0.2-1.5,0.4-2.7c1.1-7.2,4-26.4,12-42.9
		c9.6-19.8,43.9-68.5,44.2-69C542.5,43.4,542.6,42.2,542.2,41.3z M469.9,70.7c5.7-9,12.1-13.1,18.8-15.1c-5.2,3.3-9.5,7.7-12.6,13
		c-9.4,15.2-5.6,24.8-2.5,32.4c1.6,3.9,3,7.4,2.3,11c-0.2,1.3-0.5,2.7-0.7,4.2c0,0.1,0,0.1,0,0.2c-1-1.1-2.1-2.2-3.2-3.1
		c-0.4-0.4-0.9-0.7-1.4-1.1c0-0.1,0-0.2,0-0.2c1-5.4-0.9-9.9-2.7-14.3C464.8,90.3,461.9,83.4,469.9,70.7L469.9,70.7z M426.6,112.8
		c-4.4,4.5-6.7,10.6-6.3,16.8c0.2,2.7,1.1,5.3,2.6,7.5c-0.7-0.2-1.5-0.3-2.2-0.6c-3.8-1.3-6.4-4.7-6.7-8.7c-0.2-4.5,1.5-9,4.7-12.2
		l0,0c3.1-3,7-5,11.3-5.8C428.7,110.8,427.6,111.8,426.6,112.8L426.6,112.8z M242.4,98.4L242.4,98.4c2.5,3.8,3.4,8.4,2.3,12.8
		c-1.1,3.8-4.4,6.7-8.3,7.2c-0.7,0.1-1.5,0.1-2.3,0.1c1.9-1.9,3.3-4.3,4-6.9c1.6-6.1,0.5-12.5-2.9-17.8c-0.8-1.2-1.7-2.3-2.7-3.4
		C236.5,92.2,239.9,94.9,242.4,98.4z M200.8,44.2c5.4,13.9,1.2,20.2-3.3,26.9c-2.7,4-5.4,8.1-5.5,13.5v0.2c-0.5,0.3-1.1,0.5-1.6,0.8
		c-1.3,0.7-2.6,1.5-3.7,2.4v-0.2c0-1.5,0.1-2.9,0.1-4.3c0.1-3.7,2.1-6.8,4.4-10.3c4.5-6.9,10.2-15.5,3.9-32.3
		c-2-5.8-5.4-11-9.8-15.2C191.6,29.1,197,34.3,200.8,44.2L200.8,44.2z M469.4,257.2l-151-14.9l-2.5-0.2l-151-14.9l0.9-9.2l151,14.9
		l2.5,0.2l151,14.9L469.4,257.2z M470.8,243l-151-14.9l-2.5-0.2l-151-14.9l5.2-52.8l151,14.9l2.5,0.2l151,14.9L470.8,243z
		 M492.2,110.6c-8.4,17.3-11.4,37.1-12.5,44.6c-0.2,1.3-0.3,2.3-0.4,2.7c-0.1,0.2-0.1,0.5-0.1,0.7l-2.6,26.5l-151-14.9l-2.5-0.2
		l-151-14.9l2.6-26.5c0.1-0.2,0.1-0.5,0.1-0.7c0-0.5,0-1.4,0.1-2.8c0.4-7.6,1.3-27.6-3.6-46.2c-4.4-16.8-19.5-52.5-26.6-68.9
		c1.6,1.2,3.6,2.7,6,4.6c4.2,3.4,9.3,5.2,14.2,6.9c9.8,3.4,19,6.7,24.6,21.4c5.2,13.9,0.9,20.5-3.3,26.9c-2.6,4-5.3,8.1-5.4,13.5
		c0,1.3-0.1,2.7-0.1,4.2c-0.1,2.6-0.2,5.5-0.2,8.4c0,1.4,0.9,2.6,2.2,2.9c1.3,0.4,2.7-0.2,3.4-1.4l0.3-0.6c0.1-0.2,0.2-0.3,0.3-0.5
		c1.8-2.4,4.1-4.3,6.7-5.7c8.1-4.6,17.8-5.3,26.4-1.7c4.1,1.6,7.6,4.4,10.1,8c2.5,3.8,3.3,8.5,2.2,12.9c-1,3.8-4.2,6.6-8.1,7.2
		c-4.3,0.5-7.2-0.2-8.9-1.9c-2.2-2.3-1.7-6-1.7-6c0.2-1.2-0.4-2.3-1.4-3c-1-0.6-2.3-0.7-3.3,0c-4.4,2.7-11.3,10.4-6.4,20.8
		c2,4.2,6.8,7,14.4,8.4l48.4,4.8c11.2,1.1,18.4-0.5,22.1-4.8c2.6-2.9,4-6.7,3.7-10.6c-0.6-6.6-6.1-11.1-6.4-11.4
		c-0.9-0.7-2.1-0.9-3.2-0.4c-1,0.5-1.7,1.5-1.8,2.6c-0.2,2-1.2,3.8-2.8,5.1c-2.4,1.7-6.3,1.8-11.5,0.3c-4.2-1.1-7.3-4.6-7.9-8.8
		c-0.4-4.1,1.5-8.7,5.1-11.9c3.8-3.2,8.4-5.2,13.2-5.8c10.6-1.7,21.4,1,30,7.4c2.6,1.9,4.8,4.3,6.4,7.1c1.2,2.4,1.9,5.1,2.1,7.8
		c0.1,1.4,1.3,2.6,2.7,2.7c1.5,0.2,2.9-0.7,3.2-2.1c2.2-7,0-14.5-5.9-20.6c-2.5-2.6-5.3-5-8.1-7.4c-8-6.9-14.8-12.8-14-21.3
		c1.7-17.6,14-21.6,24.9-25.2c4.1-1.3,8.1-2.6,11-4.6c3.8-2.7,7.2-6,10-9.8c2,4.3,4.6,8.2,7.9,11.5c2.5,2.5,6.1,4.5,9.9,6.6
		c10,5.6,21.3,11.9,19.5,29.6c-0.9,8.5-8.8,13-17.9,18.1c-3.1,1.8-6.3,3.6-9.3,5.6c-6.9,4.8-10.5,11.7-9.7,19
		c0.1,1.5,1.3,2.7,2.8,2.7c1.4,0.1,2.8-0.8,3.2-2.1c0.7-2.6,1.9-5.1,3.5-7.2c2.1-2.4,4.8-4.4,7.7-5.7c9.7-4.6,20.8-5.1,30.9-1.4
		c4.6,1.6,8.8,4.5,11.8,8.3c2.9,3.9,3.9,8.7,2.7,12.7c-1.5,4-5.2,6.8-9.5,7.1c-5.3,0.4-9.2-0.4-11.2-2.5c-1.3-1.5-1.9-3.5-1.7-5.5
		c0.2-1.1-0.3-2.3-1.2-2.9c-0.9-0.7-2.2-0.8-3.2-0.2c-0.3,0.1-6.6,3.5-8.5,9.9c-1.1,3.8-0.5,7.8,1.5,11.1c2.7,4.9,9.5,7.9,20.7,9
		l48.4,4.8c7.7,0.2,13-1.6,15.7-5.4c6.8-9.2,1.6-18.2-2.2-21.6c-0.9-0.8-2.1-1-3.2-0.6c-1.1,0.4-1.8,1.5-1.9,2.6
		c0,0-0.2,3.8-2.8,5.6c-2,1.4-5.1,1.4-9.1,0.1c-3.7-1.3-6.3-4.7-6.6-8.6c-0.2-4.5,1.5-9,4.7-12.2c3.1-3.1,7.1-5.1,11.4-5.9
		c9.1-1.8,18.6,0.8,25.6,6.9c2.3,1.9,4.2,4.2,5.5,6.9c0.1,0.2,0.1,0.4,0.2,0.5l0.2,0.6c0.5,1.3,1.7,2.1,3.1,2
		c1.4-0.1,2.5-1.1,2.8-2.4c0.6-2.9,1.1-5.7,1.5-8.3c0.2-1.5,0.5-2.8,0.7-4.1c1-5.3-0.9-9.9-2.7-14.3c-2.9-7.1-5.8-14.4,2-27
		c8.3-13.4,18-14.8,28.3-16.2c5.2-0.7,10.5-1.5,15.3-4c2.7-1.4,4.9-2.5,6.8-3.3C521.6,62.9,499.8,95,492.2,110.6L492.2,110.6z
		 M214.6,128.8c-3.5-1-5.8-2.4-6.7-4.2c-1.6-2.9-1.5-6.4,0.2-9.2c0.6,1.5,1.4,2.9,2.5,4.1c0.6,0.6,1.2,1.1,1.9,1.5
		c0,2.6,0.5,5.1,1.7,7.4C214.4,128.5,214.5,128.7,214.6,128.8L214.6,128.8z M439.9,151c0.1-0.1,0.3-0.3,0.4-0.4
		c1.6-2,2.6-4.4,3.1-6.9c0.8-0.3,1.5-0.7,2.2-1.1c1.3-0.9,2.4-2.1,3.3-3.5c1.1,3.1,0.5,6.5-1.6,9C446.1,149.8,443.5,150.7,439.9,151
		L439.9,151z"/>
</g>
</svg>
