<?xml version="1.0" encoding="utf-8"?>
<!-- Generator: Adobe Illustrator 25.0.1, SVG Export Plug-In . SVG Version: 6.00 Build 0)  -->
<svg version="1.1" id="Layer_1" xmlns="http://www.w3.org/2000/svg" xmlns:xlink="http://www.w3.org/1999/xlink" x="0px" y="0px"
	 viewBox="0 0 505.7 604.1" style="enable-background:new 0 0 505.7 604.1;" xml:space="preserve">
<style type="text/css">
	.penguin_vaccine_no_crown-st0{fill:#E5C333;}
	.penguin_vaccine_no_crown-st1{fill:#FFFFFF;}
	.penguin_vaccine_no_crown-st2{fill:#FFFFFF;stroke:#000000;stroke-width:18;stroke-miterlimit:10;}
	.penguin_vaccine_no_crown-st3{fill:#DCE9FF;}
	.penguin_vaccine_no_crown-st4{fill:#A6C3E2;}
	.penguin_vaccine_no_crown-st5{fill:#384E84;}
	.penguin_vaccine_no_crown-st6{fill:#00C633;}
	.penguin_vaccine_no_crown-st7{opacity:0.3;fill:#FFFFFF;enable-background:new    ;}
	.penguin_vaccine_no_crown-st9{fill:#C7D9EA;stroke:#000000;stroke-width:1.5;stroke-linecap:round;stroke-miterlimit:10;}
</style>
<g id="Layer_1_1_">
	<polygon class="penguin_vaccine_no_crown-st0" points="51.8,462.9 40.3,454 31.5,452.7 24.3,459.4 24.3,470.6 21.1,477.5 8.7,479.4 5.4,485.1 5.4,497.6 
		25.7,542.4 43.7,563.9 65.2,581.8 86.8,583.2 106.8,577.8 121.4,559.5 125.1,529.1 117.5,504.2 101.1,476.7 87,459.4 73.6,447.8 
		60.9,444.1 52.3,453.6 	"/>
	<path class="penguin_vaccine_no_crown-st1" d="M292.2,576.1c-69.1,2.8-133.1-6.9-150.6-13.4c-4.7-1.6-9.3-3.6-13.8-5.9c11.2-38.2-17.3-88.2-52-113.9
		c8.9-38.1,41.5-68.8,80.1-75.4c2.9-0.5,4.9-3.3,4.4-6.3c0,0,0,0,0,0c-2.2-12.3-38.5,6.3-44.9,10.4V233.7
		c16.9,15.3,45.5,19.2,66.1,8.4l45.1,11.6c9.4-19.7,10.9-42.3,4.1-63.1l-15.7,4.4c6.8-47.7-46.9-84.2-88.6-60.8
		c13.2-36.7,37.7-68.3,69.8-90.4c103.2-22.7,199.6,49.7,198.2,160c-0.2,52.4-37.5,94.4-70.4,131.5c-32.3,36.4-60.2,67.8-41.9,99.2
		c19.4,28.1,71.7-1.4,103.3-17.2c-3.3,16.9-7.8,33.6-13.4,49.9c-0.1,0.1-0.2,0.1-0.3,0.2c-15.3-38.4-55.9,15.8-67,34.7
		C288.6,527.3,284.6,555.7,292.2,576.1z"/>
	<circle cx="307.9" cy="181.3" r="58.5"/>
	<path class="penguin_vaccine_no_crown-st2" d="M448.8,483.6l-27.6-20.9L440,438l-14.1-10.7l-9.1,12L241.9,306.8c-1.5-1.1-3.7-0.8-4.8,0.7c0,0,0,0,0,0
		l-10,13.2l-24-9.3c-0.8-0.3-1.6-0.2-2.3,0.1L91.2,228.6c-0.7,0.9-0.5,2.3,0.4,3c0,0,0,0,0,0l107.7,81.6c-0.2,0.8-0.2,1.6,0.3,2.3
		l13.7,23.4l-11.3,14.9c-1.1,1.5-0.8,3.7,0.7,4.8L377.6,491l-10.3,13.6l14.1,10.7l18.3-24.1l27.6,20.9l-9.7,12.9l9.7,7.3l40.3-53.2
		l-9.7-7.3L448.8,483.6z"/>
	
		<rect x="344.2" y="335.1" transform="matrix(0.6038 -0.7972 0.7972 0.6038 -207.5367 463.0543)" class="penguin_vaccine_no_crown-st3" width="35.7" height="210.4"/>
	
		<rect x="353.4" y="331.4" transform="matrix(0.6038 -0.7972 0.7972 0.6038 -206.1247 458.5515)" class="penguin_vaccine_no_crown-st4" width="9.6" height="210.4"/>
	
		<rect x="409.1" y="495.9" transform="matrix(0.6038 -0.7972 0.7972 0.6038 -224.8188 551.6588)" class="penguin_vaccine_no_crown-st1" width="66.8" height="12.2"/>
	<path class="penguin_vaccine_no_crown-st1" d="M220.7,326.6L91.9,229.1c-0.7,0.9-0.5,2.3,0.4,3c0,0,0,0,0,0l128.3,97.2V326.6z"/>
	<path class="penguin_vaccine_no_crown-st5" d="M203.8,311.9c-1-0.4-2.1-0.2-2.9,0.5l0,0c-1,0.9-1.3,2.4-0.6,3.6l14.5,24.8l14.5-19.1L203.8,311.9z"/>
	<path class="penguin_vaccine_no_crown-st1" d="M204.1,354.7l34.4-45.5c1.1-1.5,3.2-1.8,4.7-0.7l175.7,133.1c1.5,1.1,1.8,3.2,0.7,4.7l-34.4,45.5
		c-1.1,1.5-3.2,1.8-4.7,0.7L204.8,359.4C203.3,358.3,203,356.2,204.1,354.7z"/>
	<path class="penguin_vaccine_no_crown-st6" d="M216.8,359l158.8,120.3c1.3,1.1,3.2,0.9,4.3-0.4l25.8-34.2c0.9-1.4,0.6-3.3-0.8-4.3L246.1,320.2
		c-1.3-1.1-3.2-0.9-4.3,0.4l-25.8,34.2C215,356.1,215.4,358,216.8,359z"/>
	<path class="penguin_vaccine_no_crown-st3" d="M327,442.6l48.5,36.8c1.3,1.1,3.2,0.9,4.3-0.4l25.8-34.2c0.9-1.4,0.6-3.3-0.8-4.3l-48.3-36.6L327,442.6z"/>
	<path class="penguin_vaccine_no_crown-st7" d="M240.8,327.3c-0.9,1.3-0.5,3,0.8,3.9L398,449.4c1.2,1,2.9,0.8,3.9-0.3l2.1-2.8c0.9-1.3,0.5-3-0.8-3.9
		L246.8,324.1c-1.2-1-2.9-0.8-3.9,0.3L240.8,327.3z"/>
	
		<rect x="354.6" y="461.5" transform="matrix(0.6038 -0.7972 0.7972 0.6038 -215.4776 506.9507)" class="penguin_vaccine_no_crown-st1" width="95.3" height="17.4"/>
	<path d="M450.2,60.1C384.6-9.7,268.7-19.4,190.5,34.6c-38.6,26.4-66.5,65.6-78.8,110.7c-19.7,18.7-23.1,54.1-6.9,76.4v17.2
		l10.8,8.2v-13.3c16.9,15.3,45.5,19.2,66.1,8.4l45.1,11.6c9.4-19.7,10.9-42.3,4.1-63.1l-15.7,4.4c6.8-47.7-46.9-84.2-88.6-60.8
		c13.2-36.7,37.7-68.3,69.8-90.4c103.2-22.7,199.6,49.7,198.2,160c-0.2,52.4-37.5,94.4-70.4,131.5c-32.3,36.4-60.2,67.8-41.9,99.2
		c19.4,28.1,71.7-1.4,103.3-17.2l12.3-6.9c29.6-17,53.7-34,55.8-35.5c5.7-4.1-0.5-12.9-6.3-8.8c-12.2,8.7-33.5,22.7-56.6,35.9
		c-0.4,0.2-0.8,0.4-1.1,0.6c-33.6,19.1-70.9,36.2-89.6,32.2c-4-0.9-6.8-2.7-8.5-5.7c-14.3-24.7,9.9-52,40.7-86.6
		c33.2-37.4,70.7-79.8,72.9-134h0.2c0-0.4,0-5,0-5.2c0.8-105.5-83-181.8-184.6-173.6c128-59.9,277.9,28.6,274.1,173.1
		c-8.2,255-8.2,255-8.2,255.2c0,12.2-2.1,24.3-6.4,35.7c-13.5,34.4-47.7,54.5-81.4,65.5c6.2-10.2,30-51.7,15.3-67.7
		c-3.4-3.8-8.5-5.5-13.4-4.6c2.1-10.2-3-24.5-15.8-24.1c0,0-13.1,4.6-13.2,4.7c-15.3-38.4-55.9,15.8-67,34.7
		c-16,25.3-20,53.7-12.4,74.2c-69.1,2.8-133.1-6.9-150.6-13.4c-4.7-1.6-9.3-3.6-13.8-5.9c11.2-38.2-17.3-88.2-52-113.9
		c8.9-38.1,41.5-68.8,80.1-75.4c2.9-0.5,4.9-3.3,4.4-6.3c0,0,0,0,0,0c-2.2-12.3-38.5,6.3-44.9,10.4V249.7l-10.8-8.2v73.9
		c-7.3,8.1-37.7,45.7-26.7,94c-5.5,9.2-9.6,19.1-12.3,29.4c-9-1.9-17.1,5.4-18.6,12.9c-16.7-11.9-32.5,0.6-29,19.4
		c-5-0.9-10.1,0.9-13.5,4.6c-15.9,17.2,13.1,64.2,16.4,69.5c24.6,39.4,77.1,63.3,102.7,21.5c4.6,2.3,9.3,4.4,14.2,6.1
		c14.7,7.4,107.6,17.9,159.6,13.8c23.4,32.9,69.3,13.9,90.8-13.3c56.1-14.4,110.2-52,109-115.5c0-1.5,8.2-255,8.2-255
		C507.4,149.7,487.4,98.1,450.2,60.1z M223,203.9c2.3,12.3,1.4,25.1-2.7,37l-67.7-17.5L223,203.9z M104.7,333.2v45.8
		c-3,2.6-6.2,5.1-9,8c-3.1,3.1-6.1,6.3-8.8,9.7C84.2,369.5,95.8,346.4,104.7,333.2L104.7,333.2z M103.9,573.2
		c-20.6,13-53.7-2.1-73.7-33.7c-16.2-24.3-30.7-68.1-7.7-55.1c4.1,3.3,10.3-1.3,8.4-6.1c-6.8-20.4,2.2-27.5,16.8-11.8
		c3.3,4.1,10.4,0.8,9.4-4.3c-1.4-29.8,27.4-2.6,47.9,30.1C125.1,523.8,124.5,560.2,103.9,573.2L103.9,573.2z M313.7,507.7
		c19.2-30.8,49.2-60.7,47.9-30.1c-0.9,5.2,6.1,8.4,9.4,4.3c2.2-2.5,11.3-11.1,16.3-8c4.7,3,2.3,14.8,0.5,19.8
		c-2,4.9,4.3,9.5,8.3,6.2c22.9-13.4,8.6,30.9-7.7,55.1C343.1,625.7,266.3,591,313.7,507.7L313.7,507.7z"/>
	<circle class="penguin_vaccine_no_crown-st1" cx="286.8" cy="163.6" r="19.1"/>
	<circle class="penguin_vaccine_no_crown-st1" cx="133.1" cy="169.3" r="19.7"/>
	<path class="penguin_vaccine_no_crown-st0" d="M388.5,555c-45.4,70.7-122.2,36-74.8-47.3c19.2-30.8,49.2-60.7,47.9-30.1c-0.9,5.2,6.1,8.4,9.4,4.3
		c2.2-2.5,11.3-11.1,16.3-8c4.7,3,2.3,14.8,0.5,19.8c-2,4.9,4.3,9.5,8.3,6.2C419.1,486.6,404.8,530.8,388.5,555z"/>
	<g id="color">
		<path class="penguin_vaccine_no_crown-st0" d="M220.7,29.5c101.6-8.2,185.4,68,184.6,173.6c0,0.2,0,4.8,0,5.2h-0.2c-2.2,54.3-39.7,96.6-72.9,134
			c-30.7,34.6-55,62-40.7,86.6c1.7,2.9,4.5,4.8,8.5,5.7c18,3.9,53.1-11.8,85.7-30v-0.1l0.1,0.1c1.3-0.7,2.5-1.4,3.8-2.1
			c0.3-0.3,0.7-0.5,1.1-0.6c23.1-13.2,44.4-27.2,56.6-35.9c5.8-4.1,12,4.7,6.3,8.8c-2.1,1.5-26.2,18.5-55.8,35.5l-2.4,1.4l19.8,15.1
			l9.1-12l28.4,21.5L433.8,461l13.2,10l9-11.9l24,18.2L429,544.9l-16.6-12.6c-3.8,9.2-8.4,18.1-13.6,26.6
			c33.7-11,67.9-31.1,81.4-65.5c4.3-11.4,6.5-23.5,6.4-35.7c0-0.1,0-0.2,8.2-255.2C498.6,58.1,348.7-30.4,220.7,29.5z"/>
		<g id="color-2">
			<path class="penguin_vaccine_no_crown-st0" d="M104.7,333.2v45.8c-3,2.6-6.2,5.1-9,8c-3.1,3.1-6.1,6.3-8.8,9.7C84.2,369.5,95.8,346.4,104.7,333.2z"/>
		</g>
		<g id="color-3">
			<path class="penguin_vaccine_no_crown-st0" d="M152.6,223.5l70.5-19.5c2.3,12.3,1.4,25.1-2.7,37L152.6,223.5z"/>
		</g>
	</g>
	<path class="penguin_vaccine_no_crown-st9" d="M342.2,205.3"/>
	<path class="penguin_vaccine_no_crown-st9" d="M503.4,164.1"/>
</g>
</svg>
