<?xml version="1.0" encoding="utf-8"?>
<!-- Generator: Adobe Illustrator 25.2.1, SVG Export Plug-In . SVG Version: 6.00 Build 0)  -->
<svg version="1.1" id="Layer_1" xmlns="http://www.w3.org/2000/svg" xmlns:xlink="http://www.w3.org/1999/xlink" x="0px" y="0px"
	 viewBox="0 0 509 704" style="enable-background:new 0 0 509 704;" xml:space="preserve">
<style type="text/css">
	.penguin_nurse_no_crown-st0{fill:#2D2D2D;}
	.penguin_nurse_no_crown-st1{fill:#E5C230;}
	.penguin_nurse_no_crown-st2{fill:#FFFFFF;}
	.penguin_nurse_no_crown-st3{fill:#010101;}
	.penguin_nurse_no_crown-st4{fill:#E4EBEC;}
	.penguin_nurse_no_crown-st5{fill:none;}
	.penguin_nurse_no_crown-st6{fill:#DAE3E5;}
	.penguin_nurse_no_crown-st7{fill:#EE2524;}
</style>
<g id="Color">
	<path id="color_1_" class="penguin_nurse_no_crown-st0" d="M495.3,302.3c-8.2,255-8.2,255-8.2,255.2c0,12.2-2.1,24.3-6.4,35.7
		c-13.5,34.4-47.7,54.5-81.4,65.5c6.2-10.2,30-51.7,15.3-67.7c-3.4-3.8-8.5-5.5-13.4-4.6c2.1-10.2-3-24.5-15.8-24.1
		c5.5-17.1,9.8-34.6,12.9-52.3c29.6-17,53.7-34,55.8-35.5c5.7-4.1-0.5-12.9-6.3-8.8c-12.2,8.7-33.5,22.7-56.6,35.9
		c-0.4,0.2-0.8,0.4-1.1,0.6c-33.6,19.1-70.9,36.2-89.6,32.2c-4-0.9-6.8-2.7-8.5-5.7c-14.3-24.7,9.9-52,40.7-86.6
		c33.2-37.4,70.7-79.8,72.9-134h0.2c0-0.4,0-5,0-5.2c0.8-105.5-83-181.8-184.6-173.6C349.2,69.3,499.1,157.8,495.3,302.3z"/>
	<path id="color" class="penguin_nurse_no_crown-st0" d="M105.2,432.9v45.8c-3,2.6-6.2,5.1-9,8c-3.1,3.1-6.1,6.3-8.8,9.7C84.7,469.2,96.3,446.1,105.2,432.9
		z"/>
</g>
<g id="Shape">
	<polygon class="penguin_nurse_no_crown-st1" points="367.6,573 362.1,560.9 354.1,559.3 341.7,570.3 327.1,580.5 313,599.5 301.9,619.2 294.6,646.5 
		296.5,670.5 307.2,688.9 317.8,695.7 339.3,698.4 366.6,689.1 392.5,659.2 408.4,628.8 413.9,603.9 407.8,592.5 395.2,594.1 
		395,574.6 385.2,567.6 372.6,570.3 	"/>
	<polygon class="penguin_nurse_no_crown-st1" points="52.3,562.6 40.8,553.7 32,552.4 24.8,559.1 24.8,570.3 21.6,577.2 9.2,579.1 5.9,584.8 5.9,597.3 
		26.2,642.1 44.2,663.6 65.7,681.5 87.3,682.9 107.3,677.5 121.9,659.2 125.6,628.8 118,603.9 101.6,576.4 87.5,559.1 74.1,547.5 
		61.4,543.8 52.8,553.3 	"/>
	<path class="penguin_nurse_no_crown-st2" d="M292.7,675.8c-69.1,2.8-133.1-6.9-150.6-13.4c-4.7-1.6-9.3-3.6-13.8-5.9c11.2-38.2-17.3-88.2-52-113.9
		c8.9-38.1,41.5-68.8,80.1-75.4c2.9-0.5,4.9-3.3,4.4-6.3l0,0c-2.2-12.3-38.5,6.3-44.9,10.4V333.4c16.9,15.3,45.5,19.2,66.1,8.4
		l45.1,11.6c9.4-19.7,10.9-42.3,4.1-63.1l-15.7,4.4c6.8-47.7-46.9-84.2-88.6-60.8c13.2-36.7,37.7-68.3,69.8-90.4
		c103.2-22.7,199.6,49.7,198.2,160c-0.2,52.4-37.5,94.4-70.4,131.5c-32.3,36.4-60.2,67.8-41.9,99.2c19.4,28.1,71.7-1.4,103.3-17.2
		c-3.3,16.9-7.8,33.6-13.4,49.9c-0.1,0.1-0.2,0.1-0.3,0.2c-15.3-38.4-55.9,15.8-67,34.7C289.1,627,285.1,655.4,292.7,675.8z"/>
	<circle class="penguin_nurse_no_crown-st3" cx="308.4" cy="281" r="58.5"/>
	<path class="penguin_nurse_no_crown-st3" d="M450.7,159.8C385.1,90,269.2,80.3,191,134.3c-38.6,26.4-66.5,65.6-78.8,110.7c-19.7,18.7-23.1,54.1-6.9,76.4
		v93.8c-7.3,8.1-37.7,45.7-26.7,94c-5.5,9.2-9.6,19.1-12.3,29.4c-9-1.9-17.1,5.4-18.6,12.9c-16.7-11.9-32.5,0.6-29,19.4
		c-5-0.9-10.1,0.9-13.5,4.6c-15.9,17.2,13.1,64.2,16.4,69.5c24.6,39.4,77.1,63.3,102.7,21.5c4.6,2.3,9.3,4.4,14.2,6.1
		c14.7,7.4,107.6,17.9,159.6,13.8c23.4,32.9,69.3,13.9,90.8-13.3c56.1-14.4,110.2-52,109-115.5c0-1.5,8.2-255,8.2-255
		C507.9,249.4,487.9,197.8,450.7,159.8z M153.1,323.2l70.5-19.5c2.3,12.3,1.4,25.1-2.7,37L153.1,323.2z M105.2,432.9v45.8
		c-3,2.6-6.2,5.1-9,8c-3.1,3.1-6.1,6.3-8.8,9.7C84.7,469.2,96.3,446.1,105.2,432.9z M104.4,672.9c-20.6,13-53.7-2.1-73.7-33.7
		C14.5,614.9,0,571.1,23,584.1c4.1,3.3,10.3-1.3,8.4-6.1c-6.8-20.4,2.2-27.5,16.8-11.8c3.3,4.1,10.4,0.8,9.4-4.3
		c-1.4-29.8,27.4-2.6,47.9,30.1C125.6,623.5,125,659.9,104.4,672.9z M292.7,675.8c-69.1,2.8-133.1-6.9-150.6-13.4
		c-4.7-1.6-9.3-3.6-13.8-5.9c11.2-38.2-17.3-88.2-52-113.9c8.9-38.1,41.5-68.8,80.1-75.4c2.9-0.5,4.9-3.3,4.4-6.3l0,0
		c-2.2-12.3-38.5,6.3-44.9,10.4V333.4c16.9,15.3,45.5,19.2,66.1,8.4l45.1,11.6c9.4-19.7,10.9-42.3,4.1-63.1l-15.7,4.4
		c6.8-47.7-46.9-84.2-88.6-60.8c13.2-36.7,37.7-68.3,69.8-90.4c103.2-22.7,199.6,49.7,198.2,160c-0.2,52.4-37.5,94.4-70.4,131.5
		c-32.3,36.4-60.2,67.8-41.9,99.2c19.4,28.1,71.7-1.4,103.3-17.2c-3.3,16.9-7.8,33.6-13.4,49.9c-0.1,0.1-0.2,0.1-0.3,0.2
		c-15.3-38.4-55.9,15.8-67,34.7C289.1,627,285.1,655.4,292.7,675.8L292.7,675.8z M389,654.7c-45.4,70.7-122.2,36-74.8-47.3
		c19.2-30.8,49.2-60.7,47.9-30.1c-0.9,5.2,6.1,8.4,9.4,4.3c2.2-2.5,11.3-11.1,16.3-8c4.7,3,2.3,14.8,0.5,19.8
		c-2,4.9,4.3,9.5,8.3,6.2C419.6,586.3,405.3,630.5,389,654.7z M495.3,302.3c-8.2,255-8.2,255-8.2,255.2c0,12.2-2.1,24.3-6.4,35.7
		c-13.5,34.4-47.7,54.5-81.4,65.5c6.2-10.2,30-51.7,15.3-67.7c-3.4-3.8-8.5-5.5-13.4-4.6c2.1-10.2-3-24.5-15.8-24.1
		c5.5-17.1,9.8-34.6,12.9-52.3c29.6-17,53.7-34,55.8-35.5c5.7-4.1-0.5-12.9-6.3-8.8c-12.2,8.7-33.5,22.7-56.6,35.9
		c-0.4,0.2-0.8,0.4-1.1,0.6c-33.6,19.1-70.9,36.2-89.6,32.2c-4-0.9-6.8-2.7-8.5-5.7c-14.3-24.7,9.9-52,40.7-86.6
		c33.2-37.4,70.7-79.8,72.9-134h0.2c0-0.4,0-5,0-5.2c0.8-105.5-83-181.8-184.6-173.6C349.2,69.3,499.1,157.8,495.3,302.3z"/>
	<circle class="penguin_nurse_no_crown-st2" cx="287.3" cy="263.3" r="19.1"/>
	<circle class="penguin_nurse_no_crown-st2" cx="133.6" cy="269" r="19.7"/>
	<path class="penguin_nurse_no_crown-st2" d="M339.6,389.2c0.1,6.4-3.8,9.9-9.2,11.4c-42.9,12.1-90.9,20.2-133.9,15.1c-29-3.5-47.7-6.2-74.8-12.3
		c-6.4-1.5-11-3.5-13.2-13.8c-6-27.2-3.4-41.9-1.1-69.2c0.4-5.1,2.8-5.5,6.2-7.1c0.2-0.1,0.5-0.1,0.7,0c13.2,0.9,31.2-2.3,42.7-4.8
		c20.3-4.4,33.3-13.1,53.1-14.5c23.7-1.7,42.3,8.3,66.7,13.6c13.3,2.9,34.7,6.2,50.4,6.1c5.6,0,11.7,4.4,12.5,10.5
		c0.1,0.4,0.1,0.7,0.1,1.1C340,346.4,339.4,368.5,339.6,389.2z"/>
	<path class="penguin_nurse_no_crown-st4" d="M104.8,310.5c16.2-1.4,31.8-1.4,45.5,7.5c23.7,4.8,47,10.6,70.5,16.3c3.7,30.8-15.1,58.4-41.7,75.4
		c-21.5-4.4-43.4-6.6-65.1-9.6c-3-1.8-6.1-3.4-9.3-4.7c-6.3-31.1-7.5-44.1-6.9-75.4C100.3,317,102.7,313.9,104.8,310.5"/>
	<path class="penguin_nurse_no_crown-st3" d="M222.9,420.4c-6.8,0-13.6-0.1-20.4-0.4c-30.5-1.1-60.8-4.6-90.7-10.4c-9.6-1.9-16.5-10.3-16.5-20v-76.5
		c0-6.5,5.3-11.9,11.8-11.9c0.4,0,0.9,0,1.3,0.1c15.3,1.7,30.7,1.4,45.9-0.9c9.4-1.3,18.6-3.7,27.6-6.9c7.7-2.6,15.1-5.1,27.3-5.9
		c16.5-1.1,26.6,2,38.3,5.5c10.1,3.2,20.4,5.7,30.9,7.4c17.8,2.7,35.9,3.2,53.8,1.5c9.4-0.9,17.8,6.1,18.7,15.5c0,0.5,0.1,1,0.1,1.6
		v73.3c0,8.2-5.7,15.2-13.7,16.8C299.6,416.6,261.3,420.4,222.9,420.4z M107.1,312.1c-0.6,0-1,0.5-1,1l0,0v76.6
		c0,4.6,3.3,8.5,7.8,9.4c29.4,5.7,59.2,9.1,89.1,10.2c44.3,1.6,88.7-2,132.2-10.8c2.9-0.6,5-3.2,5-6.2V319c0-3.5-2.9-6.4-6.4-6.3
		c-0.2,0-0.4,0-0.6,0c-18.8,1.8-37.8,1.3-56.4-1.6c-11-1.7-21.8-4.3-32.3-7.7c-11.6-3.5-19.9-6-34.5-5.1
		c-10.8,0.7-17.1,2.9-24.5,5.4c-9.6,3.5-19.4,5.9-29.5,7.4c-16.1,2.4-32.4,2.7-48.6,0.9C107.2,312.1,107.2,312.1,107.1,312.1z"/>
	<line class="penguin_nurse_no_crown-st5" x1="503.9" y1="263.8" x2="342.7" y2="305"/>
	<path class="penguin_nurse_no_crown-st3" d="M342.7,310.4c-3,0-5.4-2.4-5.4-5.4c0-2.5,1.7-4.6,4.1-5.2l161.1-41.2c2.9-0.7,5.8,1,6.6,3.9
		c0.7,2.9-1,5.8-3.9,6.6L344,310.3C343.6,310.3,343.1,310.4,342.7,310.4z"/>
	<line class="penguin_nurse_no_crown-st5" x1="500.5" y1="354.6" x2="346.5" y2="395.7"/>
	<path class="penguin_nurse_no_crown-st3" d="M346.5,401.1c-3,0-5.4-2.4-5.4-5.4c0-2.4,1.6-4.6,4-5.2l154-41.2c2.9-0.8,5.8,0.9,6.6,3.8
		c0.8,2.9-0.9,5.8-3.8,6.6l0,0l-154,41.2C347.5,401.1,347,401.1,346.5,401.1z"/>
	<path class="penguin_nurse_no_crown-st2" d="M445.3,69.8L383,161.5c-10.6-9.7-38.8-33.2-82.8-40.7c-44-7.5-78.5,5.2-91.7,10.9l-24.8-89.6
		C199.1,31.4,242.3,4.7,302.4,6C383.7,7.7,435,59.1,445.3,69.8z"/>
	<path class="penguin_nurse_no_crown-st6" d="M273.1,104.9c53.7,7.2,78.2-6.8,129.9,27.6l-18.5,24.7c-4.5-3.4-11-8-19.2-12.8c-12-7-37.2-21.4-72.3-24.6
		c-2.9-0.3-32.5-2.8-59.4,5.3c-3.4,1-24.7,7.7-24.7,7.7s-24.2-77.1-27.3-92.4l7.5-1.7c6.8,14.7,21.4,40.3,50,55.2
		C250.9,100.1,260.9,103.3,273.1,104.9z"/>
	<g>
		<g>
			<path class="penguin_nurse_no_crown-st7" d="M298.3,96.1c-4.5-0.6-6.9-2.9-7.3-7.7c-0.2-2.3,0-5.8,0-8.3c0-0.7-0.3-1.1-0.9-1.2c-2.2-0.3-4.8-0.1-6.9-0.4
				c-4.4-0.7-6.3-3.6-6.4-7.9c0-0.5,0.1-1.5,0.2-2.1c0.8-4.1,3.2-6.8,7.6-7.1c2.1-0.1,4.4,0.2,6.5,0c0.6-0.1,0.9-0.4,0.9-1.1
				c0.2-2.3,0-5.8,0.3-8c0.7-4.7,3.3-6.9,7.8-7.2c0.6,0,1.5,0,2.1,0.1c4.3,0.9,6.8,3.4,6.9,8.1c0,2.2-0.6,5.5-0.6,7.8
				c0,0.7,0.3,1.1,1,1.2c2.3,0.3,5.3,0.2,7.5,0.5c4.6,0.6,6.8,3.3,7.2,7.7c0,0.6,0,1.5-0.1,2.1c-0.7,4.3-3.1,6.9-7.7,7.1
				c-2.2,0.1-5.2-0.3-7.5-0.2c-0.7,0-1,0.4-1,1.1c-0.1,2.4,0.3,5.7,0.1,7.9c-0.4,4.7-3.1,6.9-7.5,7.5
				C299.8,96.2,298.9,96.2,298.3,96.1z"/>
		</g>
	</g>
	<path class="penguin_nurse_no_crown-st7" d="M320.6,9.2L320.6,9.2c-48.6-6.4-95.1,6.9-138.5,39.6l3.6,12.3c41.7-31.4,86.5-44.1,133.2-38l0,0
		c12.3,1.6,26.7,4.8,42.2,10.7c38.6,14.8,62.4,37.3,76.7,53.6l7.4-12.4C407.2,34.5,367.8,15.5,320.6,9.2z"/>
	<path class="penguin_nurse_no_crown-st3" d="M384,170.2l-4.9-4.5c-12.7-11.7-40.1-32.4-79.8-39.2c-39.8-6.8-72.5,3.7-88.4,10.5l-6.1,2.6l-27.6-99.9
		l3.4-2.3C201.4,23,245-0.9,302.7,0.3c77.4,1.6,128.5,46.4,146.8,65.6l3.2,3.4L384,170.2z M273.3,112.8c8.8,0,18.2,0.7,28,2.4
		c38.1,6.5,65.5,24.9,80.7,37.7l56-82.4C418.3,51,371.5,13.2,302.5,11.8c-51.5-1.1-91.1,19.1-111.9,32.8l21.9,79.4
		C226.2,118.7,247.5,112.8,273.3,112.8z"/>
</g>
</svg>
