<?xml version="1.0" encoding="utf-8"?>
<!-- Generator: Adobe Illustrator 24.0.0, SVG Export Plug-In . SVG Version: 6.00 Build 0)  -->
<svg version="1.1" id="PefiBioSeguridadCrown" xmlns="http://www.w3.org/2000/svg" xmlns:xlink="http://www.w3.org/1999/xlink"
	 x="0px" y="0px" viewBox="0 0 542.4 768.8" style="enable-background:new 0 0 542.4 768.8;" xml:space="preserve">
<style type="text/css">
	.penguin_surgeon_crown-st0{fill:#2D2D2D;}
	.penguin_surgeon_crown-st1{fill:#C0E2DC;}
	.penguin_surgeon_crown-st2{fill:#36CEA6;}
	.penguin_surgeon_crown-st3{fill:#FFFFFF;}
	.penguin_surgeon_crown-st4{fill:#28AD87;}
	.penguin_surgeon_crown-st5{fill:#FDFFFE;}
	.penguin_surgeon_crown-st6{fill:#E9F4F2;}
	.penguin_surgeon_crown-st7{fill:#C57F00;}
	.penguin_surgeon_crown-st8{opacity:0.4;fill:#8D5D15;enable-background:new    ;}
	.penguin_surgeon_crown-st9{fill:#A56921;}
	.penguin_surgeon_crown-st10{fill:#8D5D15;}
	.penguin_surgeon_crown-st11{fill:#FFB700;}
	.penguin_surgeon_crown-st12{fill:#6FBE44;}
	.penguin_surgeon_crown-st13{fill:#65AB45;}
	.penguin_surgeon_crown-st14{fill:#D4F4D0;}
</style>
<g id="Color">
	<path class="penguin_surgeon_crown-st0" d="M494.8,367.3c-8.2,255-8.2,255-8.2,255.2c0,12.2-2.1,24.3-6.4,35.7c-13.5,34.4-47.7,54.5-81.4,65.5
		c0.3-0.4,0.5-0.9,0.9-1.4c-4.9,1.9-10,3.1-15.2,3.5c-30.3,41.4-71.6,40.1-82.7,11c-1.8-0.2-3.6-0.5-5.4-0.8
		c-1.9-0.2-3.8-0.4-5.8-0.6c0.5,1.8,1,3.7,1.7,5.5c-69.1,2.8-133.1-6.9-150.6-13.4c-4.7-1.6-9.3-3.6-13.8-5.9
		c11.2-38.2-17.3-88.2-52-113.9c8.9-38.1,41.5-68.8,80.1-75.4c2.9-0.5,4.9-3.3,4.4-6.3l0,0l0,0l0,0c-2.2-12.3-38.5,6.3-44.9,10.4
		V485c58.5,49,141.6,55.6,207.1,16.5c0.5-0.6,1-1.1,1.5-1.7c1.3-1.5,2.7-3,4-4.5c-1.3,1.5-2.7,3-4,4.5
		c-32.3,36.4-60.2,67.8-41.9,99.2c19.4,28.1,71.7-1.4,103.3-17.2l12.3-6.9c29.6-17,53.7-34,55.8-35.5c5.7-4.1-0.5-12.9-6.3-8.8
		c-12.2,8.7-33.5,22.7-56.6,35.9c-0.4,0.2-0.8,0.4-1.1,0.6c-33.6,19.1-70.9,36.2-89.6,32.2c-4-0.9-6.8-2.7-8.5-5.7
		c-14.3-24.7,9.9-52,40.7-86.6c33.2-37.4,70.7-79.8,72.9-134h0.2c0-0.4,0-5,0-5.2c0.8-105.5-83-181.8-184.6-173.6
		C348.7,134.4,498.6,222.8,494.8,367.3z"/>
	<path class="penguin_surgeon_crown-st0" d="M494.8,367.3c-8.2,255-8.2,255-8.2,255.2c0,12.2-2.1,24.3-6.4,35.7c-13.5,34.4-47.7,54.5-81.4,65.5
		c0.3-0.4,0.5-0.9,0.9-1.4c-4.9,1.9-10,3.1-15.2,3.5c-30.3,41.4-71.6,40.1-82.7,11c-1.8-0.2-3.6-0.5-5.4-0.8
		c-1.9-0.2-3.8-0.4-5.8-0.6c0.5,1.8,1,3.7,1.7,5.5c-69.1,2.8-133.1-6.9-150.6-13.4c-4.7-1.6-9.3-3.6-13.8-5.9
		c11.2-38.2-17.3-88.2-52-113.9c8.9-38.1,41.5-68.8,80.1-75.4c2.9-0.5,4.9-3.3,4.4-6.3l0,0l0,0l0,0c-2.2-12.3-38.5,6.3-44.9,10.4
		V485c58.5,49,141.6,55.6,207.1,16.5c0.5-0.6,1-1.1,1.5-1.7c1.3-1.5,2.7-3,4-4.5c-1.3,1.5-2.7,3-4,4.5
		c-32.3,36.4-60.2,67.8-41.9,99.2c19.4,28.1,71.7-1.4,103.3-17.2l12.3-6.9c29.6-17,53.7-34,55.8-35.5c5.7-4.1-0.5-12.9-6.3-8.8
		c-12.2,8.7-33.5,22.7-56.6,35.9c-0.4,0.2-0.8,0.4-1.1,0.6c-33.6,19.1-70.9,36.2-89.6,32.2c-4-0.9-6.8-2.7-8.5-5.7
		c-14.3-24.7,9.9-52,40.7-86.6c33.2-37.4,70.7-79.8,72.9-134h0.2c0-0.4,0-5,0-5.2c0.8-105.5-83-181.8-184.6-173.6
		C348.7,134.4,498.6,222.8,494.8,367.3z"/>
	<path class="penguin_surgeon_crown-st1" d="M405.1,357.8h0.2c0-0.4,0-5,0-5.2c0.7-91.1-61.7-160.4-144.1-172.3c-13.9,3.2-27.5,7.9-40.5,14
		C319,186.3,400.7,257.5,405.1,357.8z"/>
	<path class="penguin_surgeon_crown-st1" d="M277,570.6c4-22.3,24.4-45.3,47-70.7c-0.5,0.6-1,1.1-1.5,1.7c-7.1,4.2-14.5,8-22.1,11.2
		c-0.2,0.1-0.5,0.2-0.7,0.3C283.9,533.1,273.4,552,277,570.6z"/>
	<path class="penguin_surgeon_crown-st1" d="M486.6,607.3c0,12.2-2.1,24.3-6.4,35.7c-13.5,34.4-47.7,54.5-81.4,65.5c0.3-0.4,0.5-0.9,0.9-1.4
		c-4.9,1.9-10,3.1-15.2,3.5c-30.3,41.4-71.6,40.1-82.7,11c-1.8-0.2-3.6-0.5-5.4-0.8c-1.9-0.2-3.8-0.4-5.8-0.6c0.5,1.8,1,3.7,1.7,5.5
		c-69.1,2.8-133.1-6.9-150.6-13.4c-3.9-1.4-7.7-2.9-11.4-4.8c-0.2,4.7-1,9.4-2.4,14c4.4,2.3,9,4.3,13.8,5.9
		c17.5,6.6,81.5,16.2,150.6,13.4c-0.6-1.8-1.2-3.6-1.7-5.5c1.9,0.2,3.8,0.4,5.8,0.6c1.8,0.3,3.6,0.6,5.4,0.8
		c11.1,29.1,52.5,30.4,82.7-11c5.2-0.4,10.3-1.5,15.2-3.5c-0.3,0.5-0.6,1-0.9,1.4c33.7-11,67.9-31.1,81.4-65.5
		c4.3-11.4,6.5-23.5,6.4-35.7c0-0.1,0-0.2,8.2-255.2c0.1-4.3,0.1-8.6-0.1-12.9C486.6,607.1,486.6,607.1,486.6,607.3z"/>
	<path class="penguin_surgeon_crown-st1" d="M79.7,595.3c-1.5,4-2.8,8.1-3.8,12.3c27.3,20.2,50.7,55.5,54,88.2C133.7,660.8,109.5,619.2,79.7,595.3z"/>
	<g id="x">
		<g id="color-3">
			<path class="penguin_surgeon_crown-st0" d="M104.7,497.9v45.8c-3,2.6-6.2,5.1-9,8c-3.1,3.1-6.1,6.3-8.8,9.7C84.2,534.2,95.8,511.1,104.7,497.9z"/>
		</g>
	</g>
</g>
<g id="Shape">
	<path class="penguin_surgeon_crown-st2" d="M51.8,627.7c-7.7-7.1-20.1-15.7-27.5-3.5c0.5,4.9-0.1,14-3.2,18.1c-36.9-1.6,0.8,50.6,4.7,64.9
		c8.2,11.6,27.9,31.2,39.5,39.4c72.3,12.7,69.4-63.2,35.9-105.1C90.7,625.5,54.1,587.5,51.8,627.7z"/>
	<path class="penguin_surgeon_crown-st3" d="M115.5,398.4c16.9,15.3,45.5,19.2,66.1,8.4l45.1,11.6c9.4-19.7,10.9-42.3,4.1-63.1l-15.7,4.4
		c6.8-47.7-46.9-84.2-88.6-60.8c13.2-36.7,37.7-68.3,69.8-90.4c103.2-22.7,199.6,49.7,198.2,160c-0.2,40.4-22.3,74.6-47.5,105.1
		c4.5-5.4,8.9-11,13.1-16.7c-60.4,71.5-167.3,80.4-238.7,20c0,0,0,0,0,0c-2-1.7-3.9-3.4-5.8-5.1L115.5,398.4z"/>
	<circle cx="307.9" cy="346" r="58.5"/>
	<path class="penguin_surgeon_crown-st4" d="M120.3,678.9c0.4,17.6-5.8,32.6-18.3,40.5c-23.3,14.6-59.8-1.2-81.5-35.3c-6.1-9.5-11.3-19.7-15.4-30.2
		c-0.4,15.9,18.1,43.4,20.7,53.2c8.2,11.6,27.9,31.2,39.5,39.4C118.7,755.9,131,716.8,120.3,678.9z"/>
	<g id="Layer_3">
		<path d="M348.3,591.6c-1.2-13.7-7-26.5-16.5-36.5c-7.9-8.1-17.9-13.8-28.9-16.5l2.6-10.7c13,3.2,24.9,9.9,34.2,19.5
			c11.2,11.7,18.1,26.9,19.5,43.1L348.3,591.6z"/>
		<path class="penguin_surgeon_crown-st2" d="M304.9,539.2c10.2,2.8,19.5,8.3,26.9,16c8.7,9.1,14.3,20.7,16.1,33.2c-19.4,8.4-36.9,13.4-47.9,11
			c-4-0.9-6.8-2.7-8.5-5.7C281.8,577.2,289.5,559.4,304.9,539.2z"/>
	</g>
	<path d="M450.2,224.8c-65.6-69.8-181.6-79.4-259.8-25.5c-38.6,26.4-66.5,65.6-78.8,110.7c-19.7,18.7-23.1,54.1-6.9,76.4v93.8
		c-7.3,8.1-37.7,45.7-26.7,94c-5.5,9.2-9.6,19.1-12.3,29.4c-9-1.9-17.1,5.4-18.6,12.9c-16.7-11.9-32.5,0.6-29,19.4
		c-5-0.9-10.1,0.9-13.5,4.6c-15.9,17.2,13.1,64.2,16.4,69.5c24.6,39.4,77.1,63.3,102.7,21.5c4.6,2.3,9.3,4.4,14.2,6.1
		c14.7,7.4,107.6,17.9,159.6,13.8c23.4,32.9,69.3,13.9,90.8-13.3c56.1-14.4,110.2-52,109-115.5c0-1.5,8.2-255,8.2-255
		C507.4,314.5,487.4,262.9,450.2,224.8z M115.5,398.4c16.9,15.3,45.5,19.2,66.1,8.4l45.1,11.6c9.4-19.7,10.9-42.3,4.1-63.1
		l-15.7,4.4c6.8-47.7-46.9-84.2-88.6-60.8c13.2-36.7,37.7-68.3,69.8-90.4c103.2-22.7,199.6,49.7,198.2,160
		c-0.2,40.4-22.3,74.6-47.5,105.1c4.5-5.4,8.9-11,13.1-16.7c-60.4,71.5-167.3,80.4-238.7,20c0,0,0,0,0,0c-2-1.7-3.9-3.4-5.8-5.1
		L115.5,398.4z M152.6,388.2l70.5-19.5c2.3,12.3,1.4,25.1-2.7,37L152.6,388.2z M104.7,497.9v45.8c-3,2.6-6.2,5.1-9,8
		c-3.1,3.1-6.1,6.3-8.8,9.7C84.2,534.2,95.8,511.1,104.7,497.9z M103.9,737.9c-20.6,13-53.7-2.1-73.7-33.7
		c-16.2-24.3-30.7-68.1-7.7-55.1c4.1,3.3,10.3-1.3,8.4-6.1c-6.8-20.4,2.2-27.5,16.8-11.8c3.3,4.1,10.4,0.8,9.4-4.3
		c-1.4-29.8,27.4-2.6,47.9,30.1C125.1,688.6,124.5,724.9,103.9,737.9z M494.8,367.3c-8.2,255-8.2,255-8.2,255.2
		c0,12.2-2.1,24.3-6.4,35.7c-13.5,34.4-47.7,54.5-81.4,65.5c0.3-0.4,0.5-0.9,0.9-1.4c-4.9,1.9-10,3.1-15.2,3.5
		c-30.3,41.4-71.6,40.1-82.7,11c-1.8-0.2-3.6-0.5-5.4-0.8c-1.9-0.2-3.8-0.4-5.8-0.6c0.5,1.8,1,3.7,1.7,5.5
		c-69.1,2.8-133.1-6.9-150.6-13.4c-4.7-1.6-9.3-3.6-13.8-5.9c11.2-38.2-17.3-88.2-52-113.9c8.9-38.1,41.5-68.8,80.1-75.4
		c2.9-0.5,4.9-3.3,4.4-6.3l0,0l0,0l0,0c-2.2-12.3-38.5,6.3-44.9,10.4V485c58.5,49,141.6,55.6,207.1,16.5c0.5-0.6,1-1.1,1.5-1.7
		c1.3-1.5,2.7-3,4-4.5c-1.3,1.5-2.7,3-4,4.5c-32.3,36.4-60.2,67.8-41.9,99.2c19.4,28.1,71.7-1.4,103.3-17.2l12.3-6.9
		c29.6-17,53.7-34,55.8-35.5c5.7-4.1-0.5-12.9-6.3-8.8c-12.2,8.7-33.5,22.7-56.6,35.9c-0.4,0.2-0.8,0.4-1.1,0.6
		c-33.6,19.1-70.9,36.2-89.6,32.2c-4-0.9-6.8-2.7-8.5-5.7c-14.3-24.7,9.9-52,40.7-86.6c33.2-37.4,70.7-79.8,72.9-134h0.2
		c0-0.4,0-5,0-5.2c0.8-105.5-83-181.8-184.6-173.6C348.7,134.4,498.6,222.8,494.8,367.3z M346.8,473.5c-2.9,3.5-5.9,7.1-8.9,10.5
		C340.9,480.6,343.9,477.1,346.8,473.5z M337.6,484.5c-2.9,3.4-5.8,6.7-8.7,9.9C331.8,491.1,334.7,487.8,337.6,484.5z"/>
	<circle class="penguin_surgeon_crown-st3" cx="286.8" cy="328.3" r="19.1"/>
	<circle class="penguin_surgeon_crown-st3" cx="133.1" cy="334.1" r="19.7"/>
	<path class="penguin_surgeon_crown-st2" d="M309.2,669.8c-21.7,34.1-20.5,73.7,2.8,88.3s59.8-1.2,81.5-35.3c13.9-21.8,26.8-52.5,17.1-62.9
		c-6.8-7.3-17.3,0.7-17.3,0.7s7.4-19.8-2.7-26.2s-23.4,9-23.4,9s2.4-16.2-9.1-18.8C345,621.7,323.5,647.3,309.2,669.8z"/>
	<path class="penguin_surgeon_crown-st4" d="M393.3,639.7c0,0,0.4-0.3,1.2-0.8c-0.2-0.4-0.4-0.7-0.6-1.1C393.6,639,393.3,639.7,393.3,639.7z"/>
	<path class="penguin_surgeon_crown-st4" d="M393.5,701.9c-21.7,34.1-58.2,49.9-81.5,35.3c-9.7-6-15.5-16.4-17.5-28.9c-3.1,21.4,2.8,40.6,17.5,49.8
		c23.3,14.6,59.8-1.2,81.5-35.3c13.1-20.5,25.2-48.8,18.6-60.8C408.8,674.7,401.3,689.7,393.5,701.9z"/>
	<path d="M331.5,768.8c-7.9,0.1-15.7-2-22.4-6.2c-12.8-8.1-20.2-22.7-20.8-41.2c-0.6-17.7,5.2-37.1,16.3-54.5l0,0
		c10-15.7,35.3-51.8,54.7-47.5c7.4,1.7,11,7.1,12.6,12.9c6.4-4.3,14.5-6.9,21.6-2.4c7.8,4.9,8.5,14.3,7.5,21.7
		c5-0.9,10.1,0.8,13.5,4.6c15.9,17.1-13.1,64.1-16.5,69.4C380.8,752.7,354.5,768.8,331.5,768.8z M313.7,672.7
		c-9.9,15.6-15.1,32.8-14.6,48.4c0.5,14.9,6.1,26.4,15.8,32.5c20.7,13,54-2.1,74.1-33.7c15.7-24.7,23.6-50,17.7-56.4
		c-3.3-3.6-10,1.3-10,1.3c-1.9,1.4-4.6,1.4-6.5,0c-1.9-1.4-2.7-3.9-1.9-6.1c1.9-5.2,4.3-16.8-0.5-19.8c-5.1-3.2-14.3,5.5-16.5,8
		c-2,2.2-5.4,2.4-7.6,0.4c-1.3-1.2-2-3-1.8-4.7c0-0.1,1.5-11.3-5-12.8C350.1,628.4,332.7,642.8,313.7,672.7L313.7,672.7z"/>
	<g id="Layer_2_1_">
		<path class="penguin_surgeon_crown-st5" d="M339.1,454.2c0.1,6.4-3.8,9.9-9.2,11.4c-42.9,12.1-90.9,20.2-133.9,15.1c-29-3.5-47.7-6.2-74.8-12.3
			c-6.4-1.5-11-3.5-13.2-13.8c-6-27.2-3.4-41.9-1.1-69.2c0.4-5.1,2.8-5.5,6.2-7.1c0.2-0.1,0.5-0.1,0.7,0c13.2,0.9,31.2-2.3,42.7-4.8
			c20.3-4.4,33.3-13.1,53.1-14.5c23.7-1.7,42.3,8.3,66.7,13.6c13.3,2.9,34.7,6.2,50.4,6.1c5.6,0,11.7,4.4,12.5,10.5
			c0.1,0.4,0.1,0.7,0.1,1.1C339.5,411.4,338.9,433.4,339.1,454.2z"/>
		<path class="penguin_surgeon_crown-st6" d="M113.3,378.8c14.9-1.4,29.4-1.4,42,7.5c21.9,4.8,43.5,10.6,65.1,16.3c3.5,30.8-13.9,58.4-38.6,75.4
			c-19.9-4.4-40.1-6.6-60.2-9.6c-2.7-1.8-5.6-3.4-8.6-4.7c-5.8-31.1-6.9-44.1-6.3-75.4C109.2,385.3,111.4,382.1,113.3,378.8"/>
		<path d="M213.1,487.6c-7-0.4-12.7-0.8-18.4-1.6c-25.6-3.6-48.6-6.3-74.2-12.3c-8.2-1.9-15.3-5.8-18-19.1
			c-5.3-26.3-3.4-42.4-0.8-68.9c0.9-9,4.6-10.4,11.1-13c0.4-0.2,0.8,0.1,1.2,0.1c14.7,0.4,27.8-1.4,42.4-4.7
			c9-2.2,17.8-4.9,26.4-8.3c7.9-3,17.2-5.6,26.5-6.3c12.6-0.8,25.5,1.7,37.3,5.4c10.3,3.2,19.7,6.1,29.7,8.4
			c16.4,3.8,33.2,5.8,50,6.1c9.1,0,16.9,6.6,18.3,15.6c0.1,0.5,0.2,1,0.2,1.6c-0.1,20.8-0.4,43.1-0.4,63.6c0,9.2-5,14.6-13.1,16.8
			C293.2,481.5,252.7,489.9,213.1,487.6z M113.4,384c-0.5-0.1-0.9,0.8-0.9,1l0,0c-1.8,28.1-5.4,41.2,1,69.6c1.5,6.8,4.4,7.7,8.5,8.6
			c26.9,5.9,46.1,8.7,74.9,12.1c42.7,5.1,89.6-3.3,132.1-14.9c2.8-0.8,5.1-2.6,5-6c-0.4-21.1,0.7-43.1,0.2-64.2
			c-0.1-4-3.1-5.2-6.2-6.2c-0.2,0-0.4,0-0.6,0c-17.6-0.4-35.2-2.5-52.4-6.4c-10.3-2.2-20.8-5.4-31-8.6c-11.2-3.5-22.2-5.6-33.8-4.9
			c-8.5,0.5-16.4,3.1-23.8,5.8c-9.2,3.5-18.6,6.4-28.2,8.7c-14.6,3.5-29.5,5.2-44.5,5.2C113.6,383.9,113.4,384,113.4,384z"/>
		<path d="M345.2,417.4c-10.7,1.3-6.6-1.7-7.9-4.3c-1-2.2,0.6-3.8,3.8-4.6c54.2-12.7,108.2-31.7,162.6-44.8c3.9-0.9,4.7,1.3,6.6,3.9
			c2,2.6-2.6,6-5.6,6.8c-41.4,11.5-122.7,36.1-153.7,42.1S346.6,417.2,345.2,417.4z"/>
	</g>
	<g id="Layer_2-3">
		<path class="penguin_surgeon_crown-st7" d="M492.1,110.6c-8.4,17.3-11.4,37.1-12.5,44.6c-0.2,1.3-0.3,2.3-0.4,2.7c-0.1,0.2-0.1,0.5-0.1,0.7l-2.6,26.5
			l-151-14.9l-2.5-0.2l-151-14.9l2.6-26.5c0.1-0.2,0.1-0.5,0.1-0.7c0-0.5,0-1.4,0.1-2.8c0.4-7.6,1.3-27.6-3.6-46.2
			c-4.4-16.8-19.5-52.5-26.6-68.9c1.6,1.2,3.6,2.7,6,4.6c4.2,3.4,9.3,5.2,14.2,6.9c9.8,3.4,19,6.7,24.6,21.4
			c5.2,13.9,0.9,20.5-3.3,26.9c-2.6,4-5.3,8.1-5.4,13.5c0,1.3-0.1,2.7-0.1,4.2c-0.1,2.6-0.2,5.5-0.2,8.4c0,1.4,0.9,2.6,2.2,2.9
			c1.3,0.4,2.7-0.2,3.4-1.4l0.3-0.6c0.1-0.2,0.2-0.3,0.3-0.5c1.8-2.4,4.1-4.3,6.7-5.7c8.1-4.6,17.8-5.3,26.4-1.7
			c4.1,1.6,7.6,4.4,10.1,8c2.5,3.8,3.3,8.5,2.2,12.9c-1,3.8-4.2,6.6-8.1,7.2c-4.3,0.5-7.2-0.2-8.9-1.9c-2.2-2.3-1.7-6-1.7-6
			c0.2-1.2-0.4-2.3-1.4-3c-1-0.6-2.3-0.7-3.3,0c-4.4,2.7-11.3,10.4-6.4,20.8c2,4.2,6.8,7,14.4,8.4l48.4,4.8
			c11.2,1.1,18.4-0.5,22.1-4.8c2.6-2.9,4-6.7,3.7-10.6c-0.6-6.6-6.1-11.1-6.4-11.4c-0.9-0.7-2.1-0.9-3.2-0.4c-1,0.5-1.7,1.5-1.8,2.6
			c-0.2,2-1.2,3.8-2.8,5.1c-2.4,1.7-6.3,1.8-11.5,0.3c-4.2-1.1-7.3-4.6-7.9-8.8c-0.4-4.1,1.5-8.7,5.1-11.9c3.8-3.2,8.4-5.2,13.2-5.8
			c10.6-1.7,21.4,1,30,7.4c2.6,1.9,4.8,4.3,6.4,7.1c1.2,2.4,1.9,5.1,2.1,7.8c0.1,1.4,1.3,2.6,2.7,2.7c1.5,0.2,2.9-0.7,3.2-2.1
			c2.2-7,0-14.5-5.9-20.6c-2.5-2.6-5.3-5-8.1-7.4c-8-6.9-14.8-12.8-14-21.3c1.7-17.6,14-21.6,24.9-25.2c4.1-1.3,8.1-2.6,11-4.6
			c3.8-2.7,7.2-6,10-9.8c2,4.3,4.6,8.2,7.9,11.5c2.5,2.5,6.1,4.5,9.9,6.6c10,5.6,21.3,11.9,19.5,29.6c-0.9,8.5-8.8,13-17.9,18.1
			c-3.1,1.8-6.3,3.6-9.3,5.6c-6.9,4.8-10.5,11.7-9.7,19c0.1,1.5,1.3,2.7,2.8,2.7c1.4,0.1,2.8-0.8,3.2-2.1c0.7-2.6,1.9-5.1,3.5-7.2
			c2.1-2.4,4.8-4.4,7.7-5.7c9.7-4.6,20.8-5.1,30.9-1.4c4.6,1.6,8.8,4.5,11.8,8.3c2.9,3.9,3.9,8.7,2.7,12.7c-1.5,4-5.2,6.8-9.5,7.1
			c-5.3,0.4-9.2-0.4-11.2-2.5c-1.3-1.5-1.9-3.5-1.7-5.5c0.2-1.1-0.3-2.3-1.2-2.9c-0.9-0.7-2.2-0.8-3.2-0.2c-0.3,0.1-6.6,3.5-8.5,9.9
			c-1.1,3.8-0.5,7.8,1.5,11.1c2.7,4.9,9.5,7.9,20.7,9l48.4,4.8c7.7,0.2,13-1.6,15.7-5.4c6.8-9.2,1.6-18.2-2.2-21.6
			c-0.9-0.8-2.1-1-3.2-0.6c-1.1,0.4-1.8,1.5-1.9,2.6c0,0-0.2,3.8-2.8,5.6c-2,1.4-5.1,1.4-9.1,0.1c-3.7-1.3-6.3-4.7-6.6-8.6
			c-0.2-4.5,1.5-9,4.7-12.2c3.1-3.1,7.1-5.1,11.4-5.9c9.1-1.8,18.6,0.8,25.6,6.9c2.3,1.9,4.2,4.2,5.5,6.9c0.1,0.2,0.1,0.4,0.2,0.5
			l0.2,0.6c0.5,1.3,1.7,2.1,3.1,2c1.4-0.1,2.5-1.1,2.8-2.4c0.6-2.9,1.1-5.7,1.5-8.3c0.2-1.5,0.5-2.8,0.7-4.1c1-5.3-0.9-9.9-2.7-14.3
			c-2.9-7.1-5.8-14.4,2-27c8.3-13.4,18-14.8,28.3-16.2c5.2-0.7,10.5-1.5,15.3-4c2.7-1.4,4.9-2.5,6.8-3.3
			C521.5,62.9,499.7,95,492.1,110.6z"/>
		<polygon class="penguin_surgeon_crown-st7" points="325,175.3 322.5,175.1 171.5,160.2 170,175.2 166.3,213 164.8,228 315.8,242.9 318.3,243.1 
			469.3,258 470.8,243 474.5,205.2 476,190.2 		"/>
		<polygon class="penguin_surgeon_crown-st8" points="354.8,249.5 380.3,178.6 477.1,188.6 473.9,258.2 		"/>
		<polygon class="penguin_surgeon_crown-st9" points="363.1,250.4 388.6,179.5 479.6,194.6 473.9,258.2 		"/>
		<polygon class="penguin_surgeon_crown-st10" points="472.2,251.8 163.9,217.8 472.9,244.6 		"/>
		<polygon class="penguin_surgeon_crown-st10" points="475.5,195.6 165.6,159.1 476.5,184.8 		"/>
		<path class="penguin_surgeon_crown-st10" d="M469.9,70.7c5.7-9,12.1-13.1,18.8-15.1c-5.2,3.3-9.5,7.7-12.6,13c-9.4,15.2-5.6,24.8-2.5,32.4
			c1.6,3.9,3,7.4,2.3,11c-0.2,1.3-0.5,2.7-0.7,4.2c0,0.1,0,0.1,0,0.2c-1-1.1-2.1-2.2-3.2-3.1c-0.4-0.4-0.9-0.7-1.4-1.1
			c0-0.1,0-0.2,0-0.2c1-5.4-0.9-9.9-2.7-14.3C464.8,90.3,461.9,83.4,469.9,70.7z"/>
		<path class="penguin_surgeon_crown-st10" d="M426.6,112.8c-4.4,4.5-6.7,10.6-6.3,16.8c0.2,2.7,1.1,5.3,2.6,7.5c-0.7-0.2-1.5-0.3-2.2-0.6
			c-3.8-1.3-6.4-4.7-6.7-8.7c-0.2-4.5,1.5-9,4.7-12.2l0,0c3.1-3,7-5,11.3-5.8C428.7,110.8,427.6,111.8,426.6,112.8z"/>
		<path class="penguin_surgeon_crown-st10" d="M242.3,98.4L242.3,98.4c2.5,3.8,3.4,8.4,2.3,12.8c-1.1,3.8-4.4,6.7-8.3,7.2c-0.7,0.1-1.5,0.1-2.3,0.1
			c1.9-1.9,3.3-4.3,4-6.9c1.6-6.1,0.5-12.5-2.9-17.8c-0.8-1.2-1.7-2.3-2.7-3.4C236.4,92.2,239.9,94.9,242.3,98.4z"/>
		<path class="penguin_surgeon_crown-st10" d="M200.8,44.2c5.4,13.9,1.2,20.2-3.3,26.9c-2.7,4-5.4,8.1-5.5,13.5v0.2c-0.5,0.3-1.1,0.5-1.6,0.8
			c-1.3,0.7-2.6,1.5-3.7,2.4v-0.2c0-1.5,0.1-2.9,0.1-4.3c0.1-3.7,2.1-6.8,4.4-10.3c4.5-6.9,10.2-15.5,3.9-32.3
			c-2-5.8-5.4-11-9.8-15.2C191.5,29.1,197,34.3,200.8,44.2z"/>
		<path class="penguin_surgeon_crown-st10" d="M214.6,128.8c-3.5-1-5.8-2.4-6.7-4.2c-1.6-2.9-1.5-6.4,0.2-9.2c0.6,1.5,1.4,2.9,2.5,4.1
			c0.6,0.6,1.2,1.1,1.9,1.5c0,2.6,0.5,5.1,1.7,7.4C214.4,128.5,214.5,128.7,214.6,128.8z"/>
		<path class="penguin_surgeon_crown-st10" d="M439.9,151c0.1-0.1,0.3-0.3,0.4-0.4c1.6-2,2.6-4.4,3.1-6.9c0.8-0.3,1.5-0.7,2.2-1.1c1.3-0.9,2.4-2.1,3.3-3.5
			c1.1,3.1,0.5,6.5-1.6,9C446,149.8,443.5,150.7,439.9,151z"/>
		<path class="penguin_surgeon_crown-st11" d="M144.6,10.2c7.5,5.7,18.6,27,25.2,44c14.8,38.1,11.7,70.4,9.8,91l-9.6,85.5l-7.4-3.5l9.4-122.9
			c0.3-7.7-0.8-15.4-3.3-22.7l-11.9-35.2L144.6,10.2z"/>
		<polygon class="penguin_surgeon_crown-st8" points="380.1,179.8 391.3,148.5 480.7,161.6 477.1,188.6 		"/>
		<path class="penguin_surgeon_crown-st12" d="M260.2,213.4c-7.9-0.8-13.5-9.2-12.6-18.8s8.1-16.8,16-16s13.5,9.2,12.6,18.8
			C275.3,207,268.1,214.2,260.2,213.4z"/>
		<path d="M263.4,181.2c6.5,0.6,11.1,7.8,10.3,16.1c-0.8,8.2-6.7,14.4-13.3,13.7s-11.1-7.8-10.3-16.1S256.9,180.5,263.4,181.2
			 M263.9,176.1c-9.3-0.9-17.7,7.3-18.8,18.2s5.6,20.6,14.9,21.6c9.3,0.9,17.7-7.3,18.8-18.2S273.2,177.1,263.9,176.1L263.9,176.1z"
			/>
		<path class="penguin_surgeon_crown-st13" d="M269.1,183.8c1.4,2.9,1.9,6.2,1.6,9.4c-0.8,8.2-6.7,14.4-13.2,13.7c-2.1-0.2-4.1-1.1-5.7-2.6
			c1.8,3.7,5,6.3,8.7,6.7c6.5,0.6,12.4-5.5,13.2-13.7C274.3,191.7,272.4,186.7,269.1,183.8z"/>
		<path class="penguin_surgeon_crown-st12" d="M372.6,225.1c-7.9-0.8-13.5-9.2-12.6-18.8s8.1-16.8,16-16s13.5,9.2,12.6,18.8S380.5,225.9,372.6,225.1z"/>
		<path d="M375.8,192.8c6.5,0.6,11.1,7.8,10.3,16.1c-0.8,8.2-6.7,14.4-13.3,13.7s-11.1-7.8-10.3-16.1S369.3,192.2,375.8,192.8
			 M376.3,187.8c-9.3-0.9-17.7,7.3-18.8,18.2s5.6,20.6,14.9,21.6s17.7-7.3,18.8-18.2S385.6,188.7,376.3,187.8L376.3,187.8z"/>
		<path class="penguin_surgeon_crown-st13" d="M381.5,195.5c1.4,2.9,1.9,6.2,1.6,9.4c-0.8,8.2-6.7,14.4-13.3,13.7c-2.1-0.2-4.1-1.1-5.7-2.6
			c1.8,3.7,5,6.3,8.7,6.7c6.5,0.6,12.4-5.5,13.3-13.7C386.7,203.4,384.8,198.4,381.5,195.5z"/>
		<path class="penguin_surgeon_crown-st12" d="M428.3,230.6c-7.9-0.8-13.5-9.2-12.6-18.8s8.1-16.8,16-16s13.5,9.2,12.6,18.8S436.2,231.4,428.3,230.6z"/>
		<path d="M431.5,198.3c6.5,0.6,11.1,7.8,10.3,16.1s-6.7,14.4-13.3,13.7s-11.1-7.8-10.3-16.1S425,197.7,431.5,198.3 M432,193.3
			c-9.3-0.9-17.7,7.3-18.8,18.2c-1.1,11,5.6,20.6,14.9,21.6s17.7-7.3,18.8-18.2S441.3,194.2,432,193.3L432,193.3z"/>
		<path class="penguin_surgeon_crown-st13" d="M437.2,200.9c1.4,2.9,1.9,6.2,1.6,9.4c-0.8,8.2-6.7,14.4-13.3,13.7c-2.1-0.2-4.1-1.1-5.7-2.6
			c1.8,3.7,5,6.3,8.7,6.7c6.5,0.6,12.4-5.5,13.3-13.7C442.3,208.9,440.4,203.9,437.2,200.9z"/>
		<path class="penguin_surgeon_crown-st12" d="M204.6,207.9c-7.9-0.8-13.5-9.2-12.6-18.8s8.1-16.8,16-16s13.5,9.2,12.6,18.8S212.5,208.7,204.6,207.9z"/>
		<path d="M207.8,175.7c6.5,0.6,11.1,7.8,10.3,16.1s-6.7,14.4-13.3,13.7s-11.1-7.8-10.3-16.1S201.2,175,207.8,175.7 M208.3,170.7
			c-9.3-0.9-17.7,7.3-18.8,18.2s5.6,20.6,14.9,21.6s17.7-7.3,18.8-18.2S217.5,171.6,208.3,170.7L208.3,170.7z"/>
		<path class="penguin_surgeon_crown-st13" d="M213.5,178.3c1.4,2.9,1.9,6.2,1.6,9.4c-0.8,8.2-6.7,14.4-13.2,13.7c-2.1-0.2-4.1-1.1-5.7-2.6
			c1.8,3.7,5,6.3,8.7,6.7c6.5,0.6,12.4-5.5,13.3-13.7C218.6,186.2,216.7,181.2,213.5,178.3z"/>
		<path class="penguin_surgeon_crown-st12" d="M317,219.6c-7.9-0.8-13.5-9.2-12.6-18.8s8.1-16.8,16-16s13.5,9.2,12.6,18.8
			C332.1,213.2,324.9,220.4,317,219.6z"/>
		<path d="M320.2,187.4c6.5,0.6,11.1,7.8,10.3,16.1c-0.8,8.2-6.7,14.4-13.2,13.7s-11.1-7.8-10.3-16.1S313.7,186.7,320.2,187.4
			 M320.7,182.3c-9.3-0.9-17.7,7.3-18.8,18.2s5.6,20.6,14.9,21.6s17.7-7.3,18.8-18.2S330,183.3,320.7,182.3L320.7,182.3z"/>
		<path class="penguin_surgeon_crown-st13" d="M325.9,190c1.4,2.9,1.9,6.2,1.6,9.4c-0.8,8.2-6.7,14.4-13.3,13.7c-2.1-0.2-4.1-1.1-5.7-2.6
			c1.8,3.7,5,6.3,8.7,6.7c6.5,0.6,12.4-5.5,13.2-13.7C331,197.9,329.1,192.9,325.9,190z"/>
		<path class="penguin_surgeon_crown-st14" d="M202,180.3L202,180.3c1.9,0,3.5,1.6,3.5,3.5c0,0,0,0,0,0l0,0c0,1.9-1.6,3.5-3.5,3.5l0,0
			c-1.9,0-3.5-1.6-3.5-3.5c0,0,0,0,0,0l0,0C198.5,181.8,200,180.3,202,180.3L202,180.3z"/>
		<path class="penguin_surgeon_crown-st14" d="M258.5,186.5L258.5,186.5c1.9,0,3.5,1.6,3.5,3.5l0,0c0,1.9-1.6,3.5-3.5,3.5l0,0c-1.9,0-3.5-1.6-3.5-3.5l0,0
			C255,188.1,256.6,186.5,258.5,186.5z"/>
		<path class="penguin_surgeon_crown-st14" d="M313,193.7L313,193.7c1.9,0,3.5,1.6,3.5,3.5l0,0v0l0,0c0,1.9-1.6,3.5-3.5,3.5h0c-1.9,0-3.5-1.6-3.5-3.5l0,0
			l0,0C309.6,195.2,311.1,193.7,313,193.7L313,193.7L313,193.7z"/>
		<path class="penguin_surgeon_crown-st14" d="M370.1,198.1L370.1,198.1c1.9,0,3.5,1.6,3.5,3.5l0,0c0,1.9-1.6,3.5-3.5,3.5l0,0c-1.9,0-3.5-1.6-3.5-3.5l0,0
			C366.6,199.7,368.1,198.1,370.1,198.1z"/>
		<path class="penguin_surgeon_crown-st14" d="M425.9,205.6L425.9,205.6c1.9,0,3.5,1.6,3.5,3.5c0,0,0,0,0,0l0,0l0,0c0,1.9-1.6,3.5-3.5,3.5c0,0,0,0,0,0l0,0
			c-1.9,0-3.5-1.6-3.5-3.5c0,0,0,0,0,0l0,0l0,0C422.4,207.2,424,205.6,425.9,205.6C425.9,205.6,425.9,205.6,425.9,205.6L425.9,205.6
			z"/>
		<path class="penguin_surgeon_crown-st11" d="M260.2,108.6c-0.5,1.4-0.4,2.9,0,4.3c0.5,1.4,1.8,2.4,3.3,2.5c1.7,0,3.1-1.5,3.8-3.1s0.9-3.3,1.5-4.9
			c1.1-2.8,3.4-4.9,6.3-5.7c0.5-0.1,0.9-0.3,1.2-0.7c0.4-0.8-0.6-1.6-1.5-1.9C268.9,97.6,261.8,102.9,260.2,108.6z"/>
		<path class="penguin_surgeon_crown-st11" d="M299.2,65c-0.9,2.7-0.8,5.6,0.1,8.3c1,2.6,3.5,4.8,6.4,4.8c3.3,0,6-2.8,7.3-5.9c1.3-3,1.7-6.4,2.9-9.5
			c2.2-5.3,6.6-9.4,12.1-11c0.9-0.1,1.8-0.6,2.3-1.3c0.9-1.6-1.2-3.2-2.9-3.6C315.8,43.9,302.2,54,299.2,65z"/>
		<path class="penguin_surgeon_crown-st9" d="M398.6,153.4c0,0,20.7,1.2,37.8,3.7h0.1c1.3,0.2,10.6,1.3,15.6-5.4c6.8-9.2,1.6-18.2-2.2-21.6
			c-0.9-0.8-2.1-1-3.2-0.6c-1.1,0.4-1.8,1.5-1.9,2.6c0,0-0.2,3.8-2.8,5.6c-2,1.4-5.1,1.4-9.1,0.1c-3.7-1.3-6.3-4.7-6.6-8.6
			c-0.2-4.5,1.5-9,4.7-12.2c3.1-3.1,7.1-5.1,11.4-5.9c9.1-1.8,18.6,0.8,25.6,6.9c2.3,1.9,4.2,4.2,5.5,6.9c0.1,0.2,0.1,0.4,0.2,0.5
			l0.2,0.6c0.5,1.3,1.7,2.1,3.1,2c1.4-0.1,2.5-1.1,2.8-2.4c0.6-2.9,1.1-5.7,1.5-8.3c0.2-1.5,0.5-2.8,0.7-4.1c1-5.3-0.9-9.9-2.7-14.3
			c-2.9-7.1-5.8-14.4,2-27c8.3-13.4,18-14.8,28.3-16.2c5.2-0.7,10.5-1.5,15.3-4c2.7-1.4,4.9-2.5,6.8-3.3
			c-10.1,14.6-31.9,46.7-39.5,62.3c-8.4,17.3-11.4,37.1-12.5,44.6c-0.2,1.3-0.4,2.3-0.4,2.7c-0.1,0.2-0.1,0.5-0.1,0.7l-2.6,26.5
			l-86.9-8.5L398.6,153.4z"/>
		<path d="M542.1,41.3c-0.4-1-1.4-1.7-2.4-1.8h-0.1c-1.1-0.1-14.9,3.6-18,4.6c-2.6,0.9-5.3,1.6-8,2.1c-3.5,0.6-7,1-10.6,1.2
			c-12.6,1-27,2.1-38.4,20.1c-9.6,15.2-5.7,24.8-2.5,32.5c1.3,3,2.3,5.8,2.5,8.5c-5.9-3-12.5-4.3-19.1-3.9
			c-5.4-1.5-11.1-1.7-16.6-0.7c-5.6,1-10.8,3.6-14.8,7.6c-4.5,4.4-6.8,10.6-6.4,16.9c0.5,6.5,4.9,12,11,13.9
			c3.5,1.2,7.3,1.5,10.9,0.7c0.4,0.2,0.9,0.4,1.3,0.5c1.9,0.6,3.8,0.9,5.7,1.1c-0.4,0.8-0.8,1.6-1.4,2.3c-1.6,2.1-5.4,3.1-10.9,2.9
			l-35.9-3.5c-11.7-1.2-15-4.2-16-5.9c-2.3-4.2-1.1-7.5,0.7-9.7c0.5,1.6,1.4,3,2.6,4.3c3.4,3.6,8.8,5.1,16.2,4.5
			c6.8-0.5,12.6-4.9,14.8-11.4c1.8-5.8,0.5-12.6-3.6-18.1c-3.3-4.4-8.3-8-14.6-10.4c-7.9-2.9-16.4-3.6-24.7-2
			c8.5-5,16.5-10.6,17.5-20.8c2.2-21.5-12.1-29.6-22.6-35.4c-3.4-1.9-6.7-3.7-8.6-5.7c-5.6-5.5-8.8-14.3-9.9-17.7c0,0-0.6-2.8-1-2.5
			c-0.3-0.4-1.5,2.3-1.5,2.3c-1.8,3.2-6.6,11.1-13.1,15.4c-2.3,1.5-5.8,2.7-9.6,3.9c-11.4,3.7-27,8.8-29,30.3
			c-1,10.2,5.7,17.3,13.1,23.8c-7.8-3.2-16.3-4.2-24.6-2.8c-6.6,1.1-12.2,3.6-16.3,7.3c-5.1,4.6-7.7,10.9-7,17
			c0.9,6.7,5.7,12.3,12.3,14c7.1,2,12.8,1.6,16.8-1.3c1.4-1,2.5-2.2,3.4-3.7c1.3,2.5,1.9,5.9-1.2,9.6c-1.3,1.5-5.1,3.8-16.8,2.7
			l-35.9-3.5c-5.5-1-9-2.7-10.1-5c-0.4-0.8-0.7-1.7-0.9-2.5c1.9,0.3,3.9,0.3,5.8,0.1c0.5-0.1,0.9-0.2,1.4-0.3
			c3.4,1.5,7.2,2,10.8,1.5c6.4-0.8,11.8-5.3,13.5-11.5c1.6-6.1,0.5-12.6-3-17.8c-3.2-4.7-7.8-8.3-13.1-10.3
			c-5.2-2.1-10.8-3-16.4-2.6c-6.4-1.7-13.1-1.7-19.5,0.1c0.7-2.7,2.3-5.1,4.1-7.9c4.6-6.9,10.4-15.5,3.9-32.3
			c-7.7-19.9-21.5-23.8-33.7-27.2c-3.4-0.9-6.8-2-10.1-3.3c-2.6-1.1-5-2.3-7.5-3.6c-2.8-1.6-15.7-7.9-16.7-8h-0.1
			c-1.1-0.1-2.1,0.4-2.8,1.3c-0.6,0.9-0.7,2-0.3,3c0.2,0.5,24.4,55,29.9,76.3c4.6,17.7,3.7,37.1,3.4,44.4c-0.1,1.2-0.1,2.1-0.1,2.7
			v0.1l-10,101.9c-0.2,1.7,1.1,3.1,2.7,3.3l154,15.2l2.5,0.2l154,15.2c1.7,0.2,3.2-1,3.3-2.7l0,0l10-101.9v-0.1
			c0.1-0.6,0.2-1.5,0.4-2.7c1.1-7.2,4-26.4,12-42.9c9.6-19.8,43.9-68.5,44.2-69C542.5,43.4,542.6,42.2,542.1,41.3z M469.9,70.7
			c5.7-9,12.1-13.1,18.8-15.1c-5.2,3.3-9.5,7.7-12.6,13c-9.4,15.2-5.6,24.8-2.5,32.4c1.6,3.9,3,7.4,2.3,11c-0.2,1.3-0.5,2.7-0.7,4.2
			c0,0.1,0,0.1,0,0.2c-1-1.1-2.1-2.2-3.2-3.1c-0.4-0.4-0.9-0.7-1.4-1.1c0-0.1,0-0.2,0-0.2c1-5.4-0.9-9.9-2.7-14.3
			C464.8,90.3,461.9,83.4,469.9,70.7L469.9,70.7z M426.6,112.8c-4.4,4.5-6.7,10.6-6.3,16.8c0.2,2.7,1.1,5.3,2.6,7.5
			c-0.7-0.2-1.5-0.3-2.2-0.6c-3.8-1.3-6.4-4.7-6.7-8.7c-0.2-4.5,1.5-9,4.7-12.2l0,0c3.1-3,7-5,11.3-5.8
			C428.7,110.8,427.6,111.8,426.6,112.8z M242.3,98.4L242.3,98.4c2.5,3.8,3.4,8.4,2.3,12.8c-1.1,3.8-4.4,6.7-8.3,7.2
			c-0.7,0.1-1.5,0.1-2.3,0.1c1.9-1.9,3.3-4.3,4-6.9c1.6-6.1,0.5-12.5-2.9-17.8c-0.8-1.2-1.7-2.3-2.7-3.4
			C236.4,92.2,239.9,94.9,242.3,98.4z M200.8,44.2c5.4,13.9,1.2,20.2-3.3,26.9c-2.7,4-5.4,8.1-5.5,13.5v0.2
			c-0.5,0.3-1.1,0.5-1.6,0.8c-1.3,0.7-2.6,1.5-3.7,2.4v-0.2c0-1.5,0.1-2.9,0.1-4.3c0.1-3.7,2.1-6.8,4.4-10.3
			c4.5-6.9,10.2-15.5,3.9-32.3c-2-5.8-5.4-11-9.8-15.2C191.5,29.1,197,34.3,200.8,44.2L200.8,44.2z M469.4,257.2l-151-14.9l-2.5-0.2
			l-151-14.9l0.9-9.2l151,14.9l2.5,0.2l151,14.9L469.4,257.2z M470.8,243l-151-14.9l-2.5-0.2l-151-14.9l5.2-52.8l151,14.9l2.5,0.2
			l151,14.9L470.8,243z M492.1,110.6c-8.4,17.3-11.4,37.1-12.5,44.6c-0.2,1.3-0.3,2.3-0.4,2.7c-0.1,0.2-0.1,0.5-0.1,0.7l-2.6,26.5
			l-151-14.9l-2.5-0.2l-151-14.9l2.6-26.5c0.1-0.2,0.1-0.5,0.1-0.7c0-0.5,0-1.4,0.1-2.8c0.4-7.6,1.3-27.6-3.6-46.2
			c-4.4-16.8-19.5-52.5-26.6-68.9c1.6,1.2,3.6,2.7,6,4.6c4.2,3.4,9.3,5.2,14.2,6.9c9.8,3.4,19,6.7,24.6,21.4
			c5.2,13.9,0.9,20.5-3.3,26.9c-2.6,4-5.3,8.1-5.4,13.5c0,1.3-0.1,2.7-0.1,4.2c-0.1,2.6-0.2,5.5-0.2,8.4c0,1.4,0.9,2.6,2.2,2.9
			c1.3,0.4,2.7-0.2,3.4-1.4l0.3-0.6c0.1-0.2,0.2-0.3,0.3-0.5c1.8-2.4,4.1-4.3,6.7-5.7c8.1-4.6,17.8-5.3,26.4-1.7
			c4.1,1.6,7.6,4.4,10.1,8c2.5,3.8,3.3,8.5,2.2,12.9c-1,3.8-4.2,6.6-8.1,7.2c-4.3,0.5-7.2-0.2-8.9-1.9c-2.2-2.3-1.7-6-1.7-6
			c0.2-1.2-0.4-2.3-1.4-3c-1-0.6-2.3-0.7-3.3,0c-4.4,2.7-11.3,10.4-6.4,20.8c2,4.2,6.8,7,14.4,8.4l48.4,4.8
			c11.2,1.1,18.4-0.5,22.1-4.8c2.6-2.9,4-6.7,3.7-10.6c-0.6-6.6-6.1-11.1-6.4-11.4c-0.9-0.7-2.1-0.9-3.2-0.4c-1,0.5-1.7,1.5-1.8,2.6
			c-0.2,2-1.2,3.8-2.8,5.1c-2.4,1.7-6.3,1.8-11.5,0.3c-4.2-1.1-7.3-4.6-7.9-8.8c-0.4-4.1,1.5-8.7,5.1-11.9c3.8-3.2,8.4-5.2,13.2-5.8
			c10.6-1.7,21.4,1,30,7.4c2.6,1.9,4.8,4.3,6.4,7.1c1.2,2.4,1.9,5.1,2.1,7.8c0.1,1.4,1.3,2.6,2.7,2.7c1.5,0.2,2.9-0.7,3.2-2.1
			c2.2-7,0-14.5-5.9-20.6c-2.5-2.6-5.3-5-8.1-7.4c-8-6.9-14.8-12.8-14-21.3c1.7-17.6,14-21.6,24.9-25.2c4.1-1.3,8.1-2.6,11-4.6
			c3.8-2.7,7.2-6,10-9.8c2,4.3,4.6,8.2,7.9,11.5c2.5,2.5,6.1,4.5,9.9,6.6c10,5.6,21.3,11.9,19.5,29.6c-0.9,8.5-8.8,13-17.9,18.1
			c-3.1,1.8-6.3,3.6-9.3,5.6c-6.9,4.8-10.5,11.7-9.7,19c0.1,1.5,1.3,2.7,2.8,2.7c1.4,0.1,2.8-0.8,3.2-2.1c0.7-2.6,1.9-5.1,3.5-7.2
			c2.1-2.4,4.8-4.4,7.7-5.7c9.7-4.6,20.8-5.1,30.9-1.4c4.6,1.6,8.8,4.5,11.8,8.3c2.9,3.9,3.9,8.7,2.7,12.7c-1.5,4-5.2,6.8-9.5,7.1
			c-5.3,0.4-9.2-0.4-11.2-2.5c-1.3-1.5-1.9-3.5-1.7-5.5c0.2-1.1-0.3-2.3-1.2-2.9c-0.9-0.7-2.2-0.8-3.2-0.2c-0.3,0.1-6.6,3.5-8.5,9.9
			c-1.1,3.8-0.5,7.8,1.5,11.1c2.7,4.9,9.5,7.9,20.7,9l48.4,4.8c7.7,0.2,13-1.6,15.7-5.4c6.8-9.2,1.6-18.2-2.2-21.6
			c-0.9-0.8-2.1-1-3.2-0.6c-1.1,0.4-1.8,1.5-1.9,2.6c0,0-0.2,3.8-2.8,5.6c-2,1.4-5.1,1.4-9.1,0.1c-3.7-1.3-6.3-4.7-6.6-8.6
			c-0.2-4.5,1.5-9,4.7-12.2c3.1-3.1,7.1-5.1,11.4-5.9c9.1-1.8,18.6,0.8,25.6,6.9c2.3,1.9,4.2,4.2,5.5,6.9c0.1,0.2,0.1,0.4,0.2,0.5
			l0.2,0.6c0.5,1.3,1.7,2.1,3.1,2c1.4-0.1,2.5-1.1,2.8-2.4c0.6-2.9,1.1-5.7,1.5-8.3c0.2-1.5,0.5-2.8,0.7-4.1c1-5.3-0.9-9.9-2.7-14.3
			c-2.9-7.1-5.8-14.4,2-27c8.3-13.4,18-14.8,28.3-16.2c5.2-0.7,10.5-1.5,15.3-4c2.7-1.4,4.9-2.5,6.8-3.3
			C521.5,62.9,499.7,95,492.1,110.6L492.1,110.6z M214.6,128.8c-3.5-1-5.8-2.4-6.7-4.2c-1.6-2.9-1.5-6.4,0.2-9.2
			c0.6,1.5,1.4,2.9,2.5,4.1c0.6,0.6,1.2,1.1,1.9,1.5c0,2.6,0.5,5.1,1.7,7.4C214.4,128.5,214.5,128.7,214.6,128.8L214.6,128.8z
			 M439.9,151c0.1-0.1,0.3-0.3,0.4-0.4c1.6-2,2.6-4.4,3.1-6.9c0.8-0.3,1.5-0.7,2.2-1.1c1.3-0.9,2.4-2.1,3.3-3.5
			c1.1,3.1,0.5,6.5-1.6,9C446,149.8,443.5,150.7,439.9,151L439.9,151z"/>
	</g>
</g>
</svg>
