<svg id="Layer_1" data-name="Layer 1" xmlns="http://www.w3.org/2000/svg" viewBox="0 0 510.85906 604.10103"><defs><style>.cls-1{fill:#36cea6;}.cls-2{fill:#fff;}.cls-3{fill:#28ad87;}.cls-4{fill:#eefffd;}.cls-5{fill:#c0e2dc;}.cls-6{fill:#fdfffe;}.cls-7{fill:#e9f4f2;}</style></defs><path class="cls-1" d="M51.828,678.88151c-7.6696-7.053-20.05857-15.72256-27.529-3.52932.52913,4.88549-.09818,14.044-3.24409,18.053-36.86224-1.62049.83192,50.55978,4.66319,64.91751,8.23531,11.55835,27.85815,31.22326,39.4883,39.37744,72.28631,12.716,69.44408-63.18134,35.85266-105.08744C90.69249,676.75624,54.08968,638.75194,51.828,678.88151Z" transform="translate(0 -215.93552)"/><path class="cls-2" d="M115.46972,449.60389c16.8833,15.34736,45.49469,19.244,66.10254,8.412l45.13885,11.63934a85.28552,85.28552,0,0,0,4.09918-63.13354l-15.72363,4.35144c6.82581-47.67389-46.89063-84.15191-88.63068-60.80359a186.60909,186.60909,0,0,1,69.8432-90.44824c103.19367-22.71981,199.55292,49.727,198.16944,159.97477-.17517,40.37165-22.33148,74.56018-47.54346,105.076,4.488-5.43408,8.87958-10.98425,13.06781-16.66492a169.40322,169.40322,0,0,1-238.7341,20.02335q-2.95267-2.49568-5.78915-5.12418Z" transform="translate(0 -215.93552)"/><path class="cls-3" d="M120.25976,730.1161c.36969,17.55585-5.75866,32.62927-18.282,40.4765-23.3,14.6-59.8-1.2-81.5-35.3A173.70959,173.70959,0,0,1,5.02825,705.09157c-.39423,15.89,18.06891,43.40911,20.68982,53.23107,8.23535,11.55835,27.85815,31.22327,39.48834,39.37745C118.66173,807.10353,131.02611,768.0489,120.25976,730.1161Z" transform="translate(0 -215.93552)"/><circle cx="307.92734" cy="181.32323" r="58.52502"/><path class="cls-4" d="M494.7564,418.51C486.565,673.46309,486.565,673.5475,486.565,673.66694a100.32857,100.32857,0,0,1-6.41961,35.71521c-13.45734,34.41242-47.65528,54.535-81.362,65.49787.254-.4162.54071-.8913.85-1.4093a52.36188,52.36188,0,0,1-15.21759,3.45507c-30.26782,41.44782-71.58825,40.1048-82.7312,11.0174-1.82111-.21045-3.63519-.455-5.43274-.77-1.91711-.188-3.83453-.37372-5.75006-.57727a55.60341,55.60341,0,0,0,1.66052,5.45972c-69.07672,2.765-133.05145-6.86426-150.55749-13.44025a99.63215,99.63215,0,0,1-13.76019-5.94843c11.17474-38.15765-17.29377-88.24377-51.975-113.89746,8.94745-38.08777,41.547-68.801,80.14238-75.42578a5.39878,5.39878,0,0,0,4.36658-6.26315v0l-.00037-.00189c-2.18536-12.27454-38.451,6.3305-44.90856,10.35528v-51.192A179.25912,179.25912,0,0,0,322.579,552.72859q.73471-.82755,1.47278-1.65851,2.002-2.254,4.02466-4.53631-2.01957,2.2791-4.02466,4.53631c-32.31568,36.38672-60.22266,67.80939-41.94843,99.218,19.36609,28.14972,71.667-1.3811,103.28907-17.23627l12.30639-6.89325c29.57-17.01739,53.67658-34.02423,55.7912-35.52362,5.72333-4.10083-.465-12.8855-6.25806-8.80292-12.22,8.67633-33.50012,22.68873-56.57318,35.86091a5.26452,5.26452,0,0,0-1.09515.624c-33.648,19.12152-70.88556,36.23907-89.58691,32.21014-4.036-.8789-6.82734-2.72815-8.536-5.66717-14.34375-24.65155,9.9422-51.9961,40.68988-86.618,33.24988-37.44318,70.69391-79.76166,72.94391-134.02973h.19513c-.01434-.38238.0224-4.96954,0-5.20221.77137-105.51513-83.03561-181.78662-184.616-173.5567C348.694,185.57136,498.57622,274.05781,494.7564,418.51Z" transform="translate(0 -215.93552)"/><path class="cls-4" d="M494.7564,418.51C486.565,673.46309,486.565,673.5475,486.565,673.66694a100.32857,100.32857,0,0,1-6.41961,35.71521c-13.45734,34.41242-47.65528,54.535-81.362,65.49787.254-.4162.54071-.8913.85-1.4093a52.36188,52.36188,0,0,1-15.21759,3.45507c-30.26782,41.44782-71.58825,40.1048-82.7312,11.0174-1.82111-.21045-3.63519-.455-5.43274-.77-1.91711-.188-3.83453-.37372-5.75006-.57727a55.60341,55.60341,0,0,0,1.66052,5.45972c-69.07672,2.765-133.05145-6.86426-150.55749-13.44025a99.63215,99.63215,0,0,1-13.76019-5.94843c11.17474-38.15765-17.29377-88.24377-51.975-113.89746,8.94745-38.08777,41.547-68.801,80.14238-75.42578a5.39878,5.39878,0,0,0,4.36658-6.26315v0l-.00037-.00189c-2.18536-12.27454-38.451,6.3305-44.90856,10.35528v-51.192A179.25912,179.25912,0,0,0,322.579,552.72859q.73471-.82755,1.47278-1.65851,2.002-2.254,4.02466-4.53631-2.01957,2.2791-4.02466,4.53631c-32.31568,36.38672-60.22266,67.80939-41.94843,99.218,19.36609,28.14972,71.667-1.3811,103.28907-17.23627l12.30639-6.89325c29.57-17.01739,53.67658-34.02423,55.7912-35.52362,5.72333-4.10083-.465-12.8855-6.25806-8.80292-12.22,8.67633-33.50012,22.68873-56.57318,35.86091a5.26452,5.26452,0,0,0-1.09515.624c-33.648,19.12152-70.88556,36.23907-89.58691,32.21014-4.036-.8789-6.82734-2.72815-8.536-5.66717-14.34375-24.65155,9.9422-51.9961,40.68988-86.618,33.24988-37.44318,70.69391-79.76166,72.94391-134.02973h.19513c-.01434-.38238.0224-4.96954,0-5.20221.77137-105.51513-83.03561-181.78662-184.616-173.5567C348.694,185.57136,498.57622,274.05781,494.7564,418.51Z" transform="translate(0 -215.93552)"/><path class="cls-5" d="M405.08648,409.03035h.18316c-.01434-.38239.0224-4.96955,0-5.20221.6659-91.097-61.7149-160.38568-144.14428-172.32739a202.32629,202.32629,0,0,0-40.47174,13.95251C319.00219,237.48518,400.68816,308.72786,405.08648,409.03035Z" transform="translate(0 -215.93552)"/><path class="cls-5" d="M277.01354,621.81862c4.00024-22.28388,24.4389-45.30219,47.03821-70.74854q-.738.831-1.47278,1.65851A179.39927,179.39927,0,0,1,300.458,563.95c-.22534.09528-.453.18274-.67859.2771C283.87291,584.35188,273.41546,603.20942,277.01354,621.81862Z" transform="translate(0 -215.93552)"/><path class="cls-5" d="M486.565,658.48506a100.32857,100.32857,0,0,1-6.41961,35.71521c-13.45734,34.41241-47.65528,54.535-81.362,65.49786.254-.4162.54071-.89129.85-1.4093a52.36157,52.36157,0,0,1-15.21759,3.45508c-30.26782,41.44781-71.58825,40.1048-82.7312,11.01739-1.82111-.21044-3.63519-.455-5.43274-.77-1.91711-.188-3.83453-.37372-5.75006-.57728a55.60259,55.60259,0,0,0,1.66052,5.45972c-69.07672,2.765-133.05145-6.86426-150.55749-13.44025a99.61185,99.61185,0,0,1-11.40863-4.77014,61.98229,61.98229,0,0,1-2.35156,14.0036,99.63215,99.63215,0,0,0,13.76019,5.94843c17.506,6.576,81.48077,16.20526,150.55749,13.44025a55.60341,55.60341,0,0,1-1.66052-5.45972c1.91553.20355,3.833.38922,5.75006.57727,1.79755.31494,3.61163.55951,5.43274.77,11.14295,29.0874,52.46338,30.43042,82.7312-11.0174a52.36188,52.36188,0,0,0,15.21759-3.45507c-.30932.518-.59607.9931-.85,1.4093,33.70672-10.96289,67.90466-31.08545,81.362-65.49787a100.32857,100.32857,0,0,0,6.41961-35.71521c0-.11944,0-.20385,8.19141-255.157q.172-6.50574-.07477-12.8545C486.56536,658.27058,486.565,658.366,486.565,658.48506Z" transform="translate(0 -215.93552)"/><path class="cls-5" d="M79.66558,646.51735a94.36938,94.36938,0,0,0-3.7959,12.25219c27.29425,20.18958,50.735,55.51123,54.03748,88.24231C133.72417,712.0536,109.53936,670.46626,79.66558,646.51735Z" transform="translate(0 -215.93552)"/><g id="Layer_3" data-name="Layer 3"><path d="M348.26659,642.82222a60.57252,60.57252,0,0,0-16.498-36.46485,59.83759,59.83759,0,0,0-28.88282-16.49707l2.60938-10.68554a70.81306,70.81306,0,0,1,34.1875,19.54394,71.6329,71.6329,0,0,1,19.541,43.123Z" transform="translate(0 -215.93552)"/><path class="cls-1" d="M304.89892,590.394a59.644,59.644,0,0,1,26.86962,15.96337,60.2827,60.2827,0,0,1,16.1059,33.154c-19.38708,8.40875-36.86749,13.392-47.89777,11.01574-4.036-.8789-6.82733-2.72815-8.536-5.66717C281.84514,628.36867,289.54943,610.66816,304.89892,590.394Z" transform="translate(0 -215.93552)"/></g><path d="M450.24859,276.00764c-65.63153-69.764-181.58289-79.44421-259.79767-25.47247a197.17325,197.17325,0,0,0-78.84668,110.66571c-19.67175,18.70221-23.07,54.14185-6.93457,76.35852v93.79425c-7.27558,8.10614-37.735,45.70752-26.65369,93.98584a111.36316,111.36316,0,0,0-12.27392,29.41c-8.97022-1.94775-17.10883,5.35285-18.5669,12.90589-16.72833-11.9455-32.45727.63574-28.99689,19.41327a14.69868,14.69868,0,0,0-13.45074,4.61957c-15.88361,17.17736,13.071,64.2164,16.425,69.525,24.58458,39.41748,77.09032,63.30359,102.67558,21.51831a109.97793,109.97793,0,0,0,14.15564,6.05829c14.683,7.43884,107.6073,17.93194,159.63752,13.83838,23.42419,32.87512,69.34637,13.88659,90.76111-13.28382,56.0888-14.36548,110.18353-52.02447,108.98266-115.52264.04218-1.51874,8.19141-254.96014,8.19141-254.96722A194.8582,194.8582,0,0,0,450.24859,276.00764ZM115.46972,449.60389c16.8833,15.34736,45.49469,19.244,66.10254,8.412l45.13885,11.63934a85.28552,85.28552,0,0,0,4.09918-63.13354l-15.72363,4.35144c6.82581-47.67389-46.89063-84.15191-88.63068-60.80359a186.60909,186.60909,0,0,1,69.8432-90.44824c103.19367-22.71981,199.55292,49.727,198.16944,159.97477-.17517,40.37165-22.33148,74.56018-47.54346,105.076,4.488-5.43408,8.87958-10.98425,13.06781-16.66492a169.40322,169.40322,0,0,1-238.7341,20.02335q-2.95267-2.49568-5.78915-5.12418Zm37.08984-10.21813,70.45306-19.5047a71.86,71.86,0,0,1-2.7492,36.95623ZM104.66967,549.16725v45.82709c-3.02008,2.612-6.22888,5.14361-8.99208,8.01031a112.13644,112.13644,0,0,0-8.78729,9.72424C84.21227,585.42744,95.78832,562.3658,104.66967,549.16725Zm-.73828,239.97394c-20.62964,13.05-53.65546-2.09534-73.65235-33.70081-16.2077-24.3009-30.72-68.13342-7.69922-55.09689,4.09217,3.34051,10.3238-1.26508,8.367-6.14557-6.834-20.38715,2.15985-27.50079,16.80511-11.76965,3.31787,4.05218,10.35694.822,9.42163-4.33167-1.39856-29.8327,27.38587-2.64636,47.89655,30.05127C125.06029,739.77479,124.54705,776.1053,103.93139,789.14119ZM494.7564,418.51C486.565,673.46309,486.565,673.5475,486.565,673.66694a100.32857,100.32857,0,0,1-6.41961,35.71521c-13.45734,34.41242-47.65528,54.535-81.362,65.49787.254-.4162.54071-.8913.85-1.4093a52.36188,52.36188,0,0,1-15.21759,3.45507c-30.26782,41.44782-71.58825,40.1048-82.7312,11.0174-1.82111-.21045-3.63519-.455-5.43274-.77-1.91711-.188-3.83453-.37372-5.75006-.57727a55.60341,55.60341,0,0,0,1.66052,5.45972c-69.07672,2.765-133.05145-6.86426-150.55749-13.44025a99.63215,99.63215,0,0,1-13.76019-5.94843c11.17474-38.15765-17.29377-88.24377-51.975-113.89746,8.94745-38.08777,41.547-68.801,80.14238-75.42578a5.39878,5.39878,0,0,0,4.36658-6.26315v0l-.00037-.00189c-2.18536-12.27454-38.451,6.3305-44.90856,10.35528v-51.192A179.25912,179.25912,0,0,0,322.579,552.72859q.73471-.82755,1.47278-1.65851,2.002-2.254,4.02466-4.53631-2.01957,2.2791-4.02466,4.53631c-32.31568,36.38672-60.22266,67.80939-41.94843,99.218,19.36609,28.14972,71.667-1.3811,103.28907-17.23627l12.30639-6.89325c29.57-17.01739,53.67658-34.02423,55.7912-35.52362,5.72333-4.10083-.465-12.8855-6.25806-8.80292-12.22,8.67633-33.50012,22.68873-56.57318,35.86091a5.26452,5.26452,0,0,0-1.09515.624c-33.648,19.12152-70.88556,36.23907-89.58691,32.21014-4.036-.8789-6.82734-2.72815-8.536-5.66717-14.34375-24.65155,9.9422-51.9961,40.68988-86.618,33.24988-37.44318,70.69391-79.76166,72.94391-134.02973h.19513c-.01434-.38238.0224-4.96954,0-5.20221.77137-105.51513-83.03561-181.78662-184.616-173.5567C348.694,185.57136,498.57622,274.05781,494.7564,418.51ZM346.8474,524.76655q-4.4013,5.32453-8.894,10.50373Q342.43229,530.08858,346.8474,524.76655ZM337.59765,535.682q-4.35306,5.02772-8.705,9.92981Q333.233,540.70765,337.59765,535.682Z" transform="translate(0 -215.93552)"/><circle class="cls-2" cx="286.83115" cy="163.62959" r="19.05466"/><circle class="cls-2" cx="133.05736" cy="169.33617" r="19.74339"/><g id="x"><g id="color-3"><path class="cls-4" d="M104.66969,549.16725v45.82706c-3.02011,2.612-6.22889,5.14361-8.99209,8.01034a112.14546,112.14546,0,0,0-8.7873,9.72421C84.21227,585.42741,95.78835,562.3658,104.66969,549.16725Z" transform="translate(0 -215.93552)"/></g></g><path class="cls-1" d="M309.222,720.99083c-21.7,34.1-20.5,73.7,2.8,88.3s59.8-1.2,81.5-35.3c13.9-21.8,26.8-52.5,17.1-62.9-6.8-7.3-17.3.7-17.3.7s7.4-19.8-2.7-26.2-23.4,9-23.4,9,2.4-16.2-9.1-18.8C345.022,672.89085,323.522,698.49083,309.222,720.99083Z" transform="translate(0 -215.93552)"/><path class="cls-3" d="M393.322,690.88869s.43042-.32618,1.16467-.784a11.74386,11.74386,0,0,0-.55621-1.06C393.57854,690.20155,393.322,690.88869,393.322,690.88869Z" transform="translate(0 -215.93552)"/><path class="cls-3" d="M393.522,753.08864c-21.7,34.1-58.2,49.9-81.5,35.3-9.6532-6.04876-15.50042-16.39544-17.51007-28.85754-3.07135,21.4256,2.826,40.55853,17.51007,49.7597,23.3,14.6,59.8-1.2,81.5-35.3,13.05561-20.47577,25.22583-48.80024,18.619-60.78369C408.77923,725.87208,401.30883,740.87617,393.522,753.08864Z" transform="translate(0 -215.93552)"/><path d="M331.522,819.99086a41.17177,41.17177,0,0,1-22.4-6.2c-12.8-8.1-20.2-22.7-20.8-41.2-.6-17.7,5.2-37.1,16.3-54.5h0c10-15.7,35.3-51.8,54.7-47.5,7.4,1.7,11,7.1,12.6,12.9,6.4-4.3,14.5-6.9,21.6-2.4,7.8,4.9,8.5,14.3,7.5,21.7a14.58748,14.58748,0,0,1,13.5,4.6c15.9,17.1-13.1,64.1-16.5,69.4C380.822,803.89082,354.522,819.99086,331.522,819.99086Zm-17.8-96.1c-9.9,15.6-15.1,32.8-14.6,48.4.5,14.9,6.1,26.4,15.8,32.5,20.7,13,54-2.1,74.1-33.7,15.7-24.7,23.6-50,17.7-56.4-3.3-3.6-10,1.3-10,1.3a5.55431,5.55431,0,0,1-6.5,0,5.36017,5.36017,0,0,1-1.9-6.1c1.9-5.2,4.3-16.8-.5-19.8-5.1-3.2-14.3,5.5-16.5,8a5.41354,5.41354,0,0,1-9.4-4.3c0-.1,1.5-11.3-5-12.8-6.8-1.4-24.2,13-43.2,42.9Z" transform="translate(0 -215.93552)"/><g id="Layer_2" data-name="Layer 2"><path class="cls-6" d="M339.09893,505.44108c.07123,6.35382-3.78681,9.92817-9.15619,11.44214-42.86121,12.08542-90.94945,20.19513-133.93475,15.07727-28.97966-3.45035-47.72463-6.15884-74.82524-12.31433-6.41388-1.45682-10.97942-3.5292-13.24224-13.76755-6.01061-27.19555-3.4366-41.88052-1.10646-69.15731.43862-5.13446,2.82824-5.46712,6.15189-7.08518a1.75057,1.75057,0,0,1,.73343-.02325c13.17627.94406,31.218-2.31046,42.69557-4.787C176.74111,420.44,189.741,411.69815,209.56168,410.308c23.74925-1.66571,42.29265,8.27155,66.7289,13.58875,13.31189,2.89657,34.67944,6.16421,50.41611,6.05325,5.58633-.03935,11.71633,4.38293,12.46267,10.54358a7.459,7.459,0,0,1,.14853,1.08243C339.46837,462.63337,338.86587,484.64934,339.09893,505.44108Z" transform="translate(0 -215.93552)"/><path class="cls-7" d="M113.30275,430.0421c14.94144-1.38913,29.38706-1.37049,41.99668,7.52383,21.88823,4.75974,43.45079,10.64151,65.12555,16.2609,3.45608,30.84744-13.93367,58.39068-38.55557,75.37811-19.90755-4.40823-40.05309-6.62128-60.18573-9.60471a58.37774,58.37774,0,0,0-8.59308-4.71615c-5.80407-31.12668-6.93367-44.10181-6.33249-75.41254a67.90563,67.90563,0,0,0,6.54464-9.42944" transform="translate(0 -215.93552)"/><path d="M213.13332,538.81309c-7.00961-.40155-12.72949-.75064-18.44678-1.55526-25.63556-3.60779-48.55328-6.31241-74.15931-12.3328-8.22745-1.93442-15.298-5.77579-17.972-19.09-5.27221-26.25086-3.372-42.42078-.80652-68.851.87195-8.98281,4.60559-10.43894,11.10516-13.02182.4-.15894.81828.0596,1.21284.07126,14.73107.43551,27.819-1.39716,42.3594-4.709a202.67962,202.67962,0,0,0,26.41539-8.31574c7.93838-2.9603,17.22049-5.64151,26.52188-6.25226,12.58064-.82611,25.47053,1.71366,37.31564,5.39629,10.27626,3.19485,19.71855,6.12817,29.74391,8.36688a241.07075,241.07075,0,0,0,50.027,6.10535,18.54242,18.54242,0,0,1,18.31876,15.55121,7.06848,7.06848,0,0,1,.15024,1.566c-.1406,20.8201-.37967,43.1127-.43787,63.58887-.02606,9.16263-4.96231,14.55853-13.07962,16.80816C293.17559,532.73311,252.717,541.08061,213.13332,538.81309ZM113.36468,435.24156c-.49749-.125-.9318.78506-.94784,1.02927h0c-1.84365,28.05761-5.44657,41.23593.984,69.62329,1.5447,6.81891,4.38,7.693,8.49877,8.59878,26.87822,5.911,46.1342,8.66028,74.93312,12.11838,42.66762,5.12338,89.587-3.26,132.05177-14.8923,2.83353-.77619,5.05942-2.57688,4.98712-6.02671-.44171-21.07275.67426-43.08764.23853-64.19522-.08319-4.03146-3.09839-5.24115-6.23758-6.16261a2.29005,2.29005,0,0,0-.58209-.0347,266.97151,266.97151,0,0,1-52.3591-6.35086c-10.33353-2.24129-20.83762-5.3996-31.00339-8.58728-11.16029-3.49957-22.241-5.644-33.7637-4.9453-8.52532.517-16.42282,3.07938-23.80365,5.79047a227.66753,227.66753,0,0,1-28.222,8.66742,193.95874,193.95874,0,0,1-44.51542,5.2489C113.58,435.1345,113.4476,435.2624,113.36468,435.24156Z" transform="translate(0 -215.93552)"/><path d="M345.19512,468.59858c-10.70371,1.27378-6.61191-1.65844-7.86932-4.32565-1.04786-2.22268.58493-3.84454,3.813-4.59765,54.24851-12.65586,108.18442-31.72443,162.59458-44.82129,3.904-.93973,4.662,1.31857,6.6416,3.89154s-2.55884,5.98343-5.55634,6.81784c-41.437,11.53454-122.74295,36.0657-153.72219,42.08587S346.62221,468.42875,345.19512,468.59858Z" transform="translate(0 -215.93552)"/></g></svg>