<?xml version="1.0" encoding="utf-8"?>
<!-- Generator: Adobe Illustrator 24.0.0, SVG Export Plug-In . SVG Version: 6.00 Build 0)  -->
<svg version="1.1" id="PefiDoctor" xmlns="http://www.w3.org/2000/svg" xmlns:xlink="http://www.w3.org/1999/xlink" x="0px" y="0px"
	 viewBox="0 0 513.9 604.1" style="enable-background:new 0 0 513.9 604.1;" xml:space="preserve">
<style type="text/css">
	.penguin_doctor_no_crown-st0{fill:#2D2D2D;}
	.penguin_doctor_no_crown-st1{fill:#E5C333;}
	.penguin_doctor_no_crown-st2{fill:#FFFFFF;}
	.penguin_doctor_no_crown-st3{fill:#B6C0D6;}
	.penguin_doctor_no_crown-st4{fill:#E7F0F7;}
	.penguin_doctor_no_crown-st5{fill:#F5FBFF;}
</style>
<g id="Color_2_">
	<path id="Color-4" class="penguin_doctor_no_crown-st0" d="M494.8,202.6c-8.2,255-8.2,255-8.2,255.2c0,12.2-2.1,24.3-6.4,35.7
		c-13.5,34.4-47.7,54.5-81.4,65.5c6.2-10.2,30-51.7,15.3-67.7c-3.4-3.8-8.5-5.5-13.4-4.6c2.1-10.2-3-24.5-15.8-24.1
		c5.5-17.1,9.8-34.6,12.9-52.3c29.6-17,53.7-34,55.8-35.5c5.7-4.1-0.5-12.9-6.3-8.8c-12.2,8.7-33.5,22.7-56.6,35.9
		c-0.4,0.2-0.8,0.4-1.1,0.6c-33.6,19.1-70.9,36.2-89.6,32.2c-4-0.9-6.8-2.7-8.5-5.7c-14.3-24.7,9.9-52,40.7-86.6
		c33.2-37.4,70.7-79.8,72.9-134h0.2c0-0.4,0-5,0-5.2c0.8-105.5-83-181.8-184.6-173.6C348.7-30.4,498.6,58.1,494.8,202.6z"/>
	<path id="Color-5" class="penguin_doctor_no_crown-st0" d="M152.6,223.5l70.5-19.5c2.3,12.3,1.4,25.1-2.7,37L152.6,223.5z"/>
</g>
<g id="Shape">
	<polygon class="penguin_doctor_no_crown-st1" points="367.1,473.3 361.6,461.2 353.6,459.6 341.2,470.6 326.6,480.8 312.5,499.8 301.4,519.5 294.1,546.8 
		296,570.8 306.7,589.2 317.3,596 338.8,598.7 366.1,589.4 392,559.5 407.9,529.1 413.4,504.2 407.3,492.8 394.7,494.4 394.5,474.9 
		384.7,467.9 372.1,470.6 	"/>
	<polygon class="penguin_doctor_no_crown-st1" points="51.8,462.9 40.3,454 31.5,452.7 24.3,459.4 24.3,470.6 21.1,477.5 8.7,479.4 5.4,485.1 5.4,497.6 
		25.7,542.4 43.7,563.9 65.2,581.8 86.8,583.2 106.8,577.8 121.4,559.5 125.1,529.1 117.5,504.2 101.1,476.7 87,459.4 73.6,447.8 
		60.9,444.1 52.3,453.6 	"/>
	<path class="penguin_doctor_no_crown-st2" d="M292.2,576.1c-69.1,2.8-133.1-6.9-150.6-13.4c-4.7-1.6-9.3-3.6-13.8-5.9c11.2-38.2-17.3-88.2-52-113.9
		c8.9-38.1,41.5-68.8,80.1-75.4c2.9-0.5,4.9-3.3,4.4-6.3l0,0c-2.2-12.3-38.5,6.3-44.9,10.4V233.7c16.9,15.3,45.5,19.2,66.1,8.4
		l45.1,11.6c9.4-19.7,10.9-42.3,4.1-63.1L215,195c6.8-47.7-46.9-84.2-88.6-60.8c13.2-36.7,37.7-68.3,69.8-90.4
		c103.2-22.7,199.6,49.7,198.2,160c-0.2,52.4-37.5,94.4-70.4,131.5c-32.3,36.4-60.2,67.8-41.9,99.2c19.4,28.1,71.7-1.4,103.3-17.2
		c-3.3,16.9-7.8,33.6-13.4,49.9c-0.1,0.1-0.2,0.1-0.3,0.2c-15.3-38.4-55.9,15.8-67,34.7C288.6,527.3,284.6,555.7,292.2,576.1z"/>
	<circle cx="307.9" cy="181.3" r="58.5"/>
	<path d="M450.2,60.1C384.6-9.7,268.7-19.4,190.5,34.6C151.9,61,124,100.2,111.7,145.3c-19.7,18.7-23.1,54.1-6.9,76.4v93.8
		c-7.3,8.1-37.7,45.7-26.7,94c-5.5,9.2-9.6,19.1-12.3,29.4c-9-1.9-17.1,5.4-18.6,12.9c-16.7-11.9-32.5,0.6-29,19.4
		c-5-0.9-10.1,0.9-13.5,4.6C-11.2,493,17.8,540,21.1,545.3c24.6,39.4,77.1,63.3,102.7,21.5c4.6,2.3,9.3,4.4,14.2,6.1
		c14.7,7.4,107.6,17.9,159.6,13.8c23.4,32.9,69.3,13.9,90.8-13.3c56.1-14.4,110.2-52,109-115.5c0-1.5,8.2-255,8.2-255
		C507.4,149.7,487.4,98.1,450.2,60.1z M152.6,223.5l70.5-19.5c2.3,12.3,1.4,25.1-2.7,37L152.6,223.5z M104.7,333.2V379
		c-3,2.6-6.2,5.1-9,8c-3.1,3.1-6.1,6.3-8.8,9.7C84.2,369.5,95.8,346.4,104.7,333.2z M103.9,573.2c-20.6,13-53.7-2.1-73.7-33.7
		c-16.2-24.3-30.7-68.1-7.7-55.1c4.1,3.3,10.3-1.3,8.4-6.1c-6.8-20.4,2.2-27.5,16.8-11.8c3.3,4.1,10.4,0.8,9.4-4.3
		c-1.4-29.8,27.4-2.6,47.9,30.1C125.1,523.8,124.5,560.2,103.9,573.2z M292.2,576.1c-69.1,2.8-133.1-6.9-150.6-13.4
		c-4.7-1.6-9.3-3.6-13.8-5.9c11.2-38.2-17.3-88.2-52-113.9c8.9-38.1,41.5-68.8,80.1-75.4c2.9-0.5,4.9-3.3,4.4-6.3l0,0
		c-2.2-12.3-38.5,6.3-44.9,10.4V233.7c16.9,15.3,45.5,19.2,66.1,8.4l45.1,11.6c9.4-19.7,10.9-42.3,4.1-63.1L215,195
		c6.8-47.7-46.9-84.2-88.6-60.8c13.2-36.7,37.7-68.3,69.8-90.4c103.2-22.7,199.6,49.7,198.2,160c-0.2,52.4-37.5,94.4-70.4,131.5
		c-32.3,36.4-60.2,67.8-41.9,99.2c19.4,28.1,71.7-1.4,103.3-17.2c-3.3,16.9-7.8,33.6-13.4,49.9c-0.1,0.1-0.2,0.1-0.3,0.2
		c-15.3-38.4-55.9,15.8-67,34.7C288.6,527.3,284.6,555.7,292.2,576.1L292.2,576.1z M388.5,555c-45.4,70.7-122.2,36-74.8-47.3
		c19.2-30.8,49.2-60.7,47.9-30.1c-0.9,5.2,6.1,8.4,9.4,4.3c2.2-2.5,11.3-11.1,16.3-8c4.7,3,2.3,14.8,0.5,19.8
		c-2,4.9,4.3,9.5,8.3,6.2C419.1,486.6,404.8,530.8,388.5,555z M494.8,202.6c-8.2,255-8.2,255-8.2,255.2c0,12.2-2.1,24.3-6.4,35.7
		c-13.5,34.4-47.7,54.5-81.4,65.5c6.2-10.2,30-51.7,15.3-67.7c-3.4-3.8-8.5-5.5-13.4-4.6c2.1-10.2-3-24.5-15.8-24.1
		c5.5-17.1,9.8-34.6,12.9-52.3c29.6-17,53.7-34,55.8-35.5c5.7-4.1-0.5-12.9-6.3-8.8c-12.2,8.7-33.5,22.7-56.6,35.9
		c-0.4,0.2-0.8,0.4-1.1,0.6c-33.6,19.1-70.9,36.2-89.6,32.2c-4-0.9-6.8-2.7-8.5-5.7c-14.3-24.7,9.9-52,40.7-86.6
		c33.2-37.4,70.7-79.8,72.9-134h0.2c0-0.4,0-5,0-5.2c0.8-105.5-83-181.8-184.6-173.6C348.7-30.4,498.6,58.1,494.8,202.6z"/>
	<circle class="penguin_doctor_no_crown-st2" cx="286.8" cy="163.6" r="19.1"/>
	<circle class="penguin_doctor_no_crown-st2" cx="133.1" cy="169.3" r="19.7"/>
	<g id="Layer_5">
		<rect x="137.6" y="340.6" class="penguin_doctor_no_crown-st3" width="166.4" height="189"/>
		<path d="M299,345.6v179H142.6v-179L299,345.6 M309,335.6H132.6v199H309V335.6z"/>
	</g>
	<path id="Color" class="penguin_doctor_no_crown-st0" d="M223.8,483.9c-3,0.1-5.8-1.4-7.6-3.8l-15-22c-0.3-0.2-0.6-0.3-0.9-0.3h-6.8c-4.9,0-8.9-3.7-8.9-8.2
		V327.4c0-4.5,4-8.1,8.9-8.1h89.7c4.9,0,8.9,3.7,8.9,8.1v122.2c0,4.5-4,8.2-8.9,8.2h-35.8c-0.3,0-0.7,0.1-0.9,0.3l-15,22
		C229.6,482.5,226.8,484,223.8,483.9z"/>
	<path d="M283.1,323.3c2.7,0,4.9,1.9,4.9,4.2v122.2c0,2.3-2.2,4.2-4.9,4.2h-35.8c-1.7,0-3.3,0.7-4.2,2.1l-3.7,5.5l-11.3,16.6
		c-1.8,2.3-5.2,2.8-7.6,0.9c-0.4-0.3-0.7-0.6-0.9-0.9l-11.3-16.6l-3.7-5.5c-1-1.3-2.6-2.1-4.2-2.1h-6.8c-2.7,0-4.9-1.9-4.9-4.2
		V327.4c0-2.3,2.2-4.2,4.9-4.2h89.5 M283.1,315.3h-89.7c-7.1,0-12.9,5.5-12.9,12.2v122.2c0,6.7,5.8,12.2,12.9,12.2h5.4l2.8,4
		l11.3,16.6c4.3,6,12.7,7.4,18.7,3.1c1.2-0.8,2.2-1.9,3.1-3.1l11.3-16.6l2.8-4h34.4c7.1,0,12.9-5.5,12.9-12.2V327.4
		C296.1,320.7,290.3,315.3,283.1,315.3L283.1,315.3z"/>
	<polygon class="penguin_doctor_no_crown-st3" points="219.9,320.7 385.9,298.3 253.3,407.9 	"/>
	<path d="M372.5,304.1L255,401.2L225.5,324L372.5,304.1 M399.2,292.5l-27.8,3.8l-147.1,19.9l-10,1.4l3.6,9.4l29.6,77.2l4,10.4
		l8.6-7.1l117.5-97.1L399.2,292.5z"/>
	<polygon class="penguin_doctor_no_crown-st3" points="142,366.8 126,304.5 225.1,320.7 191.7,407.9 	"/>
	<path d="M131.4,309.4l88.2,14.4L190,401.2l-44.4-36.7L131.4,309.4 M120.6,299.6l3,11.9l14.2,55.1l0.6,2.5l2,1.7l44.4,36.7l8.6,7.1
		l4-10.4l29.6-77.4l3.5-9.2l-9.7-1.6l-88.2-14.4L120.6,299.6L120.6,299.6z"/>
	<path id="Color-2" class="penguin_doctor_no_crown-st0" d="M219.9,316.9h5.9c6.6,0,11.9,5.3,11.9,11.9l0,0v8.8c0,6.6-5.3,11.9-11.9,11.9l0,0h-5.9
		c-6.6,0-11.9-5.3-11.9-11.9l0,0v-8.8C208,322.3,213.3,316.9,219.9,316.9L219.9,316.9z"/>
	<path d="M225.8,320.9c4.4,0,7.9,3.6,7.9,7.9v8.8c0,4.4-3.6,7.9-7.9,7.9h-5.9c-4.4,0-7.9-3.6-7.9-7.9v-8.8c0-4.4,3.6-7.9,7.9-7.9
		H225.8 M225.8,312.9h-5.9c-8.8,0-15.9,7.1-15.9,15.9v8.8c0,8.8,7.1,15.9,15.9,15.9h5.9c8.8,0,15.9-7.1,15.9-15.9v-8.8
		C241.7,320,234.6,312.9,225.8,312.9L225.8,312.9z"/>
	<path class="penguin_doctor_no_crown-st4" d="M104.7,333.2V379c-3,2.6-6.2,5.1-9,8c-3.1,3.1-6.1,6.3-8.8,9.7C84.2,369.5,95.8,346.4,104.7,333.2z"/>
	<path class="penguin_doctor_no_crown-st5" d="M259,543.9c-5.9,0-10.8-4.8-10.8-10.8V379.9c0.1-62.4,50.7-113,113.1-113.1h120.6c5.8,0,11.4,2.3,15.4,6.4
		c4.1,4.1,6.4,9.7,6.4,15.5c-1.4,11.8-3.3,23.2-5.4,35.3c-4.5,27-9.2,54.8-9,85c0.5,37.6,2.9,75.2,7.2,112.6
		c0.6,5.5-1.2,10.9-4.9,14.9c-4.3,4.8-10.5,7.5-16.9,7.5L259,543.9L259,543.9z"/>
	<path class="penguin_doctor_no_crown-st4" d="M503.8,288.6c0-5.8-2.3-11.3-6.4-15.5c-4.1-4.1-9.7-6.4-15.4-6.4h-24c2.4,1.1,4.6,2.6,6.5,4.5
		c4.1,4.1,6.4,9.7,6.4,15.5c-1.4,11.8-3.3,23.2-5.4,35.3c-4.5,27-9.2,54.8-9,85c0.5,37.6,2.9,75.2,7.2,112.6
		c0.6,5.5-1.2,10.9-4.9,14.9c-4.3,4.8-10.5,7.5-16.9,7.5H252.8c1.8,1.3,4,1.9,6.2,1.9h215.8c6.4,0,12.6-2.8,16.9-7.5
		c3.7-4,5.5-9.5,4.9-14.9c-4.3-37.4-6.7-74.9-7.2-112.6c-0.1-30.2,4.5-58.1,9-85C500.5,311.8,502.4,300.4,503.8,288.6z"/>
	<path d="M486.2,272.1c4.4,0,8.7,1.7,11.8,4.8c3.1,3.1,4.9,7.3,4.9,11.6c-4.5,35.5-14.8,75.9-14.7,120.3c0.5,37.8,3,75.6,7.3,113.1
		c1,9-7.5,16.5-16.7,16.5H259.2c-3,0-5.4-2.4-5.5-5.4V379.9c0-59.5,49.1-107.7,109.6-107.7h122.9 M486.2,261.3H363.4
		c-66.5,0-120.6,53.2-120.6,118.5v153.3c0.1,9,7.5,16.2,16.5,16.2h219.6c8.1,0,15.8-3.4,21.3-9.3c4.8-5.1,7.1-12.1,6.4-19.1
		c-4.3-37.2-6.7-74.6-7.3-112.1c-0.1-29.6,4.6-57.3,9.1-84c2.1-12.2,4-23.6,5.4-34.9l0.1-0.7v-0.7c0-7.2-3-14.2-8.1-19.3
		C500.6,264.2,493.5,261.3,486.2,261.3L486.2,261.3z"/>
	<path class="penguin_doctor_no_crown-st2" d="M124.8,543.9v-5.4c-0.1-30.7-22-69.1-52.2-91.4l-2.9-2.1l0.8-3.5c5.8-23.9,19.7-45.1,39.5-59.8V264.9l6.9,2
		c54.5,15.9,82.2,53.6,82.2,112.3v153.9c0,5.9-4.8,10.8-10.8,10.8L124.8,543.9z"/>
	<path class="penguin_doctor_no_crown-st4" d="M154,543v-5.4c-0.1-30.7-22-69.1-52.2-91.4l-2.9-2.1l0.8-3.5c5.8-23.9,19.7-45.1,39.5-59.8V275.4
		c-7.2-3.4-14.6-6.2-22.3-8.4l-6.9-2v116.9c-19.7,14.7-33.7,35.9-39.5,59.8l-0.8,3.5l2.9,2.1c30.1,22.3,52,60.7,52.2,91.4v5.4h63.6
		c1.5,0,2.9-0.3,4.3-0.9L154,543z"/>
	<path d="M115.5,272.1c49.5,14.4,78.3,48,78.3,107.1v153.9c0,3-2.4,5.4-5.4,5.4h-58.2c-0.1-34.7-25-74-54.3-95.7
		c5.5-23.6,20.1-44.3,39.6-58.3v-13.1L115.5,272.1 M104.7,257.8v113.7v7.7c-19.6,15.4-33.5,36.9-39.3,61.2l-1.6,6.9l5.7,4.2
		c28.8,21.3,49.9,58,50,87.1v10.8h69c8.9,0,16.2-7.2,16.2-16.2V379.3c0-61.3-29-100.9-86.1-117.5L104.7,257.8L104.7,257.8z"/>
	<path class="penguin_doctor_no_crown-st5" d="M137.7,339.7l10.1-18.3l-37.8-26v-28l6.5,1.4c47.9,9.9,82.6,56.7,82.6,111.1v39.4L137.7,339.7z"/>
	<path d="M115.5,274c44.5,9.2,78.3,53.1,78.3,105.8v23.5l-49.6-64.2l10.8-19.5l-39.5-27.2L115.5,274 M104.7,260.7v37.5l4.7,3.2
		l31.4,21.6l-6,10.9l-3.4,6.2l4.3,5.6l49.6,64.2l19.3,25v-55.2c0-57-36.6-106-86.9-116.4L104.7,260.7L104.7,260.7z"/>
	<path class="penguin_doctor_no_crown-st2" d="M248.2,379.9c0.1-62.4,50.7-113,113.1-113.1h32.9l-89.5,54.8l11.3,18.2l-67.9,78.1v-38H248.2z"/>
	<path d="M375,272.1l-77.8,47.6l12.1,19.5l-55.8,64.2v-23.5c0-59.5,48.2-107.7,107.7-107.7H375 M413.4,261.3h-52.1
		c-65.4,0.1-118.4,53.1-118.5,118.5v52.4l19-21.8l55.8-64.2l5.2-6l-4.2-6.8l-6.4-10.2l68.5-41.9L413.4,261.3L413.4,261.3z"/>
	<path class="penguin_doctor_no_crown-st5" d="M248.2,379.9c0.1-62.4,50.7-113,113.1-113.1h32.9l-89.5,54.8l11.3,18.2l-67.9,78.1v-38H248.2z"/>
	<path d="M375,272.1l-77.8,47.6l12.1,19.5l-55.8,64.2v-23.5c0-59.5,48.2-107.7,107.7-107.7H375 M413.4,261.3h-52.1
		c-65.4,0.1-118.4,53.1-118.5,118.5v52.4l19-21.8l55.8-64.2l5.2-6l-4.2-6.8l-6.4-10.2l68.5-41.9L413.4,261.3L413.4,261.3z"/>
	<path class="penguin_doctor_no_crown-st1" d="M308.9,504.8c-21.7,34.1-20.5,73.7,2.8,88.3s59.8-1.2,81.5-35.3c13.9-21.8,26.8-52.5,17.1-62.9
		c-6.8-7.3-17.3,0.7-17.3,0.7s7.4-19.8-2.7-26.2s-23.4,9-23.4,9s2.4-16.2-9.1-18.8C344.7,456.7,323.2,482.3,308.9,504.8z"/>
	<path d="M331.2,603.8c-7.9,0.1-15.7-2-22.4-6.2c-12.8-8.1-20.2-22.7-20.8-41.2c-0.6-17.7,5.2-37.1,16.3-54.5l0,0
		c10-15.7,35.3-51.8,54.7-47.5c7.4,1.7,11,7.1,12.6,12.9c6.4-4.3,14.5-6.9,21.6-2.4c7.8,4.9,8.5,14.3,7.5,21.7
		c5-0.9,10.1,0.8,13.5,4.6c15.9,17.1-13.1,64.1-16.5,69.4C380.5,587.7,354.2,603.8,331.2,603.8z M313.4,507.7
		c-9.9,15.6-15.1,32.8-14.6,48.4c0.5,14.9,6.1,26.4,15.8,32.5c20.7,13,54-2.1,74.1-33.7c15.7-24.7,23.6-50,17.7-56.4
		c-3.3-3.6-10,1.3-10,1.3c-1.9,1.4-4.5,1.4-6.5,0c-1.9-1.4-2.7-3.9-1.9-6.1c1.9-5.2,4.3-16.8-0.5-19.8c-5.1-3.2-14.3,5.5-16.5,8
		c-1.6,1.8-4.1,2.3-6.3,1.3c-2.2-1-3.4-3.3-3.1-5.6c0-0.1,1.5-11.3-5-12.8C349.8,463.4,332.4,477.8,313.4,507.7z"/>
	<path id="Color_1_" class="penguin_doctor_no_crown-st0" d="M308.6,434.3c-2.5,0-4.9-0.2-7.3-0.7c-6.3-1.4-10.9-4.5-13.8-9.4c-7.7-13.1-7-26.9,2.2-43.6
		c7.9-14.3,21.2-29,36.5-46c16.5-18.3,35.1-39.1,48.1-61.7l1.1-2l48.5-0.2l25.8,95.1l-5.1,3.6c-11.6,8.2-31.7,21.1-53.2,33.2
		l-0.3,0.2l-0.6,0.3c-36.8,20.6-64.2,31.1-81.6,31.1L308.6,434.3z"/>
	<path d="M420.8,274.8l24.2,89.4l-2.8,2c-11.5,8.1-31.5,21-53.1,33.1l-0.3,0.2l-0.3,0.2c-36.2,20.3-63,30.6-79.7,30.6
		c-0.1,0-0.1,0-0.2,0c-2.2,0-4.4-0.2-6.5-0.7c-5.1-1.1-8.9-3.6-11.2-7.5c-15.1-25.6,8.4-51.7,38.2-84.8
		c16.7-18.6,35.4-39.4,48.6-62.3L420.8,274.8 M427,266.7h-6.2l-43.1,0.2h-4.6l-2.3,4c-12.7,22.2-31.2,42.8-47.6,61
		c-15.5,17.2-28.8,32-37,46.7c-9.9,17.7-10.6,33.3-2.2,47.5c3.4,5.8,9.1,9.7,16.4,11.3l0,0l0,0c2.7,0.5,5.4,0.8,8.1,0.8h0.2
		c18.3,0,45.7-10.3,83.6-31.6l0.3-0.2l0.6-0.3l0.3-0.2c21.5-12.1,41.6-25.1,53.2-33.3l2.8-2l4.6-3.2l-1.5-5.4l-24.2-89.4L427,266.7
		L427,266.7z"/>
	<path class="penguin_doctor_no_crown-st5" d="M477.2,266.7c14.4,21.9,15.7,49.8,3.4,72.9c-41.6,42.4-92,75-147.6,95.6c-0.8,0.3-1.7,0.5-2.6,0.5
		c-2.7,0-5.2-1.4-6.6-3.7l-17.3-27.1l-14.3-22.4c-1.9-2.9-1.7-6.6,0.5-9.3c15.8-19.2,31.1-39,45.5-58.9c6.6-9.1,13.1-18.4,19.5-27.7
		c8.2-12.2,21.9-19.5,36.6-19.6C394.2,267,452.9,266.8,477.2,266.7"/>
	<path d="M330.4,441.1c-4.5,0-8.7-2.4-11.2-6.2l-31.6-49.6c-3.1-4.8-2.8-11.2,0.9-15.6c15.7-19.1,30.9-38.8,45.3-58.6
		c6.5-9,13-18.3,19.4-27.6c9.2-13.7,24.6-21.9,41.1-21.9c1.8,0,59.1-0.2,83-0.2h2.9l1.6,2.4c15.5,23.5,16.9,53.6,3.6,78.4l-0.9,1.2
		c-42.1,42.9-93.2,76-149.6,96.9C333.4,440.8,331.9,441.1,330.4,441.1z M474.3,272.1c-25.4,0-78.3,0.2-80,0.2
		c-12.9,0-25,6.5-32.2,17.2c-6.4,9.4-13,18.8-19.6,27.9c-14.5,20-29.8,39.9-45.7,59.2c-0.7,0.8-0.7,2-0.1,2.9l31.6,49.6
		c0.5,0.7,1.3,1.2,2.1,1.2c32.8-12,63.9-28.3,92.4-48.5c19.1-13.5,36.9-28.7,53.3-45.3C486.7,316.1,486,291.8,474.3,272.1z"/>
</g>
</svg>
