<svg xmlns="http://www.w3.org/2000/svg" viewBox="0 0 542.39338 768.81824"><defs><style>.cls-1{fill:#36cea6;}.cls-2{fill:#fff;}.cls-3{fill:#28ad87;}.cls-4{fill:#eefffd;}.cls-5{fill:#c0e2dc;}.cls-6{fill:#fdfffe;}.cls-7{fill:#e9f4f2;}.cls-8{fill:#c57f00;}.cls-11,.cls-9{fill:#8d5d15;}.cls-9{opacity:0.4;isolation:isolate;}.cls-10{fill:#a56921;}.cls-12{fill:#ffb700;}.cls-13{fill:#6fbe44;}.cls-14{fill:#65ab45;}.cls-15{fill:#d4f4d0;}</style></defs><g id="Layer_1" data-name="Layer 1"><path class="cls-1" d="M51.828,678.88151c-7.6696-7.053-20.05857-15.72256-27.529-3.52932.52913,4.88549-.09818,14.044-3.24409,18.053-36.86224-1.62049.83192,50.55978,4.66319,64.91751,8.23531,11.55835,27.85815,31.22326,39.4883,39.37744,72.28631,12.716,69.44408-63.18134,35.85266-105.08744C90.69249,676.75624,54.08968,638.75194,51.828,678.88151Z" transform="translate(0 -51.21832)"/><path class="cls-2" d="M115.46972,449.60389c16.8833,15.34736,45.49469,19.244,66.10254,8.412l45.13885,11.63934a85.28552,85.28552,0,0,0,4.09918-63.13354l-15.72363,4.35144c6.82581-47.67389-46.89063-84.15191-88.63068-60.80359a186.60909,186.60909,0,0,1,69.8432-90.44824c103.19367-22.71981,199.55292,49.727,198.16944,159.97477-.17517,40.37165-22.33148,74.56018-47.54346,105.076,4.488-5.43408,8.87958-10.98425,13.06781-16.66492a169.40322,169.40322,0,0,1-238.7341,20.02335q-2.95267-2.49568-5.78915-5.12418Z" transform="translate(0 -51.21832)"/><path class="cls-3" d="M120.25976,730.1161c.36969,17.55585-5.75866,32.62927-18.282,40.4765-23.3,14.6-59.8-1.2-81.5-35.3A173.70959,173.70959,0,0,1,5.02825,705.09157c-.39423,15.89,18.06891,43.40911,20.68982,53.23107,8.23535,11.55835,27.85815,31.22327,39.48834,39.37745C118.66173,807.10353,131.02611,768.0489,120.25976,730.1161Z" transform="translate(0 -51.21832)"/><circle cx="307.92734" cy="346.04043" r="58.52502"/><path class="cls-4" d="M494.7564,418.51C486.565,673.46309,486.565,673.5475,486.565,673.66694a100.32857,100.32857,0,0,1-6.41961,35.71521c-13.45734,34.41242-47.65528,54.535-81.362,65.49787.254-.4162.54071-.8913.85-1.4093a52.36188,52.36188,0,0,1-15.21759,3.45507c-30.26782,41.44782-71.58825,40.1048-82.7312,11.0174-1.82111-.21045-3.63519-.455-5.43274-.77-1.91711-.188-3.83453-.37372-5.75006-.57727a55.60341,55.60341,0,0,0,1.66052,5.45972c-69.07672,2.765-133.05145-6.86426-150.55749-13.44025a99.63215,99.63215,0,0,1-13.76019-5.94843c11.17474-38.15765-17.29377-88.24377-51.975-113.89746,8.94745-38.08777,41.547-68.801,80.14238-75.42578a5.39878,5.39878,0,0,0,4.36658-6.26315v0l-.00037-.00189c-2.18536-12.27454-38.451,6.3305-44.90856,10.35528v-51.192A179.25912,179.25912,0,0,0,322.579,552.72859q.73471-.82755,1.47278-1.65851,2.002-2.254,4.02466-4.53631-2.01957,2.2791-4.02466,4.53631c-32.31568,36.38672-60.22266,67.80939-41.94843,99.218,19.36609,28.14972,71.667-1.3811,103.28907-17.23627l12.30639-6.89325c29.57-17.01739,53.67658-34.02423,55.7912-35.52362,5.72333-4.10083-.465-12.8855-6.25806-8.80292-12.22,8.67633-33.50012,22.68873-56.57318,35.86091a5.26452,5.26452,0,0,0-1.09515.624c-33.648,19.12152-70.88556,36.23907-89.58691,32.21014-4.036-.8789-6.82734-2.72815-8.536-5.66717-14.34375-24.65155,9.9422-51.9961,40.68988-86.618,33.24988-37.44318,70.69391-79.76166,72.94391-134.02973h.19513c-.01434-.38238.0224-4.96954,0-5.20221.77137-105.51513-83.03561-181.78662-184.616-173.5567C348.694,185.57136,498.57622,274.05781,494.7564,418.51Z" transform="translate(0 -51.21832)"/><path class="cls-4" d="M494.7564,418.51C486.565,673.46309,486.565,673.5475,486.565,673.66694a100.32857,100.32857,0,0,1-6.41961,35.71521c-13.45734,34.41242-47.65528,54.535-81.362,65.49787.254-.4162.54071-.8913.85-1.4093a52.36188,52.36188,0,0,1-15.21759,3.45507c-30.26782,41.44782-71.58825,40.1048-82.7312,11.0174-1.82111-.21045-3.63519-.455-5.43274-.77-1.91711-.188-3.83453-.37372-5.75006-.57727a55.60341,55.60341,0,0,0,1.66052,5.45972c-69.07672,2.765-133.05145-6.86426-150.55749-13.44025a99.63215,99.63215,0,0,1-13.76019-5.94843c11.17474-38.15765-17.29377-88.24377-51.975-113.89746,8.94745-38.08777,41.547-68.801,80.14238-75.42578a5.39878,5.39878,0,0,0,4.36658-6.26315v0l-.00037-.00189c-2.18536-12.27454-38.451,6.3305-44.90856,10.35528v-51.192A179.25912,179.25912,0,0,0,322.579,552.72859q.73471-.82755,1.47278-1.65851,2.002-2.254,4.02466-4.53631-2.01957,2.2791-4.02466,4.53631c-32.31568,36.38672-60.22266,67.80939-41.94843,99.218,19.36609,28.14972,71.667-1.3811,103.28907-17.23627l12.30639-6.89325c29.57-17.01739,53.67658-34.02423,55.7912-35.52362,5.72333-4.10083-.465-12.8855-6.25806-8.80292-12.22,8.67633-33.50012,22.68873-56.57318,35.86091a5.26452,5.26452,0,0,0-1.09515.624c-33.648,19.12152-70.88556,36.23907-89.58691,32.21014-4.036-.8789-6.82734-2.72815-8.536-5.66717-14.34375-24.65155,9.9422-51.9961,40.68988-86.618,33.24988-37.44318,70.69391-79.76166,72.94391-134.02973h.19513c-.01434-.38238.0224-4.96954,0-5.20221.77137-105.51513-83.03561-181.78662-184.616-173.5567C348.694,185.57136,498.57622,274.05781,494.7564,418.51Z" transform="translate(0 -51.21832)"/><path class="cls-5" d="M405.08648,409.03035h.18316c-.01434-.38239.0224-4.96955,0-5.20221.6659-91.097-61.7149-160.38568-144.14428-172.32739a202.32629,202.32629,0,0,0-40.47174,13.95251C319.00219,237.48518,400.68816,308.72786,405.08648,409.03035Z" transform="translate(0 -51.21832)"/><path class="cls-5" d="M277.01354,621.81862c4.00024-22.28388,24.4389-45.30219,47.03821-70.74854q-.738.831-1.47278,1.65851A179.39927,179.39927,0,0,1,300.458,563.95c-.22534.09528-.453.18274-.67859.2771C283.87291,584.35188,273.41546,603.20942,277.01354,621.81862Z" transform="translate(0 -51.21832)"/><path class="cls-5" d="M486.565,658.48506a100.32857,100.32857,0,0,1-6.41961,35.71521c-13.45734,34.41241-47.65528,54.535-81.362,65.49786.254-.4162.54071-.89129.85-1.4093a52.36157,52.36157,0,0,1-15.21759,3.45508c-30.26782,41.44781-71.58825,40.1048-82.7312,11.01739-1.82111-.21044-3.63519-.455-5.43274-.77-1.91711-.188-3.83453-.37372-5.75006-.57728a55.60259,55.60259,0,0,0,1.66052,5.45972c-69.07672,2.765-133.05145-6.86426-150.55749-13.44025a99.61185,99.61185,0,0,1-11.40863-4.77014,61.98229,61.98229,0,0,1-2.35156,14.0036,99.63215,99.63215,0,0,0,13.76019,5.94843c17.506,6.576,81.48077,16.20526,150.55749,13.44025a55.60341,55.60341,0,0,1-1.66052-5.45972c1.91553.20355,3.833.38922,5.75006.57727,1.79755.31494,3.61163.55951,5.43274.77,11.14295,29.0874,52.46338,30.43042,82.7312-11.0174a52.36188,52.36188,0,0,0,15.21759-3.45507c-.30932.518-.59607.9931-.85,1.4093,33.70672-10.96289,67.90466-31.08545,81.362-65.49787a100.32857,100.32857,0,0,0,6.41961-35.71521c0-.11944,0-.20385,8.19141-255.157q.172-6.50574-.07477-12.8545C486.56536,658.27058,486.565,658.366,486.565,658.48506Z" transform="translate(0 -51.21832)"/><path class="cls-5" d="M79.66558,646.51735a94.36938,94.36938,0,0,0-3.7959,12.25219c27.29425,20.18958,50.735,55.51123,54.03748,88.24231C133.72417,712.0536,109.53936,670.46626,79.66558,646.51735Z" transform="translate(0 -51.21832)"/><g id="Layer_3" data-name="Layer 3"><path d="M348.26659,642.82222a60.57252,60.57252,0,0,0-16.498-36.46485,59.83759,59.83759,0,0,0-28.88282-16.49707l2.60938-10.68554a70.81306,70.81306,0,0,1,34.1875,19.54394,71.6329,71.6329,0,0,1,19.541,43.123Z" transform="translate(0 -51.21832)"/><path class="cls-1" d="M304.89892,590.394a59.644,59.644,0,0,1,26.86962,15.96337,60.2827,60.2827,0,0,1,16.1059,33.154c-19.38708,8.40875-36.86749,13.392-47.89777,11.01574-4.036-.8789-6.82733-2.72815-8.536-5.66717C281.84514,628.36867,289.54943,610.66816,304.89892,590.394Z" transform="translate(0 -51.21832)"/></g><path d="M450.24859,276.00764c-65.63153-69.764-181.58289-79.44421-259.79767-25.47247a197.17325,197.17325,0,0,0-78.84668,110.66571c-19.67175,18.70221-23.07,54.14185-6.93457,76.35852v93.79425c-7.27558,8.10614-37.735,45.70752-26.65369,93.98584a111.36316,111.36316,0,0,0-12.27392,29.41c-8.97022-1.94775-17.10883,5.35285-18.5669,12.90589-16.72833-11.9455-32.45727.63574-28.99689,19.41327a14.69868,14.69868,0,0,0-13.45074,4.61957c-15.88361,17.17736,13.071,64.2164,16.425,69.525,24.58458,39.41748,77.09032,63.30359,102.67558,21.51831a109.97793,109.97793,0,0,0,14.15564,6.05829c14.683,7.43884,107.6073,17.93194,159.63752,13.83838,23.42419,32.87512,69.34637,13.88659,90.76111-13.28382,56.0888-14.36548,110.18353-52.02447,108.98266-115.52264.04218-1.51874,8.19141-254.96014,8.19141-254.96722A194.8582,194.8582,0,0,0,450.24859,276.00764ZM115.46972,449.60389c16.8833,15.34736,45.49469,19.244,66.10254,8.412l45.13885,11.63934a85.28552,85.28552,0,0,0,4.09918-63.13354l-15.72363,4.35144c6.82581-47.67389-46.89063-84.15191-88.63068-60.80359a186.60909,186.60909,0,0,1,69.8432-90.44824c103.19367-22.71981,199.55292,49.727,198.16944,159.97477-.17517,40.37165-22.33148,74.56018-47.54346,105.076,4.488-5.43408,8.87958-10.98425,13.06781-16.66492a169.40322,169.40322,0,0,1-238.7341,20.02335q-2.95267-2.49568-5.78915-5.12418Zm37.08984-10.21813,70.45306-19.5047a71.86,71.86,0,0,1-2.7492,36.95623ZM104.66967,549.16725v45.82709c-3.02008,2.612-6.22888,5.14361-8.99208,8.01031a112.13644,112.13644,0,0,0-8.78729,9.72424C84.21227,585.42744,95.78832,562.3658,104.66967,549.16725Zm-.73828,239.97394c-20.62964,13.05-53.65546-2.09534-73.65235-33.70081-16.2077-24.3009-30.72-68.13342-7.69922-55.09689,4.09217,3.34051,10.3238-1.26508,8.367-6.14557-6.834-20.38715,2.15985-27.50079,16.80511-11.76965,3.31787,4.05218,10.35694.822,9.42163-4.33167-1.39856-29.8327,27.38587-2.64636,47.89655,30.05127C125.06029,739.77479,124.54705,776.1053,103.93139,789.14119ZM494.7564,418.51C486.565,673.46309,486.565,673.5475,486.565,673.66694a100.32857,100.32857,0,0,1-6.41961,35.71521c-13.45734,34.41242-47.65528,54.535-81.362,65.49787.254-.4162.54071-.8913.85-1.4093a52.36188,52.36188,0,0,1-15.21759,3.45507c-30.26782,41.44782-71.58825,40.1048-82.7312,11.0174-1.82111-.21045-3.63519-.455-5.43274-.77-1.91711-.188-3.83453-.37372-5.75006-.57727a55.60341,55.60341,0,0,0,1.66052,5.45972c-69.07672,2.765-133.05145-6.86426-150.55749-13.44025a99.63215,99.63215,0,0,1-13.76019-5.94843c11.17474-38.15765-17.29377-88.24377-51.975-113.89746,8.94745-38.08777,41.547-68.801,80.14238-75.42578a5.39878,5.39878,0,0,0,4.36658-6.26315v0l-.00037-.00189c-2.18536-12.27454-38.451,6.3305-44.90856,10.35528v-51.192A179.25912,179.25912,0,0,0,322.579,552.72859q.73471-.82755,1.47278-1.65851,2.002-2.254,4.02466-4.53631-2.01957,2.2791-4.02466,4.53631c-32.31568,36.38672-60.22266,67.80939-41.94843,99.218,19.36609,28.14972,71.667-1.3811,103.28907-17.23627l12.30639-6.89325c29.57-17.01739,53.67658-34.02423,55.7912-35.52362,5.72333-4.10083-.465-12.8855-6.25806-8.80292-12.22,8.67633-33.50012,22.68873-56.57318,35.86091a5.26452,5.26452,0,0,0-1.09515.624c-33.648,19.12152-70.88556,36.23907-89.58691,32.21014-4.036-.8789-6.82734-2.72815-8.536-5.66717-14.34375-24.65155,9.9422-51.9961,40.68988-86.618,33.24988-37.44318,70.69391-79.76166,72.94391-134.02973h.19513c-.01434-.38238.0224-4.96954,0-5.20221.77137-105.51513-83.03561-181.78662-184.616-173.5567C348.694,185.57136,498.57622,274.05781,494.7564,418.51ZM346.8474,524.76655q-4.4013,5.32453-8.894,10.50373Q342.43229,530.08858,346.8474,524.76655ZM337.59765,535.682q-4.35306,5.02772-8.705,9.92981Q333.233,540.70765,337.59765,535.682Z" transform="translate(0 -51.21832)"/><circle class="cls-2" cx="286.83115" cy="328.3468" r="19.05466"/><circle class="cls-2" cx="133.05736" cy="334.05337" r="19.74339"/><g id="x"><g id="color-3"><path class="cls-4" d="M104.66969,549.16725v45.82706c-3.02011,2.612-6.22889,5.14361-8.99209,8.01034a112.14546,112.14546,0,0,0-8.7873,9.72421C84.21227,585.42741,95.78835,562.3658,104.66969,549.16725Z" transform="translate(0 -51.21832)"/></g></g><path class="cls-1" d="M309.222,720.99083c-21.7,34.1-20.5,73.7,2.8,88.3s59.8-1.2,81.5-35.3c13.9-21.8,26.8-52.5,17.1-62.9-6.8-7.3-17.3.7-17.3.7s7.4-19.8-2.7-26.2-23.4,9-23.4,9,2.4-16.2-9.1-18.8C345.022,672.89085,323.522,698.49083,309.222,720.99083Z" transform="translate(0 -51.21832)"/><path class="cls-3" d="M393.322,690.88869s.43042-.32618,1.16467-.784a11.74386,11.74386,0,0,0-.55621-1.06C393.57854,690.20155,393.322,690.88869,393.322,690.88869Z" transform="translate(0 -51.21832)"/><path class="cls-3" d="M393.522,753.08864c-21.7,34.1-58.2,49.9-81.5,35.3-9.6532-6.04876-15.50042-16.39544-17.51007-28.85754-3.07135,21.4256,2.826,40.55853,17.51007,49.7597,23.3,14.6,59.8-1.2,81.5-35.3,13.05561-20.47577,25.22583-48.80024,18.619-60.78369C408.77923,725.87208,401.30883,740.87617,393.522,753.08864Z" transform="translate(0 -51.21832)"/><path d="M331.522,819.99086a41.17177,41.17177,0,0,1-22.4-6.2c-12.8-8.1-20.2-22.7-20.8-41.2-.6-17.7,5.2-37.1,16.3-54.5h0c10-15.7,35.3-51.8,54.7-47.5,7.4,1.7,11,7.1,12.6,12.9,6.4-4.3,14.5-6.9,21.6-2.4,7.8,4.9,8.5,14.3,7.5,21.7a14.58748,14.58748,0,0,1,13.5,4.6c15.9,17.1-13.1,64.1-16.5,69.4C380.822,803.89082,354.522,819.99086,331.522,819.99086Zm-17.8-96.1c-9.9,15.6-15.1,32.8-14.6,48.4.5,14.9,6.1,26.4,15.8,32.5,20.7,13,54-2.1,74.1-33.7,15.7-24.7,23.6-50,17.7-56.4-3.3-3.6-10,1.3-10,1.3a5.55431,5.55431,0,0,1-6.5,0,5.36017,5.36017,0,0,1-1.9-6.1c1.9-5.2,4.3-16.8-.5-19.8-5.1-3.2-14.3,5.5-16.5,8a5.41354,5.41354,0,0,1-9.4-4.3c0-.1,1.5-11.3-5-12.8-6.8-1.4-24.2,13-43.2,42.9Z" transform="translate(0 -51.21832)"/><g id="Layer_2" data-name="Layer 2"><path class="cls-6" d="M339.09893,505.44108c.07123,6.35382-3.78681,9.92817-9.15619,11.44214-42.86121,12.08542-90.94945,20.19513-133.93475,15.07727-28.97966-3.45035-47.72463-6.15884-74.82524-12.31433-6.41388-1.45682-10.97942-3.5292-13.24224-13.76755-6.01061-27.19555-3.4366-41.88052-1.10646-69.15731.43862-5.13446,2.82824-5.46712,6.15189-7.08518a1.75057,1.75057,0,0,1,.73343-.02325c13.17627.94406,31.218-2.31046,42.69557-4.787C176.74111,420.44,189.741,411.69815,209.56168,410.308c23.74925-1.66571,42.29265,8.27155,66.7289,13.58875,13.31189,2.89657,34.67944,6.16421,50.41611,6.05325,5.58633-.03935,11.71633,4.38293,12.46267,10.54358a7.459,7.459,0,0,1,.14853,1.08243C339.46837,462.63337,338.86587,484.64934,339.09893,505.44108Z" transform="translate(0 -51.21832)"/><path class="cls-7" d="M113.30275,430.0421c14.94144-1.38913,29.38706-1.37049,41.99668,7.52383,21.88823,4.75974,43.45079,10.64151,65.12555,16.2609,3.45608,30.84744-13.93367,58.39068-38.55557,75.37811-19.90755-4.40823-40.05309-6.62128-60.18573-9.60471a58.37774,58.37774,0,0,0-8.59308-4.71615c-5.80407-31.12668-6.93367-44.10181-6.33249-75.41254a67.90563,67.90563,0,0,0,6.54464-9.42944" transform="translate(0 -51.21832)"/><path d="M213.13332,538.81309c-7.00961-.40155-12.72949-.75064-18.44678-1.55526-25.63556-3.60779-48.55328-6.31241-74.15931-12.3328-8.22745-1.93442-15.298-5.77579-17.972-19.09-5.27221-26.25086-3.372-42.42078-.80652-68.851.87195-8.98281,4.60559-10.43894,11.10516-13.02182.4-.15894.81828.0596,1.21284.07126,14.73107.43551,27.819-1.39716,42.3594-4.709a202.67962,202.67962,0,0,0,26.41539-8.31574c7.93838-2.9603,17.22049-5.64151,26.52188-6.25226,12.58064-.82611,25.47053,1.71366,37.31564,5.39629,10.27626,3.19485,19.71855,6.12817,29.74391,8.36688a241.07075,241.07075,0,0,0,50.027,6.10535,18.54242,18.54242,0,0,1,18.31876,15.55121,7.06848,7.06848,0,0,1,.15024,1.566c-.1406,20.8201-.37967,43.1127-.43787,63.58887-.02606,9.16263-4.96231,14.55853-13.07962,16.80816C293.17559,532.73311,252.717,541.08061,213.13332,538.81309ZM113.36468,435.24156c-.49749-.125-.9318.78506-.94784,1.02927h0c-1.84365,28.05761-5.44657,41.23593.984,69.62329,1.5447,6.81891,4.38,7.693,8.49877,8.59878,26.87822,5.911,46.1342,8.66028,74.93312,12.11838,42.66762,5.12338,89.587-3.26,132.05177-14.8923,2.83353-.77619,5.05942-2.57688,4.98712-6.02671-.44171-21.07275.67426-43.08764.23853-64.19522-.08319-4.03146-3.09839-5.24115-6.23758-6.16261a2.29005,2.29005,0,0,0-.58209-.0347,266.97151,266.97151,0,0,1-52.3591-6.35086c-10.33353-2.24129-20.83762-5.3996-31.00339-8.58728-11.16029-3.49957-22.241-5.644-33.7637-4.9453-8.52532.517-16.42282,3.07938-23.80365,5.79047a227.66753,227.66753,0,0,1-28.222,8.66742,193.95874,193.95874,0,0,1-44.51542,5.2489C113.58,435.1345,113.4476,435.2624,113.36468,435.24156Z" transform="translate(0 -51.21832)"/><path d="M345.19512,468.59858c-10.70371,1.27378-6.61191-1.65844-7.86932-4.32565-1.04786-2.22268.58493-3.84454,3.813-4.59765,54.24851-12.65586,108.18442-31.72443,162.59458-44.82129,3.904-.93973,4.662,1.31857,6.6416,3.89154s-2.55884,5.98343-5.55634,6.81784c-41.437,11.53454-122.74295,36.0657-153.72219,42.08587S346.62221,468.42875,345.19512,468.59858Z" transform="translate(0 -51.21832)"/></g></g><g id="Layer_2-2" data-name="Layer 2"><g id="Layer_2-3" data-name="Layer 2"><path class="cls-8" d="M492.12928,161.83145c-8.38733,17.26066-11.39593,37.1255-12.52771,44.601-.19867,1.31275-.3335,2.25293-.44348,2.73548a2.69987,2.69987,0,0,0-.06384.70959l-2.61481,26.54915L325.50092,221.5608l-2.52258-.24835L172.01405,206.45017l2.6148-26.54914a2.65024,2.65024,0,0,0,.07453-.7096c0-.49316.039-1.44046.09933-2.76738.3548-7.55355,1.27371-27.6206-3.587-46.1869-4.42426-16.82781-19.54908-52.54832-26.60236-68.8688,1.63916,1.17791,3.6189,2.67869,5.99246,4.6123,4.183,3.39182,9.285,5.18352,14.2201,6.91492,9.78521,3.438,19.03463,6.68076,24.56585,21.426,5.22965,13.92917.90473,20.52831-3.28183,26.90748-2.60061,3.97724-5.29352,8.08219-5.38931,13.5105-.02484,1.30919-.071,2.71771-.11353,4.18656-.0816,2.64319-.1632,5.49928-.1632,8.42277a3.02639,3.02639,0,0,0,2.23874,2.9093,3.08667,3.08667,0,0,0,3.43084-1.35531l.3335-.589a4.42281,4.42281,0,0,1,.28738-.48961,20.28863,20.28863,0,0,1,6.74106-5.70153,30.22909,30.22909,0,0,1,26.41785-1.742,21.76721,21.76721,0,0,1,10.05838,8.00768,16.4023,16.4023,0,0,1,2.182,12.879,9.91839,9.91839,0,0,1-8.1141,7.19519c-4.25751.45415-7.24133-.19159-8.92658-1.91587-2.21035-2.25647-1.71719-5.96762-1.70654-5.99954a3.037,3.037,0,0,0-1.35531-2.96607,3.07607,3.07607,0,0,0-3.27118-.04968c-4.35331,2.66451-11.286,10.44155-6.365,20.80859,2.00811,4.23624,6.8475,7.04975,14.39038,8.36957L265.1471,191.478c11.22562,1.10339,18.44922-.45769,22.0965-4.779a14.08014,14.08014,0,0,0,3.65436-10.64378c-.63507-6.6027-6.145-11.14759-6.38626-11.35337a3.08673,3.08673,0,0,0-3.19312-.41866,3.00507,3.00507,0,0,0-1.774,2.64675,7.31932,7.31932,0,0,1-2.75674,5.09127c-2.37,1.67107-6.33661,1.774-11.45981.31932a10.8392,10.8392,0,0,1-7.90121-8.83081c-.43286-4.12623,1.52206-8.703,5.10193-11.93522a25.93582,25.93582,0,0,1,13.22311-5.83634,39.79,39.79,0,0,1,29.99063,7.3655,22.05066,22.05066,0,0,1,6.4466,7.06037,20.1794,20.1794,0,0,1,2.08264,7.80544,3.03352,3.03352,0,0,0,2.72833,2.73544,2.85139,2.85139,0,0,0,3.2251-2.12875c2.1607-7.032.02484-14.52877-5.85053-20.578-2.52966-2.59353-5.33966-5.01677-8.05023-7.35485-7.96509-6.86879-14.841-12.79383-14.03912-21.28756,1.67462-17.62256,14.01428-21.64235,24.89935-25.19028,4.144-1.3482,8.06085-2.62547,11.03052-4.57682a41.95168,41.95168,0,0,0,9.96966-9.771,41.73592,41.73592,0,0,0,7.87281,11.52722c2.5332,2.48355,6.12725,4.50942,9.9342,6.64171,9.98389,5.59863,21.28754,11.94942,19.51361,29.55779-.86926,8.47954-8.767,12.95347-17.917,18.13345-3.11859,1.774-6.34369,3.594-9.331,5.64474-6.93975,4.772-10.49475,11.70816-9.74969,19.02753a2.857,2.857,0,0,0,2.75317,2.70708,3.04059,3.04059,0,0,0,3.19312-2.15,20.4536,20.4536,0,0,1,3.54791-7.24842,22.30007,22.30007,0,0,1,7.70258-5.67668,39.78285,39.78285,0,0,1,30.867-1.3766,26.01643,26.01643,0,0,1,11.83234,8.30215c2.88092,3.87078,3.90271,8.73854,2.67511,12.70157a10.83774,10.83774,0,0,1-9.46942,7.12069c-5.3219.4364-9.182-.44348-11.17951-2.54387a7.31061,7.31061,0,0,1-1.71008-5.53477A2.99435,2.99435,0,0,0,377.4853,173.71a3.07255,3.07255,0,0,0-3.21088-.21287c-.26965.14192-6.56012,3.52308-8.47247,9.87742a14.165,14.165,0,0,0,1.51141,11.144c2.73194,4.94581,9.51557,7.8906,20.74121,8.994l48.35114,4.82522c7.65643.1774,12.95349-1.63913,15.74573-5.39993,6.84747-9.22459,1.56817-18.19022-2.182-21.64236a3.076,3.076,0,0,0-3.218-.589,3.04062,3.04062,0,0,0-1.90881,2.64321c0,.03549-.23767,3.77145-2.83832,5.55252-1.99036,1.36239-5.05225,1.41916-9.12878.13836a9.91634,9.91634,0,0,1-6.55658-8.6392,16.36392,16.36392,0,0,1,4.6549-12.20842,21.71485,21.71485,0,0,1,11.42432-5.88956,30.25548,30.25548,0,0,1,25.57349,6.85814,20.359,20.359,0,0,1,5.49572,6.90781,4.34083,4.34083,0,0,1,.188.53573l.20935.64218a3.07959,3.07959,0,0,0,3.10089,1.99749,3.0228,3.0228,0,0,0,2.7638-2.41614c.57123-2.86317,1.06439-5.67668,1.483-8.29151.24127-1.4511.47546-2.83834.70959-4.12979.965-5.33963-.87634-9.89515-2.65387-14.30169-2.85961-7.071-5.81506-14.38684,2.02942-27.03167,8.30213-13.37923,18.00574-14.75939,28.277-16.22112,5.17285-.738,10.52673-1.49722,15.29511-4.00915,2.70349-1.41918,4.93518-2.51193,6.773-3.34925C521.53455,114.09764,499.73249,146.18864,492.12928,161.83145Z" transform="translate(0 -51.21832)"/><polygon class="cls-8" points="325.008 175.349 322.485 175.1 171.507 160.234 170.027 175.246 166.309 213.01 164.833 228.021 315.812 242.887 318.334 243.135 469.313 258.001 470.792 242.99 474.51 205.226 475.986 190.214 325.008 175.349"/><polygon class="cls-9" points="354.814 249.529 380.299 178.645 477.107 188.604 473.928 258.242 354.814 249.529"/><polygon class="cls-10" points="363.098 250.394 388.583 179.507 479.559 194.55 473.928 258.242 363.098 250.394"/><polygon class="cls-11" points="472.183 251.792 163.932 217.828 472.889 244.632 472.183 251.792"/><polygon class="cls-11" points="475.451 195.586 165.649 159.074 476.526 184.843 475.451 195.586"/><path class="cls-11" d="M469.87672,121.95985c5.7157-9.02948,12.063-13.07767,18.77917-15.07869a38.54877,38.54877,0,0,0-12.56317,13.01733c-9.44812,15.22417-5.59863,24.76455-2.48352,32.4245,1.59656,3.94884,2.97668,7.3584,2.32031,10.99858-.23767,1.31273-.479,2.7248-.70959,4.20073a.977.977,0,0,1-.03546.1987,31.52133,31.52133,0,0,0-3.19312-3.12928c-.447-.37964-.92956-.7096-1.39081-1.06437a1.41018,1.41018,0,0,1,.04261-.24482c.97924-5.35382-.91541-9.93421-2.74256-14.34072C464.79957,141.55149,461.90815,134.57272,469.87672,121.95985Z" transform="translate(0 -51.21832)"/><path class="cls-11" d="M426.56007,164.00633a22.16889,22.16889,0,0,0-6.32953,16.84556,16.24274,16.24274,0,0,0,2.5971,7.53224,22.76046,22.76046,0,0,1-2.221-.56765,9.98628,9.98628,0,0,1-6.74109-8.66757,16.0149,16.0149,0,0,1,4.71875-12.1623h0a22.10333,22.10333,0,0,1,11.25757-5.76539A24.01424,24.01424,0,0,0,426.56007,164.00633Z" transform="translate(0 -51.21832)"/><path class="cls-11" d="M242.34107,149.63011h0a16.00507,16.00507,0,0,1,2.25647,12.847,10.02519,10.02519,0,0,1-8.31988,7.18457c-.7096.07449-1.49369.12062-2.28842.12417A16.2779,16.2779,0,0,0,238.0055,162.91a22.16536,22.16536,0,0,0-2.92-17.75737,24.27775,24.27775,0,0,0-2.661-3.37409A22.147,22.147,0,0,1,242.34107,149.63011Z" transform="translate(0 -51.21832)"/><path class="cls-11" d="M200.79838,95.46746c5.35739,13.92205,1.15661,20.22319-3.28894,26.86135-2.65384,3.96658-5.40351,8.08572-5.48508,13.546v.24837c-.52154.26254-1.06439.48251-1.57172.7699a32.06167,32.06167,0,0,0-3.74661,2.44453v-.20224c.04969-1.49723.08872-2.927.11-4.25751.06741-3.70048,2.08618-6.77653,4.42071-10.33512,4.5307-6.91137,10.16837-15.51863,3.87433-32.28615a38.49006,38.49006,0,0,0-9.78519-15.217C191.52766,80.28945,196.956,85.49426,200.79838,95.46746Z" transform="translate(0 -51.21832)"/><path class="cls-11" d="M214.58918,180.02877c-3.45569-.98277-5.80441-2.41969-6.66656-4.23977a9.26774,9.26774,0,0,1,.21286-9.1643,11.73352,11.73352,0,0,0,2.53323,4.06238,11.50646,11.50646,0,0,0,1.91589,1.49015,15.93714,15.93714,0,0,0,1.68174,7.36192A3.33076,3.33076,0,0,0,214.58918,180.02877Z" transform="translate(0 -51.21832)"/><path class="cls-11" d="M439.88252,202.22105c.12774-.14545.29449-.26254.4151-.41867a15.87346,15.87346,0,0,0,3.08313-6.89,11.50957,11.50957,0,0,0,2.17132-1.08923,11.7075,11.7075,0,0,0,3.27826-3.49119,9.28236,9.28236,0,0,1-1.57886,9.033C446.03462,200.96861,443.45173,201.91947,439.88252,202.22105Z" transform="translate(0 -51.21832)"/><path class="cls-12" d="M144.61341,61.36834c7.5358,5.72281,18.55921,26.96425,25.17255,43.96237,14.82678,38.12957,11.70816,70.38732,9.79584,91.0185l-9.62552,85.505-7.39743-3.54794,9.41973-122.91787a63.59607,63.59607,0,0,0-3.30313-22.67484L156.78281,97.504Z" transform="translate(0 -51.21832)"/><polygon class="cls-9" points="380.057 179.826 391.311 148.523 480.654 161.586 477.107 188.604 380.057 179.826"/><path class="cls-13" d="M260.22971,264.64326c-7.89059-.777-13.546-9.22461-12.60223-18.804s8.13538-16.76395,16.026-15.987,13.54953,9.22461,12.60578,18.804S268.12385,265.42027,260.22971,264.64326Z" transform="translate(0 -51.21832)"/><path d="M263.40867,232.37843c6.5069.63864,11.12631,7.82672,10.31738,16.05081s-6.741,14.37265-13.25149,13.73047-11.11567-7.84445-10.31739-16.06854,6.74106-14.37265,13.2515-13.73047m.4967-5.00614c-9.28848-.91183-17.72189,7.26972-18.804,18.23987s5.59863,20.63831,14.9013,21.55011,17.7219-7.26614,18.804-18.23636S273.18675,228.26991,263.90537,227.35456Z" transform="translate(0 -51.21832)"/><path class="cls-14" d="M269.12437,234.98611a17.56252,17.56252,0,0,1,1.57882,9.38071c-.80893,8.22409-6.74105,14.36911-13.248,13.73046a10.00535,10.00535,0,0,1-5.71927-2.59707c1.813,3.71115,4.9671,6.29758,8.73856,6.6701,6.50689.64218,12.439-5.50637,13.248-13.7305C274.26533,242.94062,272.37782,237.90965,269.12437,234.98611Z" transform="translate(0 -51.21832)"/><path class="cls-13" d="M372.63868,276.33369c-7.89056-.777-13.546-9.22461-12.60223-18.804s8.13537-16.764,16.026-15.987,13.54956,9.22461,12.60577,18.804S380.53278,277.1107,372.63868,276.33369Z" transform="translate(0 -51.21832)"/><path d="M375.81757,244.0511c6.51044.64218,11.12983,7.82672,10.32093,16.05081s-6.74109,14.37265-13.25153,13.73047-11.12985-7.82672-10.31738-16.05083,6.74109-14.37265,13.248-13.73047m.49317-5.00256c-9.28845-.91538-17.73963,7.26614-18.804,18.23636s5.59857,20.63827,14.88709,21.57138,17.73962-7.26972,18.804-18.23636-5.59863-20.65956-14.88708-21.57134Z" transform="translate(0 -51.21832)"/><path class="cls-14" d="M381.53333,246.67655a17.562,17.562,0,0,1,1.5824,9.38071c-.809,8.22409-6.74109,14.37265-13.25152,13.7305a9.96267,9.96267,0,0,1-5.7157-2.59708c1.80945,3.71466,4.9671,6.30112,8.735,6.67365,6.5069.63861,12.439-5.51,13.25153-13.734C386.66358,254.63456,384.78681,249.60005,381.53333,246.67655Z" transform="translate(0 -51.21832)"/><path class="cls-13" d="M428.28791,281.81169c-7.89056-.777-13.54242-9.22461-12.59869-18.804s8.13537-16.75687,16.03308-15.97986,13.546,9.22461,12.60223,18.804S436.18214,282.58869,428.28791,281.81169Z" transform="translate(0 -51.21832)"/><path d="M431.47041,249.52912c6.50689.6422,11.12628,7.83031,10.31738,16.0544s-6.74109,14.36911-13.25153,13.73047-11.12628-7.82677-10.31738-16.06857S424.96,248.87631,431.47035,249.515m.48962-5.00257c-9.28491-.91537-17.72192,7.26615-18.804,18.23636s5.5951,20.63831,14.90131,21.55365,17.73962-7.26614,18.804-18.23636-5.59864-20.6383-14.90125-21.55368Z" transform="translate(0 -51.21832)"/><path class="cls-14" d="M437.18263,252.15455a17.53351,17.53351,0,0,1,1.58239,9.38071c-.809,8.22409-6.74109,14.37265-13.25152,13.7305a9.97681,9.97681,0,0,1-5.7157-2.59354c1.80945,3.71115,4.9671,6.29758,8.735,6.67011,6.51044.64218,12.44257-5.50638,13.25153-13.73047C442.32349,260.11256,440.436,255.08515,437.18263,252.15455Z" transform="translate(0 -51.21832)"/><path class="cls-13" d="M204.57691,259.16526c-7.89059-.777-13.54242-9.22461-12.59869-18.804s8.13541-16.764,16.026-15.987,13.54953,9.22461,12.60223,18.804S212.46043,259.94227,204.57691,259.16526Z" transform="translate(0 -51.21832)"/><path d="M207.75941,226.87913c6.50689.64218,11.12631,7.82672,10.31738,16.05438s-6.74106,14.36911-13.25149,13.73047-11.12632-7.83029-10.31739-16.05081,6.74106-14.37265,13.2515-13.734m.49316-5.00257c-9.28848-.91537-17.72189,7.26615-18.804,18.23636s5.59863,20.63828,14.9013,21.55365,17.73963-7.26614,18.804-18.23636-5.61637-20.63125-14.90128-21.55368Z" transform="translate(0 -51.21832)"/><path class="cls-14" d="M213.4716,229.50462a17.53372,17.53372,0,0,1,1.58236,9.3807c-.80893,8.2241-6.74106,14.37265-13.248,13.73046a9.98035,9.98035,0,0,1-5.71927-2.59708c1.813,3.71466,4.9671,6.30112,8.735,6.67365,6.51044.63861,12.44257-5.50638,13.2515-13.73047C218.61607,237.46255,216.71793,232.43165,213.4716,229.50462Z" transform="translate(0 -51.21832)"/><path class="cls-13" d="M316.98945,270.85569c-7.89056-.777-13.546-9.22461-12.60223-18.804s8.12475-16.76041,16.026-15.9834,13.54956,9.22461,12.60577,18.804S324.88361,271.6327,316.98945,270.85569Z" transform="translate(0 -51.21832)"/><path d="M320.1684,238.5731c6.5069.63864,11.12983,7.82672,10.31739,16.05081s-6.74109,14.37265-13.248,13.73047-11.11212-7.82672-10.32092-16.05084,6.741-14.37265,13.25152-13.73047m.50379-5.00614c-9.28845-.91183-17.73963,7.26615-18.804,18.23635s5.59864,20.64184,14.90131,21.55365,17.73962-7.26615,18.804-18.23635S329.95,234.48234,320.67219,233.567Z" transform="translate(0 -51.21832)"/><path class="cls-14" d="M325.88413,241.19856a17.55458,17.55458,0,0,1,1.5824,9.37716c-.81244,8.22409-6.74109,14.37265-13.25146,13.734a10.00529,10.00529,0,0,1-5.71924-2.59708c1.813,3.71115,4.9671,6.29758,8.73852,6.67011,6.5069.64218,12.439-5.50638,13.248-13.73047C331.025,249.153,329.13752,244.12205,325.88413,241.19856Z" transform="translate(0 -51.21832)"/><path class="cls-15" d="M201.96388,231.51274h0a3.4716,3.4716,0,0,1,3.47164,3.4716h0a3.47162,3.47162,0,0,1-3.47161,3.47163h0a3.47161,3.47161,0,0,1-3.47165-3.4716h0a3.47165,3.47165,0,0,1,3.47162-3.47165Z" transform="translate(0 -51.21832)"/><path class="cls-15" d="M258.47172,237.72514h0a3.47164,3.47164,0,0,1,3.47165,3.47162h0a3.47166,3.47166,0,0,1-3.47162,3.47165h0a3.47164,3.47164,0,0,1-3.47165-3.47162h0A3.47164,3.47164,0,0,1,258.47172,237.72514Z" transform="translate(0 -51.21832)"/><path class="cls-15" d="M313.04237,244.87776h0a3.4716,3.4716,0,0,1,3.47168,3.47152v.00013h0a3.47164,3.47164,0,0,1-3.47162,3.47164h-.00006a3.47162,3.47162,0,0,1-3.47162-3.47161v0h0a3.4716,3.4716,0,0,1,3.47159-3.47165Z" transform="translate(0 -51.21832)"/><path class="cls-15" d="M370.06464,249.35879h0a3.47165,3.47165,0,0,1,3.47165,3.47163h0a3.47165,3.47165,0,0,1-3.47165,3.47164h0a3.47165,3.47165,0,0,1-3.47164-3.47164h0a3.47165,3.47165,0,0,1,3.47164-3.47163Z" transform="translate(0 -51.21832)"/><path class="cls-15" d="M425.91615,256.82009h0a3.47164,3.47164,0,0,1,3.47168,3.47162v0h0a3.47164,3.47164,0,0,1-3.47168,3.47163h0a3.47162,3.47162,0,0,1-3.47168-3.47162v0h0a3.47164,3.47164,0,0,1,3.47168-3.47164Z" transform="translate(0 -51.21832)"/><path class="cls-12" d="M260.2439,159.78784a6.96315,6.96315,0,0,0,.02839,4.33557,3.781,3.781,0,0,0,3.31375,2.50128c1.71719,0,3.108-1.47594,3.78918-3.05476s.87988-3.32441,1.50788-4.921a9.81346,9.81346,0,0,1,6.31176-5.74409,1.80664,1.80664,0,0,0,1.22049-.70958c.447-.81249-.59961-1.64269-1.50079-1.8733C268.90083,148.8141,261.79435,154.07214,260.2439,159.78784Z" transform="translate(0 -51.21832)"/><path class="cls-12" d="M299.18952,116.18382a13.41244,13.41244,0,0,0,.05677,8.34472c1.03247,2.6361,3.54791,4.81455,6.38629,4.811,3.30664,0,5.97827-2.83833,7.28741-5.87536s1.69238-6.38626,2.90576-9.473a18.87847,18.87847,0,0,1,12.14453-11.02342,3.578,3.578,0,0,0,2.34876-1.334c.85858-1.56464-1.15662-3.16121-2.88446-3.60469C315.847,95.07366,302.17329,105.18879,299.18952,116.18382Z" transform="translate(0 -51.21832)"/><path class="cls-10" d="M398.56336,204.61589s20.66315,1.22047,37.84217,3.72177h.13128c1.34821.19159,10.6438,1.2879,15.6109-5.4177,6.84748-9.22461,1.56818-18.19021-2.182-21.64236a3.076,3.076,0,0,0-3.218-.589,3.04059,3.04059,0,0,0-1.90875,2.64321c0,.03547-.23774,3.77142-2.83832,5.55249-1.99042,1.36239-5.05225,1.41916-9.12879.13836a9.91635,9.91635,0,0,1-6.55658-8.6392A16.36423,16.36423,0,0,1,430.9701,168.175a21.71489,21.71489,0,0,1,11.42432-5.88956,30.25542,30.25542,0,0,1,25.57348,6.85814,20.3591,20.3591,0,0,1,5.49573,6.90781,4.34054,4.34054,0,0,1,.188.53575l.20935.64216a3.07959,3.07959,0,0,0,3.10089,1.9975,3.02283,3.02283,0,0,0,2.76386-2.41614c.57122-2.86318,1.06439-5.67669,1.483-8.2915.24481-1.4511.4754-2.83834.70959-4.1298.965-5.33961-.87634-9.89161-2.65387-14.30169-2.85962-7.071-5.815-14.38684,2.02942-27.03166,8.30213-13.37923,18.00574-14.75937,28.277-16.22112,5.17285-.738,10.52673-1.49722,15.2951-4.00916,2.7035-1.41917,4.93518-2.51193,6.773-3.34924-10.09735,14.614-31.89935,46.705-39.50256,62.34783-8.38733,17.26067-11.39593,37.1255-12.52417,44.601-.20221,1.31274-.3548,2.25293-.447,2.73547a2.69744,2.69744,0,0,0-.06384.7096l-2.61481,26.54913-86.89938-8.54344Z" transform="translate(0 -51.21832)"/><path d="M542.12672,92.50141a3.03339,3.03339,0,0,0-2.42322-1.774h-.0603c-1.0644-.10289-14.90131,3.58341-17.9596,4.58393a71.01113,71.01113,0,0,1-8.03253,2.10746,87.54,87.54,0,0,1-10.56573,1.224c-12.6413.9686-26.96424,2.0578-38.37793,20.10611-9.63263,15.23125-5.6767,24.79291-2.48352,32.47772,1.25952,3.04412,2.33807,5.76894,2.48352,8.515a36.35588,36.35588,0,0,0-19.07013-3.87434,36.82008,36.82008,0,0,0-16.57593-.69185,28.36649,28.36649,0,0,0-14.84808,7.57481,21.86413,21.86413,0,0,0-6.43592,16.87749,15.99361,15.99361,0,0,0,11.034,13.94338,19.83577,19.83577,0,0,0,10.90631.66345c.43994.18805.8728.39383,1.334.53927a24.63388,24.63388,0,0,0,5.70862,1.06441,11.22867,11.22867,0,0,1-1.35174,2.32746c-1.58594,2.09329-5.35028,3.07958-10.917,2.94479l-35.8518-3.54794c-11.70813-1.15308-15.03614-4.17948-15.9657-5.87891-2.32391-4.2114-1.08563-7.47549.70959-9.661a11.906,11.906,0,0,0,2.558,4.25753c3.35632,3.59759,8.806,5.109,16.20691,4.50586a16.79318,16.79318,0,0,0,14.78421-11.35337c1.813-5.83988.47186-12.588-3.594-18.05541-3.28894-4.42427-8.3341-8.01121-14.582-10.3706a46.03081,46.03081,0,0,0-24.70776-2.0046c8.515-4.9671,16.4624-10.59057,17.502-20.7873,2.19263-21.52527-12.11969-29.55777-22.5719-35.4225-3.43438-1.92652-6.67718-3.74662-8.62854-5.67668-5.60571-5.53832-8.77044-14.252-9.8703-17.71126,0,0-.63507-2.83834-1.02533-2.52613-.31933-.37962-1.49719,2.27778-1.49719,2.27778-1.75271,3.19312-6.55661,11.10859-13.12735,15.44411-2.28839,1.50076-5.82568,2.65385-9.57941,3.87434-11.39593,3.71114-27.00323,8.79886-29.04684,30.33832-.96506,10.22157,5.72992,17.29259,13.1167,23.803a46.08045,46.08045,0,0,0-24.59424-2.83833c-6.5885,1.0963-12.23678,3.62953-16.32046,7.32646-5.05579,4.56973-7.68836,10.92761-7.04975,17.00876a16.80335,16.80335,0,0,0,12.29,14.0143c7.142,2.03652,12.77255,1.61431,16.7746-1.2595a11.96375,11.96375,0,0,0,3.35278-3.65082c1.31275,2.48353,1.89459,5.93568-1.2063,9.61133-1.256,1.48655-5.09836,3.80693-16.81717,2.65031l-35.85177-3.5302c-5.48865-.95083-8.98337-2.65385-10.13288-5.01678a10.90972,10.90972,0,0,1-.8728-2.54739,24.32281,24.32281,0,0,0,5.80441.078c.479-.05322.94376-.17031,1.41916-.26966a19.87019,19.87019,0,0,0,10.82825,1.4795A16.02249,16.02249,0,0,0,250.48713,164.148a21.8789,21.8789,0,0,0-3.01929-17.807,28.34364,28.34364,0,0,0-13.08832-10.328,36.89848,36.89848,0,0,0-16.39141-2.558,36.38736,36.38736,0,0,0-19.46039.08514c.6741-2.67158,2.26358-5.13385,4.0943-7.87285,4.6123-6.9149,10.37057-15.52218,3.90271-32.33935-7.67417-19.9287-21.51108-23.79239-33.723-27.20195a88.43862,88.43862,0,0,1-10.12223-3.26409,71.31762,71.31762,0,0,1-7.45065-3.63308c-2.817-1.58239-15.6712-7.89415-16.71783-7.997h-.06031a3.04414,3.04414,0,0,0-2.76739,1.26664,2.97675,2.97675,0,0,0-.30866,2.95542c.24129.54992,24.353,55.04254,29.91611,76.29817,4.6123,17.68286,3.736,37.09358,3.40247,44.39877-.05323,1.17792-.09226,2.09682-.10288,2.71062v.09933L158.54969,280.81117a3.03347,3.03347,0,0,0,2.739,3.29956l154.01191,15.16383,2.52258.24835,154.0155,15.16739a3.03,3.03,0,0,0,3.32788-2.69928l.00006-.0007,10.03-101.86807V210.023c.11-.60669.24836-1.515.42932-2.68222,1.09278-7.22711,4.00208-26.43914,11.992-42.88025,9.60419-19.762,43.8808-68.50337,44.22137-69.00006A2.97317,2.97317,0,0,0,542.12672,92.50141Zm-72.25,29.44779c5.7157-9.02947,12.063-13.07765,18.77917-15.07869a38.54874,38.54874,0,0,0-12.56317,13.01735c-9.44812,15.22415-5.59863,24.76452-2.48352,32.42451,1.59656,3.94884,2.97668,7.35839,2.32031,10.99858-.23773,1.31273-.479,2.7248-.70959,4.20073a.977.977,0,0,1-.03546.1987,31.52239,31.52239,0,0,0-3.19312-3.12928c-.447-.37963-.92956-.70958-1.39081-1.06437a1.40963,1.40963,0,0,1,.04261-.2448c.97924-5.35382-.91535-9.9342-2.74256-14.34073-3.101-7.37968-5.99249-14.35846,1.97614-26.97133Zm-43.31665,42.05713a22.16889,22.16889,0,0,0-6.32953,16.84556,16.24274,16.24274,0,0,0,2.5971,7.53224,22.76046,22.76046,0,0,1-2.221-.56765,9.98628,9.98628,0,0,1-6.74109-8.66757,16.0149,16.0149,0,0,1,4.71875-12.1623h0a22.10333,22.10333,0,0,1,11.25757-5.76539A24.01424,24.01424,0,0,0,426.56007,164.00633Zm-184.219-14.37622h0a16.00507,16.00507,0,0,1,2.25647,12.847,10.02519,10.02519,0,0,1-8.31988,7.18457c-.7096.07449-1.49369.12062-2.28842.12417A16.2779,16.2779,0,0,0,238.0055,162.91a22.16536,22.16536,0,0,0-2.92-17.75737,24.27775,24.27775,0,0,0-2.661-3.37409A22.147,22.147,0,0,1,242.34107,149.63011ZM200.79841,95.46748c5.35739,13.92206,1.15662,20.22319-3.28894,26.86134-2.65384,3.96659-5.4035,8.08573-5.48508,13.546v.24836c-.52154.26255-1.06439.48252-1.57171.7699a32.06187,32.06187,0,0,0-3.74662,2.44454v-.20224c.04969-1.49723.08872-2.927.11-4.25751.06741-3.70049,2.08618-6.77654,4.42071-10.3351,4.5307-6.91138,10.16837-15.51864,3.87433-32.28615a38.49,38.49,0,0,0-9.78518-15.217c6.20175,3.2498,11.63006,8.45462,15.47247,18.42782ZM469.39423,308.38922,318.41572,293.52339l-2.52258-.24837-150.975-14.86582.90472-9.17846,150.982,14.86581,2.519.24835,150.982,14.86582Zm1.39789-14.19167-150.982-14.86584-2.519-.24837-150.982-14.86579,5.19769-52.77182,150.97834,14.86579,2.52258.24835,150.97848,14.86581Zm21.34076-132.37669c-8.39087,17.26066-11.39947,37.1255-12.53125,44.601-.19867,1.31275-.33349,2.25293-.44348,2.73548a2.70029,2.70029,0,0,0-.06384.70959L476.47938,236.416,325.50092,221.55018l-2.52258-.24835L172.01405,206.45017l2.6148-26.54914a2.65024,2.65024,0,0,0,.07453-.7096c0-.49316.039-1.44046.09933-2.76738.3548-7.55355,1.27371-27.6206-3.587-46.1869-4.42426-16.82781-19.54554-52.54832-26.60236-68.8688,1.63916,1.17791,3.6189,2.67869,5.99246,4.6123,4.183,3.39182,9.285,5.18352,14.2201,6.91492,9.78521,3.438,19.03463,6.68076,24.56585,21.426,5.22965,13.92917.90473,20.52831-3.28183,26.90748-2.60061,3.97724-5.29352,8.08219-5.38931,13.5105-.02484,1.30919-.071,2.71771-.11353,4.18656-.0816,2.64319-.1632,5.49928-.1632,8.42277a3.02639,3.02639,0,0,0,2.23874,2.9093,3.08667,3.08667,0,0,0,3.43084-1.35531l.3335-.589a4.42281,4.42281,0,0,1,.28738-.48961,20.28863,20.28863,0,0,1,6.74106-5.70153,30.2361,30.2361,0,0,1,26.42142-1.742,21.77473,21.77473,0,0,1,10.05481,8.00768,16.4023,16.4023,0,0,1,2.182,12.879,9.91839,9.91839,0,0,1-8.1141,7.19519c-4.25751.45415-7.24133-.19159-8.92658-1.91587-2.21035-2.25647-1.71719-5.96762-1.70654-5.99954a3.037,3.037,0,0,0-1.35531-2.96607,3.07607,3.07607,0,0,0-3.27118-.04968c-4.35331,2.66451-11.286,10.44155-6.365,20.80859,2.00811,4.23624,6.8475,7.04975,14.39038,8.36957L265.1471,191.478c11.22562,1.10339,18.44922-.45769,22.0965-4.779a14.08014,14.08014,0,0,0,3.65436-10.64378c-.63507-6.6027-6.145-11.14759-6.38626-11.35337a3.08673,3.08673,0,0,0-3.19312-.41866,3.00507,3.00507,0,0,0-1.774,2.64675,7.31932,7.31932,0,0,1-2.75674,5.09127c-2.37,1.67107-6.33661,1.774-11.45981.31932a10.8392,10.8392,0,0,1-7.90121-8.83081c-.43286-4.12623,1.51852-8.703,5.10193-11.93522a25.93582,25.93582,0,0,1,13.22311-5.83634,39.79,39.79,0,0,1,29.99063,7.3655,22.05066,22.05066,0,0,1,6.4466,7.06037,20.1794,20.1794,0,0,1,2.08264,7.80544,3.03352,3.03352,0,0,0,2.72833,2.73544,2.85139,2.85139,0,0,0,3.2251-2.12875c2.1607-7.032.02484-14.52877-5.85053-20.578-2.52966-2.59353-5.33966-5.01677-8.05023-7.35485-7.96509-6.86879-14.841-12.79383-14.03912-21.28756,1.67462-17.62256,14.01428-21.64235,24.89935-25.19028,4.144-1.3482,8.06085-2.62547,11.03052-4.57682a42.01821,42.01821,0,0,0,9.96966-9.771,41.73592,41.73592,0,0,0,7.87281,11.52722c2.5332,2.48355,6.12725,4.50942,9.9342,6.64171,9.98389,5.59863,21.28754,11.94942,19.51361,29.55779-.86926,8.47954-8.767,12.95347-17.917,18.13345-3.11859,1.774-6.34369,3.594-9.331,5.64474-6.93975,4.772-10.49475,11.70816-9.74969,19.02753a2.857,2.857,0,0,0,2.75317,2.70708,3.04059,3.04059,0,0,0,3.19312-2.15,20.4536,20.4536,0,0,1,3.54791-7.24842,22.30007,22.30007,0,0,1,7.70258-5.67668,39.78285,39.78285,0,0,1,30.867-1.3766,26.01643,26.01643,0,0,1,11.83234,8.30215c2.88092,3.87078,3.90271,8.73854,2.67511,12.70157a10.83774,10.83774,0,0,1-9.46942,7.12069c-5.3219.4364-9.182-.44348-11.17951-2.54741a7.30105,7.30105,0,0,1-1.71008-5.5312A3.0015,3.0015,0,0,0,377.4853,173.71a3.07255,3.07255,0,0,0-3.21088-.21288c-.26965.14192-6.56012,3.52308-8.47247,9.87742a14.16491,14.16491,0,0,0,1.51141,11.144c2.73194,4.94939,9.51557,7.89059,20.74121,8.994l48.35114,4.82523c7.65643.1774,12.95349-1.63913,15.74573-5.39993,6.84747-9.2246,1.56817-18.19022-2.182-21.64237a3.076,3.076,0,0,0-3.218-.589,3.0406,3.0406,0,0,0-1.90881,2.6432c0,.03549-.23767,3.77145-2.83832,5.55252-1.99036,1.3624-5.05225,1.41916-9.12878.13837a9.91635,9.91635,0,0,1-6.55658-8.63921,16.364,16.364,0,0,1,4.6549-12.20842,21.71491,21.71491,0,0,1,11.42432-5.88955,30.24609,30.24609,0,0,1,25.57349,6.8617,20.31508,20.31508,0,0,1,5.49572,6.90427,4.55573,4.55573,0,0,1,.188.53574l.20935.64218a3.07959,3.07959,0,0,0,3.10089,1.99748,3.02278,3.02278,0,0,0,2.7638-2.41612c.57123-2.86318,1.06439-5.67668,1.483-8.29151.24481-1.45109.47546-2.83834.70959-4.12979.965-5.33963-.87634-9.89515-2.65026-14.30169-2.86316-7.071-5.81861-14.38685,2.02587-27.03167,8.30219-13.37922,18.00574-14.75938,28.277-16.21757,5.17285-.74152,10.52674-1.50078,15.29511-4.0127,2.70349-1.41917,4.93518-2.51193,6.773-3.34924-10.108,14.60326-31.9101,46.69426-39.50971,62.33707Zm-277.54367,18.208c-3.45569-.98277-5.80441-2.41969-6.66656-4.23977a9.26772,9.26772,0,0,1,.21286-9.16429,11.73348,11.73348,0,0,0,2.53323,4.06237,11.50646,11.50646,0,0,0,1.91589,1.49015,15.93722,15.93722,0,0,0,1.68174,7.36194,3.33587,3.33587,0,0,0,.32281.48956Zm225.29337,22.1923c.12774-.14545.29449-.26255.4151-.41868a15.87361,15.87361,0,0,0,3.08313-6.89,11.509,11.509,0,0,0,2.17132-1.08923,11.70759,11.70759,0,0,0,3.27826-3.49118,9.28235,9.28235,0,0,1-1.57886,9.033c-1.21691,1.60364-3.7998,2.55451-7.369,2.85608Z" transform="translate(0 -51.21832)"/></g></g></svg>