<?xml version="1.0" encoding="utf-8"?>
<!-- Generator: Adobe Illustrator 25.0.1, SVG Export Plug-In . SVG Version: 6.00 Build 0)  -->
<svg version="1.1" id="PefiVaccineCrown" xmlns="http://www.w3.org/2000/svg" xmlns:xlink="http://www.w3.org/1999/xlink" x="0px"
	 y="0px" viewBox="0 0 542.4 774.3" style="enable-background:new 0 0 542.4 774.3;" xml:space="preserve">
<style type="text/css">
	.penguin_vaccine_crown-st0{fill:#2D2D2D;}
	.penguin_vaccine_crown-st1{fill:#E5C333;}
	.penguin_vaccine_crown-st2{fill:#FFFFFF;}
	.penguin_vaccine_crown-st3{fill:#DCE9FF;}
	.penguin_vaccine_crown-st4{fill:#A6C3E2;}
	.penguin_vaccine_crown-st5{fill:#384E84;}
	.penguin_vaccine_crown-st6{fill:#00C633;}
	.penguin_vaccine_crown-st7{opacity:0.3;fill:#FFFFFF;enable-background:new    ;}
	.penguin_vaccine_crown-st8{fill:#C7D9EA;stroke:#000000;stroke-width:1.5;stroke-linecap:round;stroke-miterlimit:10;}
	.penguin_vaccine_crown-st9{fill:#C57F00;}
	.penguin_vaccine_crown-st10{opacity:0.4;fill:#8D5D15;enable-background:new    ;}
	.penguin_vaccine_crown-st11{fill:#A56921;}
	.penguin_vaccine_crown-st12{fill:#8D5D15;}
	.penguin_vaccine_crown-st13{fill:#FFB700;}
	.penguin_vaccine_crown-st14{fill:#6FBE44;}
	.penguin_vaccine_crown-st15{fill:#65AB45;}
	.penguin_vaccine_crown-st16{fill:#D4F4D0;}
</style>
<g id="Color">
	<path id="color-2" class="penguin_vaccine_crown-st0" d="M473.2,278.6c-14.7-26.8-35.8-49.7-61.4-66.4c-27.3-17.8-58.5-28.5-91-31.1
		c-34.4-2.7-69,3.7-100.2,18.4l-1.8,0.8l1.9-0.2c49.3-4,95.6,11.6,130.4,44c35.1,32.6,54.2,78.6,53.9,129.3v4.8h-0.2v0.3
		c-2.2,54.2-39.7,96.5-72.8,133.8c-30.8,34.7-55.2,62.2-40.7,87c1.7,3,4.7,5,8.7,5.9c19.1,4.1,57.2-14,85.8-29.9l0.2-0.1
		c0.7-0.4,1.3-0.7,1.9-1.1c0.6-0.3,1.2-0.7,1.9-1l0.1-0.1c0.3-0.2,0.6-0.4,0.9-0.5h0.1c23.2-13.3,44.5-27.3,56.6-35.9
		c2.1-1.6,5.2-1.2,6.8,0.9c0.1,0.1,0.1,0.2,0.2,0.3c1.7,2.1,1.3,5.1-0.7,6.7c-0.1,0.1-0.2,0.2-0.4,0.3c-0.2,0.2-25,17.8-55.8,35.5
		l-2.9,1.7l20.5,15.6l9.1-12l27.8,21.1l-18.7,24.4l-0.2,0.3l13.8,10.4l9-11.9l23.4,17.8l-50.6,67L412.1,702l-0.2,0.4
		c-3.8,9.2-8.4,18.1-13.6,26.6l-0.5,0.8l0.9-0.3c29.2-9.5,67.1-28.7,81.6-65.7c4.3-11.4,6.5-23.6,6.4-35.8c0-0.1,0-0.2,8.2-255.2
		C496,338.9,488.6,307.2,473.2,278.6z"/>
	<g id="color-2-2">
		<path class="penguin_vaccine_crown-st0" d="M104.7,503.5v45.8c-3,2.6-6.2,5.1-9,8c-3.1,3.1-6.1,6.3-8.8,9.7C84.2,539.8,95.8,516.7,104.7,503.5z"/>
	</g>
	<g id="color-3">
		<path class="penguin_vaccine_crown-st0" d="M152.6,393.8l70.5-19.5c2.3,12.4,1.4,25.1-2.7,37L152.6,393.8z"/>
	</g>
</g>
<g id="Shape">
	<g id="Layer_1-2">
		<polygon class="penguin_vaccine_crown-st1" points="51.8,633.2 40.3,624.3 31.5,623 24.3,629.7 24.3,640.9 21.1,647.8 8.7,649.7 5.4,655.4 5.4,667.9 
			25.7,712.7 43.7,734.2 65.2,752.1 86.8,753.5 106.8,748.1 121.4,729.8 125.1,699.4 117.5,674.5 101.1,647 87,629.7 73.6,618.1 
			60.9,614.4 52.3,623.9 		"/>
		<path class="penguin_vaccine_crown-st2" d="M292.2,746.4c-69.1,2.8-133.1-6.9-150.6-13.4c-4.7-1.6-9.3-3.6-13.8-5.9c11.2-38.2-17.3-88.2-52-113.9
			c8.9-38.1,41.5-68.8,80.1-75.4c2.9-0.5,4.9-3.3,4.4-6.3l0,0c-2.2-12.3-38.5,6.3-44.9,10.4V404c16.9,15.3,45.5,19.2,66.1,8.4
			l45.1,11.6c9.4-19.7,10.9-42.3,4.1-63.1l-15.7,4.4c6.8-47.7-46.9-84.2-88.6-60.8c13.2-36.7,37.7-68.3,69.8-90.4
			c103.2-22.7,199.6,49.7,198.2,160c-0.2,52.4-37.5,94.4-70.4,131.5c-32.3,36.4-60.2,67.8-41.9,99.2c19.4,28.1,71.7-1.4,103.3-17.2
			c-3.3,16.9-7.8,33.6-13.4,49.9c-0.1,0.1-0.2,0.1-0.3,0.2c-15.3-38.4-55.9,15.8-67,34.7C288.6,697.6,284.6,726,292.2,746.4z"/>
		<circle cx="307.9" cy="351.6" r="58.5"/>
		<g>
			<path class="penguin_vaccine_crown-st2" d="M314.6,532.2l-72.7-55.1c-1.5-1.1-3.7-0.8-4.8,0.7l-10,13.2l-24-9.3c-0.8-0.3-1.6-0.2-2.3,0.1L91.2,398.9
				c-0.7,0.9-0.5,2.3,0.4,3l107.7,81.6c-0.3,0.8-0.1,1.6,0.3,2.3l13.7,23.4L202,524.1c-1.1,1.5-0.8,3.7,0.7,4.8l86.1,65.2
				C282.1,575.7,294.9,555.6,314.6,532.2z"/>
			<path class="penguin_vaccine_crown-st2" d="M427.3,682.4l-9.7,12.9l9.7,7.3l40.3-53.2l-9.7-7.3l-9.1,11.8L421.2,633l18.8-24.7l-14.1-10.7l-9.1,12
				l-39.3-29.8c-25.2,13.5-55.2,26.9-73.3,25.9l73.4,55.6l-10.3,13.6l14.1,10.7l18.3-24.1L427.3,682.4z"/>
		</g>
		<path d="M414.7,684.2l-9.7,12.9l6.9,5.2l0.2-0.3l16.7,12.7l50.6-67L456,629.9l-9,11.9l-13.8-10.4l0.2-0.3l18.7-24.4l-27.8-21.1
			l-9.1,12L394.7,582l0.3-0.2l-8.9-6.7c-0.1,0-0.1,0.1-0.2,0.1l-0.2,0.1c-5.4,3-11.2,6.1-17.1,9.1l49.6,37.6l-9.7,12.7L446,663
			l-10.7,14.1L398,648.9l-8,10.5l-72.5-54.9c-6.7,1.4-12.7,1.7-17.5,0.7c-4-0.9-7-2.9-8.7-5.9c-3.4-5.8-4.6-11.7-4.2-17.8
			l-74.5-56.4l11.5-15.2l-7.8-13.4l13.9,5.4l10.8-14.2l68,51.5c3.6-4.5,7.5-9.1,11.6-13.8l-73.2-55.4l-0.1-0.1
			c-5.5-4-13.3-2.9-17.3,2.6l-5.9,7.8l-17.7-6.8l-0.1,0c-0.9-0.3-1.8-0.5-2.7-0.7l-114-86.2l-5.5,7c-1.8,2.3-2.6,5.4-2.2,8.3
			c0.4,2.9,1.9,5.5,4.2,7.3l104.9,79.5c0.2,0.6,0.5,1.3,0.9,1.9l10.7,18.2l-7.7,10.1l-0.1,0.1c-4,5.5-2.9,13.3,2.6,17.3L365,663
			l-10.3,13.6l28.4,21.6l18.3-24.1L414.7,684.2z"/>
		<g>
			<path class="penguin_vaccine_crown-st3" d="M435.3,688.4l21.6-28.5l-95.1-72c-13.3,6.5-27,12.2-38.9,15.3L435.3,688.4z"/>
			<path class="penguin_vaccine_crown-st3" d="M304.6,544.6l-15.6-11.8l-21.6,28.5l20.2,15.3C289.8,566.6,296,556,304.6,544.6z"/>
		</g>
		<g>
			<path class="penguin_vaccine_crown-st4" d="M439.3,674.2l5.8-7.7L349,593.8c-3.5,1.5-6.9,2.9-10.3,4.2L439.3,674.2z"/>
			<path class="penguin_vaccine_crown-st4" d="M297.5,554.8l-20.2-15.3l-5.8,7.7l21.1,16C294.1,560.5,295.7,557.7,297.5,554.8z"/>
		</g>
		
			<rect x="409.3" y="666.2" transform="matrix(0.6038 -0.7972 0.7972 0.6038 -360.5489 619.2829)" class="penguin_vaccine_crown-st2" width="66.8" height="12.2"/>
		<path class="penguin_vaccine_crown-st2" d="M220.7,496.9L91.9,399.4c-0.7,0.9-0.5,2.3,0.4,3l0,0l128.3,97.2L220.7,496.9L220.7,496.9z"/>
		<path class="penguin_vaccine_crown-st5" d="M203.8,482.2c-1-0.4-2.1-0.2-2.9,0.5l0,0c-1,0.9-1.3,2.4-0.6,3.6l14.5,24.8l14.5-19.1L203.8,482.2z"/>
		<g>
			<path class="penguin_vaccine_crown-st2" d="M314.3,532.6l-71.1-53.8c-1.5-1.1-3.6-0.8-4.7,0.7L204.1,525c-1.1,1.5-0.8,3.6,0.7,4.7l83.7,63.4
				C282.6,575.1,295.1,555.4,314.3,532.6z"/>
			<path class="penguin_vaccine_crown-st2" d="M418.9,611.9l-42-31.8c-24.7,13.1-53.7,26.1-71.7,25.6l75.3,57c1.5,1.1,3.6,0.8,4.7-0.7l34.4-45.5
				C420.7,615.1,420.4,613,418.9,611.9z"/>
		</g>
		<g>
			<path class="penguin_vaccine_crown-st6" d="M309.5,538.5l-63.4-48c-1.3-1.1-3.2-0.9-4.3,0.4L216,525.1c-0.9,1.4-0.6,3.2,0.8,4.2l70.2,53.2
				C287.6,569,296.5,554.5,309.5,538.5z"/>
			<path class="penguin_vaccine_crown-st6" d="M404.9,610.7L369.6,584c-18.2,9.3-37.8,17.8-53.2,20.7l59.3,44.9c1.3,1.1,3.2,0.9,4.3-0.4l25.8-34.2
				C406.6,613.6,406.3,611.7,404.9,610.7z"/>
		</g>
		<path class="penguin_vaccine_crown-st3" d="M405.9,611.2l-35.4-27.1c-10.3,5.3-21.1,10.4-31.3,14.3l-12.2,15l49.5,37.2c1.3,1.1,3.2,0.9,4.3-0.4
			l25.8-34.7C407.6,614.2,407.3,612.3,405.9,611.2z"/>
		<g>
			<path class="penguin_vaccine_crown-st7" d="M398,619.7c1.2,1,2.9,0.8,3.9-0.3l2.1-2.8c0.9-1.3,0.5-3-0.7-3.9c0,0,0,0-0.1,0L367,585.3
				c-2.9,1.5-5.9,2.9-8.8,4.3L398,619.7z"/>
			<path class="penguin_vaccine_crown-st7" d="M307.8,540.5l-61-46.1c-1.2-1-2.9-0.8-3.9,0.3l-2.1,2.9c-0.9,1.3-0.5,3,0.7,3.9c0,0,0,0,0.1,0l60.9,46
				C304.2,545.2,305.9,542.9,307.8,540.5z"/>
		</g>
		
			<rect x="354.7" y="631.8" transform="matrix(0.6038 -0.7972 0.7972 0.6038 -351.1292 574.5402)" class="penguin_vaccine_crown-st2" width="95.3" height="17.4"/>
		<path d="M450.2,230.4c-65.6-69.8-181.5-79.5-259.7-25.5c-38.6,26.4-66.5,65.6-78.8,110.7c-19.7,18.7-23.1,54.1-6.9,76.4v17.2
			l10.8,8.2v-13.3c16.9,15.3,45.5,19.2,66.1,8.4l45.1,11.6c9.4-19.7,10.9-42.3,4.1-63.1l-15.7,4.4c6.8-47.7-46.9-84.2-88.6-60.8
			c13.2-36.7,37.7-68.3,69.8-90.4c103.2-22.7,199.6,49.7,198.2,160c-0.2,52.4-37.5,94.4-70.4,131.5c-32.3,36.4-60.2,67.8-41.9,99.2
			c19.4,28.1,71.7-1.4,103.3-17.2l12.3-6.9c29.6-17,53.7-34,55.8-35.5c5.7-4.1-0.5-12.9-6.3-8.8c-12.2,8.7-33.5,22.7-56.6,35.9
			c-0.4,0.2-0.7,0.4-1.1,0.6c-33.6,19.1-70.9,36.2-89.6,32.2c-4-0.9-6.8-2.7-8.5-5.7c-14.3-24.7,9.9-52,40.7-86.6
			c33.2-37.4,70.7-79.8,72.9-134h0.2v-5.2c0.8-105.5-83-181.8-184.6-173.6c128-59.9,277.9,28.6,274.1,173.1
			c-8.2,255-8.2,255-8.2,255.2c0,12.2-2.1,24.3-6.4,35.7c-13.5,34.4-47.7,54.5-81.4,65.5c6.2-10.2,30-51.7,15.3-67.7
			c-3.4-3.8-8.4-5.5-13.4-4.6c2.1-10.2-3-24.5-15.8-24.1c0,0-13.1,4.6-13.2,4.7c-15.3-38.4-55.9,15.8-67,34.7
			c-16,25.3-20,53.7-12.4,74.2c-69.1,2.8-133.1-6.9-150.6-13.4c-4.7-1.6-9.3-3.6-13.8-5.9c11.2-38.2-17.3-88.2-52-113.9
			c8.9-38.1,41.5-68.8,80.1-75.4c2.9-0.5,4.9-3.3,4.4-6.3l0,0c-2.2-12.3-38.5,6.3-44.9,10.4V420l-10.8-8.2v73.9
			c-7.3,8.1-37.7,45.7-26.7,94c-5.5,9.2-9.6,19.1-12.3,29.4c-9-1.9-17.1,5.4-18.6,12.9c-16.7-11.9-32.5,0.6-29,19.4
			c-5-0.9-10.1,0.9-13.5,4.6c-15.9,17.2,13.1,64.2,16.4,69.5c24.6,39.4,77.1,63.3,102.7,21.5c4.6,2.3,9.3,4.4,14.2,6.1
			c14.7,7.4,107.6,17.9,159.6,13.8c23.4,32.9,69.3,13.9,90.8-13.3c56.1-14.4,110.2-52,109-115.5c0-1.5,8.2-255,8.2-255
			C507.4,320,487.4,268.4,450.2,230.4z M223,374.2c2.3,12.4,1.4,25.1-2.7,37l-67.7-17.5L223,374.2z M104.7,503.5v45.8
			c-3,2.6-6.2,5.1-9,8c-3.1,3.1-6.1,6.3-8.8,9.7C84.2,539.8,95.8,516.7,104.7,503.5z M103.9,743.5c-20.6,13-53.7-2.1-73.7-33.7
			c-16.2-24.3-30.7-68.1-7.7-55.1c4.1,3.3,10.3-1.3,8.4-6.1c-6.8-20.4,2.2-27.5,16.8-11.8c3.3,4.1,10.4,0.8,9.4-4.3
			c-1.4-29.8,27.4-2.6,47.9,30.1C125.1,694.1,124.5,730.5,103.9,743.5L103.9,743.5z M313.7,678c19.2-30.8,49.2-60.7,47.9-30.1
			c-0.9,5.2,6.1,8.4,9.4,4.3c2.2-2.5,11.3-11.1,16.3-8c4.7,3,2.3,14.8,0.5,19.8c-2,4.9,4.3,9.5,8.3,6.2c22.9-13.4,8.6,30.9-7.7,55.1
			C343.1,796,266.3,761.3,313.7,678z"/>
		<circle class="penguin_vaccine_crown-st2" cx="286.8" cy="333.9" r="19.1"/>
		<circle class="penguin_vaccine_crown-st2" cx="133.1" cy="339.6" r="19.7"/>
		<path class="penguin_vaccine_crown-st1" d="M388.5,725.3c-45.4,70.7-122.2,36-74.8-47.3c19.2-30.8,49.2-60.7,47.9-30.1c-0.9,5.2,6.1,8.4,9.4,4.3
			c2.2-2.5,11.3-11.1,16.3-8c4.7,3,2.3,14.8,0.5,19.8c-2,4.9,4.3,9.5,8.3,6.2C419.1,656.9,404.8,701.1,388.5,725.3z"/>
		<path class="penguin_vaccine_crown-st8" d="M342.2,375.6"/>
		<path class="penguin_vaccine_crown-st8" d="M503.4,334.4"/>
	</g>
	<path class="penguin_vaccine_crown-st9" d="M492.2,110.6c-8.4,17.3-11.4,37.1-12.5,44.6c-0.2,1.3-0.3,2.3-0.4,2.7c-0.1,0.2-0.1,0.5-0.1,0.7l-2.6,26.5
		l-151-14.9l-2.5-0.2l-151-14.9l2.6-26.5c0.1-0.2,0.1-0.5,0.1-0.7c0-0.5,0-1.4,0.1-2.8c0.4-7.6,1.3-27.6-3.6-46.2
		c-4.4-16.8-19.5-52.5-26.6-68.9c1.6,1.2,3.6,2.7,6,4.6c4.2,3.4,9.3,5.2,14.2,6.9c9.8,3.4,19,6.7,24.6,21.4
		c5.2,13.9,0.9,20.5-3.3,26.9c-2.6,4-5.3,8.1-5.4,13.5c0,1.3-0.1,2.7-0.1,4.2c-0.1,2.6-0.2,5.5-0.2,8.4c0,1.4,0.9,2.6,2.2,2.9
		c1.3,0.4,2.7-0.2,3.4-1.4l0.3-0.6c0.1-0.2,0.2-0.3,0.3-0.5c1.8-2.4,4.1-4.3,6.7-5.7c8.1-4.6,17.8-5.3,26.4-1.7
		c4.1,1.6,7.6,4.4,10.1,8c2.5,3.8,3.3,8.5,2.2,12.9c-1,3.8-4.2,6.6-8.1,7.2c-4.3,0.5-7.2-0.2-8.9-1.9c-2.2-2.3-1.7-6-1.7-6
		c0.2-1.2-0.4-2.3-1.4-3c-1-0.6-2.3-0.7-3.3,0c-4.4,2.7-11.3,10.4-6.4,20.8c2,4.2,6.8,7,14.4,8.4l48.4,4.8
		c11.2,1.1,18.4-0.5,22.1-4.8c2.6-2.9,4-6.7,3.7-10.6c-0.6-6.6-6.1-11.1-6.4-11.4c-0.9-0.7-2.1-0.9-3.2-0.4c-1,0.5-1.7,1.5-1.8,2.6
		c-0.2,2-1.2,3.8-2.8,5.1c-2.4,1.7-6.3,1.8-11.5,0.3c-4.2-1.1-7.3-4.6-7.9-8.8c-0.4-4.1,1.5-8.7,5.1-11.9c3.8-3.2,8.4-5.2,13.2-5.8
		c10.6-1.7,21.4,1,30,7.4c2.6,1.9,4.8,4.3,6.4,7.1c1.2,2.4,1.9,5.1,2.1,7.8c0.1,1.4,1.3,2.6,2.7,2.7c1.5,0.2,2.9-0.7,3.2-2.1
		c2.2-7,0-14.5-5.9-20.6c-2.5-2.6-5.3-5-8.1-7.4c-8-6.9-14.8-12.8-14-21.3c1.7-17.6,14-21.6,24.9-25.2c4.1-1.3,8.1-2.6,11-4.6
		c3.8-2.7,7.2-6,10-9.8c2,4.3,4.6,8.2,7.9,11.5c2.5,2.5,6.1,4.5,9.9,6.6c10,5.6,21.3,11.9,19.5,29.6c-0.9,8.5-8.8,13-17.9,18.1
		c-3.1,1.8-6.3,3.6-9.3,5.6c-6.9,4.8-10.5,11.7-9.7,19c0.1,1.5,1.3,2.7,2.8,2.7c1.4,0.1,2.8-0.8,3.2-2.1c0.7-2.6,1.9-5.1,3.5-7.2
		c2.1-2.4,4.8-4.4,7.7-5.7c9.7-4.6,20.8-5.1,30.9-1.4c4.6,1.6,8.8,4.5,11.8,8.3c2.9,3.9,3.9,8.7,2.7,12.7c-1.5,4-5.2,6.8-9.5,7.1
		c-5.3,0.4-9.2-0.4-11.2-2.5c-1.3-1.5-1.9-3.5-1.7-5.5c0.2-1.1-0.3-2.3-1.2-2.9c-0.9-0.7-2.2-0.8-3.2-0.2c-0.3,0.1-6.6,3.5-8.5,9.9
		c-1.1,3.8-0.5,7.8,1.5,11.1c2.7,4.9,9.5,7.9,20.7,9l48.4,4.8c7.7,0.2,13-1.6,15.7-5.4c6.8-9.2,1.6-18.2-2.2-21.6
		c-0.9-0.8-2.1-1-3.2-0.6s-1.8,1.5-1.9,2.6c0,0-0.2,3.8-2.8,5.6c-2,1.4-5.1,1.4-9.1,0.1c-3.7-1.3-6.3-4.7-6.6-8.6
		c-0.2-4.5,1.5-9,4.7-12.2c3.1-3.1,7.1-5.1,11.4-5.9c9.1-1.8,18.6,0.8,25.6,6.9c2.3,1.9,4.2,4.2,5.5,6.9c0.1,0.2,0.1,0.4,0.2,0.5
		l0.2,0.6c0.5,1.3,1.7,2.1,3.1,2s2.5-1.1,2.8-2.4c0.6-2.9,1.1-5.7,1.5-8.3c0.2-1.5,0.5-2.8,0.7-4.1c1-5.3-0.9-9.9-2.7-14.3
		c-2.9-7.1-5.8-14.4,2-27c8.3-13.4,18-14.8,28.3-16.2c5.2-0.7,10.5-1.5,15.3-4c2.7-1.4,4.9-2.5,6.8-3.3
		C521.6,62.9,499.8,95,492.2,110.6z"/>
	<polygon class="penguin_vaccine_crown-st9" points="325,175.3 322.5,175.1 171.5,160.2 170.1,175.2 166.3,213 164.9,228 315.8,242.9 318.4,243.1 
		469.3,258 470.8,243 474.5,205.2 476,190.2 	"/>
	<polygon class="penguin_vaccine_crown-st10" points="354.8,249.5 380.3,178.6 477.1,188.6 474,258.2 	"/>
	<polygon class="penguin_vaccine_crown-st11" points="363.1,250.4 388.6,179.5 479.6,194.6 474,258.2 	"/>
	<polygon class="penguin_vaccine_crown-st12" points="472.2,251.8 164,217.8 472.9,244.6 	"/>
	<polygon class="penguin_vaccine_crown-st12" points="475.5,195.6 165.7,159.1 476.6,184.8 	"/>
	<path class="penguin_vaccine_crown-st12" d="M469.9,70.7c5.7-9,12.1-13.1,18.8-15.1c-5.2,3.3-9.5,7.7-12.6,13c-9.4,15.2-5.6,24.8-2.5,32.4
		c1.6,3.9,3,7.4,2.3,11c-0.2,1.3-0.5,2.7-0.7,4.2c0,0.1,0,0.1,0,0.2c-1-1.1-2.1-2.2-3.2-3.1c-0.4-0.4-0.9-0.7-1.4-1.1
		c0-0.1,0-0.2,0-0.2c1-5.4-0.9-9.9-2.7-14.3C464.8,90.3,461.9,83.4,469.9,70.7z"/>
	<path class="penguin_vaccine_crown-st12" d="M426.6,112.8c-4.4,4.5-6.7,10.6-6.3,16.8c0.2,2.7,1.1,5.3,2.6,7.5c-0.7-0.2-1.5-0.3-2.2-0.6
		c-3.8-1.3-6.4-4.7-6.7-8.7c-0.2-4.5,1.5-9,4.7-12.2l0,0c3.1-3,7-5,11.3-5.8C428.7,110.8,427.6,111.8,426.6,112.8z"/>
	<path class="penguin_vaccine_crown-st12" d="M242.4,98.4L242.4,98.4c2.5,3.8,3.4,8.4,2.3,12.8c-1.1,3.8-4.4,6.7-8.3,7.2c-0.7,0.1-1.5,0.1-2.3,0.1
		c1.9-1.9,3.3-4.3,4-6.9c1.6-6.1,0.5-12.5-2.9-17.8c-0.8-1.2-1.7-2.3-2.7-3.4C236.5,92.2,239.9,94.9,242.4,98.4z"/>
	<path class="penguin_vaccine_crown-st12" d="M200.8,44.2c5.4,13.9,1.2,20.2-3.3,26.9c-2.7,4-5.4,8.1-5.5,13.5v0.2c-0.5,0.3-1.1,0.5-1.6,0.8
		c-1.3,0.7-2.6,1.5-3.7,2.4v-0.2c0-1.5,0.1-2.9,0.1-4.3c0.1-3.7,2.1-6.8,4.4-10.3c4.5-6.9,10.2-15.5,3.9-32.3
		c-2-5.8-5.4-11-9.8-15.2C191.6,29.1,197,34.3,200.8,44.2z"/>
	<path class="penguin_vaccine_crown-st12" d="M214.6,128.8c-3.5-1-5.8-2.4-6.7-4.2c-1.6-2.9-1.5-6.4,0.2-9.2c0.6,1.5,1.4,2.9,2.5,4.1
		c0.6,0.6,1.2,1.1,1.9,1.5c0,2.6,0.5,5.1,1.7,7.4C214.4,128.5,214.5,128.7,214.6,128.8z"/>
	<path class="penguin_vaccine_crown-st12" d="M439.9,151c0.1-0.1,0.3-0.3,0.4-0.4c1.6-2,2.6-4.4,3.1-6.9c0.8-0.3,1.5-0.7,2.2-1.1c1.3-0.9,2.4-2.1,3.3-3.5
		c1.1,3.1,0.5,6.5-1.6,9C446.1,149.8,443.5,150.7,439.9,151z"/>
	<path class="penguin_vaccine_crown-st13" d="M144.6,10.2c7.5,5.7,18.6,27,25.2,44c14.8,38.1,11.7,70.4,9.8,91l-9.6,85.5l-7.4-3.5l9.4-122.9
		c0.3-7.7-0.8-15.4-3.3-22.7l-11.9-35.2L144.6,10.2z"/>
	<polygon class="penguin_vaccine_crown-st10" points="380.1,179.8 391.3,148.5 480.7,161.6 477.1,188.6 	"/>
	<path class="penguin_vaccine_crown-st14" d="M260.3,213.4c-7.9-0.8-13.5-9.2-12.6-18.8s8.1-16.8,16-16s13.5,9.2,12.6,18.8S268.2,214.2,260.3,213.4z"/>
	<path d="M263.4,181.2c6.5,0.6,11.1,7.8,10.3,16.1s-6.7,14.4-13.3,13.7c-6.5-0.6-11.1-7.8-10.3-16.1S256.9,180.5,263.4,181.2
		 M263.9,176.1c-9.3-0.9-17.7,7.3-18.8,18.2s5.6,20.6,14.9,21.6c9.3,1,17.7-7.3,18.8-18.2S273.2,177.1,263.9,176.1z"/>
	<path class="penguin_vaccine_crown-st15" d="M269.2,183.8c1.4,2.9,1.9,6.2,1.6,9.4c-0.8,8.2-6.7,14.4-13.2,13.7c-2.1-0.2-4.1-1.1-5.7-2.6
		c1.8,3.7,5,6.3,8.7,6.7c6.5,0.6,12.4-5.5,13.2-13.7C274.3,191.7,272.4,186.7,269.2,183.8z"/>
	<path class="penguin_vaccine_crown-st14" d="M372.7,225.1c-7.9-0.8-13.5-9.2-12.6-18.8s8.1-16.8,16-16s13.5,9.2,12.6,18.8S380.6,225.9,372.7,225.1z"/>
	<path d="M375.8,192.8c6.5,0.6,11.1,7.8,10.3,16.1s-6.7,14.4-13.3,13.7s-11.1-7.8-10.3-16.1S369.3,192.2,375.8,192.8 M376.3,187.8
		c-9.3-0.9-17.7,7.3-18.8,18.2s5.6,20.6,14.9,21.6s17.7-7.3,18.8-18.2S385.6,188.7,376.3,187.8L376.3,187.8z"/>
	<path class="penguin_vaccine_crown-st15" d="M381.6,195.5c1.4,2.9,1.9,6.2,1.6,9.4c-0.8,8.2-6.7,14.4-13.3,13.7c-2.1-0.2-4.1-1.1-5.7-2.6
		c1.8,3.7,5,6.3,8.7,6.7c6.5,0.6,12.4-5.5,13.3-13.7C386.7,203.4,384.8,198.4,381.6,195.5z"/>
	<path class="penguin_vaccine_crown-st14" d="M428.3,230.6c-7.9-0.8-13.5-9.2-12.6-18.8s8.1-16.8,16-16s13.5,9.2,12.6,18.8S436.2,231.4,428.3,230.6z"/>
	<path d="M431.5,198.3c6.5,0.6,11.1,7.8,10.3,16.1s-6.7,14.4-13.3,13.7s-11.1-7.8-10.3-16.1S425,197.7,431.5,198.3 M432,193.3
		c-9.3-0.9-17.7,7.3-18.8,18.2s5.6,20.6,14.9,21.6s17.7-7.3,18.8-18.2S441.3,194.2,432,193.3L432,193.3z"/>
	<path class="penguin_vaccine_crown-st15" d="M437.2,200.9c1.4,2.9,1.9,6.2,1.6,9.4c-0.8,8.2-6.7,14.4-13.3,13.7c-2.1-0.2-4.1-1.1-5.7-2.6
		c1.8,3.7,5,6.3,8.7,6.7c6.5,0.6,12.4-5.5,13.3-13.7C442.4,208.9,440.5,203.9,437.2,200.9z"/>
	<path class="penguin_vaccine_crown-st14" d="M204.6,207.9c-7.9-0.8-13.5-9.2-12.6-18.8s8.1-16.8,16-16s13.5,9.2,12.6,18.8S212.5,208.7,204.6,207.9z"/>
	<path d="M207.8,175.7c6.5,0.6,11.1,7.8,10.3,16.1s-6.7,14.4-13.3,13.7s-11.1-7.8-10.3-16.1S201.3,175,207.8,175.7 M208.3,170.7
		c-9.3-0.9-17.7,7.3-18.8,18.2s5.6,20.6,14.9,21.6s17.7-7.3,18.8-18.2S217.6,171.6,208.3,170.7L208.3,170.7z"/>
	<path class="penguin_vaccine_crown-st15" d="M213.5,178.3c1.4,2.9,1.9,6.2,1.6,9.4c-0.8,8.2-6.7,14.4-13.2,13.7c-2.1-0.2-4.1-1.1-5.7-2.6
		c1.8,3.7,5,6.3,8.7,6.7c6.5,0.6,12.4-5.5,13.3-13.7C218.6,186.2,216.7,181.2,213.5,178.3z"/>
	<path class="penguin_vaccine_crown-st14" d="M317,219.6c-7.9-0.8-13.5-9.2-12.6-18.8s8.1-16.8,16-16s13.5,9.2,12.6,18.8S324.9,220.4,317,219.6z"/>
	<path d="M320.2,187.4c6.5,0.6,11.1,7.8,10.3,16.1s-6.7,14.4-13.2,13.7s-11.1-7.8-10.3-16.1S313.7,186.7,320.2,187.4 M320.7,182.3
		c-9.3-0.9-17.7,7.3-18.8,18.2s5.6,20.6,14.9,21.6s17.7-7.3,18.8-18.2S330,183.3,320.7,182.3L320.7,182.3z"/>
	<path class="penguin_vaccine_crown-st15" d="M325.9,190c1.4,2.9,1.9,6.2,1.6,9.4c-0.8,8.2-6.7,14.4-13.3,13.7c-2.1-0.2-4.1-1.1-5.7-2.6
		c1.8,3.7,5,6.3,8.7,6.7c6.5,0.6,12.4-5.5,13.2-13.7C331.1,197.9,329.2,192.9,325.9,190z"/>
	<path class="penguin_vaccine_crown-st16" d="M202,180.3L202,180.3c1.9,0,3.5,1.6,3.5,3.5l0,0l0,0c0,1.9-1.6,3.5-3.5,3.5l0,0c-1.9,0-3.5-1.6-3.5-3.5l0,0
		l0,0C198.5,181.8,200.1,180.3,202,180.3z"/>
	<path class="penguin_vaccine_crown-st16" d="M258.5,186.5L258.5,186.5c1.9,0,3.5,1.6,3.5,3.5l0,0l0,0c0,1.9-1.6,3.5-3.5,3.5l0,0c-1.9,0-3.5-1.6-3.5-3.5
		l0,0l0,0C255,188.1,256.6,186.5,258.5,186.5z"/>
	<path class="penguin_vaccine_crown-st16" d="M313.1,193.7L313.1,193.7c1.9,0,3.5,1.6,3.5,3.5l0,0l0,0c0,1.9-1.6,3.5-3.5,3.5l0,0c-1.9,0-3.5-1.6-3.5-3.5
		l0,0l0,0C309.6,195.2,311.2,193.7,313.1,193.7L313.1,193.7L313.1,193.7z"/>
	<path class="penguin_vaccine_crown-st16" d="M370.1,198.1L370.1,198.1c1.9,0,3.5,1.6,3.5,3.5l0,0c0,1.9-1.6,3.5-3.5,3.5l0,0c-1.9,0-3.5-1.6-3.5-3.5l0,0
		C366.6,199.7,368.2,198.1,370.1,198.1z"/>
	<path class="penguin_vaccine_crown-st16" d="M425.9,205.6L425.9,205.6c1.9,0,3.5,1.6,3.5,3.5l0,0l0,0l0,0c0,1.9-1.6,3.5-3.5,3.5l0,0l0,0
		c-1.9,0-3.5-1.6-3.5-3.5l0,0l0,0l0,0C422.5,207.2,424,205.6,425.9,205.6L425.9,205.6L425.9,205.6z"/>
	<path class="penguin_vaccine_crown-st13" d="M260.3,108.6c-0.5,1.4-0.4,2.9,0,4.3c0.5,1.4,1.8,2.4,3.3,2.5c1.7,0,3.1-1.5,3.8-3.1s0.9-3.3,1.5-4.9
		c1.1-2.8,3.4-4.9,6.3-5.7c0.5-0.1,0.9-0.3,1.2-0.7c0.4-0.8-0.6-1.6-1.5-1.9C268.9,97.6,261.8,102.9,260.3,108.6z"/>
	<path class="penguin_vaccine_crown-st13" d="M299.2,65c-0.9,2.7-0.8,5.6,0.1,8.3c1,2.6,3.5,4.8,6.4,4.8c3.3,0,6-2.8,7.3-5.9s1.7-6.4,2.9-9.5
		c2.2-5.3,6.6-9.4,12.1-11c0.9-0.1,1.8-0.6,2.3-1.3c0.9-1.6-1.2-3.2-2.9-3.6C315.9,43.9,302.2,54,299.2,65z"/>
	<path class="penguin_vaccine_crown-st11" d="M398.6,153.4c0,0,20.7,1.2,37.8,3.7h0.1c1.3,0.2,10.6,1.3,15.6-5.4c6.8-9.2,1.6-18.2-2.2-21.6
		c-0.9-0.8-2.1-1-3.2-0.6s-1.8,1.5-1.9,2.6c0,0-0.2,3.8-2.8,5.6c-2,1.4-5.1,1.4-9.1,0.1c-3.7-1.3-6.3-4.7-6.6-8.6
		c-0.2-4.5,1.5-9,4.7-12.2c3.1-3.1,7.1-5.1,11.4-5.9c9.1-1.8,18.6,0.8,25.6,6.9c2.3,1.9,4.2,4.2,5.5,6.9c0.1,0.2,0.1,0.4,0.2,0.5
		l0.2,0.6c0.5,1.3,1.7,2.1,3.1,2c1.4-0.1,2.5-1.1,2.8-2.4c0.6-2.9,1.1-5.7,1.5-8.3c0.2-1.5,0.5-2.8,0.7-4.1c1-5.3-0.9-9.9-2.7-14.3
		c-2.9-7.1-5.8-14.4,2-27c8.3-13.4,18-14.8,28.3-16.2c5.2-0.7,10.5-1.5,15.3-4c2.7-1.4,4.9-2.5,6.8-3.3
		c-10.1,14.6-31.9,46.7-39.5,62.3c-8.4,17.3-11.4,37.1-12.5,44.6c-0.2,1.3-0.4,2.3-0.4,2.7c-0.1,0.2-0.1,0.5-0.1,0.7l-2.6,26.5
		l-86.9-8.5L398.6,153.4z"/>
	<path d="M542.2,41.3c-0.4-1-1.4-1.7-2.4-1.8h-0.1c-1.1-0.1-14.9,3.6-18,4.6c-2.6,0.9-5.3,1.6-8,2.1c-3.5,0.6-7,1-10.6,1.2
		c-12.6,1-27,2.1-38.4,20.1c-9.6,15.2-5.7,24.8-2.5,32.5c1.3,3,2.3,5.8,2.5,8.5c-5.9-3-12.5-4.3-19.1-3.9
		c-5.4-1.5-11.1-1.7-16.6-0.7c-5.6,1-10.8,3.6-14.8,7.6c-4.5,4.4-6.8,10.6-6.4,16.9c0.5,6.5,4.9,12,11,13.9
		c3.5,1.2,7.3,1.5,10.9,0.7c0.4,0.2,0.9,0.4,1.3,0.5c1.9,0.6,3.8,0.9,5.7,1.1c-0.4,0.8-0.8,1.6-1.4,2.3c-1.6,2.1-5.4,3.1-10.9,2.9
		l-35.9-3.5c-11.7-1.2-15-4.2-16-5.9c-2.3-4.2-1.1-7.5,0.7-9.7c0.5,1.6,1.4,3,2.6,4.3c3.4,3.6,8.8,5.1,16.2,4.5
		c6.8-0.5,12.6-4.9,14.8-11.4c1.8-5.8,0.5-12.6-3.6-18.1c-3.3-4.4-8.3-8-14.6-10.4c-7.9-2.9-16.4-3.6-24.7-2
		c8.5-5,16.5-10.6,17.5-20.8c2.2-21.5-12.1-29.6-22.6-35.4c-3.4-1.9-6.7-3.7-8.6-5.7c-5.6-5.5-8.8-14.3-9.9-17.7c0,0-0.6-2.8-1-2.5
		c-0.3-0.4-1.5,2.3-1.5,2.3c-1.8,3.2-6.6,11.1-13.1,15.4c-2.3,1.5-5.8,2.7-9.6,3.9c-11.4,3.7-27,8.8-29,30.3
		c-1,10.2,5.7,17.3,13.1,23.8c-7.8-3.2-16.3-4.2-24.6-2.8c-6.6,1.1-12.2,3.6-16.3,7.3c-5.1,4.6-7.7,10.9-7,17
		c0.9,6.7,5.7,12.3,12.3,14c7.1,2,12.8,1.6,16.8-1.3c1.4-1,2.5-2.2,3.4-3.7c1.3,2.5,1.9,5.9-1.2,9.6c-1.3,1.5-5.1,3.8-16.8,2.7
		l-35.9-3.5c-5.5-1-9-2.7-10.1-5c-0.4-0.8-0.7-1.7-0.9-2.5c1.9,0.3,3.9,0.3,5.8,0.1c0.5-0.1,0.9-0.2,1.4-0.3c3.4,1.5,7.2,2,10.8,1.5
		c6.4-0.8,11.8-5.3,13.5-11.5c1.6-6.1,0.5-12.6-3-17.8c-3.2-4.7-7.8-8.3-13.1-10.3c-5.2-2.1-10.8-3-16.4-2.6
		c-6.4-1.7-13.1-1.7-19.5,0.1c0.7-2.7,2.3-5.1,4.1-7.9c4.6-6.9,10.4-15.5,3.9-32.3c-7.7-19.9-21.5-23.8-33.7-27.2
		c-3.4-0.9-6.8-2-10.1-3.3c-2.6-1.1-5-2.3-7.5-3.6c-2.8-1.6-15.7-7.9-16.7-8h-0.1c-1.1-0.1-2.1,0.4-2.8,1.3c-0.6,0.9-0.7,2-0.3,3
		c0.2,0.5,24.4,55,29.9,76.3c4.6,17.7,3.7,37.1,3.4,44.4c-0.1,1.2-0.1,2.1-0.1,2.7v0.1l-10,101.9c-0.2,1.7,1.1,3.1,2.7,3.3l154,15.2
		l2.5,0.2l154,15.2c1.7,0.2,3.2-1,3.3-2.7l0,0l10-101.9v-0.1c0.1-0.6,0.2-1.5,0.4-2.7c1.1-7.2,4-26.4,12-42.9
		c9.6-19.8,43.9-68.5,44.2-69C542.5,43.4,542.6,42.2,542.2,41.3z M469.9,70.7c5.7-9,12.1-13.1,18.8-15.1c-5.2,3.3-9.5,7.7-12.6,13
		c-9.4,15.2-5.6,24.8-2.5,32.4c1.6,3.9,3,7.4,2.3,11c-0.2,1.3-0.5,2.7-0.7,4.2c0,0.1,0,0.1,0,0.2c-1-1.1-2.1-2.2-3.2-3.1
		c-0.4-0.4-0.9-0.7-1.4-1.1c0-0.1,0-0.2,0-0.2c1-5.4-0.9-9.9-2.7-14.3C464.8,90.3,461.9,83.4,469.9,70.7L469.9,70.7z M426.6,112.8
		c-4.4,4.5-6.7,10.6-6.3,16.8c0.2,2.7,1.1,5.3,2.6,7.5c-0.7-0.2-1.5-0.3-2.2-0.6c-3.8-1.3-6.4-4.7-6.7-8.7c-0.2-4.5,1.5-9,4.7-12.2
		l0,0c3.1-3,7-5,11.3-5.8C428.7,110.8,427.6,111.8,426.6,112.8z M242.4,98.4L242.4,98.4c2.5,3.8,3.4,8.4,2.3,12.8
		c-1.1,3.8-4.4,6.7-8.3,7.2c-0.7,0.1-1.5,0.1-2.3,0.1c1.9-1.9,3.3-4.3,4-6.9c1.6-6.1,0.5-12.5-2.9-17.8c-0.8-1.2-1.7-2.3-2.7-3.4
		C236.5,92.2,239.9,94.9,242.4,98.4z M200.8,44.2c5.4,13.9,1.2,20.2-3.3,26.9c-2.7,4-5.4,8.1-5.5,13.5v0.2c-0.5,0.3-1.1,0.5-1.6,0.8
		c-1.3,0.7-2.6,1.5-3.7,2.4v-0.2c0-1.5,0.1-2.9,0.1-4.3c0.1-3.7,2.1-6.8,4.4-10.3c4.5-6.9,10.2-15.5,3.9-32.3
		c-2-5.8-5.4-11-9.8-15.2C191.6,29.1,197,34.3,200.8,44.2L200.8,44.2z M469.4,257.2l-151-14.9l-2.5-0.2l-151-14.9l0.9-9.2l151,14.9
		l2.5,0.2l151,14.9L469.4,257.2z M470.8,243l-151-14.9l-2.5-0.2l-151-14.9l5.2-52.8l151,14.9l2.5,0.2l151,14.9L470.8,243z
		 M492.2,110.6c-8.4,17.3-11.4,37.1-12.5,44.6c-0.2,1.3-0.3,2.3-0.4,2.7c-0.1,0.2-0.1,0.5-0.1,0.7l-2.6,26.5l-151-14.9l-2.5-0.2
		l-151-14.9l2.6-26.5c0.1-0.2,0.1-0.5,0.1-0.7c0-0.5,0-1.4,0.1-2.8c0.4-7.6,1.3-27.6-3.6-46.2c-4.4-16.8-19.5-52.5-26.6-68.9
		c1.6,1.2,3.6,2.7,6,4.6c4.2,3.4,9.3,5.2,14.2,6.9c9.8,3.4,19,6.7,24.6,21.4c5.2,13.9,0.9,20.5-3.3,26.9c-2.6,4-5.3,8.1-5.4,13.5
		c0,1.3-0.1,2.7-0.1,4.2c-0.1,2.6-0.2,5.5-0.2,8.4c0,1.4,0.9,2.6,2.2,2.9c1.3,0.4,2.7-0.2,3.4-1.4l0.3-0.6c0.1-0.2,0.2-0.3,0.3-0.5
		c1.8-2.4,4.1-4.3,6.7-5.7c8.1-4.6,17.8-5.3,26.4-1.7c4.1,1.6,7.6,4.4,10.1,8c2.5,3.8,3.3,8.5,2.2,12.9c-1,3.8-4.2,6.6-8.1,7.2
		c-4.3,0.5-7.2-0.2-8.9-1.9c-2.2-2.3-1.7-6-1.7-6c0.2-1.2-0.4-2.3-1.4-3c-1-0.6-2.3-0.7-3.3,0c-4.4,2.7-11.3,10.4-6.4,20.8
		c2,4.2,6.8,7,14.4,8.4l48.4,4.8c11.2,1.1,18.4-0.5,22.1-4.8c2.6-2.9,4-6.7,3.7-10.6c-0.6-6.6-6.1-11.1-6.4-11.4
		c-0.9-0.7-2.1-0.9-3.2-0.4c-1,0.5-1.7,1.5-1.8,2.6c-0.2,2-1.2,3.8-2.8,5.1c-2.4,1.7-6.3,1.8-11.5,0.3c-4.2-1.1-7.3-4.6-7.9-8.8
		c-0.4-4.1,1.5-8.7,5.1-11.9c3.8-3.2,8.4-5.2,13.2-5.8c10.6-1.7,21.4,1,30,7.4c2.6,1.9,4.8,4.3,6.4,7.1c1.2,2.4,1.9,5.1,2.1,7.8
		c0.1,1.4,1.3,2.6,2.7,2.7c1.5,0.2,2.9-0.7,3.2-2.1c2.2-7,0-14.5-5.9-20.6c-2.5-2.6-5.3-5-8.1-7.4c-8-6.9-14.8-12.8-14-21.3
		c1.7-17.6,14-21.6,24.9-25.2c4.1-1.3,8.1-2.6,11-4.6c3.8-2.7,7.2-6,10-9.8c2,4.3,4.6,8.2,7.9,11.5c2.5,2.5,6.1,4.5,9.9,6.6
		c10,5.6,21.3,11.9,19.5,29.6c-0.9,8.5-8.8,13-17.9,18.1c-3.1,1.8-6.3,3.6-9.3,5.6c-6.9,4.8-10.5,11.7-9.7,19
		c0.1,1.5,1.3,2.7,2.8,2.7c1.4,0.1,2.8-0.8,3.2-2.1c0.7-2.6,1.9-5.1,3.5-7.2c2.1-2.4,4.8-4.4,7.7-5.7c9.7-4.6,20.8-5.1,30.9-1.4
		c4.6,1.6,8.8,4.5,11.8,8.3c2.9,3.9,3.9,8.7,2.7,12.7c-1.5,4-5.2,6.8-9.5,7.1c-5.3,0.4-9.2-0.4-11.2-2.5c-1.3-1.5-1.9-3.5-1.7-5.5
		c0.2-1.1-0.3-2.3-1.2-2.9c-0.9-0.7-2.2-0.8-3.2-0.2c-0.3,0.1-6.6,3.5-8.5,9.9c-1.1,3.8-0.5,7.8,1.5,11.1c2.7,4.9,9.5,7.9,20.7,9
		l48.4,4.8c7.7,0.2,13-1.6,15.7-5.4c6.8-9.2,1.6-18.2-2.2-21.6c-0.9-0.8-2.1-1-3.2-0.6s-1.8,1.5-1.9,2.6c0,0-0.2,3.8-2.8,5.6
		c-2,1.4-5.1,1.4-9.1,0.1c-3.7-1.3-6.3-4.7-6.6-8.6c-0.2-4.5,1.5-9,4.7-12.2c3.1-3.1,7.1-5.1,11.4-5.9c9.1-1.8,18.6,0.8,25.6,6.9
		c2.3,1.9,4.2,4.2,5.5,6.9c0.1,0.2,0.1,0.4,0.2,0.5l0.2,0.6c0.5,1.3,1.7,2.1,3.1,2s2.5-1.1,2.8-2.4c0.6-2.9,1.1-5.7,1.5-8.3
		c0.2-1.5,0.5-2.8,0.7-4.1c1-5.3-0.9-9.9-2.7-14.3c-2.9-7.1-5.8-14.4,2-27c8.3-13.4,18-14.8,28.3-16.2c5.2-0.7,10.5-1.5,15.3-4
		c2.7-1.4,4.9-2.5,6.8-3.3C521.6,62.9,499.8,95,492.2,110.6L492.2,110.6z M214.6,128.8c-3.5-1-5.8-2.4-6.7-4.2
		c-1.6-2.9-1.5-6.4,0.2-9.2c0.6,1.5,1.4,2.9,2.5,4.1c0.6,0.6,1.2,1.1,1.9,1.5c0,2.6,0.5,5.1,1.7,7.4
		C214.4,128.5,214.5,128.7,214.6,128.8L214.6,128.8z M439.9,151c0.1-0.1,0.3-0.3,0.4-0.4c1.6-2,2.6-4.4,3.1-6.9
		c0.8-0.3,1.5-0.7,2.2-1.1c1.3-0.9,2.4-2.1,3.3-3.5c1.1,3.1,0.5,6.5-1.6,9C446.1,149.8,443.5,150.7,439.9,151L439.9,151z"/>
</g>
</svg>
