<?xml version="1.0" encoding="utf-8"?>
<!-- Generator: Adobe Illustrator 24.0.0, SVG Export Plug-In . SVG Version: 6.00 Build 0)  -->
<svg version="1.1" id="PefiBioSeguridad" xmlns="http://www.w3.org/2000/svg" xmlns:xlink="http://www.w3.org/1999/xlink" x="0px"
	 y="0px" viewBox="0 0 510.9 604.1" style="enable-background:new 0 0 510.9 604.1;" xml:space="preserve">
<style type="text/css">
	.penguin_surgeon_no_crown-st0{fill:#2D2D2D;}
	.penguin_surgeon_no_crown-st1{fill:#C0E2DC;}
	.penguin_surgeon_no_crown-st2{fill:#36CEA6;}
	.penguin_surgeon_no_crown-st3{fill:#FFFFFF;}
	.penguin_surgeon_no_crown-st4{fill:#28AD87;}
	.penguin_surgeon_no_crown-st5{fill:#FDFFFE;}
	.penguin_surgeon_no_crown-st6{fill:#E9F4F2;}
</style>
<g id="Color">
	<path class="penguin_surgeon_no_crown-st0" d="M494.8,202.6c-8.2,255-8.2,255-8.2,255.2c0,12.2-2.1,24.3-6.4,35.7c-13.5,34.4-47.7,54.5-81.4,65.5
		c0.3-0.4,0.5-0.9,0.9-1.4c-4.9,1.9-10,3.1-15.2,3.5c-30.3,41.4-71.6,40.1-82.7,11c-1.8-0.2-3.6-0.5-5.4-0.8
		c-1.9-0.2-3.8-0.4-5.8-0.6c0.5,1.8,1,3.7,1.7,5.5c-69.1,2.8-133.1-6.9-150.6-13.4c-4.7-1.6-9.3-3.6-13.8-5.9
		c11.2-38.2-17.3-88.2-52-113.9c8.9-38.1,41.5-68.8,80.1-75.4c2.9-0.5,4.9-3.3,4.4-6.3l0,0l0,0l0,0c-2.2-12.3-38.5,6.3-44.9,10.4
		v-51.2c58.5,49,141.6,55.6,207.1,16.5c0.5-0.6,1-1.1,1.5-1.7c1.3-1.5,2.7-3,4-4.5c-1.3,1.5-2.7,3-4,4.5
		c-32.3,36.4-60.2,67.8-41.9,99.2c19.4,28.1,71.7-1.4,103.3-17.2l12.3-6.9c29.6-17,53.7-34,55.8-35.5c5.7-4.1-0.5-12.9-6.3-8.8
		c-12.2,8.7-33.5,22.7-56.6,35.9c-0.4,0.2-0.8,0.4-1.1,0.6c-33.6,19.1-70.9,36.2-89.6,32.2c-4-0.9-6.8-2.7-8.5-5.7
		c-14.3-24.7,9.9-52,40.7-86.6c33.2-37.4,70.7-79.8,72.9-134h0.2c0-0.4,0-5,0-5.2c0.8-105.5-83-181.8-184.6-173.6
		C348.7-30.4,498.6,58.1,494.8,202.6z"/>
	<path class="penguin_surgeon_no_crown-st0" d="M494.8,202.6c-8.2,255-8.2,255-8.2,255.2c0,12.2-2.1,24.3-6.4,35.7c-13.5,34.4-47.7,54.5-81.4,65.5
		c0.3-0.4,0.5-0.9,0.9-1.4c-4.9,1.9-10,3.1-15.2,3.5c-30.3,41.4-71.6,40.1-82.7,11c-1.8-0.2-3.6-0.5-5.4-0.8
		c-1.9-0.2-3.8-0.4-5.8-0.6c0.5,1.8,1,3.7,1.7,5.5c-69.1,2.8-133.1-6.9-150.6-13.4c-4.7-1.6-9.3-3.6-13.8-5.9
		c11.2-38.2-17.3-88.2-52-113.9c8.9-38.1,41.5-68.8,80.1-75.4c2.9-0.5,4.9-3.3,4.4-6.3l0,0l0,0l0,0c-2.2-12.3-38.5,6.3-44.9,10.4
		v-51.2c58.5,49,141.6,55.6,207.1,16.5c0.5-0.6,1-1.1,1.5-1.7c1.3-1.5,2.7-3,4-4.5c-1.3,1.5-2.7,3-4,4.5
		c-32.3,36.4-60.2,67.8-41.9,99.2c19.4,28.1,71.7-1.4,103.3-17.2l12.3-6.9c29.6-17,53.7-34,55.8-35.5c5.7-4.1-0.5-12.9-6.3-8.8
		c-12.2,8.7-33.5,22.7-56.6,35.9c-0.4,0.2-0.8,0.4-1.1,0.6c-33.6,19.1-70.9,36.2-89.6,32.2c-4-0.9-6.8-2.7-8.5-5.7
		c-14.3-24.7,9.9-52,40.7-86.6c33.2-37.4,70.7-79.8,72.9-134h0.2c0-0.4,0-5,0-5.2c0.8-105.5-83-181.8-184.6-173.6
		C348.7-30.4,498.6,58.1,494.8,202.6z"/>
	<path class="penguin_surgeon_no_crown-st1" d="M405.1,193.1h0.2c0-0.4,0-5,0-5.2c0.7-91.1-61.7-160.4-144.1-172.3c-13.9,3.2-27.5,7.9-40.5,14
		C319,21.5,400.7,92.8,405.1,193.1z"/>
	<path class="penguin_surgeon_no_crown-st1" d="M277,405.9c4-22.3,24.4-45.3,47-70.7c-0.5,0.6-1,1.1-1.5,1.7c-7.1,4.2-14.5,8-22.1,11.2
		c-0.2,0.1-0.5,0.2-0.7,0.3C283.9,368.4,273.4,387.3,277,405.9z"/>
	<path class="penguin_surgeon_no_crown-st1" d="M486.6,442.5c0,12.2-2.1,24.3-6.4,35.7c-13.5,34.4-47.7,54.5-81.4,65.5c0.3-0.4,0.5-0.9,0.9-1.4
		c-4.9,1.9-10,3.1-15.2,3.5c-30.3,41.4-71.6,40.1-82.7,11c-1.8-0.2-3.6-0.5-5.4-0.8c-1.9-0.2-3.8-0.4-5.8-0.6c0.5,1.8,1,3.7,1.7,5.5
		c-69.1,2.8-133.1-6.9-150.6-13.4c-3.9-1.4-7.7-2.9-11.4-4.8c-0.2,4.7-1,9.4-2.4,14c4.4,2.3,9,4.3,13.8,5.9
		c17.5,6.6,81.5,16.2,150.6,13.4c-0.6-1.8-1.2-3.6-1.7-5.5c1.9,0.2,3.8,0.4,5.8,0.6c1.8,0.3,3.6,0.6,5.4,0.8
		c11.1,29.1,52.5,30.4,82.7-11c5.2-0.4,10.3-1.5,15.2-3.5c-0.3,0.5-0.6,1-0.9,1.4c33.7-11,67.9-31.1,81.4-65.5
		c4.3-11.4,6.5-23.5,6.4-35.7c0-0.1,0-0.2,8.2-255.2c0.1-4.3,0.1-8.6-0.1-12.9C486.6,442.3,486.6,442.4,486.6,442.5z"/>
	<path class="penguin_surgeon_no_crown-st1" d="M79.7,430.6c-1.5,4-2.8,8.1-3.8,12.3c27.3,20.2,50.7,55.5,54,88.2C133.7,496.1,109.5,454.5,79.7,430.6z"/>
	<g id="x">
		<g id="color-3">
			<path class="penguin_surgeon_no_crown-st0" d="M104.7,333.2v45.8c-3,2.6-6.2,5.1-9,8c-3.1,3.1-6.1,6.3-8.8,9.7C84.2,369.5,95.8,346.4,104.7,333.2z"/>
		</g>
	</g>
</g>
<g id="Shape">
	<path class="penguin_surgeon_no_crown-st2" d="M51.8,462.9c-7.7-7.1-20.1-15.7-27.5-3.5c0.5,4.9-0.1,14-3.2,18.1c-36.9-1.6,0.8,50.6,4.7,64.9
		c8.2,11.6,27.9,31.2,39.5,39.4c72.3,12.7,69.4-63.2,35.9-105.1C90.7,460.8,54.1,422.8,51.8,462.9z"/>
	<path class="penguin_surgeon_no_crown-st3" d="M115.5,233.7c16.9,15.3,45.5,19.2,66.1,8.4l45.1,11.6c9.4-19.7,10.9-42.3,4.1-63.1l-15.7,4.4
		c6.8-47.7-46.9-84.2-88.6-60.8c13.2-36.7,37.7-68.3,69.8-90.4c103.2-22.7,199.6,49.7,198.2,160c-0.2,40.4-22.3,74.6-47.5,105.1
		c4.5-5.4,8.9-11,13.1-16.7c-60.4,71.5-167.3,80.4-238.7,20c0,0,0,0,0,0c-2-1.7-3.9-3.4-5.8-5.1L115.5,233.7z"/>
	<path class="penguin_surgeon_no_crown-st4" d="M120.3,514.2c0.4,17.6-5.8,32.6-18.3,40.5c-23.3,14.6-59.8-1.2-81.5-35.3c-6.1-9.5-11.3-19.7-15.4-30.2
		c-0.4,15.9,18.1,43.4,20.7,53.2c8.2,11.6,27.9,31.2,39.5,39.4C118.7,591.2,131,552.1,120.3,514.2z"/>
	<circle cx="307.9" cy="181.3" r="58.5"/>
	<g id="Layer_3">
		<path d="M348.3,426.9c-1.2-13.7-7-26.5-16.5-36.5c-7.9-8.1-17.9-13.8-28.9-16.5l2.6-10.7c13,3.2,24.9,9.9,34.2,19.5
			c11.2,11.7,18.1,26.9,19.5,43.1L348.3,426.9z"/>
		<path class="penguin_surgeon_no_crown-st2" d="M304.9,374.5c10.2,2.8,19.5,8.3,26.9,16c8.7,9.1,14.3,20.7,16.1,33.2c-19.4,8.4-36.9,13.4-47.9,11
			c-4-0.9-6.8-2.7-8.5-5.7C281.8,412.4,289.5,394.7,304.9,374.5z"/>
	</g>
	<path d="M450.2,60.1C384.6-9.7,268.7-19.4,190.5,34.6c-38.6,26.4-66.5,65.6-78.8,110.7c-19.7,18.7-23.1,54.1-6.9,76.4v93.8
		c-7.3,8.1-37.7,45.7-26.7,94c-5.5,9.2-9.6,19.1-12.3,29.4c-9-1.9-17.1,5.4-18.6,12.9c-16.7-11.9-32.5,0.6-29,19.4
		c-5-0.9-10.1,0.9-13.5,4.6c-15.9,17.2,13.1,64.2,16.4,69.5c24.6,39.4,77.1,63.3,102.7,21.5c4.6,2.3,9.3,4.4,14.2,6.1
		c14.7,7.4,107.6,17.9,159.6,13.8c23.4,32.9,69.3,13.9,90.8-13.3c56.1-14.4,110.2-52,109-115.5c0-1.5,8.2-255,8.2-255
		C507.4,149.7,487.4,98.1,450.2,60.1z M115.5,233.7c16.9,15.3,45.5,19.2,66.1,8.4l45.1,11.6c9.4-19.7,10.9-42.3,4.1-63.1l-15.7,4.4
		c6.8-47.7-46.9-84.2-88.6-60.8c13.2-36.7,37.7-68.3,69.8-90.4c103.2-22.7,199.6,49.7,198.2,160c-0.2,40.4-22.3,74.6-47.5,105.1
		c4.5-5.4,8.9-11,13.1-16.7c-60.4,71.5-167.3,80.4-238.7,20c0,0,0,0,0,0c-2-1.7-3.9-3.4-5.8-5.1L115.5,233.7z M152.6,223.5
		l70.5-19.5c2.3,12.3,1.4,25.1-2.7,37L152.6,223.5z M104.7,333.2v45.8c-3,2.6-6.2,5.1-9,8c-3.1,3.1-6.1,6.3-8.8,9.7
		C84.2,369.5,95.8,346.4,104.7,333.2z M103.9,573.2c-20.6,13-53.7-2.1-73.7-33.7c-16.2-24.3-30.7-68.1-7.7-55.1
		c4.1,3.3,10.3-1.3,8.4-6.1c-6.8-20.4,2.2-27.5,16.8-11.8c3.3,4.1,10.4,0.8,9.4-4.3c-1.4-29.8,27.4-2.6,47.9,30.1
		C125.1,523.8,124.5,560.2,103.9,573.2z M494.8,202.6c-8.2,255-8.2,255-8.2,255.2c0,12.2-2.1,24.3-6.4,35.7
		c-13.5,34.4-47.7,54.5-81.4,65.5c0.3-0.4,0.5-0.9,0.9-1.4c-4.9,1.9-10,3.1-15.2,3.5c-30.3,41.4-71.6,40.1-82.7,11
		c-1.8-0.2-3.6-0.5-5.4-0.8c-1.9-0.2-3.8-0.4-5.8-0.6c0.5,1.8,1,3.7,1.7,5.5c-69.1,2.8-133.1-6.9-150.6-13.4
		c-4.7-1.6-9.3-3.6-13.8-5.9c11.2-38.2-17.3-88.2-52-113.9c8.9-38.1,41.5-68.8,80.1-75.4c2.9-0.5,4.9-3.3,4.4-6.3l0,0l0,0l0,0
		c-2.2-12.3-38.5,6.3-44.9,10.4v-51.2c58.5,49,141.6,55.6,207.1,16.5c0.5-0.6,1-1.1,1.5-1.7c1.3-1.5,2.7-3,4-4.5
		c-1.3,1.5-2.7,3-4,4.5c-32.3,36.4-60.2,67.8-41.9,99.2c19.4,28.1,71.7-1.4,103.3-17.2l12.3-6.9c29.6-17,53.7-34,55.8-35.5
		c5.7-4.1-0.5-12.9-6.3-8.8c-12.2,8.7-33.5,22.7-56.6,35.9c-0.4,0.2-0.8,0.4-1.1,0.6c-33.6,19.1-70.9,36.2-89.6,32.2
		c-4-0.9-6.8-2.7-8.5-5.7c-14.3-24.7,9.9-52,40.7-86.6c33.2-37.4,70.7-79.8,72.9-134h0.2c0-0.4,0-5,0-5.2
		c0.8-105.5-83-181.8-184.6-173.6C348.7-30.4,498.6,58.1,494.8,202.6z M346.8,308.8c-2.9,3.5-5.9,7.1-8.9,10.5
		C340.9,315.9,343.9,312.4,346.8,308.8z M337.6,319.7c-2.9,3.4-5.8,6.7-8.7,9.9C331.8,326.4,334.7,323.1,337.6,319.7z"/>
	<circle class="penguin_surgeon_no_crown-st3" cx="286.8" cy="163.6" r="19.1"/>
	<circle class="penguin_surgeon_no_crown-st3" cx="133.1" cy="169.3" r="19.7"/>
	<path class="penguin_surgeon_no_crown-st2" d="M309.2,505.1c-21.7,34.1-20.5,73.7,2.8,88.3s59.8-1.2,81.5-35.3c13.9-21.8,26.8-52.5,17.1-62.9
		c-6.8-7.3-17.3,0.7-17.3,0.7s7.4-19.8-2.7-26.2s-23.4,9-23.4,9s2.4-16.2-9.1-18.8C345,457,323.5,482.6,309.2,505.1z"/>
	<path class="penguin_surgeon_no_crown-st4" d="M393.3,475c0,0,0.4-0.3,1.2-0.8c-0.2-0.4-0.4-0.7-0.6-1.1C393.6,474.3,393.3,475,393.3,475z"/>
	<path class="penguin_surgeon_no_crown-st4" d="M393.5,537.2c-21.7,34.1-58.2,49.9-81.5,35.3c-9.7-6-15.5-16.4-17.5-28.9c-3.1,21.4,2.8,40.6,17.5,49.8
		c23.3,14.6,59.8-1.2,81.5-35.3c13.1-20.5,25.2-48.8,18.6-60.8C408.8,509.9,401.3,524.9,393.5,537.2z"/>
	<path d="M331.5,604.1c-7.9,0.1-15.7-2-22.4-6.2c-12.8-8.1-20.2-22.7-20.8-41.2c-0.6-17.7,5.2-37.1,16.3-54.5l0,0
		c10-15.7,35.3-51.8,54.7-47.5c7.4,1.7,11,7.1,12.6,12.9c6.4-4.3,14.5-6.9,21.6-2.4c7.8,4.9,8.5,14.3,7.5,21.7
		c5-0.9,10.1,0.8,13.5,4.6c15.9,17.1-13.1,64.1-16.5,69.4C380.8,588,354.5,604.1,331.5,604.1z M313.7,508
		c-9.9,15.6-15.1,32.8-14.6,48.4c0.5,14.9,6.1,26.4,15.8,32.5c20.7,13,54-2.1,74.1-33.7c15.7-24.7,23.6-50,17.7-56.4
		c-3.3-3.6-10,1.3-10,1.3c-1.9,1.4-4.6,1.4-6.5,0c-1.9-1.4-2.7-3.9-1.9-6.1c1.9-5.2,4.3-16.8-0.5-19.8c-5.1-3.2-14.3,5.5-16.5,8
		c-2,2.2-5.4,2.4-7.6,0.4c-1.3-1.2-2-3-1.8-4.7c0-0.1,1.5-11.3-5-12.8C350.1,463.7,332.7,478.1,313.7,508L313.7,508z"/>
	<g id="Layer_2_1_">
		<path class="penguin_surgeon_no_crown-st5" d="M339.1,289.5c0.1,6.4-3.8,9.9-9.2,11.4C287.1,313,239,321.1,196,316c-29-3.5-47.7-6.2-74.8-12.3
			c-6.4-1.5-11-3.5-13.2-13.8c-6-27.2-3.4-41.9-1.1-69.2c0.4-5.1,2.8-5.5,6.2-7.1c0.2-0.1,0.5-0.1,0.7,0c13.2,0.9,31.2-2.3,42.7-4.8
			c20.3-4.4,33.3-13.1,53.1-14.5c23.7-1.7,42.3,8.3,66.7,13.6c13.3,2.9,34.7,6.2,50.4,6.1c5.6,0,11.7,4.4,12.5,10.5
			c0.1,0.4,0.1,0.7,0.1,1.1C339.5,246.7,338.9,268.7,339.1,289.5z"/>
		<path class="penguin_surgeon_no_crown-st6" d="M113.3,214.1c14.9-1.4,29.4-1.4,42,7.5c21.9,4.8,43.5,10.6,65.1,16.3c3.5,30.8-13.9,58.4-38.6,75.4
			c-19.9-4.4-40.1-6.6-60.2-9.6c-2.7-1.8-5.6-3.4-8.6-4.7c-5.8-31.1-6.9-44.1-6.3-75.4C109.2,220.6,111.4,217.4,113.3,214.1"/>
		<path d="M213.1,322.9c-7-0.4-12.7-0.8-18.4-1.6c-25.6-3.6-48.6-6.3-74.2-12.3c-8.2-1.9-15.3-5.8-18-19.1
			c-5.3-26.3-3.4-42.4-0.8-68.9c0.9-9,4.6-10.4,11.1-13c0.4-0.2,0.8,0.1,1.2,0.1c14.7,0.4,27.8-1.4,42.4-4.7
			c9-2.2,17.8-4.9,26.4-8.3c7.9-3,17.2-5.6,26.5-6.3c12.6-0.8,25.5,1.7,37.3,5.4c10.3,3.2,19.7,6.1,29.7,8.4
			c16.4,3.8,33.2,5.8,50,6.1c9.1,0,16.9,6.6,18.3,15.6c0.1,0.5,0.2,1,0.2,1.6c-0.1,20.8-0.4,43.1-0.4,63.6c0,9.2-5,14.6-13.1,16.8
			C293.2,316.8,252.7,325.1,213.1,322.9z M113.4,219.3c-0.5-0.1-0.9,0.8-0.9,1l0,0c-1.8,28.1-5.4,41.2,1,69.6
			c1.5,6.8,4.4,7.7,8.5,8.6c26.9,5.9,46.1,8.7,74.9,12.1c42.7,5.1,89.6-3.3,132.1-14.9c2.8-0.8,5.1-2.6,5-6
			c-0.4-21.1,0.7-43.1,0.2-64.2c-0.1-4-3.1-5.2-6.2-6.2c-0.2,0-0.4,0-0.6,0c-17.6-0.4-35.2-2.5-52.4-6.4c-10.3-2.2-20.8-5.4-31-8.6
			c-11.2-3.5-22.2-5.6-33.8-4.9c-8.5,0.5-16.4,3.1-23.8,5.8c-9.2,3.5-18.6,6.4-28.2,8.7c-14.6,3.5-29.5,5.2-44.5,5.2
			C113.6,219.2,113.4,219.3,113.4,219.3z"/>
		<path d="M345.2,252.7c-10.7,1.3-6.6-1.7-7.9-4.3c-1-2.2,0.6-3.8,3.8-4.6c54.2-12.7,108.2-31.7,162.6-44.8c3.9-0.9,4.7,1.3,6.6,3.9
			c2,2.6-2.6,6-5.6,6.8c-41.4,11.5-122.7,36.1-153.7,42.1S346.6,252.5,345.2,252.7z"/>
	</g>
</g>
</svg>
