<?xml version="1.0" encoding="utf-8"?>
<!-- Generator: Adobe Illustrator 25.2.1, SVG Export Plug-In . SVG Version: 6.00 Build 0)  -->
<svg version="1.1" id="Layer_1" xmlns="http://www.w3.org/2000/svg" xmlns:xlink="http://www.w3.org/1999/xlink" x="0px" y="0px"
	 viewBox="0 0 1700 1000" style="enable-background:new 0 0 1700 1000;" xml:space="preserve">
<style type="text/css">
	.my-covid-st0{fill:#418CCB;}
	.my-covid-st1{fill:#010101;}
	.my-covid-st2{fill:#3B82B5;}
	.my-covid-st3{fill="url(#SVGID_1_)";}
	.my-covid-st4{opacity:0.18;fill:#5D5EAA;}
	.my-covid-st5{fill="url(#SVGID_2_)";}
	.my-covid-st6{filter:url(#Adobe_OpacityMaskFilter);}
	.my-covid-st7{filter:url(#Adobe_OpacityMaskFilter_1_);}
	.my-covid-st8{mask:url(#SVGID_3_);fill="url(#SVGID_4_)";}
	.my-covid-st9{opacity:0.59;}
	.my-covid-st10{filter:url(#Adobe_OpacityMaskFilter_2_);}
	.my-covid-st11{filter:url(#Adobe_OpacityMaskFilter_3_);}
	.my-covid-st12{mask:url(#SVGID_5_);fill="url(#SVGID_6_)";}
	.my-covid-st13{fill:#E1C1DC;}
	.my-covid-st14{filter:url(#Adobe_OpacityMaskFilter_4_);}
	.my-covid-st15{filter:url(#Adobe_OpacityMaskFilter_5_);}
	.my-covid-st16{mask:url(#SVGID_7_);fill="url(#SVGID_8_)";}
	.my-covid-st17{filter:url(#Adobe_OpacityMaskFilter_6_);}
	.my-covid-st18{filter:url(#Adobe_OpacityMaskFilter_7_);}
	.my-covid-st19{mask:url(#SVGID_9_);fill="url(#SVGID_10_)";}
	.my-covid-st20{fill="url(#SVGID_11_)";}
	.my-covid-st21{opacity:0.3;fill:#FFFFFF;}
	.my-covid-st22{fill:#010101;stroke:#010101;stroke-width:3;stroke-miterlimit:10;}
	.my-covid-st23{fill:none;stroke:#FFFFFF;stroke-width:36;stroke-linecap:round;stroke-linejoin:round;stroke-miterlimit:10;}
	.my-covid-st24{fill:#F8ECD9;stroke:#010101;stroke-width:22;stroke-linecap:round;stroke-linejoin:round;stroke-miterlimit:10;}
	.my-covid-st25{fill:#FFFFFF;}
</style>
<g>
	<g>
		<g>
			<g>
				<path class="my-covid-st0" d="M342.8,691.9c-24.4,0-33.7-17.8-35.1-20.7l-12.3-23.6l-0.2-0.8c-50.3-190.5-43.9-199.1-41.5-202.3
					c1.5-2.1,3.8-3.2,6.3-3.2c1.2,0,3,0.3,5,1.7c5.6,4.1,16.2,8.5,29.3,8.5c14.9,0,29.6-5.4,43.6-16c36-27.3,94.7-47.8,97.2-48.7
					l5.8-2l2.9,5.5c1,1.8,23.7,46.2,49.6,134.8c4.3,14.6,7.9,26.6,10.9,36.6l0.2,0.8c14.9,49.4,16.2,53.4-0.7,68.9l-1.2,1.1
					c-19.3,17.7-125.1,54.9-151.7,58.9C348,691.7,345.3,691.9,342.8,691.9L342.8,691.9z"/>
				<g>
					<path class="my-covid-st1" d="M437.3,393.7c0,0,23.1,44.5,49.1,133.5c4.3,14.6,7.9,26.7,11,36.7c15.5,51.1,15.1,49.5,0.4,63.1
						c-17.6,16.2-120.9,53-148,57.1c-2.5,0.4-4.8,0.5-7,0.5c-21.6,0-28.6-16.6-28.6-16.6l-12-23c0,0-51.8-196.2-42.2-196.2
						c0.2,0,0.5,0.1,0.8,0.3c6.6,4.9,18.6,9.8,33.4,9.8c14,0,30.6-4.4,47.9-17.5C377.6,414.4,437.3,393.7,437.3,393.7 M444.2,375.7
						l-11.6,4c-2.5,0.9-62.3,21.7-99.2,49.8c-12.8,9.7-26,14.6-39.3,14.6c-11.4,0-20.4-3.7-25.1-7.1c-2.7-2-5.9-3.1-9.1-3.1
						c-4.7,0-9.1,2.2-12,6.1c-5,6.8-8.3,11.2,16.3,113.8c11.4,47.5,23.8,94.5,23.9,94.9l0.4,1.6l0.8,1.5l11.8,22.6
						c4.3,9.6,17.6,24.9,41.5,24.9c2.9,0,6-0.2,9-0.7c27.9-4.2,135-41.8,155.5-60.7l1.2-1.1c20.3-18.6,18-26.4,2.8-76.6l-0.3-0.8
						c-3.3-10.7-6.8-22.4-10.9-36.6C474,433.5,450.9,388.6,450,386.7L444.2,375.7L444.2,375.7z"/>
				</g>
			</g>
			<g>
				<path class="my-covid-st2" d="M507.1,615.8c0.5-5.6-0.7-11.9-2-12.7c-0.2,0-0.3,0-0.5,0c-0.2,0-0.4,0-0.5,0c-22.1,3.7-29.6,8.6-37,13.4
					c-6.4,4.1-13.1,8.4-27.1,10.9c-2.9,0.5-5.7,0.8-8.4,0.8c0,0,0,0,0,0c-41.7,0-53.9-55.2-54.3-57.5c-1.5-5.8-0.4-12.2,3.2-18.1
					c18.7-30.6,109.1-49.1,119.3-51.1l6.4-1.3l1.8,6.5c0.2,0.5,15.3,54.2,21.3,77.9c7.5,29.8-11.4,38.5-12.2,38.8l-11.2,4.9
					L507.1,615.8z"/>
				<path class="my-covid-st1" d="M501.1,508.6c0,0,15.2,53.8,21.2,77.7c6,24-8.1,30.2-8.1,30.2s2-20.9-9.5-20.9c-0.6,0-1.2,0.1-1.8,0.2
					c-42.5,7.2-35.9,19.3-64.1,24.3c-2.5,0.4-4.9,0.6-7.2,0.6c-36.4,0-47.3-51.7-47.3-51.7C375.1,533.4,501.1,508.6,501.1,508.6
					 M511.3,491.6l-12.9,2.5c-17.2,3.4-104.2,21.9-124.1,54.5c-4.6,7.6-6,15.9-4,23.9c0.5,2.4,3.8,16.1,11.5,29.8
					c12.2,21.7,29.5,33.2,49.8,33.2c3.2,0,6.4-0.3,9.7-0.9c15.4-2.7,23-7.6,29.7-11.9c6.4-4.1,12.5-8.1,29-11.4
					c0.1,1.3,0.1,2.6,0,3.7l-2.1,24.6l22.1-9.6c8.8-3.9,23.6-18.8,16.4-47.5c-6-23.9-20.7-76-21.4-78.2L511.3,491.6L511.3,491.6z"/>
			</g>
			<path class="my-covid-st2" d="M335.6,613.5c3.9-0.3,31.7,3,33.7,12l5.9,34.3c0,0-0.1,0.1-0.3,0.2c-1.3,0.7-6.5,3-21,1.7
				c-17.1-1.5-19.3,7-17.8,11.4c1.5,4.4,6.8,7.1,6.8,7.1s-8.2,0.1-16.2-15.1c-8-15.3-12.9-26.7-12.9-26.7S331.7,613.8,335.6,613.5z"
				/>
			<g>
				<linearGradient id="SVGID_1_" gradientUnits="userSpaceOnUse" x1="182.0129" y1="368.0157" x2="282.5096" y2="694.1895">
					<stop  offset="9.688428e-02" style="stop-color:#A5DEF3"/>
					<stop  offset="1" style="stop-color:#51C9F1"/>
				</linearGradient>
				<path class="my-covid-st3" fill="url(#SVGID_1_)" d="M202.9,725.4c-1.2,0-2.5,0-3.7-0.1c-19.1-1.2-27-2.4-28.8-9.9c-1.6-6.8,4.2-10.4,8.4-13.1l2.1-1.3
					c2.7-2.1,12.6-17,21.5-37.5l7.3-19.5c3.7-11.5,5.9-22.4,6.5-32c1.2-19.8-0.5-31.9-5.2-37.1c-1.7-1.8-4.9-4.3-13.8-4.3
					c-1.5,0-3,0.1-4.6,0.2c-5.6,0.4-12.7,1.2-20.1,2c-13.8,1.5-28,3-37.8,3c0,0-0.1,0-0.1,0c-5.5,0-14.7,0-17.2-7.2
					c-0.8-2.3-1.4-7,4-11.6c7.8-6.7,23.3-40.2,38.5-83.4c4.4-12.5,12.4-24.3,23.1-34.3l3.4-3.2l9.2,3.6v-10.5l3.8-2.2
					c13.8-8.2,29.3-12.6,44.9-12.9c1.5,0,3,0,4.4,0c33.1,0,38.4,10,60.7,52.1c3.6,6.8,7.6,14.4,12.4,23.2
					c5.5,10.2,11.1,20.2,16.5,29.9c31.1,55.9,55.6,100,47.3,127.5c-6.9,23-24.1,29.1-33.2,29.1c-8.5,0-10.8-4.9-11.4-7
					c-0.9-3.1-0.2-7.4,4.3-10.3c0.6-0.4,1.2-1,1.6-2.5c0.4-1.9,0-3.9-0.3-4.9c-3.5-1.9-8.8-3.9-15.1-3.9c-12.2,0-24.2,7.2-35.5,21.4
					C274.3,696.1,238.3,725.4,202.9,725.4z"/>
				<g>
					<path class="my-covid-st4" d="M393.9,613.4c-4.8,1.5-9.7,2.9-14.5,4.4c0.8,6.1,0.6,11.6-0.8,16.3c-5.6,18.7-19.2,23.7-26.1,23.7
						c-3.7,0-5.5-1.4-3.1-3c8.2-5.2,5.3-18.2,2.1-20.1c-5.3-3.1-12.1-5.5-19.9-5.5c-12.2,0-26.7,5.9-41.3,24.2
						c-23.1,29-57.2,53.9-87.5,53.9c-1.1,0-2.2,0-3.2-0.1c-31.1-1.9-22.4-5-14.8-10c2-1.3,5.4-5.6,9.4-12c-3,0.2-6.1,0.3-9.1,0.5
						c-6.5,7.2-12.3,15.1-17.9,23c-0.8,1.1-1.7,1.8-2.7,2.1c5,10,18.1,10.9,34.3,11.8c1.4,0.1,2.7,0.1,4.1,0.1
						c38,0,76.1-30.8,99.1-59.5c9.8-12.3,19.8-18.6,29.7-18.6c2,0,3.9,0.3,5.6,0.7c-3.6,4.2-4.9,9.8-3.4,15.2
						c1.7,6.1,7.5,12.6,18.6,12.6c14.9,0,33.2-10.7,40.4-34.6C395.2,631.1,395.4,622.7,393.9,613.4z"/>
				</g>
				<path class="my-covid-st1" d="M248.8,421.7c33.3,0,32.3,8.3,66.6,71.3c35.7,65.7,71.9,122.6,63.2,151.4c-5.6,18.7-19.2,23.7-26.1,23.7
					c-3.7,0-5.5-1.4-3.1-3c8.2-5.2,5.3-18.2,2.1-20.1c-5.3-3.1-12.1-5.5-19.9-5.5c-12.2,0-26.7,5.9-41.3,24.2
					c-23.1,29-57.2,53.9-87.5,53.9c-1.1,0-2.2,0-3.2-0.1c-31.1-1.9-22.4-5-14.8-10c4.3-2.8,15.1-19.5,24.3-40.9l7.4-19.8
					c3.6-11.4,6.3-23.2,7-34.3c2.4-37.7-5.4-49.6-26.5-49.6c-1.6,0-3.3,0.1-5.1,0.2c-15.7,1.2-42.6,4.9-57.3,4.9
					c-8.6,0-13-1.3-8.5-5.1c12.2-10.4,31.1-59.2,40.8-86.7c3.9-11.2,11.3-22.1,21.1-31.2l15.1,6v-17.3c11.9-7.1,26-11.6,41.3-11.9
					C246,421.7,247.4,421.7,248.8,421.7 M248.8,406.2c-1.4,0-3,0-4.5,0c-16.9,0.3-33.7,5.1-48.6,13.9l-7.5,4.5v3.7l-3.3-1.3
					l-6.8,6.4c-11.6,10.8-20.3,23.8-25.1,37.4c-16.2,46.1-30.5,75.2-36.2,80.1c-9.5,8.1-7.2,17.5-6.3,20.1
					c4.3,12.3,18.3,12.3,24.3,12.3c10.1,0,24.6-1.5,38.5-3c7.4-0.8,14.4-1.5,19.8-1.9c1.4-0.1,2.7-0.2,4-0.2c2.5,0,6.8,0.2,8.3,1.9
					c1.4,1.6,4.7,7.8,3.2,31.3c-0.6,8.9-2.6,19-6.2,30.1l-7.2,19.1c-7.9,18.2-16.2,31.1-19.1,34.2c-0.4,0.3-0.9,0.5-1.3,0.8
					c-4.4,2.8-14.8,9.2-11.8,21.5c3.3,13.8,17.6,14.6,35.7,15.7c1.4,0.1,2.7,0.1,4.1,0.1c38,0,76.1-30.8,99.1-59.5
					c9.8-12.3,19.8-18.6,29.7-18.6c2,0,3.9,0.3,5.6,0.7c-3.6,4.2-4.9,9.8-3.4,15.2c1.7,6.1,7.5,12.6,18.6,12.6
					c14.9,0,33.2-10.7,40.4-34.6c9.2-30.7-16-76.1-48-133.7c-5.4-9.7-10.9-19.6-16.4-29.8c-4.7-8.7-8.8-16.4-12.4-23.1
					C293.3,419.2,286.4,406.2,248.8,406.2L248.8,406.2z"/>
			</g>
			<g>
				<path class="my-covid-st0" d="M1401.9,691.9c-2.6,0-5.3-0.2-8-0.6c-26.6-4-132.5-41.1-151.7-58.9l-1.2-1.1c-16.9-15.5-15.7-19.5-0.7-68.8
					l0.3-0.8c3.1-10.2,6.7-22.2,10.9-36.6c25.9-88.7,48.7-133,49.6-134.8l2.9-5.5l5.8,2c2.5,0.9,61.2,21.4,97.2,48.7
					c14,10.6,28.7,16,43.6,16c13.1,0,23.7-4.4,29.3-8.5c1.9-1.4,3.7-1.7,5-1.7c2.5,0,4.8,1.2,6.3,3.2c2.4,3.2,8.8,11.8-41.5,202.3
					l-0.2,0.8l-12.3,23.6C1435.6,674.2,1426.3,691.9,1401.9,691.9z"/>
				<g>
					<path class="my-covid-st1" d="M1307.4,393.7c0,0,59.7,20.7,95.2,47.6c17.2,13.1,33.8,17.5,47.9,17.5c14.9,0,26.8-5,33.4-9.8
						c0.3-0.2,0.5-0.3,0.8-0.3c9.6,0-42.2,196.2-42.2,196.2l-12,23c0,0-7,16.6-28.6,16.6c-2.2,0-4.5-0.2-7-0.5
						c-27.1-4-130.4-40.9-148-57.1c-14.7-13.5-15.1-12,0.4-63.1c3-10,6.7-22.1,11-36.7C1284.3,438.2,1307.4,393.7,1307.4,393.7
						 M1300.4,375.7l-5.7,11.1c-1,1.9-24,46.8-50.2,136.2c-4.2,14.3-7.8,26.1-10.8,36l-0.2,0.5l-0.2,0.8
						c-15.2,50.2-17.5,57.9,2.8,76.6l1.2,1.1c20.5,18.9,127.6,56.5,155.5,60.7c3.1,0.5,6.1,0.7,9,0.7c24,0,37.2-15.3,41.5-24.9
						l11.8-22.6l0.8-1.5l0.4-1.6c0.1-0.5,12.5-47.5,23.9-94.9c24.7-102.6,21.4-107.1,16.3-113.8c-2.9-3.9-7.3-6.1-12-6.1
						c-3.2,0-6.4,1.1-9.1,3.1c-4.6,3.4-13.7,7.1-25.1,7.1c-13.3,0-26.6-4.9-39.3-14.6c-36.9-28-96.7-48.9-99.2-49.8L1300.4,375.7
						L1300.4,375.7z"/>
				</g>
			</g>
			<g>
				<path class="my-covid-st2" d="M1237.4,627.3c-0.8-0.4-19.7-9-12.2-38.8c6-23.8,21.1-77.4,21.3-78l1.8-6.5l6.4,1.3
					c10.2,2,100.6,20.6,119.3,51.1c3.6,5.9,4.7,12.3,3.1,18.4c-0.4,2-12.5,57.2-54.3,57.2c-2.7,0-5.6-0.3-8.4-0.8
					c-14-2.5-20.7-6.7-27.1-10.9c-7.3-4.7-14.9-9.6-37-13.4c-0.2,0-0.4-0.1-0.7-0.1c-1.7,0.8-2.9,7.2-2.3,12.8l1.1,12.4
					L1237.4,627.3z"/>
				<path class="my-covid-st1" d="M1253.4,512.6c0,0,126,24.8,116.8,60.4c0,0-10.9,51.7-47.3,51.7c-2.3,0-4.7-0.2-7.2-0.6
					c-28.2-4.9-21.6-17.1-64.1-24.3c-0.6-0.1-1.3-0.2-1.8-0.2c-11.5,0-9.5,20.9-9.5,20.9s-14.1-6.2-8.1-30.2
					C1238.2,566.3,1253.4,512.6,1253.4,512.6 M1243.2,495.5l-3.7,12.9c-0.6,2.2-15.3,54.3-21.4,78.2c-7.2,28.7,7.6,43.6,16.4,47.5
					l22.4,9.8l-2.4-24.9c-0.1-1.1-0.1-2.4,0-3.7c16.5,3.3,22.6,7.2,29,11.4c6.7,4.3,14.3,9.2,29.7,11.9c3.3,0.6,6.5,0.9,9.7,0.9
					c20.3,0,37.5-11.5,49.8-33.2c7.7-13.7,11-27.3,11.5-29.8c2-8.1,0.6-16.4-4-23.9c-19.9-32.5-106.8-51.1-124.1-54.5L1243.2,495.5
					L1243.2,495.5z"/>
			</g>
			<path class="my-covid-st2" d="M1410.1,615.5c-3.9-0.3-31.7,3-33.7,12l-5.9,34.3c0,0,0.1,0.1,0.3,0.2c1.3,0.7,6.5,3,21,1.7
				c17.1-1.5,19.3,7,17.8,11.4c-1.5,4.4-6.8,7.1-6.8,7.1s8.2,0.1,16.2-15.1c8-15.3,12.9-26.7,12.9-26.7S1414,615.8,1410.1,615.5z"/>
			<g>
				<linearGradient id="SVGID_2_" gradientUnits="userSpaceOnUse" x1="1396.6517" y1="408.4186" x2="1544.1976" y2="710.5366">
					<stop  offset="9.688428e-02" style="stop-color:#A5DEF3"/>
					<stop  offset="1" style="stop-color:#51C9F1"/>
				</linearGradient>
				<path class="my-covid-st5" fill="url(#SVGID_2_)" d="M1541.8,727.4c-35.4,0-71.4-29.3-93.3-56.7c-11.3-14.2-23.3-21.4-35.5-21.4c-6.3,0-11.5,2-15.1,3.9
					c-0.4,1-0.7,3-0.3,4.9c0.3,1.5,1,2.1,1.6,2.5c4.5,2.9,5.2,7.2,4.3,10.3c-0.6,2.1-2.9,7-11.4,7c-9.1,0-26.3-6.1-33.2-29.1
					c-8.3-27.5,16.3-71.6,47.3-127.5c5.4-9.7,10.9-19.7,16.5-29.9c4.8-8.7,8.8-16.4,12.4-23.2c22.3-42.1,27.6-52.1,60.7-52.1
					c1.4,0,2.9,0,4.4,0c15.6,0.3,31.1,4.7,44.9,12.9l3.8,2.2v10.5l9.2-3.6l3.4,3.2c10.7,10,18.7,21.9,23.1,34.3
					c15.2,43.2,30.7,76.7,38.5,83.4c5.4,4.6,4.8,9.2,4,11.6c-2.5,7.2-11.8,7.2-17.3,7.2c-9.8,0-24-1.5-37.8-3
					c-7.4-0.8-14.5-1.5-20.1-2c-1.6-0.1-3.1-0.2-4.6-0.2c-8.8,0-12.1,2.5-13.8,4.3c-4.7,5.2-6.4,17.3-5.2,37.1
					c0.6,9.6,2.8,20.5,6.6,32.4l7.3,19.5c8.7,20.2,18.6,35,21.4,37.2l2,1.2c4.2,2.6,10,6.3,8.4,13.1c-1.8,7.5-9.8,8.7-28.8,9.9
					C1544.2,727.3,1543,727.4,1541.8,727.4C1541.8,727.4,1541.8,727.4,1541.8,727.4z"/>
				<path class="my-covid-st4" d="M1351.3,617.8c4.8,1.5,9.7,2.9,14.5,4.4c-0.8,6.1-0.6,11.6,0.8,16.3c5.6,18.7,19.2,23.7,26.1,23.7
					c3.7,0,5.5-1.4,3.1-3c-8.2-5.2-5.3-18.2-2.1-20.1c5.3-3.1,12.1-5.5,19.9-5.5c12.2,0,26.7,5.9,41.3,24.2
					c23.1,29,57.2,53.9,87.5,53.9c1.1,0,2.2,0,3.2-0.1c31.1-1.9,22.4-5,14.8-10c-2-1.3-5.4-5.6-9.4-12c3,0.2,6.1,0.3,9.1,0.5
					c6.5,7.2,12.3,15.1,17.9,23c0.8,1.1,1.7,1.8,2.7,2.1c-5,10-18.1,10.9-34.3,11.8c-1.4,0.1-2.7,0.1-4.1,0.1
					c-38,0-76.1-30.8-99.1-59.5c-9.8-12.3-19.8-18.6-29.7-18.6c-2,0-3.9,0.3-5.6,0.7c3.6,4.2,4.9,9.8,3.4,15.2
					c-1.7,6.1-7.5,12.6-18.6,12.6c-14.9,0-33.2-10.7-40.4-34.6C1350,635.6,1349.8,627.1,1351.3,617.8z"/>
				<path class="my-covid-st1" d="M1495.9,423.7c1.4,0,2.8,0,4.3,0c15.3,0.3,29.3,4.8,41.3,11.9v17.3l15.1-6c9.8,9.1,17.1,20.1,21.1,31.2
					c9.7,27.5,28.5,76.3,40.8,86.7c4.5,3.9,0.1,5.1-8.5,5.1c-14.7,0-41.6-3.8-57.3-4.9c-1.8-0.1-3.5-0.2-5.1-0.2
					c-21.1,0-28.9,11.9-26.5,49.6c0.7,11.1,3.4,23,7,34.3l7.4,19.8c9.2,21.3,20,38.1,24.3,40.9c7.6,5,16.3,8.1-14.8,10
					c-1.1,0.1-2.2,0.1-3.2,0.1c-30.3,0-64.4-24.9-87.5-53.9c-14.6-18.3-29.1-24.2-41.3-24.2c-7.8,0-14.6,2.4-19.9,5.5
					c-3.2,1.8-6.1,14.9,2.1,20.1c2.4,1.5,0.6,3-3.1,3c-6.9,0-20.4-5-26-23.7c-8.7-28.8,27.5-85.7,63.2-151.4
					C1463.6,431.9,1462.6,423.7,1495.9,423.7 M1495.9,408.2L1495.9,408.2c-37.6,0-44.5,13-67.3,56.1c-3.6,6.7-7.6,14.4-12.4,23.1
					c-5.5,10.2-11.1,20.1-16.4,29.8c-32,57.5-57.3,103-48,133.7c7.2,23.9,25.5,34.6,40.4,34.6c11.1,0,16.9-6.5,18.6-12.6
					c1.5-5.5,0.2-11-3.4-15.2c1.7-0.4,3.6-0.7,5.6-0.7c9.9,0,19.9,6.3,29.7,18.6c23,28.8,61.1,59.5,99.1,59.5c1.4,0,2.8,0,4.1-0.1
					c18.1-1.1,32.4-2,35.7-15.7c3-12.3-7.4-18.8-11.8-21.5c-0.4-0.3-0.9-0.5-1.3-0.8c-2.9-3.1-11.3-15.9-19.1-34.2l-7.2-19.1
					c-3.5-11.1-5.6-21.2-6.2-30.1c-1.5-23.5,1.7-29.7,3.2-31.3c1.5-1.6,5.8-1.9,8.3-1.9c1.3,0,2.6,0.1,4,0.2
					c5.5,0.4,12.4,1.2,19.9,1.9c14,1.5,28.4,3,38.5,3c6,0,20,0,24.3-12.3c0.9-2.7,3.2-12-6.3-20.1c-5.7-4.9-20-33.9-36.2-80.1
					c-4.8-13.7-13.5-26.6-25.1-37.4l-6.8-6.4l-3.3,1.3v-3.7l-7.5-4.5c-14.9-8.8-31.7-13.6-48.5-13.9
					C1498.8,408.2,1497.3,408.2,1495.9,408.2L1495.9,408.2z"/>
			</g>
			<defs>
				<filter id="Adobe_OpacityMaskFilter" filterUnits="userSpaceOnUse" x="1364.8" y="423.7" width="206.6" height="258">
					<feFlood  style="flood-color:white;flood-opacity:1" result="back"/>
					<feBlend  in="SourceGraphic" in2="back" mode="normal"/>
				</filter>
			</defs>
			<mask maskUnits="userSpaceOnUse" x="1364.8" y="423.7" width="206.6" height="258" id="SVGID_3_">
				<g class="my-covid-st6">
					<defs>
						<filter id="Adobe_OpacityMaskFilter_1_" filterUnits="userSpaceOnUse" x="1364.8" y="423.7" width="206.6" height="258">
							<feFlood  style="flood-color:white;flood-opacity:1" result="back"/>
							<feBlend  in="SourceGraphic" in2="back" mode="normal"/>
						</filter>
					</defs>
					<mask maskUnits="userSpaceOnUse" x="1364.8" y="423.7" width="206.6" height="258" id="SVGID_3_">
						<g class="my-covid-st7">
						</g>
					</mask>
					<linearGradient id="SVGID_4_" gradientUnits="userSpaceOnUse" x1="1409.6353" y1="492.6585" x2="1491.989" y2="583.7491">
						<stop  offset="0" style="stop-color:#FFFFFF"/>
						<stop  offset="1" style="stop-color:#000000"/>
					</linearGradient>
					<path class="my-covid-st8" fill="url(#SVGID_4_)" d="M1393.1,647c13.6-7.9,37.2-11.3,61.2,18.8c4.4,5.5,9.2,10.9,14.3,15.9c2.4-27.8,8.1-75.9,21.2-110
						c13-33.7,55-79.7,81.6-106.6c-3.9-6.5-8.9-12.6-14.8-18.1l-15.1,6v-17.3c-11.9-7.1-26-11.6-41.3-11.9
						c-37.7-0.6-35.2,5.6-70.9,71.3c-35.7,65.7-71.9,122.6-63.2,151.4c8.7,28.8,28.5,24.4,25.5,15.6
						C1388.5,653.2,1389.9,648.8,1393.1,647z"/>
				</g>
			</mask>
			<g class="my-covid-st9">
				<defs>
					<filter id="Adobe_OpacityMaskFilter_2_" filterUnits="userSpaceOnUse" x="1364.8" y="423.7" width="206.6" height="258">
						<feFlood  style="flood-color:white;flood-opacity:1" result="back"/>
						<feBlend  in="SourceGraphic" in2="back" mode="normal"/>
					</filter>
				</defs>
				<mask maskUnits="userSpaceOnUse" x="1364.8" y="423.7" width="206.6" height="258" id="SVGID_5_">
					<g class="my-covid-st10">
						<defs>
							<filter id="Adobe_OpacityMaskFilter_3_" filterUnits="userSpaceOnUse" x="1364.8" y="423.7" width="206.6" height="258">
								<feFlood  style="flood-color:white;flood-opacity:1" result="back"/>
								<feBlend  in="SourceGraphic" in2="back" mode="normal"/>
							</filter>
						</defs>
						<mask maskUnits="userSpaceOnUse" x="1364.8" y="423.7" width="206.6" height="258" id="SVGID_5_">
							<g class="my-covid-st11">
							</g>
						</mask>
						<linearGradient id="SVGID_6_" gradientUnits="userSpaceOnUse" x1="1409.6353" y1="492.6585" x2="1491.989" y2="583.7491">
							<stop  offset="0" style="stop-color:#FFFFFF"/>
							<stop  offset="1" style="stop-color:#000000"/>
						</linearGradient>
						<path class="my-covid-st12" fill="url(#SVGID_6_)" d="M1393.1,647c13.6-7.9,37.2-11.3,61.2,18.8c4.4,5.5,9.2,10.9,14.3,15.9c2.4-27.8,8.1-75.9,21.2-110
							c13-33.7,55-79.7,81.6-106.6c-3.9-6.5-8.9-12.6-14.8-18.1l-15.1,6v-17.3c-11.9-7.1-26-11.6-41.3-11.9
							c-37.7-0.6-35.2,5.6-70.9,71.3c-35.7,65.7-71.9,122.6-63.2,151.4c8.7,28.8,28.5,24.4,25.5,15.6
							C1388.5,653.2,1389.9,648.8,1393.1,647z"/>
					</g>
				</mask>
				<path class="my-covid-st13" d="M1393.1,647c13.6-7.9,37.2-11.3,61.2,18.8c4.4,5.5,9.2,10.9,14.3,15.9c2.4-27.8,8.1-75.9,21.2-110
					c13-33.7,55-79.7,81.6-106.6c-3.9-6.5-8.9-12.6-14.8-18.1l-15.1,6v-17.3c-11.9-7.1-26-11.6-41.3-11.9
					c-37.7-0.6-35.2,5.6-70.9,71.3c-35.7,65.7-71.9,122.6-63.2,151.4c8.7,28.8,28.5,24.4,25.5,15.6
					C1388.5,653.2,1389.9,648.8,1393.1,647z"/>
			</g>
			<defs>
				<filter id="Adobe_OpacityMaskFilter_4_" filterUnits="userSpaceOnUse" x="176.3" y="417.5" width="206.6" height="258">
					<feFlood  style="flood-color:white;flood-opacity:1" result="back"/>
					<feBlend  in="SourceGraphic" in2="back" mode="normal"/>
				</filter>
			</defs>
			<mask maskUnits="userSpaceOnUse" x="176.3" y="417.5" width="206.6" height="258" id="SVGID_7_">
				<g class="my-covid-st14">
					<defs>
						<filter id="Adobe_OpacityMaskFilter_5_" filterUnits="userSpaceOnUse" x="176.3" y="417.5" width="206.6" height="258">
							<feFlood  style="flood-color:white;flood-opacity:1" result="back"/>
							<feBlend  in="SourceGraphic" in2="back" mode="normal"/>
						</filter>
					</defs>
					<mask maskUnits="userSpaceOnUse" x="176.3" y="417.5" width="206.6" height="258" id="SVGID_7_">
						<g class="my-covid-st15">
						</g>
					</mask>
					
						<linearGradient id="SVGID_8_" gradientUnits="userSpaceOnUse" x1="1852.5741" y1="486.4832" x2="1934.9279" y2="577.5738" gradientTransform="matrix(-1 0 0 1 2190.6223 0)">
						<stop  offset="0" style="stop-color:#FFFFFF"/>
						<stop  offset="1" style="stop-color:#000000"/>
					</linearGradient>
					<path class="my-covid-st16" fill="url(#SVGID_8_)" d="M354.6,640.8c-13.6-7.9-37.2-11.3-61.2,18.8c-4.4,5.5-9.2,10.9-14.3,15.9c-2.4-27.8-8.1-75.9-21.2-110
						c-13-33.7-55-79.7-81.6-106.6c3.9-6.5,8.9-12.6,14.8-18.1l15.1,6v-17.3c11.9-7.1,26-11.6,41.3-11.9
						c37.7-0.6,35.2,5.6,70.9,71.3c35.7,65.7,71.9,122.6,63.2,151.4c-8.7,28.8-28.5,24.4-25.5,15.6
						C359.2,647.1,357.8,642.7,354.6,640.8z"/>
				</g>
			</mask>
			<g class="my-covid-st9">
				<defs>
					<filter id="Adobe_OpacityMaskFilter_6_" filterUnits="userSpaceOnUse" x="176.3" y="417.5" width="206.6" height="258">
						<feFlood  style="flood-color:white;flood-opacity:1" result="back"/>
						<feBlend  in="SourceGraphic" in2="back" mode="normal"/>
					</filter>
				</defs>
				<mask maskUnits="userSpaceOnUse" x="176.3" y="417.5" width="206.6" height="258" id="SVGID_9_">
					<g class="my-covid-st17">
						<defs>
							<filter id="Adobe_OpacityMaskFilter_7_" filterUnits="userSpaceOnUse" x="176.3" y="417.5" width="206.6" height="258">
								<feFlood  style="flood-color:white;flood-opacity:1" result="back"/>
								<feBlend  in="SourceGraphic" in2="back" mode="normal"/>
							</filter>
						</defs>
						<mask maskUnits="userSpaceOnUse" x="176.3" y="417.5" width="206.6" height="258" id="SVGID_9_">
							<g class="my-covid-st18">
							</g>
						</mask>
						
							<linearGradient id="SVGID_10_" gradientUnits="userSpaceOnUse" x1="1852.5741" y1="486.4832" x2="1934.9279" y2="577.5738" gradientTransform="matrix(-1 0 0 1 2190.6223 0)">
							<stop  offset="0" style="stop-color:#FFFFFF"/>
							<stop  offset="1" style="stop-color:#000000"/>
						</linearGradient>
						<path class="my-covid-st19" fill="url(#SVGID_10_)" d="M354.6,640.8c-13.6-7.9-37.2-11.3-61.2,18.8c-4.4,5.5-9.2,10.9-14.3,15.9c-2.4-27.8-8.1-75.9-21.2-110
							c-13-33.7-55-79.7-81.6-106.6c3.9-6.5,8.9-12.6,14.8-18.1l15.1,6v-17.3c11.9-7.1,26-11.6,41.3-11.9
							c37.7-0.6,35.2,5.6,70.9,71.3c35.7,65.7,71.9,122.6,63.2,151.4c-8.7,28.8-28.5,24.4-25.5,15.6
							C359.2,647.1,357.8,642.7,354.6,640.8z"/>
					</g>
				</mask>
				<path class="my-covid-st13" d="M354.6,640.8c-13.6-7.9-37.2-11.3-61.2,18.8c-4.4,5.5-9.2,10.9-14.3,15.9c-2.4-27.8-8.1-75.9-21.2-110
					c-13-33.7-55-79.7-81.6-106.6c3.9-6.5,8.9-12.6,14.8-18.1l15.1,6v-17.3c11.9-7.1,26-11.6,41.3-11.9c37.7-0.6,35.2,5.6,70.9,71.3
					c35.7,65.7,71.9,122.6,63.2,151.4c-8.7,28.8-28.5,24.4-25.5,15.6C359.2,647.1,357.8,642.7,354.6,640.8z"/>
			</g>
		</g>
		<g>
			<g>
				<g>
					<g>
						<g>
							<linearGradient id="SVGID_11_" gradientUnits="userSpaceOnUse" x1="870.7084" y1="338.5274" x2="873.671" y2="621.4509">
								<stop  offset="9.688428e-02" style="stop-color:#A5DEF3"/>
								<stop  offset="1" style="stop-color:#51C9F1"/>
							</linearGradient>
							<path class="my-covid-st20" fill="url(#SVGID_11_)" d="M400.1,620.4c-10.3-0.9-15.3-9.4-19.7-17.5c-0.2-0.3-0.1-0.3-0.2-0.5c-0.1-0.2-0.1-0.3-0.2-0.5
								c-2.6-8.5-4.6-13.9-7.5-23.1c-15.2-48.1-40.9-121.7-28.7-171.4c13.3-54.6,65.8-65.6,112.2-77.8c4.8-1.2,8.1-1.7,12.6-3
								c1-0.3,2.4-0.6,3.5-0.9c0.6,1,1.6,2.6,2.1,3.5c3.3,5.8,6,11.6,8.6,17.6c1.4-6.6,2.7-12.9,4.2-19.6c0.3-1.2,0.7-3.1,1-4.4
								c1.8-0.2,4.7-0.5,6.4-0.6c60.9-6,121.5-8.6,182.7-8.4c59.7,0.1,119.7,3.6,179.5,4.6c1.2,0,3.6,0,4.8,0.1
								c79.2,1,158.9-3.2,237.9-2.3c48.9,0.6,96,2.3,144.9,5c8.4-0.6,29,3.4,36.1,3.3c40.9-0.4,114.4,35.3,120,74
								c9.4,65.5-5.2,159.6-42.8,210.6c-0.6,0.8-1.7,0.4-2.4,1.9c-13.6-2.9-35.4-7.2-47-9.6c-11.6-2.4-14.1-3.7-22.7-5.7
								c-40.9-9.6-69.3-20.3-113.7-25.1c-35.9-3.8-63.2-4.3-108.5,1.7c-57.5,7.6-122.4,6.2-188.9,3.9c-75.6-2.7-163,3.4-241.5-6.2
								c-0.3,0-1.7,0-1.6-0.1c0.1-0.1-0.6-0.4-0.8-0.5c-3.3-2.2-6-4.6-8.2-7.9c-0.6,2.9-1.3,5.9-1.9,8.8c-1.8-0.7-3.8-1.8-5.6-2.4
								c-13.2-4.8-24.3-5.6-38.6-4.1c-9.4,1-21.1,3.5-30.8,5.6c-9.7,2.1-19.5,4.2-29.4,5.3c-2.2,0.2-4.1,0.3-6.2,0.4
								c-1.5,0.1-2.8,0.1-4.4,0.3c-33.5,4-72.9,19-97.8,41.7C404.6,619.7,402.8,620.7,400.1,620.4z"/>
							<path class="my-covid-st21" d="M1310.4,356.2c20.8,3,52.4,10.1,72.9,27.2c3.2,2.7,13.7,11.6,17.8,16.1
								c-12.3-46.1-75.3-71.1-123.1-75.7c-8.4-0.8-7.1-1.1-40-3s-93.5-4.3-140-4.7c-75.1-0.7-159.7,3.2-236.5,2.3
								c-1.2,0-4-0.1-5.2-0.1c-59.7-1-119.8-4.5-179.5-4.6c-61.2-0.1-121.8,2.4-182.7,8.4c-1.6,0.2-4.6,0.5-6.4,0.7
								c-0.3,1.3-0.7,3.2-1,4.4c-1.5,6.7-2.8,13-4.2,19.6c-2.6-6.1-5.3-11.8-8.6-17.6c-0.5-0.9-1.5-2.5-2.1-3.5
								c-1.1,0.3-2.5,0.6-3.5,0.9c-4.6,1.2-7.9,2-12.5,3.1c-40,9.6-84.9,20.8-106.6,59.9c30.4-11.7,49.6-20.2,81.9-29.5
								c112.9-32.3,209.8-26.6,331.6-23.1c71.1,2.1,150.7,2.8,231.7,2.6c92-0.2,199,11.5,295.3,14.9
								C1291.5,354.5,1300,354.7,1310.4,356.2z"/>
							<path class="my-covid-st4" d="M1354.4,592.4c-0.1,0.2-0.2,0.4-0.4,0.4c-0.1,0.1-0.8-0.2-0.8-0.2c-0.1,0-2.3-0.4-0.5-0.1
								c-29.8-6.4-10.6-1.8-47.9-10c-37.4-8.2-83-24.7-133.4-29.8c-30.8-3.1-64.3-4.3-109.4,2c-54.2,7.6-123,7-187.1,4.3
								c-76.3-3.2-163.1,2.8-241.6-6.7c-11.6-7.9-8.4-17.5-12.9-28.6c-1,8.9-2.2,17.8-4,26.6c-13.4-4.9-26.5-6.2-40.6-4.5
								c-20.5,2.4-40.1,8.2-60.4,10.7c-2.1,0.3-3.8,0.3-5.9,0.5c-1.6,0.1-3,0.1-4.7,0.3c-34.9,4.1-75,19.6-101.2,43.3
								c-1.9,1.7-2.3,1.6-4.2,2c-1,0.2-1.4-0.3-2.3-0.3c-5.9-0.2-9.9-3.2-13.7-7.5c-1.8-2-3.3-4.4-4.9-6.6c-1.4,0.8-2.9,1.6-4.3,2.4
								c0.3,0.9,0.5,1.7,0.8,2.6c0.1,0.3,0.1,0.7,0.3,1.1s0.2,0.5,0.4,1c5.6,9.9,11.2,19.8,24.2,20.6c3.9,0.2,6.4-0.9,10.7-4.8
								c22.2-20,64.4-36.7,94.5-40.2c1.3-0.1,2.8-0.3,4.2-0.3c2.1-0.1,4.2-0.2,6.4-0.5c9.9-1.1,20.1-3.3,29.8-5.4
								c9.7-2.1,21.1-4.5,30.4-5.5c13.7-1.4,23.9-0.8,36.5,3.8c3.6,1.3,7.5,3.4,11.1,4.8c0.4-1.8,0.8-3.7,1.2-5.5
								c1,0.7,1.8,1.3,2.9,1.9c0.4,0.3,1.1,0.7,1.7,1c-0.2,0.1,1.9,0.1,2.4,0.2c78.8,9.8,166.7,3.3,242.6,6.3
								c66.8,2.7,132.1,3.8,190-3.9c44.9-6,72-5.5,107.5-1.7c44,4.6,72.4,15.4,112.5,24.9c8.5,2,13.3,3.8,22.1,5.6
								c0,0-1.1-0.2,0.3,0.1c1.4,0.3-4.3-0.9,1.6,0.3c5.9,1.2,35.7,7.2,42.5,8.6c6.8,1.4,2.4,0.5,6.8,1.4c0.9-1.5,2.7-3.3,3.8-4.7
								c5.4-6.9,9.7-14.1,13.7-21.8C1368.6,585.3,1361.9,589.3,1354.4,592.4z"/>
						</g>
					</g>
				</g>
			</g>
			<path class="my-covid-st22" d="M1249,328.9c108.2,4.5,128.4,34.5,141.9,70.9c23.8,63.9-9.9,154.4-34.9,204.8c-32.8-7.5-13.5-2.6-51.3-10.9
				c-37.9-8.3-83.2-24.8-133.8-29.9c-30.9-3.1-64.2-4.5-109.2,1.9c-54.2,7.7-122.9,7-186.9,3.9c-76.1-3.6-162.7,3.5-241.1-6.3
				c-11.6-7.8-8.3-17.5-12.8-28.5c-1,8.9-2.3,17.8-4.1,26.6c-13.4-4.8-26.5-6.2-40.5-4.4c-20.4,2.5-40.1,8.4-60.4,10.8
				c-2.1,0.3-3.9,0.4-5.9,0.4c-1.6,0.1-3.1,0.2-4.7,0.4c-32.7,3.3-76.8,21.8-101.3,42.7c-1.7,1.5-1.7,6.2-4.1,2.3
				c-12.7-20.3-3.9,20.5-16.3-19.7c-12.3-40.1-49-132.7-34.6-185.2c14.4-52.5,73.6-65.5,120.8-75.4c5.7,9.4,9.9,21,14.8,31.4
				c2.4-11.9,4.9-23.9,7.6-35.8c0.6-0.1,2-0.2,2.9-0.3c120-11.8,241.9-6.9,359.7-3.9c1.6,0,16.8,0.9,17.5,0.9
				C934.3,322.4,1230.5,328.1,1249,328.9 M1281.3,317.5c-8.7-0.3-20.6-2.6-26.4-2.6c-5.8-0.1-7.9-0.4-10.4-0.5
				c-49.2-2.5-96.3-4.3-145.3-5c-79-1.1-158.6,3.2-237.9,2.2c-1.2,0-3.6,0-4.8-0.1c-59.8-1-119.8-4.4-179.6-4.5
				c-61.4-0.1-122.2,2.5-183.3,8.5c-0.7,0.1-1.4,0.1-2.9,0.3s-5.4,0.5-7.3,0.7c-0.7,2.9-1.4,6.1-2,8.9c-0.4,1.6-0.5,2.5-0.9,4
				c-0.8-1.5-1.3-2.5-2.2-4.1c-1.3-2.2-2.8-4.9-4.2-7.1c-2.2,0.6-4.9,1.2-6.9,1.8c-4.7,1.3-7.8,1.8-12.6,3
				c-49.1,12.7-102.2,24.9-116.2,82.1c-12.6,51.3,13.1,127.1,29,176.6c2.9,9.1,4.8,14.3,7.3,22.8c0.1,0.4,0.1,0.6,0.3,1
				c0.2,0.4,0.2,0.5,0.5,1c5.8,9.9,11.7,19.9,24.8,20.5c4,0.2,6.2-0.7,10.7-4.8c23.6-21.4,62.2-36.2,94.3-40
				c1.4-0.2,2.8-0.3,4.2-0.3c2.2-0.1,4.3-0.2,6.5-0.5c9.9-1,20.1-3.3,29.8-5.4c9.7-2.1,21.2-4.6,30.4-5.6
				c13.7-1.4,23.9-0.8,36.5,3.7c3.6,1.3,7.5,3.4,11.1,4.8c0.4-1.8,0.8-3.7,1.2-5.5c1,0.7,1.8,1.3,2.9,1.9c0.4,0.3,1.1,0.7,1.7,1
				c-0.2,0.1,1.9,0.2,2.4,0.2c78.6,9.6,166.3,3.5,242.1,6.3c66.7,2.4,131.9,3.6,189.8-4c44.9-5.9,71.8-5.4,107.3-1.6
				c44,4.7,72.3,15.6,112.4,24.9c8.5,2,13.2,3.7,22,5.6c0,0-1.1-0.2,0.3,0.1s-4.3-0.9,1.6,0.3c5.9,1.2,35.7,7.2,42.5,8.6
				c6.8,1.4,2.3,0.4,6.8,1.4c0.8-2.3,2.8-2.8,4-4.4c39.1-51,53.8-150.5,44.7-216C1399.6,353.5,1324.5,318.9,1281.3,317.5
				C1280.6,316.7,1281.3,317.5,1281.3,317.5z"/>
		</g>
	</g>
	<g>
		<path class="my-covid-st23" d="M572.3,459.1l-25.6-42.2h21.3l13.9,24.6l14-24.6h20.9l-25.6,41.9v25.5h-18.8V459.1z"/>
		<path class="my-covid-st23" d="M608.7,458.5v-0.2c0-14.8,12.1-27.3,28.9-27.3c16.7,0,28.7,12.2,28.7,27.1v0.2c0,14.8-12.1,27.3-28.9,27.3
			C620.7,485.6,608.7,473.3,608.7,458.5z M648.5,458.5v-0.2c0-6.4-4.6-11.8-11.1-11.8c-6.6,0-10.9,5.3-10.9,11.6v0.2
			c0,6.4,4.6,11.8,11.1,11.8C644.2,470,648.5,464.7,648.5,458.5z"/>
		<path class="my-covid-st23" d="M673.6,466.3v-34.1h18.3v28.2c0,5.7,3,8.8,7.4,8.8c4.3,0,7.6-3.1,7.6-8.8v-28.2h18.3v52.1H707v-7.1
			c-3.4,4.3-8.2,8.3-15.6,8.3C680.3,485.5,673.6,478.1,673.6,466.3z"/>
		<path class="my-covid-st23" d="M735.1,432.2h18.3v10.5c3-7.1,7.8-11.8,16.5-11.4v19.3h-1.5c-9.5,0-14.9,5.5-14.9,17.5v16.2h-18.3V432.2z"/>
		<path class="my-covid-st23" d="M804.1,416.9H833c17.1,0,28,8.8,28,23.7v0.2c0,15.9-12.2,24.3-29,24.3h-9.2v19.3h-18.7V416.9z M831.6,450.4
			c6.6,0,10.7-3.5,10.7-8.8v-0.2c0-5.8-4-8.9-10.8-8.9h-8.8v17.8H831.6z"/>
		<path class="my-covid-st23" d="M865.2,458.5v-0.2c0-15.2,10.9-27.3,26.3-27.3c18,0,26.3,13.2,26.3,28.5c0,1.2,0,2.5-0.1,3.8h-34.9
			c1.4,5.7,5.6,8.6,11.3,8.6c4.3,0,7.8-1.6,11.6-5.3l10.1,8.4c-5,6.4-12.2,10.6-22.6,10.6C876.8,485.6,865.2,474.7,865.2,458.5z
			 M900.7,454c-0.7-5.8-4-9.4-9.1-9.4c-4.8,0-8.1,3.8-9.1,9.4H900.7z"/>
		<path class="my-covid-st23" d="M925.7,432.2H944v7.3c3.4-4.3,8.2-8.5,15.6-8.5c11.1,0,17.7,7.3,17.7,19.2v34.1H959v-28.2
			c0-5.7-3-8.8-7.3-8.8c-4.4,0-7.7,3.1-7.7,8.8v28.2h-18.3V432.2z"/>
		<path class="my-covid-st23" d="M986.3,493.9l5.9-12.1c5.6,3.1,11.2,4.9,18.2,4.9c9.2,0,13.7-4.5,13.7-12.8v-2c-3.7,4.2-8.5,7.8-16.1,7.8
			c-12.8,0-23.1-9.2-23.1-24.2v-0.2c0-15,10.5-24.3,22.5-24.3c7.8,0,12.4,3.2,16.4,7.3v-6.2h18.3v39.6c0,9.5-2.1,16.2-6.7,20.8
			c-4.7,4.7-12,7.3-22.9,7.3C1002.2,499.9,993.8,497.8,986.3,493.9z M1024,455.5v-0.2c0-5.8-4.4-10-10.6-10
			c-6.3,0-10.7,4.3-10.7,10.1v0.2c0,5.8,4.4,10,10.7,10C1019.6,465.6,1024,461.3,1024,455.5z"/>
		<path class="my-covid-st23" d="M1051.5,466.3v-34.1h18.3v28.2c0,5.7,3,8.8,7.4,8.8c4.3,0,7.6-3.1,7.6-8.8v-28.2h18.3v52.1h-18.3v-7.1
			c-3.4,4.3-8.2,8.3-15.6,8.3C1058.1,485.5,1051.5,478.1,1051.5,466.3z"/>
		<path class="my-covid-st23" d="M1112.9,414h19.1v13.5h-19.1V414z M1113.3,432.2h18.3v52.1h-18.3V432.2z"/>
		<path class="my-covid-st23" d="M1141.8,432.2h18.3v7.3c3.4-4.3,8.2-8.5,15.6-8.5c11.1,0,17.7,7.3,17.7,19.2v34.1h-18.3v-28.2
			c0-5.7-3-8.8-7.3-8.8c-4.4,0-7.7,3.1-7.7,8.8v28.2h-18.3V432.2z"/>
	</g>
	<g>
		<path class="my-covid-st24" d="M572.3,459.1l-25.6-42.2h21.3l13.9,24.6l14-24.6h20.9l-25.6,41.9v25.5h-18.8V459.1z"/>
		<path class="my-covid-st24" d="M608.7,458.5v-0.2c0-14.8,12.1-27.3,28.9-27.3c16.7,0,28.7,12.2,28.7,27.1v0.2c0,14.8-12.1,27.3-28.9,27.3
			C620.7,485.6,608.7,473.3,608.7,458.5z M648.5,458.5v-0.2c0-6.4-4.6-11.8-11.1-11.8c-6.6,0-10.9,5.3-10.9,11.6v0.2
			c0,6.4,4.6,11.8,11.1,11.8C644.2,470,648.5,464.7,648.5,458.5z"/>
		<path class="my-covid-st24" d="M673.6,466.3v-34.1h18.3v28.2c0,5.7,3,8.8,7.4,8.8c4.3,0,7.6-3.1,7.6-8.8v-28.2h18.3v52.1H707v-7.1
			c-3.4,4.3-8.2,8.3-15.6,8.3C680.3,485.5,673.6,478.1,673.6,466.3z"/>
		<path class="my-covid-st24" d="M735.1,432.2h18.3v10.5c3-7.1,7.8-11.8,16.5-11.4v19.3h-1.5c-9.5,0-14.9,5.5-14.9,17.5v16.2h-18.3V432.2z"/>
		<path class="my-covid-st24" d="M804.1,416.9H833c17.1,0,28,8.8,28,23.7v0.2c0,15.9-12.2,24.3-29,24.3h-9.2v19.3h-18.7V416.9z M831.6,450.4
			c6.6,0,10.7-3.5,10.7-8.8v-0.2c0-5.8-4-8.9-10.8-8.9h-8.8v17.8H831.6z"/>
		<path class="my-covid-st24" d="M865.2,458.5v-0.2c0-15.2,10.9-27.3,26.3-27.3c18,0,26.3,13.2,26.3,28.5c0,1.2,0,2.5-0.1,3.8h-34.9
			c1.4,5.7,5.6,8.6,11.3,8.6c4.3,0,7.8-1.6,11.6-5.3l10.1,8.4c-5,6.4-12.2,10.6-22.6,10.6C876.8,485.6,865.2,474.7,865.2,458.5z
			 M900.7,454c-0.7-5.8-4-9.4-9.1-9.4c-4.8,0-8.1,3.8-9.1,9.4H900.7z"/>
		<path class="my-covid-st24" d="M925.7,432.2H944v7.3c3.4-4.3,8.2-8.5,15.6-8.5c11.1,0,17.7,7.3,17.7,19.2v34.1H959v-28.2
			c0-5.7-3-8.8-7.3-8.8c-4.4,0-7.7,3.1-7.7,8.8v28.2h-18.3V432.2z"/>
		<path class="my-covid-st24" d="M986.3,493.9l5.9-12.1c5.6,3.1,11.2,4.9,18.2,4.9c9.2,0,13.7-4.5,13.7-12.8v-2c-3.7,4.2-8.5,7.8-16.1,7.8
			c-12.8,0-23.1-9.2-23.1-24.2v-0.2c0-15,10.5-24.3,22.5-24.3c7.8,0,12.4,3.2,16.4,7.3v-6.2h18.3v39.6c0,9.5-2.1,16.2-6.7,20.8
			c-4.7,4.7-12,7.3-22.9,7.3C1002.2,499.9,993.8,497.8,986.3,493.9z M1024,455.5v-0.2c0-5.8-4.4-10-10.6-10
			c-6.3,0-10.7,4.3-10.7,10.1v0.2c0,5.8,4.4,10,10.7,10C1019.6,465.6,1024,461.3,1024,455.5z"/>
		<path class="my-covid-st24" d="M1051.5,466.3v-34.1h18.3v28.2c0,5.7,3,8.8,7.4,8.8c4.3,0,7.6-3.1,7.6-8.8v-28.2h18.3v52.1h-18.3v-7.1
			c-3.4,4.3-8.2,8.3-15.6,8.3C1058.1,485.5,1051.5,478.1,1051.5,466.3z"/>
		<path class="my-covid-st24" d="M1112.9,414h19.1v13.5h-19.1V414z M1113.3,432.2h18.3v52.1h-18.3V432.2z"/>
		<path class="my-covid-st24" d="M1141.8,432.2h18.3v7.3c3.4-4.3,8.2-8.5,15.6-8.5c11.1,0,17.7,7.3,17.7,19.2v34.1h-18.3v-28.2
			c0-5.7-3-8.8-7.3-8.8c-4.4,0-7.7,3.1-7.7,8.8v28.2h-18.3V432.2z"/>
	</g>
	<g>
		<path class="my-covid-st25" d="M572.3,459.1l-25.6-42.2h21.3l13.9,24.6l14-24.6h20.9l-25.6,41.9v25.5h-18.8V459.1z"/>
		<path class="my-covid-st25" d="M608.7,458.5v-0.2c0-14.8,12.1-27.3,28.9-27.3c16.7,0,28.7,12.2,28.7,27.1v0.2c0,14.8-12.1,27.3-28.9,27.3
			C620.7,485.6,608.7,473.3,608.7,458.5z M648.5,458.5v-0.2c0-6.4-4.6-11.8-11.1-11.8c-6.6,0-10.9,5.3-10.9,11.6v0.2
			c0,6.4,4.6,11.8,11.1,11.8C644.2,470,648.5,464.7,648.5,458.5z"/>
		<path class="my-covid-st25" d="M673.6,466.3v-34.1h18.3v28.2c0,5.7,3,8.8,7.4,8.8c4.3,0,7.6-3.1,7.6-8.8v-28.2h18.3v52.1H707v-7.1
			c-3.4,4.3-8.2,8.3-15.6,8.3C680.3,485.5,673.6,478.1,673.6,466.3z"/>
		<path class="my-covid-st25" d="M735.1,432.2h18.3v10.5c3-7.1,7.8-11.8,16.5-11.4v19.3h-1.5c-9.5,0-14.9,5.5-14.9,17.5v16.2h-18.3V432.2z"/>
		<path class="my-covid-st25" d="M804.1,416.9H833c17.1,0,28,8.8,28,23.7v0.2c0,15.9-12.2,24.3-29,24.3h-9.2v19.3h-18.7V416.9z M831.6,450.4
			c6.6,0,10.7-3.5,10.7-8.8v-0.2c0-5.8-4-8.9-10.8-8.9h-8.8v17.8H831.6z"/>
		<path class="my-covid-st25" d="M865.2,458.5v-0.2c0-15.2,10.9-27.3,26.3-27.3c18,0,26.3,13.2,26.3,28.5c0,1.2,0,2.5-0.1,3.8h-34.9
			c1.4,5.7,5.6,8.6,11.3,8.6c4.3,0,7.8-1.6,11.6-5.3l10.1,8.4c-5,6.4-12.2,10.6-22.6,10.6C876.8,485.6,865.2,474.7,865.2,458.5z
			 M900.7,454c-0.7-5.8-4-9.4-9.1-9.4c-4.8,0-8.1,3.8-9.1,9.4H900.7z"/>
		<path class="my-covid-st25" d="M925.7,432.2H944v7.3c3.4-4.3,8.2-8.5,15.6-8.5c11.1,0,17.7,7.3,17.7,19.2v34.1H959v-28.2
			c0-5.7-3-8.8-7.3-8.8c-4.4,0-7.7,3.1-7.7,8.8v28.2h-18.3V432.2z"/>
		<path class="my-covid-st25" d="M986.3,493.9l5.9-12.1c5.6,3.1,11.2,4.9,18.2,4.9c9.2,0,13.7-4.5,13.7-12.8v-2c-3.7,4.2-8.5,7.8-16.1,7.8
			c-12.8,0-23.1-9.2-23.1-24.2v-0.2c0-15,10.5-24.3,22.5-24.3c7.8,0,12.4,3.2,16.4,7.3v-6.2h18.3v39.6c0,9.5-2.1,16.2-6.7,20.8
			c-4.7,4.7-12,7.3-22.9,7.3C1002.2,499.9,993.8,497.8,986.3,493.9z M1024,455.5v-0.2c0-5.8-4.4-10-10.6-10
			c-6.3,0-10.7,4.3-10.7,10.1v0.2c0,5.8,4.4,10,10.7,10C1019.6,465.6,1024,461.3,1024,455.5z"/>
		<path class="my-covid-st25" d="M1051.5,466.3v-34.1h18.3v28.2c0,5.7,3,8.8,7.4,8.8c4.3,0,7.6-3.1,7.6-8.8v-28.2h18.3v52.1h-18.3v-7.1
			c-3.4,4.3-8.2,8.3-15.6,8.3C1058.1,485.5,1051.5,478.1,1051.5,466.3z"/>
		<path class="my-covid-st25" d="M1112.9,414h19.1v13.5h-19.1V414z M1113.3,432.2h18.3v52.1h-18.3V432.2z"/>
		<path class="my-covid-st25" d="M1141.8,432.2h18.3v7.3c3.4-4.3,8.2-8.5,15.6-8.5c11.1,0,17.7,7.3,17.7,19.2v34.1h-18.3v-28.2
			c0-5.7-3-8.8-7.3-8.8c-4.4,0-7.7,3.1-7.7,8.8v28.2h-18.3V432.2z"/>
	</g>
</g>
</svg>
