<?xml version="1.0" encoding="utf-8"?>
<!-- Generator: Adobe Illustrator 24.0.0, SVG Export Plug-In . SVG Version: 6.00 Build 0)  -->
<svg version="1.1" id="Scarf" xmlns="http://www.w3.org/2000/svg" xmlns:xlink="http://www.w3.org/1999/xlink" x="0px" y="0px"
	 viewBox="0 0 524.4 606.4" style="enable-background:new 0 0 524.4 606.4;" xml:space="preserve">
<style type="text/css">
	.penguin_scarf_no_crown-st0{fill:#A51C1C;}
	.penguin_scarf_no_crown-st1{fill:#E5C333;}
	.penguin_scarf_no_crown-st2{fill:#FFFFFF;}
	.penguin_scarf_no_crown-st3{fill:#F4D264;}
	.penguin_scarf_no_crown-st4{fill:#BFA04B;}
</style>
<g id="Color_body">
	<g id="Color_body-2">
		<path class="penguin_scarf_no_crown-st0" d="M496.6,203.3c-8.2,255.9-8.2,256-8.2,256.1c0,12.2-2.1,24.4-6.4,35.8c-13.5,34.5-47.8,54.7-81.7,65.7
			c6.2-10.2,30.1-51.9,15.3-67.9c-3.4-3.8-8.5-5.5-13.5-4.6c2.1-10.2-3-24.6-15.9-24.2c5.5-17.2,9.8-34.7,13-52.5
			c29.7-17.1,53.9-34.2,56-35.7c5.7-4.1-0.5-12.9-6.3-8.8c-12.3,8.7-33.6,22.8-56.8,36c-0.4,0.2-0.8,0.4-1.1,0.6
			c-33.8,19.2-71.2,36.4-89.9,32.3c-4.1-0.9-6.9-2.7-8.6-5.7c-14.4-24.7,10-52.2,40.8-86.9c33.4-37.6,71-80.1,73.2-134.5h0.2
			c0-0.4,0-5,0-5.2c0.8-105.9-83.3-182.5-185.3-174.2C350-30.5,500.4,58.3,496.6,203.3z"/>
	</g>
	<g id="Color_body-3">
		<path class="penguin_scarf_no_crown-st0" d="M105.1,334.5v46c-3,2.6-6.3,5.2-9,8c-3.1,3.1-6.1,6.3-8.8,9.8C84.5,370.9,96.1,347.7,105.1,334.5z"/>
	</g>
	<g id="Color_body-4">
		<path class="penguin_scarf_no_crown-st0" d="M153.1,224.3l70.7-19.6c2.3,12.4,1.4,25.2-2.8,37.1L153.1,224.3z"/>
	</g>
</g>
<g id="Shape">
	<polygon class="penguin_scarf_no_crown-st1" points="368.5,475 363,463 354.9,461.3 342.4,472.3 327.9,482.6 313.6,501.6 302.5,521.4 295.2,548.9 
		297.1,572.9 307.9,591.4 318.5,598.2 340,601 367.4,591.6 393.5,561.6 409.4,531.1 415,506.1 408.8,494.6 396.1,496.2 396,476.7 
		386.1,469.7 373.5,472.3 	"/>
	<polygon class="penguin_scarf_no_crown-st1" points="52,464.7 40.4,455.7 31.6,454.4 24.4,461.1 24.4,472.3 21.1,479.3 8.7,481.2 5.4,487 5.4,499.5 
		25.8,544.4 43.9,566 65.4,583.9 87.2,585.4 107.2,579.9 121.9,561.6 125.5,531.1 117.9,506.1 101.4,478.5 87.3,461.1 73.9,449.4 
		61.1,445.8 52.5,455.3 	"/>
	<path class="penguin_scarf_no_crown-st2" d="M293.3,578.3c-69.3,2.8-133.5-6.9-151.1-13.5c-4.7-1.6-9.4-3.6-13.8-6c11.2-38.3-17.4-88.6-52.2-114.3
		c9-38.2,41.7-69.1,80.4-75.7c2.9-0.5,4.9-3.3,4.4-6.3c0,0,0,0,0,0c-2.2-12.3-38.6,6.4-45.1,10.4V234.5
		c16.9,15.4,45.7,19.3,66.3,8.4l45.3,11.7c9.4-19.8,10.9-42.5,4.1-63.4l-15.8,4.4c6.9-47.9-47.1-84.5-89-61
		C140.2,97.8,164.7,66,197,43.8C300.6,21,397.3,93.8,395.9,204.4c-0.2,52.6-37.6,94.8-70.7,132c-32.4,36.5-60.4,68.1-42.1,99.6
		c19.4,28.3,71.9-1.4,103.7-17.3c-3.3,17-7.8,33.7-13.5,50.1c-0.1,0.1-0.2,0.1-0.3,0.2c-15.4-38.5-56.1,15.9-67.3,34.9
		C289.7,529.3,285.7,557.7,293.3,578.3z"/>
	<circle cx="309.1" cy="182" r="58.7"/>
	<path d="M451.9,60.3c-65.9-70-182.3-79.7-260.8-25.6c-26.3,18-47.9,42.2-63,70.3c-6.9,12.9-12.3,26.6-16.2,40.8
		c-19.7,18.8-23.2,54.3-7,76.6v94.1c-7.3,8.1-37.9,45.9-26.8,94.3c-5.5,9.2-9.6,19.1-12.3,29.5c-9-2-17.2,5.4-18.6,13
		c-16.8-12-32.6,0.6-29.1,19.5c-5-0.9-10.1,0.9-13.5,4.6c-15.9,17.2,13.1,64.5,16.5,69.8c24.7,39.6,77.4,63.5,103.1,21.6
		c4.6,2.4,9.3,4.4,14.2,6.1c14.7,7.5,108,18,160.2,13.9c23.5,33,69.6,13.9,91.1-13.3c56.3-14.4,110.6-52.2,109.4-116
		c0-1.5,8.2-255.9,8.2-255.9C509.3,150.3,489.2,98.5,451.9,60.3z M153.1,224.3l70.7-19.6c2.3,12.4,1.4,25.2-2.8,37.1L153.1,224.3z
		 M105.1,334.5v46c-3,2.6-6.3,5.2-9,8c-3.1,3.1-6.1,6.3-8.8,9.8C84.5,370.9,96.1,347.7,105.1,334.5z M104.3,575.4
		c-20.7,13.1-53.9-2.1-73.9-33.8c-16.3-24.4-30.8-68.4-7.7-55.3c4.1,3.4,10.4-1.3,8.4-6.2c-6.9-20.5,2.2-27.6,16.9-11.8
		c3.3,4.1,10.4,0.8,9.5-4.3c-1.4-29.9,27.5-2.7,48.1,30.2C125.5,525.8,125,562.3,104.3,575.4L104.3,575.4z M293.3,578.3
		c-69.3,2.8-133.5-6.9-151.1-13.5c-4.7-1.6-9.4-3.6-13.8-6c11.2-38.3-17.4-88.6-52.2-114.3c9-38.2,41.7-69.1,80.4-75.7
		c2.9-0.5,4.9-3.3,4.4-6.3c0,0,0,0,0,0c-2.2-12.3-38.6,6.4-45.1,10.4V234.5c16.9,15.4,45.7,19.3,66.3,8.4l45.3,11.7
		c9.4-19.8,10.9-42.5,4.1-63.4l-15.8,4.4c6.9-47.9-47.1-84.5-89-61C140.2,97.8,164.7,66,197,43.8C300.6,21,397.3,93.8,395.9,204.4
		c-0.2,52.6-37.6,94.8-70.7,132c-32.4,36.5-60.4,68.1-42.1,99.6c19.4,28.3,71.9-1.4,103.7-17.3c-3.3,17-7.8,33.7-13.5,50.1
		c-0.1,0.1-0.2,0.1-0.3,0.2c-15.4-38.5-56.1,15.9-67.3,34.9C289.7,529.3,285.7,557.7,293.3,578.3L293.3,578.3z M390,557.1
		c-45.6,71-122.7,36.1-75.1-47.5c19.3-30.9,49.4-60.9,48.1-30.2c-0.9,5.2,6.1,8.4,9.5,4.3c2.2-2.5,11.4-11.2,16.4-8
		c4.7,3,2.3,14.9,0.5,19.8c-2,4.9,4.3,9.5,8.4,6.2C420.7,488.4,406.3,532.8,390,557.1L390,557.1z M496.6,203.3
		c-8.2,255.9-8.2,256-8.2,256.1c0,12.2-2.1,24.4-6.4,35.8c-13.5,34.5-47.8,54.7-81.7,65.7c6.2-10.2,30.1-51.9,15.3-67.9
		c-3.4-3.8-8.5-5.5-13.5-4.6c2.1-10.2-3-24.6-15.9-24.2c5.5-17.2,9.8-34.7,13-52.5c29.7-17.1,53.9-34.2,56-35.7
		c5.7-4.1-0.5-12.9-6.3-8.8c-12.3,8.7-33.6,22.8-56.8,36c-0.4,0.2-0.8,0.4-1.1,0.6c-33.8,19.2-71.2,36.4-89.9,32.3
		c-4.1-0.9-6.9-2.7-8.6-5.7c-14.4-24.7,10-52.2,40.8-86.9c33.4-37.6,71-80.1,73.2-134.5h0.2c0-0.4,0-5,0-5.2
		c0.8-105.9-83.3-182.5-185.3-174.2C350-30.5,500.4,58.3,496.6,203.3z"/>
	<circle class="penguin_scarf_no_crown-st2" cx="287.9" cy="164.2" r="19.1"/>
	<circle class="penguin_scarf_no_crown-st2" cx="133.6" cy="170" r="19.8"/>
	<path class="penguin_scarf_no_crown-st3" d="M479.7,344c-63.7,11.3-128.3,16.8-192.9,16.3c-59.2-0.5-118.2-5.9-176.4-16.3c-2.6,0-16.5-0.3-27.8-11.1
		c-7.3-7-11.5-16.7-11.5-26.9c2-6.9,4-13.9,6-20.8c-0.4-1.6-3.5-14.9,5.5-26.3c10.3-13,26.9-11.2,27.8-11.1
		c60,8,120.5,12.1,181,12.2c63,0.2,125.9-3.9,188.4-12.2c2.6,0,16.5,0.3,27.8,11.1c7.3,7,11.5,16.7,11.5,26.9v20.3
		C519,326.9,501.4,344,479.7,344z"/>
	<path d="M295,365.7c-2.7,0-5.5,0-8.2,0c-59.3-0.5-118.5-5.9-176.9-16.3c-11.6-0.2-22.7-4.7-31-12.7c-8.4-8-13.2-19.1-13.2-30.8
		l0.2-1.5l5.6-19.5c-0.9-4.9-2.3-18,6.9-29.5c12.3-15.5,31.9-13.3,32.7-13.1c59.8,7.9,120,12,180.3,12.2
		c62.8,0.2,125.4-3.8,187.6-12.2c6,0,20.4,1.2,32.2,12.6c8.4,8,13.2,19.1,13.1,30.8v20.3c0,23.8-19.8,43.2-44.2,43.4
		C419.1,360.2,357.1,365.7,295,365.7z M76.6,306.7c0.2,8.4,3.7,16.4,9.8,22.2c9.2,8.9,20.7,9.6,24,9.6l0.9,0.1
		c58,10.3,116.7,15.7,175.5,16.2c64.3,0.4,128.6-5,191.9-16.2l1-0.1c18.7,0,33.8-14.6,33.8-32.6v-20.3c0-8.7-3.6-17-9.8-23
		c-9.2-8.9-20.7-9.6-24-9.6c-62.4,8.3-125.4,12.4-188.4,12.2c-60.8-0.2-121.5-4.3-181.7-12.3c-0.1,0-14.3-1.6-22.8,9.1
		c-7.4,9.3-4.8,20.4-4.5,21.6l0.4,1.4L76.6,306.7z"/>
	<path class="penguin_scarf_no_crown-st4" d="M434.1,409.1c-34.6-29.1-57.3-69.8-64-114.4c-0.5-0.8-2.7-5.2,2.3-12.6c3.2-4.7,8.5-9.4,15.2-13.2
		c4.8-1.9,9.6-3.7,14.4-5.6c0.9-0.7,9-6.5,17.8-7.7c10.2-1.5,11.9,4.3,11.9,4.6c10.5,43.3,32.7,82.8,64,114.4
		c0.5,0.8,2.7,5.2-2.3,12.6c-3.2,4.7-8.5,9.4-15.2,13.2l-13,7.3C451.8,415.1,437.8,415.8,434.1,409.1z"/>
	<path d="M444.9,419.1c-6.7,0-12.1-2.2-15-6.5c-35-29.7-58.1-71-65.1-116.4c-1.3-3-2.6-9,3.1-17.3c3.8-5.6,9.8-10.8,17.1-14.9
		l0.7-0.3l13.7-5.4c2.6-1.8,10.6-7,19.7-8.3c12-1.8,16.9,4.6,18,8.6c10.3,42.4,31.9,81.1,62.7,112l0.9,1.2c1.3,2.4,3.8,9-2.6,18.3
		c-3.8,5.6-9.8,10.8-17.1,14.9l-13,7.3C459.8,416.8,451.7,419.1,444.9,419.1z M389.9,273.7c-5.6,3.2-10.3,7.3-13.1,11.3
		c-2.7,3.9-2.4,6.3-2.1,6.9l0.6,1.8c6.5,43.4,28.6,82.9,62.2,111.2l1.2,1.5c1.5,2.6,11.6,3.3,23.8-3.5l13-7.3
		c5.7-3.2,10.6-7.4,13.4-11.5c2.4-3.6,2.4-5.7,2.2-6.5c-31.7-32.2-54-72.3-64.7-116.2c-0.1-0.1-1.6-1.2-5.9-0.5
		c-7.7,1.1-15.1,6.5-15.4,6.7l-1.3,0.7L389.9,273.7z"/>
	<path class="penguin_scarf_no_crown-st3" d="M363,425.1c-22.4-50-25.8-106.4-9.5-158.7c-0.1-1.1-0.2-7.1,9.2-12.5c5.9-3.4,14.3-5.8,23.6-6.4
		c6.2,0.5,12.4,1,18.7,1.5c1.4-0.3,13.2-2.3,23.6,1c11.9,3.8,10.7,11,10.6,11.3C427.7,314.1,431,369,448.6,420
		c0.1,1.1,0.2,7.1-9.2,12.5c-5.9,3.4-14.3,5.8-23.6,6.4l-18,1.1C379.1,441.1,363.5,434.4,363,425.1z"/>
	<path d="M393.5,445.5c-19.5,0-34.4-7.8-35.9-19c-22.5-50.7-25.9-107.9-9.6-160.9c0.1-3.6,1.8-10.6,11.9-16.4c6.9-4,16.1-6.5,26-7.1
		l0.4,0l18.4,1.4c3.6-0.6,15-2.1,25.4,1.3c13.2,4.2,15.2,13,14.3,17.6c-11.2,51.9-8,105.8,9.3,155.9l0.3,1.4
		c0.2,3.1-0.6,11-11.9,17.5c-6.9,4-16.1,6.5-26,7.1l-18,1.1C396.5,445.5,395,445.5,393.5,445.5z M386.2,252.9
		c-8,0.5-15.5,2.6-20.9,5.6c-6.5,3.7-6.5,7.1-6.5,7.5l0,1l-0.3,0.9c-15.9,51.1-12.6,106.2,9.3,155l0.4,1.8
		c0.3,4.7,11.7,10.8,29.1,9.8l18-1.1c8.1-0.5,15.8-2.5,21.2-5.7c5.3-3,6.3-5.9,6.5-7c-17.6-51.7-20.9-107.3-9.3-160.7
		c0-0.8-1.3-3.3-6.9-5.1c-9.1-2.9-19.7-1-20.9-0.8l-0.7,0.1L386.2,252.9z"/>
	<path d="M79.6,282.3c8.8,3.4,17.5,7.8,26.8,10.2c9.3,2.6,18.8,4.7,28.4,6.2c9.6,1.6,19.4,2.8,29.1,4.1c9.7,1.2,19.5,1.9,29.3,2.4
		c-9.8,0.5-19.7,0.7-29.5,0.3c-9.8-0.4-19.6-0.7-29.5-1.4c-9.9-0.7-19.8-1.9-29.6-3.7c-10-1.7-19.4-5.3-29.1-8.2L79.6,282.3z"/>
</g>
</svg>
