<?xml version="1.0" encoding="utf-8"?>
<!-- Generator: Adobe Illustrator 24.0.0, SVG Export Plug-In . SVG Version: 6.00 Build 0)  -->
<svg version="1.1" id="Galley" xmlns="http://www.w3.org/2000/svg" xmlns:xlink="http://www.w3.org/1999/xlink" x="0px" y="0px"
	 viewBox="0 0 509.2 741.3" style="enable-background:new 0 0 509.2 741.3;" xml:space="preserve">
<style type="text/css">
	.penguin_top_hat-st0{fill:#A51C1C;}
	.penguin_top_hat-st1{fill:#E5C333;}
	.penguin_top_hat-st2{fill:#FFFFFF;}
	.penguin_top_hat-st3{fill:#252560;}
	.penguin_top_hat-st4{fill:#1B1B44;}
	.penguin_top_hat-st5{fill="url(#SVGID_1_)";}
	.penguin_top_hat-st6{fill:#0586A6;stroke:#000000;stroke-miterlimit:10;}
</style>
<g id="Color_body">
	<path id="Color_body_2_" class="penguin_top_hat-st0" d="M495.7,339c-8.2,255.4-8.2,255.5-8.2,255.7c0,12.2-2.1,24.3-6.4,35.8
		c-13.5,34.5-47.7,54.6-81.5,65.6c6.2-10.2,30.1-51.8,15.3-67.8c-3.4-3.8-8.5-5.5-13.5-4.6c2.1-10.2-3-24.6-15.9-24.2
		c5.5-17.2,9.8-34.7,12.9-52.4c29.6-17.1,53.8-34.1,55.9-35.6c5.7-4.1-0.5-12.9-6.3-8.8c-12.2,8.7-33.6,22.7-56.7,35.9
		c-0.4,0.2-0.8,0.4-1.1,0.6c-33.7,19.2-71,36.3-89.8,32.3c-4-0.9-6.8-2.7-8.6-5.7c-14.4-24.7,10-52.1,40.8-86.8
		c33.3-37.5,70.8-79.9,73.1-134.3h0.2c0-0.4,0-5,0-5.2c0.8-105.7-83.2-182.1-185-173.9C349.4,105.6,499.5,194.2,495.7,339z"/>
	<path id="Color_body_1_" class="penguin_top_hat-st0" d="M104.9,469.9v45.9c-3,2.6-6.2,5.2-9,8c-3.1,3.1-6.1,6.3-8.8,9.7
		C84.4,506.2,96,483.1,104.9,469.9z"/>
	<path id="Color_body" class="penguin_top_hat-st0" d="M152.9,359.9l70.6-19.5c2.3,12.4,1.4,25.1-2.8,37L152.9,359.9z"/>
</g>
<g id="Shape">
	<polygon class="penguin_top_hat-st1" points="367.8,610.2 362.3,598.1 354.3,596.5 341.8,607.5 327.3,617.7 313.1,636.7 302,656.5 294.7,683.9 
		296.5,707.9 307.3,726.3 317.9,733.2 339.4,735.9 366.8,726.5 392.8,696.6 408.7,666.1 414.2,641.2 408.1,629.8 395.4,631.4 
		395.3,611.9 385.4,604.8 372.8,607.5 	"/>
	<polygon class="penguin_top_hat-st1" points="51.9,599.8 40.3,590.9 31.6,589.6 24.3,596.3 24.3,607.5 21.1,614.4 8.7,616.3 5.4,622.1 5.4,634.6 
		25.8,679.4 43.8,701 65.3,718.9 87,720.4 107,714.9 121.6,696.6 125.3,666.1 117.7,641.2 101.3,613.6 87.1,596.3 73.8,584.6 
		61,581 52.4,590.4 	"/>
	<path class="penguin_top_hat-st2" d="M292.7,713.2c-69.2,2.8-133.3-6.9-150.8-13.5c-4.7-1.6-9.3-3.6-13.8-6c11.2-38.2-17.3-88.4-52.1-114.1
		c9-38.2,41.6-68.9,80.3-75.6c2.9-0.5,4.9-3.3,4.4-6.3l0,0c-2.2-12.3-38.5,6.3-45,10.4v-138c16.9,15.4,45.6,19.3,66.2,8.4l45.2,11.7
		c9.4-19.8,10.9-42.4,4.1-63.3l-15.8,4.4c6.8-47.8-47-84.3-88.8-60.9c13.3-36.8,37.7-68.5,70-90.6C300,157,396.5,229.6,395.2,340.1
		c-0.2,52.5-37.6,94.6-70.6,131.7c-32.4,36.5-60.3,67.9-42,99.4c19.4,28.2,71.8-1.4,103.5-17.3c-3.3,17-7.8,33.7-13.5,50
		c-0.1,0.1-0.2,0.1-0.3,0.2c-15.4-38.5-56,15.9-67.1,34.8C289.2,664.3,285.2,692.7,292.7,713.2z"/>
	<circle cx="308.5" cy="317.7" r="58.6"/>
	<path d="M451.1,196.2c-65.8-69.9-181.9-79.6-260.3-25.5c-26.3,18-47.8,42.1-62.8,70.2c-6.9,12.9-12.3,26.6-16.2,40.7
		c-19.7,18.7-23.1,54.2-6.9,76.5v94c-7.3,8.1-37.8,45.8-26.7,94.2c-5.5,9.2-9.6,19.1-12.3,29.5c-9-2-17.1,5.4-18.6,12.9
		c-16.8-12-32.5,0.6-29.1,19.5c-5-0.9-10.1,0.9-13.5,4.6c-15.9,17.2,13.1,64.3,16.5,69.7c24.6,39.5,77.2,63.4,102.9,21.6
		c4.6,2.4,9.3,4.4,14.2,6.1c14.7,7.5,107.8,18,159.9,13.9c23.5,32.9,69.5,13.9,90.9-13.3c56.2-14.4,110.4-52.1,109.2-115.7
		c0-1.5,8.2-255.5,8.2-255.5C508.4,286,488.4,234.3,451.1,196.2z M152.9,359.9l70.6-19.5c2.3,12.4,1.4,25.1-2.8,37L152.9,359.9z
		 M104.9,469.9v45.9c-3,2.6-6.2,5.2-9,8c-3.1,3.1-6.1,6.3-8.8,9.7C84.4,506.2,96,483.1,104.9,469.9z M104.1,710.3
		c-20.7,13.1-53.8-2.1-73.8-33.8c-16.2-24.3-30.8-68.3-7.7-55.2c4.1,3.3,10.3-1.3,8.4-6.2c-6.8-20.4,2.2-27.6,16.8-11.8
		c3.3,4.1,10.4,0.8,9.4-4.3c-1.4-29.9,27.4-2.7,48,30.1C125.3,660.9,124.8,697.3,104.1,710.3z M292.7,713.2
		c-69.2,2.8-133.3-6.9-150.8-13.5c-4.7-1.6-9.3-3.6-13.8-6c11.2-38.2-17.3-88.4-52.1-114.1c9-38.2,41.6-68.9,80.3-75.6
		c2.9-0.5,4.9-3.3,4.4-6.3l0,0c-2.2-12.3-38.5,6.3-45,10.4v-138c16.9,15.4,45.6,19.3,66.2,8.4l45.2,11.7
		c9.4-19.8,10.9-42.4,4.1-63.3l-15.8,4.4c6.8-47.8-47-84.3-88.8-60.9c13.3-36.8,37.7-68.5,70-90.6C300,157,396.5,229.6,395.2,340.1
		c-0.2,52.5-37.6,94.6-70.6,131.7c-32.4,36.5-60.3,67.9-42,99.4c19.4,28.2,71.8-1.4,103.5-17.3c-3.3,17-7.8,33.7-13.5,50
		c-0.1,0.1-0.2,0.1-0.3,0.2c-15.4-38.5-56,15.9-67.1,34.8C289.2,664.3,285.2,692.7,292.7,713.2z M389.3,692.1
		c-45.5,70.8-122.5,36.1-74.9-47.4c19.2-30.8,49.3-60.8,48-30.1c-0.9,5.2,6.1,8.4,9.4,4.3c2.2-2.5,11.4-11.1,16.4-8
		c4.7,3,2.3,14.8,0.5,19.8c-2,4.9,4.3,9.5,8.4,6.2C419.9,623.5,405.6,667.8,389.3,692.1L389.3,692.1z M495.7,339
		c-8.2,255.4-8.2,255.5-8.2,255.7c0,12.2-2.1,24.3-6.4,35.8c-13.5,34.5-47.7,54.6-81.5,65.6c6.2-10.2,30.1-51.8,15.3-67.8
		c-3.4-3.8-8.5-5.5-13.5-4.6c2.1-10.2-3-24.6-15.9-24.2c5.5-17.2,9.8-34.7,12.9-52.4c29.6-17.1,53.8-34.1,55.9-35.6
		c5.7-4.1-0.5-12.9-6.3-8.8c-12.2,8.7-33.6,22.7-56.7,35.9c-0.4,0.2-0.8,0.4-1.1,0.6c-33.7,19.2-71,36.3-89.8,32.3
		c-4-0.9-6.8-2.7-8.6-5.7c-14.4-24.7,10-52.1,40.8-86.8c33.3-37.5,70.8-79.9,73.1-134.3h0.2c0-0.4,0-5,0-5.2
		c0.8-105.7-83.2-182.1-185-173.9C349.4,105.6,499.5,194.2,495.7,339z"/>
	<circle class="penguin_top_hat-st2" cx="287.4" cy="300" r="19.1"/>
	<circle class="penguin_top_hat-st2" cx="133.3" cy="305.7" r="19.8"/>
	<path class="penguin_top_hat-st3" d="M261.3,118.8c-12.1,21.3,14.4,50.8,28,64.3c33.1,32.7,87.3,56.1,134.3,57.3c19.2,0.5,60.6-0.3,65.8-24.2
		C495.8,187.5,276.4,92.3,261.3,118.8z"/>
	<path class="penguin_top_hat-st4" d="M313,140.6c-12.1,21.3,14.4,50.8,28,64.3c33.1,32.7,57.9,44.8,103.9,35.1c23.1-4.9,39.3,0.1,44.5-23.8
		C495.8,187.5,328.1,114.2,313,140.6z"/>
	<path d="M430.2,245.9c-2.2,0-4.4,0-6.6-0.1c-48.2-1.3-103.7-24.9-138-58.9c-29-28.7-39-53.2-28.9-70.8l0,0
		c7.6-13.3,42-8.3,102.3,14.9c1.4,0.5,142.5,55.7,135.8,86.3C490.6,236.3,468.9,245.9,430.2,245.9z M266,121.5
		c-9.8,17.2,12.8,43.6,27.1,57.8c32.5,32.2,85,54.6,130.7,55.8c35.9,0.9,57.3-6.2,60.4-20c2-9-51.4-44-129.1-73.9
		C292.9,117.2,268.3,117.6,266,121.5L266,121.5z"/>
	
		<linearGradient id="SVGID_1_" gradientUnits="userSpaceOnUse" x1="522.1213" y1="656.4619" x2="672.9968" y2="656.4619" gradientTransform="matrix(1 0 0 1 -222.0213 -488.5212)">
		<stop  offset="0" style="stop-color:#FFFFFF"/>
		<stop  offset="1" style="stop-color:#A5A4DA"/>
	</linearGradient>
	<path class="penguin_top_hat-st5" d="M300.1,148.7c41.3,68.6,128.5,62.4,143.3,60.8c2.5-7.1,5-13.8,7.4-20.3c0.5-1.3-0.1-2.7-1.4-3.3
		c-0.2-0.1-0.5-0.2-0.8-0.2c-25.6-2-50.7-8.4-74.2-18.7l0,0c-25-11-52-32.3-63-41.5C307.9,133.4,304.1,141.1,300.1,148.7z"/>
	<path d="M425.7,217.5c-33.4,0-98.7-8.1-132.9-67l-1-1.8l1-1.8c4.4-8.1,8.6-16.6,12.4-25.1c0.9-1.9,2.6-3.3,4.6-3.8s4.1,0,5.7,1.4
		c8.1,6.8,36.6,29.8,61.9,41c22.8,10,47.1,16.1,71.9,18.1c5.3,0.4,9.4,5.1,8.9,10.4c-0.1,0.9-0.3,1.9-0.6,2.8
		c-2.7,7-5.4,14.4-8.1,22.2l-0.7,2l-2.1,0.3C439.6,217.2,432.7,217.6,425.7,217.5z M300.1,148.7c41.3,68.6,128.5,62.4,143.3,60.8
		c2.5-7.1,5-13.8,7.4-20.3c0.5-1.3-0.1-2.7-1.4-3.3c-0.2-0.1-0.5-0.2-0.8-0.2c-25.6-2-50.7-8.4-74.2-18.7l0,0
		c-25-11-52-32.3-63-41.5C307.9,133.4,304.1,141.1,300.1,148.7z"/>
	<path class="penguin_top_hat-st3" d="M305.8,130.2c0,0,31-65.6,39.8-106.8c2.8-13,15.3-21.6,28.5-19.5c17.5,2.6,41.1,7.5,62.5,16.6
		c21.2,9.2,41.2,21.2,59.2,35.6c10.5,8.3,12.8,23.3,5.1,34.3c-12,17.3-30.2,49.2-48.5,102.5C452.5,192.9,353.3,202.8,305.8,130.2z"
		/>
	<path class="penguin_top_hat-st4" d="M324.9,154.5c0,0,31.6-67.5,42.6-113.7c3.4-14.6,16.5-24.6,30.1-23.1c17.8,2,39.9,9,61.3,18.1
		c25.4,10.8,24.6,17,38,28.4c10.4,8.9,5.7,23.5-2.5,36.1c-13.1,19.8-21.9,34-43.1,94.2C443.4,188.4,380.2,199.3,324.9,154.5z"/>
	<path d="M441.1,196.9c-28.2,0-100-6.1-138.3-64.7l-1.1-1.7l0.9-1.8c0.3-0.7,31-65.7,39.6-106C345.4,7.8,359.6-2,374.7,0.3
		c16.7,2.5,41.2,7.4,63.4,16.8c21.5,9.3,41.7,21.5,60.1,36.1c12.1,9.4,14.6,26.6,5.9,39.2c-11.9,17.2-29.9,48.8-48.1,101.6l-0.8,2.2
		l-2.3,0.2C452.7,196.5,448.3,196.9,441.1,196.9z M309.9,129.9c42.2,62.2,125.2,60.4,140,59.5c18.2-52.3,36.2-83.8,48.2-101.1
		c6.6-9.4,4.6-22.4-4.4-29.4c-17.8-14.2-37.5-26.1-58.4-35.1c-21.5-9.2-45.4-13.9-61.6-16.3c-11.3-1.9-22.1,5.5-24.5,16.7
		C341.1,61.9,315.1,118.8,309.9,129.9z"/>
	<path class="penguin_top_hat-st6" d="M310.1,119.7"/>
</g>
</svg>
