<?xml version="1.0" encoding="utf-8"?>
<!-- Generator: Adobe Illustrator 25.2.3, SVG Export Plug-In . SVG Version: 6.00 Build 0)  -->
<svg version="1.1" id="PefiLeon" xmlns="http://www.w3.org/2000/svg" xmlns:xlink="http://www.w3.org/1999/xlink" x="0px" y="0px"
	 viewBox="0 0 630.7 728" style="enable-background:new 0 0 630.7 728;" xml:space="preserve">
<style type="text/css">
	.penguin_sasquatch-st0{fill:#A51C1C;}
	.penguin_sasquatch-st1{fill:#422817;stroke:#422817;stroke-width:4;stroke-miterlimit:10;}
	.penguin_sasquatch-st2{fill:#281910;}
	.penguin_sasquatch-st3{fill:#FFE3AB;}
	.penguin_sasquatch-st4{fill:#422817;}
	.penguin_sasquatch-st5{fill:#FFFFFF;}
	.penguin_sasquatch-st6{fill:#C7D8EF;}
	.penguin_sasquatch-st7{fill:#33A9FF;}
	.penguin_sasquatch-st8{fill:#F5F9FF;}
	.penguin_sasquatch-st9{fill:#249FEA;}
	.penguin_sasquatch-st10{opacity:0.35;}
	.penguin_sasquatch-st11{fill:#91AAC4;}
	.penguin_sasquatch-st12{fill:none;stroke:#000000;stroke-width:4;stroke-linecap:round;stroke-miterlimit:10;}
	.penguin_sasquatch-st13{fill:none;stroke:#C7D8EF;stroke-width:4;stroke-linecap:round;stroke-miterlimit:10;}
	.penguin_sasquatch-st14{opacity:0.64;fill:#FFFFFF;enable-background:new    ;}
</style>
<g id="Color">
	<g id="color">
		<g>
			<path class="penguin_sasquatch-st0" d="M407.4,369.2c-12.9,37-40.5,68.1-65.6,96.5c-30.7,34.6-55,62-40.7,86.6c1.7,2.9,4.5,4.8,8.5,5.7
				c18.7,4,55.9-13.1,89.6-32.2c0.3-0.3,0.7-0.5,1.1-0.6c23.1-13.2,44.4-27.2,56.6-35.9c5.8-4.1,12,4.7,6.3,8.8
				c-2.1,1.5-26.2,18.5-55.8,35.5c-3.1,17.7-7.4,35.2-12.9,52.3c12.8-0.4,17.9,13.9,15.8,24.1c5-0.9,10.1,0.8,13.4,4.6
				c14.7,15.9-9.1,57.5-15.3,67.7c33.7-11,67.9-31.1,81.4-65.5c4.3-11.4,6.5-23.5,6.4-35.7c0-0.1,0-0.2,6.8-211.9L407.4,369.2
				L407.4,369.2z"/>
		</g>
		<path id="color-4" class="penguin_sasquatch-st0" d="M161.3,346l73.4-20.3c2.4,12.8,1.5,26.1-2.8,38.5L161.3,346z"/>
	</g>
</g>
<g id="Shape">
	<g id="Layer_6">
		<path class="penguin_sasquatch-st1" d="M419.3,365l-0.9-1.5l-5.1,1.5h-4.2c-0.2,0.5-0.3,0.9-0.5,1.4l-10.2,3.1L373.6,395l-12.9,10.4
			c-13.3,7.5-32.2,18.2-33.4,19.1l-0.1,0.1c-65.5,39.1-143.5,20.3-206.8-44.3l5.1,113.9c6.5-4,42.7-22.6,44.9-10.4l0,0
			c0.5,2.9-1.4,5.7-4.4,6.3c-38.6,6.6-71.2,37.3-80.1,75.4c34.7,25.7,63.1,75.7,52,113.9c4.4,2.3,9,4.3,13.8,5.9
			c17.5,6.6,81.5,16.2,150.6,13.4c-0.6-1.8-1.2-3.6-1.7-5.5c1.9,0.2,3.8,0.4,5.8,0.6c1.8,0.3,3.6,0.6,5.4,0.8
			c11.1,29.1,52.5,30.4,82.7-11c5.2-0.4,10.3-1.5,15.2-3.5c-0.3,0.5-0.6,1-0.9,1.4c33.7-11,67.9-31.1,81.4-65.5
			c4.3-11.4,6.5-23.5,6.4-35.7c0-0.1,0-0.2,6.9-215.5h-84.2V365L419.3,365z M399.8,525.1c0.3-0.3,0.7-0.5,1.1-0.6
			c23.1-13.2,44.4-27.2,56.6-35.9c5.8-4.1,12,4.7,6.3,8.8c-2.1,1.5-26.2,18.5-55.8,35.5l-12.3,6.9c-31.6,15.9-83.9,45.4-103.3,17.2
			c-13.7-23.5-1.5-47,19-72.5l2.5,1.9l9.6,0.3c-3.2,3.8-6.2,7.6-9,11.3c23.1,0.5,27.9,25.1,17.9,29.5c8.7,9.1,22,6.8,23.8,19.3"/>
		<g>
			<path class="penguin_sasquatch-st2" d="M453.3,484.1c-12.2,8.7-33.5,22.7-56.6,35.9c-0.4,0.2-0.8,0.4-1.1,0.6c-13.3,7.5-27.1,14.7-40.1,20.5v11.8
				c12.9-5.6,25.5-12.3,35.9-17.5l12.3-6.9c29.6-17,53.7-34,55.8-35.5C465.3,488.8,459.1,480,453.3,484.1z"/>
			<path class="penguin_sasquatch-st2" d="M87,549.4c-3.1,6.4-5.5,13.1-7.2,20c25.8,19,48.1,51.6,53.3,82.7C139.7,617.5,116.7,574.9,87,549.4z"/>
			<path class="penguin_sasquatch-st2" d="M496,576.9c-1,7.8-2.9,15.5-5.6,22.9c-13.5,34.4-47.7,54.5-81.4,65.5c0.3-0.4,0.5-0.9,0.9-1.4
				c-4.9,1.9-10,3.1-15.2,3.5c-30.3,41.4-71.6,40.1-82.7,11c-1.8-0.2-3.6-0.5-5.4-0.8c-1.9-0.2-3.8-0.4-5.8-0.6
				c0.5,1.8,1,3.7,1.7,5.5c-69.1,2.8-133.1-6.9-150.6-13.4c-4-1.4-7.8-3-11.6-4.9c0.8,8.5-3.8,17.3-6.1,25.1
				c4.4,2.3,13,3.9,17.7,5.5c17.5,6.6,81.5,16.2,150.6,13.4c-0.6-1.8-1.2-3.6-1.7-5.5c1.9,0.2,3.8,0.4,5.8,0.6
				c1.8,0.3,3.6,0.6,5.4,0.8c11.1,29.1,52.5,30.4,82.7-11c5.2-0.4,10.3-1.5,15.2-3.5c-0.3,0.5-0.6,1-0.9,1.4
				c33.7-11,67.9-31.1,81.4-65.5c4.3-11.4,6.5-23.5,6.4-35.7c0,0,0-0.1,0.4-13H496V576.9z"/>
		</g>
	</g>
	<path class="penguin_sasquatch-st3" d="M377.4,595.8c-5.7-19.1-14.8-14.5-26-2.7c-9.7,4.5-23.1,20.2-28.7,29.2c-24.1,32.8-29.9,101.3,26.3,99
		c22.5-3.1,40.6-22.2,53.3-39.2c8.3-15,40.5-72.6,2.6-65.1C407.8,595.5,398.6,584,377.4,595.8z"/>
	<path class="penguin_sasquatch-st3" d="M62.1,585.5c-7.7-7.1-20.1-15.7-27.5-3.5c0.5,4.9-0.1,14-3.2,18.1c-36.9-1.6,0.8,50.6,4.7,64.9
		c8.2,11.6,27.9,31.2,39.5,39.4c72.3,12.7,69.4-63.2,35.9-105.1C101,583.3,64.4,545.3,62.1,585.5z"/>
	<path class="penguin_sasquatch-st4" d="M531.4,338.7c0,0-5.6-31-30.9-58c5.8-114.1-100.5-153.1-157-152.1c6.6-4.7,17.8-14.4,35.4-35
		c-29.9-4.2-48.6,0.8-60.1,7.5c-5.1,3-11.3-1-10.7-6.8c0.5-4.4,0.8-9.4,1.1-15.3c-41.6,7.9-46.7,43.1-46.7,43.1s-25.9-37.8-61-25.4
		c4.1,16.4-0.4,10.7,6.9,17.8c-14.6,8.7-23.1,18.3-28.3,25.6c-10.9,15.5-10.7,26.7-24.3,37.7c-8.8,7.2-13.1,6-21.3,11.3
		c-10.1,6.6-21.5,20.4-25.7,52.1c-26,13.8-49.1,43.2-56.8,70.1c6.6-0.5,13.8-0.8,20.5-0.9c-7.5,13-15.8,35.6-18.3,51.9
		c7.9,0.8,15.8,1.6,23.8,2.3c-7.1,17-10.9,44.7-8.7,63.2c0,0,23.6-7.7,27.5-9.4c12.2,27.7,30.1,48,62.8,57.1
		c1.3,19.7,13.7,33,13.7,33s26.5-18.2,35.8-24.1c-0.4,4.8-0.4,11.8,1.7,19.9c3.3,12.3,13.2,23.9,17,28.1
		c8.3-6.9,38.7-36.5,47.3-42.8c2.8,3.7,6,8.7,8.6,15c3.8,8.8,5.1,16.8,5.6,22.5c7.7-1.9,22.3-6.5,36-18.8c9-8,14.5-16.6,17.7-22.6
		c58.3-6.3,98.1-24.3,124.6-63.7c3.6,8.2,7.2,16.4,10.8,24.5c4.7-2.9,16.4-11.1,23.7-26.8c7.5-16.2,5.9-30.8,5-36.3
		c4.3,3.8,8.7,7.7,13,11.5c1.3-5,2.3-10.8,2.6-17.4c0.9-18.7-4.7-33.6-8.8-42.3C523.3,336.4,531.4,338.7,531.4,338.7z M230.6,363.5
		L162.8,346l70.5-19.5C235.6,338.8,234.7,351.6,230.6,363.5z"/>
	<g>
		<path class="penguin_sasquatch-st2" d="M203.1,104.9c0,0.1,0,0.2,0,0.3l0.1-0.1C203.2,105,203.1,104.9,203.1,104.9z"/>
		<path class="penguin_sasquatch-st2" d="M468.6,410.6c-7.5,9.1-17.1,18.8-29.2,28.1c-38.4,29.3-79.5,35.8-101.6,37.5c-3.7,6.4-9.3,14.6-17.7,22.6
			c-11.6,11.1-23.6,17.3-32,20.8c0.5,2.8,0.9,5.3,1.1,7.5c7.7-1.9,22.3-6.5,36-18.8c9-8,14.5-16.6,17.7-22.6
			c58.3-6.3,98.1-24.3,124.6-63.7c1.7,3.9,3.4,7.8,5.1,11.6C471.4,425.9,470,418.2,468.6,410.6z"/>
		<path class="penguin_sasquatch-st2" d="M513.2,388.8c-4.7-6.6-9.3-13.1-14-19.7c1.1,5.9,3.3,22.6-5.5,40.5c-6.4,13-15.8,20.6-20.8,24.2
			c1.9,4.2,3.7,8.4,5.6,12.6c4.7-2.9,16.4-11.1,23.7-26.8c7.5-16.2,5.9-30.8,5-36.3C509.1,385.2,511.1,387,513.2,388.8z"/>
		<path class="penguin_sasquatch-st2" d="M99.6,411.2c-2.8,1.2-23.9,3.3-30.9,5.6c0,3.9,0.2,7.6,0.6,11c0,0,22.3-7.3,27.1-9.2
			C94.7,415.4,101.1,414.5,99.6,411.2z"/>
		<path class="penguin_sasquatch-st2" d="M154.5,466c-26.8-7.5-43.6-22.5-55.6-42.9c11.7,24.3,28.4,42.3,56.8,51.3C155.1,471.8,154.7,469,154.5,466z"
			/>
		<path class="penguin_sasquatch-st2" d="M214.7,474.3c-11.5,0.5-47.4,22.3-46.5,24.7c0,0-2-2.1-4.4-5.9c4.1,9.6,9.5,15.4,9.5,15.4
			s23.8-16.3,34.2-23.1C209.7,479.3,213.5,475.4,214.7,474.3z"/>
		<path class="penguin_sasquatch-st2" d="M276.1,481.9c-10.1,5.4-21.2,12-32.7,20.2c-8.6,6.1-16.3,12.3-23,18.2c-0.2-0.1-1.9-1.2-4.1-3.1
			c4.1,6.9,9,12.6,11.4,15.2c8.3-6.9,38.7-36.5,47.3-42.8c1.1,1.5,2.3,3.3,3.5,5.2C277.5,490.3,276.7,486,276.1,481.9z"/>
	</g>
	<path d="M227.2,539.9l-3.5-3.8c-4.3-4.7-14.7-17-18.3-30.4c-1-3.6-1.6-7.3-1.9-11.1c-11.3,7.6-26.9,18.3-27.1,18.4l-3.9,2.7
		l-3.2-3.5c-0.5-0.6-12.2-13.2-14.8-32.5c-27.5-8.6-46.9-26.1-60.5-54.4c-7.8,2.7-21.1,7.1-22.9,7.7l-6.4,2.1l-0.8-6.7
		c-2-17.2,0.8-41.2,6.6-59L48,367.2l0.9-5.7c2-13.1,8-31.3,14.5-45.1c-3.7,0.1-7.4,0.4-10.9,0.6l-7.8,0.6l2.2-7.6
		c8-28.1,31.3-57.4,57-72.1c3.9-25.8,13.2-43.7,27.7-53.2c4-2.7,7.3-3.9,10.2-5c3.4-1.3,6.4-2.4,10.7-6c7.2-5.9,10-11.7,13.4-19.1
		c2.4-5.1,5.2-11,9.8-17.5c6.3-8.9,14.4-16.8,24.1-23.4c-1-1.4-1.4-2.8-1.7-5.3c-0.2-1.7-0.5-4.4-1.9-10.2l-1.2-4.8l4.7-1.7
		c16.2-5.7,33-2.7,48.8,8.8c4.8,3.5,8.8,7.2,11.8,10.4c1.3-3.1,3-6.6,5.4-10.3c6.5-9.8,19.1-22.4,42.5-26.9l6.8-1.3l-0.3,7
		c-0.3,5.7-0.6,10.9-1.1,15.6c-0.1,0.8,0.3,1.3,0.7,1.5c0.3,0.2,1,0.5,1.8,0c15.6-9.2,37-11.9,63.6-8.2l9.9,1.4l-6.5,7.6
		c-9.3,10.9-17.6,19.7-24.9,26.4c35.4,3.1,79.6,18.9,110.1,50.4c26.8,27.7,39.5,62.8,37.9,104.6c24.8,27.4,30.5,57.7,30.7,59
		l1.6,8.7L530,344c0,0-2.9-0.8-7-1.7c4.1,11.6,5.9,23.4,5.4,35.5c-0.3,6.2-1.2,12.5-2.8,18.5l-2.2,8.7l-9.9-8.8
		c-0.3,7.4-1.9,16.4-6.2,25.8c-7.4,16-19.3,25.1-25.7,29.1l-5.4,3.4l-9.5-21.6c-25.7,33.3-63.3,51.3-120,57.9
		c-4.7,8.1-10.5,15.4-17.5,21.6c-10.8,9.7-24.1,16.6-38.4,20l-6.2,1.5l-0.6-6.4c-0.6-7.2-2.4-14.2-5.2-20.8
		c-1.3-3.2-2.9-6.2-4.8-9.1c-6.3,5.4-16.1,14.6-24.4,22.3c-7.9,7.4-14.8,13.8-18.2,16.7L227.2,539.9z M215.4,473.8l-1,11.1
		c-0.5,6.1,0,12.1,1.5,18c2.2,8.3,8.1,16.6,12.2,21.7c3.6-3.3,8.6-7.9,13.7-12.7c12-11.2,24.4-22.8,29.8-26.8l4.4-3.2l3.2,4.4
		c3.7,5,6.8,10.4,9.3,16.1c2.4,5.7,4.2,11.6,5.2,17.7c8.2-2.6,18.3-7.4,27.7-15.9c6.7-6,12.3-13.1,16.5-21.1l1.4-2.6l2.9-0.3
		c59.2-6.4,96.4-25.3,120.7-61.3l5.6-8.3l12.1,27.5c5.3-4.2,11.8-10.9,16.3-20.7c6.4-13.8,5.6-26.7,4.5-33.1l-2.5-15.2l17.4,15.4
		c0.3-2.4,0.6-4.8,0.7-7.2c0.6-13.5-2.2-26.9-8.3-39.7l-4.3-9.1l10,1.3c3.3,0.4,6.4,1,9.1,1.5c-3.4-10.6-11.2-29.7-27.3-46.8
		l-1.6-1.7l0.1-2.3c2-39.6-9.7-72.9-34.7-98.7c-31.9-33-80.1-47.6-114.6-47.6c-0.7,0-1.4,0-2.1,0l-17.9,0.3l14.6-10.3
		c5.2-3.7,14-11.1,27.5-26.1c-19.2-1.4-34.7,1.2-46.2,7.9c-4.2,2.4-9.2,2.3-13.3-0.3c-4-2.6-6.2-7.1-5.7-11.9c0.2-2.4,0.5-5,0.7-7.7
		c-31,9.3-35.3,36.5-35.3,36.8l-2,14l-8-11.7c-0.9-1.3-21.6-30.8-50-24.6c0.6,3.2,0.8,5.1,1,6.5c0,0.2,0,0.3,0.1,0.5
		c0.3,0.3,0.8,0.8,1.2,1.2c0.5,0.5,1.2,1.1,1.9,1.9l5.2,5l-6.2,3.7c-11.1,6.6-20,14.7-26.6,24.1c-4.1,5.8-6.5,10.9-8.8,15.9
		c-3.8,8-7.3,15.5-16.4,23c-5.7,4.6-9.9,6.3-13.7,7.7c-2.7,1-5,1.9-8.1,3.9c-12.2,8.1-20.1,24.3-23.3,48.2l-0.4,2.8l-2.5,1.3
		c-21.6,11.5-42.3,35.5-51.6,59.3c4.2-0.2,8.5-0.3,12.6-0.4L82,305l-4.9,8.4c-6.6,11.4-13.3,29.6-16.5,44l25.2,2.5l-2.8,6.9
		c-5.9,14.3-9.5,36.6-8.9,53.6c8.6-2.8,18.3-6.1,20.4-7l5-2.2l2.2,5c13.1,29.6,31.3,46.3,59.2,54.1l3.7,1l0.3,3.9
		c0.8,11.7,6,21,9.4,25.9c7.9-5.4,24.6-16.8,31.7-21.3L215.4,473.8z"/>
	<path class="penguin_sasquatch-st5" d="M372,213.5c-57.6-68.8-153.8-54.5-158.8-53.7c-29,11.8-72.9,63.8-79.2,97.9c39.4-14.5,88.8,17.6,91.5,59.5
		l15.7-4.4c6.8,20.8,5.3,43.4-4.1,63.1l-45.3-11.3c-19.2,9.2-54.2,2.3-68.2-13c-3.2,9.9,1.3,35.8,11.1,44.8c3.5-2.4,6.2-8.7,11.2-6
		c6.2,4.2-0.6,10.3-4.5,13.3c21.7,21.2,77.7,34.2,91.4,37.3c24.3-0.2,40.8,1.1,67.7-7.1c7.4-2.6,36.9-10.7,54.2-23.6
		c-0.1-0.1-2.9-1.2,1.1-1.4c-6.6,0.1-0.1-2.1,0.8-4.1c-9.4-3.9,2.1-16,6-6.3c0.5,0.1,1.1,0.4,1.5,0.7c2,0.3,4.1,1.3,5.4,2.8
		C442.5,356,394.4,232.7,372,213.5z"/>
	<g id="Layer_2_1_">
		<path d="M415.7,330.7c-0.2-0.3-0.1-4.9-0.2-5.1C416.7,220.7,332,143.5,230.9,152c-54.8,3.9-95.7,65.2-109,115.7
			c-19.7,18.7-23.1,54.1-6.9,76.4l0.4,12.9c0.4,13.9,5.3,27.4,14,38.3c0.9,1.1,1.7,2.1,2.6,3.2c0.4-1.2,1.3-2.2,2.5-2.7
			c0.8-1.3,2.1-2.3,4.1-2.3c5.7,0,6.4,7.9,1.9,9.6c-0.5,0.9-1.3,1.6-2.4,2c55.8,56.1,156.1,51.1,222.1,9.3c-2.3-2.9-4.3-6-6.7-9
			c-5.1,3.1-10.4,6.1-16,8.8C270.7,448.5,175,445,132.1,380.9c-4.1-5.7-6.2-12.6-6.4-19.6l-0.1-5.1c16.9,15.3,45.5,19.2,66.1,8.4
			l45.1,11.6c9.4-19.7,10.9-42.3,4.1-63.1l-15.7,4.4c6.8-47.7-46.9-84.2-88.6-60.8c8.4-23.2,21.2-44.3,37.7-62.4
			c13-13.9,27.8-28.6,47.7-30.8c108.4-15,201.8,78.3,179.1,190l-2.5,8.5c-8,13.7-20.7,26.7-36.8,37.9c2.1,3,4.1,6.3,6.6,9
			c16.6-11.9,30.7-26.2,40.6-42.6l2.9-9.8l-0.2-0.1c2.1-8.3,3.4-16.9,3.8-25.8h0.2V330.7z M233.3,326.5c2.3,12.3,1.4,25.1-2.7,37
			L162.8,346L233.3,326.5z"/>
	</g>
	<circle cx="318.2" cy="303.8" r="58.5"/>
	<path d="M512.5,390.8c-1.9,2.7-10.6,22.2-11.2,22.5c-1.4,44.5-2.8,112.7-4.3,157.4c-0.1,3.2-0.2,6.4-0.3,9.5
		c0.2,23.7-8.3,47.6-25.1,64.6c-17,17.7-39.6,29-62.7,36.6c0.1-0.1,0.2-0.2,0.2-0.4c0,0,0,0-0.1,0c6.3-10.3,30-51.7,15.3-67.5
		c-3.4-3.8-8.5-5.5-13.5-4.6c1-7.4,0.3-16.8-7.5-21.7c-7.1-4.5-15.2-1.9-21.6,2.4c-1.6-5.8-5.2-11.2-12.6-12.9
		c-19.4-4.3-44.7,31.8-54.7,47.5c-11.1,17.4-16.9,36.8-16.3,54.5c0.2,7.3,1.5,13.9,3.8,19.9c-39.1,1.7-82.8-1.2-111-5.3
		c-13.1-2-26.8-3.9-39.2-8.2c-4.7-1.6-9.3-3.6-13.8-5.9c11.4-41.4-19.7-89.9-52-113.9c8.5-36.1,38.4-65.8,74.5-74.2
		c-1.2-3.4-1.2-7.4-1.2-11.1c-11.9,2.2-29.4,11.3-33.7,14.1v-43.6c-4-3.8-7.7-7.8-11.1-12.1c-7.8,8.8-37.3,46-26.3,93.6
		c-2.3,3.9-4.4,8-6.3,12.1c-2.5,5.6-4.5,11.4-6,17.3c-8.4-2-17.1,5.1-18.6,12.9c-14.9-11.3-32.6-1-29,19.4
		c-4.9-0.9-10.1,0.9-13.5,4.6c-15.9,18.5,13.3,64.1,16.4,69.5c24.6,40.3,78.6,62.4,102.7,21.5c4.6,2.3,9.3,4.4,14.2,6.1
		c14.7,7.4,107.5,17.9,159.5,13.8c1.5,2.1,3.2,4.1,5.1,5.9c24.5,24.4,65.7,6.3,85.8-19.2c55-13.9,110.4-51.7,109-115.5
		C509.2,530.4,510.9,441.5,512.5,390.8z M99.8,488.5c3.5-12.7,8.5-22.8,15.1-32.8v45.8c-3,2.6-6.2,5.1-9,8c-3.1,3.1-6.1,6.3-8.8,9.7
		C96.1,508.2,97.3,497.8,99.8,488.5z M40.5,662c-11.4-15.8-33.5-68.9-7.7-55.1c4.2,3.4,10.4-1.5,8.4-6.1C35.7,586,39.7,570.2,58,589
		c3.4,4.1,10.4,0.7,9.4-4.3c-2.2-39.6,48,21.8,57,48.2c2.9,7.7,4.8,15.7,5.4,23.8C132.7,716.4,70.8,711.2,40.5,662z M345,715.5
		c-11.7,0.5-22.8-4.1-29.4-14c-3.9-6.1-6.1-13.9-6.4-23c-0.5-15.6,4.7-32.8,14.6-48.4c19-29.9,36.4-44.3,43.2-42.9
		c6.5,1.5,5,12.7,5,12.8c-0.2,1.8,0.4,3.5,1.8,4.7c2.2,2,5.6,1.8,7.6-0.4c2.2-2.5,11.4-11.2,16.5-8c4.8,3,2.4,14.6,0.5,19.8
		c-0.8,2.2,0,4.7,1.9,6.1c1.9,1.4,4.6,1.4,6.5,0c0,0,6.7-4.9,10-1.3c5.9,6.4-2,31.7-17.7,56.4C384.6,699.9,363.4,714.1,345,715.5z"
		/>
	<path d="M354.8,555.7c0-0.1-0.4-0.8-0.3-0.8c-0.1-0.2-0.2-0.4-0.3-0.6c-0.2-0.4-0.4-0.7-0.6-1.1l0,0l-0.1-0.1
		c-0.1-0.1-0.2-0.2-0.2-0.2l0,0c-0.1,0-0.1-0.1-0.2-0.1s-0.2-0.1-0.3-0.1c-1.5-0.5-2.7-1.6-3.3-3c-6.6,2.5-13.2,4.7-20.1,6.4
		c-9.4,2.1-24.4,4.2-28.7-6.7c-2.3-4.6-3.3-9.7-3.1-14.8c0.3-3.7,1-7.3,2.1-10.8c-3.4,1.3-7,1.5-10.3-0.5c-0.3-0.2-0.5-0.3-0.7-0.5
		c-3.2,11.2-3,22.8,3.8,34c13,18.7,40.5,11.6,63.6,1.9C355.6,557.7,355.2,556.7,354.8,555.7z"/>
	<path class="penguin_sasquatch-st2" d="M99.8,488.5c3.5-12.7,8.5-22.8,15.1-32.8v45.8c-3,2.6-6.2,5.1-9,8c-3.1,3.1-6.1,6.3-8.8,9.7
		C96.1,508.2,97.3,497.8,99.8,488.5z"/>
	<g id="Layer_4">
		<circle class="penguin_sasquatch-st5" cx="297.1" cy="286.1" r="19.1"/>
		<circle class="penguin_sasquatch-st5" cx="143.3" cy="291.8" r="19.7"/>
	</g>
	<path d="M457.5,488.4c-0.7,0.5-1.4,1-2.1,1.5c-17.9,12.4-35.1,23.2-54.4,34.4c-0.4,0.2-0.8,0.4-1.1,0.6c-1.1,0.6-2.2,1.2-3.3,1.8
		c-9.3,5.1-18.3,10.6-27.2,16.4c-6.5,4.3-12.7,8.4-12.7,8.4s-3.1-9.2,5.6-21.6c-3.4,2-6.7,2.7-9.8,2.7c-8.2,0-14.3-5.3-14.3-5.3
		s1.6-13.8,13.5-18.6c-0.7,0.1-1.3,0.1-1.9,0.1c-7.2,0-12.8-5.1-15.6-8.4c-3.2,2.1-6.7,3.8-10.5,4.5c1.3,1.8,3.9,5.1,7.8,8.1
		c-2.6,4.8-3.9,9.6-4.3,13l-0.7,5.8l4.4,3.8c0.7,0.6,6.3,5.2,14.4,7.1c-0.1,0.6-0.1,1.1-0.2,1.6c-0.5,5.7,0.6,9.5,1,10.5l4.1,12.3
		l11.5-6.1c0.5-0.2,11.3-6,22.6-14.1c2.6-1.9,5-3.7,7.3-5.6c1.3-0.7,2.7-1.4,4-2c17.2-9.3,39.9-23.3,52.3-31.6
		c5.6-3.8,11.5-7.4,16.8-11.6C468.7,492.1,462.9,484.6,457.5,488.4z"/>
	<path d="M339,375.1l6.5,28.9l5.1,16.2c3.4-1.5,7.1-4.1,10.2-6.1l-5-13.9l11.2,9.7c2.9-1.8,5.1-4.3,8-5.9c4.4-2.3,4.6-8.6,8.8-11.2
		c0.7-0.5,1.5-1,2.3-1.5L363.9,379l4.7,17.1l-6.1-4.7L339,375.1z"/>
	<path d="M131.4,391.5c0.5,1,1,2,1.6,3c0.9,0.8-3.8,0.7-2.9,1.6c0.6,0.7,3.1,3.5,3.7,4.3l7.9-4l-3.9,8.2c0.3,0.4,1.7,1.6,2,2
		c2.1,1.7,4.6-0.4,6.9,1l7.9-28.1L131.4,391.5z"/>
	<path class="penguin_sasquatch-st6" d="M307.8,53.7c-67,2.6-123.4,9-142.5,84.2c-0.2,36.3,0.6,35-32.1,45.1l-18.4,32.9c20.1-13.9,56.8-28,74.7-23.9
		c25.6,6,77.1,26.4,102.1,35.5c16.5-1.2,63,1,73-16.9c14.2-2.4,20.5-38.3,24.2-48.6C384.2,108.1,357.6,73.9,307.8,53.7z"/>
	<path class="penguin_sasquatch-st7" d="M328.6,53.7c92.5,15.1,177.2,57.9,161,165.4c-25.5-4.1-81.2-17.9-107.2-15.8l2.4-18
		c10.6-36.9-6.7-78.6-31-106.2C348.9,74.6,322.6,64.1,328.6,53.7z"/>
	<circle class="penguin_sasquatch-st5" cx="251.1" cy="125.9" r="38.4"/>
	
		<image style="overflow:visible;enable-background:new    ;" width="603" height="603" xlink:href="../../../Downloads/SnowballFinance.png"  transform="matrix(0.1139 3.613732e-02 -3.613732e-02 0.1139 227.5732 80.1469)">
	</image>
	<g>
		<g>
			<circle class="penguin_sasquatch-st7" cx="250.6" cy="124.7" r="33.3"/>
			<path class="penguin_sasquatch-st7" d="M250.6,93c17.5,0,31.7,14.2,31.7,31.7s-14.2,31.7-31.7,31.7s-31.7-14.2-31.7-31.7S233.1,93,250.6,93
				 M250.6,89.8c-19.3,0-34.9,15.7-34.9,34.9s15.7,34.9,34.9,34.9s34.9-15.7,34.9-34.9S269.8,89.8,250.6,89.8L250.6,89.8z"/>
		</g>
		<path class="penguin_sasquatch-st8" d="M291.2,124.7c0,22.4-18.2,40.6-40.6,40.6c-10.4,0-20-3.9-27.1-10.4c1.2-0.7,2.5-1.5,3.7-2.2l0,0
			c0.5-0.3,1-0.6,1.5-0.8c2.7-1.4,5.1-2.5,6.6-2.8c5.2-0.8,8.2-4.9,9-5.8c2.4-2.5,4.7-2.5,5.4-2.7c3.7-1.1,5.6-3.7,5.8-4.1
			c2.4-3.1,6.6-3.6,7.5-3.9c4.3-1.3,6-3.5,6.8-3.9c4.2-2.3,6.7-0.3,9.5-4.1c1.4-1.9,4.5-4.1,7.3-5.7c1.4-0.9,2.8-1.6,3.7-2.1
			C290.9,119.4,291.2,122,291.2,124.7z"/>
		<path class="penguin_sasquatch-st5" d="M291.2,124.7c0,0.1,0,0.2,0,0.3c0-2.6-0.3-5.1-0.8-7.6c-1,0.5-2.3,1.3-3.7,2.1c-2.8,1.7-5.9,3.8-7.3,5.7
			c-2.9,3.8-5.4,1.8-9.5,4.1c-0.8,0.4-2.5,2.6-6.8,3.9c-0.9,0.3-5.1,0.8-7.5,3.9c-0.3,0.4-2.1,3-5.8,4.1c-0.8,0.2-3,0.2-5.4,2.7
			c-0.8,0.9-3.9,5-9,5.8c-1.5,0.2-3.9,1.3-6.6,2.8c-0.5,0.3-1,0.5-1.5,0.8l0,0c-1.1,0.6-2.2,1.3-3.3,1.9c-0.1-0.1-0.3-0.2-0.4-0.4
			c1.2-0.7,2.5-1.5,3.7-2.2l0,0c0.5-0.3,1-0.6,1.5-0.8c2.7-1.4,5.1-2.5,6.6-2.8c5.2-0.8,8.2-4.9,9-5.8c2.4-2.5,4.7-2.5,5.4-2.7
			c3.7-1.1,5.6-3.7,5.8-4.1c2.4-3.1,6.6-3.6,7.5-3.9c4.3-1.3,6-3.5,6.8-3.9c4.2-2.3,6.7-0.3,9.5-4.1c1.4-1.9,4.5-4.1,7.3-5.7
			c1.4-0.9,2.8-1.6,3.7-2.1C290.9,119.4,291.2,122,291.2,124.7z"/>
		<circle class="penguin_sasquatch-st8" cx="250.6" cy="120.2" r="14.2"/>
		<path class="penguin_sasquatch-st5" d="M261.7,129c1.5-2.3,2.4-5,2.4-7.9c0-7.9-6.4-14.2-14.2-14.2c-4.5,0-8.6,2.1-11.2,5.4
			c2.5-3.8,6.9-6.3,11.8-6.3c7.9,0,14.2,6.4,14.2,14.2C264.8,123.5,263.6,126.5,261.7,129z"/>
		<circle class="penguin_sasquatch-st8" cx="240.8" cy="134.9" r="1.9"/>
		<path class="penguin_sasquatch-st6" d="M241,136.5c-1,0-1.9-0.9-1.9-1.9c0-0.3,0.1-0.6,0.2-0.9c-0.3,0.3-0.5,0.8-0.5,1.2c0,1,0.9,1.9,1.9,1.9
			c0.7,0,1.4-0.4,1.7-1C242.1,136.3,241.6,136.5,241,136.5z"/>
		<circle class="penguin_sasquatch-st8" cx="239.5" cy="141.7" r="0.9"/>
		<path class="penguin_sasquatch-st6" d="M239.6,142.5c-0.5,0-0.9-0.4-0.9-0.9c0-0.2,0-0.3,0.1-0.4c-0.1,0.2-0.2,0.4-0.2,0.6c0,0.5,0.4,0.9,0.9,0.9
			c0.3,0,0.6-0.2,0.8-0.5C240.1,142.3,239.9,142.5,239.6,142.5z"/>
		<circle class="penguin_sasquatch-st8" cx="230.8" cy="145.3" r="0.9"/>
		<path class="penguin_sasquatch-st6" d="M230.9,146c-0.5,0-0.9-0.4-0.9-0.9c0-0.2,0-0.3,0.1-0.4c-0.1,0.2-0.2,0.4-0.2,0.6c0,0.5,0.4,0.9,0.9,0.9
			c0.3,0,0.6-0.2,0.8-0.5C231.4,145.9,231.2,146,230.9,146z"/>
		<circle class="penguin_sasquatch-st8" cx="225.8" cy="142.6" r="0.4"/>
		<path class="penguin_sasquatch-st6" d="M225.8,143c-0.3,0-0.4-0.2-0.4-0.4c0-0.1,0-0.2,0.1-0.2c-0.1,0.1-0.1,0.2-0.1,0.3
			C225.3,142.9,225.5,143,225.8,143c0.1,0.1,0.3,0,0.3-0.2C226.1,142.9,226,143,225.8,143z"/>
		<circle class="penguin_sasquatch-st8" cx="235.1" cy="139" r="0.9"/>
		<path class="penguin_sasquatch-st6" d="M235.2,139.8c-0.5,0-0.9-0.4-0.9-0.9c0-0.2,0-0.3,0.1-0.4c-0.1,0.2-0.2,0.4-0.2,0.6c0,0.5,0.4,0.9,0.9,0.9
			c0.3,0,0.6-0.2,0.8-0.5C235.7,139.6,235.5,139.8,235.2,139.8z"/>
		<path class="penguin_sasquatch-st6" d="M282.9,141.7c-6.1,11.6-18.3,19.6-32.4,19.6c-8.9,0-17.1-3.2-23.4-8.5c0.5-0.3,1-0.6,1.5-0.8
			c6.2,5,14.1,7.9,22.7,7.9C264.8,159.8,276.6,152.5,282.9,141.7z"/>
		<g>
			<path class="penguin_sasquatch-st5" d="M228.5,141.1c-0.1,0-0.1,0-0.2-0.1c-0.1-0.1-0.1-0.2,0-0.3l9.9-7.9c0.1-0.1,0.2-0.1,0.3,0
				c0.1,0.1,0.1,0.2,0,0.3l-9.9,7.9C228.6,141.1,228.5,141.1,228.5,141.1z"/>
		</g>
		<g>
			<path class="penguin_sasquatch-st5" d="M226.2,136.5c-0.1,0-0.1,0-0.2-0.1c-0.1-0.1-0.1-0.2,0-0.3l9.9-7.9c0.1-0.1,0.2-0.1,0.3,0
				c0.1,0.1,0.1,0.2,0,0.3l-9.9,7.9C226.3,136.5,226.2,136.5,226.2,136.5z"/>
		</g>
		<g>
			<path class="penguin_sasquatch-st5" d="M233.4,134C233.3,134,233.3,134,233.4,134c-0.1-0.1-0.1-0.1-0.1-0.2l3.7-2.9c0.1,0,0.1,0,0.1,0s0,0.1,0,0.1
				L233.4,134C233.4,134,233.4,134,233.4,134z"/>
		</g>
		<g>
			<path class="penguin_sasquatch-st5" d="M232.5,144.2C232.4,144.2,232.4,144.2,232.5,144.2c-0.1-0.1-0.1-0.1-0.1-0.2l3.7-2.9c0.1,0,0.1,0,0.1,0
				c0,0.1,0,0.1,0,0.1L232.5,144.2C232.5,144.2,232.5,144.2,232.5,144.2z"/>
		</g>
		<g>
			<path class="penguin_sasquatch-st5" d="M232.1,128.6C232.1,128.6,232,128.6,232.1,128.6c-0.1-0.1-0.1-0.1-0.1-0.2l2.8-2.2c0.1,0,0.1,0,0.1,0
				c0,0.1,0,0.1,0,0.1L232.1,128.6C232.2,128.6,232.1,128.6,232.1,128.6z"/>
		</g>
		<path class="penguin_sasquatch-st6" d="M260,130.8c-2.5,2.2-5.8,3.6-9.4,3.6c-7.9,0-14.2-6.4-14.2-14.2c0-4.8,2.4-9,6-11.6
			c-2.9,2.6-4.8,6.4-4.8,10.6c0,7.9,6.4,14.2,14.2,14.2C254.8,133.5,257.6,132.5,260,130.8z"/>
		<g>
			<path class="penguin_sasquatch-st5" d="M250.6,91.4c8.9,0,17.3,3.5,23.6,9.7c6.3,6.3,9.7,14.7,9.7,23.6s-3.5,17.3-9.7,23.6
				c-6.3,6.3-14.7,9.7-23.6,9.7s-17.3-3.5-23.6-9.7c-6.3-6.3-9.7-14.7-9.7-23.6s3.5-17.3,9.7-23.6C233.3,94.9,241.7,91.4,250.6,91.4
				 M250.6,88.2c-20.2,0-36.6,16.4-36.6,36.6s16.4,36.6,36.6,36.6s36.6-16.4,36.6-36.6S270.7,88.2,250.6,88.2L250.6,88.2z"/>
		</g>
	</g>
	<path class="penguin_sasquatch-st9" d="M447.7,99.9c8.7,16.1,13.3,32.5,13.4,48.4c0.1,10.4-1.8,20.8-9.8,29.2s-22.9,14.4-40.7,13.7
		c-8.8-0.3-18-2.6-25.6-6.2c0,0.1,0,0.2-0.1,0.3l-2.4,18c26-2.2,81.7,11.6,107.2,15.8C498,164.1,479.8,126,447.7,99.9z"/>
	<g>
		<path d="M251,88.5c20.4,0,37,16.5,37,36.9s-16.6,36.9-37,36.9s-37-16.5-37-36.9C214.1,105,230.6,88.5,251,88.5 M251,84.5
			c-22.6,0-41,18.4-41,40.9s18.4,40.9,41,40.9s41-18.4,41-40.9S273.6,84.5,251,84.5L251,84.5z"/>
	</g>
	<g class="penguin_sasquatch-st10">
		<path class="penguin_sasquatch-st11" d="M307.8,53.7c-10.3,0.4-20.4,0.9-30.2,1.7c51.5,10.1,98.3,79,71.5,130.9l0,0c-11.5,22.2-31.7,32.7-53.8,31.9
			c-3.3-0.2-6.7-0.7-10-1.3v8.2c2.3,0.8,4.4,1.6,6.4,2.3c16.5-1.2,63,1,73-16.9c14.2-2.4,20.5-38.3,24.2-48.6
			C384.2,108.1,357.6,73.9,307.8,53.7z"/>
	</g>
	<g>
		<line class="penguin_sasquatch-st12" x1="273.5" y1="89.7" x2="270" y2="93.2"/>
	</g>
	<g>
		<line class="penguin_sasquatch-st13" x1="276.6" y1="92.2" x2="273.1" y2="95.7"/>
	</g>
	<g>
		<line class="penguin_sasquatch-st13" x1="222.8" y1="149.6" x2="219.2" y2="153.1"/>
	</g>
	<line class="penguin_sasquatch-st12" x1="278.5" y1="95.8" x2="275.8" y2="98.5"/>
	<line class="penguin_sasquatch-st12" x1="217.1" y1="151.4" x2="221.4" y2="147.1"/>
	<line class="penguin_sasquatch-st12" x1="225" y1="151.5" x2="222.2" y2="154.3"/>
	<line class="penguin_sasquatch-st12" x1="277" y1="151.3" x2="280.2" y2="154.5"/>
	<path class="penguin_sasquatch-st14" d="M180,170.5c12.9-67.4,30.2-99.5,109.3-109.8c9.5-1.2,19.1-2,28.9-2.3c-16-0.5-32,0.3-47.5,2.3
		c-79.2,10.4-96.4,42.4-109.3,109.8H180z"/>
	<path d="M469.9,109.1c-52.7-55.9-139.6-66-210.6-57.2c-61.7,5.6-93.9,49.5-104.1,114.2l-0.7,3.2c-22.6,6.1-39.8,21-49.4,43.6
		c-2.5,4.9-2.4,11.2,2.4,14.5c3.7,2.6,8.5,2.3,11.7-0.9c11.9-11.1,13.3-13,19-17.3c72.2-54.2,172.7,83.4,240,0.1
		c31.7-0.7,66.3,4.6,103,15.8V225l10.3,2.4C502,180.3,494.3,138.3,469.9,109.1z M321,224.5c-64.1-4.7-144.5-78.1-201.5-14.7
		c32-52,104.2-36.2,150.2-10c2.8,1.6,6.5,0.6,8.1-2.2l0,0c1.7-2.8,0.7-6.5-2.1-8.2c-32-18.8-73.7-27-108.6-22.6
		c12.6-82.7,56.1-105.4,129.6-106.2l0,0c54,5.1,106.1,77.8,78.1,131.9l0,0C363.2,214.8,343,225.4,321,224.5z M385.5,197.2
		c0.4-0.9,0.9-2.1,1.3-3l0,0c21.6-46.6-7.9-107.4-50.3-131.2c84.6,9.1,163.9,52.9,146,150C448.2,202.6,415.6,197.3,385.5,197.2z"/>
</g>
</svg>
