<?xml version="1.0" encoding="utf-8"?>
<!-- Generator: Adobe Illustrator 24.0.0, SVG Export Plug-In . SVG Version: 6.00 Build 0)  -->
<svg version="1.1" id="Punky" xmlns="http://www.w3.org/2000/svg" xmlns:xlink="http://www.w3.org/1999/xlink" x="0px" y="0px"
	 viewBox="0 0 680.6 803.9" style="enable-background:new 0 0 680.6 803.9;" xml:space="preserve">
<style type="text/css">
	.penguin_senpai_no_crown-st0{fill:#A51C1C;}
	.penguin_senpai_no_crown-st1{fill:#E5C333;}
	.penguin_senpai_no_crown-st2{fill:#FFFFFF;}
	.penguin_senpai_no_crown-st3{fill:#0586A6;stroke:#000000;stroke-miterlimit:10;}
	.penguin_senpai_no_crown-st4{fill:#3B43A8;}
	.penguin_senpai_no_crown-st5{fill:#6868EA;}
	.penguin_senpai_no_crown-st6{fill:#232323;}
</style>
<g id="Color">
	<path id="color" class="penguin_senpai_no_crown-st0" d="M495.7,401.3c-8.2,255.4-8.2,255.5-8.2,255.7c0,12.2-2.1,24.3-6.4,35.8
		c-13.5,34.5-47.7,54.6-81.5,65.6c6.2-10.2,30.1-51.8,15.3-67.8c-3.4-3.8-8.5-5.5-13.5-4.6c2.1-10.2-3-24.6-15.9-24.2
		c5.5-17.2,9.8-34.7,12.9-52.4c29.6-17.1,53.8-34.1,55.9-35.6c5.7-4.1-0.5-12.9-6.3-8.8c-12.2,8.7-33.6,22.7-56.7,35.9
		c-0.4,0.2-0.7,0.4-1.1,0.6c-33.7,19.2-71,36.3-89.8,32.3c-4-0.9-6.8-2.7-8.6-5.7c-14.4-24.7,10-52.1,40.8-86.8
		c33.3-37.5,70.8-79.9,73.1-134.3h0.2v-5.2c0.8-105.7-83.2-182.1-185-173.9C349.4,167.9,499.5,256.5,495.7,401.3z"/>
	<path id="color-2" class="penguin_senpai_no_crown-st0" d="M104.9,532.2v45.9c-3,2.6-6.2,5.2-9,8c-3.1,3.1-6.1,6.3-8.8,9.7C84.4,568.5,96,545.4,104.9,532.2
		z"/>
	<path id="color-3" class="penguin_senpai_no_crown-st0" d="M152.9,422.2l70.6-19.5c2.3,12.4,1.4,25.1-2.8,37L152.9,422.2z"/>
</g>
<g id="Shape">
	<g id="Layer_4">
		<polygon class="penguin_senpai_no_crown-st1" points="367.8,672.5 362.3,660.4 354.3,658.8 341.8,669.8 327.3,680 313.1,699 302,718.8 294.7,746.2 
			296.5,770.2 307.3,788.6 317.9,795.5 339.4,798.2 366.8,788.8 392.8,758.9 408.7,728.4 414.2,703.5 408.1,692.1 395.4,693.7 
			395.3,674.2 385.4,667.1 372.8,669.8 		"/>
		<polygon class="penguin_senpai_no_crown-st1" points="51.9,662.1 40.3,653.2 31.6,651.9 24.3,658.6 24.3,669.8 21.1,676.7 8.7,678.6 5.4,684.4 5.4,696.9 
			25.8,741.7 43.8,763.3 65.3,781.2 87,782.7 107,777.2 121.6,758.9 125.3,728.4 117.7,703.5 101.3,675.9 87.1,658.6 73.8,646.9 
			61,643.3 52.4,652.7 		"/>
		<path class="penguin_senpai_no_crown-st2" d="M292.7,775.5c-69.2,2.8-133.3-6.9-150.8-13.5c-4.8-1.6-9.4-3.6-13.8-6c11.2-38.2-17.3-88.4-52.1-114.1
			c9-38.2,41.6-68.9,80.3-75.6c2.9-0.5,4.9-3.3,4.4-6.3l0,0c-2.2-12.3-38.5,6.3-45,10.4v-138c16.9,15.4,45.6,19.3,66.2,8.4
			l45.2,11.7c9.4-19.8,10.9-42.5,4.1-63.3l-15.8,4.4c6.8-47.8-47-84.3-88.8-60.9c13.3-36.8,37.7-68.5,70-90.6
			c103.4-22.8,199.9,49.8,198.6,160.3c-0.2,52.5-37.6,94.6-70.6,131.7c-32.4,36.5-60.3,67.9-42,99.4c19.4,28.2,71.8-1.4,103.5-17.3
			c-3.3,17-7.8,33.7-13.5,50c-0.1,0.1-0.2,0.1-0.3,0.2c-15.4-38.5-56,15.9-67.1,34.8C289.2,726.6,285.2,755,292.7,775.5z"/>
		<circle cx="308.5" cy="380" r="58.6"/>
		<path d="M451.1,258.5c-65.8-69.9-181.9-79.6-260.3-25.5c-38.6,26.5-66.6,65.8-79,110.9c-19.7,18.7-23.1,54.2-6.9,76.5v94
			c-7.3,8.1-37.8,45.8-26.7,94.2c-5.5,9.2-9.6,19.1-12.3,29.5c-9-2-17.1,5.4-18.6,12.9c-16.8-12-32.5,0.6-29.1,19.5
			c-5-0.9-10.1,0.9-13.5,4.6c-15.9,17.2,13.1,64.3,16.5,69.7c24.6,39.5,77.2,63.4,102.9,21.6c4.6,2.4,9.3,4.4,14.2,6.1
			c14.7,7.5,107.8,18,159.9,13.9c23.5,32.9,69.5,13.9,90.9-13.3c56.2-14.4,110.4-52.1,109.2-115.7c0-1.5,8.2-255.5,8.2-255.5
			C508.5,348.6,488.5,296.7,451.1,258.5z M152.9,422.2l70.6-19.5c2.3,12.4,1.4,25.1-2.8,37L152.9,422.2z M104.9,532.2v45.9
			c-3,2.6-6.2,5.2-9,8c-3.1,3.1-6.1,6.3-8.8,9.7C84.4,568.5,96,545.4,104.9,532.2z M104.1,772.6c-20.7,13.1-53.8-2.1-73.8-33.8
			c-16.2-24.3-30.8-68.3-7.7-55.2c4.1,3.3,10.3-1.3,8.4-6.2c-6.8-20.4,2.2-27.6,16.8-11.8c3.3,4.1,10.4,0.8,9.4-4.3
			c-1.4-29.9,27.4-2.7,48,30.1C125.3,723.2,124.8,759.6,104.1,772.6L104.1,772.6z M292.7,775.5c-69.2,2.8-133.3-6.9-150.8-13.5
			c-4.8-1.6-9.4-3.6-13.8-6c11.2-38.2-17.3-88.4-52.1-114.1c9-38.2,41.6-68.9,80.3-75.6c2.9-0.5,4.9-3.3,4.4-6.3l0,0
			c-2.2-12.3-38.5,6.3-45,10.4v-138c16.9,15.4,45.6,19.3,66.2,8.4l45.2,11.7c9.4-19.8,10.9-42.5,4.1-63.3l-15.8,4.4
			c6.8-47.8-47-84.3-88.8-60.9c13.3-36.8,37.7-68.5,70-90.6c103.4-22.8,199.9,49.8,198.6,160.3c-0.2,52.5-37.6,94.6-70.6,131.7
			c-32.4,36.5-60.3,67.9-42,99.4c19.4,28.2,71.8-1.4,103.5-17.3c-3.3,17-7.8,33.7-13.5,50c-0.1,0.1-0.2,0.1-0.3,0.2
			c-15.4-38.5-56,15.9-67.1,34.8C289.2,726.6,285.2,755,292.7,775.5L292.7,775.5z M389.3,754.4c-45.5,70.8-122.5,36.1-74.9-47.4
			c19.2-30.8,49.3-60.8,48-30.1c-0.9,5.2,6.1,8.4,9.4,4.3c2.2-2.5,11.4-11.1,16.4-8c4.7,3,2.3,14.8,0.5,19.8c-2,4.9,4.3,9.5,8.4,6.2
			C419.9,685.8,405.6,730.1,389.3,754.4z M495.7,401.3c-8.2,255.4-8.2,255.5-8.2,255.7c0,12.2-2.1,24.3-6.4,35.8
			c-13.5,34.5-47.7,54.6-81.5,65.6c6.2-10.2,30.1-51.8,15.3-67.8c-3.4-3.8-8.5-5.5-13.5-4.6c2.1-10.2-3-24.6-15.9-24.2
			c5.5-17.2,9.8-34.7,12.9-52.4c29.6-17.1,53.8-34.1,55.9-35.6c5.7-4.1-0.5-12.9-6.3-8.8c-12.2,8.7-33.6,22.7-56.7,35.9
			c-0.4,0.2-0.7,0.4-1.1,0.6c-33.7,19.2-71,36.3-89.8,32.3c-4-0.9-6.8-2.7-8.6-5.7c-14.4-24.7,10-52.1,40.8-86.8
			c33.3-37.5,70.8-79.9,73.1-134.3h0.2v-5.2c0.8-105.7-83.2-182.1-185-173.9C349.4,167.9,499.5,256.5,495.7,401.3L495.7,401.3z"/>
		<circle class="penguin_senpai_no_crown-st2" cx="287.4" cy="362.3" r="19.1"/>
		<circle class="penguin_senpai_no_crown-st2" cx="133.3" cy="368" r="19.8"/>
		<path class="penguin_senpai_no_crown-st3" d="M222.4,346.9"/>
		<path class="penguin_senpai_no_crown-st4" d="M299.2,274.5c-119.2-9.9-148-56.7-148.3-57.2c-17-40.6-49.4-68.9-92.1-80.7c18.4-5.7,37.7-7.8,56.9-6.2
			c13.6,1.1,26.9,4.1,39.7,9l7.6,2.9l0.3-8.1c1.3-41,4.8-81.9,10.5-122.5c36.7,34.5,68.1,74.2,93.2,117.9l5.7,9.9l4.6-10.5
			c21.3-48.9,58.3-90.3,102.3-115.4c-6.3,38-9.7,76.5-10.4,115.1l-0.3,15.2l10.3-11.2c40.2-43.7,96.6-68.6,152.8-68
			c-27.3,29.7-47.8,67.6-58.1,107.8l-3,11.6l10.9-4.9c24.2-10.9,50.8-15.4,77.3-13.2c11,0.9,21.9,3,32.5,6.3
			c-6.9,3.1-13.9,6-20.7,8.9c-44.8,19.1-91.2,38.8-120.8,81.9C441.1,266.2,392.6,282.3,299.2,274.5z"/>
		<path d="M371.8,24.9c-5.1,34.3-8,68.9-8.6,103.6l-0.5,30.4l20.6-22.4c36.1-39.2,85.4-62.8,135.6-65.8
			c-24,29.3-41.3,63.6-50.7,100.3l-5.9,23.2l21.9-9.8c23.3-10.5,49-14.8,74.4-12.7c5,0.4,10,1.1,15,2c-1.7,0.7-3.3,1.4-5,2.1
			c-45.1,19.2-91.7,39-122.3,82.4c-11.5,4.1-58.3,18-146.6,10.6c-91.4-7.6-133.6-38.4-143.5-53.8c-15.4-36.1-42-62.7-76.9-77.3
			c11.8-2,23.8-2.5,35.8-1.5c13,1.1,25.9,4,38.1,8.6l15.1,5.8l0.5-16.2c1.2-36.8,4.2-74,8.9-110.6c32.8,32.3,61,68.9,84,108.7
			l11.4,19.8l9.1-20.9C301.5,87.4,333.4,49.7,371.8,24.9 M387.1,2.9c-50,24.9-91.7,69.6-115.3,123.7C244.5,79.3,209.9,36.6,169.4,0
			c-6.6,44.4-10.7,89.1-12.1,134c-13.2-5-27.1-8.2-41.2-9.3c-26.6-2.2-53.4,2.5-77.6,13.6c47.8,7.2,87.5,34.4,107.5,82
			c0,0,28.3,49.7,152.8,60.1c106.4,8.9,155-12.6,155-12.6c35.8-53.4,97.5-70.1,153.1-96.1c-15.1-6.2-31.1-10.1-47.4-11.4
			c-27.4-2.3-55,2.4-80.1,13.7c11.2-43.8,34.3-84.1,65.6-114.4c-62-4.9-125.9,21.1-170.2,69.3C375.5,86.5,379.6,44.4,387.1,2.9
			L387.1,2.9z"/>
		<path class="penguin_senpai_no_crown-st5" d="M310.7,268.3c-73.1-6.1-115.3-23.8-138.1-38c-6.9-27.7-20.5-53.3-39.5-74.5c20,9.7,37.7,25.6,52.7,39.1
			l19.1,17.2l-9.9-23.7c-10.1-24.2-16.6-49.7-19.5-75.7l65.5,102l-4.5-71.9c20.8,27.8,37.8,58.2,50.5,90.6l10.8,27.6l0.3-29.6
			c0.7-51.2,17.5-100.8,48-141.9c-6.1,34.8-7,70.2-2.6,105.3l1.2,9.7l7.9-5.7c17.6-12.8,36.7-23.5,56.9-31.8
			c-9,19.3-13.2,40.6-12.1,61.9l0.7,13.8l9.3-10.2c13.5-14.8,30.7-25.8,49.8-31.8c-6.4,8.5-12.2,17.5-17.4,26.9l-11.6,21l19.9-13.5
			c6.1-4.1,12.3-8.1,18.7-11.8c-6.9,12.6-11.8,26.3-14.4,40.5C424.7,269,378.5,274,310.7,268.3z"/>
		<path d="M336.9,113.5c-2.8,27.2-2.5,54.6,0.9,81.7l2.5,19.3l15.8-11.4c13.5-9.8,27.8-18.3,42.8-25.4c-5.6,16.4-8.1,33.8-7.2,51.2
			l1.5,27.6l18.6-20.5c8.5-9.4,18.6-17.1,29.8-23c-2.3,3.7-4.6,7.5-6.7,11.4l-21.3,38.6c-26.1,2.3-59.9,3-102.3-0.5
			c-2.6-0.2-5.1-0.4-7.6-0.7l0.3-30.7C304.5,189.8,315.9,149.2,336.9,113.5 M185.6,139l4.7,7.3l33.8,52.6l24,37.4l-2.8-44.4
			l-1.8-29.5c15.3,22.8,28,47.2,38.1,72.8l9.9,25.3c-58.1-7-93.4-21.6-113.9-34c-4.6-17.4-11.7-33.9-21.1-49.2
			c8.9,6.9,17.4,14.5,25.4,21.7l38.2,34.3l-19.8-47.4C194,170.9,189.1,155.1,185.6,139 M453.5,238.2c-2.5,6.6-4.5,13.4-6,20.3
			c-8.5,1.6-18.6,3.1-30.4,4.3l34.2-23.2C452.1,239.1,452.8,238.7,453.5,238.2 M356.6,67.5C316.4,111.4,293,171,292.3,231.1
			c-15.1-38.6-36.3-74.6-62.8-106.5c1.4,22.7,2.8,45.5,4.3,68.2c-21.9-34.1-43.7-68.1-65.6-102.2c0.9,34.4,8.2,68.3,21.4,100
			c-23.4-21-48.5-42.9-79.2-48.4c28.3,22.9,48.6,55.9,57.1,91.8c23.7,15.3,67.2,33.9,142.7,40.2c73.1,6.1,121.3-0.2,147.2-5.8
			c3.6-22.7,13.1-44,27.5-61.9c-13.8,7-27.2,14.9-40,23.6c7.7-14,16.9-27.1,27.4-39c-26.6,4.2-51,17.4-69.2,37.3
			c-1.3-25.6,5.3-50.9,18.9-72.6c-26,9.1-50.5,21.9-72.8,38C343.9,151.6,346.4,108.8,356.6,67.5L356.6,67.5z"/>
		<path class="penguin_senpai_no_crown-st6" d="M469.8,300.2c-114.2,21.3-215.8,12.8-326.5-20.7c-10.5-3.2-16.4-15-12.7-25.9c1.7-4.9,3.4-9.9,5-14.8
			c3.3-9.8,13.2-15.3,22.7-12.7c124,33.6,177.5,32.2,303.2,16.7c9.9-1.2,19,5.8,20.8,16.2c1,5.9,2.1,11.9,3.1,17.8
			C487.3,287.8,480.2,298.2,469.8,300.2z"/>
		<path d="M295.6,315.5c-49.8-4.1-100.3-14.3-154-30.5c-6.5-2-11.9-6.5-15-12.6c-3.3-6.4-3.8-13.9-1.5-20.7l5-14.8
			c4.2-12.6,17.3-19.8,29.7-16.4c124.8,33.8,178.7,31.6,300.9,16.6c12.9-1.6,24.9,7.6,27.2,20.9l3.1,17.8c2.4,14-6.7,27.5-20.2,30
			C410.9,317.1,353.8,320.4,295.6,315.5z M154.7,231.3c-6.1-0.4-11.7,3.5-13.5,9.3l-5,14.8c-1.3,3.8-1,8,0.8,11.7
			c1.6,3.3,4.6,5.8,8.1,6.9c114.6,34.6,214.4,41,323.7,20.5l0,0c7.4-1.4,12.3-8.9,11-16.7l-3.1-17.8c-1.3-7.2-7.6-12.3-14.4-11.4
			c-123.9,15.2-178.6,17.5-305.4-16.9C156.1,231.5,155.4,231.4,154.7,231.3z"/>
	</g>
	<g id="Bandana">
		<path class="penguin_senpai_no_crown-st6" d="M601.6,483.5c-34.2-73.6-115.7-61.9-179.8-141.8c17.4-12.3,34.1-25.6,51.4-38c59.7,69,172.5,85.9,191.5,140.7
			C641.9,458.4,622.1,465.7,601.6,483.5z"/>
		<path d="M599.7,492.6l-3.1-6.7c-17-36.5-46.3-51.1-80.1-67.9c-31.6-15.7-67.4-33.5-99-72.8l-3.7-4.6l4.9-3.4
			c9.1-6.4,18.2-13.3,26.9-19.9c8.1-6.1,16.2-12.2,24.4-18.1l4.1-2.9l3.3,3.8c27.9,32.3,68.7,53.3,104.6,71.9
			c41.5,21.4,77.3,40,88,70.6l1.5,4.3l-3.8,2.3c-7.8,4.8-15.2,8.8-22.4,12.6c-13.8,7.5-26.9,14.5-40,25.9L599.7,492.6z M429.9,342.8
			c29,34.1,60.7,49.9,91.4,65.2c32.4,16.1,63.1,31.3,82.1,66.8c12.1-9.6,24.1-16,36.6-22.7c5.8-3.1,11.7-6.3,17.8-9.9
			c-11.1-24.2-43.6-40.9-80.9-60.2c-35.4-18.3-75.5-39-104.5-70.7c-6.8,4.9-13.5,10-20.2,15C444.9,331.7,437.5,337.3,429.9,342.8
			L429.9,342.8z"/>
		<path class="penguin_senpai_no_crown-st6" d="M491.8,522.5c8.4-80.7-67.5-112.7-81.6-214.2c21.3-1.6,42.4-4.4,63.6-6.1c15.8,89.9,104,162.5,92.2,219.3
			C539.3,521.8,518.5,517.8,491.8,522.5z"/>
		<path d="M570.6,527.1l-4.5,0c-9.1,0.1-17.5-0.3-25.7-0.7c-15.7-0.7-30.5-1.4-47.6,1.6l-7.3,1.3l0.8-7.4
			c4.2-40.1-13.5-67.6-33.9-99.5c-19.1-29.7-40.7-63.5-47.6-113.4l-0.8-5.9l5.9-0.4c11.1-0.8,22.4-2,33.3-3.2
			c10.1-1.1,20.1-2.1,30.2-2.9l5.1-0.4l0.9,5c7.4,42,31.6,81.1,52.9,115.6c24.6,39.8,45.9,74.1,39.3,105.9L570.6,527.1z
			 M503.3,515.3c13.2-1.2,25.1-0.7,37.6-0.1c6.5,0.3,13.3,0.6,20.3,0.7c2.8-26.5-16.4-57.6-38.5-93.3c-21-34-44.7-72.3-53.4-114.5
			c-8.3,0.8-16.6,1.6-25,2.5c-9.1,1-18.4,1.9-27.7,2.7c7.3,44.2,26.5,74.1,45,103c19.5,30.5,38.1,59.4,36.2,99.6
			C499.7,515.7,501.5,515.5,503.3,515.3z"/>
	</g>
</g>
</svg>
