<?xml version="1.0" encoding="utf-8"?>
<!-- Generator: Adobe Illustrator 24.0.0, SVG Export Plug-In . SVG Version: 6.00 Build 0)  -->
<svg version="1.1" id="MexicanHat" xmlns="http://www.w3.org/2000/svg" xmlns:xlink="http://www.w3.org/1999/xlink" x="0px" y="0px"
	 viewBox="0 0 645.5 737.5" style="enable-background:new 0 0 645.5 737.5;" xml:space="preserve">
<style type="text/css">
	.penguin_sombrero_no_crown-st0{fill:#A51C1C;}
	.penguin_sombrero_no_crown-st1{fill:#E5C333;}
	.penguin_sombrero_no_crown-st2{fill:#FFFFFF;}
	.penguin_sombrero_no_crown-st3{fill:#0586A6;stroke:#000000;stroke-miterlimit:10;}
	.penguin_sombrero_no_crown-st4{fill:#FF9C00;}
	.penguin_sombrero_no_crown-st5{fill:#D67812;}
	.penguin_sombrero_no_crown-st6{fill:#1C8D1B;}
	.penguin_sombrero_no_crown-st7{fill:#E02222;}
	.penguin_sombrero_no_crown-st8{opacity:0.23;fill:#FFFFFF;enable-background:new    ;}
</style>
<g id="Color">
	<path id="color" class="penguin_sombrero_no_crown-st0" d="M495.7,335c-8.2,255.4-8.2,255.5-8.2,255.7c0,12.2-2.1,24.3-6.4,35.8
		c-13.5,34.5-47.7,54.6-81.5,65.6c6.2-10.2,30.1-51.8,15.3-67.8c-3.4-3.8-8.5-5.5-13.5-4.6c2.1-10.2-3-24.6-15.9-24.2
		c5.5-17.2,9.8-34.7,12.9-52.4c29.6-17.1,53.8-34.1,55.9-35.6c5.7-4.1-0.5-12.9-6.3-8.8c-12.2,8.7-33.6,22.7-56.7,35.9
		c-0.4,0.2-0.7,0.4-1.1,0.6c-33.7,19.2-71,36.3-89.8,32.3c-4-0.9-6.8-2.7-8.6-5.7c-14.4-24.7,10-52.1,40.8-86.8
		c33.3-37.5,70.8-79.9,73.1-134.3h0.2v-5.2c0.8-105.7-83.2-182.1-185-173.9C349.4,101.6,499.5,190.2,495.7,335z"/>
	<path id="color-2" class="penguin_sombrero_no_crown-st0" d="M104.9,465.9v45.9c-3,2.6-6.2,5.2-9,8c-3.1,3.1-6.1,6.3-8.8,9.7C84.4,502.2,96,479.1,104.9,465.9
		z"/>
	<path id="color-3" class="penguin_sombrero_no_crown-st0" d="M152.9,355.9l70.6-19.5c2.3,12.4,1.4,25.1-2.8,37L152.9,355.9z"/>
</g>
<g id="Shape">
	<polygon class="penguin_sombrero_no_crown-st1" points="367.8,606.2 362.3,594.1 354.3,592.5 341.8,603.5 327.3,613.7 313.1,632.7 302,652.5 294.7,679.9 
		296.5,703.9 307.3,722.3 317.9,729.2 339.4,731.9 366.8,722.5 392.8,692.6 408.7,662.1 414.2,637.2 408.1,625.8 395.4,627.4 
		395.3,607.9 385.4,600.8 372.8,603.5 	"/>
	<polygon class="penguin_sombrero_no_crown-st1" points="51.9,595.8 40.3,586.9 31.6,585.6 24.3,592.3 24.3,603.5 21.1,610.4 8.7,612.3 5.4,618.1 5.4,630.6 
		25.8,675.4 43.8,697 65.3,714.9 87,716.4 107,710.9 121.6,692.6 125.3,662.1 117.7,637.2 101.3,609.6 87.1,592.3 73.8,580.6 
		61,577 52.4,586.4 	"/>
	<path class="penguin_sombrero_no_crown-st2" d="M292.7,709.2c-69.2,2.8-133.3-6.9-150.8-13.5c-4.8-1.6-9.4-3.6-13.8-6c11.2-38.2-17.3-88.4-52.1-114.1
		c9-38.2,41.6-68.9,80.3-75.6c2.9-0.5,4.9-3.3,4.4-6.3l0,0c-2.2-12.3-38.5,6.3-45,10.4v-138c16.9,15.4,45.6,19.3,66.2,8.4l45.2,11.7
		c9.4-19.8,10.9-42.5,4.1-63.3l-15.8,4.4c6.8-47.8-47-84.3-88.8-60.9c13.3-36.8,37.7-68.5,70-90.6C300,153,396.5,225.6,395.2,336.1
		c-0.2,52.5-37.6,94.6-70.6,131.7c-32.4,36.5-60.3,67.9-42,99.4c19.4,28.2,71.8-1.4,103.5-17.3c-3.3,17-7.8,33.7-13.5,50
		c-0.1,0.1-0.2,0.1-0.3,0.2c-15.4-38.5-56,15.9-67.1,34.8C289.2,660.3,285.2,688.7,292.7,709.2z"/>
	<circle cx="308.5" cy="313.7" r="58.6"/>
	<path d="M451.1,192.2c-65.8-69.9-181.9-79.6-260.3-25.5c-38.6,26.5-66.6,65.8-79,110.9c-19.7,18.7-23.1,54.2-6.9,76.5v94
		c-7.3,8.1-37.8,45.8-26.7,94.2c-5.5,9.2-9.6,19.1-12.3,29.5c-9-2-17.1,5.4-18.6,12.9c-16.8-12-32.5,0.6-29.1,19.5
		c-5-0.9-10.1,0.9-13.5,4.6c-15.9,17.2,13.1,64.3,16.5,69.7c24.6,39.5,77.2,63.4,102.9,21.6c4.6,2.4,9.3,4.4,14.2,6.1
		c14.7,7.5,107.8,18,159.9,13.9c23.5,32.9,69.5,13.9,90.9-13.3c56.2-14.4,110.4-52.1,109.2-115.7c0-1.5,8.2-255.5,8.2-255.5
		C508.5,282.2,488.5,230.4,451.1,192.2z M152.9,355.9l70.6-19.5c2.3,12.4,1.4,25.1-2.8,37L152.9,355.9z M104.9,465.9v45.9
		c-3,2.6-6.2,5.2-9,8c-3.1,3.1-6.1,6.3-8.8,9.7C84.4,502.2,96,479.1,104.9,465.9z M104.1,706.3c-20.7,13.1-53.8-2.1-73.8-33.8
		c-16.2-24.3-30.8-68.3-7.7-55.2c4.1,3.3,10.3-1.3,8.4-6.2c-6.8-20.4,2.2-27.6,16.8-11.8c3.3,4.1,10.4,0.8,9.4-4.3
		c-1.4-29.9,27.4-2.7,48,30.1C125.3,656.9,124.8,693.3,104.1,706.3L104.1,706.3z M292.7,709.2c-69.2,2.8-133.3-6.9-150.8-13.5
		c-4.8-1.6-9.4-3.6-13.8-6c11.2-38.2-17.3-88.4-52.1-114.1c9-38.2,41.6-68.9,80.3-75.6c2.9-0.5,4.9-3.3,4.4-6.3l0,0
		c-2.2-12.3-38.5,6.3-45,10.4v-138c16.9,15.4,45.6,19.3,66.2,8.4l45.2,11.7c9.4-19.8,10.9-42.5,4.1-63.3l-15.8,4.4
		c6.8-47.8-47-84.3-88.8-60.9c13.3-36.8,37.7-68.5,70-90.6C300,153,396.5,225.6,395.2,336.1c-0.2,52.5-37.6,94.6-70.6,131.7
		c-32.4,36.5-60.3,67.9-42,99.4c19.4,28.2,71.8-1.4,103.5-17.3c-3.3,17-7.8,33.7-13.5,50c-0.1,0.1-0.2,0.1-0.3,0.2
		c-15.4-38.5-56,15.9-67.1,34.8C289.2,660.3,285.2,688.7,292.7,709.2L292.7,709.2z M389.3,688.1c-45.5,70.8-122.5,36.1-74.9-47.4
		c19.2-30.8,49.3-60.8,48-30.1c-0.9,5.2,6.1,8.4,9.4,4.3c2.2-2.5,11.4-11.1,16.4-8c4.7,3,2.3,14.8,0.5,19.8c-2,4.9,4.3,9.5,8.4,6.2
		C419.9,619.5,405.6,663.8,389.3,688.1z M495.7,335c-8.2,255.4-8.2,255.5-8.2,255.7c0,12.2-2.1,24.3-6.4,35.8
		c-13.5,34.5-47.7,54.6-81.5,65.6c6.2-10.2,30.1-51.8,15.3-67.8c-3.4-3.8-8.5-5.5-13.5-4.6c2.1-10.2-3-24.6-15.9-24.2
		c5.5-17.2,9.8-34.7,12.9-52.4c29.6-17.1,53.8-34.1,55.9-35.6c5.7-4.1-0.5-12.9-6.3-8.8c-12.2,8.7-33.6,22.7-56.7,35.9
		c-0.4,0.2-0.7,0.4-1.1,0.6c-33.7,19.2-71,36.3-89.8,32.3c-4-0.9-6.8-2.7-8.6-5.7c-14.4-24.7,10-52.1,40.8-86.8
		c33.3-37.5,70.8-79.9,73.1-134.3h0.2v-5.2c0.8-105.7-83.2-182.1-185-173.9C349.4,101.6,499.5,190.2,495.7,335L495.7,335z"/>
	<circle class="penguin_sombrero_no_crown-st2" cx="287.4" cy="296" r="19.1"/>
	<circle class="penguin_sombrero_no_crown-st2" cx="133.3" cy="301.7" r="19.8"/>
	<path class="penguin_sombrero_no_crown-st3" d="M310.1,115.7"/>
	<g id="hat">
		<path class="penguin_sombrero_no_crown-st4" d="M157.8,197.7c21.2-46.6,70.7-149.4,91.4-165.2c22.5-17.2,51.1-26.6,80.5-26.6c6.4,0,12.8,0.4,19.2,1.3
			c35.8,4.9,68.4,23.5,89.3,51.1C454,79,474.2,191.3,482.1,241.9L157.8,197.7z"/>
		<path class="penguin_sombrero_no_crown-st5" d="M391.4,40.9c20.1,26.5,43.8,178.3,46,192.8c0.8,2.7,1.4,5.4,1.6,8.2l50,6.8c0,0-25-166.2-46.2-194
			c-21.1-27.9-54.1-48-93.1-53.4c-2.7-0.4-5.4-0.5-8-0.7C361.3,10,378.3,23.7,391.4,40.9z"/>
		<path d="M329.8,11.7c6.1,0,12.3,0.4,18.4,1.3c34.3,4.7,65.4,22.5,85.4,48.9c13,17.1,31.3,109.6,41.5,173.3L320.8,214L166.4,193
			c26.9-58.7,69.3-142.8,86.4-155.9C274.3,20.7,301.7,11.7,329.8,11.7 M329.8,0c-31.6,0-61,10.3-84.1,27.8
			c-27.8,21.2-96.4,174.6-96.4,174.6l169.9,23.2l169.9,23.2c0,0-25-166.2-46.2-194c-21.1-27.9-54.1-48-93.1-53.4
			C343.2,0.5,336.5,0,329.8,0L329.8,0z"/>
		<path class="penguin_sombrero_no_crown-st6" d="M431.9,279.4c-164,0-368.3-45.4-410.9-113c-9.1-14.5-10-28.9-2.8-44l0.6-1.2V121c3.4-7.6,7.9-10.1,9.7-10.4
			c0.7,0,2,0.1,2.7,0.2c125.2,41,345.8,72,513.5,72c31,0,59.1-1.1,83.6-3.3c0.3,0.1,1.6,0.3,2.4,0.4c7.2,3.7,8.5,17.3,8.7,21.5
			c1.6,12.4-1.7,22.8-10,32.3C603.7,262.7,531.8,279.4,431.9,279.4L431.9,279.4z"/>
		<path class="penguin_sombrero_no_crown-st7" d="M11.3,142.9c11.9,18.7,32.5,45.3,65.4,66.7c24.6,16,48.8,22.5,96.3,35c46.7,12.2,94.2,20.9,142.2,26.3
			c49.4,5.6,86.3,6.4,97.4,6.6c29.7,0.5,62.4-2.6,128-8.8c29.1-2.7,51.4-5.3,72.2-21.9c10.2-8.3,18.6-18.6,24.7-30.2l-50.9-28.8
			l-43.8,52.5l-10.9,14.7l-74.9-55.7l-47.9,49.5l-20.5,13.3L324.3,195l-79.6,53.8l-57.3-79.3l-82.6,40.7L93.1,195l-35.7-66.3
			L11.3,142.9z"/>
		<path d="M639.2,212.4l-53.3-33.9l-59.3,69.1l-70.2-57.9L389.1,251l-62.5-66L248,237l-57.5-74.4l-84.5,41.1l-47.3-81.2l-47.5,15.9
			c0.4,4.2,0.2,8.3-0.5,12.5l42.7-14.3l48,82.4l85.7-41.7l58.3,75.5l79.5-52.5l63.6,67.2l68.3-62.2l71.3,58.7l60.1-70.1l47,29.9
			C636,219.8,637.3,216,639.2,212.4z"/>
		<path d="M29.4,116.5c0.2,0,0.4,0,0.7,0c125.8,41.1,346.7,72,514.6,72c30.8,0,58.8-1.1,83.2-3.2c0.2,0,0.5,0.1,0.7,0.1
			c2.2,1.8,4.5,7.6,4.9,16.2l0,0.4l0.1,0.4c1.3,10.2-1.5,19.1-8.7,27.2c-24.5,27.8-94.8,43.8-193,43.8c-159.1,0-365-45.3-406-110.3
			c-8-12.6-8.8-25.2-2.5-38.4l1.8-3.9C26.3,119.2,27.7,117.6,29.4,116.5 M28.3,104.7c-3.9,0.4-10.9,4.3-15.3,15.1l0,0
			c-46.4,97,217.8,165.4,419,165.4c121.9,0,220.7-25.1,213.2-84.1c-0.5-9.9-3.3-22.9-12.8-26.8c0,0-3.9-0.7-4.2-0.7c0,0,0,0,0,0
			c-25,2.2-53.1,3.3-83.5,3.3c-161.7,0-384.9-30-512.2-71.9C32.5,105,28.3,104.7,28.3,104.7L28.3,104.7z"/>
		<path class="penguin_sombrero_no_crown-st8" d="M273.9,31.2c-27.6,24.3-47.8,55.9-58.4,91.1"/>
	</g>
</g>
</svg>
