<?xml version="1.0" encoding="utf-8"?>
<!-- Generator: Adobe Illustrator 25.2.1, SVG Export Plug-In . SVG Version: 6.00 Build 0)  -->
<svg version="1.1" id="Layer_1" xmlns="http://www.w3.org/2000/svg" xmlns:xlink="http://www.w3.org/1999/xlink" x="0px" y="0px"
	 viewBox="0 0 555.9 732.3" style="enable-background:new 0 0 555.9 732.3;" xml:space="preserve">
<style type="text/css">
	.penguin_fedora-st0{fill:#A51C1C;}
	.penguin_fedora-st1{fill:#E5C230;}
	.penguin_fedora-st2{fill:#FFFFFF;}
	.penguin_fedora-st3{fill:#010101;}
	.penguin_fedora-st4{fill:#2B2C2B;}
	.penguin_fedora-st5{fill:#171717;}
	.penguin_fedora-st6{clip-path:url(#SVGID_6_);}
</style>
<g>
	<g id="Color_1_">
		<path class="penguin_fedora-st0" d="M497.3,329.2l-8,256c0,12.3-2.2,24.6-6.5,36.2c-13.7,34.7-47.7,55-81.7,65.8c6.5-10.1,30.4-52.1,15.2-68
			c-3.6-3.6-8.7-5.1-13.7-4.3c2.2-10.1-2.9-24.6-15.9-23.9c5.1-17.4,9.4-34.7,13-52.8c29.7-17.4,54.2-34,55.7-35.4
			c2.2-1.4,2.9-5.1,0.7-8c-1.4-2.2-5.1-2.9-7.2-0.7c-12.3,8.7-34,23.1-57.1,36.2c-0.7,0-0.7,0-1.4,0.7c-34,19.5-70.9,36.2-89.7,32.5
			c-3.6-0.7-6.5-2.9-8.7-5.8c-14.5-24.6,10.1-52.1,41.2-86.8c33.3-37.6,70.9-80.3,73.1-134.5l0,0v-5.1
			C406.9,225,323,149.1,221,157.1C350.5,95.6,500.9,184.5,497.3,329.2z"/>
		<path class="penguin_fedora-st0" d="M105.3,460.8v46.3c-2.9,2.2-5.8,5.1-8.7,8c-2.9,2.9-5.8,6.5-8.7,10.1C85.8,502.8,92.3,479.6,105.3,460.8z"/>
		<path class="penguin_fedora-st0" d="M153.7,350.2l70.9-19.5c0.7,4.3,1.4,9.4,1.4,13.7c0,8-1.4,15.9-4.3,23.9L153.7,350.2z"/>
	</g>
	<g id="Shape_1_">
		<polygon class="penguin_fedora-st1" points="369.3,601.2 363.5,589.6 355.5,587.4 343.2,599 328.8,609.1 314.3,627.9 303.5,648.2 295.5,675.7 
			297.7,699.5 308.5,717.6 319.4,724.8 340.3,727.7 367.8,718.3 393.9,688 409.8,657.6 415.6,632.3 409.8,620.7 396.8,622.9 
			396.8,603.3 386.6,596.1 374.3,599 		"/>
		<polygon class="penguin_fedora-st1" points="52.5,591 40.9,582.4 32.2,580.9 25,587.4 25,599 21.4,605.5 9.1,607.7 5.5,613.5 5.5,625.7 
			26.4,670.6 44.5,692.3 66.2,710.4 87.9,711.8 107.5,706 122.6,688 126.3,657.6 118.3,632.3 101.7,604.8 87.9,587.4 74.2,575.8 
			61.9,572.2 53.2,581.6 		"/>
		<path class="penguin_fedora-st2" d="M294.1,704.6c-69.4,2.9-133.8-7.2-151.2-13.7c-5.1-1.4-9.4-3.6-13.7-5.8c11.6-38.3-17.4-89-52.1-114.3
			c9.4-39.1,41.2-68.7,80.3-75.9c2.9-0.7,5.1-3.6,4.3-6.5c-2.2-12.3-38.3,6.5-44.8,10.1V361c18.8,15.9,44.8,18.8,66.5,8.7l45.6,11.6
			c9.4-20.3,10.8-42.7,4.3-63.6l-15.9,4.3c6.5-47.7-47-84.6-89-60.8c13.7-36.9,37.6-68.7,70.2-91.1C302,146.9,398.9,220,397.5,330.6
			c0,52.8-37.6,94.8-70.9,132.4c-32.5,36.9-60.8,68-42,99.8c19.5,28.2,72.3-1.4,103.4-17.4c-3.6,16.6-8,33.3-13.7,49.9l0,0
			c-15.2-38.3-56.4,15.9-67.3,34.7C290.4,655.4,286.1,684.3,294.1,704.6z"/>
		<circle class="penguin_fedora-st3" cx="310" cy="308.2" r="58.6"/>
		<path class="penguin_fedora-st3" d="M452.5,186c-65.8-70.2-182.3-79.6-261.1-25.3c-26,18.1-47.7,42-62.9,70.2c-6.5,13-12.3,26.8-15.9,40.5
			c-19.5,21-23.1,52.8-7.2,76.7v94c-7.2,8-37.6,45.6-26.8,94.8c-5.8,9.4-9.4,19.5-12.3,29.7c-8.7-1.4-17.4,4.3-18.8,13
			c-16.6-12.3-32.5,0.7-28.9,19.5c-5.1-0.7-10.1,0.7-13.7,4.3c-15.9,17.4,13,64.4,16.6,70.2c24.6,39.8,77.4,63.6,103.4,21.7
			c4.3,2.2,9.4,4.3,14.5,5.8c14.5,7.2,107.8,18.1,160.6,13.7c23.9,33.3,69.4,13.7,91.1-13c56.4-14.5,110.7-52.1,109.2-115.7
			c0-1.4,8-256,8-256C509.6,276.4,489.3,225,452.5,186z M153.7,350.2l70.9-19.5c2.2,12.3,1.4,25.3-2.9,36.9L153.7,350.2z
			 M105.3,460.8v46.3c-2.9,2.2-5.8,5.1-8.7,8c-2.9,2.9-5.8,6.5-8.7,10.1C85.8,502.8,92.3,479.6,105.3,460.8z M104.6,701.7
			c-21,13-54.2-2.2-73.8-34c-16.6-24.6-31.1-68.7-8-55.7c4.3,3.6,10.1-1.4,8.7-6.5c-6.5-20.3,2.2-27.5,16.6-11.6
			c2.2,2.2,5.1,2.2,8,0.7c0.7-1.4,1.4-2.9,1.4-5.1C56.1,559.9,85,586.7,106,620C126.3,652.5,125.5,688.7,104.6,701.7L104.6,701.7z
			 M294.1,704.6c-69.4,2.9-133.8-7.2-151.2-13.7c-5.1-1.4-9.4-3.6-13.7-5.8c11.6-38.3-17.4-89-52.1-114.3
			c9.4-39.1,41.2-68.7,80.3-75.9c2.9-0.7,5.1-3.6,4.3-6.5c-2.2-12.3-38.3,6.5-44.8,10.1V361c18.8,15.9,44.8,18.8,66.5,8.7l45.6,11.6
			c9.4-20.3,10.8-42.7,4.3-63.6l-15.9,4.3c6.5-47.7-47-84.6-89-60.8c13.7-36.9,37.6-68.7,70.2-91.1C302,146.9,398.9,220,397.5,330.6
			c0,52.8-37.6,94.8-70.9,132.4c-32.5,36.9-60.8,68-42,99.8c19.5,28.2,72.3-1.4,103.4-17.4c-3.6,16.6-8,33.3-13.7,49.9l0,0
			c-15.2-38.3-56.4,15.9-67.3,34.7C290.4,655.4,286.1,684.3,294.1,704.6z M391,683.6c-45.6,70.9-123,36.2-75.2-47.7
			c19.5-31.1,49.2-60.8,48.5-30.4c-0.7,2.9,1.4,5.8,4.3,5.8c2.2,0,3.6-0.7,5.1-1.4c2.2-2.2,11.6-10.8,16.6-8s2.2,15.2,0.7,19.5
			c-2.2,5.1,4.3,9.4,8.7,6.5C421.4,614.9,406.9,659,391,683.6z M497.3,329.2l-8,256c0,12.3-2.2,24.6-6.5,36.2
			c-13.7,34.7-47.7,55-81.7,65.8c6.5-10.1,30.4-52.1,15.2-68c-3.6-3.6-8.7-5.1-13.7-4.3c2.2-10.1-2.9-24.6-15.9-23.9
			c5.1-17.4,9.4-34.7,13-52.8c29.7-17.4,54.2-34,55.7-35.4c2.2-1.4,2.9-5.1,0.7-8c-1.4-2.2-5.1-2.9-7.2-0.7
			c-12.3,8.7-34,23.1-57.1,36.2c-0.7,0-0.7,0-1.4,0.7c-34,19.5-70.9,36.2-89.7,32.5c-3.6-0.7-6.5-2.9-8.7-5.8
			c-14.5-24.6,10.1-52.1,41.2-86.8c33.3-37.6,70.9-80.3,73.1-134.5l0,0v-5.1C406.9,225,323,149.1,221,157.1
			C350.5,95.6,500.9,184.5,497.3,329.2z"/>
		<circle class="penguin_fedora-st2" cx="288.3" cy="290.1" r="18.8"/>
		<circle class="penguin_fedora-st2" cx="134.2" cy="295.9" r="19.5"/>
		<g id="Fedora-2_1_">
			<path class="penguin_fedora-st4" d="M230.4,103.5c0,0-109.9-5.8-115,55.7c0,0,7.2,88.2,233.6,109.9c0,0,111.4,8,185.2-13c0,0,42.7-20.3-7.2-42
				L230.4,103.5z"/>
			<path class="penguin_fedora-st3" d="M399.7,275.7c-28.2,0-48.5-1.4-50.6-1.4c-227.8-21.7-238-110.7-238-114.3v-1.4c5.1-65.1,115-60,119.3-60h1.4
				l296.5,110.7c18.1,8,26.8,16.6,27.5,26c0,14.5-18.1,23.1-19.5,23.9h-0.7C493,272.8,438.7,275.7,399.7,275.7z M120.5,159.2
				c0.7,5.8,17.4,84.6,229.3,105.6c0.7,0,111.4,7.2,183-13c4.3-2.2,14.5-8.7,14.5-15.2c0-5.8-8-11.6-21-18.1L230.4,107.9
				C220.3,107.9,124.8,106.4,120.5,159.2L120.5,159.2z"/>
			<g>
				<g>
					<defs>
						<path id="SVGID_1_" d="M230.4,99.9c0,0-109.9-5.8-115,55.7c0,0,7.2,88.2,233.6,109.9c0,0,111.4,8,185.2-13
							c0,0,42.7-20.3-7.2-42L230.4,99.9z"/>
					</defs>
					<clipPath id="SVGID_2_">
						<use xlink:href="#SVGID_1_"  style="overflow:visible;"/>
					</clipPath>
				</g>
			</g>
			<path class="penguin_fedora-st3" d="M399.7,275.7c-28.2,0-48.5-1.4-50.6-1.4c-227.8-21.7-238-110.7-238-114.3v-1.4c5.1-65.1,115-60,119.3-60h1.4
				l296.5,110.7c18.1,8,26.8,16.6,27.5,26c0,14.5-18.1,23.1-19.5,23.9h-0.7C493,272.8,438.7,275.7,399.7,275.7z M120.5,159.2
				c0.7,5.8,17.4,84.6,229.3,105.6c0.7,0,111.4,7.2,183-13c4.3-2.2,14.5-8.7,14.5-15.2c0-5.8-8-11.6-21-18.1L230.4,107.9
				C220.3,107.9,124.8,106.4,120.5,159.2L120.5,159.2z"/>
			<path class="penguin_fedora-st5" d="M192.8,182.4l48.5-120.1c8-19.5,21.7-36.2,39.8-47.7c11.6-7.2,24.6-10.8,38.3-9.4
				c31.8,1.4,62.2,10.8,89,27.5c16.6,10.1,35.4,16.6,54.2,20.3s38.3,15.2,31.8,53.5L469.1,233C469.1,233,205.8,260.5,192.8,182.4z"
				/>
			<path class="penguin_fedora-st4" d="M218.6,207.9c0,0,127.4,21.3,200.6,3.4l24.6-120.1c0,0,7.8-26.7,0-38.1l-15.5-5.8l-6.7-2.9l-3.6-1.7l-3-1.5
				l-3.4-1.8l-5.4-3l-4.2-2.5l-8.6-4.6l-5.1-2.5l-7.7-3.4l-6.4-2.5l-7.9-2.7l-5.8-1.7l-7.4-2l-4.8-1.1l-8-1.5l-4.9-0.8l-5.8-0.7
				l-5.8-0.5l-7.3-0.4l-6.2,0.2l-6,0.8l-8,2.1l-6.7,2.7l-5.6,3l-5.1,3.3l-3.5,2.5l-3.4,2.7l-2.5,2.2l-2.8,2.7l-3.3,3.4l-5.3,6.3
				l-3.6,5.1l-3.7,6.1l-1.9,3.7l-43.7,107.5l-7.4,18.7C197.9,182.4,199.1,196.9,218.6,207.9z"/>
			<path class="penguin_fedora-st3" d="M371.5,242.4c-78.1,0-175-10.1-183-60v-1.4l49.2-120.8c8-20.3,22.4-38.3,42-49.9c12.3-8,26-10.8,40.5-10.1
				c32.5,1.4,63.6,11.6,91.1,28.2c15.9,10.1,34,16.6,52.8,19.5c16.6,2.9,43.4,14.5,36.2,59.3l-26.8,129.5h-3.6
				C436.5,241,404,243.1,371.5,242.4z M197.9,182.4c11.6,58.6,193.1,53.5,266.9,46.3l25.3-123c5.1-27.5-5.1-44.1-28.2-48.5
				c-19.5-3.6-38.3-10.8-55.7-21c-26-15.9-56.4-25.3-86.8-26.8c-12.3-0.7-24.6,2.2-35.4,8.7c-18.1,10.8-31.1,26.8-38.3,45.6
				L197.9,182.4z"/>
			<g>
				<g>
					<defs>
						<path id="SVGID_3_" d="M192.8,182.4l48.5-120.1c8-19.5,21.7-36.2,39.8-47.7c11.6-7.2,24.6-10.8,38.3-9.4
							c31.8,1.4,62.2,10.8,89,27.5c16.6,10.1,35.4,16.6,54.2,20.3s38.3,15.2,31.8,53.5L469.1,233C469.1,233,205.8,260.5,192.8,182.4
							z"/>
					</defs>
					<clipPath id="SVGID_4_">
						<use xlink:href="#SVGID_3_"  style="overflow:visible;"/>
					</clipPath>
				</g>
			</g>
			<path class="penguin_fedora-st3" d="M371.5,242.4c-78.1,0-175-10.1-183-60v-1.4l49.2-120.8c8-20.3,22.4-38.3,42-49.9c12.3-8,26-10.8,40.5-10.1
				c32.5,1.4,63.6,11.6,91.1,28.2c15.9,10.1,34,16.6,52.8,19.5c16.6,2.9,43.4,14.5,36.2,59.3l-26.8,129.5h-3.6
				C436.5,241,404,243.1,371.5,242.4z M197.9,182.4c11.6,58.6,193.1,53.5,266.9,46.3l25.3-123c5.1-27.5-5.1-44.1-28.2-48.5
				c-19.5-3.6-38.3-10.8-55.7-21c-26-15.9-56.4-25.3-86.8-26.8c-12.3-0.7-24.6,2.2-35.4,8.7c-18.1,10.8-31.1,26.8-38.3,45.6
				L197.9,182.4z"/>
			<g>
				<g>
					<defs>
						<path id="SVGID_5_" d="M205.8,151.3c0,0,68.7,73.1,269.8,50.6l-6.5,31.1c0,0-263.3,27.5-275.6-51.4L205.8,151.3z"/>
					</defs>
					<clipPath id="SVGID_6_">
						<use xlink:href="#SVGID_5_"  style="overflow:visible;"/>
					</clipPath>
					<g class="penguin_fedora-st6">
					</g>
				</g>
			</g>
			<path class="penguin_fedora-st3" d="M371.5,242.4c-78.1,0-175-10.1-183-60v-1.4l15.9-39.1l5.1,5.1c0.7,0.7,70.2,70.9,266.2,49.2l6.5-0.7
				l-8.7,40.5h-3.6C465.5,238.1,422.8,242.4,371.5,242.4z M197.9,182.4c11.6,58.6,193.1,53.5,266.9,46.3l4.3-21.7
				c-168.5,16.6-243-31.8-261.8-48.5L197.9,182.4z"/>
		</g>
	</g>
</g>
</svg>
