<?xml version="1.0" encoding="utf-8"?>
<!-- Generator: Adobe Illustrator 25.2.3, SVG Export Plug-In . SVG Version: 6.00 Build 0)  -->
<svg version="1.1" id="PefiLeon" xmlns="http://www.w3.org/2000/svg" xmlns:xlink="http://www.w3.org/1999/xlink" x="0px" y="0px"
	 viewBox="0 0 630.7 674.3" style="enable-background:new 0 0 630.7 674.3;" xml:space="preserve">
<style type="text/css">
	.penguin_lydian_no_crown-st0{fill:#A51C1C;}
	.penguin_lydian_no_crown-st1{fill:#F2AA3D;stroke:#000000;stroke-width:11;stroke-miterlimit:10;}
	.penguin_lydian_no_crown-st2{fill:#B26F1F;}
	.penguin_lydian_no_crown-st3{fill:#F2AA3D;stroke:#F2AA3D;stroke-miterlimit:10;}
	.penguin_lydian_no_crown-st4{fill:#C68836;}
	.penguin_lydian_no_crown-st5{fill:#F2AA3D;}
	.penguin_lydian_no_crown-st6{fill:#FFD2A1;}
	.penguin_lydian_no_crown-st7{fill:#FFD2A1;stroke:#000000;stroke-width:9;stroke-miterlimit:10;}
	.penguin_lydian_no_crown-st8{fill:#966229;}
	.penguin_lydian_no_crown-st9{fill:#925825;}
	.penguin_lydian_no_crown-st10{fill:#FFFFFF;}
	.penguin_lydian_no_crown-st11{fill:none;stroke:#000000;stroke-width:11;stroke-miterlimit:10;}
</style>
<g id="Color">
	<g id="color">
		<g>
			<path class="penguin_lydian_no_crown-st0" d="M408,314.6c-12.9,37-40.5,68.1-65.6,96.5c-30.7,34.6-55,62-40.7,86.6c1.7,2.9,4.5,4.8,8.5,5.7
				c18.7,4,55.9-13.1,89.6-32.2c0.3-0.3,0.7-0.5,1.1-0.6c23.1-13.2,44.4-27.2,56.6-35.9c5.8-4.1,12,4.7,6.3,8.8
				C461.7,445,437.6,462,408,479c-3.1,17.7-7.4,35.2-12.9,52.3c12.8-0.4,17.9,13.9,15.8,24.1c5-0.9,10.1,0.8,13.4,4.6
				c14.7,15.9-9.1,57.5-15.3,67.7c33.7-11,67.9-31.1,81.4-65.5c4.3-11.4,6.5-23.5,6.4-35.7c0-0.1,0-0.2,6.8-211.9L408,314.6
				L408,314.6z"/>
		</g>
		<path id="color-4" class="penguin_lydian_no_crown-st0" d="M162.8,292.3l70.5-19.5c2.3,12.3,1.4,25.1-2.7,37L162.8,292.3z"/>
	</g>
</g>
<g id="Shape">
	<g id="Layer_8">
		<path class="penguin_lydian_no_crown-st1" d="M559,473.1c-2.3,9.8-9.1,33.3-30.2,54.1c-19.6,19.3-41.1,26.2-50.9,28.7l-20.5-20.5
			c9.8-2.5,31.3-9.4,50.9-28.7c21.1-20.8,27.9-44.3,30.2-54.1L559,473.1z"/>
		<g>
			<path class="penguin_lydian_no_crown-st2" d="M551.2,477.2c-0.9,0-1.8-0.2-2.7-0.5c-6.8-2.6-11.9-6.4-15.2-11.4c-8.7-13.1-5.1-34.2,8.2-52.8
				c0.3,0.6,0.6,1.2,0.8,1.8l4.1,9l5-7.8c7-11,18.9-18.6,31.8-20.4c1.9-0.3,3.9-0.4,5.8-0.4c7.5,0,14.9,1.9,21.4,5.3
				c-7.9,1.9-16.1,4.8-22.3,11.4l-5.7,6l7.9,2.3c0.7,0.2,6.8,1.9,13.1,3.6c-2.3,1.2-4.6,2.5-6.6,3.7c-15.1,8.7-15.8,10.2-16.4,11.4
				L576,448l10.4-2.6c3.3-0.9,7-1.9,11.2-3.1c-3.7,8.3-10.5,19.1-22.7,26.7c-6.8,4.2-14.4,7-22.5,8.1
				C552,477.1,551.6,477.2,551.2,477.2z"/>
			<path d="M589.2,399.9c2,0,4,0.2,6,0.5c-3.8,1.9-7.4,4.4-10.6,7.8l-11.4,11.9l15.9,4.6c0,0,0.6,0.2,1.5,0.4
				c-12.7,7.5-13.4,9.1-14.5,11.4l-8.7,19.2l20-5.3c-3.6,5.1-8.5,10.3-15.1,14.4c-6.2,3.9-13.1,6.4-20.6,7.4c-0.2,0-0.3,0-0.5,0
				c-0.3,0-0.6,0-1-0.2c-5.8-2.2-10.1-5.4-12.7-9.4c-3.9-5.8-4.9-14.2-2.9-23.5c1.2-5.3,3.3-10.7,6.2-16l4.9,10.8l9.9-15.6
				c6.2-9.8,16.8-16.6,28.3-18.1C585.7,400,587.4,399.9,589.2,399.9L589.2,399.9 M589.2,389.9c-2.2,0-4.4,0.1-6.5,0.4
				c-14.3,2-27.6,10.5-35.4,22.7c-2.1-4.6-4.2-9-2.7-11.9c-21,22.8-26.4,50.5-15.3,67.1c2.3,3.4,7.2,9.3,17.6,13.3l0,0
				c1.4,0.5,2.9,0.8,4.4,0.8c0.6,0,1.2,0,1.9-0.1c6.4-0.9,15.3-3.1,24.5-8.8c20.3-12.6,26.5-33,28-38.5l0,0
				c-9.1,2.7-15.7,4.6-20.4,5.8c0.6-1.3,26.4-16.9,33.5-18.3c-1.2-0.2-23.9-6.4-26.8-7.2c8.1-8.5,20.6-10,31-12.4
				C613.7,394.4,601.4,389.9,589.2,389.9L589.2,389.9z M618.7,422.2C618.6,422.2,618.6,422.2,618.7,422.2
				C618.6,422.2,618.7,422.2,618.7,422.2L618.7,422.2L618.7,422.2z"/>
		</g>
	</g>
	<g id="Layer_6">
		<path class="penguin_lydian_no_crown-st3" d="M419.3,311.3l-0.9-1.5l-5.1,1.5h-4.2c-0.2,0.5-0.3,0.9-0.5,1.4l-10.2,3.1l-24.8,25.5l-12.9,10.4
			c-13.3,7.5-32.2,18.2-33.4,19.1l-0.1,0.1c-65.5,39.1-143.5,20.3-206.8-44.3l5.1,113.9c6.5-4,42.7-22.6,44.9-10.4l0,0
			c0.5,2.9-1.4,5.7-4.4,6.3c-38.6,6.6-71.2,37.3-80.1,75.4c34.7,25.7,63.1,75.7,52,113.9c4.4,2.3,9,4.3,13.8,5.9
			c17.5,6.6,81.5,16.2,150.6,13.4c-0.6-1.8-1.2-3.6-1.7-5.5c1.9,0.2,3.8,0.4,5.8,0.6c1.8,0.3,3.6,0.6,5.4,0.8
			c11.1,29.1,52.5,30.4,82.7-11c5.2-0.4,10.3-1.5,15.2-3.5c-0.3,0.5-0.6,1-0.9,1.4c33.7-11,67.9-31.1,81.4-65.5
			c4.3-11.4,6.5-23.5,6.4-35.7c0-0.1,0-0.2,6.9-215.5h-84.2V311.3z M399.8,471.4c0.3-0.3,0.7-0.5,1.1-0.6
			c23.1-13.2,44.4-27.2,56.6-35.9c5.8-4.1,12,4.7,6.3,8.8c-2.1,1.5-26.2,18.5-55.8,35.5l-12.3,6.9c-31.6,15.9-83.9,45.4-103.3,17.2
			c-13.7-23.5-1.5-47,19-72.5l2.5,1.9l9.6,0.3c-3.2,3.8-6.2,7.6-9,11.3c9.7,2.9,18.5,8.3,25.6,15.6c8.7,9.1,14.3,20.7,16.1,33.2"/>
		<g>
			<path class="penguin_lydian_no_crown-st4" d="M457.4,429.2c-12.2,8.7-33.5,22.7-56.6,35.9c-0.4,0.2-0.8,0.4-1.1,0.6c-13.3,7.5-27.1,14.7-40.1,20.5V498
				c12.9-5.6,25.5-12.3,35.9-17.5l12.3-6.9c29.6-17,53.7-34,55.8-35.5C469.4,433.9,463.2,425.1,457.4,429.2z"/>
			<path class="penguin_lydian_no_crown-st5" d="M93.3,506.7c-3.1,6.4-5.5,13.1-7.2,20c25.8,19,48.1,51.6,53.3,82.7C146,574.8,123,532.2,93.3,506.7z"/>
			<path class="penguin_lydian_no_crown-st4" d="M496,523.2c-1,7.8-2.9,15.5-5.6,22.9c-13.5,34.4-47.7,54.5-81.4,65.5c0.3-0.4,0.5-0.9,0.9-1.4
				c-4.9,1.9-10,3.1-15.2,3.5c-30.3,41.4-71.6,40.1-82.7,11c-1.8-0.2-3.6-0.5-5.4-0.8c-1.9-0.2-3.8-0.4-5.8-0.6
				c0.5,1.8,1,3.7,1.7,5.5c-69.1,2.8-133.1-6.9-150.6-13.4c-4-1.4-7.8-3-11.6-4.9c0.8,8.5-3.8,17.3-6.1,25.1
				c4.4,2.3,13,3.9,17.7,5.5c17.5,6.6,81.5,16.2,150.6,13.4c-0.6-1.8-1.2-3.6-1.7-5.5c1.9,0.2,3.8,0.4,5.8,0.6
				c1.8,0.3,3.6,0.6,5.4,0.8c11.1,29.1,52.5,30.4,82.7-11c5.2-0.4,10.3-1.5,15.2-3.5c-0.3,0.5-0.6,1-0.9,1.4
				c33.7-11,67.9-31.1,81.4-65.5c4.3-11.4,6.5-23.5,6.4-35.7c0,0,0-0.1,0.4-13H496V523.2z"/>
			<path class="penguin_lydian_no_crown-st5" d="M170.6,419.2L170.6,419.2c-2.2-12.3-38.5,6.3-44.9,10.4l-0.1-2c-0.1,0.1-0.1,0.1-0.2,0.2
				c-0.3,0.3-0.6,0.5-0.9,0.7l0.7,14.5c12.1-8.8,26.2-15,41.1-17.6C169.2,425,171.1,422.2,170.6,419.2z"/>
		</g>
	</g>
	<path d="M354.5,497.9c-1.2-13.7-7-26.5-16.5-36.5c-7.9-8.1-17.9-13.8-28.9-16.5l2.6-10.7c13,3.2,24.9,9.9,34.2,19.5
		c11.2,11.7,18.1,26.9,19.5,43.1L354.5,497.9z"/>
	<path class="penguin_lydian_no_crown-st6" d="M377.4,542.1c-5.7-19.1-14.8-14.5-26-2.7c-9.7,4.5-23.1,20.2-28.7,29.2c-24.1,32.8-29.9,101.3,26.3,99
		c22.5-3.1,40.6-22.2,53.3-39.2c8.3-15,40.5-72.6,2.6-65.1C407.8,541.8,398.6,530.3,377.4,542.1z"/>
	<path class="penguin_lydian_no_crown-st6" d="M62.1,531.8c-7.7-7.1-20.1-15.7-27.5-3.5c0.5,4.9-0.1,14-3.2,18.1c-36.9-1.6,0.8,50.6,4.7,64.9
		c8.2,11.6,27.9,31.2,39.5,39.4c72.3,12.7,69.4-63.2,35.9-105.1C101,529.6,64.4,491.6,62.1,531.8z"/>
	<g>
		<path class="penguin_lydian_no_crown-st5" d="M89.6,184.3c4-9.9,11.2-24.2,23.9-38.5c11.6-13.1,23.6-21.6,32.3-26.8c0.3-0.4,2-2.4,1.8-5.4
			c-0.1-1.9-1-3.7-2.6-5.1l-8.4-7.2c-21.2-18.2-53.1-15.8-71.3,5.3l0,0c-18.2,21.2-15.8,53.1,5.3,71.3l8.4,7.2
			C82.2,187.7,86.9,187.4,89.6,184.3z"/>
		<path class="penguin_lydian_no_crown-st4" d="M83.3,162.7c-0.3-0.2-0.5-0.4-0.8-0.6l-8.4-7.2c-10.5-9-16.3-21.4-17.4-34.1c-7.8,19.5-2.8,42.6,14,57
			l4.2,3.6C77,174.9,79.9,168.7,83.3,162.7z"/>
		<path d="M83.9,192.4c-3.1,0-6.1-1.1-8.4-3.1l-8.4-7.2c-11.4-9.8-18.2-23.4-19.3-38.3s3.6-29.4,13.4-40.8
			c20.2-23.4,55.6-26.1,79.1-5.9l8.4,7.2c2.6,2.3,4.2,5.4,4.5,8.9c0.4,4.8-2,8.2-3.1,9.4l-0.6,0.7l-0.8,0.5
			c-11.6,6.9-22.1,15.6-31,25.7c-9.7,11-17.4,23.4-23,37l-0.3,0.8l-0.6,0.7c-2.3,2.6-5.4,4.2-8.8,4.5
			C84.6,192.3,84.3,192.4,83.9,192.4z M103.8,94.5c-12.7,0-25.3,5.3-34.2,15.6c-7.9,9.1-11.7,20.8-10.8,32.8
			c0.9,12,6.4,22.9,15.5,30.8l8.4,7.2c0.5,0.5,1.1,0.5,1.4,0.5c0.2,0,0.5-0.1,0.9-0.3c6-14.3,14.2-27.4,24.4-39
			c9.4-10.7,20.4-19.9,32.6-27.3c0.1-0.2,0.2-0.6,0.2-0.9c0-0.3-0.1-0.9-0.7-1.3l-8.4-7.2C124.6,98.1,114.2,94.5,103.8,94.5z"/>
	</g>
	<path class="penguin_lydian_no_crown-st7" d="M98.2,165.5c2.1-5.2,5.9-12.7,12.5-20.2c6.1-6.9,12.4-11.3,16.9-14.1c0.2-0.2,1.1-1.3,0.9-2.8
		c-0.1-1-0.5-2-1.3-2.7l-4.4-3.8c-11.1-9.5-27.8-8.3-37.4,2.8l0,0c-9.5,11.1-8.3,27.8,2.8,37.4l4.4,3.8
		C94.3,167.3,96.7,167.1,98.2,165.5z"/>
	<path class="penguin_lydian_no_crown-st2" d="M554.8,242.1c-2.6-41.3-28.6-141-121.6-167.7l-9.4,2.6l-3.6-15.1c-2.4-10.2-28.7-39-85.5-48.1
		c-36.3-5.8-64.4-2.3-91,3.4c-24.8,5.3-125.2,43.4-125.2,43.5c5.5,1.8,39.7,7.9,45.1,9.8c-43.9,32.6-77,74.8-95.6,126.2
		c-15.3,42.5-19.7,96.6-20.8,133.4c10.5-14.4,21-28.9,31.5-43.3c-6.6,33.3-6.3,77.2,10.1,106.9c1.9-13.4,6.3-26.4,12.9-38.2
		c4.3,28.2,27.5,45.7,50.3,62.9c22.7,17.2,51.4,28,71.1,48.7l2.1-1.2c35.7-29.4,86.8-24.6,128-42.7c20.8-9.1,39.8-25.4,45.8-47.3
		c5.5,11.8,5.8,25.9,0.6,37.8c35-10.6,64.5-39.9,65.3-76.5c20.4,31.6,24,56,22,71.5c12.7-15.8,31.9-43.8,43.2-83.5
		c12.6-44.3,6.1-87.2,2.8-107.8L554.8,242.1z M232,310.6l-70.9-18.3l73.8-20.4C237.4,284.8,236.4,298.2,232,310.6z"/>
	<g>
		<path class="penguin_lydian_no_crown-st8" d="M75.2,339.8c0.3-25.2,8.7-53.4,13.1-75.6c-9.2,12.6-33.7,34-39.7,39.1c-0.7,9.6-1.1,18.6-1.3,26.7
			c10.5-14.4,21-28.9,31.5-43.3C75.7,302.9,74.1,321.5,75.2,339.8z"/>
		<path class="penguin_lydian_no_crown-st9" d="M501.8,388.2c-0.8,1.2-1.7,2.3-2.5,3.3C500,390.8,501,389.7,501.8,388.2c8.6-15.1-7.7-43.2-27-58.6
			c-5.4-4.3-10.5-7.2-14.3-9c1,6.4,1.2,27.2-9.7,50.8c-6.7,14.7-17.8,26.1-35.3,31.4c10.4-22.9-18.1-42-18.1-42
			c-5.9,21.9-23.4,27.7-44.1,36.8c-41.3,18.1-92.4,13.3-128,42.7l-2.1,1.2c-19.6-20.7-48.3-31.5-71.1-48.7
			c-22.7-17.2-43.1-25.4-47.4-53.7c0,0-20.7,14.9-22.3,34.9c-1.5-2.7-2.7-5.6-3.7-8.5c2.3,10.2,5.6,19.7,10.2,28.2
			c1.9-13.4,6.3-26.4,12.9-38.2c4.3,28.2,27.5,45.7,50.3,62.9c22.7,17.2,51.4,28,71.1,48.7l2.1-1.2c35.7-29.4,86.8-24.6,128-42.7
			c20.8-9.1,39.8-25.4,45.8-47.3c5.5,11.8,5.8,25.9,0.6,37.8c35-10.6,64.5-39.9,65.3-76.5c20.4,31.6,24,56,22,71.5
			C491.4,403.4,496.5,396.5,501.8,388.2z"/>
	</g>
	<path class="penguin_lydian_no_crown-st10" d="M191.8,310.9c-5.6,2.1-18.8,6.2-35.4,3.2c-17.2-3.1-28.4-12.2-32.8-16.2c-1.1,6.6-2,17.4,2.1,29.1
		c6.4,18.3,21,27.8,35.3,36.4c13.5,8,37.4,19.7,71.8,23.9c9.8-0.1,19.6-0.1,29.4-0.2c7.9-0.5,20-1.8,34.2-5.7c0.5-0.1,2-0.6,4.1-1.2
		c7.8-2.4,30.7-9.4,50.6-20.7c13.7-7.8,29.4-16.6,41.3-33.9c13.6-19.7,15.1-40.1,16-53.7c3.9-62.6-34.7-110-36.4-112.1
		c-57.6-68.8-153.8-54.5-158.8-53.7c-12.8,7-34,20.7-52.5,45C145.4,171.3,137.8,191,134,204c3.7-1.2,32.5-9.8,60,8.2
		c27.3,17.8,31.1,47.4,31.5,51.3l15.7-4.4c6.8,20.8,5.3,43.4-4.1,63.1L191.8,310.9z"/>
	<g id="Layer_2_1_">
		<path d="M415.5,271.9C416.7,167,332,89.8,230.9,98.3c-54.8,3.9-95.7,65.2-109,115.7c-19.7,18.7-23.1,54.1-6.9,76.4l0.4,12.9
			c0.4,13.9,5.3,27.4,14,38.3c68.9,85.6,228.5,55.6,279.6-28.9l2.9-9.8l-0.2-0.1c2.1-8.3,3.4-16.9,3.8-25.8h0.2
			C415.5,276.7,415.6,272.1,415.5,271.9z M401.2,299.9l-2.5,8.5c-11.7,20-33.4,38.5-61.1,52.2c-66.8,34.3-162.5,30.8-205.4-33.3
			c-4.1-5.7-6.2-12.6-6.4-19.6l-0.1-5.1c16.9,15.3,45.5,19.2,66.1,8.4l45.1,11.6c9.4-19.7,10.9-42.3,4.1-63.1l-15.7,4.4
			c6.8-47.7-46.9-84.2-88.6-60.8c8.4-23.2,21.2-44.3,37.7-62.4l0,0c13-13.9,27.8-28.6,47.7-30.8C330.5,94.9,423.9,188.2,401.2,299.9
			L401.2,299.9z M162.8,292.3l70.5-19.5c2.3,12.3,1.4,25.1-2.7,37L162.8,292.3z"/>
	</g>
	<circle cx="318.2" cy="250.1" r="58.5"/>
	<path d="M512.5,374.1c-1.9,2.7-4.1,5.3-6.3,7.7c-1,1.1-2.2,1.6-3.3,1.6c-0.5,0.5-1,0.8-1.6,1.1c-1.4,44.5-2.8,87.9-4.3,132.6l0,0
		c-0.1,3.2-0.2,6.4-0.3,9.5c0.2,23.7-8.3,47.6-25.1,64.6l0,0c-17,17.7-39.6,29-62.7,36.6c0.1-0.1,0.2-0.2,0.2-0.4c0,0,0,0-0.1,0
		c6.3-10.3,30-51.7,15.3-67.5c-3.4-3.8-8.5-5.5-13.5-4.6c1-7.4,0.3-16.8-7.5-21.7c-7.1-4.5-15.2-1.9-21.6,2.4
		c-1.6-5.8-5.2-11.2-12.6-12.9c-19.4-4.3-44.7,31.8-54.7,47.5c-11.1,17.4-16.9,36.8-16.3,54.5c0.2,7.3,1.5,13.9,3.8,19.9
		c-39.1,1.7-82.8-1.2-111-5.3c-13.1-2-26.8-3.9-39.2-8.2c-4.7-1.6-9.3-3.6-13.8-5.9c11.4-41.4-19.7-89.9-52-113.9
		c8.9-38,41.5-68.8,80.1-75.4c2.9-0.5,4.9-3.3,4.4-6.3l0,0c-2.2-12.3-38.5,6.3-44.9,10.4v-43.6c-4-3.8-7.7-7.8-11.1-12.1
		c-7.8,8.8-37.3,46-26.3,93.6c-2.3,3.9-4.4,8-6.3,12.1l0,0c-2.5,5.6-4.5,11.4-6,17.3c-8.4-2-17.1,5.1-18.6,12.9
		c-14.9-11.3-32.6-1-29,19.4c-4.9-0.9-10.1,0.9-13.5,4.6c-15.9,18.5,13.3,64.1,16.4,69.5c24.6,40.3,78.6,62.4,102.7,21.5
		c4.6,2.3,9.3,4.4,14.2,6.1c14.7,7.4,107.5,17.9,159.5,13.8c1.5,2.1,3.2,4.1,5.1,5.9c24.5,24.4,65.7,6.3,85.8-19.2
		c55-13.9,110.4-51.7,109-115.5C509.2,476.7,510.9,424.8,512.5,374.1z M99.8,434.8c3.5-12.7,8.5-22.8,15.1-32.8v45.8
		c-3,2.6-6.2,5.1-9,8c-3.1,3.1-6.1,6.3-8.8,9.7C96.1,454.5,97.3,444.1,99.8,434.8z M40.5,608.3c-11.4-15.8-33.5-68.9-7.7-55.1
		c4.2,3.4,10.4-1.5,8.4-6.1c-5.5-14.8-1.5-30.6,16.8-11.8c3.4,4.1,10.4,0.7,9.4-4.3c-2.2-39.6,48,21.8,57,48.2
		c2.9,7.7,4.8,15.7,5.4,23.8C132.7,662.7,70.8,657.5,40.5,608.3z M345,661.8c-11.7,0.5-22.8-4.1-29.4-14c-3.9-6.1-6.1-13.9-6.4-23
		c-0.5-15.6,4.7-32.8,14.6-48.4l0,0c19-29.9,36.4-44.3,43.2-42.9c6.5,1.5,5,12.7,5,12.8c-0.2,1.8,0.4,3.5,1.8,4.7
		c2.2,2,5.6,1.8,7.6-0.4c2.2-2.5,11.4-11.2,16.5-8c4.8,3,2.4,14.6,0.5,19.8c-0.8,2.2,0,4.7,1.9,6.1c1.9,1.4,4.6,1.4,6.5,0
		c0,0,6.7-4.9,10-1.3c5.9,6.4-2,31.7-17.7,56.4C384.6,646.2,363.4,660.4,345,661.8z"/>
	<path d="M457.5,434.7c-0.7,0.5-1.4,1-2.1,1.5c-17.9,12.4-35.1,23.2-54.4,34.4c-0.4,0.2-0.8,0.4-1.1,0.6
		c-22.5,12.5-45.5,25-70.6,31.2c-9.4,2.1-24.4,4.2-28.7-6.7c-2.3-4.6-3.3-9.7-3.1-14.8c1-14.7,9.9-27.2,18.5-38.7
		c3.4-4.3,6.8-8.5,10.4-12.7c-5.8,1.5-11.6,2.6-17.4,4.1c-3.3,4.3-6.5,8.6-9.6,13.3c-11.3,17-18.4,37.3-7,56.2
		c18.8,27,67.9,0.2,90.4-10.7l0,0c4.6-2.3,8.9-4.5,12.9-6.5c17.2-9.3,39.9-23.3,52.3-31.6l0,0c5.6-3.8,11.5-7.4,16.8-11.6
		C468.7,438.4,462.9,430.9,457.5,434.7z"/>
	<g id="Layer_7">
		<path class="penguin_lydian_no_crown-st11" d="M532.6,217.3l21.8,24.7c-2.6-41.3-28.6-140.9-121.5-167.6l-9.3,2.6L420,62c-2.4-10.2-28.7-39-85.4-48
			c-36.3-5.8-64.4-2.3-90.9,3.4c-24.8,5.3-125.1,43.4-125.1,43.4c5.5,1.8,39.6,7.9,45.1,9.7c-43.9,32.6-77,74.7-95.5,126.1
			c-15.3,42.5-19.7,96.5-20.8,133.3c10.5-14.4,21-28.8,31.5-43.3c-6.6,33.3-6.3,77.2,10.1,106.9c1.9-13.4,6.3-26.4,12.9-38.2
			c4.3,28.2,27.5,45.6,50.3,62.8c22.7,17.2,51.4,28,71,48.7l2.1-1.2C261,436.2,312,441,353.2,422.9c20.8-9.1,39.8-25.4,45.7-47.2
			c5.5,11.7,5.7,25.9,0.6,37.8c35-10.6,64.4-39.9,65.3-76.4c20.3,31.6,24,56,22,71.4c12.7-15.8,31.9-43.8,43.1-83.5
			C542.4,280.8,536,237.9,532.6,217.3z"/>
	</g>
	<path class="penguin_lydian_no_crown-st4" d="M99.8,434.8c3.5-12.7,8.5-22.8,15.1-32.8v45.8c-3,2.6-6.2,5.1-9,8c-3.1,3.1-6.1,6.3-8.8,9.7
		C96.1,454.5,97.3,444.1,99.8,434.8z"/>
	<g>
		<path class="penguin_lydian_no_crown-st5" d="M465.7,184.4c-3.6-10-10-24.7-22-39.6c-10.9-13.7-22.5-22.7-31-28.4c-0.3-0.4-1.9-2.5-1.5-5.5
			c0.2-1.9,1.2-3.7,2.8-5l8.7-6.8c22-17.2,53.8-13.2,71,8.8l0,0c17.2,22,13.2,53.8-8.8,71l-8.7,6.8
			C472.9,188.3,468.3,187.7,465.7,184.4z"/>
		<path class="penguin_lydian_no_crown-st4" d="M497.5,113.7c2.1,17.1-4.5,34.8-19.1,46.1l-8.7,6.8c-1.8,1.4-4.1,1.9-6.1,1.4c-1.2,0.9-2.4,1.7-3.7,2.4
			c2.5,5.2,4.4,10,5.9,14c2.5,3.2,7.2,3.8,10.5,1.3l8.7-6.8C505.1,163.2,510,135.2,497.5,113.7z"/>
		<path d="M471.6,192.8c-0.5,0-1.1,0-1.6-0.1c-3.4-0.4-6.5-2.2-8.6-4.9l-0.5-0.7l-0.3-0.8c-4.9-13.8-12-26.6-21.1-38
			c-8.5-10.6-18.5-19.7-29.7-27.2l-0.7-0.5l-0.6-0.7c-1-1.3-3.2-4.8-2.6-9.5c0.4-3.4,2.2-6.5,4.9-8.6l8.7-6.8
			c11.8-9.2,26.5-13.3,41.4-11.4c14.9,1.8,28.1,9.4,37.3,21.2c19,24.4,14.6,59.7-9.7,78.7l-8.7,6.8
			C477.3,191.9,474.5,192.8,471.6,192.8z M470.5,181.5c0.3,0.2,0.7,0.3,0.9,0.3c0.3,0,0.9,0,1.4-0.4l8.7-6.8
			c19.6-15.3,23.1-43.7,7.8-63.3c-7.4-9.5-18.1-15.5-30-17s-23.8,1.8-33.2,9.2l-8.7,6.8c-0.6,0.4-0.7,1-0.7,1.3c0,0.4,0,0.7,0.1,0.9
			c11.8,8,22.3,17.7,31.2,28.8C457.6,153.4,465.2,166.9,470.5,181.5z"/>
	</g>
	<path class="penguin_lydian_no_crown-st7" d="M458.1,165.3c-1.9-5.3-5.3-12.9-11.6-20.8c-5.7-7.2-11.8-11.9-16.2-14.9c-0.2-0.2-1-1.3-0.8-2.9
		c0.1-1,0.6-1.9,1.5-2.6l4.6-3.6c11.5-9,28.2-6.9,37.2,4.6l0,0c9,11.5,6.9,28.2-4.6,37.2l-4.6,3.6
		C461.9,167.3,459.4,167,458.1,165.3z"/>
	<g id="Layer_4">
		<circle class="penguin_lydian_no_crown-st10" cx="297.1" cy="232.4" r="19.1"/>
		<circle class="penguin_lydian_no_crown-st10" cx="143.3" cy="238.1" r="19.7"/>
	</g>
</g>
</svg>
