<?xml version="1.0" encoding="utf-8"?>
<!-- Generator: Adobe Illustrator 24.0.0, SVG Export Plug-In . SVG Version: 6.00 Build 0)  -->
<svg version="1.1" id="NoCrownPatch" xmlns="http://www.w3.org/2000/svg" xmlns:xlink="http://www.w3.org/1999/xlink" x="0px"
	 y="0px" viewBox="0 0 70.2 83.9" style="enable-background:new 0 0 70.2 83.9;" xml:space="preserve">
<style type="text/css">
	.penguin_eye_patch_no_crown-st0{fill:#A51C1C;}
	.penguin_eye_patch_no_crown-st1{fill:#E5C230;}
	.penguin_eye_patch_no_crown-st2{fill:#FFFFFF;}
	.penguin_eye_patch_no_crown-st3{fill:#010101;}
	.penguin_eye_patch_no_crown-st4{fill:none;stroke:#010101;stroke-width:1.5;stroke-linecap:round;stroke-miterlimit:10;}
	.penguin_eye_patch_no_crown-st5{fill="url(#SVGID_1_penguin)";}
	.penguin_eye_patch_no_crown-st6{fill:#5C5C5C;}
</style>
<g id="Color_body">
	<path class="penguin_eye_patch_no_crown-st0" d="M68.7,28.1c-1.1,35.4-1.1,35.4-1.1,35.4c0,1.7-0.3,3.4-0.9,5c-1.9,4.8-6.6,7.6-11.3,9.1
		c0.9-1.4,4.2-7.2,2.1-9.4c-0.5-0.5-1.2-0.8-1.9-0.6c0.3-1.4-0.4-3.4-2.2-3.3c0.8-2.4,1.4-4.8,1.8-7.3c4.1-2.4,7.5-4.7,7.7-4.9
		c0.3-0.2,0.4-0.7,0.2-1c-0.2-0.3-0.7-0.4-1-0.2c-1.7,1.2-4.7,3.2-7.9,5c-0.1,0-0.1,0.1-0.2,0.1c-4.7,2.7-9.8,5-12.4,4.5
		c-0.5-0.1-0.9-0.4-1.2-0.8c-2-3.4,1.4-7.2,5.7-12c4.6-5.2,9.8-11.1,10.1-18.6h0c0-0.1,0-0.7,0-0.7C56.4,13.5,44.8,3,30.6,4.1
		C48.4-4.2,69.2,8.1,68.7,28.1z"/>
	<path class="penguin_eye_patch_no_crown-st0" d="M14.5,46.3v6.4c-0.4,0.4-0.9,0.7-1.2,1.1c-0.4,0.4-0.8,0.9-1.2,1.4C11.9,52,12.7,48.9,14.5,46.3z"/>
	<path class="penguin_eye_patch_no_crown-st0" d="M21.2,31l9.8-2.7c0.3,1.7,0.2,3.5-0.4,5.1L21.2,31z"/>
</g>
<g id="Shape">
	<polygon class="penguin_eye_patch_no_crown-st1" points="51,65.7 50.2,64.1 49.1,63.8 47.4,65.4 45.4,66.8 43.4,69.4 41.9,72.2 40.8,75.9 41.1,79.3 42.6,81.8 
		44.1,82.8 47.1,83.2 50.8,81.9 54.5,77.7 56.7,73.5 57.4,70 56.6,68.4 54.8,68.7 54.8,66 53.4,65 51.7,65.4 	"/>
	<polygon class="penguin_eye_patch_no_crown-st1" points="7.2,64.3 5.6,63.1 4.4,62.9 3.4,63.8 3.4,65.4 2.9,66.3 1.2,66.6 0.7,67.4 0.7,69.1 3.6,75.3 
		6.1,78.3 9.1,80.8 12.1,81 14.8,80.2 16.9,77.7 17.4,73.5 16.3,70 14,66.2 12.1,63.8 10.2,62.2 8.5,61.7 7.3,63 	"/>
	<path class="penguin_eye_patch_no_crown-st2" d="M40.6,80c-9.6,0.4-18.5-1-20.9-1.9c-0.7-0.2-1.3-0.5-1.9-0.8c1.6-5.3-2.4-12.3-7.2-15.8
		c1.3-5.4,5.7-9.5,11.1-10.5c0.4-0.1,0.7-0.5,0.6-0.9c0,0,0,0,0,0C22,48.5,16.9,51,16,51.6V32.5c2.6,2.2,6.2,2.6,9.2,1.2l6.3,1.6
		c1.3-2.7,1.5-5.9,0.6-8.8l-2.2,0.6c0.9-6.6-6.5-11.7-12.3-8.4c1.8-5.1,5.2-9.5,9.7-12.6C41.6,2.9,55,13,54.8,28.3
		c0,7.3-5.2,13.1-9.8,18.3c-4.5,5.1-8.4,9.4-5.8,13.8c2.7,3.9,10-0.2,14.3-2.4c-0.5,2.4-1.1,4.7-1.9,6.9c0,0,0,0,0,0
		c-2.1-5.3-7.8,2.2-9.3,4.8C40.1,73.2,39.5,77.2,40.6,80z"/>
	<circle class="penguin_eye_patch_no_crown-st3" cx="42.8" cy="25.2" r="8.1"/>
	<path class="penguin_eye_patch_no_crown-st3" d="M62.5,8.3c-9.1-9.7-25.2-11-36.1-3.5c-3.6,2.5-6.6,5.8-8.7,9.7c-1,1.8-1.7,3.7-2.2,5.6
		c-2.8,2.9-3.2,7.3-1,10.6v13c-1,1.1-5.2,6.3-3.7,13.1c-0.8,1.3-1.3,2.6-1.7,4.1c-1.2-0.2-2.3,0.6-2.6,1.8c-2.3-1.7-4.5,0.1-4,2.7
		c-0.7-0.1-1.4,0.1-1.9,0.6c-2.2,2.4,1.8,8.9,2.3,9.7c3.4,5.5,10.7,8.8,14.3,3c0.6,0.3,1.3,0.6,2,0.8c2,1,14.9,2.5,22.2,1.9
		c3.3,4.6,9.6,1.9,12.6-1.8c7.8-2,15.3-7.2,15.1-16c0-0.2,1.1-35.4,1.1-35.4C70.5,20.8,67.7,13.6,62.5,8.3z M21.2,31l9.8-2.7
		c0.3,1.7,0.2,3.5-0.4,5.1L21.2,31z M14.5,46.3v6.4c-0.4,0.4-0.9,0.7-1.2,1.1c-0.4,0.4-0.8,0.9-1.2,1.4C11.9,52,12.7,48.9,14.5,46.3
		z M14.4,79.6c-2.9,1.8-7.5-0.3-10.2-4.7c-2.3-3.4-4.3-9.5-1.1-7.7c0.3,0.2,0.8,0.2,1.1-0.2c0.1-0.2,0.2-0.5,0.1-0.7
		c-0.9-2.8,0.3-3.8,2.3-1.6c0.3,0.3,0.8,0.3,1.1,0.1c0.2-0.2,0.3-0.4,0.2-0.7c-0.2-4.1,3.8-0.4,6.7,4.2
		C17.4,72.8,17.3,77.8,14.4,79.6z M40.6,80c-9.6,0.4-18.5-1-20.9-1.9c-0.7-0.2-1.3-0.5-1.9-0.8c1.6-5.3-2.4-12.3-7.2-15.8
		c1.3-5.4,5.7-9.5,11.1-10.5c0.4-0.1,0.7-0.5,0.6-0.9c0,0,0,0,0,0C22,48.5,16.9,51,16,51.6V32.5c2.6,2.2,6.2,2.6,9.2,1.2l6.3,1.6
		c1.3-2.7,1.5-5.9,0.6-8.8l-2.2,0.6c0.9-6.6-6.5-11.7-12.3-8.4c1.8-5.1,5.2-9.5,9.7-12.6C41.6,2.9,55,13,54.8,28.3
		c0,7.3-5.2,13.1-9.8,18.3c-4.5,5.1-8.4,9.4-5.8,13.8c2.7,3.9,10-0.2,14.3-2.4c-0.5,2.4-1.1,4.7-1.9,6.9c0,0,0,0,0,0
		c-2.1-5.3-7.8,2.2-9.3,4.8C40.1,73.2,39.5,77.2,40.6,80L40.6,80z M54,77.1c-6.3,9.8-17,5-10.4-6.6c2.7-4.3,6.8-8.4,6.7-4.2
		c-0.1,0.4,0.2,0.8,0.7,0.8c0.2,0,0.5-0.1,0.7-0.2c0.3-0.3,1.6-1.5,2.3-1.1c0.7,0.4,0.3,2.1,0.1,2.7c-0.1,0.4,0.1,0.8,0.5,1
		c0.2,0.1,0.5,0,0.7-0.1C58.2,67.6,56.2,73.7,54,77.1L54,77.1z M68.7,28.1c-1.1,35.4-1.1,35.4-1.1,35.4c0,1.7-0.3,3.4-0.9,5
		c-1.9,4.8-6.6,7.6-11.3,9.1c0.9-1.4,4.2-7.2,2.1-9.4c-0.5-0.5-1.2-0.8-1.9-0.6c0.3-1.4-0.4-3.4-2.2-3.3c0.8-2.4,1.4-4.8,1.8-7.3
		c4.1-2.4,7.5-4.7,7.7-4.9c0.3-0.2,0.4-0.7,0.2-1c-0.2-0.3-0.7-0.4-1-0.2c-1.7,1.2-4.7,3.2-7.9,5c-0.1,0-0.1,0.1-0.2,0.1
		c-4.7,2.7-9.8,5-12.4,4.5c-0.5-0.1-0.9-0.4-1.2-0.8c-2-3.4,1.4-7.2,5.7-12c4.6-5.2,9.8-11.1,10.1-18.6h0c0-0.1,0-0.7,0-0.7
		C56.4,13.5,44.8,3,30.6,4.1C48.4-4.2,69.2,8.1,68.7,28.1z"/>
	<circle class="penguin_eye_patch_no_crown-st2" cx="39.8" cy="22.7" r="2.6"/>
	<circle class="penguin_eye_patch_no_crown-st2" cx="18.5" cy="23.5" r="2.7"/>
	<g id="Patch">
		<polyline class="penguin_eye_patch_no_crown-st4" points="17.7,14.5 37,19.6 50.1,21.1 68.9,17.8 		"/>
		
			<radialGradient id="SVGID_1_penguin" cx="203.1477" cy="-107.7985" r="8.8287" gradientTransform="matrix(1 0 0 -1 -160.2409 -82.5042)" gradientUnits="userSpaceOnUse">
			<stop  offset="0" style="stop-Color_body:#1D1D1D"/>
			<stop  offset="0.429" style="stop-Color_body:#141414"/>
			<stop  offset="1" style="stop-Color_body:#010101"/>
		</radialGradient>
		<path class="penguin_eye_patch_no_crown-st5" d="M52,25.3c-0.6,4.5-5.1,9-10.1,8.4s-8.6-6.2-8-10.7S39,16.3,44,16.9S52.5,20.9,52,25.3z"/>
		<path class="penguin_eye_patch_no_crown-st6" d="M38.4,19.2c1.8-0.9,3.9-1.1,5.9-0.6c1.9,0.4,3.6,1.6,4.6,3.2c-1.2-1.4-2.9-2.3-4.7-2.5
			c-1.7-0.2-3.5,0.2-5,1.1c-0.3,0.2-0.8,0.2-1.1-0.2S38,19.5,38.4,19.2C38.3,19.2,38.3,19.2,38.4,19.2
			C38.4,19.2,38.4,19.2,38.4,19.2z"/>
	</g>
</g>
</svg>
