<?xml version="1.0" encoding="utf-8"?>
<!-- Generator: Adobe Illustrator 24.0.0, SVG Export Plug-In . SVG Version: 6.00 Build 0)  -->
<svg version="1.1" id="Suited" xmlns="http://www.w3.org/2000/svg" xmlns:xlink="http://www.w3.org/1999/xlink" x="0px" y="0px"
	 viewBox="0 0 506.7 605.5" style="enable-background:new 0 0 506.7 605.5;" xml:space="preserve">
<style type="text/css">
	.penguin_suit_no_crown-st0{fill:#A51C1C;}
	.penguin_suit_no_crown-st1{fill:#E5C333;}
	.penguin_suit_no_crown-st2{fill:#FFFFFF;}
	.penguin_suit_no_crown-st3{fill:#231E44;}
	.penguin_suit_no_crown-st4{fill:#0586A6;stroke:#000000;stroke-miterlimit:10;}
	.penguin_suit_no_crown-st5{fill:#E6E6E8;}
</style>
<g id="Color">
	<path id="color" class="penguin_suit_no_crown-st0" d="M495.7,203c-8.2,255.4-8.2,255.5-8.2,255.7c0,12.2-2.1,24.3-6.4,35.8
		c-13.5,34.5-47.7,54.6-81.5,65.6c6.2-10.2,30.1-51.8,15.3-67.8c-3.4-3.8-8.5-5.5-13.5-4.6c2.1-10.2-3-24.6-15.9-24.2
		c5.5-17.2,9.8-34.7,12.9-52.4c29.6-17.1,53.8-34.1,55.9-35.6c5.7-4.1-0.5-12.9-6.3-8.8c-12.2,8.7-33.6,22.7-56.7,35.9
		c-0.4,0.2-0.7,0.4-1.1,0.6c-33.7,19.2-71,36.3-89.8,32.3c-4-0.9-6.8-2.7-8.6-5.7c-14.4-24.7,10-52.1,40.8-86.8
		c33.3-37.5,70.8-79.9,73.1-134.3h0.2v-5.2c0.8-105.7-83.2-182.1-185-173.9C349.4-30.4,499.5,58.2,495.7,203z"/>
	<path id="color-2" class="penguin_suit_no_crown-st0" d="M152.9,223.9l70.6-19.5c2.3,12.4,1.4,25.1-2.8,37L152.9,223.9z"/>
</g>
<g id="Shape">
	<g id="Layer_4">
		<polygon class="penguin_suit_no_crown-st1" points="367.8,474.2 362.3,462.1 354.3,460.5 341.8,471.5 327.3,481.7 313.1,500.7 302,520.5 294.7,547.9 
			296.5,571.9 307.3,590.3 317.9,597.2 339.4,599.9 366.8,590.5 392.8,560.6 408.7,530.1 414.2,505.2 408.1,493.8 395.4,495.4 
			395.3,475.9 385.4,468.8 372.8,471.5 		"/>
		<polygon class="penguin_suit_no_crown-st1" points="51.9,463.8 40.3,454.9 31.6,453.6 24.3,460.3 24.3,471.5 21.1,478.4 8.7,480.3 5.4,486.1 5.4,498.6 
			25.8,543.4 43.8,565 65.3,582.9 87,584.4 107,578.9 121.6,560.6 125.3,530.1 117.7,505.2 101.3,477.6 87.1,460.3 73.8,448.6 
			61,445 52.4,454.4 		"/>
		<path class="penguin_suit_no_crown-st2" d="M292.7,577.2c-69.2,2.8-133.3-6.9-150.8-13.5c-4.8-1.6-9.4-3.6-13.8-6c11.2-38.2-17.3-88.4-52.1-114.1
			c9-38.2,41.6-68.9,80.3-75.6c2.9-0.5,4.9-3.3,4.4-6.3l0,0c-2.2-12.3-38.5,6.3-45,10.4v-138c16.9,15.4,45.6,19.3,66.2,8.4
			l45.2,11.7c9.4-19.8,10.9-42.5,4.1-63.3l-15.8,4.4c6.8-47.8-47-84.3-88.8-60.9c13.3-36.8,37.7-68.5,70-90.6
			C300,21,396.5,93.6,395.2,204.1c-0.2,52.5-37.6,94.6-70.6,131.7c-32.4,36.5-60.3,67.9-42,99.4c19.4,28.2,71.8-1.4,103.5-17.3
			c-3.3,17-7.8,33.7-13.5,50c-0.1,0.1-0.2,0.1-0.3,0.2c-15.4-38.5-56,15.9-67.1,34.8C289.2,528.3,285.2,556.7,292.7,577.2z"/>
		<circle cx="308.5" cy="181.7" r="58.6"/>
		<path d="M451.1,60.2C385.3-9.7,269.2-19.4,190.8,34.7c-38.6,26.5-66.6,65.8-79,110.9c-19.7,18.7-23.1,54.2-6.9,76.5v94
			c-7.3,8.1-37.8,45.8-26.7,94.2c-5.5,9.2-9.6,19.1-12.3,29.5c-9-2-17.1,5.4-18.6,12.9c-16.8-12-32.5,0.6-29.1,19.5
			c-5-0.9-10.1,0.9-13.5,4.6c-15.9,17.2,13.1,64.3,16.5,69.7c24.6,39.5,77.2,63.4,102.9,21.6c4.6,2.4,9.3,4.4,14.2,6.1
			c14.7,7.5,107.8,18,159.9,13.9c23.5,32.9,69.5,13.9,90.9-13.3c56.2-14.4,110.4-52.1,109.2-115.7c0-1.5,8.2-255.5,8.2-255.5
			C508.5,150.2,488.5,98.4,451.1,60.2z M152.9,223.9l70.6-19.5c2.3,12.4,1.4,25.1-2.8,37L152.9,223.9z M104.9,333.9v45.9
			c-3,2.6-6.2,5.2-9,8c-3.1,3.1-6.1,6.3-8.8,9.7C84.4,370.2,96,347.1,104.9,333.9z M104.1,574.3c-20.7,13.1-53.8-2.1-73.8-33.8
			c-16.2-24.3-30.8-68.3-7.7-55.2c4.1,3.3,10.3-1.3,8.4-6.2c-6.8-20.4,2.2-27.6,16.8-11.8c3.3,4.1,10.4,0.8,9.4-4.3
			c-1.4-29.9,27.4-2.7,48,30.1C125.3,524.9,124.8,561.3,104.1,574.3z M292.7,577.2c-69.2,2.8-133.3-6.9-150.8-13.5
			c-4.8-1.6-9.4-3.6-13.8-6c11.2-38.2-17.3-88.4-52.1-114.1c9-38.2,41.6-68.9,80.3-75.6c2.9-0.5,4.9-3.3,4.4-6.3l0,0
			c-2.2-12.3-38.5,6.3-45,10.4v-138c16.9,15.4,45.6,19.3,66.2,8.4l45.2,11.7c9.4-19.8,10.9-42.5,4.1-63.3l-15.8,4.4
			c6.8-47.8-47-84.3-88.8-60.9c13.3-36.8,37.7-68.5,70-90.6C300,21,396.5,93.6,395.2,204.1c-0.2,52.5-37.6,94.6-70.6,131.7
			c-32.4,36.5-60.3,67.9-42,99.4c19.4,28.2,71.8-1.4,103.5-17.3c-3.3,17-7.8,33.7-13.5,50c-0.1,0.1-0.2,0.1-0.3,0.2
			c-15.4-38.5-56,15.9-67.1,34.8C289.2,528.3,285.2,556.7,292.7,577.2z M389.3,556.1c-45.5,70.8-122.5,36.1-74.9-47.4
			c19.2-30.8,49.3-60.8,48-30.1c-0.9,5.2,6.1,8.4,9.4,4.3c2.2-2.5,11.4-11.1,16.4-8c4.7,3,2.3,14.8,0.5,19.8c-2,4.9,4.3,9.5,8.4,6.2
			C419.9,487.5,405.6,531.8,389.3,556.1z M495.7,203c-8.2,255.4-8.2,255.5-8.2,255.7c0,12.2-2.1,24.3-6.4,35.8
			c-13.5,34.5-47.7,54.6-81.5,65.6c6.2-10.2,30.1-51.8,15.3-67.8c-3.4-3.8-8.5-5.5-13.5-4.6c2.1-10.2-3-24.6-15.9-24.2
			c5.5-17.2,9.8-34.7,12.9-52.4c29.6-17.1,53.8-34.1,55.9-35.6c5.7-4.1-0.5-12.9-6.3-8.8c-12.2,8.7-33.6,22.7-56.7,35.9
			c-0.4,0.2-0.7,0.4-1.1,0.6c-33.7,19.2-71,36.3-89.8,32.3c-4-0.9-6.8-2.7-8.6-5.7c-14.4-24.7,10-52.1,40.8-86.8
			c33.3-37.5,70.8-79.9,73.1-134.3h0.2v-5.2c0.8-105.7-83.2-182.1-185-173.9C349.4-30.4,499.5,58.2,495.7,203L495.7,203z"/>
		<circle class="penguin_suit_no_crown-st2" cx="287.4" cy="164" r="19.1"/>
		<circle class="penguin_suit_no_crown-st2" cx="133.3" cy="169.7" r="19.8"/>
		<path class="penguin_suit_no_crown-st3" d="M104.9,333.9v45.9c-3,2.6-6.2,5.2-9,8c-3.1,3.1-6.1,6.3-8.8,9.7C84.4,370.2,96,347.1,104.9,333.9z"/>
		<path class="penguin_suit_no_crown-st4" d="M222.4,148.5"/>
	</g>
	<g id="Layer_2_1_">
		<rect id="color-3" x="176.2" y="304.5" class="penguin_suit_no_crown-st0" width="99.5" height="154.2"/>
		<polygon class="penguin_suit_no_crown-st5" points="213.1,305.2 360.2,285.3 242.7,382.5 		"/>
		<path d="M342.3,293.2l-97.3,80.4l-24.5-63.9L342.3,293.2 M378.1,277.5l-172.4,23.3l34.7,90.5L378.1,277.5L378.1,277.5z"/>
		<polygon class="penguin_suit_no_crown-st5" points="133.2,345.8 119.1,290.7 207.3,305 177.6,382.5 		"/>
		<path d="M126.3,297.3l73.6,12l-24.6,64.3L138,342.8L126.3,297.3 M111.8,284l16.6,64.7l51.5,42.6l34.7-90.5L111.8,284L111.8,284z"
			/>
		<path class="penguin_suit_no_crown-st3" d="M110.9,517.2c-7.3-14.6-16-27-23.7-38c-7.9-11.3-14.7-21-16.7-28.7c-2.1-8.2,0.4-17,8.8-30.4
			c15.1-24.2,29.5-34.8,29.6-34.9l2.3-1.6l0-2.8c0,0-0.5-47.1-1.1-105.6c10.2,5,27.2,14.2,40.6,27.5c31.3,31.1,49.9,96.2,49.9,141.2
			v39.3c0,1.8-0.7,3.4-1.9,4.7l-27.4,27.2c-0.6,0.6-1.3,1.1-2.2,1.4c-0.8,0.3-1.7,0.5-2.5,0.5L110.9,517.2z"/>
		<path d="M115.5,284.2c9.5,5.2,21.5,12.7,31.3,22.5c30.3,30.1,48.4,93.5,48.4,137.5v39.3c0,0.3-0.1,0.6-0.4,0.9l-27.4,27.2
			c-0.1,0.1-0.3,0.2-0.4,0.3c-0.2,0.1-0.3,0.1-0.5,0.1h-52.4c-7.1-13.7-15.3-25.3-22.6-35.7c-7.6-10.8-14.2-20.2-15.9-26.9
			c-1.2-4.8-1.1-11.4,8.1-26.2c14.4-23.2,28.1-33.3,28.2-33.3l4.6-3.2l-0.1-5.6C116.5,380.8,116,338.5,115.5,284.2 M104.6,266.7
			c0.5,62.5,1.1,114.2,1.1,114.2s-15.2,10.8-31.1,36.4c-9.4,15.1-11.8,25.1-9.4,34.5c4.3,17,27.2,39.1,42.2,70.7h59.1
			c3.2,0,6.2-1.3,8.5-3.5l27.4-27.2c2.3-2.2,3.5-5.3,3.5-8.4v-39.3c0-48.3-19.7-113.4-51.5-145C135.9,280.5,111.3,270.1,104.6,266.7
			L104.6,266.7z"/>
		<path class="penguin_suit_no_crown-st3" d="M455.2,518.9c-5.5-0.1-10.9-0.5-16.3-1.3c-1.5-0.2-2.8-0.4-3.6-0.4l-194,0c-1.8,0-3.4-0.7-4.7-1.9L209.1,488
			c-1.2-1.2-1.9-2.9-1.9-4.7V454c0-95.9,76.1-174.5,171.4-179.2c-14.2,24.9-34.3,47.5-52.3,67.7c-32.1,35.9-57.4,64.3-41.2,92.1
			c2.5,4.2,6.5,7,12,8.2c2.4,0.5,4.8,0.7,7.3,0.7c18,0,46.8-11.2,85.8-33.2l0.4-0.2l0.3-0.3c23.3-13.2,44.8-27.2,57.2-36l3.1-2.2
			l-26.1-97h68.1c6.5,0,8,5.1,8,9.4v19.7L501,307c-0.5,10.5-0.5,11.9-1.3,18.4c-3.8,32.4-4.2,67-1.2,112.2c0.1,1.8,0.3,3.9,0.5,6.2
			c1.1,13.4,2.6,33.7-1.6,45.6l-1,2.8c-2.3,6.7-3.8,11.2-12.9,18.6C477.1,516.2,467.5,518.9,455.2,518.9L455.2,518.9z"/>
		<path d="M493.1,279.9c1.4,0,2.6,0,2.7,4v19.6l-0.1,3.3c-0.4,10.3-0.5,11.6-1.2,18c-3.8,32.7-4.2,67.6-1.2,113.1
			c0.1,1.9,0.3,4,0.5,6.3c1,12.2,2.6,32.6-1.3,43.4c-0.4,1-0.7,1.9-1,2.9c-2.2,6.5-3.3,9.7-11.2,16.2c-5.5,4.6-13.9,6.9-25,6.9
			c-5.2-0.1-10.5-0.5-15.6-1.2c-1.6-0.2-3-0.4-3.9-0.5l-0.4,0h-194c-0.3,0-0.6-0.1-0.9-0.4l-27.4-27.2c-0.2-0.2-0.4-0.5-0.4-0.9V454
			c0-89.6,68.4-163.6,156.1-173.1c-13.4,21-30.7,40.4-46.4,58c-32.2,36-60,67.2-41.8,98.3c2.2,3.8,6.8,8.8,15.5,10.7
			c2.8,0.6,5.6,0.8,8.4,0.8c18.9,0,48.7-11.4,88.5-33.9l0.7-0.4l0,0l0.4-0.2c23.1-13.1,44.7-27.2,57.3-36.1l6.1-4.3l-1.9-7.2
			l-23.3-86.7L493.1,279.9 M493.1,269.2h-75.1L445,369.4c-12.2,8.6-33.4,22.5-56.4,35.5c-0.4,0.2-0.8,0.4-1.1,0.6
			c-30.2,17.1-63.3,32.5-83.2,32.5c-2.1,0-4.1-0.2-6.1-0.6c-4-0.9-6.8-2.7-8.5-5.6c-14.3-24.4,9.9-51.5,40.6-85.8
			c20.7-23.1,43-48.2,57.4-76.8h0C285,269.2,201.8,352,201.8,454v29.3c0,3.2,1.3,6.2,3.5,8.4l27.4,27.2c2.3,2.2,5.3,3.5,8.5,3.5
			h193.6c3,0.2,11,1.7,20.4,1.7c10.5,0,22.7-1.8,31.8-9.3c11.5-9.5,12.5-15.2,15.5-23.8c5.3-15,2.2-40.8,1.4-53.9
			c-2.4-37.2-3.1-74.3,1.2-111.2c0.9-7.4,0.9-8.6,1.5-22.3v-19.8C506.4,274.6,501.2,269.2,493.1,269.2L493.1,269.2z"/>
		<path class="penguin_suit_no_crown-st1" d="M109.7,491.1c21.6,34,20.4,73.4-2.8,87.9s-59.5-1.2-81.1-35.2c-13.8-21.7-26.6-52.3-17-62.6
			C15.5,474,26,482,26,482s-7.4-19.7,2.7-26s23.3,8.9,23.3,8.9s-2.4-16.1,9.1-18.7C74,443.3,95.5,468.7,109.7,491.1z"/>
		<path d="M87.5,589.8c-22.9,0-49.1-16.1-66.2-43c-3.4-5.3-32.3-52-16.4-69.1c3.4-3.7,8.5-5.5,13.5-4.6c-1-7.4-0.3-16.8,7.5-21.6
			c7.1-4.5,15.1-1.9,21.5,2.3c1.5-5.7,5.2-11.1,12.5-12.8c19.3-4.3,44.5,31.6,54.5,47.3c23.2,36.4,21.2,79.2-4.5,95.3
			C103.1,587.7,95.3,589.9,87.5,589.8z M15.9,483.6c-1.2,0-2.4,0.4-3.2,1.3c-5.9,6.4,2,31.5,17.6,56.1c20,31.5,53.1,46.5,73.7,33.5
			c20.6-13,21.1-49.1,1.1-80.5l0,0c-18.9-29.7-36.2-44.2-43-42.6c-6.4,1.4-4.9,12.6-4.9,12.7c0.3,2.4-0.9,4.6-3.1,5.6
			c-2.2,1-4.7,0.4-6.3-1.3c-2.2-2.5-11.3-11.1-16.4-7.9c-4.7,3-2.3,14.7-0.5,19.7c0.8,2.2,0.1,4.8-1.9,6.2c-1.9,1.4-4.6,1.4-6.5-0.1
			C22.6,486.2,19.1,483.6,15.9,483.6z"/>
		<path class="penguin_suit_no_crown-st1" d="M308,506.2c-21.7,34.1-20.5,73.7,2.8,88.3s59.8-1.2,81.5-35.3c13.9-21.8,26.8-52.5,17.1-62.9
			c-6.8-7.3-17.3,0.7-17.3,0.7s7.4-19.8-2.7-26.2s-23.4,9-23.4,9s2.4-16.2-9.1-18.8C343.8,458.2,322.3,483.7,308,506.2z"/>
		<path d="M330.3,605.3c-7.9,0.1-15.7-2-22.4-6.2c-12.8-8.1-20.2-22.7-20.8-41.2c-0.6-17.7,5.2-37.1,16.3-54.5l0,0
			c10-15.7,35.3-51.8,54.7-47.5c7.4,1.7,11,7.1,12.6,12.9c6.4-4.3,14.5-6.9,21.6-2.4c7.8,4.9,8.5,14.3,7.5,21.7
			c5-0.9,10.1,0.8,13.5,4.6c15.9,17.1-13.1,64.1-16.5,69.4C379.6,589.2,353.3,605.3,330.3,605.3z M312.5,509.1
			c-9.9,15.6-15.1,32.8-14.6,48.4c0.5,14.9,6.1,26.4,15.8,32.5c20.7,13,54-2.1,74.1-33.7c15.7-24.7,23.6-50,17.7-56.4
			c-3.3-3.6-10,1.3-10,1.3c-1.9,1.4-4.5,1.4-6.5,0c-1.9-1.4-2.7-3.9-1.9-6.1c1.9-5.2,4.3-16.8-0.5-19.8c-5.1-3.2-14.3,5.5-16.5,8
			c-1.6,1.8-4.1,2.3-6.3,1.3c-2.2-1-3.4-3.3-3.1-5.6c0-0.1,1.5-11.3-5-12.8C348.9,464.8,331.5,479.3,312.5,509.1z"/>
		<path class="penguin_suit_no_crown-st3" d="M262.8,352.5l14.1,22.8l-73.6,84.6c0-102.1,83.2-184.8,185.9-184.8L262.8,352.5z"/>
		<path d="M198,474.3v-14.4c0-104.8,85.8-190.1,191.3-190.2h19l-138.1,84.5l13.4,21.5L198,474.3z M368.3,281.6
			c-84.7,9.8-151.7,78.1-158.9,163.1l60.9-70.1l-14.9-24L368.3,281.6z"/>
		<path class="penguin_suit_no_crown-st3" d="M145.3,330.2l-14.1,27.5l73.6,102.2c0-89.4-33.9-157.2-92.9-187.8l-1.3-0.7l0,33L145.3,330.2z"/>
		<path d="M210.1,476.6l-85.2-118.4l13.6-26.4l-33.3-24.6l0-44.5l9.1,4.7c60.9,31.6,95.8,101.7,95.8,192.5L210.1,476.6z
			 M137.5,357.2l61.4,85.4c-3.9-74.9-33.6-133-83-162.1l0,21.3l36.3,26.8L137.5,357.2z"/>
		<path class="penguin_suit_no_crown-st3" d="M334.3,441c-4.3,0-8.4-2.2-10.7-5.9L294,389.5c-3-4.6-2.7-10.6,0.9-14.9c14.7-17.6,28.9-35.8,42.3-54
			c6.6-9,12.7-17.6,18.1-25.4c8.7-12.7,23.2-20.3,38.6-20.3c0,0,59.9-0.2,80.4-0.2c16.2,22.2,18.1,51.8,4.7,75.8
			c-16.1,16.2-33.6,31-52.3,44c-27.3,19-56.9,34.4-88.1,45.9C337.2,440.8,335.7,441,334.3,441z"/>
		<path d="M471.5,279.9c13.4,20.1,14.6,46,3.1,67.2c-15.7,15.8-32.8,30.1-51,42.9c-26.9,18.8-56.1,34-86.9,45.2
			c-0.8,0.3-1.6,0.4-2.4,0.4c-2.5,0-4.8-1.3-6.2-3.4l-16.1-25l-13.4-20.7c-1.7-2.6-1.6-6.1,0.5-8.6c14.7-17.7,29-35.9,42.5-54.3
			c6.1-8.4,12.3-17,18.2-25.6c7.7-11.3,20.5-18,34.2-18C393.9,280.2,448.8,280,471.5,279.9 M476.9,269.2c-17.4,0-83.1,0.2-83.1,0.2
			c-17.2,0-33.3,8.5-43,22.7c-5.4,7.8-11.4,16.3-18,25.3c-11.7,16-25.7,34.1-42.1,53.8c-5,6-5.5,14.6-1.2,21.2
			c9.8,15.2,19.7,30.5,29.5,45.7c3.3,5.2,9.1,8.3,15.2,8.3c2.1,0,4.2-0.4,6.1-1.1c31.7-11.6,61.7-27.2,89.4-46.5
			c19.2-13.4,37.1-28.5,53.5-45.2C498.4,326.8,495.9,293.5,476.9,269.2L476.9,269.2z"/>
		<path id="color-4" class="penguin_suit_no_crown-st0" d="M205.7,306.4h7.3c5.4,0,9.8,4.4,9.8,9.8v10.8c0,5.4-4.4,9.8-9.8,9.8h-7.3
			c-5.4,0-9.8-4.4-9.8-9.8v-10.8C195.9,310.8,200.3,306.4,205.7,306.4z"/>
		<path d="M209.4,340.6c-9.9,0-17.9-6.6-17.9-14.8v-8.2c0-8.2,8-14.8,17.9-14.8s17.9,6.6,17.9,14.8v8.2
			C227.3,334,219.2,340.6,209.4,340.6z M209.4,310.1c-5,0-9,3.3-9,7.4v8.2c0,4.1,4,7.4,9,7.4s9-3.3,9-7.4v-8.2
			C218.4,313.5,214.3,310.1,209.4,310.1z"/>
	</g>
</g>
</svg>
