<?xml version="1.0" encoding="utf-8"?>
<!-- Generator: Adobe Illustrator 24.0.0, SVG Export Plug-In . SVG Version: 6.00 Build 0)  -->
<svg version="1.1" id="CrownSunglasses" xmlns="http://www.w3.org/2000/svg" xmlns:xlink="http://www.w3.org/1999/xlink" x="0px"
	 y="0px" viewBox="0 0 544.3 770.4" style="enable-background:new 0 0 544.3 770.4;" xml:space="preserve">
<style type="text/css">
	.penguin_sunglass_with_crown-st0{fill:#A51C1C;}
	.penguin_sunglass_with_crown-st1{fill:#E5C333;}
	.penguin_sunglass_with_crown-st2{fill:#FFFFFF;}
	.penguin_sunglass_with_crown-st3{fill:#232323;}
	.penguin_sunglass_with_crown-st4{fill:#3A3A3A;}
	.penguin_sunglass_with_crown-st5{fill:#C57F00;}
	.penguin_sunglass_with_crown-st6{opacity:0.4;fill:#8D5D15;enable-background:new    ;}
	.penguin_sunglass_with_crown-st7{fill:#A56921;}
	.penguin_sunglass_with_crown-st8{fill:#8D5D15;}
	.penguin_sunglass_with_crown-st9{fill:#FFB700;}
	.penguin_sunglass_with_crown-st10{fill:#6FBE44;}
	.penguin_sunglass_with_crown-st11{fill:#65AB45;}
	.penguin_sunglass_with_crown-st12{fill:#D4F4D0;}
</style>
<g id="Color_body">
	<path id="Color_body_2_" class="penguin_sunglass_with_crown-st0" d="M496.8,367.2c-8.2,256-8.2,256.1-8.2,256.2c0,12.2-2.1,24.4-6.4,35.9
		c-13.5,34.6-47.8,54.8-81.7,65.8c6.2-10.2,30.2-52,15.4-68c-3.4-3.8-8.5-5.5-13.5-4.6c2.1-10.2-3-24.6-15.9-24.2
		c5.5-17.2,9.8-34.7,13-52.5c29.7-17.1,53.9-34.2,56-35.7c5.7-4.1-0.5-12.9-6.3-8.8c-12.3,8.7-33.6,22.8-56.8,36
		c-0.4,0.2-0.8,0.4-1.1,0.6c-33.8,19.2-71.2,36.4-89.9,32.3c-4.1-0.9-6.9-2.7-8.6-5.7c-14.4-24.8,10-52.2,40.9-87
		c33.4-37.6,71-80.1,73.2-134.6h0.2c0-0.4,0-5,0-5.2c0.8-105.9-83.4-182.5-185.4-174.3C350.1,133.4,500.6,222.2,496.8,367.2z"/>
	<path id="Color_body_1_" class="penguin_sunglass_with_crown-st0" d="M105.1,498.4v46c-3,2.6-6.3,5.2-9,8c-3.1,3.1-6.1,6.3-8.8,9.8
		C84.6,534.8,96.2,511.7,105.1,498.4z"/>
	<path id="Color_body" class="penguin_sunglass_with_crown-st0" d="M153.2,388.2l70.7-19.6c2.3,12.4,1.4,25.2-2.8,37.1L153.2,388.2z"/>
</g>
<g id="Shape">
	<polygon class="penguin_sunglass_with_crown-st1" points="368.6,639 363.1,626.9 355,625.3 342.5,636.3 328,646.6 313.7,665.6 302.6,685.4 295.3,712.9 
		297.2,736.9 308,755.4 318.6,762.3 340.1,765 367.6,755.6 393.6,725.6 409.5,695.1 415.1,670.1 409,658.6 396.3,660.2 396.1,640.7 
		386.2,633.7 373.6,636.3 	"/>
	<polygon class="penguin_sunglass_with_crown-st1" points="52,628.7 40.4,619.7 31.6,618.4 24.4,625.1 24.4,636.3 21.1,643.2 8.7,645.2 5.4,650.9 5.4,663.5 
		25.8,708.4 43.9,730 65.5,748 87.2,749.4 107.2,743.9 121.9,725.6 125.6,695.1 118,670.1 101.5,642.4 87.3,625.1 73.9,613.4 
		61.1,609.8 52.5,619.2 	"/>
	<path class="penguin_sunglass_with_crown-st2" d="M293.3,742.3c-69.4,2.8-133.6-6.9-151.2-13.5c-4.7-1.6-9.4-3.6-13.8-6c11.2-38.3-17.4-88.6-52.2-114.4
		c9-38.2,41.7-69.1,80.5-75.7c2.9-0.5,4.9-3.3,4.4-6.3l0,0c-2.2-12.3-38.6,6.4-45.1,10.4V398.5c17,15.4,45.7,19.3,66.4,8.4
		l45.3,11.7c9.4-19.8,10.9-42.5,4.1-63.4l-15.8,4.4c6.9-47.9-47.1-84.5-89-61c13.3-36.9,37.8-68.6,70.1-90.8
		c103.6-22.8,200.4,49.9,199,160.6c-0.2,52.6-37.7,94.8-70.7,132c-32.4,36.5-60.5,68.1-42.1,99.6c19.4,28.3,72-1.4,103.7-17.3
		c-3.3,17-7.8,33.7-13.5,50.1c-0.1,0.1-0.2,0.1-0.3,0.2c-15.4-38.5-56.1,15.9-67.3,34.9C289.8,693.3,285.8,721.7,293.3,742.3z"/>
	<path d="M452.1,224.2c-65.9-70-182.3-79.8-260.8-25.6c-26.3,18-47.9,42.2-63,70.3c-6.9,12.9-12.3,26.6-16.2,40.8
		c-19.8,18.8-23.2,54.4-7,76.7v94.2c-7.3,8.1-37.9,45.9-26.8,94.4c-5.5,9.2-9.7,19.1-12.3,29.5c-9-2-17.2,5.4-18.6,13
		c-16.8-12-32.6,0.6-29.1,19.5c-5-0.9-10.1,0.9-13.5,4.6c-15.9,17.2,13.1,64.5,16.5,69.8C46,751,98.7,775,124.4,733
		c4.6,2.4,9.3,4.4,14.2,6.1c14.7,7.5,108,18,160.3,13.9c23.5,33,69.6,13.9,91.1-13.3c56.3-14.4,110.6-52.2,109.4-116
		c0-1.5,8.2-256,8.2-256C509.4,314.2,489.4,262.4,452.1,224.2z M153.2,388.2l70.7-19.6c2.3,12.4,1.4,25.2-2.8,37.1L153.2,388.2z
		 M105.1,498.4v46c-3,2.6-6.3,5.2-9,8c-3.1,3.1-6.1,6.3-8.8,9.8C84.6,534.8,96.2,511.7,105.1,498.4z M104.4,739.4
		c-20.7,13.1-53.9-2.1-74-33.8c-16.3-24.4-30.8-68.4-7.7-55.3c4.1,3.4,10.4-1.3,8.4-6.2c-6.9-20.5,2.2-27.6,16.9-11.8
		c3.3,4.1,10.4,0.8,9.5-4.3c-1.4-30,27.5-2.7,48.1,30.2C125.6,689.8,125.1,726.3,104.4,739.4L104.4,739.4z M293.3,742.3
		c-69.4,2.8-133.6-6.9-151.2-13.5c-4.7-1.6-9.4-3.6-13.8-6c11.2-38.3-17.4-88.6-52.2-114.4c9-38.2,41.7-69.1,80.5-75.7
		c2.9-0.5,4.9-3.3,4.4-6.3l0,0c-2.2-12.3-38.6,6.4-45.1,10.4V398.5c-1.5-3.1,7.4-6,66.4,8.4l45.3,11.7c9.4-19.8,10.9-42.5,4.1-63.4
		l-15.8,4.4c-24.5,7.8-50.9,2.5-68.6-14.2c-18.9-17.9-20.3-41.5-20.4-46.8c13.3-36.9,37.8-68.6,70.1-90.8
		c103.6-22.8,200.4,49.9,199,160.6c-0.2,52.6-37.7,94.8-70.7,132c-32.4,36.5-60.5,68.1-42.1,99.6c19.4,28.3,72-1.4,103.7-17.3
		c-3.3,17-7.8,33.7-13.5,50.1c-0.1,0.1-0.2,0.1-0.3,0.2c-15.4-38.5-56.1,15.9-67.3,34.9C289.8,693.3,285.8,721.7,293.3,742.3
		L293.3,742.3z M390.1,721.1c-45.6,71-122.7,36.1-75.1-47.5c19.3-30.9,49.4-61,48.1-30.2c-0.9,5.2,6.1,8.4,9.5,4.3
		c2.2-2.5,11.4-11.2,16.4-8c4.7,3,2.3,14.9,0.5,19.8c-2,4.9,4.3,9.5,8.4,6.2C420.8,652.4,406.4,696.8,390.1,721.1L390.1,721.1z
		 M496.8,367.2c-8.2,256-8.2,256.1-8.2,256.2c0,12.2-2.1,24.4-6.4,35.9c-13.5,34.6-47.8,54.8-81.7,65.8c6.2-10.2,30.2-52,15.4-68
		c-3.4-3.8-8.5-5.5-13.5-4.6c2.1-10.2-3-24.6-15.9-24.2c5.5-17.2,9.8-34.7,13-52.5c29.7-17.1,53.9-34.2,56-35.7
		c5.7-4.1-0.5-12.9-6.3-8.8c-12.3,8.7-33.6,22.8-56.8,36c-0.4,0.2-0.8,0.4-1.1,0.6c-33.8,19.2-71.2,36.4-89.9,32.3
		c-4.1-0.9-6.9-2.7-8.6-5.7c-14.4-24.8,10-52.2,40.9-87c33.4-37.6,71-80.1,73.2-134.6h0.2c0-0.4,0-5,0-5.2
		c0.8-105.9-83.4-182.5-185.4-174.3C350.1,133.4,500.6,222.2,496.8,367.2z"/>
	<path d="M369.8,327.4c-1.5,0-2.7-1.2-2.7-2.7c0-1.4,1-2.5,2.4-2.7l105.3-11.3c1.5-0.2,2.8,0.9,3,2.3c0,0,0,0,0,0.1
		c0.2,1.5-0.9,2.8-2.4,3l-105.3,11.3C370,327.4,369.9,327.4,369.8,327.4z"/>
	<path class="penguin_sunglass_with_crown-st3" d="M248.9,337.7c-6.1-9.1-12.2-13.7-18-13.7s-11.8,4.6-18,13.7l-3.5-2.3c7-10.3,14.2-15.6,21.5-15.6
		s14.5,5.3,21.4,15.6L248.9,337.7z"/>
	<path class="penguin_sunglass_with_crown-st3" d="M248.7,339l-0.5-0.7c-5.9-8.9-11.7-13.3-17.2-13.3l0,0c-5.5,0-11.3,4.5-17.2,13.3l-0.5,0.7l-5-3.3l0.5-0.8
		c7.1-10.6,14.6-16,22.2-16l0,0c7.6,0,15.1,5.4,22.2,16l0.5,0.8L248.7,339z M230.9,323.1L230.9,323.1c6,0,12.1,4.5,18.2,13.4l2-1.3
		c-6.6-9.6-13.4-14.5-20.2-14.5l0,0c-6.8,0-13.6,4.9-20.2,14.4l2,1.3C218.9,327.6,225,323.1,230.9,323.1z"/>
	<path class="penguin_sunglass_with_crown-st3" d="M347.9,302.8l-78.5-3.2h-77.5l-77.9,3.1c13.7-5.2,35-8.1,53.1-8.2c0.5,0,1,0,1.4,0l124.8,0.1h1
		C312.5,294.6,334.1,297.5,347.9,302.8z"/>
	<path class="penguin_sunglass_with_crown-st3" d="M353.4,303.9l-84-3.5h-77.5l-83.4,3.3l5.1-2c12.9-4.9,33.9-8.2,53.4-8.2l127.2,0.1c19.7,0,40.9,3.3,54,8.3
		L353.4,303.9z M269.4,298.6l72.2,3c-12.8-3.8-30.6-6.1-47.3-6.2l-127.2-0.1c-16.6,0.1-34.1,2.4-46.8,6.1l71.6-2.9L269.4,298.6z"/>
	<path class="penguin_sunglass_with_crown-st3" d="M365.2,313.2c0,0,13.5,2.2,14.2,5.5c0.6,3.3,1.9,9.9,1.9,9.9l-12.6,5.8L365.2,313.2z"/>
	<path d="M276.7,389.4c32.6,25.9,74,28.5,90.8-9s6.5-63.3-9-76.3c-15.5-12.9-72.1-17.5-91.1-10.4C220.8,311.1,244,363.5,276.7,389.4
		z"/>
	<path d="M110.5,388.5l100.6-27.9c10.9-25.9,13.4-55.5-15.4-67.4c-18.7-7.8-74.8-1.6-91.1,10.3C87,316.3,75.2,342,95.4,379.8
		c15.1,28.3,41.2,34.1,68.5,22.5L110.5,388.5z"/>
	<path class="penguin_sunglass_with_crown-st4" d="M104.8,328.7c-4.4,17.4-0.6,35.9,10.4,50.2c-13.4-13.6-19.8-32.6-17.5-51.5v-0.1c0.2-2,2.1-3.4,4-3.1
		s3.4,2.1,3.1,4l0,0C104.9,328.4,104.8,328.5,104.8,328.7z"/>
	<path class="penguin_sunglass_with_crown-st4" d="M270.4,328.7c-4.4,17.4-0.6,35.9,10.4,50.2c-13.4-13.6-19.8-32.6-17.5-51.5v-0.1c0.3-2,2.1-3.4,4.1-3.1
		s3.4,2.1,3.1,4C270.5,328.4,270.5,328.5,270.4,328.7z"/>
	<g id="Layer_2_1_">
		<path class="penguin_sunglass_with_crown-st5" d="M494,110.6c-8.4,17.3-11.4,37.1-12.5,44.6c-0.2,1.3-0.3,2.3-0.4,2.7c-0.1,0.2-0.1,0.5-0.1,0.7l-2.6,26.5
			l-151-14.9l-2.5-0.2l-151-14.9l2.6-26.5c0.1-0.2,0.1-0.5,0.1-0.7c0-0.5,0-1.4,0.1-2.8c0.4-7.6,1.3-27.6-3.6-46.2
			c-4.4-16.8-19.5-52.5-26.6-68.9c1.6,1.2,3.6,2.7,6,4.6c4.2,3.4,9.3,5.2,14.2,6.9c9.8,3.4,19,6.7,24.6,21.4
			c5.2,13.9,0.9,20.5-3.3,26.9c-2.6,4-5.3,8.1-5.4,13.5c0,1.3-0.1,2.7-0.1,4.2c-0.1,2.6-0.2,5.5-0.2,8.4c0,1.4,0.9,2.6,2.2,2.9
			c1.3,0.4,2.7-0.2,3.4-1.4l0.3-0.6c0.1-0.2,0.2-0.3,0.3-0.5c1.8-2.4,4.1-4.3,6.7-5.7c8.1-4.6,17.8-5.3,26.4-1.7
			c4.1,1.6,7.6,4.4,10.1,8c2.5,3.8,3.3,8.5,2.2,12.9c-1,3.8-4.2,6.6-8.1,7.2c-4.3,0.5-7.2-0.2-8.9-1.9c-2.2-2.3-1.7-6-1.7-6
			c0.2-1.2-0.4-2.3-1.4-3c-1-0.6-2.3-0.7-3.3,0c-4.4,2.7-11.3,10.4-6.4,20.8c2,4.2,6.8,7,14.4,8.4l48.4,4.8
			c11.2,1.1,18.4-0.5,22.1-4.8c2.6-2.9,4-6.7,3.7-10.6c-0.6-6.6-6.1-11.1-6.4-11.4c-0.9-0.7-2.1-0.9-3.2-0.4c-1,0.5-1.7,1.5-1.8,2.6
			c-0.2,2-1.2,3.8-2.8,5.1c-2.4,1.7-6.3,1.8-11.5,0.3c-4.2-1.1-7.3-4.6-7.9-8.8c-0.4-4.1,1.5-8.7,5.1-11.9c3.8-3.2,8.4-5.2,13.2-5.8
			c10.6-1.7,21.4,1,30,7.4c2.6,1.9,4.8,4.3,6.4,7.1c1.2,2.4,1.9,5.1,2.1,7.8c0.1,1.4,1.3,2.6,2.7,2.7c1.5,0.2,2.9-0.7,3.2-2.1
			c2.2-7,0-14.5-5.9-20.6c-2.5-2.6-5.3-5-8.1-7.4c-8-6.9-14.8-12.8-14-21.3c1.7-17.6,14-21.6,24.9-25.2c4.1-1.3,8.1-2.6,11-4.6
			c3.8-2.7,7.2-6,10-9.8c2,4.3,4.6,8.2,7.9,11.5c2.5,2.5,6.1,4.5,9.9,6.6c10,5.6,21.3,11.9,19.5,29.6c-0.9,8.5-8.8,13-17.9,18.1
			c-3.1,1.8-6.3,3.6-9.3,5.6c-6.9,4.8-10.5,11.7-9.7,19c0.1,1.5,1.3,2.7,2.8,2.7c1.4,0.1,2.8-0.8,3.2-2.1c0.7-2.6,1.9-5.1,3.5-7.2
			c2.1-2.4,4.8-4.4,7.7-5.7c9.7-4.6,20.8-5.1,30.9-1.4c4.6,1.6,8.8,4.5,11.8,8.3c2.9,3.9,3.9,8.7,2.7,12.7c-1.5,4-5.2,6.8-9.5,7.1
			c-5.3,0.4-9.2-0.4-11.2-2.5c-1.3-1.5-1.9-3.5-1.7-5.5c0.2-1.1-0.3-2.3-1.2-2.9c-0.9-0.7-2.2-0.8-3.2-0.2c-0.3,0.1-6.6,3.5-8.5,9.9
			c-1.1,3.8-0.5,7.8,1.5,11.1c2.7,4.9,9.5,7.9,20.7,9l48.4,4.8c7.7,0.2,13-1.6,15.7-5.4c6.8-9.2,1.6-18.2-2.2-21.6
			c-0.9-0.8-2.1-1-3.2-0.6s-1.8,1.5-1.9,2.6c0,0-0.2,3.8-2.8,5.6c-2,1.4-5.1,1.4-9.1,0.1c-3.7-1.3-6.3-4.7-6.6-8.6
			c-0.2-4.5,1.5-9,4.7-12.2c3.1-3.1,7.1-5.1,11.4-5.9c9.1-1.8,18.6,0.8,25.6,6.9c2.3,1.9,4.2,4.2,5.5,6.9c0.1,0.2,0.1,0.4,0.2,0.5
			l0.2,0.6c0.5,1.3,1.7,2.1,3.1,2s2.5-1.1,2.8-2.4c0.6-2.9,1.1-5.7,1.5-8.3c0.2-1.5,0.5-2.8,0.7-4.1c1-5.3-0.9-9.9-2.7-14.3
			c-2.9-7.1-5.8-14.4,2-27c8.3-13.4,18-14.8,28.3-16.2c5.2-0.7,10.5-1.5,15.3-4c2.7-1.4,4.9-2.5,6.8-3.3
			C523.4,62.9,501.6,95,494,110.6z"/>
		<polygon class="penguin_sunglass_with_crown-st5" points="326.9,175.3 324.4,175.1 173.4,160.2 171.9,175.2 168.2,213 166.7,228 317.7,242.9 320.2,243.1 
			471.2,258 472.7,243 476.4,205.2 477.9,190.2 		"/>
		<polygon class="penguin_sunglass_with_crown-st6" points="356.7,249.5 382.2,178.6 479,188.6 475.8,258.2 		"/>
		<polygon class="penguin_sunglass_with_crown-st7" points="365,250.4 390.5,179.5 481.5,194.6 475.8,258.2 		"/>
		<polygon class="penguin_sunglass_with_crown-st8" points="474.1,251.8 165.8,217.8 474.8,244.6 		"/>
		<polygon class="penguin_sunglass_with_crown-st8" points="477.4,195.6 167.6,159.1 478.4,184.8 		"/>
		<path class="penguin_sunglass_with_crown-st8" d="M471.8,70.7c5.7-9,12.1-13.1,18.8-15.1c-5.2,3.3-9.5,7.7-12.6,13c-9.4,15.2-5.6,24.8-2.5,32.4
			c1.6,3.9,3,7.4,2.3,11c-0.2,1.3-0.5,2.7-0.7,4.2c0,0.1,0,0.1,0,0.2c-1-1.1-2.1-2.2-3.2-3.1c-0.4-0.4-0.9-0.7-1.4-1.1
			c0-0.1,0-0.2,0-0.2c1-5.4-0.9-9.9-2.7-14.3C466.7,90.3,463.8,83.4,471.8,70.7z"/>
		<path class="penguin_sunglass_with_crown-st8" d="M428.5,112.8c-4.4,4.5-6.7,10.6-6.3,16.8c0.2,2.7,1.1,5.3,2.6,7.5c-0.7-0.2-1.5-0.3-2.2-0.6
			c-3.8-1.3-6.4-4.7-6.7-8.7c-0.2-4.5,1.5-9,4.7-12.2l0,0c3.1-3,7-5,11.3-5.8C430.6,110.8,429.5,111.8,428.5,112.8z"/>
		<path class="penguin_sunglass_with_crown-st8" d="M244.3,98.4L244.3,98.4c2.5,3.8,3.4,8.4,2.3,12.8c-1.1,3.8-4.4,6.7-8.3,7.2c-0.7,0.1-1.5,0.1-2.3,0.1
			c1.9-1.9,3.3-4.3,4-6.9c1.6-6.1,0.5-12.5-2.9-17.8c-0.8-1.2-1.7-2.3-2.7-3.4C238.3,92.2,241.8,94.9,244.3,98.4z"/>
		<path class="penguin_sunglass_with_crown-st8" d="M202.7,44.2c5.4,13.9,1.2,20.2-3.3,26.9c-2.7,4-5.4,8.1-5.5,13.5v0.2c-0.5,0.3-1.1,0.5-1.6,0.8
			c-1.3,0.7-2.6,1.5-3.7,2.4v-0.2c0-1.5,0.1-2.9,0.1-4.3c0.1-3.7,2.1-6.8,4.4-10.3c4.5-6.9,10.2-15.5,3.9-32.3
			c-2-5.8-5.4-11-9.8-15.2C193.4,29.1,198.9,34.3,202.7,44.2z"/>
		<path class="penguin_sunglass_with_crown-st8" d="M216.5,128.8c-3.5-1-5.8-2.4-6.7-4.2c-1.6-2.9-1.5-6.4,0.2-9.2c0.6,1.5,1.4,2.9,2.5,4.1
			c0.6,0.6,1.2,1.1,1.9,1.5c0,2.6,0.5,5.1,1.7,7.4C216.3,128.5,216.4,128.7,216.5,128.8z"/>
		<path class="penguin_sunglass_with_crown-st8" d="M441.8,151c0.1-0.1,0.3-0.3,0.4-0.4c1.6-2,2.6-4.4,3.1-6.9c0.8-0.3,1.5-0.7,2.2-1.1c1.3-0.9,2.4-2.1,3.3-3.5
			c1.1,3.1,0.5,6.5-1.6,9C447.9,149.8,445.4,150.7,441.8,151z"/>
		<path class="penguin_sunglass_with_crown-st9" d="M146.5,10.1c7.5,5.7,18.6,27,25.2,44c14.8,38.1,11.7,70.4,9.8,91l-9.6,85.5l-7.4-3.5l9.4-122.9
			c0.3-7.7-0.8-15.4-3.3-22.7l-11.9-35.2L146.5,10.1z"/>
		<polygon class="penguin_sunglass_with_crown-st6" points="382,179.8 393.2,148.5 482.6,161.6 479,188.6 		"/>
		<path class="penguin_sunglass_with_crown-st10" d="M262.1,213.4c-7.9-0.8-13.5-9.2-12.6-18.8s8.1-16.8,16-16s13.5,9.2,12.6,18.8S270,214.2,262.1,213.4z"/>
		<path d="M265.3,181.2c6.5,0.6,11.1,7.8,10.3,16.1s-6.7,14.4-13.3,13.7s-11.1-7.8-10.3-16.1S258.8,180.5,265.3,181.2 M265.8,176.1
			c-9.3-0.9-17.7,7.3-18.8,18.2s5.6,20.6,14.9,21.6c9.3,1,17.7-7.3,18.8-18.2S275.1,177.1,265.8,176.1z"/>
		<path class="penguin_sunglass_with_crown-st11" d="M271,183.8c1.4,2.9,1.9,6.2,1.6,9.4c-0.8,8.2-6.7,14.4-13.2,13.7c-2.1-0.2-4.1-1.1-5.7-2.6
			c1.8,3.7,5,6.3,8.7,6.7c6.5,0.6,12.4-5.5,13.2-13.7C276.2,191.7,274.3,186.7,271,183.8z"/>
		<path class="penguin_sunglass_with_crown-st10" d="M374.5,225.1c-7.9-0.8-13.5-9.2-12.6-18.8s8.1-16.8,16-16s13.5,9.2,12.6,18.8S382.4,225.9,374.5,225.1z"/>
		<path d="M377.7,192.8c6.5,0.6,11.1,7.8,10.3,16.1s-6.7,14.4-13.3,13.7s-11.1-7.8-10.3-16.1S371.2,192.2,377.7,192.8 M378.2,187.8
			c-9.3-0.9-17.7,7.3-18.8,18.2s5.6,20.6,14.9,21.6s17.7-7.3,18.8-18.2S387.5,188.7,378.2,187.8z"/>
		<path class="penguin_sunglass_with_crown-st11" d="M383.4,195.5c1.4,2.9,1.9,6.2,1.6,9.4c-0.8,8.2-6.7,14.4-13.3,13.7c-2.1-0.2-4.1-1.1-5.7-2.6
			c1.8,3.7,5,6.3,8.7,6.7c6.5,0.6,12.4-5.5,13.3-13.7C388.6,203.4,386.7,198.4,383.4,195.5z"/>
		<path class="penguin_sunglass_with_crown-st10" d="M430.2,230.6c-7.9-0.8-13.5-9.2-12.6-18.8s8.1-16.8,16-16s13.5,9.2,12.6,18.8S438.1,231.4,430.2,230.6z"/>
		<path d="M433.4,198.3c6.5,0.6,11.1,7.8,10.3,16.1s-6.7,14.4-13.3,13.7s-11.1-7.8-10.3-16.1S426.9,197.7,433.4,198.3 M433.9,193.3
			c-9.3-0.9-17.7,7.3-18.8,18.2s5.6,20.6,14.9,21.6s17.7-7.3,18.8-18.2S443.2,194.2,433.9,193.3L433.9,193.3z"/>
		<path class="penguin_sunglass_with_crown-st11" d="M439.1,200.9c1.4,2.9,1.9,6.2,1.6,9.4c-0.8,8.2-6.7,14.4-13.3,13.7c-2.1-0.2-4.1-1.1-5.7-2.6
			c1.8,3.7,5,6.3,8.7,6.7c6.5,0.6,12.4-5.5,13.3-13.7C444.2,208.9,442.3,203.9,439.1,200.9z"/>
		<path class="penguin_sunglass_with_crown-st10" d="M206.5,207.9c-7.9-0.8-13.5-9.2-12.6-18.8s8.1-16.8,16-16s13.5,9.2,12.6,18.8S214.4,208.7,206.5,207.9z"/>
		<path d="M209.7,175.7c6.5,0.6,11.1,7.8,10.3,16.1s-6.7,14.4-13.3,13.7s-11.1-7.8-10.3-16.1S203.2,175,209.7,175.7 M210.2,170.7
			c-9.3-0.9-17.7,7.3-18.8,18.2s5.6,20.6,14.9,21.6s17.7-7.3,18.8-18.2S219.4,171.6,210.2,170.7L210.2,170.7z"/>
		<path class="penguin_sunglass_with_crown-st11" d="M215.4,178.3c1.4,2.9,1.9,6.2,1.6,9.4c-0.8,8.2-6.7,14.4-13.2,13.7c-2.1-0.2-4.1-1.1-5.7-2.6
			c1.8,3.7,5,6.3,8.7,6.7c6.5,0.6,12.4-5.5,13.3-13.7C220.5,186.2,218.6,181.2,215.4,178.3z"/>
		<path class="penguin_sunglass_with_crown-st10" d="M318.9,219.6c-7.9-0.8-13.5-9.2-12.6-18.8s8.1-16.8,16-16s13.5,9.2,12.6,18.8S326.8,220.4,318.9,219.6z"/>
		<path d="M322.1,187.4c6.5,0.6,11.1,7.8,10.3,16.1s-6.7,14.4-13.2,13.7s-11.1-7.8-10.3-16.1S315.6,186.7,322.1,187.4 M322.6,182.3
			c-9.3-0.9-17.7,7.3-18.8,18.2s5.6,20.6,14.9,21.6s17.7-7.3,18.8-18.2S331.9,183.3,322.6,182.3L322.6,182.3z"/>
		<path class="penguin_sunglass_with_crown-st11" d="M327.8,190c1.4,2.9,1.9,6.2,1.6,9.4c-0.8,8.2-6.7,14.4-13.3,13.7c-2.1-0.2-4.1-1.1-5.7-2.6
			c1.8,3.7,5,6.3,8.7,6.7c6.5,0.6,12.4-5.5,13.2-13.7C332.9,197.9,331,192.9,327.8,190z"/>
		<path class="penguin_sunglass_with_crown-st12" d="M203.9,180.3L203.9,180.3c1.9,0,3.5,1.6,3.5,3.5l0,0l0,0c0,1.9-1.6,3.5-3.5,3.5l0,0l0,0
			c-1.9,0-3.5-1.6-3.5-3.5l0,0l0,0C200.4,181.8,202,180.3,203.9,180.3L203.9,180.3z"/>
		<path class="penguin_sunglass_with_crown-st12" d="M260.4,186.5L260.4,186.5c1.9,0,3.5,1.6,3.5,3.5l0,0l0,0c0,1.9-1.6,3.5-3.5,3.5l0,0l0,0
			c-1.9,0-3.5-1.6-3.5-3.5l0,0l0,0C256.9,188.1,258.5,186.5,260.4,186.5L260.4,186.5z"/>
		<path class="penguin_sunglass_with_crown-st12" d="M315,193.7L315,193.7c1.9,0,3.5,1.6,3.5,3.5l0,0l0,0c0,1.9-1.6,3.5-3.5,3.5l0,0l0,0c-1.9,0-3.5-1.6-3.5-3.5
			l0,0l0,0C311.5,195.2,313,193.7,315,193.7L315,193.7z"/>
		<path class="penguin_sunglass_with_crown-st12" d="M372,198.1L372,198.1c1.9,0,3.5,1.6,3.5,3.5l0,0c0,1.9-1.6,3.5-3.5,3.5l0,0c-1.9,0-3.5-1.6-3.5-3.5l0,0
			C368.5,199.7,370.1,198.1,372,198.1z"/>
		<path class="penguin_sunglass_with_crown-st12" d="M427.8,205.6L427.8,205.6c1.9,0,3.5,1.6,3.5,3.5l0,0c0,1.9-1.6,3.5-3.5,3.5l0,0c-1.9,0-3.5-1.6-3.5-3.5l0,0
			C424.4,207.2,425.9,205.6,427.8,205.6z"/>
		<path class="penguin_sunglass_with_crown-st9" d="M262.2,108.6c-0.5,1.4-0.4,2.9,0,4.3c0.5,1.4,1.8,2.4,3.3,2.5c1.7,0,3.1-1.5,3.8-3.1s0.9-3.3,1.5-4.9
			c1.1-2.8,3.4-4.9,6.3-5.7c0.5-0.1,0.9-0.3,1.2-0.7c0.4-0.8-0.6-1.6-1.5-1.9C270.8,97.6,263.7,102.9,262.2,108.6z"/>
		<path class="penguin_sunglass_with_crown-st9" d="M301.1,65c-0.9,2.7-0.8,5.6,0.1,8.3c1,2.6,3.5,4.8,6.4,4.8c3.3,0,6-2.8,7.3-5.9s1.7-6.4,2.9-9.5
			c2.2-5.3,6.6-9.4,12.1-11c0.9-0.1,1.8-0.6,2.3-1.3c0.9-1.6-1.2-3.2-2.9-3.6C317.8,43.9,304.1,54,301.1,65z"/>
		<path class="penguin_sunglass_with_crown-st7" d="M400.5,153.4c0,0,20.7,1.2,37.8,3.7h0.1c1.3,0.2,10.6,1.3,15.6-5.4c6.8-9.2,1.6-18.2-2.2-21.6
			c-0.9-0.8-2.1-1-3.2-0.6s-1.8,1.5-1.9,2.6c0,0-0.2,3.8-2.8,5.6c-2,1.4-5.1,1.4-9.1,0.1c-3.7-1.3-6.3-4.7-6.6-8.6
			c-0.2-4.5,1.5-9,4.7-12.2c3.1-3.1,7.1-5.1,11.4-5.9c9.1-1.8,18.6,0.8,25.6,6.9c2.3,1.9,4.2,4.2,5.5,6.9c0.1,0.2,0.1,0.4,0.2,0.5
			l0.2,0.6c0.5,1.3,1.7,2.1,3.1,2c1.4-0.1,2.5-1.1,2.8-2.4c0.6-2.9,1.1-5.7,1.5-8.3c0.2-1.5,0.5-2.8,0.7-4.1c1-5.3-0.9-9.9-2.7-14.3
			c-2.9-7.1-5.8-14.4,2-27c8.3-13.4,18-14.8,28.3-16.2c5.2-0.7,10.5-1.5,15.3-4c2.7-1.4,4.9-2.5,6.8-3.3
			c-10.1,14.5-32,46.6-39.6,62.2c-8.4,17.3-11.4,37.1-12.5,44.6c-0.2,1.3-0.4,2.3-0.4,2.7c-0.1,0.2-0.1,0.5-0.1,0.7l-2.6,26.5
			l-86.9-8.5L400.5,153.4z"/>
		<path d="M544,41.3c-0.4-1-1.4-1.7-2.4-1.8h-0.1c-1.1-0.1-14.9,3.6-18,4.6c-2.6,0.9-5.3,1.6-8,2.1c-3.5,0.6-7,1-10.6,1.2
			c-12.6,1-27,2.1-38.4,20.1c-9.6,15.2-5.7,24.8-2.5,32.5c1.3,3,2.3,5.8,2.5,8.5c-5.9-3-12.5-4.3-19.1-3.9
			c-5.4-1.5-11.1-1.7-16.6-0.7c-5.6,1-10.8,3.6-14.8,7.6c-4.5,4.4-6.8,10.6-6.4,16.9c0.5,6.5,4.9,12,11,13.9
			c3.5,1.2,7.3,1.5,10.9,0.7c0.4,0.2,0.9,0.4,1.3,0.5c1.9,0.6,3.8,0.9,5.7,1.1c-0.4,0.8-0.8,1.6-1.4,2.3c-1.6,2.1-5.4,3.1-10.9,2.9
			l-35.9-3.5c-11.7-1.2-15-4.2-16-5.9c-2.3-4.2-1.1-7.5,0.7-9.7c0.5,1.6,1.4,3,2.6,4.3c3.4,3.6,8.8,5.1,16.2,4.5
			c6.8-0.5,12.6-4.9,14.8-11.4c1.8-5.8,0.5-12.6-3.6-18.1c-3.3-4.4-8.3-8-14.6-10.4c-7.9-2.9-16.4-3.6-24.7-2
			c8.5-5,16.5-10.6,17.5-20.8c2.2-21.5-12.1-29.6-22.6-35.4c-3.4-1.9-6.7-3.7-8.6-5.7c-5.6-5.5-8.8-14.3-9.9-17.7c0,0-0.6-2.8-1-2.5
			c-0.3-0.4-1.5,2.3-1.5,2.3c-1.8,3.2-6.6,11.1-13.1,15.4c-2.3,1.5-5.8,2.7-9.6,3.9c-11.4,3.7-27,8.8-29,30.3
			c-1,10.2,5.7,17.3,13.1,23.8c-7.8-3.2-16.3-4.2-24.6-2.8c-6.6,1.1-12.2,3.6-16.3,7.3c-5.1,4.6-7.7,10.9-7,17
			c0.9,6.7,5.7,12.3,12.3,14c7.1,2,12.8,1.6,16.8-1.3c1.4-1,2.5-2.2,3.4-3.7c1.3,2.5,1.9,5.9-1.2,9.6c-1.3,1.5-5.1,3.8-16.8,2.7
			l-35.9-3.5c-5.5-1-9-2.7-10.1-5c-0.4-0.8-0.7-1.7-0.9-2.5c1.9,0.3,3.9,0.3,5.8,0.1c0.5-0.1,0.9-0.2,1.4-0.3
			c3.4,1.5,7.2,2,10.8,1.5c6.4-0.8,11.8-5.3,13.5-11.5c1.6-6.1,0.5-12.6-3-17.8c-3.2-4.7-7.8-8.3-13.1-10.3
			c-5.2-2.1-10.8-3-16.4-2.6c-6.4-1.7-13.1-1.7-19.5,0.1c0.7-2.7,2.3-5.1,4.1-7.9c4.6-6.9,10.4-15.5,3.9-32.3
			c-7.7-19.9-21.5-23.8-33.7-27.2c-3.4-0.9-6.8-2-10.1-3.3c-2.6-1.1-5-2.3-7.5-3.6c-2.8-1.6-15.7-7.9-16.7-8h-0.1
			c-1.1-0.1-2.1,0.4-2.8,1.3c-0.6,0.9-0.7,2-0.3,3c0.2,0.5,24.4,55,29.9,76.3c4.6,17.7,3.7,37.1,3.4,44.4c-0.1,1.2-0.1,2.1-0.1,2.7
			v0.1l-10,101.9c-0.2,1.7,1.1,3.1,2.7,3.3l154,15.2l2.5,0.2l154,15.2c1.7,0.2,3.2-1,3.3-2.7l0,0l10-101.9v-0.1
			c0.1-0.6,0.2-1.5,0.4-2.7c1.1-7.2,4-26.4,12-42.9c9.6-19.8,43.9-68.5,44.2-69C544.4,43.4,544.5,42.2,544,41.3z M471.8,70.7
			c5.7-9,12.1-13.1,18.8-15.1c-5.2,3.3-9.5,7.7-12.6,13c-9.4,15.2-5.6,24.8-2.5,32.4c1.6,3.9,3,7.4,2.3,11c-0.2,1.3-0.5,2.7-0.7,4.2
			c0,0.1,0,0.1,0,0.2c-1-1.1-2.1-2.2-3.2-3.1c-0.4-0.4-0.9-0.7-1.4-1.1c0-0.1,0-0.2,0-0.2c1-5.4-0.9-9.9-2.7-14.3
			C466.7,90.3,463.8,83.4,471.8,70.7L471.8,70.7z M428.5,112.8c-4.4,4.5-6.7,10.6-6.3,16.8c0.2,2.7,1.1,5.3,2.6,7.5
			c-0.7-0.2-1.5-0.3-2.2-0.6c-3.8-1.3-6.4-4.7-6.7-8.7c-0.2-4.5,1.5-9,4.7-12.2l0,0c3.1-3,7-5,11.3-5.8
			C430.6,110.8,429.5,111.8,428.5,112.8z M244.3,98.4L244.3,98.4c2.5,3.8,3.4,8.4,2.3,12.8c-1.1,3.8-4.4,6.7-8.3,7.2
			c-0.7,0.1-1.5,0.1-2.3,0.1c1.9-1.9,3.3-4.3,4-6.9c1.6-6.1,0.5-12.5-2.9-17.8c-0.8-1.2-1.7-2.3-2.7-3.4
			C238.3,92.2,241.8,94.9,244.3,98.4z M202.7,44.2c5.4,13.9,1.2,20.2-3.3,26.9c-2.7,4-5.4,8.1-5.5,13.5v0.2
			c-0.5,0.3-1.1,0.5-1.6,0.8c-1.3,0.7-2.6,1.5-3.7,2.4v-0.2c0-1.5,0.1-2.9,0.1-4.3c0.1-3.7,2.1-6.8,4.4-10.3
			c4.5-6.9,10.2-15.5,3.9-32.3c-2-5.8-5.4-11-9.8-15.2C193.4,29.1,198.9,34.3,202.7,44.2L202.7,44.2z M471.3,257.2l-151-14.9
			l-2.5-0.2l-151-14.9l0.9-9.2l151,14.9l2.5,0.2l151,14.9L471.3,257.2z M472.7,243l-151-14.9l-2.5-0.2l-151-14.9l5.2-52.8l151,14.9
			l2.5,0.2l151,14.9L472.7,243z M494,110.6c-8.4,17.3-11.4,37.1-12.5,44.6c-0.2,1.3-0.3,2.3-0.4,2.7c-0.1,0.2-0.1,0.5-0.1,0.7
			l-2.6,26.5l-151-14.9l-2.5-0.2l-151-14.9l2.6-26.5c0.1-0.2,0.1-0.5,0.1-0.7c0-0.5,0-1.4,0.1-2.8c0.4-7.6,1.3-27.6-3.6-46.2
			c-4.4-16.8-19.5-52.5-26.6-68.9c1.6,1.2,3.6,2.7,6,4.6c4.2,3.4,9.3,5.2,14.2,6.9c9.8,3.4,19,6.7,24.6,21.4
			c5.2,13.9,0.9,20.5-3.3,26.9c-2.6,4-5.3,8.1-5.4,13.5c0,1.3-0.1,2.7-0.1,4.2c-0.1,2.6-0.2,5.5-0.2,8.4c0,1.4,0.9,2.6,2.2,2.9
			c1.3,0.4,2.7-0.2,3.4-1.4l0.3-0.6c0.1-0.2,0.2-0.3,0.3-0.5c1.8-2.4,4.1-4.3,6.7-5.7c8.1-4.6,17.8-5.3,26.4-1.7
			c4.1,1.6,7.6,4.4,10.1,8c2.5,3.8,3.3,8.5,2.2,12.9c-1,3.8-4.2,6.6-8.1,7.2c-4.3,0.5-7.2-0.2-8.9-1.9c-2.2-2.3-1.7-6-1.7-6
			c0.2-1.2-0.4-2.3-1.4-3c-1-0.6-2.3-0.7-3.3,0c-4.4,2.7-11.3,10.4-6.4,20.8c2,4.2,6.8,7,14.4,8.4l48.4,4.8
			c11.2,1.1,18.4-0.5,22.1-4.8c2.6-2.9,4-6.7,3.7-10.6c-0.6-6.6-6.1-11.1-6.4-11.4c-0.9-0.7-2.1-0.9-3.2-0.4c-1,0.5-1.7,1.5-1.8,2.6
			c-0.2,2-1.2,3.8-2.8,5.1c-2.4,1.7-6.3,1.8-11.5,0.3c-4.2-1.1-7.3-4.6-7.9-8.8c-0.4-4.1,1.5-8.7,5.1-11.9c3.8-3.2,8.4-5.2,13.2-5.8
			c10.6-1.7,21.4,1,30,7.4c2.6,1.9,4.8,4.3,6.4,7.1c1.2,2.4,1.9,5.1,2.1,7.8c0.1,1.4,1.3,2.6,2.7,2.7c1.5,0.2,2.9-0.7,3.2-2.1
			c2.2-7,0-14.5-5.9-20.6c-2.5-2.6-5.3-5-8.1-7.4c-8-6.9-14.8-12.8-14-21.3c1.7-17.6,14-21.6,24.9-25.2c4.1-1.3,8.1-2.6,11-4.6
			c3.8-2.7,7.2-6,10-9.8c2,4.3,4.6,8.2,7.9,11.5c2.5,2.5,6.1,4.5,9.9,6.6c10,5.6,21.3,11.9,19.5,29.6c-0.9,8.5-8.8,13-17.9,18.1
			c-3.1,1.8-6.3,3.6-9.3,5.6c-6.9,4.8-10.5,11.7-9.7,19c0.1,1.5,1.3,2.7,2.8,2.7c1.4,0.1,2.8-0.8,3.2-2.1c0.7-2.6,1.9-5.1,3.5-7.2
			c2.1-2.4,4.8-4.4,7.7-5.7c9.7-4.6,20.8-5.1,30.9-1.4c4.6,1.6,8.8,4.5,11.8,8.3c2.9,3.9,3.9,8.7,2.7,12.7c-1.5,4-5.2,6.8-9.5,7.1
			c-5.3,0.4-9.2-0.4-11.2-2.5c-1.3-1.5-1.9-3.5-1.7-5.5c0.2-1.1-0.3-2.3-1.2-2.9c-0.9-0.7-2.2-0.8-3.2-0.2c-0.3,0.1-6.6,3.5-8.5,9.9
			c-1.1,3.8-0.5,7.8,1.5,11.1c2.7,4.9,9.5,7.9,20.7,9l48.4,4.8c7.7,0.2,13-1.6,15.7-5.4c6.8-9.2,1.6-18.2-2.2-21.6
			c-0.9-0.8-2.1-1-3.2-0.6s-1.8,1.5-1.9,2.6c0,0-0.2,3.8-2.8,5.6c-2,1.4-5.1,1.4-9.1,0.1c-3.7-1.3-6.3-4.7-6.6-8.6
			c-0.2-4.5,1.5-9,4.7-12.2c3.1-3.1,7.1-5.1,11.4-5.9c9.1-1.8,18.6,0.8,25.6,6.9c2.3,1.9,4.2,4.2,5.5,6.9c0.1,0.2,0.1,0.4,0.2,0.5
			l0.2,0.6c0.5,1.3,1.7,2.1,3.1,2s2.5-1.1,2.8-2.4c0.6-2.9,1.1-5.7,1.5-8.3c0.2-1.5,0.5-2.8,0.7-4.1c1-5.3-0.9-9.9-2.7-14.3
			c-2.9-7.1-5.8-14.4,2-27c8.3-13.4,18-14.8,28.3-16.2c5.2-0.7,10.5-1.5,15.3-4c2.7-1.4,4.9-2.5,6.8-3.3
			C523.4,62.9,501.6,95,494,110.6L494,110.6z M216.5,128.8c-3.5-1-5.8-2.4-6.7-4.2c-1.6-2.9-1.5-6.4,0.2-9.2
			c0.6,1.5,1.4,2.9,2.5,4.1c0.6,0.6,1.2,1.1,1.9,1.5c0,2.6,0.5,5.1,1.7,7.4C216.3,128.5,216.4,128.7,216.5,128.8L216.5,128.8z
			 M441.8,151c0.1-0.1,0.3-0.3,0.4-0.4c1.6-2,2.6-4.4,3.1-6.9c0.8-0.3,1.5-0.7,2.2-1.1c1.3-0.9,2.4-2.1,3.3-3.5
			c1.1,3.1,0.5,6.5-1.6,9C447.9,149.8,445.4,150.7,441.8,151L441.8,151z"/>
	</g>
</g>
</svg>
