<?xml version="1.0" encoding="utf-8"?>
<!-- Generator: Adobe Illustrator 24.0.0, SVG Export Plug-In . SVG Version: 6.00 Build 0)  -->
<svg version="1.1" id="CrownScarf" xmlns="http://www.w3.org/2000/svg" xmlns:xlink="http://www.w3.org/1999/xlink" x="0px" y="0px"
	 viewBox="0 0 543.6 770.2" style="enable-background:new 0 0 543.6 770.2;" xml:space="preserve">
<style type="text/css">
	.penguin_scarf_with_crown-st0{fill:#A51C1C;}
	.penguin_scarf_with_crown-st1{fill:#E5C333;}
	.penguin_scarf_with_crown-st2{fill:#FFFFFF;}
	.penguin_scarf_with_crown-st3{fill:#F4D264;}
	.penguin_scarf_with_crown-st4{fill:#BFA04B;}
	.penguin_scarf_with_crown-st5{fill:#C57F00;}
	.penguin_scarf_with_crown-st6{opacity:0.4;fill:#8D5D15;enable-background:new    ;}
	.penguin_scarf_with_crown-st7{fill:#A56921;}
	.penguin_scarf_with_crown-st8{fill:#8D5D15;}
	.penguin_scarf_with_crown-st9{fill:#FFB700;}
	.penguin_scarf_with_crown-st10{fill:#6FBE44;}
	.penguin_scarf_with_crown-st11{fill:#65AB45;}
	.penguin_scarf_with_crown-st12{fill:#D4F4D0;}
</style>
<g id="Color_body">
	<g id="Color_body-2">
		<path class="penguin_scarf_with_crown-st0" d="M496.6,367.2c-8.2,255.9-8.2,256-8.2,256.1c0,12.2-2.1,24.4-6.4,35.8c-13.5,34.5-47.8,54.7-81.7,65.7
			c6.2-10.2,30.1-51.9,15.3-67.9c-3.4-3.8-8.5-5.5-13.5-4.6c2.1-10.2-3-24.6-15.9-24.2c5.5-17.2,9.8-34.7,13-52.5
			c29.7-17.1,53.9-34.2,56-35.7c5.7-4.1-0.5-12.9-6.3-8.8c-12.3,8.7-33.6,22.8-56.8,36c-0.4,0.2-0.8,0.4-1.1,0.6
			c-33.8,19.2-71.2,36.4-89.9,32.3c-4.1-0.9-6.9-2.7-8.6-5.7c-14.4-24.7,10-52.2,40.8-86.9c33.4-37.6,71-80.1,73.2-134.5h0.2
			c0-0.4,0-5,0-5.2c0.8-105.9-83.3-182.5-185.3-174.2C350,133.3,500.4,222.2,496.6,367.2z"/>
	</g>
	<g id="Color_body-3">
		<path class="penguin_scarf_with_crown-st0" d="M105.1,498.3v46c-3,2.6-6.3,5.2-9,8c-3.1,3.1-6.1,6.3-8.8,9.8C84.5,534.7,96.1,511.5,105.1,498.3z"/>
	</g>
	<g id="Color_body-4">
		<path class="penguin_scarf_with_crown-st0" d="M153.1,388.1l70.7-19.6c2.3,12.4,1.4,25.2-2.8,37.1L153.1,388.1z"/>
	</g>
</g>
<g id="Shape">
	<g id="Layer_2_1_">
		<polygon class="penguin_scarf_with_crown-st1" points="368.5,638.9 363,626.8 354.9,625.2 342.4,636.2 327.9,646.4 313.6,665.5 302.5,685.3 295.2,712.7 
			297.1,736.7 307.9,755.2 318.5,762.1 340,764.8 367.4,755.4 393.5,725.4 409.4,694.9 415,669.9 408.8,658.5 396.1,660.1 
			396,640.5 386.1,633.5 373.5,636.2 		"/>
		<polygon class="penguin_scarf_with_crown-st1" points="52,628.5 40.4,619.5 31.6,618.2 24.4,625 24.4,636.2 21.1,643.1 8.7,645 5.4,650.8 5.4,663.3 
			25.8,708.2 43.9,729.8 65.4,747.8 87.2,749.2 107.2,743.8 121.9,725.4 125.5,694.9 117.9,669.9 101.4,642.3 87.3,625 73.9,613.3 
			61.1,609.6 52.5,619.1 		"/>
		<path class="penguin_scarf_with_crown-st2" d="M293.3,742.1c-69.3,2.8-133.5-6.9-151.1-13.5c-4.7-1.6-9.4-3.6-13.8-6c11.2-38.3-17.4-88.6-52.2-114.3
			c9-38.2,41.7-69.1,80.4-75.7c2.9-0.5,4.9-3.3,4.4-6.3c0,0,0,0,0,0c-2.2-12.3-38.6,6.4-45.1,10.4V398.4
			c16.9,15.4,45.7,19.3,66.3,8.4l45.3,11.7c9.4-19.8,10.9-42.5,4.1-63.4l-15.8,4.4c6.9-47.9-47.1-84.5-89-61
			c13.3-36.8,37.8-68.6,70.1-90.8c103.6-22.8,200.3,49.9,198.9,160.6c-0.2,52.6-37.6,94.8-70.7,132c-32.4,36.5-60.4,68.1-42.1,99.6
			c19.4,28.3,71.9-1.4,103.7-17.3c-3.3,17-7.8,33.7-13.5,50.1c-0.1,0.1-0.2,0.1-0.3,0.2c-15.4-38.5-56.1,15.9-67.3,34.9
			C289.7,693.1,285.7,721.6,293.3,742.1z"/>
		<circle cx="309.1" cy="345.8" r="58.7"/>
		<path d="M451.9,224.1c-65.9-70-182.3-79.7-260.8-25.6c-26.3,18-47.9,42.2-63,70.3c-6.9,12.9-12.3,26.6-16.2,40.8
			c-19.7,18.8-23.2,54.3-7,76.6v94.1c-7.3,8.1-37.9,45.9-26.8,94.3c-5.5,9.2-9.6,19.1-12.3,29.5c-9-2-17.2,5.4-18.6,13
			c-16.8-12-32.6,0.6-29.1,19.5c-5-0.9-10.1,0.9-13.5,4.6c-15.9,17.2,13.1,64.5,16.5,69.8c24.7,39.6,77.4,63.5,103.1,21.6
			c4.6,2.4,9.3,4.4,14.2,6.1c14.7,7.5,108,18,160.2,13.9c23.5,33,69.6,13.9,91.1-13.3c56.3-14.4,110.6-52.2,109.4-116
			c0-1.5,8.2-255.9,8.2-255.9C509.3,314.1,489.2,262.3,451.9,224.1z M153.1,388.1l70.7-19.6c2.3,12.4,1.4,25.2-2.8,37.1L153.1,388.1
			z M105.1,498.3v46c-3,2.6-6.3,5.2-9,8c-3.1,3.1-6.1,6.3-8.8,9.8C84.5,534.7,96.1,511.5,105.1,498.3z M104.3,739.2
			c-20.7,13.1-53.9-2.1-73.9-33.8C14.1,681-0.4,637,22.7,650c4.1,3.4,10.4-1.3,8.4-6.2c-6.9-20.5,2.2-27.6,16.9-11.8
			c3.3,4.1,10.4,0.8,9.5-4.3c-1.4-29.9,27.5-2.7,48.1,30.2C125.5,689.6,125,726.1,104.3,739.2L104.3,739.2z M293.3,742.1
			c-69.3,2.8-133.5-6.9-151.1-13.5c-4.7-1.6-9.4-3.6-13.8-6c11.2-38.3-17.4-88.6-52.2-114.3c9-38.2,41.7-69.1,80.4-75.7
			c2.9-0.5,4.9-3.3,4.4-6.3c0,0,0,0,0,0c-2.2-12.3-38.6,6.4-45.1,10.4V398.4c16.9,15.4,45.7,19.3,66.3,8.4l45.3,11.7
			c9.4-19.8,10.9-42.5,4.1-63.4l-15.8,4.4c6.9-47.9-47.1-84.5-89-61c13.3-36.8,37.8-68.6,70.1-90.8
			c103.6-22.8,200.3,49.9,198.9,160.6c-0.2,52.6-37.6,94.8-70.7,132c-32.4,36.5-60.4,68.1-42.1,99.6c19.4,28.3,71.9-1.4,103.7-17.3
			c-3.3,17-7.8,33.7-13.5,50.1c-0.1,0.1-0.2,0.1-0.3,0.2c-15.4-38.5-56.1,15.9-67.3,34.9C289.7,693.1,285.7,721.6,293.3,742.1
			L293.3,742.1z M390,720.9c-45.6,71-122.7,36.1-75.1-47.5c19.3-30.9,49.4-60.9,48.1-30.2c-0.9,5.2,6.1,8.4,9.5,4.3
			c2.2-2.5,11.4-11.2,16.4-8c4.7,3,2.3,14.9,0.5,19.8c-2,4.9,4.3,9.5,8.4,6.2C420.7,652.2,406.3,696.6,390,720.9L390,720.9z
			 M496.6,367.2c-8.2,255.9-8.2,256-8.2,256.1c0,12.2-2.1,24.4-6.4,35.8c-13.5,34.5-47.8,54.7-81.7,65.7
			c6.2-10.2,30.1-51.9,15.3-67.9c-3.4-3.8-8.5-5.5-13.5-4.6c2.1-10.2-3-24.6-15.9-24.2c5.5-17.2,9.8-34.7,13-52.5
			c29.7-17.1,53.9-34.2,56-35.7c5.7-4.1-0.5-12.9-6.3-8.8c-12.3,8.7-33.6,22.8-56.8,36c-0.4,0.2-0.8,0.4-1.1,0.6
			c-33.8,19.2-71.2,36.4-89.9,32.3c-4.1-0.9-6.9-2.7-8.6-5.7c-14.4-24.7,10-52.2,40.8-86.9c33.4-37.6,71-80.1,73.2-134.5h0.2
			c0-0.4,0-5,0-5.2c0.8-105.9-83.3-182.5-185.3-174.2C350,133.3,500.4,222.2,496.6,367.2z"/>
		<circle class="penguin_scarf_with_crown-st2" cx="287.9" cy="328.1" r="19.1"/>
		<circle class="penguin_scarf_with_crown-st2" cx="133.6" cy="333.8" r="19.8"/>
		<path class="penguin_scarf_with_crown-st3" d="M479.7,507.8c-63.7,11.3-128.3,16.8-192.9,16.3c-59.2-0.5-118.2-5.9-176.4-16.3c-2.6,0-16.5-0.3-27.8-11.1
			c-7.3-7-11.5-16.7-11.5-26.9c2-6.9,4-13.9,6-20.8c-0.4-1.6-3.5-14.9,5.5-26.3c10.3-13,26.9-11.2,27.8-11.1
			c60,8,120.5,12.1,181,12.2c63,0.2,125.9-3.9,188.4-12.2c2.6,0,16.5,0.3,27.8,11.1c7.3,7,11.5,16.7,11.5,26.9v20.3
			C519,490.8,501.4,507.8,479.7,507.8z"/>
		<path d="M295,529.5c-2.7,0-5.5,0-8.2,0c-59.3-0.5-118.5-5.9-176.9-16.3c-11.6-0.2-22.7-4.7-31-12.7c-8.4-8-13.2-19.1-13.2-30.8
			l0.2-1.5l5.6-19.5c-0.9-4.9-2.3-18,6.9-29.5c12.3-15.5,31.9-13.3,32.7-13.1c59.8,7.9,120,12,180.3,12.2
			c62.8,0.2,125.4-3.8,187.6-12.2c6,0,20.4,1.2,32.2,12.6c8.4,8,13.2,19.1,13.1,30.8v20.3c0,23.8-19.8,43.2-44.2,43.4
			C419.1,524,357.1,529.5,295,529.5z M76.6,470.5c0.2,8.4,3.7,16.4,9.8,22.2c9.2,8.9,20.7,9.6,24,9.6l0.9,0.1
			c58,10.3,116.7,15.7,175.5,16.2c64.3,0.4,128.6-5,191.9-16.2l1-0.1c18.7,0,33.8-14.6,33.8-32.6v-20.3c0-8.7-3.6-17-9.8-23
			c-9.2-8.9-20.7-9.6-24-9.6c-62.4,8.3-125.4,12.4-188.4,12.2c-60.8-0.2-121.5-4.3-181.7-12.3c-0.1,0-14.3-1.6-22.8,9.1
			c-7.4,9.3-4.8,20.4-4.5,21.6l0.4,1.4L76.6,470.5z"/>
		<path class="penguin_scarf_with_crown-st4" d="M434.1,572.9c-34.6-29.1-57.3-69.8-64-114.4c-0.5-0.8-2.7-5.2,2.3-12.6c3.2-4.7,8.5-9.4,15.2-13.2
			c4.8-1.9,9.6-3.7,14.4-5.6c0.9-0.7,9-6.5,17.8-7.7c10.2-1.5,11.9,4.3,11.9,4.6c10.5,43.3,32.7,82.8,64,114.4
			c0.5,0.8,2.7,5.2-2.3,12.6c-3.2,4.7-8.5,9.4-15.2,13.2l-13,7.3C451.8,578.9,437.8,579.6,434.1,572.9z"/>
		<path d="M444.9,582.9c-6.7,0-12.1-2.2-15-6.5c-35-29.7-58.1-71-65.1-116.4c-1.3-3-2.6-9,3.1-17.3c3.8-5.6,9.8-10.8,17.1-14.9
			l0.7-0.3l13.7-5.4c2.6-1.8,10.6-7,19.7-8.3c12-1.8,16.9,4.6,18,8.6c10.3,42.4,31.9,81.1,62.7,112l0.9,1.2c1.3,2.4,3.8,9-2.6,18.3
			c-3.8,5.6-9.8,10.8-17.1,14.9l-13,7.3C459.8,580.7,451.7,582.9,444.9,582.9z M389.9,437.6c-5.6,3.2-10.3,7.3-13.1,11.3
			c-2.7,3.9-2.4,6.3-2.1,6.9l0.6,1.8c6.5,43.4,28.6,82.9,62.2,111.2l1.2,1.5c1.5,2.6,11.6,3.3,23.8-3.5l13-7.3
			c5.7-3.2,10.6-7.4,13.4-11.5c2.4-3.6,2.4-5.7,2.2-6.5c-31.7-32.2-54-72.3-64.7-116.2c-0.1-0.1-1.6-1.2-5.9-0.5
			c-7.7,1.1-15.1,6.5-15.4,6.7l-1.3,0.7L389.9,437.6z"/>
		<path class="penguin_scarf_with_crown-st3" d="M363,589c-22.4-50-25.8-106.4-9.5-158.7c-0.1-1.1-0.2-7.1,9.2-12.5c5.9-3.4,14.3-5.8,23.6-6.4
			c6.2,0.5,12.4,1,18.7,1.5c1.4-0.3,13.2-2.3,23.6,1c11.9,3.8,10.7,11,10.6,11.3c-11.4,52.8-8.1,107.7,9.5,158.7
			c0.1,1.1,0.2,7.1-9.2,12.5c-5.9,3.4-14.3,5.8-23.6,6.4l-18,1.1C379.1,604.9,363.5,598.3,363,589z"/>
		<path d="M393.5,609.4c-19.5,0-34.4-7.8-35.9-19c-22.5-50.7-25.9-107.9-9.6-160.9c0.1-3.6,1.8-10.6,11.9-16.4
			c6.9-4,16.1-6.5,26-7.1l0.4,0l18.4,1.4c3.6-0.6,15-2.1,25.4,1.3c13.2,4.2,15.2,13,14.3,17.6c-11.2,51.9-8,105.8,9.3,155.9l0.3,1.4
			c0.2,3.1-0.6,11-11.9,17.5c-6.9,4-16.1,6.5-26,7.1l-18,1.1C396.5,609.3,395,609.4,393.5,609.4z M386.2,416.8
			c-8,0.5-15.5,2.6-20.9,5.6c-6.5,3.7-6.5,7.1-6.5,7.5l0,1l-0.3,0.9c-15.9,51.1-12.6,106.2,9.3,155l0.4,1.8
			c0.3,4.7,11.7,10.8,29.1,9.8l18-1.1c8.1-0.5,15.8-2.5,21.2-5.7c5.3-3,6.3-5.9,6.5-7c-17.6-51.7-20.9-107.3-9.3-160.7
			c0-0.8-1.3-3.3-6.9-5.1c-9.1-2.9-19.7-1-20.9-0.8l-0.7,0.1L386.2,416.8z"/>
		<path d="M79.6,446.1c8.8,3.4,17.5,7.8,26.8,10.2c9.3,2.6,18.8,4.7,28.4,6.2c9.6,1.6,19.4,2.8,29.1,4.1c9.7,1.2,19.5,1.9,29.3,2.4
			c-9.8,0.5-19.7,0.7-29.5,0.3c-9.8-0.4-19.6-0.7-29.5-1.4c-9.9-0.7-19.8-1.9-29.6-3.7c-10-1.7-19.4-5.3-29.1-8.2L79.6,446.1z"/>
	</g>
	<g id="Layer_3">
		<g id="Layer_2-2">
			<path class="penguin_scarf_with_crown-st5" d="M493.3,110.7c-8.4,17.3-11.4,37.1-12.5,44.6c-0.2,1.3-0.3,2.3-0.4,2.7c-0.1,0.2-0.1,0.5-0.1,0.7l-2.6,26.5
				l-151-14.9l-2.5-0.2l-151-14.9l2.6-26.5c0.1-0.2,0.1-0.5,0.1-0.7c0-0.5,0-1.4,0.1-2.8c0.4-7.6,1.3-27.6-3.6-46.2
				c-4.4-16.8-19.5-52.5-26.6-68.9c1.6,1.2,3.6,2.7,6,4.6c4.2,3.4,9.3,5.2,14.2,6.9c9.8,3.4,19,6.7,24.6,21.4
				c5.2,13.9,0.9,20.5-3.3,26.9c-2.6,4-5.3,8.1-5.4,13.5c0,1.3-0.1,2.7-0.1,4.2c-0.1,2.6-0.2,5.5-0.2,8.4c0,1.4,0.9,2.6,2.2,2.9
				c1.3,0.4,2.7-0.2,3.4-1.4l0.3-0.6c0.1-0.2,0.2-0.3,0.3-0.5c1.8-2.4,4.1-4.3,6.7-5.7c8.1-4.6,17.8-5.3,26.4-1.7
				c4.1,1.6,7.6,4.4,10.1,8c2.5,3.8,3.3,8.5,2.2,12.9c-1,3.8-4.2,6.6-8.1,7.2c-4.3,0.5-7.2-0.2-8.9-1.9c-2.2-2.3-1.7-6-1.7-6
				c0.2-1.7-1-3.2-2.6-3.5c-0.7-0.1-1.4,0.1-2.1,0.5c-4.4,2.7-11.3,10.4-6.4,20.8c2,4.2,6.8,7,14.4,8.4l48.4,4.8
				c11.2,1.1,18.4-0.5,22.1-4.8c2.6-2.9,4-6.7,3.7-10.6c-0.6-6.6-6.1-11.1-6.4-11.4c-0.9-0.7-2.1-0.9-3.2-0.4
				c-1,0.5-1.7,1.5-1.8,2.6c-0.2,2-1.2,3.8-2.8,5.1c-2.4,1.7-6.3,1.8-11.5,0.3c-4.2-1.1-7.3-4.5-7.9-8.8c-0.2-4.5,1.6-8.9,5.1-11.9
				c3.7-3.2,8.3-5.2,13.2-5.8c10.6-1.7,21.4,1,30,7.4c2.6,1.9,4.8,4.3,6.4,7.1c1.2,2.4,1.9,5.1,2.1,7.8c0.1,1.4,1.3,2.6,2.7,2.7
				c1.5,0.2,2.8-0.7,3.2-2.1c2.2-7,0-14.5-5.9-20.6c-2.5-2.6-5.3-5-8.1-7.4c-8-6.9-14.8-12.8-14-21.3c1.7-17.6,14-21.6,24.9-25.2
				c4.1-1.3,8.1-2.6,11-4.6c3.8-2.7,7.2-6,10-9.8c1.9,4.3,4.6,8.2,7.9,11.5c2.5,2.5,6.1,4.5,9.9,6.6c10,5.6,21.3,11.9,19.5,29.6
				c-0.9,8.5-8.8,13-17.9,18.1c-3.1,1.8-6.3,3.6-9.3,5.6c-6.9,4.8-10.5,11.7-9.7,19c0.1,1.5,1.3,2.7,2.8,2.7
				c1.4,0.1,2.7-0.8,3.2-2.1c0.7-2.6,1.9-5,3.5-7.2c2.1-2.4,4.8-4.4,7.7-5.7c9.7-4.6,20.8-5.1,30.9-1.4c4.6,1.6,8.7,4.5,11.8,8.3
				c2.8,3.6,3.8,8.3,2.7,12.7c-1.5,4-5.2,6.8-9.5,7.1c-5.3,0.4-9.2-0.4-11.2-2.5c-1.3-1.5-1.9-3.5-1.7-5.5c0.2-1.1-0.3-2.2-1.2-2.9
				c-0.9-0.7-2.2-0.8-3.2-0.2c-0.3,0.1-6.6,3.5-8.5,9.9c-1.1,3.7-0.5,7.8,1.5,11.1c2.7,4.9,9.5,7.9,20.7,9l48.4,4.8
				c7.7,0.2,13-1.6,15.7-5.4c6.8-9.2,1.6-18.2-2.2-21.6c-0.9-0.8-2.1-1-3.2-0.6c-1.1,0.4-1.8,1.4-1.9,2.6c0,0-0.2,3.8-2.8,5.6
				c-2,1.4-5.1,1.4-9.1,0.1c-3.7-1.3-6.3-4.7-6.6-8.6c-0.2-4.5,1.5-9,4.7-12.2c3.1-3.1,7.1-5.1,11.4-5.9c9.1-1.8,18.6,0.8,25.6,6.9
				c2.3,1.9,4.2,4.2,5.5,6.9c0.1,0.2,0.1,0.4,0.2,0.5l0.2,0.6c0.5,1.3,1.7,2.1,3.1,2c1.4-0.1,2.5-1.1,2.8-2.4
				c0.6-2.9,1.1-5.7,1.5-8.3c0.2-1.5,0.5-2.8,0.7-4.1c1-5.3-0.9-9.9-2.7-14.3c-2.9-7.1-5.8-14.4,2-27c8.3-13.4,18-14.8,28.3-16.2
				c5.2-0.7,10.5-1.5,15.3-4c2.7-1.4,4.9-2.5,6.8-3.3C522.7,63,500.9,95.1,493.3,110.7z"/>
			<polygon class="penguin_scarf_with_crown-st5" points="326.2,175.4 323.7,175.2 172.7,160.3 171.2,175.3 167.5,213.1 166,228.1 317,243 319.5,243.2 
				470.5,258.1 472,243.1 475.7,205.3 477.2,190.3 			"/>
			<polygon class="penguin_scarf_with_crown-st6" points="356,249.6 381.5,178.7 478.3,188.7 475.1,258.3 			"/>
			<polygon class="penguin_scarf_with_crown-st7" points="364.3,250.5 389.8,179.6 480.8,194.7 475.1,258.3 			"/>
			<polygon class="penguin_scarf_with_crown-st8" points="473.4,251.9 165.1,217.9 474.1,244.7 			"/>
			<polygon class="penguin_scarf_with_crown-st8" points="476.7,195.7 166.9,159.2 477.7,184.9 			"/>
			<path class="penguin_scarf_with_crown-st8" d="M471.1,70.8c5.7-9,12.1-13.1,18.8-15.1c-5.2,3.3-9.5,7.7-12.6,13c-9.4,15.2-5.6,24.8-2.5,32.4
				c1.6,3.9,3,7.4,2.3,11c-0.2,1.3-0.5,2.7-0.7,4.2v0.2c-1-1.1-2.1-2.1-3.2-3.1c-0.4-0.4-0.9-0.8-1.4-1.1v-0.2
				c1-5.4-0.9-9.9-2.7-14.3C466,90.4,463.1,83.5,471.1,70.8z"/>
			<path class="penguin_scarf_with_crown-st8" d="M427.8,112.9c-4.4,4.5-6.7,10.6-6.3,16.8c0.2,2.7,1.1,5.3,2.6,7.5c-0.7-0.2-1.5-0.4-2.2-0.6
				c-3.8-1.3-6.4-4.7-6.7-8.7c-0.2-4.5,1.5-9,4.7-12.2l0,0c3.1-3,7-5,11.3-5.8C430,110.8,428.8,111.8,427.8,112.9z"/>
			<path class="penguin_scarf_with_crown-st8" d="M243.6,98.5L243.6,98.5c2.5,3.8,3.4,8.4,2.3,12.8c-1.1,3.8-4.4,6.6-8.3,7.2c-0.8,0.1-1.5,0.1-2.3,0.1
				c1.9-1.9,3.3-4.3,4-6.9c1.6-6.1,0.5-12.5-2.9-17.8c-0.8-1.2-1.7-2.3-2.7-3.4C237.6,92.3,241,95,243.6,98.5z"/>
			<path class="penguin_scarf_with_crown-st8" d="M202,44.3c5.4,13.9,1.2,20.2-3.3,26.9c-2.7,4-5.4,8.1-5.5,13.5v0.2c-0.5,0.3-1.1,0.5-1.6,0.8
				c-1.3,0.7-2.5,1.5-3.7,2.4v-0.2c0-1.5,0.1-2.9,0.1-4.3c0.1-3.7,2.1-6.8,4.4-10.3c4.5-6.9,10.2-15.5,3.9-32.3
				c-2-5.8-5.4-11-9.8-15.2C192.7,29.2,198.2,34.4,202,44.3z"/>
			<path class="penguin_scarf_with_crown-st8" d="M215.8,128.9c-3.5-1-5.8-2.4-6.7-4.2c-1.6-2.9-1.5-6.4,0.2-9.2c0.6,1.5,1.4,2.9,2.5,4.1
				c0.6,0.6,1.2,1.1,1.9,1.5c0,2.6,0.5,5.1,1.7,7.4C215.6,128.6,215.7,128.8,215.8,128.9z"/>
			<path class="penguin_scarf_with_crown-st8" d="M441.1,151.1l0.4-0.4c1.6-2,2.6-4.4,3.1-6.9c0.8-0.3,1.5-0.7,2.2-1.1c1.3-0.9,2.4-2.1,3.3-3.5
				c1.1,3.1,0.5,6.5-1.6,9C447.2,149.9,444.7,150.8,441.1,151.1z"/>
			<path class="penguin_scarf_with_crown-st9" d="M145.8,10.2c7.5,5.7,18.6,27,25.2,44c14.8,38.1,11.7,70.4,9.8,91l-9.6,85.5l-7.4-3.5l9.4-122.9
				c0.3-7.7-0.8-15.4-3.3-22.7L158,46.4L145.8,10.2z"/>
			<polygon class="penguin_scarf_with_crown-st6" points="381.3,179.9 392.5,148.6 481.9,161.7 478.3,188.7 			"/>
			<path class="penguin_scarf_with_crown-st10" d="M261.4,213.5c-7.9-0.8-13.5-9.2-12.6-18.8s8.1-16.8,16-16s13.5,9.2,12.6,18.8S269.3,214.3,261.4,213.5z"/>
			<path d="M264.6,181.3c6.5,0.6,11.1,7.8,10.3,16.1s-6.7,14.4-13.3,13.7c-6.6-0.7-11.1-7.8-10.3-16.1S258.1,180.6,264.6,181.3
				 M265.1,176.2c-9.3-0.9-17.7,7.3-18.8,18.2s5.6,20.6,14.9,21.6s17.7-7.3,18.8-18.2S274.4,177.2,265.1,176.2L265.1,176.2z"/>
			<path class="penguin_scarf_with_crown-st11" d="M270.3,183.9c1.4,2.9,1.9,6.2,1.6,9.4c-0.8,8.2-6.7,14.4-13.2,13.7c-2.1-0.2-4.1-1.1-5.7-2.6
				c1.8,3.7,5,6.3,8.7,6.7c6.5,0.6,12.4-5.5,13.2-13.7C275.5,191.8,273.6,186.8,270.3,183.9z"/>
			<path class="penguin_scarf_with_crown-st10" d="M373.8,225.2c-7.9-0.8-13.5-9.2-12.6-18.8s8.1-16.8,16-16s13.5,9.2,12.6,18.8S381.7,226,373.8,225.2z"/>
			<path d="M377,192.9c6.5,0.6,11.1,7.8,10.3,16.1s-6.7,14.4-13.3,13.7s-11.1-7.8-10.3-16.1S370.5,192.3,377,192.9 M377.5,187.9
				c-9.3-0.9-17.7,7.3-18.8,18.2s5.6,20.6,14.9,21.6s17.7-7.3,18.8-18.2S386.8,188.8,377.5,187.9z"/>
			<path class="penguin_scarf_with_crown-st11" d="M382.7,195.6c1.4,2.9,1.9,6.2,1.6,9.4c-0.8,8.2-6.7,14.4-13.3,13.7c-2.1-0.2-4.1-1.1-5.7-2.6
				c1.8,3.7,5,6.3,8.7,6.7c6.5,0.6,12.4-5.5,13.3-13.7C387.9,203.5,386,198.5,382.7,195.6z"/>
			<path class="penguin_scarf_with_crown-st10" d="M429.5,230.7c-7.9-0.8-13.5-9.2-12.6-18.8s8.1-16.8,16-16s13.5,9.2,12.6,18.8S437.4,231.5,429.5,230.7z"/>
			<path d="M432.7,198.4c6.5,0.6,11.1,7.8,10.3,16.1s-6.7,14.4-13.3,13.7s-11.1-7.8-10.3-16.1S426.2,197.8,432.7,198.4 M433.2,193.4
				c-9.3-0.9-17.7,7.3-18.8,18.2s5.6,20.6,14.9,21.6s17.7-7.3,18.8-18.2S442.5,194.3,433.2,193.4z"/>
			<path class="penguin_scarf_with_crown-st11" d="M438.4,201c1.4,2.9,1.9,6.2,1.6,9.4c-0.8,8.2-6.7,14.4-13.3,13.7c-2.1-0.2-4.1-1.1-5.7-2.6
				c1.8,3.7,5,6.3,8.7,6.7c6.5,0.6,12.4-5.5,13.3-13.7C443.5,209,441.6,204,438.4,201z"/>
			<path class="penguin_scarf_with_crown-st10" d="M205.8,208c-7.9-0.8-13.5-9.2-12.6-18.8s8.1-16.8,16-16s13.5,9.2,12.6,18.8S213.7,208.8,205.8,208z"/>
			<path d="M209,175.8c6.5,0.6,11.1,7.8,10.3,16.1s-6.7,14.4-13.3,13.7s-11.1-7.8-10.3-16.1S202.5,175.1,209,175.8 M209.5,170.8
				c-9.3-0.9-17.7,7.3-18.8,18.2s5.6,20.6,14.9,21.6s17.7-7.3,18.8-18.2S218.7,171.7,209.5,170.8z"/>
			<path class="penguin_scarf_with_crown-st11" d="M214.7,178.4c1.4,2.9,1.9,6.2,1.6,9.4c-0.8,8.2-6.7,14.4-13.2,13.7c-2.1-0.2-4.1-1.1-5.7-2.6
				c1.8,3.7,5,6.3,8.7,6.7c6.5,0.6,12.4-5.5,13.3-13.7C219.8,186.3,217.9,181.3,214.7,178.4z"/>
			<path class="penguin_scarf_with_crown-st10" d="M318.2,219.7c-7.9-0.8-13.5-9.2-12.6-18.8s8.1-16.8,16-16s13.5,9.2,12.6,18.8S326.1,220.5,318.2,219.7z"/>
			<path d="M321.4,187.5c6.5,0.6,11.1,7.8,10.3,16.1s-6.7,14.4-13.2,13.7s-11.1-7.8-10.3-16.1S314.9,186.8,321.4,187.5 M321.9,182.4
				c-9.3-0.9-17.7,7.3-18.8,18.2s5.6,20.6,14.9,21.6s17.7-7.3,18.8-18.2S331.2,183.4,321.9,182.4z"/>
			<path class="penguin_scarf_with_crown-st11" d="M327.1,190.1c1.4,2.9,1.9,6.2,1.6,9.4c-0.8,8.2-6.7,14.4-13.3,13.7c-2.1-0.2-4.1-1.1-5.7-2.6
				c1.8,3.7,5,6.3,8.7,6.7c6.5,0.6,12.4-5.5,13.2-13.7C332.2,198,330.3,193,327.1,190.1z"/>
			<path class="penguin_scarf_with_crown-st12" d="M203.2,180.4L203.2,180.4c1.9,0,3.5,1.6,3.5,3.5l0,0c0,1.9-1.6,3.5-3.5,3.5l0,0c-1.9,0-3.5-1.6-3.5-3.5l0,0
				C199.7,182,201.2,180.4,203.2,180.4C203.1,180.4,203.2,180.4,203.2,180.4z"/>
			<path class="penguin_scarf_with_crown-st12" d="M259.7,186.6L259.7,186.6c1.9,0,3.5,1.6,3.5,3.5l0,0c0,1.9-1.6,3.5-3.5,3.5l0,0c-1.9,0-3.5-1.6-3.5-3.5l0,0
				C256.2,188.2,257.7,186.6,259.7,186.6z"/>
			<path class="penguin_scarf_with_crown-st12" d="M314.3,193.8L314.3,193.8c1.9,0,3.5,1.6,3.5,3.5l0,0c0,1.9-1.6,3.5-3.5,3.5l0,0c-1.9,0-3.5-1.6-3.5-3.5l0,0
				c0-1.9,1.4-3.5,3.3-3.5C314.2,193.8,314.2,193.8,314.3,193.8z"/>
			<path class="penguin_scarf_with_crown-st12" d="M371.3,198.2L371.3,198.2c1.9,0,3.5,1.6,3.5,3.5l0,0c0,1.9-1.6,3.5-3.5,3.5l0,0c-1.9,0-3.5-1.6-3.5-3.5l0,0
				C367.8,199.8,369.3,198.2,371.3,198.2z"/>
			<path class="penguin_scarf_with_crown-st12" d="M427.1,205.7L427.1,205.7c1.9,0,3.5,1.6,3.5,3.5l0,0c0,1.9-1.6,3.5-3.5,3.5l0,0c-1.9,0-3.5-1.6-3.5-3.5l0,0
				C423.6,207.3,425.2,205.8,427.1,205.7z"/>
			<path class="penguin_scarf_with_crown-st9" d="M261.5,108.7c-0.4,1.4-0.4,2.9,0,4.3c0.5,1.4,1.8,2.4,3.3,2.5c1.7,0,3.1-1.5,3.8-3.1s0.9-3.3,1.5-4.9
				c1.1-2.8,3.4-4.9,6.3-5.7c0.5-0.1,0.9-0.3,1.2-0.7c0.4-0.8-0.6-1.6-1.5-1.9C270.1,97.7,263,103,261.5,108.7z"/>
			<path class="penguin_scarf_with_crown-st9" d="M300.4,65.1c-0.9,2.7-0.8,5.6,0.1,8.3c1,2.7,3.5,4.6,6.4,4.8c3.3,0,6-2.8,7.3-5.9s1.7-6.4,2.9-9.5
				c2.2-5.3,6.6-9.4,12.1-11c0.9-0.1,1.7-0.6,2.3-1.3c0.9-1.6-1.2-3.2-2.9-3.6C317.1,44,303.4,54.1,300.4,65.1z"/>
			<path class="penguin_scarf_with_crown-st7" d="M399.8,153.5c0,0,20.7,1.2,37.8,3.7h0.1c1.3,0.2,10.6,1.3,15.6-5.4c6.8-9.2,1.6-18.2-2.2-21.6
				c-0.9-0.8-2.1-1-3.2-0.6c-1.1,0.4-1.8,1.4-1.9,2.6c0,0-0.2,3.8-2.8,5.6c-2,1.4-5.1,1.4-9.1,0.1c-3.7-1.3-6.3-4.7-6.6-8.6
				c-0.2-4.5,1.5-9,4.7-12.2c3.1-3.1,7.1-5.1,11.4-5.9c9.1-1.8,18.6,0.8,25.6,6.9c2.3,1.9,4.2,4.2,5.5,6.9c0.1,0.2,0.1,0.4,0.2,0.5
				l0.2,0.6c0.5,1.3,1.7,2.1,3.1,2c1.4-0.1,2.5-1.1,2.8-2.4c0.6-2.9,1.1-5.7,1.5-8.3c0.2-1.5,0.5-2.8,0.7-4.1
				c1-5.3-0.9-9.9-2.7-14.3c-2.9-7.1-5.8-14.4,2-27c8.3-13.4,18-14.8,28.3-16.2c5.2-0.7,10.5-1.5,15.3-4c2.7-1.4,4.9-2.5,6.8-3.3
				c-10.1,14.5-32,46.6-39.6,62.2c-8.4,17.3-11.4,37.1-12.5,44.6c-0.2,1.3-0.4,2.3-0.4,2.7c-0.1,0.2-0.1,0.5-0.1,0.7l-2.6,26.5
				l-86.9-8.5L399.8,153.5z"/>
			<path d="M543.3,41.4c-0.4-1-1.3-1.7-2.4-1.8h-0.1c-1.1-0.1-14.9,3.6-18,4.6c-2.6,0.9-5.3,1.6-8,2.1c-3.5,0.6-7,1-10.6,1.2
				c-12.6,1-27,2.1-38.4,20.1c-9.6,15.2-5.7,24.8-2.5,32.5c1.3,2.7,2.1,5.5,2.5,8.5c-5.9-3-12.5-4.3-19.1-3.9
				c-5.4-1.5-11.1-1.7-16.6-0.7c-5.6,1-10.8,3.6-14.8,7.6c-4.5,4.4-6.8,10.6-6.4,16.9c0.5,6.4,4.8,12,11,13.9
				c3.5,1.2,7.3,1.5,10.9,0.7c0.4,0.2,0.9,0.4,1.3,0.5c1.9,0.6,3.8,0.9,5.7,1.1c-0.4,0.8-0.8,1.6-1.4,2.3c-1.6,2.1-5.4,3.1-10.9,2.9
				l-35.9-3.5c-11.7-1.2-15-4.2-16-5.9c-2.3-4.2-1.1-7.5,0.7-9.7c0.5,1.6,1.4,3.1,2.6,4.3c3.4,3.6,8.8,5.1,16.2,4.5
				c6.8-0.5,12.6-5,14.8-11.4c1.8-5.8,0.5-12.6-3.6-18.1c-3.8-4.8-8.9-8.4-14.6-10.4c-7.9-2.9-16.4-3.6-24.7-2
				c8.5-5,16.5-10.6,17.5-20.8c2.2-21.5-12.1-29.6-22.6-35.4c-3.4-1.9-6.7-3.7-8.6-5.7c-5.6-5.5-8.8-14.3-9.9-17.7
				c0,0-0.6-2.8-1-2.5c-0.3-0.4-1.5,2.3-1.5,2.3c-1.8,3.2-6.6,11.1-13.1,15.4c-2.3,1.5-5.8,2.7-9.6,3.9c-11.4,3.7-27,8.8-29,30.3
				c-1,10.2,5.7,17.3,13.1,23.8c-7.8-3.2-16.3-4.2-24.6-2.8c-6.6,1.1-12.2,3.6-16.3,7.3c-5.1,4.6-7.7,10.9-7,17
				c0.9,6.7,5.7,12.3,12.3,14c7.1,2,12.8,1.6,16.8-1.3c1.4-1,2.5-2.2,3.4-3.7c1.3,2.5,1.9,5.9-1.2,9.6c-1.3,1.5-5.1,3.8-16.8,2.7
				l-35.9-3.5c-5.5-1-9-2.7-10.1-5c-0.4-0.8-0.7-1.6-0.9-2.5c1.9,0.3,3.9,0.3,5.8,0.1c0.5-0.1,0.9-0.2,1.4-0.3
				c3.4,1.5,7.1,2,10.8,1.5c6.4-0.8,11.7-5.3,13.5-11.5c1.6-6.1,0.5-12.6-3-17.8c-3.2-4.7-7.8-8.3-13.1-10.3
				c-5.2-2.1-10.8-3-16.4-2.6c-6.4-1.7-13.1-1.7-19.5,0.1c0.7-2.7,2.3-5.1,4.1-7.9c4.6-6.9,10.4-15.5,3.9-32.3
				c-7.7-19.9-21.5-23.8-33.7-27.2c-3.4-0.9-6.8-2-10.1-3.3c-2.6-1.1-5-2.3-7.5-3.6c-2.8-1.6-15.7-7.9-16.7-8h-0.1
				c-1.1-0.1-2.2,0.4-2.8,1.3c-0.6,0.9-0.7,2-0.3,3c0.2,0.5,24.4,55,29.9,76.3c4.6,17.7,3.7,37.1,3.4,44.4c-0.1,1.2-0.1,2.1-0.1,2.7
				v0.1l-10,101.9c-0.2,1.7,1,3.1,2.7,3.3l154,15.2l2.5,0.2l154,15.2c1.6,0.2,3.1-0.9,3.3-2.5c0-0.1,0-0.1,0-0.2l0,0L486,159v-0.1
				c0.1-0.6,0.2-1.5,0.4-2.7c1.1-7.2,4-26.4,12-42.9c9.6-19.8,43.9-68.5,44.2-69C543.5,43.7,543.8,42.4,543.3,41.4z M471.1,70.8
				c5.7-9,12.1-13.1,18.8-15.1c-5.2,3.3-9.5,7.7-12.6,13c-9.4,15.2-5.6,24.8-2.5,32.4c1.6,3.9,3,7.4,2.3,11
				c-0.2,1.3-0.5,2.7-0.7,4.2v0.2c-1-1.1-2.1-2.1-3.2-3.1c-0.4-0.4-0.9-0.8-1.4-1.1v-0.2c1-5.4-0.9-9.9-2.7-14.3
				C466,90.4,463.1,83.5,471.1,70.8z M427.8,112.9c-4.4,4.5-6.7,10.6-6.3,16.8c0.2,2.7,1.1,5.3,2.6,7.5c-0.7-0.2-1.5-0.4-2.2-0.6
				c-3.8-1.3-6.4-4.7-6.7-8.7c-0.2-4.5,1.5-9,4.7-12.2l0,0c3.1-3,7-5,11.3-5.8C430,110.8,428.8,111.8,427.8,112.9z M243.6,98.5
				L243.6,98.5c2.5,3.8,3.4,8.4,2.3,12.8c-1.1,3.8-4.4,6.6-8.3,7.2c-0.8,0.1-1.5,0.1-2.3,0.1c1.9-1.9,3.3-4.3,4-6.9
				c1.6-6.1,0.5-12.5-2.9-17.8c-0.8-1.2-1.7-2.3-2.7-3.4C237.6,92.3,241,95,243.6,98.5z M202,44.3c5.4,13.9,1.2,20.2-3.3,26.9
				c-2.7,4-5.4,8.1-5.5,13.5v0.2c-0.5,0.3-1.1,0.5-1.6,0.8c-1.3,0.7-2.5,1.5-3.7,2.4v-0.2c0-1.5,0.1-2.9,0.1-4.3
				c0.1-3.7,2.1-6.8,4.4-10.3c4.5-6.9,10.2-15.5,3.9-32.3c-2-5.8-5.4-11-9.8-15.2C192.7,29.2,198.2,34.4,202,44.3L202,44.3z
				 M470.6,257.3l-151-14.9l-2.5-0.2l-151-14.9l0.9-9.2L318,233l2.5,0.2l151,14.9L470.6,257.3z M472,243.1l-151-14.9l-2.5-0.2
				l-151-14.9l5.2-52.8l151,14.9l2.5,0.2l151,14.9L472,243.1z M493.3,110.7c-8.4,17.3-11.4,37.1-12.5,44.6c-0.2,1.3-0.3,2.3-0.4,2.7
				c-0.1,0.2-0.1,0.5-0.1,0.7l-2.6,26.5l-151-14.9l-2.5-0.2l-151-14.9l2.6-26.5c0.1-0.2,0.1-0.5,0.1-0.7c0-0.5,0-1.4,0.1-2.8
				c0.4-7.6,1.3-27.6-3.6-46.2c-4.4-16.8-19.5-52.5-26.6-68.9c1.6,1.2,3.6,2.7,6,4.6c4.2,3.4,9.3,5.2,14.2,6.9
				c9.8,3.4,19,6.7,24.6,21.4c5.2,13.9,0.9,20.5-3.3,26.9c-2.6,4-5.3,8.1-5.4,13.5c0,1.3-0.1,2.7-0.1,4.2c-0.1,2.6-0.2,5.5-0.2,8.4
				c0,1.4,0.9,2.6,2.2,2.9c1.3,0.4,2.7-0.2,3.4-1.4l0.3-0.6c0.1-0.2,0.2-0.3,0.3-0.5c1.8-2.4,4.1-4.3,6.7-5.7
				c8.1-4.6,17.8-5.3,26.4-1.7c4.1,1.6,7.6,4.4,10.1,8c2.5,3.8,3.3,8.5,2.2,12.9c-1,3.8-4.2,6.6-8.1,7.2c-4.3,0.5-7.2-0.2-8.9-1.9
				c-2.2-2.3-1.7-6-1.7-6c0.2-1.7-1-3.2-2.6-3.5c-0.7-0.1-1.4,0.1-2.1,0.5c-4.4,2.7-11.3,10.4-6.4,20.8c2,4.2,6.8,7,14.4,8.4
				l48.4,4.8c11.2,1.1,18.4-0.5,22.1-4.8c2.6-2.9,4-6.7,3.7-10.6c-0.6-6.6-6.1-11.1-6.4-11.4c-0.9-0.7-2.1-0.9-3.2-0.4
				c-1,0.5-1.7,1.5-1.8,2.6c-0.2,2-1.2,3.8-2.8,5.1c-2.4,1.7-6.3,1.8-11.5,0.3c-4.2-1.1-7.3-4.5-7.9-8.8c-0.2-4.5,1.6-8.9,5.1-11.9
				c3.7-3.2,8.3-5.2,13.2-5.8c10.6-1.7,21.4,1,30,7.4c2.6,1.9,4.8,4.3,6.4,7.1c1.2,2.4,1.9,5.1,2.1,7.8c0.1,1.4,1.3,2.6,2.7,2.7
				c1.5,0.2,2.8-0.7,3.2-2.1c2.2-7,0-14.5-5.9-20.6c-2.5-2.6-5.3-5-8.1-7.4c-8-6.9-14.8-12.8-14-21.3c1.7-17.6,14-21.6,24.9-25.2
				c4.1-1.3,8.1-2.6,11-4.6c3.8-2.7,7.2-6,10-9.8c1.9,4.3,4.6,8.2,7.9,11.5c2.5,2.5,6.1,4.5,9.9,6.6c10,5.6,21.3,11.9,19.5,29.6
				c-0.9,8.5-8.8,13-17.9,18.1c-3.1,1.8-6.3,3.6-9.3,5.6c-6.9,4.8-10.5,11.7-9.7,19c0.1,1.5,1.3,2.7,2.8,2.7
				c1.4,0.1,2.7-0.8,3.2-2.1c0.7-2.6,1.9-5,3.5-7.2c2.1-2.4,4.8-4.4,7.7-5.7c9.7-4.6,20.8-5.1,30.9-1.4c4.6,1.6,8.7,4.5,11.8,8.3
				c2.8,3.6,3.8,8.3,2.7,12.7c-1.5,4-5.2,6.8-9.5,7.1c-5.3,0.4-9.2-0.4-11.2-2.5c-1.3-1.5-1.9-3.5-1.7-5.5c0.2-1.1-0.3-2.2-1.2-2.9
				c-0.9-0.7-2.2-0.8-3.2-0.2c-0.3,0.1-6.6,3.5-8.5,9.9c-1.1,3.7-0.5,7.8,1.5,11.1c2.7,4.9,9.5,7.9,20.7,9l48.4,4.8
				c7.7,0.2,13-1.6,15.7-5.4c6.8-9.2,1.6-18.2-2.2-21.6c-0.9-0.8-2.1-1-3.2-0.6c-1.1,0.4-1.8,1.4-1.9,2.6c0,0-0.2,3.8-2.8,5.6
				c-2,1.4-5.1,1.4-9.1,0.1c-3.7-1.3-6.3-4.7-6.6-8.6c-0.2-4.5,1.5-9,4.7-12.2c3.1-3.1,7.1-5.1,11.4-5.9c9.1-1.8,18.6,0.8,25.6,6.9
				c2.3,1.9,4.2,4.2,5.5,6.9c0.1,0.2,0.1,0.4,0.2,0.5l0.2,0.6c0.5,1.3,1.7,2.1,3.1,2c1.4-0.1,2.5-1.1,2.8-2.4
				c0.6-2.9,1.1-5.7,1.5-8.3c0.2-1.5,0.5-2.8,0.7-4.1c1-5.3-0.9-9.9-2.7-14.3c-2.9-7.1-5.8-14.4,2-27c8.3-13.4,18-14.8,28.3-16.2
				c5.2-0.7,10.5-1.5,15.3-4c2.7-1.4,4.9-2.5,6.8-3.3C522.7,63,500.9,95.1,493.3,110.7z M215.8,128.9c-3.5-1-5.8-2.4-6.7-4.2
				c-1.6-2.9-1.5-6.4,0.2-9.2c0.6,1.5,1.4,2.9,2.5,4.1c0.6,0.6,1.2,1.1,1.9,1.5c0,2.6,0.5,5.1,1.7,7.4
				C215.6,128.6,215.7,128.8,215.8,128.9L215.8,128.9z M441.1,151.1l0.4-0.4c1.6-2,2.6-4.4,3.1-6.9c0.8-0.3,1.5-0.7,2.2-1.1
				c1.3-0.9,2.4-2.1,3.3-3.5c1.1,3.1,0.5,6.5-1.6,9C447.2,149.9,444.7,150.8,441.1,151.1z"/>
		</g>
	</g>
</g>
</svg>
