<?xml version="1.0" encoding="utf-8"?>
<!-- Generator: Adobe Illustrator 24.0.0, SVG Export Plug-In . SVG Version: 6.00 Build 0)  -->
<svg version="1.1" id="Chef" xmlns="http://www.w3.org/2000/svg" xmlns:xlink="http://www.w3.org/1999/xlink" x="0px" y="0px"
	 viewBox="0 0 555.4 856.2" style="enable-background:new 0 0 555.4 856.2;" xml:space="preserve">
<style type="text/css">
	.penguin_chef_no_crown-st0{fill:#A51C1C;}
	.penguin_chef_no_crown-st1{fill:#E5C333;}
	.penguin_chef_no_crown-st2{fill:#FFFFFF;}
	.penguin_chef_no_crown-st3{fill:#0586A6;stroke:#000000;stroke-miterlimit:10;}
	.penguin_chef_no_crown-st4{fill:#D8DEE8;}
</style>
<g id="Color">
	<path id="color" class="penguin_chef_no_crown-st0" d="M495.7,453.7c-8.2,255.4-8.2,255.5-8.2,255.7c0,12.2-2.1,24.3-6.4,35.8
		c-13.5,34.5-47.7,54.6-81.5,65.6c6.2-10.2,30.1-51.8,15.3-67.8c-3.4-3.8-8.5-5.5-13.5-4.6c2.1-10.2-3-24.6-15.9-24.2
		c5.5-17.2,9.8-34.7,12.9-52.4c29.6-17.1,53.8-34.1,55.9-35.6c5.7-4.1-0.5-12.9-6.3-8.8c-12.2,8.7-33.6,22.7-56.7,35.9
		c-0.4,0.2-0.7,0.4-1.1,0.6c-33.7,19.2-71,36.3-89.8,32.3c-4-0.9-6.8-2.7-8.6-5.7c-14.4-24.7,10-52.1,40.8-86.8
		c33.3-37.5,70.8-79.9,73.1-134.3h0.2v-5.2c0.8-105.7-83.2-182.1-185-173.9C349.4,220.3,499.5,308.9,495.7,453.7z"/>
	<path id="color-2" class="penguin_chef_no_crown-st0" d="M104.9,584.6v45.9c-3,2.6-6.2,5.2-9,8c-3.1,3.1-6.1,6.3-8.8,9.7C84.4,620.9,96,597.8,104.9,584.6
		z"/>
	<path id="color-3" class="penguin_chef_no_crown-st0" d="M152.9,474.6l70.6-19.5c2.3,12.4,1.4,25.1-2.8,37L152.9,474.6z"/>
</g>
<g id="Shape">
	<polygon class="penguin_chef_no_crown-st1" points="367.8,724.9 362.3,712.8 354.3,711.2 341.8,722.2 327.3,732.4 313.1,751.4 302,771.2 294.7,798.6 
		296.5,822.6 307.3,841 317.9,847.9 339.4,850.6 366.8,841.2 392.8,811.3 408.7,780.8 414.2,755.9 408.1,744.5 395.4,746.1 
		395.3,726.6 385.4,719.5 372.8,722.2 	"/>
	<polygon class="penguin_chef_no_crown-st1" points="51.9,714.5 40.3,705.6 31.6,704.3 24.3,711 24.3,722.2 21.1,729.1 8.7,731 5.4,736.8 5.4,749.3 
		25.8,794.1 43.8,815.7 65.3,833.6 87,835.1 107,829.6 121.6,811.3 125.3,780.8 117.7,755.9 101.3,728.3 87.1,711 73.8,699.3 
		61,695.7 52.4,705.1 	"/>
	<path class="penguin_chef_no_crown-st2" d="M292.7,827.9c-69.2,2.8-133.3-6.9-150.8-13.5c-4.8-1.6-9.4-3.6-13.8-6c11.2-38.2-17.3-88.4-52.1-114.1
		c9-38.2,41.6-68.9,80.3-75.6c2.9-0.5,4.9-3.3,4.4-6.3l0,0c-2.2-12.3-38.5,6.3-45,10.4v-138c16.9,15.4,45.6,19.3,66.2,8.4l45.2,11.7
		c9.4-19.8,10.9-42.5,4.1-63.3l-15.8,4.4c6.8-47.8-47-84.3-88.8-60.9c13.3-36.8,37.7-68.5,70-90.6
		c103.4-22.8,199.9,49.8,198.6,160.3c-0.2,52.5-37.6,94.6-70.6,131.7c-32.4,36.5-60.3,67.9-42,99.4c19.4,28.2,71.8-1.4,103.5-17.3
		c-3.3,17-7.8,33.7-13.5,50c-0.1,0.1-0.2,0.1-0.3,0.2c-15.4-38.5-56,15.9-67.1,34.8C289.2,779,285.2,807.4,292.7,827.9z"/>
	<circle cx="308.5" cy="432.4" r="58.6"/>
	<path d="M451.1,310.9c-65.8-69.9-181.9-79.6-260.3-25.5c-38.6,26.5-66.6,65.8-79,110.9c-19.7,18.7-23.1,54.2-6.9,76.5v94
		c-7.3,8.1-37.8,45.8-26.7,94.2c-5.5,9.2-9.6,19.1-12.3,29.5c-9-2-17.1,5.4-18.6,12.9c-16.8-12-32.5,0.6-29.1,19.5
		c-5-0.9-10.1,0.9-13.5,4.6c-15.9,17.2,13.1,64.3,16.5,69.7c24.6,39.5,77.2,63.4,102.9,21.6c4.6,2.4,9.3,4.4,14.2,6.1
		c14.7,7.5,107.8,18,159.9,13.9c23.5,32.9,69.5,13.9,90.9-13.3c56.2-14.4,110.4-52.1,109.2-115.7c0-1.5,8.2-255.5,8.2-255.5
		C508.5,400.9,488.5,349.1,451.1,310.9z M152.9,474.6l70.6-19.5c2.3,12.4,1.4,25.1-2.8,37L152.9,474.6z M104.9,584.6v45.9
		c-3,2.6-6.2,5.2-9,8c-3.1,3.1-6.1,6.3-8.8,9.7C84.4,620.9,96,597.8,104.9,584.6z M104.1,825c-20.7,13.1-53.8-2.1-73.8-33.8
		c-16.2-24.3-30.8-68.3-7.7-55.2c4.1,3.3,10.3-1.3,8.4-6.2c-6.8-20.4,2.2-27.6,16.8-11.8c3.3,4.1,10.4,0.8,9.4-4.3
		c-1.4-29.9,27.4-2.7,48,30.1C125.3,775.6,124.8,812,104.1,825z M292.7,827.9c-69.2,2.8-133.3-6.9-150.8-13.5
		c-4.8-1.6-9.4-3.6-13.8-6c11.2-38.2-17.3-88.4-52.1-114.1c9-38.2,41.6-68.9,80.3-75.6c2.9-0.5,4.9-3.3,4.4-6.3l0,0
		c-2.2-12.3-38.5,6.3-45,10.4v-138c16.9,15.4,45.6,19.3,66.2,8.4l45.2,11.7c9.4-19.8,10.9-42.5,4.1-63.3l-15.8,4.4
		c6.8-47.8-47-84.3-88.8-60.9c13.3-36.8,37.7-68.5,70-90.6c103.4-22.8,199.9,49.8,198.6,160.3c-0.2,52.5-37.6,94.6-70.6,131.7
		c-32.4,36.5-60.3,67.9-42,99.4c19.4,28.2,71.8-1.4,103.5-17.3c-3.3,17-7.8,33.7-13.5,50c-0.1,0.1-0.2,0.1-0.3,0.2
		c-15.4-38.5-56,15.9-67.1,34.8C289.2,779,285.2,807.4,292.7,827.9z M389.3,806.8c-45.5,70.8-122.5,36.1-74.9-47.4
		c19.2-30.8,49.3-60.8,48-30.1c-0.9,5.2,6.1,8.4,9.4,4.3c2.2-2.5,11.4-11.1,16.4-8c4.7,3,2.3,14.8,0.5,19.8c-2,4.9,4.3,9.5,8.4,6.2
		C419.9,738.2,405.6,782.5,389.3,806.8z M495.7,453.7c-8.2,255.4-8.2,255.5-8.2,255.7c0,12.2-2.1,24.3-6.4,35.8
		c-13.5,34.5-47.7,54.6-81.5,65.6c6.2-10.2,30.1-51.8,15.3-67.8c-3.4-3.8-8.5-5.5-13.5-4.6c2.1-10.2-3-24.6-15.9-24.2
		c5.5-17.2,9.8-34.7,12.9-52.4c29.6-17.1,53.8-34.1,55.9-35.6c5.7-4.1-0.5-12.9-6.3-8.8c-12.2,8.7-33.6,22.7-56.7,35.9
		c-0.4,0.2-0.7,0.4-1.1,0.6c-33.7,19.2-71,36.3-89.8,32.3c-4-0.9-6.8-2.7-8.6-5.7c-14.4-24.7,10-52.1,40.8-86.8
		c33.3-37.5,70.8-79.9,73.1-134.3h0.2v-5.2c0.8-105.7-83.2-182.1-185-173.9C349.4,220.3,499.5,308.9,495.7,453.7L495.7,453.7z"/>
	<circle class="penguin_chef_no_crown-st2" cx="287.4" cy="414.7" r="19.1"/>
	<circle class="penguin_chef_no_crown-st2" cx="133.3" cy="420.4" r="19.8"/>
	<path class="penguin_chef_no_crown-st3" d="M222.4,399.2"/>
	<g id="Layer_2_1_">
		<path class="penguin_chef_no_crown-st2" d="M380.8,301.8c50.2,13.6,91.4,34.1,111,14.8c13.5-13.3,10.4-39,5-59.9c9.6-6.2,30.2-21.2,42.4-48.6
			c14.1-31.5,17-79-7-102.3c-34-33.1-89.8,13.6-142.9-21.7c-33.2-22.1-21.3-47.1-54-66.2C289.2-9.2,210.9,8.6,171,58.4
			c-15.6,19.4-22.3,39.8-25.4,53.9c-13.4-0.4-60.6-0.3-78.1,27.9C45.3,175.8,78,244.1,125.6,275.1
			C196,320.8,241.7,264.3,380.8,301.8z"/>
		<path d="M467,329.8c-15.3-0.6-33.8-6.4-54.8-13c-10.5-3.3-21.4-6.7-32.8-9.8l0,0c-68.1-18.4-113.9-13.9-150.6-10.2
			c-38.6,3.8-69,6.8-106.1-17.2C75.2,248.7,38.3,177,62.9,137.4c16.3-26.3,54.4-30.6,78.4-30.5c4.7-18.9,13.4-36.6,25.5-51.8
			C207.4,4.5,289-15.5,338,13.2c18,10.5,23.6,22.8,29.1,34.7c5.1,11.1,10,21.6,25.2,31.7c25.6,17.1,51.8,13.8,77.1,10.6
			c24.8-3.1,48.2-6.1,66.5,11.8c25.6,24.9,23.3,74.4,8.2,108.4c-9,19.8-23.2,36.7-41.2,48.8c6.9,29.2,4.4,49.8-7.4,61.4
			C488.1,327.8,478.4,330.3,467,329.8z M382.2,296.7c11.6,3.1,22.6,6.6,33.2,9.9c33.4,10.5,59.8,18.8,72.7,6.2
			c9.3-9.2,10.5-27.6,3.6-54.8l-1-3.7l3.3-2.1c12.6-8.1,29.9-22.7,40.4-46.3c13.9-31,15.5-75.6-5.9-96.3
			c-14.6-14.3-34.6-11.7-57.7-8.8c-26,3.3-55.4,7-84.4-12.3c-17.7-11.8-23.7-24.7-29-36.1c-5.2-11.3-9.8-21.1-24.8-29.9
			C287.8-3.8,212.7,15,175.1,61.8c-11.8,14.7-20,32.1-24.4,51.7l-1,4.3l-4.4-0.1c-17-0.5-58.3,1.1-73.4,25.4
			c-19.5,31.4,9.5,97,56.5,127.5c33.9,22,61.3,19.3,99.2,15.6C265.3,282.4,312.1,277.8,382.2,296.7L382.2,296.7z"/>
		<path class="penguin_chef_no_crown-st4" d="M464.8,298.6c-15-4.5-268.4-16.3-318.6-44.2c-28.3-15.7-64.5-48.8-58.6-78.6c3.3-16.5,18.4-26.5,19.6-27.2
			c30.3-19.3,63,12.3,84.8-3.5c17.1-12.5,4.4-37.8,19.1-73.5c11-26.5,31.2-45.8,53.5-60.1c-34,5-68.6,22.6-90.9,50.5
			c-15.2,19-21.8,38.9-24.9,52.6c-13.1-0.4-59.2-0.3-76.3,27.3C51,176.5,82.9,243.3,129.4,273.6c68.8,44.7,113.4-10.5,249.4,26.2
			c49.1,13.2,89.3,33.3,108.5,14.4c2-2,3.8-4.4,5.1-6.9C485.7,305,476.2,302,464.8,298.6z"/>
		<path class="penguin_chef_no_crown-st2" d="M134.5,354.6c0,0,183-50.3,359.9,42c-1.4-28.6-2.7-57.2-4.1-85.7c-106-68.3-239-79.7-355.1-30.4L134.5,354.6z
			"/>
		<path d="M495.4,398.1l-1.4-0.7c-91.2-47.6-184-56.5-245.8-55.5c-67,1-113,13.5-113.5,13.6l-1.1,0.3l0.8-75.9l0.5-0.2
			c116.4-49.4,249.7-37.9,356,30.5l0.4,0.2l0,0.5L495.4,398.1z M278.8,340.4c59.6,2.3,137.7,14.8,214.7,54.6l-4-83.7
			c-54-34.5-115.8-55-179.7-59.4c-3.6-0.2-7.3-0.4-11-0.6c-55.7-2.1-111.3,8-162.7,29.7l-0.7,72.4c7.5-1.9,51.3-12.4,112.7-13.4
			C257.6,339.9,267.9,340,278.8,340.4z"/>
		<path class="penguin_chef_no_crown-st4" d="M171.1,350.6c-12.2,1.3-24.4,2.6-36.6,3.9l0.8-75.7c15.3-4.9,30.6-9.7,45.9-14.6c0.9,15.2,0.4,30.4-1.5,45.5
			C178,323.6,175.2,337.3,171.1,350.6z"/>
		<path d="M499.3,404.1l-6.9-3.6c-173.3-90.4-354.9-42.1-356.7-41.7l-5.7,1.6l0.8-83l2.7-1.1c117.5-49.8,252-38.3,359.3,30.8
			l1.9,1.2L499.3,404.1z M279.8,337.1c61.8,2.4,136.3,15.2,209.9,52l-3.6-75.7c-103.7-65.9-232.9-77.1-346.4-30l-0.7,65.5
			C156.1,345,209.7,334.4,279.8,337.1L279.8,337.1z"/>
		<path d="M500.2,405.6l-8.3-4.3c-172.9-90.2-354.2-42.1-356-41.6l-6.8,1.9l0.8-84.8l3.2-1.4c117.7-49.9,252.6-38.4,360.1,30.9
			l2.3,1.5l0,0.5L500.2,405.6z M279.4,345.1c62.7,2.4,138.8,15.7,213.4,54.6l5.5,2.9l-4.5-93.8l-1.5-1
			c-107-68.9-241.2-80.4-358.4-30.7l-2.1,0.9l-0.8,81.2l4.6-1.3C136.5,357.7,196.2,341.9,279.4,345.1z M490.6,390.6l-1.4-0.7
			C426.4,358.4,355.9,341,279.7,338c-70.8-2.8-125.4,8.3-140.5,11.7l-1.1,0.3l0.7-67.2l0.5-0.2c113.7-47.2,243.3-36,347.2,30.1
			l0.4,0.2l0,0.5L490.6,390.6z M279.8,336.2c75.9,3,146.2,20.2,208.9,51.4l-3.5-73.8C382,248.5,253.5,237.3,140.6,284l-0.6,63.8
			C156.5,344.1,210.4,333.5,279.8,336.2L279.8,336.2z"/>
	</g>
</g>
</svg>
