<?xml version="1.0" encoding="utf-8"?>
<!-- Generator: Adobe Illustrator 25.2.3, SVG Export Plug-In . SVG Version: 6.00 Build 0)  -->
<svg version="1.1" id="PefiLeon" xmlns="http://www.w3.org/2000/svg" xmlns:xlink="http://www.w3.org/1999/xlink" x="0px" y="0px"
	 viewBox="0 0 626.8 837.2" style="enable-background:new 0 0 626.8 837.2;" xml:space="preserve">
<style type="text/css">
	.penguin_lydian_with_crown-st0{fill:#A51C1C;}
	.penguin_lydian_with_crown-st1{fill:#F2AA3D;stroke:#000000;stroke-width:11;stroke-miterlimit:10;}
	.penguin_lydian_with_crown-st2{fill:#B26F1F;}
	.penguin_lydian_with_crown-st3{fill:#F2AA3D;stroke:#F2AA3D;stroke-miterlimit:10;}
	.penguin_lydian_with_crown-st4{fill:#C68836;}
	.penguin_lydian_with_crown-st5{fill:#F2AA3D;}
	.penguin_lydian_with_crown-st6{fill:#FFD2A1;}
	.penguin_lydian_with_crown-st7{fill:#FFD2A1;stroke:#000000;stroke-width:9;stroke-miterlimit:10;}
	.penguin_lydian_with_crown-st8{fill:#966229;}
	.penguin_lydian_with_crown-st9{fill:#925825;}
	.penguin_lydian_with_crown-st10{fill:#FFFFFF;}
	.penguin_lydian_with_crown-st11{fill:none;stroke:#000000;stroke-width:11;stroke-miterlimit:10;}
	.penguin_lydian_with_crown-st12{fill:#C57F00;}
	.penguin_lydian_with_crown-st13{opacity:0.4;fill:#8D5D15;enable-background:new    ;}
	.penguin_lydian_with_crown-st14{fill:#A56921;}
	.penguin_lydian_with_crown-st15{fill:#8D5D15;}
	.penguin_lydian_with_crown-st16{fill:#FFB700;}
	.penguin_lydian_with_crown-st17{fill:#6FBE44;}
	.penguin_lydian_with_crown-st18{fill:#65AB45;}
	.penguin_lydian_with_crown-st19{fill:#D4F4D0;}
</style>
<g id="Color">
	<g id="color">
		<g>
			<path class="penguin_lydian_with_crown-st0" d="M405.8,471.5c-12.9,37-40.5,68.1-65.6,96.5c-30.7,34.6-55,62-40.7,86.6c1.7,2.9,4.5,4.8,8.5,5.7
				c18.7,4,55.9-13.1,89.6-32.2c0.3-0.3,0.7-0.5,1.1-0.6c23.1-13.2,44.4-27.2,56.6-35.9c5.8-4.1,12,4.7,6.3,8.8
				c-2.1,1.5-26.2,18.5-55.8,35.5c-3.1,17.7-7.4,35.2-12.9,52.3c12.8-0.4,17.9,13.9,15.8,24.1c5-0.9,10.1,0.8,13.4,4.6
				c14.7,15.9-9.1,57.5-15.3,67.7c33.7-11,67.9-31.1,81.4-65.5c4.3-11.4,6.5-23.5,6.4-35.7c0-0.1,0-0.2,6.8-211.9L405.8,471.5
				L405.8,471.5z"/>
		</g>
		<path id="color-4" class="penguin_lydian_with_crown-st0" d="M160.6,449.2l70.5-19.5c2.3,12.3,1.4,25.1-2.7,37L160.6,449.2z"/>
	</g>
</g>
<g id="Shape">
	<g id="Layer_8">
		<path class="penguin_lydian_with_crown-st1" d="M556.8,630c-2.3,9.8-9.1,33.3-30.2,54.1c-19.6,19.3-41.1,26.2-50.9,28.7l-20.5-20.5
			c9.8-2.5,31.3-9.4,50.9-28.7c21.1-20.8,27.9-44.3,30.2-54.1L556.8,630z"/>
		<g>
			<path class="penguin_lydian_with_crown-st2" d="M549,634.1c-0.9,0-1.8-0.2-2.7-0.5c-6.8-2.6-11.9-6.4-15.2-11.4c-8.7-13.1-5.1-34.2,8.2-52.8
				c0.3,0.6,0.6,1.2,0.8,1.8l4.1,9l5-7.8c7-11,18.9-18.6,31.8-20.4c1.9-0.3,3.9-0.4,5.8-0.4c7.5,0,14.9,1.9,21.4,5.3
				c-7.9,1.9-16.1,4.8-22.3,11.4l-5.7,6l7.9,2.3c0.7,0.2,6.8,1.9,13.1,3.6c-2.3,1.2-4.6,2.5-6.6,3.7c-15.1,8.7-15.8,10.2-16.4,11.4
				l-4.4,9.6l10.4-2.6c3.3-0.9,7-1.9,11.2-3.1c-3.7,8.3-10.5,19.1-22.7,26.7c-6.8,4.2-14.4,7-22.5,8.1
				C549.8,634,549.4,634.1,549,634.1z"/>
			<path d="M587,556.8c2,0,4,0.2,6,0.5c-3.8,1.9-7.4,4.4-10.6,7.8L571,577l15.9,4.6c0,0,0.6,0.2,1.5,0.4
				c-12.7,7.5-13.4,9.1-14.5,11.4l-8.7,19.2l20-5.3c-3.6,5.1-8.5,10.3-15.1,14.4c-6.2,3.9-13.1,6.4-20.6,7.4c-0.2,0-0.3,0-0.5,0
				c-0.3,0-0.6,0-1-0.2c-5.8-2.2-10.1-5.4-12.7-9.4c-3.9-5.8-4.9-14.2-2.9-23.5c1.2-5.3,3.3-10.7,6.2-16l4.9,10.8l9.9-15.6
				c6.2-9.8,16.8-16.6,28.3-18.1C583.5,556.9,585.2,556.8,587,556.8L587,556.8 M587,546.8c-2.2,0-4.4,0.1-6.5,0.4
				c-14.3,2-27.6,10.5-35.4,22.7c-2.1-4.6-4.2-9-2.7-11.9c-21,22.8-26.4,50.5-15.3,67.1c2.3,3.4,7.2,9.3,17.6,13.3l0,0
				c1.4,0.5,2.9,0.8,4.4,0.8c0.6,0,1.2,0,1.9-0.1c6.4-0.9,15.3-3.1,24.5-8.8c20.3-12.6,26.5-33,28-38.5l0,0
				c-9.1,2.7-15.7,4.6-20.4,5.8c0.6-1.3,26.4-16.9,33.5-18.3c-1.2-0.2-23.9-6.4-26.8-7.2c8.1-8.5,20.6-10,31-12.4
				C611.5,551.3,599.2,546.8,587,546.8L587,546.8z M616.5,579.1C616.4,579.1,616.4,579.1,616.5,579.1
				C616.4,579.1,616.5,579.1,616.5,579.1L616.5,579.1L616.5,579.1z"/>
		</g>
	</g>
	<g id="Layer_6">
		<path class="penguin_lydian_with_crown-st3" d="M417.1,468.2l-0.9-1.5l-5.1,1.5h-4.2c-0.2,0.5-0.3,0.9-0.5,1.4l-10.2,3.1l-24.8,25.5l-12.9,10.4
			c-13.3,7.5-32.2,18.2-33.4,19.1l-0.1,0.1c-65.5,39.1-143.5,20.3-206.8-44.3l5.1,113.9c6.5-4,42.7-22.6,44.9-10.4l0,0
			c0.5,2.9-1.4,5.7-4.4,6.3c-38.6,6.6-71.2,37.3-80.1,75.4c34.7,25.7,63.1,75.7,52,113.9c4.4,2.3,9,4.3,13.8,5.9
			c17.5,6.6,81.5,16.2,150.6,13.4c-0.6-1.8-1.2-3.6-1.7-5.5c1.9,0.2,3.8,0.4,5.8,0.6c1.8,0.3,3.6,0.6,5.4,0.8
			c11.1,29.1,52.5,30.4,82.7-11c5.2-0.4,10.3-1.5,15.2-3.5c-0.3,0.5-0.6,1-0.9,1.4c33.7-11,67.9-31.1,81.4-65.5
			c4.3-11.4,6.5-23.5,6.4-35.7c0-0.1,0-0.2,6.9-215.5h-84.2V468.2z M397.6,628.3c0.3-0.3,0.7-0.5,1.1-0.6
			c23.1-13.2,44.4-27.2,56.6-35.9c5.8-4.1,12,4.7,6.3,8.8c-2.1,1.5-26.2,18.5-55.8,35.5l-12.3,6.9c-31.6,15.9-83.9,45.4-103.3,17.2
			c-13.7-23.5-1.5-47,19-72.5l2.5,1.9l9.6,0.3c-3.2,3.8-6.2,7.6-9,11.3c9.7,2.9,18.5,8.3,25.6,15.6c8.7,9.1,14.3,20.7,16.1,33.2"/>
		<g>
			<path class="penguin_lydian_with_crown-st4" d="M455.2,586.1c-12.2,8.7-33.5,22.7-56.6,35.9c-0.4,0.2-0.8,0.4-1.1,0.6c-13.3,7.5-27.1,14.7-40.1,20.5v11.8
				c12.9-5.6,25.5-12.3,35.9-17.5l12.3-6.9c29.6-17,53.7-34,55.8-35.5C467.2,590.8,461,582,455.2,586.1z"/>
			<path class="penguin_lydian_with_crown-st5" d="M91.1,663.6c-3.1,6.4-5.5,13.1-7.2,20c25.8,19,48.1,51.6,53.3,82.7C143.8,731.7,120.8,689.1,91.1,663.6z"/>
			<path class="penguin_lydian_with_crown-st4" d="M493.8,680.1c-1,7.8-2.9,15.5-5.6,22.9c-13.5,34.4-47.7,54.5-81.4,65.5c0.3-0.4,0.5-0.9,0.9-1.4
				c-4.9,1.9-10,3.1-15.2,3.5c-30.3,41.4-71.6,40.1-82.7,11c-1.8-0.2-3.6-0.5-5.4-0.8c-1.9-0.2-3.8-0.4-5.8-0.6
				c0.5,1.8,1,3.7,1.7,5.5c-69.1,2.8-133.1-6.9-150.6-13.4c-4-1.4-7.8-3-11.6-4.9c0.8,8.5-3.8,17.3-6.1,25.1
				c4.4,2.3,13,3.9,17.7,5.5c17.5,6.6,81.5,16.2,150.6,13.4c-0.6-1.8-1.2-3.6-1.7-5.5c1.9,0.2,3.8,0.4,5.8,0.6
				c1.8,0.3,3.6,0.6,5.4,0.8c11.1,29.1,52.5,30.4,82.7-11c5.2-0.4,10.3-1.5,15.2-3.5c-0.3,0.5-0.6,1-0.9,1.4
				c33.7-11,67.9-31.1,81.4-65.5c4.3-11.4,6.5-23.5,6.4-35.7c0,0,0-0.1,0.4-13h-1.2V680.1z"/>
			<path class="penguin_lydian_with_crown-st5" d="M168.4,576.1L168.4,576.1c-2.2-12.3-38.5,6.3-44.9,10.4l-0.1-2c-0.1,0.1-0.1,0.1-0.2,0.2
				c-0.3,0.3-0.6,0.5-0.9,0.7l0.7,14.5c12.1-8.8,26.2-15,41.1-17.6C167,581.9,168.9,579.1,168.4,576.1z"/>
		</g>
	</g>
	<path d="M352.3,654.8c-1.2-13.7-7-26.5-16.5-36.5c-7.9-8.1-17.9-13.8-28.9-16.5l2.6-10.7c13,3.2,24.9,9.9,34.2,19.5
		c11.2,11.7,18.1,26.9,19.5,43.1L352.3,654.8z"/>
	<path class="penguin_lydian_with_crown-st6" d="M375.2,699c-5.7-19.1-14.8-14.5-26-2.7c-9.7,4.5-23.1,20.2-28.7,29.2c-24.1,32.8-29.9,101.3,26.3,99
		c22.5-3.1,40.6-22.2,53.3-39.2c8.3-15,40.5-72.6,2.6-65.1C405.6,698.7,396.4,687.2,375.2,699z"/>
	<path class="penguin_lydian_with_crown-st6" d="M59.9,688.7c-7.7-7.1-20.1-15.7-27.5-3.5c0.5,4.9-0.1,14-3.2,18.1c-36.9-1.6,0.8,50.6,4.7,64.9
		c8.2,11.6,27.9,31.2,39.5,39.4c72.3,12.7,69.4-63.2,35.9-105.1C98.8,686.5,62.2,648.5,59.9,688.7z"/>
	<g>
		<path class="penguin_lydian_with_crown-st5" d="M87.4,341.2c4-9.9,11.2-24.2,23.9-38.5c11.6-13.1,23.6-21.6,32.3-26.8c0.3-0.4,2-2.4,1.8-5.4
			c-0.1-1.9-1-3.7-2.6-5.1l-8.4-7.2c-21.2-18.2-53.1-15.8-71.3,5.3l0,0c-18.2,21.2-15.8,53.1,5.3,71.3l8.4,7.2
			C80,344.6,84.7,344.3,87.4,341.2z"/>
		<path class="penguin_lydian_with_crown-st4" d="M81.1,319.6c-0.3-0.2-0.5-0.4-0.8-0.6l-8.4-7.2c-10.5-9-16.3-21.4-17.4-34.1c-7.8,19.5-2.8,42.6,14,57
			l4.2,3.6C74.8,331.8,77.7,325.6,81.1,319.6z"/>
		<path d="M81.7,349.3c-3.1,0-6.1-1.1-8.4-3.1l-8.4-7.2c-11.4-9.8-18.2-23.4-19.3-38.3s3.6-29.4,13.4-40.8
			c20.2-23.4,55.6-26.1,79.1-5.9l8.4,7.2c2.6,2.3,4.2,5.4,4.5,8.9c0.4,4.8-2,8.2-3.1,9.4l-0.6,0.7l-0.8,0.5
			c-11.6,6.9-22.1,15.6-31,25.7c-9.7,11-17.4,23.4-23,37l-0.3,0.8l-0.6,0.7c-2.3,2.6-5.4,4.2-8.8,4.5
			C82.4,349.2,82.1,349.3,81.7,349.3z M101.6,251.4c-12.7,0-25.3,5.3-34.2,15.6c-7.9,9.1-11.7,20.8-10.8,32.8s6.4,22.9,15.5,30.8
			l8.4,7.2c0.5,0.5,1.1,0.5,1.4,0.5c0.2,0,0.5-0.1,0.9-0.3c6-14.3,14.2-27.4,24.4-39c9.4-10.7,20.4-19.9,32.6-27.3
			c0.1-0.2,0.2-0.6,0.2-0.9s-0.1-0.9-0.7-1.3l-8.4-7.2C122.4,255,112,251.4,101.6,251.4z"/>
	</g>
	<path class="penguin_lydian_with_crown-st7" d="M96,322.4c2.1-5.2,5.9-12.7,12.5-20.2c6.1-6.9,12.4-11.3,16.9-14.1c0.2-0.2,1.1-1.3,0.9-2.8
		c-0.1-1-0.5-2-1.3-2.7l-4.4-3.8c-11.1-9.5-27.8-8.3-37.4,2.8l0,0c-9.5,11.1-8.3,27.8,2.8,37.4l4.4,3.8
		C92.1,324.2,94.5,324,96,322.4z"/>
	<path class="penguin_lydian_with_crown-st2" d="M552.6,399C550,357.7,524,258,431,231.3l-9.4,2.6l-3.6-15.1c-2.4-10.2-28.7-39-85.5-48.1
		c-36.3-5.8-64.4-2.3-91,3.4c-13.7,2.9-50.5,15.9-80.7,26.9c-12.4,4.5-12.2,22.2,0.4,26.4c0.1,0,0.1,0,0.2,0.1
		c-43.9,32.6-77,74.8-95.6,126.2C50.5,396.1,46.1,450.2,45,487c10.5-14.4,21-28.9,31.5-43.3c-6.6,33.3-6.3,77.2,10.1,106.9
		c1.9-13.4,6.3-26.4,12.9-38.2c4.3,28.2,27.5,45.7,50.3,62.9c22.7,17.2,51.4,28,71.1,48.7l2.1-1.2c35.7-29.4,86.8-24.6,128-42.7
		c20.8-9.1,39.8-25.4,45.8-47.3c5.5,11.8,5.8,25.9,0.6,37.8c35-10.6,64.5-39.9,65.3-76.5c20.4,31.6,24,56,22,71.5
		c12.7-15.8,31.9-43.8,43.2-83.5c12.6-44.3,6.1-87.2,2.8-107.8L552.6,399z M229.8,467.5l-70.9-18.3l73.8-20.4
		C235.2,441.7,234.2,455.1,229.8,467.5z"/>
	<g>
		<path class="penguin_lydian_with_crown-st8" d="M73,496.7c0.3-25.2,8.7-53.4,13.1-75.6c-9.2,12.6-33.7,34-39.7,39.1c-0.7,9.6-1.1,18.6-1.3,26.7
			c10.5-14.4,21-28.9,31.5-43.3C73.5,459.8,71.9,478.4,73,496.7z"/>
		<path class="penguin_lydian_with_crown-st9" d="M499.6,545.1c-0.8,1.2-1.7,2.3-2.5,3.3C497.8,547.7,498.8,546.6,499.6,545.1c8.6-15.1-7.7-43.2-27-58.6
			c-5.4-4.3-10.5-7.2-14.3-9c1,6.4,1.2,27.2-9.7,50.8c-6.7,14.7-17.8,26.1-35.3,31.4c10.4-22.9-18.1-42-18.1-42
			c-5.9,21.9-23.4,27.7-44.1,36.8c-41.3,18.1-92.4,13.3-128,42.7l-2.1,1.2c-19.6-20.7-48.3-31.5-71.1-48.7
			c-22.7-17.2-43.1-25.4-47.4-53.7c0,0-20.7,14.9-22.3,34.9c-1.5-2.7-2.7-5.6-3.7-8.5c2.3,10.2,5.6,19.7,10.2,28.2
			c1.9-13.4,6.3-26.4,12.9-38.2c4.3,28.2,27.5,45.7,50.3,62.9c22.7,17.2,51.4,28,71.1,48.7l2.1-1.2c35.7-29.4,86.8-24.6,128-42.7
			c20.8-9.1,39.8-25.4,45.8-47.3c5.5,11.8,5.8,25.9,0.6,37.8c35-10.6,64.5-39.9,65.3-76.5c20.4,31.6,24,56,22,71.5
			C489.2,560.3,494.3,553.4,499.6,545.1z"/>
	</g>
	<path class="penguin_lydian_with_crown-st10" d="M189.6,467.8c-5.6,2.1-18.8,6.2-35.4,3.2c-17.2-3.1-28.4-12.2-32.8-16.2c-1.1,6.6-2,17.4,2.1,29.1
		c6.4,18.3,21,27.8,35.3,36.4c13.5,8,37.4,19.7,71.8,23.9c9.8-0.1,19.6-0.1,29.4-0.2c7.9-0.5,20-1.8,34.2-5.7c0.5-0.1,2-0.6,4.1-1.2
		c7.8-2.4,30.7-9.4,50.6-20.7c13.7-7.8,29.4-16.6,41.3-33.9c13.6-19.7,15.1-40.1,16-53.7c3.9-62.6-34.7-110-36.4-112.1
		C312.2,247.9,216,262.2,211,263c-12.8,7-34,20.7-52.5,45c-15.3,20.2-22.9,39.9-26.7,52.9c3.7-1.2,32.5-9.8,60,8.2
		c27.3,17.8,31.1,47.4,31.5,51.3L239,416c6.8,20.8,5.3,43.4-4.1,63.1L189.6,467.8z"/>
	<g id="Layer_2_1_">
		<path d="M413.3,428.8c1.2-104.9-83.5-182.1-184.6-173.6c-54.8,3.9-95.7,65.2-109,115.7c-19.7,18.7-23.1,54.1-6.9,76.4l0.4,12.9
			c0.4,13.9,5.3,27.4,14,38.3c68.9,85.6,228.5,55.6,279.6-28.9l2.9-9.8l-0.2-0.1c2.1-8.3,3.4-16.9,3.8-25.8h0.2
			C413.3,433.6,413.4,429,413.3,428.8z M399,456.8l-2.5,8.5c-11.7,20-33.4,38.5-61.1,52.2c-66.8,34.3-162.5,30.8-205.4-33.3
			c-4.1-5.7-6.2-12.6-6.4-19.6l-0.1-5.1c16.9,15.3,45.5,19.2,66.1,8.4l45.1,11.6c9.4-19.7,10.9-42.3,4.1-63.1l-15.7,4.4
			c6.8-47.7-46.9-84.2-88.6-60.8c8.4-23.2,21.2-44.3,37.7-62.4l0,0c13-13.9,27.8-28.6,47.7-30.8C328.3,251.8,421.7,345.1,399,456.8
			L399,456.8z M160.6,449.2l70.5-19.5c2.3,12.3,1.4,25.1-2.7,37L160.6,449.2z"/>
	</g>
	<circle cx="316" cy="407" r="58.5"/>
	<path d="M510.3,531c-1.9,2.7-4.1,5.3-6.3,7.7c-1,1.1-2.2,1.6-3.3,1.6c-0.5,0.5-1,0.8-1.6,1.1c-1.4,44.5-2.8,87.9-4.3,132.6l0,0
		c-0.1,3.2-0.2,6.4-0.3,9.5c0.2,23.7-8.3,47.6-25.1,64.6l0,0c-17,17.7-39.6,29-62.7,36.6c0.1-0.1,0.2-0.2,0.2-0.4c0,0,0,0-0.1,0
		c6.3-10.3,30-51.7,15.3-67.5c-3.4-3.8-8.5-5.5-13.5-4.6c1-7.4,0.3-16.8-7.5-21.7c-7.1-4.5-15.2-1.9-21.6,2.4
		c-1.6-5.8-5.2-11.2-12.6-12.9c-19.4-4.3-44.7,31.8-54.7,47.5c-11.1,17.4-16.9,36.8-16.3,54.5c0.2,7.3,1.5,13.9,3.8,19.9
		c-39.1,1.7-82.8-1.2-111-5.3c-13.1-2-26.8-3.9-39.2-8.2c-4.7-1.6-9.3-3.6-13.8-5.9c11.4-41.4-19.7-89.9-52-113.9
		c8.9-38,41.5-68.8,80.1-75.4c2.9-0.5,4.9-3.3,4.4-6.3l0,0c-2.2-12.3-38.5,6.3-44.9,10.4v-43.6c-4-3.8-7.7-7.8-11.1-12.1
		c-7.8,8.8-37.3,46-26.3,93.6c-2.3,3.9-4.4,8-6.3,12.1l0,0c-2.5,5.6-4.5,11.4-6,17.3c-8.4-2-17.1,5.1-18.6,12.9
		c-14.9-11.3-32.6-1-29,19.4c-4.9-0.9-10.1,0.9-13.5,4.6C-3.4,720,25.8,765.6,28.9,771c24.6,40.3,78.6,62.4,102.7,21.5
		c4.6,2.3,9.3,4.4,14.2,6.1c14.7,7.4,107.5,17.9,159.5,13.8c1.5,2.1,3.2,4.1,5.1,5.9c24.5,24.4,65.7,6.3,85.8-19.2
		c55-13.9,110.4-51.7,109-115.5C507,633.6,508.7,581.7,510.3,531z M97.6,591.7c3.5-12.7,8.5-22.8,15.1-32.8v45.8c-3,2.6-6.2,5.1-9,8
		c-3.1,3.1-6.1,6.3-8.8,9.7C93.9,611.4,95.1,601,97.6,591.7z M38.3,765.2c-11.4-15.8-33.5-68.9-7.7-55.1c4.2,3.4,10.4-1.5,8.4-6.1
		c-5.5-14.8-1.5-30.6,16.8-11.8c3.4,4.1,10.4,0.7,9.4-4.3c-2.2-39.6,48,21.8,57,48.2c2.9,7.7,4.8,15.7,5.4,23.8
		C130.5,819.6,68.6,814.4,38.3,765.2z M342.8,818.7c-11.7,0.5-22.8-4.1-29.4-14c-3.9-6.1-6.1-13.9-6.4-23
		c-0.5-15.6,4.7-32.8,14.6-48.4l0,0c19-29.9,36.4-44.3,43.2-42.9c6.5,1.5,5,12.7,5,12.8c-0.2,1.8,0.4,3.5,1.8,4.7
		c2.2,2,5.6,1.8,7.6-0.4c2.2-2.5,11.4-11.2,16.5-8c4.8,3,2.4,14.6,0.5,19.8c-0.8,2.2,0,4.7,1.9,6.1c1.9,1.4,4.6,1.4,6.5,0
		c0,0,6.7-4.9,10-1.3c5.9,6.4-2,31.7-17.7,56.4C382.4,803.1,361.2,817.3,342.8,818.7z"/>
	<path d="M455.3,591.6c-0.7,0.5-1.4,1-2.1,1.5c-17.9,12.4-35.1,23.2-54.4,34.4c-0.4,0.2-0.8,0.4-1.1,0.6
		c-22.5,12.5-45.5,25-70.6,31.2c-9.4,2.1-24.4,4.2-28.7-6.7c-2.3-4.6-3.3-9.7-3.1-14.8c1-14.7,9.9-27.2,18.5-38.7
		c3.4-4.3,6.8-8.5,10.4-12.7c-5.8,1.5-11.6,2.6-17.4,4.1c-3.3,4.3-6.5,8.6-9.6,13.3c-11.3,17-18.4,37.3-7,56.2
		c18.8,27,67.9,0.2,90.4-10.7l0,0c4.6-2.3,8.9-4.5,12.9-6.5c17.2-9.3,39.9-23.3,52.3-31.6l0,0c5.6-3.8,11.5-7.4,16.8-11.6
		C466.5,595.3,460.7,587.8,455.3,591.6z"/>
	<g id="Layer_7">
		<path class="penguin_lydian_with_crown-st11" d="M530.4,374.2l21.8,24.7c-2.6-41.3-28.6-140.9-121.5-167.6l-9.3,2.6l-3.6-15c-2.4-10.2-28.7-39-85.4-48
			c-36.3-5.8-64.4-2.3-90.9,3.4c-18.7,4-58.5,25.7-77,36.1c-4.6,2.6-7.2,7.9-6.1,13.1c0.4,1.7,1.1,3.2,3.1,3.9
			c-43.9,32.6-77,74.7-95.5,126.1C50.7,396,46.3,450,45.2,486.8c10.5-14.4,21-28.8,31.5-43.3c-6.6,33.3-6.3,77.2,10.1,106.9
			c1.9-13.4,6.3-26.4,12.9-38.2c4.3,28.2,27.5,45.6,50.3,62.8c22.7,17.2,51.4,28,71,48.7l2.1-1.2c35.7-29.4,86.7-24.6,127.9-42.7
			c20.8-9.1,39.8-25.4,45.7-47.2c5.5,11.7,5.7,25.9,0.6,37.8c35-10.6,64.4-39.9,65.3-76.4c20.3,31.6,24,56,22,71.4
			c12.7-15.8,31.9-43.8,43.1-83.5C540.2,437.7,533.8,394.8,530.4,374.2z"/>
	</g>
	<path class="penguin_lydian_with_crown-st4" d="M97.6,591.7c3.5-12.7,8.5-22.8,15.1-32.8v45.8c-3,2.6-6.2,5.1-9,8c-3.1,3.1-6.1,6.3-8.8,9.7
		C93.9,611.4,95.1,601,97.6,591.7z"/>
	<g id="Layer_2_2_">
		<path class="penguin_lydian_with_crown-st12" d="M475.6,119c-8.4,17.3-11.4,37.1-12.5,44.6c-0.2,1.3-0.3,2.3-0.4,2.7c-0.1,0.2-0.1,0.5-0.1,0.7l-2.6,26.5
			l-151-14.9l-2.5-0.2l-151-14.9l2.6-26.5c0.1-0.2,0.1-0.5,0.1-0.7c0-0.5,0-1.4,0.1-2.8c0.4-7.6,1.3-27.6-3.6-46.2
			c-4.4-16.8-19.5-52.5-26.6-68.9c1.6,1.2,3.6,2.7,6,4.6c4.2,3.4,9.3,5.2,14.2,6.9c9.8,3.4,19,6.7,24.6,21.4
			c5.2,13.9,0.9,20.5-3.3,26.9c-2.6,4-5.3,8.1-5.4,13.5c0,1.3-0.1,2.7-0.1,4.2c-0.1,2.6-0.2,5.5-0.2,8.4c0,1.4,0.9,2.6,2.2,2.9
			c1.3,0.4,2.7-0.2,3.4-1.4l0.3-0.6c0.1-0.2,0.2-0.3,0.3-0.5c1.8-2.4,4.1-4.3,6.7-5.7c8.1-4.6,17.8-5.3,26.4-1.7
			c4.1,1.6,7.6,4.4,10.1,8c2.5,3.8,3.3,8.5,2.2,12.9c-1,3.8-4.2,6.6-8.1,7.2c-4.3,0.5-7.2-0.2-8.9-1.9c-2.2-2.3-1.7-6-1.7-6
			c0.2-1.2-0.4-2.3-1.4-3c-1-0.6-2.3-0.7-3.3,0c-4.4,2.7-11.3,10.4-6.4,20.8c2,4.2,6.8,7,14.4,8.4l48.4,4.8
			c11.2,1.1,18.4-0.5,22.1-4.8c2.6-2.9,4-6.7,3.7-10.6c-0.6-6.6-6.1-11.1-6.4-11.4c-0.9-0.7-2.1-0.9-3.2-0.4c-1,0.5-1.7,1.5-1.8,2.6
			c-0.2,2-1.2,3.8-2.8,5.1c-2.4,1.7-6.3,1.8-11.5,0.3c-4.2-1.1-7.3-4.6-7.9-8.8c-0.4-4.1,1.5-8.7,5.1-11.9c3.8-3.2,8.4-5.2,13.2-5.8
			c10.6-1.7,21.4,1,30,7.4c2.6,1.9,4.8,4.3,6.4,7.1c1.2,2.4,1.9,5.1,2.1,7.8c0.1,1.4,1.3,2.6,2.7,2.7c1.5,0.2,2.9-0.7,3.2-2.1
			c2.2-7,0-14.5-5.9-20.6c-2.5-2.6-5.3-5-8.1-7.4c-8-6.9-14.8-12.8-14-21.3c1.7-17.6,14-21.6,24.9-25.2c4.1-1.3,8.1-2.6,11-4.6
			c3.8-2.7,7.2-6,10-9.8c2,4.3,4.6,8.2,7.9,11.5c2.5,2.5,6.1,4.5,9.9,6.6c10,5.6,21.3,11.9,19.5,29.6c-0.9,8.5-8.8,13-17.9,18.1
			c-3.1,1.8-6.3,3.6-9.3,5.6c-6.9,4.8-10.5,11.7-9.7,19c0.1,1.5,1.3,2.7,2.8,2.7c1.4,0.1,2.8-0.8,3.2-2.1c0.7-2.6,1.9-5.1,3.5-7.2
			c2.1-2.4,4.8-4.4,7.7-5.7c9.7-4.6,20.8-5.1,30.9-1.4c4.6,1.6,8.8,4.5,11.8,8.3c2.9,3.9,3.9,8.7,2.7,12.7c-1.5,4-5.2,6.8-9.5,7.1
			c-5.3,0.4-9.2-0.4-11.2-2.5c-1.3-1.5-1.9-3.5-1.7-5.5c0.2-1.1-0.3-2.3-1.2-2.9c-0.9-0.7-2.2-0.8-3.2-0.2c-0.3,0.1-6.6,3.5-8.5,9.9
			c-1.1,3.8-0.5,7.8,1.5,11.1c2.7,4.9,9.5,7.9,20.7,9l48.4,4.8c7.7,0.2,13-1.6,15.7-5.4c6.8-9.2,1.6-18.2-2.2-21.6
			c-0.9-0.8-2.1-1-3.2-0.6s-1.8,1.5-1.9,2.6c0,0-0.2,3.8-2.8,5.6c-2,1.4-5.1,1.4-9.1,0.1c-3.7-1.3-6.3-4.7-6.6-8.6
			c-0.2-4.5,1.5-9,4.7-12.2c3.1-3.1,7.1-5.1,11.4-5.9c9.1-1.8,18.6,0.8,25.6,6.9c2.3,1.9,4.2,4.2,5.5,6.9c0.1,0.2,0.1,0.4,0.2,0.5
			l0.2,0.6c0.5,1.3,1.7,2.1,3.1,2s2.5-1.1,2.8-2.4c0.6-2.9,1.1-5.7,1.5-8.3c0.2-1.5,0.5-2.8,0.7-4.1c1-5.3-0.9-9.9-2.7-14.3
			c-2.9-7.1-5.8-14.4,2-27c8.3-13.4,18-14.8,28.3-16.2c5.2-0.7,10.5-1.5,15.3-4c2.7-1.4,4.9-2.5,6.8-3.3
			C505,71.3,483.2,103.4,475.6,119z"/>
		<polygon class="penguin_lydian_with_crown-st12" points="308.4,183.7 305.9,183.5 154.9,168.6 153.5,183.6 149.7,221.4 148.3,236.4 299.2,251.3 301.8,251.5 
			452.7,266.4 454.2,251.4 457.9,213.6 459.4,198.6 		"/>
		<polygon class="penguin_lydian_with_crown-st13" points="338.2,257.9 363.7,187 460.5,197 457.4,266.6 		"/>
		<polygon class="penguin_lydian_with_crown-st14" points="346.5,258.8 372,187.9 463,202.9 457.4,266.6 		"/>
		<polygon class="penguin_lydian_with_crown-st15" points="455.6,260.2 147.4,226.2 456.3,253 		"/>
		<polygon class="penguin_lydian_with_crown-st15" points="458.9,204 149.1,167.5 460,193.2 		"/>
		<path class="penguin_lydian_with_crown-st15" d="M453.3,79.1c5.7-9,12.1-13.1,18.8-15.1c-5.2,3.3-9.5,7.7-12.6,13c-9.4,15.2-5.6,24.8-2.5,32.4
			c1.6,3.9,3,7.4,2.3,11c-0.2,1.3-0.5,2.7-0.7,4.2c0,0.1,0,0.1,0,0.2c-1-1.1-2.1-2.2-3.2-3.1c-0.4-0.4-0.9-0.7-1.4-1.1
			c0-0.1,0-0.2,0-0.2c1-5.4-0.9-9.9-2.7-14.3C448.2,98.7,445.3,91.8,453.3,79.1z"/>
		<path class="penguin_lydian_with_crown-st15" d="M410,121.2c-4.4,4.5-6.7,10.6-6.3,16.8c0.2,2.7,1.1,5.3,2.6,7.5c-0.7-0.2-1.5-0.3-2.2-0.6
			c-3.8-1.3-6.4-4.7-6.7-8.7c-0.2-4.5,1.5-9,4.7-12.2l0,0c3.1-3,7-5,11.3-5.8C412.1,119.2,411,120.2,410,121.2z"/>
		<path class="penguin_lydian_with_crown-st15" d="M225.8,106.8L225.8,106.8c2.5,3.8,3.4,8.4,2.3,12.8c-1.1,3.8-4.4,6.7-8.3,7.2c-0.7,0.1-1.5,0.1-2.3,0.1
			c1.9-1.9,3.3-4.3,4-6.9c1.6-6.1,0.5-12.5-2.9-17.8c-0.8-1.2-1.7-2.3-2.7-3.4C219.9,100.6,223.3,103.3,225.8,106.8z"/>
		<path class="penguin_lydian_with_crown-st15" d="M184.2,52.6c5.4,13.9,1.2,20.2-3.3,26.9c-2.7,4-5.4,8.1-5.5,13.5v0.2c-0.5,0.3-1.1,0.5-1.6,0.8
			c-1.3,0.7-2.6,1.5-3.7,2.4v-0.1c0-1.5,0.1-2.9,0.1-4.3c0.1-3.7,2.1-6.8,4.4-10.3c4.5-6.9,10.2-15.5,3.9-32.3
			c-2-5.8-5.4-11-9.8-15.2C175,37.5,180.4,42.7,184.2,52.6z"/>
		<path class="penguin_lydian_with_crown-st15" d="M198,137.2c-3.5-1-5.8-2.4-6.7-4.2c-1.6-2.9-1.5-6.4,0.2-9.2c0.6,1.5,1.4,2.9,2.5,4.1
			c0.6,0.6,1.2,1.1,1.9,1.5c0,2.6,0.5,5.1,1.7,7.4C197.8,136.9,197.9,137.1,198,137.2z"/>
		<path class="penguin_lydian_with_crown-st15" d="M423.3,159.4c0.1-0.1,0.3-0.3,0.4-0.4c1.6-2,2.6-4.4,3.1-6.9c0.8-0.3,1.5-0.7,2.2-1.1
			c1.3-0.9,2.4-2.1,3.3-3.5c1.1,3.1,0.5,6.5-1.6,9C429.5,158.2,426.9,159.1,423.3,159.4z"/>
		<path class="penguin_lydian_with_crown-st16" d="M128,18.5c7.5,5.7,18.6,27,25.2,44c14.8,38.1,11.7,70.4,9.8,91l-9.6,85.5l-7.4-3.5l9.4-122.9
			c0.3-7.7-0.8-15.4-3.3-22.7l-11.9-35.2L128,18.5z"/>
		<polygon class="penguin_lydian_with_crown-st13" points="363.5,188.2 374.7,156.9 464.1,170 460.5,197 		"/>
		<path class="penguin_lydian_with_crown-st17" d="M243.7,221.8c-7.9-0.8-13.5-9.2-12.6-18.8s8.1-16.8,16-16s13.5,9.2,12.6,18.8S251.6,222.6,243.7,221.8z"/>
		<path d="M246.8,189.6c6.5,0.6,11.1,7.8,10.3,16.1s-6.7,14.4-13.3,13.7c-6.5-0.6-11.1-7.8-10.3-16.1S240.3,188.9,246.8,189.6
			 M247.3,184.5c-9.3-0.9-17.7,7.3-18.8,18.2s5.6,20.6,14.9,21.6c9.3,1,17.7-7.3,18.8-18.2S256.6,185.5,247.3,184.5z"/>
		<path class="penguin_lydian_with_crown-st18" d="M252.6,192.2c1.4,2.9,1.9,6.2,1.6,9.4c-0.8,8.2-6.7,14.4-13.2,13.7c-2.1-0.2-4.1-1.1-5.7-2.6
			c1.8,3.7,5,6.3,8.7,6.7c6.5,0.6,12.4-5.5,13.2-13.7C257.7,200.1,255.8,195.1,252.6,192.2z"/>
		<path class="penguin_lydian_with_crown-st17" d="M356.1,233.5c-7.9-0.8-13.5-9.2-12.6-18.8s8.1-16.8,16-16s13.5,9.2,12.6,18.8S364,234.3,356.1,233.5z"/>
		<path d="M359.2,201.2c6.5,0.6,11.1,7.8,10.3,16.1s-6.7,14.4-13.3,13.7s-11.1-7.8-10.3-16.1S352.7,200.6,359.2,201.2 M359.7,196.2
			c-9.3-0.9-17.7,7.3-18.8,18.2s5.6,20.6,14.9,21.6s17.7-7.3,18.8-18.2S369,197.1,359.7,196.2L359.7,196.2z"/>
		<path class="penguin_lydian_with_crown-st18" d="M365,203.9c1.4,2.9,1.9,6.2,1.6,9.4c-0.8,8.2-6.7,14.4-13.3,13.7c-2.1-0.2-4.1-1.1-5.7-2.6
			c1.8,3.7,5,6.3,8.7,6.7c6.5,0.6,12.4-5.5,13.3-13.7C370.1,211.8,368.2,206.8,365,203.9z"/>
		<path class="penguin_lydian_with_crown-st17" d="M411.7,239c-7.9-0.8-13.5-9.2-12.6-18.8s8.1-16.8,16-16s13.5,9.2,12.6,18.8S419.6,239.8,411.7,239z"/>
		<path d="M414.9,206.7c6.5,0.6,11.1,7.8,10.3,16.1s-6.7,14.4-13.3,13.7s-11.1-7.8-10.3-16.1S408.4,206.1,414.9,206.7 M415.4,201.7
			c-9.3-0.9-17.7,7.3-18.8,18.2s5.6,20.6,14.9,21.6s17.7-7.3,18.8-18.2S424.7,202.6,415.4,201.7L415.4,201.7z"/>
		<path class="penguin_lydian_with_crown-st18" d="M420.6,209.3c1.4,2.9,1.9,6.2,1.6,9.4c-0.8,8.2-6.7,14.4-13.3,13.7c-2.1-0.2-4.1-1.1-5.7-2.6
			c1.8,3.7,5,6.3,8.7,6.7c6.5,0.6,12.4-5.5,13.3-13.7C425.8,217.3,423.9,212.3,420.6,209.3z"/>
		<path class="penguin_lydian_with_crown-st17" d="M188,216.3c-7.9-0.8-13.5-9.2-12.6-18.8s8.1-16.8,16-16s13.5,9.2,12.6,18.8S195.9,217.1,188,216.3z"/>
		<path d="M191.2,184.1c6.5,0.6,11.1,7.8,10.3,16.1s-6.7,14.4-13.3,13.7s-11.1-7.8-10.3-16.1S184.7,183.4,191.2,184.1 M191.7,179.1
			c-9.3-0.9-17.7,7.3-18.8,18.2s5.6,20.6,14.9,21.6s17.7-7.3,18.8-18.2S201,180,191.7,179.1L191.7,179.1z"/>
		<path class="penguin_lydian_with_crown-st18" d="M196.9,186.7c1.4,2.9,1.9,6.2,1.6,9.4c-0.8,8.2-6.7,14.4-13.2,13.7c-2.1-0.2-4.1-1.1-5.7-2.6
			c1.8,3.7,5,6.3,8.7,6.7c6.5,0.6,12.4-5.5,13.3-13.7C202,194.6,200.1,189.6,196.9,186.7z"/>
		<path class="penguin_lydian_with_crown-st17" d="M300.4,228c-7.9-0.8-13.5-9.2-12.6-18.8s8.1-16.8,16-16s13.5,9.2,12.6,18.8S308.3,228.8,300.4,228z"/>
		<path d="M303.6,195.8c6.5,0.6,11.1,7.8,10.3,16.1s-6.7,14.4-13.2,13.7s-11.1-7.8-10.3-16.1S297.1,195.1,303.6,195.8 M304.1,190.7
			c-9.3-0.9-17.7,7.3-18.8,18.2s5.6,20.6,14.9,21.6s17.7-7.3,18.8-18.2S313.4,191.7,304.1,190.7z"/>
		<path class="penguin_lydian_with_crown-st18" d="M309.3,198.4c1.4,2.9,1.9,6.2,1.6,9.4c-0.8,8.2-6.7,14.4-13.3,13.7c-2.1-0.2-4.1-1.1-5.7-2.6
			c1.8,3.7,5,6.3,8.7,6.7c6.5,0.6,12.4-5.5,13.2-13.7C314.5,206.3,312.6,201.3,309.3,198.4z"/>
		<path class="penguin_lydian_with_crown-st19" d="M185.4,188.7L185.4,188.7c1.9,0,3.5,1.6,3.5,3.5l0,0l0,0c0,1.9-1.6,3.5-3.5,3.5l0,0c-1.9,0-3.5-1.6-3.5-3.5
			l0,0l0,0C181.9,190.2,183.5,188.7,185.4,188.7L185.4,188.7z"/>
		<path class="penguin_lydian_with_crown-st19" d="M241.9,194.9L241.9,194.9c1.9,0,3.5,1.6,3.5,3.5l0,0c0,1.9-1.6,3.5-3.5,3.5l0,0c-1.9,0-3.5-1.6-3.5-3.5l0,0
			C238.4,196.5,240,194.9,241.9,194.9z"/>
		<path class="penguin_lydian_with_crown-st19" d="M296.5,202.1L296.5,202.1c1.9,0,3.5,1.6,3.5,3.5l0,0l0,0l0,0c0,1.9-1.6,3.5-3.5,3.5l0,0
			c-1.9,0-3.5-1.6-3.5-3.5l0,0l0,0C293,203.6,294.6,202.1,296.5,202.1L296.5,202.1L296.5,202.1z"/>
		<path class="penguin_lydian_with_crown-st19" d="M353.5,206.5L353.5,206.5c1.9,0,3.5,1.6,3.5,3.5l0,0c0,1.9-1.6,3.5-3.5,3.5l0,0c-1.9,0-3.5-1.6-3.5-3.5l0,0
			C350,208.1,351.6,206.5,353.5,206.5z"/>
		<path class="penguin_lydian_with_crown-st19" d="M409.3,214L409.3,214c1.9,0,3.5,1.6,3.5,3.5l0,0l0,0l0,0c0,1.9-1.6,3.5-3.5,3.5l0,0l0,0
			c-1.9,0-3.5-1.6-3.5-3.5l0,0l0,0l0,0C405.9,215.6,407.4,214,409.3,214L409.3,214L409.3,214z"/>
		<path class="penguin_lydian_with_crown-st16" d="M243.7,117c-0.5,1.4-0.4,2.9,0,4.3c0.5,1.4,1.8,2.4,3.3,2.5c1.7,0,3.1-1.5,3.8-3.1c0.7-1.6,0.9-3.3,1.5-4.9
			c1.1-2.8,3.4-4.9,6.3-5.7c0.5-0.1,0.9-0.3,1.2-0.7c0.4-0.8-0.6-1.6-1.5-1.9C252.3,106,245.2,111.3,243.7,117z"/>
		<path class="penguin_lydian_with_crown-st16" d="M282.6,73.4c-0.9,2.7-0.8,5.6,0.1,8.3c1,2.6,3.5,4.8,6.4,4.8c3.3,0,6-2.8,7.3-5.9s1.7-6.4,2.9-9.5
			c2.2-5.3,6.6-9.4,12.1-11c0.9-0.1,1.8-0.6,2.3-1.3c0.9-1.6-1.2-3.2-2.9-3.6C299.3,52.3,285.6,62.4,282.6,73.4z"/>
		<path class="penguin_lydian_with_crown-st14" d="M382,161.8c0,0,20.7,1.2,37.8,3.7h0.1c1.3,0.2,10.6,1.3,15.6-5.4c6.8-9.2,1.6-18.2-2.2-21.6
			c-0.9-0.8-2.1-1-3.2-0.6s-1.8,1.5-1.9,2.6c0,0-0.2,3.8-2.8,5.6c-2,1.4-5.1,1.4-9.1,0.1c-3.7-1.3-6.3-4.7-6.6-8.6
			c-0.2-4.5,1.5-9,4.7-12.2c3.1-3.1,7.1-5.1,11.4-5.9c9.1-1.8,18.6,0.8,25.6,6.9c2.3,1.9,4.2,4.2,5.5,6.9c0.1,0.2,0.1,0.4,0.2,0.5
			l0.2,0.6c0.5,1.3,1.7,2.1,3.1,2s2.5-1.1,2.8-2.4c0.6-2.9,1.1-5.7,1.5-8.3c0.2-1.5,0.5-2.8,0.7-4.1c1-5.3-0.9-9.9-2.7-14.3
			c-2.9-7.1-5.8-14.4,2-27c8.3-13.4,18-14.8,28.3-16.2c5.2-0.7,10.5-1.5,15.3-4c2.7-1.4,4.9-2.5,6.8-3.3
			c-10.1,14.6-31.9,46.7-39.5,62.3c-8.4,17.3-11.4,37.1-12.5,44.6c-0.2,1.3-0.4,2.3-0.4,2.7c-0.1,0.2-0.1,0.5-0.1,0.7l-2.6,26.5
			l-86.9-8.5L382,161.8z"/>
		<path d="M525.6,49.7c-0.4-1-1.4-1.7-2.4-1.8h-0.1c-1.1-0.1-14.9,3.6-18,4.6c-2.6,0.9-5.3,1.6-8,2.1c-3.5,0.6-7,1-10.6,1.2
			c-12.6,1-27,2.1-38.4,20.1c-9.6,15.2-5.7,24.8-2.5,32.5c1.3,3,2.3,5.8,2.5,8.5c-5.9-3-12.5-4.3-19.1-3.9
			c-5.4-1.5-11.1-1.7-16.6-0.7c-5.6,1-10.8,3.6-14.8,7.6c-4.5,4.4-6.8,10.6-6.4,16.9c0.5,6.5,4.9,12,11,13.9
			c3.5,1.2,7.3,1.5,10.9,0.7c0.4,0.2,0.9,0.4,1.3,0.5c1.9,0.6,3.8,0.9,5.7,1.1c-0.4,0.8-0.8,1.6-1.4,2.3c-1.6,2.1-5.4,3.1-10.9,2.9
			l-35.9-3.5c-11.7-1.2-15-4.2-16-5.9c-2.3-4.2-1.1-7.5,0.7-9.7c0.5,1.6,1.4,3,2.6,4.3c3.4,3.6,8.8,5.1,16.2,4.5
			c6.8-0.5,12.6-4.9,14.8-11.4c1.8-5.8,0.5-12.6-3.6-18.1c-3.3-4.4-8.3-8-14.6-10.4c-7.9-2.9-16.4-3.6-24.7-2
			c8.5-5,16.5-10.6,17.5-20.8c2.2-21.5-12.1-29.6-22.6-35.4c-3.4-1.9-6.7-3.7-8.6-5.7c-5.6-5.5-8.8-14.3-9.9-17.7c0,0-0.6-2.8-1-2.5
			c-0.3-0.4-1.5,2.3-1.5,2.3c-1.8,3.2-6.6,11.1-13.1,15.4c-2.3,1.5-5.8,2.7-9.6,3.9c-11.4,3.7-27,8.8-29,30.3
			c-1,10.2,5.7,17.3,13.1,23.8c-7.8-3.2-16.3-4.2-24.6-2.8c-6.6,1.1-12.2,3.6-16.3,7.3c-5.1,4.6-7.7,10.9-7,17
			c0.9,6.7,5.7,12.3,12.3,14c7.1,2,12.8,1.6,16.8-1.3c1.4-1,2.5-2.2,3.4-3.7c1.3,2.5,1.9,5.9-1.2,9.6c-1.3,1.5-5.1,3.8-16.8,2.7
			l-35.9-3.5c-5.5-1-9-2.7-10.1-5c-0.4-0.8-0.7-1.7-0.9-2.5c1.9,0.3,3.9,0.3,5.8,0.1c0.5-0.1,0.9-0.2,1.4-0.3
			c3.4,1.5,7.2,2,10.8,1.5c6.4-0.8,11.8-5.3,13.5-11.5c1.6-6.1,0.5-12.6-3-17.8c-3.2-4.7-7.8-8.3-13.1-10.3
			c-5.2-2.1-10.8-3-16.4-2.6c-6.4-1.7-13.1-1.7-19.5,0.1c0.7-2.7,2.3-5.1,4.1-7.9c4.6-6.9,10.4-15.5,3.9-32.3
			c-7.5-19.8-21.4-23.7-33.6-27.1c-3.4-0.9-6.8-2-10.1-3.3c-2.6-1.1-5-2.3-7.5-3.6c-2.8-1.6-15.7-7.9-16.7-8h-0.1
			c-1.1-0.1-2.1,0.4-2.8,1.3c-0.6,0.9-0.7,2-0.3,3c0.2,0.5,24.4,55,29.9,76.3c4.6,17.7,3.7,37.1,3.4,44.4c-0.1,1.2-0.1,2.1-0.1,2.7
			v0.1l-10,101.9c-0.2,1.7,1.1,3.1,2.7,3.3l154,15.2l2.5,0.2l154,15.2c1.7,0.2,3.2-1,3.3-2.7l0,0l10-101.9v-0.1
			c0.1-0.6,0.2-1.5,0.4-2.7c1.1-7.2,4-26.4,12-42.9c9.6-19.8,43.9-68.5,44.2-69C525.9,51.8,526,50.6,525.6,49.7z M453.3,79.1
			c5.7-9,12.1-13.1,18.8-15.1c-5.2,3.3-9.5,7.7-12.6,13c-9.4,15.2-5.6,24.8-2.5,32.4c1.6,3.9,3,7.4,2.3,11c-0.2,1.3-0.5,2.7-0.7,4.2
			c0,0.1,0,0.1,0,0.2c-1-1.1-2.1-2.2-3.2-3.1c-0.4-0.4-0.9-0.7-1.4-1.1c0-0.1,0-0.2,0-0.2c1-5.4-0.9-9.9-2.7-14.3
			C448.2,98.7,445.3,91.8,453.3,79.1L453.3,79.1z M410,121.2c-4.4,4.5-6.7,10.6-6.3,16.8c0.2,2.7,1.1,5.3,2.6,7.5
			c-0.7-0.2-1.5-0.3-2.2-0.6c-3.8-1.3-6.4-4.7-6.7-8.7c-0.2-4.5,1.5-9,4.7-12.2l0,0c3.1-3,7-5,11.3-5.8
			C412.1,119.2,411,120.2,410,121.2L410,121.2z M225.8,106.8L225.8,106.8c2.5,3.8,3.4,8.4,2.3,12.8c-1.1,3.8-4.4,6.7-8.3,7.2
			c-0.7,0.1-1.5,0.1-2.3,0.1c1.9-1.9,3.3-4.3,4-6.9c1.6-6.1,0.5-12.5-2.9-17.8c-0.8-1.2-1.7-2.3-2.7-3.4
			C219.9,100.6,223.3,103.3,225.8,106.8z M184.2,52.6c5.4,13.9,1.2,20.2-3.3,26.9c-2.7,4-5.4,8.1-5.5,13.5v0.2
			c-0.5,0.3-1.1,0.5-1.6,0.8c-1.3,0.7-2.6,1.5-3.7,2.4v-0.1c0-1.5,0.1-2.9,0.1-4.3c0.1-3.7,2.1-6.8,4.4-10.3
			c4.5-6.9,10.2-15.5,3.9-32.3c-2-5.8-5.4-11-9.8-15.2C175,37.5,180.4,42.7,184.2,52.6L184.2,52.6z M452.8,265.6l-151-14.9l-2.5-0.2
			l-151-14.9l0.9-9.2l151,14.9l2.5,0.2l151,14.9L452.8,265.6z M454.2,251.4l-151-14.9l-2.5-0.2l-151-14.9l5.2-52.8l151,14.9l2.5,0.2
			l151,14.9L454.2,251.4z M475.6,119c-8.4,17.3-11.4,37.1-12.5,44.6c-0.2,1.3-0.3,2.3-0.4,2.7c-0.1,0.2-0.1,0.5-0.1,0.7l-2.6,26.5
			l-151-14.9l-2.5-0.2l-151-14.9l2.6-26.5c0.1-0.2,0.1-0.5,0.1-0.7c0-0.5,0-1.4,0.1-2.8c0.4-7.6,1.3-27.6-3.6-46.2
			c-4.4-16.8-19.5-52.5-26.6-68.9c1.6,1.2,3.6,2.7,6,4.6c4.2,3.4,9.3,5.2,14.2,6.9c9.8,3.4,19,6.7,24.6,21.4
			c5.2,13.9,0.9,20.5-3.3,26.9c-2.6,4-5.3,8.1-5.4,13.5c0,1.3-0.1,2.7-0.1,4.2c-0.1,2.6-0.2,5.5-0.2,8.4c0,1.4,0.9,2.6,2.2,2.9
			c1.3,0.4,2.7-0.2,3.4-1.4l0.3-0.6c0.1-0.2,0.2-0.3,0.3-0.5c1.8-2.4,4.1-4.3,6.7-5.7c8.1-4.6,17.8-5.3,26.4-1.7
			c4.1,1.6,7.6,4.4,10.1,8c2.5,3.8,3.3,8.5,2.2,12.9c-1,3.8-4.2,6.6-8.1,7.2c-4.3,0.5-7.2-0.2-8.9-1.9c-2.2-2.3-1.7-6-1.7-6
			c0.2-1.2-0.4-2.3-1.4-3c-1-0.6-2.3-0.7-3.3,0c-4.4,2.7-11.3,10.4-6.4,20.8c2,4.2,6.8,7,14.4,8.4l48.4,4.8
			c11.2,1.1,18.4-0.5,22.1-4.8c2.6-2.9,4-6.7,3.7-10.6c-0.6-6.6-6.1-11.1-6.4-11.4c-0.9-0.7-2.1-0.9-3.2-0.4c-1,0.5-1.7,1.5-1.8,2.6
			c-0.2,2-1.2,3.8-2.8,5.1c-2.4,1.7-6.3,1.8-11.5,0.3c-4.2-1.1-7.3-4.6-7.9-8.8c-0.4-4.1,1.5-8.7,5.1-11.9c3.8-3.2,8.4-5.2,13.2-5.8
			c10.6-1.7,21.4,1,30,7.4c2.6,1.9,4.8,4.3,6.4,7.1c1.2,2.4,1.9,5.1,2.1,7.8c0.1,1.4,1.3,2.6,2.7,2.7c1.5,0.2,2.9-0.7,3.2-2.1
			c2.2-7,0-14.5-5.9-20.6c-2.5-2.6-5.3-5-8.1-7.4c-8-6.9-14.8-12.8-14-21.3c1.7-17.6,14-21.6,24.9-25.2c4.1-1.3,8.1-2.6,11-4.6
			c3.8-2.7,7.2-6,10-9.8c2,4.3,4.6,8.2,7.9,11.5c2.5,2.5,6.1,4.5,9.9,6.6c10,5.6,21.3,11.9,19.5,29.6c-0.9,8.5-8.8,13-17.9,18.1
			c-3.1,1.8-6.3,3.6-9.3,5.6c-6.9,4.8-10.5,11.7-9.7,19c0.1,1.5,1.3,2.7,2.8,2.7c1.4,0.1,2.8-0.8,3.2-2.1c0.7-2.6,1.9-5.1,3.5-7.2
			c2.1-2.4,4.8-4.4,7.7-5.7c9.7-4.6,20.8-5.1,30.9-1.4c4.6,1.6,8.8,4.5,11.8,8.3c2.9,3.9,3.9,8.7,2.7,12.7c-1.5,4-5.2,6.8-9.5,7.1
			c-5.3,0.4-9.2-0.4-11.2-2.5c-1.3-1.5-1.9-3.5-1.7-5.5c0.2-1.1-0.3-2.3-1.2-2.9c-0.9-0.7-2.2-0.8-3.2-0.2c-0.3,0.1-6.6,3.5-8.5,9.9
			c-1.1,3.8-0.5,7.8,1.5,11.1c2.7,4.9,9.5,7.9,20.7,9l48.4,4.8c7.7,0.2,13-1.6,15.7-5.4c6.8-9.2,1.6-18.2-2.2-21.6
			c-0.9-0.8-2.1-1-3.2-0.6s-1.8,1.5-1.9,2.6c0,0-0.2,3.8-2.8,5.6c-2,1.4-5.1,1.4-9.1,0.1c-3.7-1.3-6.3-4.7-6.6-8.6
			c-0.2-4.5,1.5-9,4.7-12.2c3.1-3.1,7.1-5.1,11.4-5.9c9.1-1.8,18.6,0.8,25.6,6.9c2.3,1.9,4.2,4.2,5.5,6.9c0.1,0.2,0.1,0.4,0.2,0.5
			l0.2,0.6c0.5,1.3,1.7,2.1,3.1,2s2.5-1.1,2.8-2.4c0.6-2.9,1.1-5.7,1.5-8.3c0.2-1.5,0.5-2.8,0.7-4.1c1-5.3-0.9-9.9-2.7-14.3
			c-2.9-7.1-5.8-14.4,2-27c8.3-13.4,18-14.8,28.3-16.2c5.2-0.7,10.5-1.5,15.3-4c2.7-1.4,4.9-2.5,6.8-3.3
			C505,71.3,483.2,103.4,475.6,119L475.6,119z M198,137.2c-3.5-1-5.8-2.4-6.7-4.2c-1.6-2.9-1.5-6.4,0.2-9.2c0.6,1.5,1.4,2.9,2.5,4.1
			c0.6,0.6,1.2,1.1,1.9,1.5c0,2.6,0.5,5.1,1.7,7.4C197.8,136.9,197.9,137.1,198,137.2L198,137.2z M423.3,159.4
			c0.1-0.1,0.3-0.3,0.4-0.4c1.6-2,2.6-4.4,3.1-6.9c0.8-0.3,1.5-0.7,2.2-1.1c1.3-0.9,2.4-2.1,3.3-3.5c1.1,3.1,0.5,6.5-1.6,9
			C429.5,158.2,426.9,159.1,423.3,159.4L423.3,159.4z"/>
	</g>
	<g>
		<path class="penguin_lydian_with_crown-st5" d="M463.5,341.3c-3.6-10-10-24.7-22-39.6c-10.9-13.7-22.5-22.7-31-28.4c-0.3-0.4-1.9-2.5-1.5-5.5
			c0.2-1.9,1.2-3.7,2.8-5l8.7-6.8c22-17.2,53.8-13.2,71,8.8l0,0c17.2,22,13.2,53.8-8.8,71l-8.7,6.8
			C470.7,345.2,466.1,344.6,463.5,341.3z"/>
		<path class="penguin_lydian_with_crown-st4" d="M495.3,270.6c2.1,17.1-4.5,34.8-19.1,46.1l-8.7,6.8c-1.8,1.4-4.1,1.9-6.1,1.4c-1.2,0.9-2.4,1.7-3.7,2.4
			c2.5,5.2,4.4,10,5.9,14c2.5,3.2,7.2,3.8,10.5,1.3l8.7-6.8C502.9,320.1,507.8,292.1,495.3,270.6z"/>
		<path d="M469.4,349.7c-0.5,0-1.1,0-1.6-0.1c-3.4-0.4-6.5-2.2-8.6-4.9l-0.5-0.7l-0.3-0.8c-4.9-13.8-12-26.6-21.1-38
			c-8.5-10.6-18.5-19.7-29.7-27.2l-0.7-0.5l-0.6-0.7c-1-1.3-3.2-4.8-2.6-9.5c0.4-3.4,2.2-6.5,4.9-8.6l8.7-6.8
			c11.8-9.2,26.5-13.3,41.4-11.4c14.9,1.8,28.1,9.4,37.3,21.2c19,24.4,14.6,59.7-9.7,78.7l-8.7,6.8
			C475.1,348.8,472.3,349.7,469.4,349.7z M468.3,338.4c0.3,0.2,0.7,0.3,0.9,0.3c0.3,0,0.9,0,1.4-0.4l8.7-6.8
			c19.6-15.3,23.1-43.7,7.8-63.3c-7.4-9.5-18.1-15.5-30-17s-23.8,1.8-33.2,9.2l-8.7,6.8c-0.6,0.4-0.7,1-0.7,1.3c0,0.4,0,0.7,0.1,0.9
			c11.8,8,22.3,17.7,31.2,28.8C455.4,310.3,463,323.8,468.3,338.4z"/>
	</g>
	<path class="penguin_lydian_with_crown-st7" d="M455.9,322.2c-1.9-5.3-5.3-12.9-11.6-20.8c-5.7-7.2-11.8-11.9-16.2-14.9c-0.2-0.2-1-1.3-0.8-2.9
		c0.1-1,0.6-1.9,1.5-2.6l4.6-3.6c11.5-9,28.2-6.9,37.2,4.6l0,0c9,11.5,6.9,28.2-4.6,37.2l-4.6,3.6
		C459.7,324.2,457.2,323.9,455.9,322.2z"/>
	<g id="Layer_4">
		<circle class="penguin_lydian_with_crown-st10" cx="294.9" cy="389.3" r="19.1"/>
		<circle class="penguin_lydian_with_crown-st10" cx="141.1" cy="395" r="19.7"/>
	</g>
</g>
</svg>
