<svg id="Layer_1" data-name="Layer 1" xmlns="http://www.w3.org/2000/svg" viewBox="0 0 604.72151 221.02572">
  <defs>
    <style>
      .cls-1 {
        fill: #f2cc81;
      }

      .cls-2 {
        fill: #ab6628;
        opacity: 0.1;
      }

      .cls-3 {
        opacity: 0.2;
      }

      .cls-4 {
        fill: #721e1e;
      }
    </style>
  </defs>
  <g>
    <path class="cls-1" d="M738.7125,213.69768c-3.85355-1.17309-9.36916,1.3967-14.03823-.62543,4.64012-1.03537,13.89691-2.56385,15.64514-6.0086,1.71377-3.37669-1.90747-11.6213-1.42974-15.71849,1.28636-11.02989.61767-22.60528.61767-33.82313,0-4.707-9.56839-10.37367-11.176-15.10169-1.94057-5.71316,2.71058-11.20759,6.40282-15.70283,7.308-8.89758-2.73954-19.847,2.08946-30.24227a27.71539,27.71539,0,0,0-4.7835.33c-1.13056-2.83336-2.05362-5.63-1.89989-7.907.41775-6.20519-2.21148-12.0658-1.60967-18.1203.56735-5.69426,2.75746-12.38824,3.99625-18.11977.91341-4.22465,1.96193-8.49089,3.1828-12.68421-9.02862,2.12205-18.45637,5.23571-26.85284-.51093-7.00119,8.33156-10.80235,1.87252-22.47261,2.323-8.968.3462-18.5653-.25547-27.84484.46989-10.0992.78962-17.12245,1.0197-27.02794-.46989-4.35265-.6546-9.75383-.02268-13.73836-1.07588-4.17-1.1018-6.90813-4.276-10.76857-5.522-3.1959,4.67617-2.43622,9.01208-4.31129,13.78331-8.54261-4.65727-13.615-8.56056-25.30177-8.9975-10.437-.38941-19.74755-1.2082-30.23211-1.2082-6.75646,0-20.1529,1.569-22.45469-4.75449-3.17728.61085-4.93792,3.50956-7.73536,4.19657-3.93973.96623-8.382-1.24439-11.975-1.11963-6.61721.23117-13.51017,1.33621-20.68095,1.68025-6.85918.32838-13.0097,1.89142-19.8482,2.41154-8.28.62975-14.0596-3.25571-22.1817-2.30622-3.30482,3.55925.36812,4.51954.49841,7.26054.14821,3.11745-.92168,5.71155-.77623,8.86086-3.27517-1.02565-5.15024-4.35643-5.52181-7.12282-2.015,1.152-4.05692,4.46283-6.9102,4.05722-3.23243-.45908-2.87948-5.64619-5.09234-6.42771-3.34549-1.18336-5.73758,1.68673-8.61086,1.12826-3.48543-.67782-3.60882-3.37129-5.72793-4.10312-4.5119-1.55927-13.5026-2.23709-18.13651-1.79745-3.11179.29543-5.6397,2.06425-9.33263,2.26463-4.21064.22792-7.89047-.79935-11.95221-1.239-15.11157-1.63811-27.41536-4.16091-43.91532-3.59273-9.52151.3273-18.51083,1.39291-27.98339,2.29542-6.81714.64866-15.55277-.8647-21.36,2.38723-2.67957,1.50094-4.29475,2.56439-4.09759,5.55276-5.10888-2.66863-5.33706-4.63729-11.19529-6.00752-3.41649-.79989-10.61691-2.6238-14.16163-2.42774-3.92317.2155-6.82471,2.62812-11.11946,3.03157-5.67209.53362-11.85087-1.569-17.5209-1.81257-10.912-.46611-23.11786.30786-34.05119,1.20874-9.26783.76316-21.1835,3.77421-30.372,1.2082,1.33875,1.39778,10.33151,8.634,15.01644,10.40176-1.50557.61787-3.23174,1.98594-5.33017,2.38669-.25714,3.33943.32883,6.94027-.7197,10.16142-.96787,2.97648-4.4788,5.19142-4.19,8.4574.32745,3.70454,4.89311,5.91408,4.789,9.664-.10547,3.82552-3.1566,7.07205-3.20072,11.45873l.10133.00162c-1.76684,12.27212-3.95075,24.66792,7.0984,34.75534,3.79288-1.34862,8.3034.07076,12.432.1831-2.19012,4.3116-9.96547,2.21764-14.2416,4.56383-5.41082,2.96676-3.97763,7.75528-3.97763,12.86083,0,9.21732.122,18.24669-1.63587,27.14589-1.80889,9.16331,9.83242,49.88188-6.14155,53.72738,9.23542,5.39018,3.09594,11.22865,1.41251,17.54672,5.497-.728,9.14512-3.11637,14.32087-3.62352,5.53146-.54226,11.80813.47529,17.5016.60329,17.77666.40346,35.463,1.2082,53.30378,1.2082,13.07933,0,25.59337-1.43612,38.18669-1.80987,13.08484-.38725,28.13506,5.36534,41.29091,1.85308-.29367-2.41586-2.79745-4.10583-5.42944-4.70966,9.17545-3.45177,7.93183-9.8865,10.91816-15.82057-1.06369,3.76071-.43361,8.39584-1.23672,12.16518-1.06576,5.00348-4.63253,8.048,4.596,8.94025,5.08338.49095,13.08139-1.73263,18.88033-1.82661,7.00671-.11234,13.56878-.80042,20.62925-.50067a.69184.69184,0,0,1-.27023.98838c13.90519,2.3921,21.60471.829,34.72953.11666,16.50064-.89548,37.25122,3.09747,50.3209-5.94918,3.90111,1.61435,5.40255,3.77961,9.34779,4.74152a52.77685,52.77685,0,0,0,13.56808.63246c6.96879-1.02619,14.48494-6.89922,19.06853-10.24891,1.79993,6.66,27.25819,12.02151,36.575,10.82249,3.65363-.471,4.31129-2.0999,8.1352-2.27759,4.12033-.19228,8.42473,2.81391,12.7698,2.91491,7.18111.16635,9.67937-2.46177,17.28514-2.44773,12.61952.02323,26.00561,1.02187,38.45347,0,8.40888-.69024,16.662-2.59463,25.36313-3.02185,15.01644-.73831,32.15819,2.99593,48.16249,2.88737,9.77865-.06644,20.37074-.77018,30.25348-.93869,9.363-.16041,17.27825,3.75152,27.223,3.489.65421-4.05182.26127-7.74123,1.01681-11.308.67558-3.18766,2.226-7.08015,2.16254-10.43741C743.41122,219.49186,742.9907,215.0004,738.7125,213.69768Z" transform="translate(-143.02849 -29.99829)"/>
    <path class="cls-2" d="M161.47733,202.75955c8.71043,8.85461-3.36262,14.4322-3.65958,29.12609-.17773,8.79621.81538,10.29028,1.88164,11.29985,5.8178,5.50851,19.73223,2.19878,36.42925.44282,2.83544-.2982,18.65382-.1988,50.29049,0,57.08378.35871,93.82683,6.33907,97.667-2.11692,1.78931-3.94006-2.74866-10.82577-.38825-12.70207,2.254-1.79173,6.01678,1.26671,8.18731-1.75576,3.52118-6.34852-9.55253-8.83089-11.77973-13.26809,7.51581-5.18121,19.35777-1.33218,27.976-3.97732,17.88425-8.1395-1.38127-24.81888-16.7609-14.898-7.09693,3.10066-13.61669,7.88787-17.784,1.65167-4.5-6.73416,3.32375-17.26981-13.99132-14.23449-7.33879,1.286-7.34373,7.03059-13.29344,10.35983-7.20939,4.03253-15.57366,3.47168-19.77215,10.64859-1.26793,2.17029.08184,6.00646-2.73243,7.61462-2.29992,1.31553-10.46424.02441-12.72824-.86632-7.86962-3.09693-6.44929-7.449-17.62791-6.77393-8.338.50312-19.18907,7.90847-27.47636,6.10783-13.08534-2.84277-3.19922-14.95708,2.313-18.80222,5.06022-3.52947,16.82364-4.03382,14.15178-11.03749-4.83016-9.144-23.30061-9.97365-31.89163-4.40137-5.972,1.40072-8.9141-.20872-13.47142,4.24989-7.55834,7.39515-2.37855,10.5806-16.76289,8.42832-5.254-.78664-11.69513-3.98119-17.55328-4.72418C160.67332,182.87377,157.78824,199.00938,161.47733,202.75955Z" transform="translate(-143.02849 -29.99829)"/>
    <path class="cls-2" d="M733.15758,89.41153c.07619,3.43768,1.57748,6.97592.57795,10.47453-3.50668,3.7573-9.87561-.50986-13.43523-2.51861-3.21788-1.481-15.98482-5.18318-15.07841.51033,2.135,3.40968,2.65971,5.76939-.05181,9.37684-.03384,5.50233-4.06172,10.50255-5.95881,15.64289-6.91374-1.46014-22.48263-.79894-22.44531-8.52758.77859-1.71742,2.83735-2.616,1.77725-4.61037-5.3662-6.27978-17.04215-7.15358-25.48686-9.88431-4.83493-1.16079-13.08672-2.80722-9.09278-7.92343,1.09855-1.69947,1.73812-3.63377.55895-5.29788.45707-7.451-15.25327-12.49464-19.96358-5.29781-1.95419,5.95207-7.309,7.19009-14.614,6.61579-8.56993,1.813-10.27914-5.749-4.36875-9.35393-5.67912-4.14954-13.1105-14.81627-20.58354-6.64774-5.59165,6.05011-13.33726,3.415-18.17323,7.39046-.77807,2.36351-2.58074,2.85379-5.48335,3.81373-1.68.75944-2.158,1.86686-3.95576.92949-2.93672-1.7816-4.47116-5.36009-8.086-6.62205a.76337.76337,0,0,0-.96664.434c-5.5073,1.29554-10.514,2.92926-13.01895-2.483-3.0103-3.44864-17.10784-7.92785-8.08614-11.99294a7.73815,7.73815,0,0,1,3.51146-2.69382c.51209-.88019-.68452-2.04077-.58785-2.99058a.88841.88841,0,0,0,.70014-.77576c-.50914-2.01487,2.63272-4.48867,4.18573-5.85791,2.87554-2.53526,7.00755-1.27793,10.95855-2.0985,3.60057-.74775,8.33362-3.01615,12.73934-9.97107q7.18394,1.23116,14.36786,2.46238l13.76825-.15609,13.587,5.27888,4.21329-6.02711,4.3269-3.06846,16.01285,4.391,52.44115-.0319,23.74482,1.84765,10.41685-4.32488,10.27491,2.50913,12.19382-.83638-5.54706,29.68146Z" transform="translate(-143.02849 -29.99829)"/>
    <g class="cls-3">
      <path class="cls-4" d="M408.49386,241.56577l-.05831-5.6872q.68625-.00624,1.36973-.02985a58.15575,58.15575,0,0,0,7.90667-.81226l.96638,5.60389a63.771,63.771,0,0,1-8.68283.89279Q409.24468,241.55813,408.49386,241.56577Zm-10.18516-.68869a72.52254,72.52254,0,0,1-9.94912-2.15769l1.58981-5.46087a66.995,66.995,0,0,0,9.16741,1.98969Zm30.26391-2.74432-1.81335-5.39006a65.06857,65.06857,0,0,0,8.62868-3.62461l2.57145,5.0721A70.59881,70.59881,0,0,1,428.57261,238.13276Zm-49.75879-2.92135a73.37433,73.37433,0,0,1-8.97789-4.78538l3.01994-4.8194a67.76353,67.76353,0,0,0,8.27948,4.41327ZM446.686,228.9841l-3.23654-4.67639a73.81289,73.81289,0,0,0,7.37767-5.84548l3.8072,4.22513A79.56882,79.56882,0,0,1,446.686,228.9841Zm-85.07188-4.57919a65.41912,65.41912,0,0,1-7.2409-7.21174l4.32093-3.69821a59.6625,59.6625,0,0,0,6.60915,6.58207Zm100.10837-8.94664-4.29316-3.72945a81.03749,81.03749,0,0,0,5.76217-7.48319l4.7,3.20183A86.558,86.558,0,0,1,461.72245,215.45827Zm-113.34263-6.5786a60.96,60.96,0,0,1-4.5-9.21114l5.30119-2.0605a55.16648,55.16648,0,0,0,4.078,8.3489ZM473.09476,198.7924l-5.03183-2.6506a86.22435,86.22435,0,0,0,3.94049-8.60508l5.29287,2.08133A91.91823,91.91823,0,0,1,473.09476,198.7924Zm-132.15439-8.90777a74.3958,74.3958,0,0,1-1.47525-10.06089l5.66914-.4457a68.71087,68.71087,0,0,0,1.3614,9.2889Zm4.00853-19.9864-5.6858-.15274.00694-.23187a62.64821,62.64821,0,0,1,1.02469-9.93038l5.58862,1.05663a57.07779,57.07779,0,0,0-.92889,9.03412Zm3.50451-18.13974-5.31091-2.03273c.78379-2.048,1.62035-3.97937,2.50619-6.02459.43321-1.0004.87405-2.01676,1.31628-3.06715l5.24149,2.20629c-.44986,1.06913-.89834,2.10354-1.33918,3.122C350.00642,147.94921,349.19347,149.82573,348.45341,151.75849Zm7.23327-18.34384-5.43311-1.67867a86.508,86.508,0,0,0,2.28057-9.17921l5.58306,1.08023A91.75325,91.75325,0,0,1,355.68668,133.41465Zm3.86343-19.72815-5.6622-.5311c.28949-3.08658.43806-6.28562.44153-9.50758l5.6872.00694C360.01316,107.051,359.85627,110.42566,359.55011,113.6865Zm-5.61569-19.574c-.2652-3.18377-.6623-6.3724-1.1802-9.47773l5.60944-.93583c.54358,3.25806.96013,6.60289,1.23852,9.94148ZM281.48725,75.58812l-.5179-5.66359a38.32474,38.32474,0,0,0,3.862-.5297,30.48905,30.48905,0,0,0,4.884-1.43291l2.04662,5.30675a36.26,36.26,0,0,1-5.7955,1.6988A43.85578,43.85578,0,0,1,281.48725,75.58812Zm-10.37052-.10275a32.4613,32.4613,0,0,1-10.28166-2.88317l2.48537-5.11514a26.82361,26.82361,0,0,0,8.48219,2.35277Zm79.63253-.109c-.318-1.12744-.51652-1.67242-.56581-1.787a58.69571,58.69571,0,0,0-3.26986-6.37657l4.893-2.89983a64.50432,64.50432,0,0,1,3.58574,6.99375,23.25179,23.25179,0,0,1,.83031,2.52563Zm-49.79351-7.14024L297.629,63.62363a45.76381,45.76381,0,0,0,6.84657-6.1329l4.18486,3.85163A51.48145,51.48145,0,0,1,300.95575,68.23614Zm-48.64106-2.7346-.07915-.11247a24.80938,24.80938,0,0,1-4.01616-10.05742l5.60666-.9511A19.11341,19.11341,0,0,0,256.9036,62.14Zm89.22759-5.91282a64.742,64.742,0,0,0-6.48279-6.75493l3.81136-4.221a70.44929,70.44929,0,0,1,7.05346,7.35059Zm-26.59555-6.30021-4.73332-3.15323a75.82833,75.82833,0,0,0,4.70555-8.16284l5.08876,2.53813A81.41373,81.41373,0,0,1,314.94673,53.28851Zm12.72537-6.28146a81.85244,81.85244,0,0,0-8.08648-4.89646l2.66449-5.02489a87.63546,87.63546,0,0,1,8.6502,5.23941Zm-73.59474-1.208-5.53169-1.31767a23.88816,23.88816,0,0,1,1.45287-4.28034c.8739-1.9385,7.591-1.445,7.591-1.445a15.09553,15.09553,0,0,0-2.44808,3.87323A18.27625,18.27625,0,0,0,254.07736,45.79908Z" transform="translate(-143.02849 -29.99829)"/>
      <path class="cls-4" d="M480.52449,179.85706l-5.48864-1.48983c.41932-1.54607.80254-3.12407,1.13855-4.691l5.56084,1.1927C481.37771,176.53444,480.97089,178.21311,480.52449,179.85706Z" transform="translate(-143.02849 -29.99829)"/>
    </g>
    <path d="M150.90461,251.024l1.2774-4.79407a32.933,32.933,0,0,1,1.812-4.78538c2.20282-5.00457,2.74363-6.86476-1.59744-9.39832l-6.748-3.938,8.04274-1.93634c7.94833-1.9135,5.28454-24.68291,4.00437-35.62542-.80393-6.87618-1.43916-12.30718-.82545-15.41838,1.60091-8.10326,1.594-16.28811,1.587-24.95378l-.00069-1.68125c0-.85775-.04374-1.70626-.08539-2.53737-.21383-4.26484-.48041-9.57237,5.88228-13.0616q.26761-.146.54011-.27739c-11.39869-10.7951-9.56034-23.483-7.781-35.75813l.041-.28447-.00972-.47212a18.43828,18.43828,0,0,1,1.90221-7.21885,12.49526,12.49526,0,0,0,1.29961-4.28551c.02569-.917-.64495-1.81451-1.74115-3.20313-1.25171-1.585-2.80888-3.55775-3.03868-6.15767-.26311-2.97576,1.41486-5.21942,2.76376-7.022a10.06061,10.06061,0,0,0,1.54815-2.49222,18.894,18.894,0,0,0,.52068-5.84c-.01041-1.20423-.02152-2.44925.07429-3.697l.18952-2.46122,1.15383-.22083a85.98278,85.98278,0,0,1-10.18378-7.89984l-8.50371-8.88106,13.3481,3.728c5.68512,1.58715,13.14054.56948,20.35019-.41338,2.84638-.3889,5.53447-.75549,8.14411-.97034,10.06922-.82947,23.11533-1.71551,34.72854-1.22218a62.52055,62.52055,0,0,1,7.83864.99917,36.329,36.329,0,0,0,8.94247.83219,16.19116,16.19116,0,0,0,4.26818-1.245,22.07932,22.07932,0,0,1,7.06109-1.802c3.6628-.20941,9.22781,1.02637,14.60051,2.30348l1.08093.25564a19.92774,19.92774,0,0,1,7.88168,3.49847,16.85638,16.85638,0,0,1,3.70862-2.56021c5.11722-2.8659,11.46741-2.84033,17.06714-2.82456,2.26113.00653,4.39869.01523,6.25924-.16154q2.98453-.28475,5.91421-.582c7.563-.756,14.70673-1.47021,22.3968-1.73455,12.71844-.43731,22.88208.87788,33.63721,2.2703,3.55935.46125,7.2402.93772,11.04948,1.35055,1.46068.15828,2.82972.378,4.15363.59015a32.317,32.317,0,0,0,6.92016.6255,14.35874,14.35874,0,0,0,3.82941-.9475,22.29569,22.29569,0,0,1,5.28385-1.3005c5.34632-.50911,15.03163.211,20.37171,2.05709a8.24847,8.24847,0,0,1,3.862,2.898c.54706.6614.7588.87244.97332.96273.2777-.07669.73867-.24748,1.065-.36823a11.78513,11.78513,0,0,1,8.47179-.50584c2.72488.96219,3.58573,3.1335,4.27719,4.87784.05416.13652.11733.29589.18606.46287.20133-.1784.39363-.35463.55261-.5004A15.283,15.283,0,0,1,433.9703,45.173l3.038-1.73672c-.62412-1.59966-.71229-3.79545,1.82584-6.52808l1.05108-1.133,1.76822-.20669c5.07974-.59232,9.34583.35137,13.11,1.18628a30.71657,30.71657,0,0,0,9.28959,1.09926c2.94565-.22464,5.76217-.65651,8.74392-1.11394a106.46107,106.46107,0,0,1,11.25637-1.30758c3.31777-.15882,6.66607-.49714,9.904-.82458,3.56213-.36007,7.24506-.73265,10.84677-.85829a24.75671,24.75671,0,0,1,6.09124.76365c1.80571.38455,3.6746.77944,4.79926.5053a9.22933,9.22933,0,0,0,1.85015-1.20151,14.34927,14.34927,0,0,1,6.14331-3.05137l3.99117-.76746L528.806,33.0948c1.03025,2.83,9.57492,2.56674,14.68035,2.40792,1.34335-.04134,2.5895-.07887,3.67321-.07887,6.88684,0,13.3849.35137,19.66845.69132,3.483.18819,7.084.38291,10.76623.52052,10.2407.38346,16.08341,3.19116,22.22533,6.61892.016-.0892.03193-.17786.04859-.26761a22.27412,22.27412,0,0,1,3.37608-9.376l1.8196-2.663,3.56422,1.15039a25.36491,25.36491,0,0,1,6.04889,3.127,16.73912,16.73912,0,0,0,4.45978,2.31817,30.6507,30.6507,0,0,0,6.44322.53358,52.68476,52.68476,0,0,1,6.73619.427c9.08965,1.36686,15.55995,1.22653,25.79995.42643,5.64346-.44112,11.3376-.41338,16.84568-.38292,3.90925.02176,7.60121.0397,11.21263-.09954A41.25449,41.25449,0,0,1,697.639,39.76539c4.2536.978,4.90688,1.12862,7.65467-2.13977l2.68739-3.19877,3.68154,2.51942c5.41784,3.70733,11.2536,2.64506,20.22037.45417.86988-.21267,1.737-.4248,2.60062-.62768l7.01318-1.64861-1.62868,5.59309c-1.117,3.8357-2.17227,8.04071-3.13587,12.49919-.43251,2.00107-.98373,4.1392-1.51691,6.20771a82.3113,82.3113,0,0,0-2.43261,11.6137,31.54863,31.54863,0,0,0,.7477,8.50739,38.89125,38.89125,0,0,1,.86918,9.52886,11.81882,11.81882,0,0,0,.73381,4.06741c.67758-.031,1.34682-.03481,1.9876,0l5.64693.30949-1.93553,4.16694c-1.87444,4.03477-1.02053,8.37195-.11663,12.96424,1.17326,5.96023,2.38609,12.12334-2.39443,17.94379l-.22424.2725c-3.30943,4.02661-7.06039,8.59115-5.64415,12.76244.49569,1.45607,2.68878,3.635,4.62432,5.55774,3.29138,3.27,6.69523,6.65155,6.69523,10.40348,0,2.8387.043,5.70078.08608,8.57048.127,8.43614.25826,17.15947-.72062,25.55644a23.57523,23.57523,0,0,0,.8553,5.96458c.881,4.05272,1.71269,7.88135.2895,10.68524a8.03016,8.03016,0,0,1-2.57215,2.83c5.86145,2.66791,5.97877,9.01215,6.03709,12.17828a28.82156,28.82156,0,0,1-1.435,8.001c-.30269,1.08348-.58871,2.10713-.78449,3.03233a32.70283,32.70283,0,0,0-.504,5.34343,47.66993,47.66993,0,0,1-.48944,5.83676l-.45612,2.824-3.63155.09573a63.95638,63.95638,0,0,1-15.41277-1.88739,54.4056,54.4056,0,0,0-11.861-1.6002c-4.44174.07615-9.14173.26652-13.6869.44928-5.51086.223-11.20986.45362-16.62283.49061a221.99524,221.99524,0,0,1-23.41594-1.54255c-8.70227-.88767-16.9269-1.72421-24.51561-1.35217-4.56739.22518-9.18893.90725-13.65844,1.56648-3.74263.55262-7.613,1.12373-11.52712,1.44464a248.62568,248.62568,0,0,1-26.599.24367c-4.07517-.10661-8.2892-.21756-12.30883-.22518h-.05138a26.57418,26.57418,0,0,0-7.3735,1.10415,33.8497,33.8497,0,0,1-9.97689,1.34238,25.41283,25.41283,0,0,1-7.84349-1.77425,15.20536,15.20536,0,0,0-4.54587-1.14549,5.71622,5.71622,0,0,0-2.49856.69622,17.0543,17.0543,0,0,1-5.19845,1.54254c-6.11.78759-16.02995-.73428-23.14658-2.59121-5.19776-1.35544-11.2286-3.42885-14.9518-6.35186-4.78191,3.41906-11.05365,7.41467-17.449,8.35673a57.42887,57.42887,0,0,1-15.62521-.72667,20.37861,20.37861,0,0,1-6.70355-3.1025c-.38253-.24694-.75742-.48952-1.14064-.72232-10.53228,5.809-24.30109,5.47288-36.55925,5.17482-4.85411-.11966-9.43885-.23171-13.70286.00109-2.85262.15447-5.44.35028-7.94277.53956-8.86334.67011-16.51731,1.24774-27.99583-.72558l-5.49-.94533c-1.98761.0533-3.98423.148-6.035.24585-2.5305.12075-5.14708.24476-7.831.28828a64.30612,64.30612,0,0,0-7.79976.892c-4.021.61462-8.1802,1.24883-11.68958.91051a21.78993,21.78993,0,0,1-5.50114-1.11611l-1.44956.38727c-9.02856,2.41172-18.3126,1.04867-27.29257-.26979-5.41505-.79411-10.533-1.55124-15.21352-1.40656-5.19637.15338-10.29485.48626-15.69325.83872-7.32281.47864-14.89556.97252-22.65436.97252-11.98879,0-24.06714-.36551-35.74838-.71906-5.88922-.17732-11.77913-.35572-17.67876-.48952-2.1924-.05-4.43271-.21975-6.59873-.384a61.88917,61.88917,0,0,0-10.25042-.24476,27.23012,27.23012,0,0,0-6.05653,1.54146,41.63681,41.63681,0,0,1-8.08231,2.06144Zm130.05085-11.09262a109.28868,109.28868,0,0,1,15.65923,1.53711,104.95282,104.95282,0,0,0,14.70117,1.48054l-7.65258-1.75685,10.022-3.77043c4.55767-1.71442,5.45879-4.112,6.77923-8.55417a31.92744,31.92744,0,0,1,2.01676-5.47941s5.56675,18.43,5.50808,18.66013a17.35271,17.35271,0,0,0,2.34166.35463c2.17019.211,5.64693-.32308,9.014-.83654a71.30949,71.30949,0,0,1,9.25557-1.0144c2.51314-.04025,5.04294-.161,7.48944-.2774,4.31191-.20669,8.76961-.42045,13.45849-.21974l2.61311.11041.79907,1.41636c8.54815,1.1803,14.72964.71253,22.3489.136,2.559-.19363,5.2047-.39325,8.17256-.55425,4.6875-.2551,9.70683-.13326,14.55747-.0136,12.28315.29916,24.978.61028,33.23455-5.10574l2.20906-1.52949,2.60756,1.07859a28.28381,28.28381,0,0,1,4.80759,2.62548,11.8704,11.8704,0,0,0,3.81484,1.87977,49.03044,49.03044,0,0,0,11.51254.54011c5.21789-.7691,11.87286-5.672,15.84876-8.60149l6.61816-4.84085,1.56343,5.78509c1.02053,3.77587,22.65228,9.38255,31.71,8.21694a7.35836,7.35836,0,0,0,2.35346-.75224,15.61939,15.61939,0,0,1,6.22176-1.56375,22.34792,22.34792,0,0,1,8.50927,1.70735,17.50512,17.50512,0,0,0,4.63959,1.20314,23.145,23.145,0,0,0,7.06873-1.01223A35.05316,35.05316,0,0,1,570.8587,239.344c4.15223.00762,8.43429.12021,12.57542.22953a241.12221,241.12221,0,0,0,25.423-.21158c3.567-.29263,7.09858-.8137,10.83775-1.36577,4.72429-.69676,9.60894-1.418,14.70326-1.66819,8.4093-.41229,17.42953.50529,26.15054,1.3946a207.51949,207.51949,0,0,0,22.24129,1.48652c5.2297-.03536,10.83567-.26217,16.257-.48137,4.60765-.186,9.37221-.37856,13.94029-.45689a62.75838,62.75838,0,0,1,14.26381,1.82756,75.58337,75.58337,0,0,0,9.14172,1.54309c.04582-.73157.07567-1.45769.10552-2.17294a37.00636,37.00636,0,0,1,.6144-6.2224c.23188-1.09327.554-2.24909.86641-3.36684a24.70641,24.70641,0,0,0,1.23922-6.47423c-.03055-1.64209-.11108-6.00157-2.05148-6.59227h0a13.75051,13.75051,0,0,0-3.75652.11586c-3.10116.32526-6.96251.73156-10.79956-.93173l-9.05008-3.91892,9.945-2.21972c.5783-.12891,1.22532-.26543,1.92026-.41174,6.75424-1.42343,10.43161-2.64017,10.93007-3.61759.53873-1.06118-.28186-4.83759-.772-7.09375-.61579-2.83217-1.19686-5.50715-.94208-7.69424.94-8.0543.81087-16.60249.6866-24.86947-.04373-2.89635-.08678-5.78455-.08678-8.64935,0-1.43322-2.811-4.22569-4.86313-6.26428-2.5659-2.54988-5.22-5.18624-6.169-7.97707-2.38609-7.02686,2.87415-13.42712,6.71536-18.10044l.22216-.27142c3.031-3.68938,2.15352-8.14677,1.13716-13.308-.69215-3.51914-1.45026-7.37061-.91014-11.31944l-2.29585.30188-1.10939-2.781c-1.20034-3.00785-2.28335-6.1903-2.08757-9.08067a34.40891,34.40891,0,0,0-.80046-8.25828,35.951,35.951,0,0,1-.80254-9.945,86.075,86.075,0,0,1,2.57493-12.41815c.54428-2.10985,1.058-4.10276,1.46762-5.99994.54289-2.51126,1.11494-4.94691,1.7106-7.28684-6.387,1.38916-13.54111,2.23822-20.33978-.793-5.25052,4.27627-10.28929,3.11718-14.4568,2.15772a30.45146,30.45146,0,0,0-8.64118-1.05411c-3.84955.1474-7.83378.12619-11.68888.10715-5.28106-.02611-10.74818-.05548-15.94178.35028-10.84121.84688-18.18833,1.00026-28.25547-.51346a44.2468,44.2468,0,0,0-5.3491-.30948,38.32676,38.32676,0,0,1-8.94872-.88169,24.31156,24.31156,0,0,1-7.1569-3.49249c-.0479-.03154-.0965-.06255-.1444-.09355a33.358,33.358,0,0,0-.79421,3.63336,30.46,30.46,0,0,1-1.54468,6.0304l-1.71893,4.37308-4.79371-2.61352c-1.24824-.68044-2.42359-1.34456-3.55589-1.98529-6.48557-3.66708-10.7704-6.09023-19.51294-6.41712-3.77248-.14088-7.42-.33777-10.94743-.52869-6.42239-.34756-12.48864-.67554-19.08112-.67554-.98443,0-2.11673.0359-3.33651.074-6.101.18656-15.49747.4781-20.464-3.4729a13.86157,13.86157,0,0,1-5.11445,2.688c-3.5059.85884-6.87573.14359-9.58326-.433a19.02713,19.02713,0,0,0-3.47743-.53684c-3.24418.11313-6.5911.45145-10.13518.80989-3.37747.34158-6.87018.69458-10.47466.86755a96.516,96.516,0,0,0-10.13726,1.19444c-3.04909.46831-6.203.95239-9.559,1.20749a40.5601,40.5601,0,0,1-12.43726-1.32009,38.11871,38.11871,0,0,0-6.92988-1.10958l.07706.11857a7.5242,7.5242,0,0,1,1.45651,3.815A23.1,23.1,0,0,1,446.627,50.969a18.93063,18.93063,0,0,0-.35892,3.90532l.236,5.128-6.08152-1.90425a11.401,11.401,0,0,1-5.76842-4.0685,8.867,8.867,0,0,1-5.842,1.18792c-4.35079-.61789-5.66151-3.9249-6.4453-5.901-.068-.17188-.14927-.37693-.23257-.57709-.23882.08539-.5061.18438-.722.26434a11.71105,11.71105,0,0,1-6.56957.86972,9.95328,9.95328,0,0,1-6.27591-3.87214c-.13746-.16643-.3138-.37911-.43945-.51454-3.8433-1.22109-11.66181-1.81287-15.60855-1.43975a14.01141,14.01141,0,0,0-2.89636.79086,23.62149,23.62149,0,0,1-6.655,1.48978,41.58708,41.58708,0,0,1-9.21878-.74516c-1.24616-.19962-2.42359-.38836-3.61143-.51727-3.921-.42479-7.65813-.90888-11.27233-1.37719C348.561,42.35388,338.83128,41.092,326.99314,41.501c-7.33671.25238-14.30893.94914-21.69146,1.68723q-2.95953.29616-5.96419.58689c-2.39373.22735-4.90688.217-7.32629.21049-4.72776-.01795-9.19379-.03155-12.06794,1.5779-2.40553,1.34783-2.3972,1.47238-2.31875,2.66193l.43806,6.64284-7.06386-3.68992a34.10882,34.10882,0,0,1-4.83537-3.08564,11.55255,11.55255,0,0,0-5.21373-2.50038l-1.11633-.2638c-2.72558-.64835-9.098-2.17458-11.525-2.03207a13.65939,13.65939,0,0,0-3.87176,1.12319,25.32823,25.32823,0,0,1-7.03957,1.89228,44.507,44.507,0,0,1-11.77844-.93826,53.75583,53.75583,0,0,0-6.48487-.855c-11.00992-.47212-23.61727.39107-33.37062,1.195-2.32222.19146-4.87216.53957-7.572.9078-3.75791.51291-7.756,1.05846-11.752,1.25644a29.9294,29.9294,0,0,0,5.3727,3.11175l7.64772,2.88547L171.94,56.96075c-.27075.111-.72894.36551-1.17256.6119-.55748.30949-1.20589.67011-1.94526,1.01114-.00069.409.00278.82676.00625,1.25319a23.062,23.062,0,0,1-.78379,7.537,14.805,14.805,0,0,1-2.45552,4.22024c-1.05038,1.4044-1.69047,2.30893-1.61341,3.18028a6.944,6.944,0,0,0,1.7835,3.10413c1.37945,1.7476,3.0963,3.92218,3.01577,6.86368a16.93111,16.93111,0,0,1-1.737,6.25721,26.94745,26.94745,0,0,0-1.07537,2.8028l-.47417,3.81067c-1.56758,10.8174-3.054,21.0724,4.62363,29.46611a31.375,31.375,0,0,1,7.4575.31384c1.26629.15773,2.46246.30731,3.51978.33614l6.05445.1648-2.23961,4.41008c-2.23475,4.40028-7.71368,4.91537-11.33829,5.25586a14.31161,14.31161,0,0,0-4.42021.80989c-2.32778,1.27657-2.46593,3.02254-2.25,7.32383.04582.917.09164,1.85312.09164,2.79953l.0007,1.6769c.00694,8.53839.01388,17.36669-1.687,25.98014-.454,2.29805.19925,7.87808.89,13.7861,1.73629,14.84184,3.83358,32.77475-4.58127,39.93595,3.68709,3.9918,2.71933,8.20225,1.29753,11.75946a32.5987,32.5987,0,0,1,7.24159-1.6584,70.42532,70.42532,0,0,1,12.13111.22409c2.11743.16046,4.11822.31276,6.02251.35573,5.9281.13434,11.84509.31329,17.76068.49224,11.60072.35028,23.59575.71362,35.42.71362,7.404,0,14.797-.48246,21.94624-.94914,5.25538-.34321,10.68918-.69784,16.07924-.85775Q280.23033,239.93084,280.95546,239.93138Z" transform="translate(-143.02849 -29.99829)"/>
  </g>
</svg>
