<?xml version="1.0" encoding="utf-8"?>
<!-- Generator: Adobe Illustrator 25.2.1, SVG Export Plug-In . SVG Version: 6.00 Build 0)  -->
<svg version="1.1" id="Layer_1" xmlns="http://www.w3.org/2000/svg" xmlns:xlink="http://www.w3.org/1999/xlink" x="0px" y="0px"
	 viewBox="0 0 4176.5 1792.9" style="enable-background:new 0 0 4176.5 1792.9;" xml:space="preserve">
<style type="text/css">
	.st0{fill:url(#SVGID_1_);}
	.st1{fill:#BA3138;}
	.st2{fill:url(#SVGID_2_);}
	.st3{fill:#495F89;}
	.st4{fill:url(#SVGID_3_);}
	.st5{fill:url(#SVGID_4_);}
	.st6{fill:url(#SVGID_5_);}
	.st7{fill:url(#SVGID_6_);}
	.st8{fill:url(#SVGID_7_);}
	.st9{fill:url(#SVGID_8_);}
	.st10{fill:url(#SVGID_9_);}
	.st11{fill:#4E277C;}
	.st12{fill:#5C2B8A;}
	.st13{fill:url(#SVGID_10_);}
	.st14{opacity:0.18;}
	.st15{opacity:0.18;fill:#341E68;enable-background:new    ;}
	.st16{fill:url(#SVGID_11_);}
	.st17{fill:url(#SVGID_12_);}
	.st18{opacity:0.17;fill:#FFFFFF;enable-background:new    ;}
	.st19{fill:#F9EEDA;}
</style>
<g id="Layer_5">
</g>
<g id="Layer_3">
	<g id="Layer_10">
	</g>
</g>
<g id="Layer_18">
</g>
<g id="Layer_4">
</g>
<g id="Layer_15">
	<g>
		<g>
			<g>
				<g>
					
						<linearGradient id="SVGID_1_" gradientUnits="userSpaceOnUse" x1="3650.1165" y1="95.2693" x2="2873.0898" y2="252.2714" gradientTransform="matrix(1 0 0 -1 0 816.4437)">
						<stop  offset="0.162" style="stop-color:#EC3E3F"/>
						<stop  offset="0.3207" style="stop-color:#E93F43"/>
						<stop  offset="0.4641" style="stop-color:#DE424E"/>
						<stop  offset="0.6016" style="stop-color:#CD4860"/>
						<stop  offset="0.7347" style="stop-color:#B44F7A"/>
						<stop  offset="0.7581" style="stop-color:#AF517F"/>
					</linearGradient>
					<path class="st0" d="M3165.4,473.5c-17.7,98.5-35.7,198.5-53.2,297c113.9,35.4,229.9,64.5,360.8,55.1
						c17.7-99,35.4-198,53.2-297C3395.3,538.1,3279.3,509,3165.4,473.5z"/>
					<path d="M3421.6,840.5c-105.4,0-203-23.2-313.3-57.4c-6.1-1.9-10.2-8.3-9-14.6l53.2-297c0.7-3.8,2.8-6.9,6.1-8.7
						c3.1-1.9,7.1-2.4,10.6-1.2c125.5,39,233.9,63.3,356.1,54.6c4-0.2,7.8,1.2,10.6,4.3c2.8,3.1,3.8,7.1,3.1,11.1l-53.2,297
						c-0.9,5.9-5.9,10.2-11.8,10.6C3456.3,839.8,3438.8,840.5,3421.6,840.5z M3126.9,761.6c117.4,36.2,220.4,58.4,335,51.7
						l48.4-270.8c-114.8,5.7-218.1-16.5-334.8-52.2L3126.9,761.6z"/>
				</g>
				<g>
					<g>
						<path class="st1" d="M3112.3,770.5c56-2.8,75.6-7.8,79.9-27.9c17.7-99,35.4-198,53.2-297c-32.4,22.2-51.5,27.2-79.9,27.9
							C3147.7,572.5,3130,671.5,3112.3,770.5z"/>
						<path d="M3112.3,783.5c-3.8,0-7.3-1.7-9.7-4.5c-2.6-3.1-3.8-7.1-3.1-10.9l53.2-297c1.2-6.1,6.4-10.6,12.5-10.6
							c25.5-0.7,42.1-4.5,73-25.5c4.3-3.1,9.9-3.1,14.4-0.2c4.5,2.8,6.6,8,5.7,13.2l-53.2,297c0,0.2,0,0.2,0,0.5
							c-6.9,31.4-39.2,35.4-91.9,38C3112.5,783.5,3112.3,783.5,3112.3,783.5z M3176.3,486.1l-48.4,270.5
							c40.6-2.8,49.6-7.8,51.5-16.3l48.2-268.4C3208.9,481.3,3193.8,484.9,3176.3,486.1z"/>
					</g>
				</g>
				<g>
					<g>
						
							<linearGradient id="SVGID_2_" gradientUnits="userSpaceOnUse" x1="3377.8076" y1="223.8875" x2="2526.2715" y2="332.9904" gradientTransform="matrix(1 0 0 -1 0 816.4437)">
							<stop  offset="0.162" style="stop-color:#EC3E3F"/>
							<stop  offset="0.3207" style="stop-color:#E93F43"/>
							<stop  offset="0.4641" style="stop-color:#DE424E"/>
							<stop  offset="0.6016" style="stop-color:#CD4860"/>
							<stop  offset="0.7347" style="stop-color:#B44F7A"/>
							<stop  offset="0.7581" style="stop-color:#AF517F"/>
						</linearGradient>
						<path class="st2" d="M2897.3,373.6c-17.7,99-35.4,198-53.2,297c130.9-22.7,237.5,31.2,348,72.1c17.7-98.5,35.7-198.5,53.2-297
							C3134.7,404.8,3028.2,350.9,2897.3,373.6z"/>
						<path d="M3192.1,755.9c-1.4,0-3.1-0.2-4.5-0.7c-16.1-5.9-32.1-12.3-47.7-18.2c-95.2-37.1-185.2-72.1-293.7-53.2
							c-4.3,0.7-8.5-0.7-11.3-3.5c-2.8-2.8-4.3-7.3-3.5-11.3l53.2-297c0.9-5.4,5.2-9.7,10.6-10.4c115.5-20.1,213.1,18,307.6,54.6
							c15.6,6.1,31.4,12.3,47.3,18.2c5.9,2.1,9.5,8.3,8.3,14.4l-53.2,297c-0.7,3.8-3.1,7.1-6.4,9
							C3196.6,755.2,3194.3,755.9,3192.1,755.9z M2906.5,652.4c88.4,0,166.6,30.5,242.9,60.3c10.6,4.3,21.7,8.5,32.8,12.8l48.7-271
							c-12.5-4.7-25.3-9.7-37.6-14.4c-92.6-36.2-180.3-70.2-284.7-54.6l-48.4,270.1C2875.8,653.4,2891.4,652.4,2906.5,652.4z"/>
					</g>
				</g>
			</g>
			<g>
				<g>
					<path class="st3" d="M2767.6,1060.5c-2.4-0.2-4.7-0.7-7.1-1.7l-0.5-0.2l-0.5-0.2c-9.7-5-14.9-15.8-12.8-26.5l110.1-658.3
						c1.7-12.8,12.5-22.4,25.5-22.7h0.2c1.9,0,3.5,0.2,5.2,0.7c1.2,0.2,2.4,0.7,3.3,1.4c9.9,5,14.9,15.8,12.8,26.5l-110.1,658.3
						c-1.7,12.8-12.5,22.4-25.5,22.7h-0.5L2767.6,1060.5z"/>
					<path d="M2882.9,364.2c0.5,0,1.2,0,1.7,0.2c0.5,0.2,0.9,0.2,1.2,0.5c4.5,2.4,6.9,7.3,5.7,12.5L2781,1036.1
						c-0.7,6.6-6.1,11.6-12.8,11.6c-0.9,0-1.9-0.2-2.8-0.7c-4.5-2.4-6.9-7.3-5.7-12.5l110.3-658.7
						C2870.8,369.1,2876.2,364.2,2882.9,364.2 M2882.6,338.2h-0.2c-19.1,0.5-35.4,14.9-38,33.8l-110.1,657.8
						c-3.3,16.3,4.5,32.8,19.6,40.4l0.7,0.5l0.7,0.2c3.5,1.4,7.3,2.4,11.3,2.6h1.2h1.2c19.1-0.5,35.4-14.9,38-33.8l110.1-657.8
						c3.3-16.3-4.5-32.8-19.6-40.4c-1.9-0.9-3.8-1.7-5.7-2.1c-2.8-0.7-5.9-1.2-8.7-1.2L2882.6,338.2L2882.6,338.2z"/>
				</g>
			</g>
		</g>
		<g>
			<g>
				<g>
					
						<linearGradient id="SVGID_3_" gradientUnits="userSpaceOnUse" x1="651.2157" y1="165.9679" x2="1203.6705" y2="165.9679" gradientTransform="matrix(1 0 0 -1 0 816.4437)">
						<stop  offset="0.2452" style="stop-color:#EC3E3F"/>
						<stop  offset="0.3818" style="stop-color:#E93F43"/>
						<stop  offset="0.5051" style="stop-color:#DE424E"/>
						<stop  offset="0.6234" style="stop-color:#CD4860"/>
						<stop  offset="0.738" style="stop-color:#B44F7A"/>
						<stop  offset="0.7581" style="stop-color:#AF517F"/>
					</linearGradient>
					<path class="st4" d="M1012,473.5c17.7,98.5,35.7,198.5,53.2,297c-113.9,35.4-229.9,64.5-360.8,55.1c-17.7-99-35.4-198-53.2-297
						C781.9,538.1,898.1,509,1012,473.5z"/>
					<path d="M755.7,840.5c-17.2,0-34.5-0.7-52.2-1.9c-5.9-0.5-10.9-4.7-11.8-10.6l-53.2-297c-0.7-4,0.5-8,3.1-11.1
						c2.6-3.1,6.6-4.5,10.6-4.3c122.2,8.7,230.6-15.4,356.1-54.6c3.5-1.2,7.3-0.7,10.6,1.2c3.1,1.9,5.4,5.2,6.1,8.7l53.2,297
						c1.2,6.4-2.6,12.8-9,14.6C958.8,817.3,861,840.5,755.7,840.5z M715.5,813.3c114.4,6.6,217.6-15.6,335-51.7l-48.7-271.2
						C885.1,526,781.6,548.2,667,542.5L715.5,813.3z"/>
				</g>
				<g>
					<g>
						<path class="st1" d="M1065.2,770.5c-56-2.8-75.6-7.8-79.9-27.9c-17.7-99-35.4-198-53.2-297c32.4,22.2,51.5,27.2,79.9,27.9
							C1029.7,572.5,1047.5,671.5,1065.2,770.5z"/>
						<path d="M1065.2,783.5c-0.2,0-0.5,0-0.7,0c-52.7-2.6-85.3-6.6-91.9-38c0-0.2,0-0.2,0-0.5l-53.2-297
							c-0.9-5.2,1.4-10.4,5.7-13.2c4.5-2.8,10.2-2.8,14.4,0.2c31,21,47.5,24.8,73,25.5c6.1,0.2,11.3,4.7,12.5,10.6l53.2,297
							c0.7,4-0.5,7.8-3.1,10.9C1072.5,781.9,1069,783.5,1065.2,783.5z M998.1,740.3c1.9,8.5,10.9,13.5,51.5,16.3l-48.4-270.5
							c-17.2-1.2-32.6-4.7-51-14.4L998.1,740.3z"/>
					</g>
				</g>
				<g>
					<g>
						
							<linearGradient id="SVGID_4_" gradientUnits="userSpaceOnUse" x1="914.8043" y1="252.6833" x2="1515.6608" y2="280.099" gradientTransform="matrix(1 0 0 -1 0 816.4437)">
							<stop  offset="0.162" style="stop-color:#EC3E3F"/>
							<stop  offset="0.3207" style="stop-color:#E93F43"/>
							<stop  offset="0.4641" style="stop-color:#DE424E"/>
							<stop  offset="0.6016" style="stop-color:#CD4860"/>
							<stop  offset="0.7347" style="stop-color:#B44F7A"/>
							<stop  offset="0.7581" style="stop-color:#AF517F"/>
						</linearGradient>
						<path class="st5" d="M1280,373.6c17.7,99,35.4,198,53.2,297c-130.9-22.7-237.5,31.2-348,72.1c-17.7-98.5-35.7-198.5-53.2-297
							C1042.5,404.8,1149.3,350.9,1280,373.6z"/>
						<path d="M985.3,755.9c-2.1,0-4.5-0.5-6.4-1.7c-3.3-1.9-5.7-5.2-6.4-9l-53.2-297c-1.2-6.1,2.4-12.3,8.3-14.4
							c15.8-5.9,31.9-12.1,47.3-18.2c94.3-36.6,191.9-74.7,307.6-54.6c5.4,0.9,9.7,5.2,10.6,10.4l53.2,297c0.7,4.3-0.5,8.5-3.5,11.3
							c-3.1,2.8-7.3,4.3-11.3,3.5c-108.5-18.9-198.5,16.1-293.7,53.2c-15.6,6.1-31.7,12.3-47.7,18.2
							C988.4,755.4,986.7,755.9,985.3,755.9z M946.6,454.2l48.7,271c11.1-4.3,22-8.5,32.8-12.8c89.3-34.7,181.7-70.6,289.2-57.4
							l-48.4-270.1c-104.4-15.6-192.1,18.7-284.7,54.6C971.8,444.5,959.3,449.4,946.6,454.2z"/>
					</g>
				</g>
			</g>
			<g>
				<g>
					<path class="st3" d="M1408.7,1060.5c-12.8-0.2-23.6-9.9-25.5-22.7l-110.1-658.3c-2.4-10.6,2.8-21.5,12.8-26.5
						c1.2-0.5,2.4-0.9,3.5-1.4c1.7-0.5,3.5-0.7,5.2-0.7h0.2c12.8,0.2,23.6,9.9,25.5,22.7l110.1,658.3c2.4,10.6-2.8,21.5-12.8,26.5
						l-0.5,0.2l-0.5,0.2c-2.4,0.9-4.7,1.7-7.1,1.7h-0.5L1408.7,1060.5z"/>
					<path d="M1294.6,364.2c6.6,0.2,12.1,5,12.8,11.6l110.3,658.7c1.2,5-1.2,10.2-5.7,12.5c-0.9,0.5-1.9,0.7-2.8,0.7
						c-6.6-0.2-12.1-5-12.8-11.6l-110.3-658.7c-1.2-5,1.2-10.2,5.7-12.5c0.2-0.2,0.7-0.2,1.2-0.5
						C1293.4,364.2,1294.1,364.2,1294.6,364.2 M1294.6,338.2h-0.2c-3.1,0-5.9,0.5-8.7,1.2c-1.9,0.5-3.8,1.4-5.7,2.1
						c-15.1,7.6-22.9,24.1-19.6,40.6l110.1,657.8c2.6,18.9,18.9,33.3,38,33.8h1.2h1.2c3.8-0.2,7.8-1.2,11.3-2.6l0.7-0.2l0.7-0.5
						c15.1-7.6,22.9-24.1,19.6-40.4l-110.1-657.8c-2.6-18.9-18.9-33.3-38-33.8L1294.6,338.2L1294.6,338.2z"/>
				</g>
			</g>
		</g>
	</g>
	<g>
		<g>
			<path d="M2784.8,455.4c-22.7,2.1-45.6,3.5-68.3,5.2l-34.3,2.1l-34.3,1.7c-11.3,0.5-22.7,1.7-34.3,2.4
				c-11.3,0.9-22.7,0.9-34.3,0.2c-11.3-0.7-22.7-1.9-34.3-3.8c-11.3-1.9-22.7-4.3-34.3-7.8v-2.6c11.3-3.8,22.7-5.9,34.3-7.8
				c11.3-1.9,22.7-3.1,34.3-3.8c11.3-0.7,22.7-0.7,34.3,0.2c11.3,0.9,22.7,1.9,34.3,2.4l34.3,1.7l34.3,2.1
				c22.7,1.7,45.6,3.1,68.3,5.2V455.4z"/>
		</g>
		<g>
			<path d="M2713.9,514c-16.8,2.1-33.3,3.5-50.1,5.2l-25,2.1l-25,1.7c-8.3,0.5-16.8,1.7-25,2.4c-8.3,0.9-16.8,0.9-25,0.2
				c-8.3-0.7-16.8-1.9-25-3.8c-8.3-1.9-16.8-4.3-25-7.8v-2.6c8.3-3.8,16.8-5.9,25-7.8c8.3-1.9,16.8-3.1,25-3.8
				c8.3-0.7,16.8-0.7,25,0.2c8.3,0.9,16.8,1.9,25,2.4l25,1.7l25,2.1c16.8,1.7,33.3,3.1,50.1,5.2V514z"/>
		</g>
		<g>
			<path d="M2748.4,572.8c-16.8,2.1-33.3,3.5-50.1,5.2l-25,2.1l-25,1.7c-8.3,0.5-16.8,1.7-25,2.4c-8.3,0.9-16.8,0.9-25,0.2
				c-8.3-0.7-16.8-1.9-25-3.8c-8.3-1.9-16.8-4.3-25-7.8v-2.6c8.3-3.8,16.8-5.9,25-7.8c8.3-1.9,16.8-3.1,25-3.8
				c8.3-0.7,16.8-0.7,25,0.2c8.3,0.9,16.8,1.9,25,2.4l25,1.7l25,2.1c16.8,1.7,33.3,3.1,50.1,5.2V572.8z"/>
		</g>
		<g>
			<path d="M2696.9,750.7c-16.8,2.1-33.3,3.5-50.1,5.2l-25,2.1l-25,1.7c-8.3,0.5-16.8,1.7-25,2.4c-8.3,0.9-16.8,0.9-25,0.2
				c-8.3-0.7-16.8-1.9-25-3.8c-8.3-1.9-16.8-4.3-25-7.8v-2.6c8.3-3.8,16.8-5.9,25-7.8c8.3-1.9,16.8-3.1,25-3.8
				c8.3-0.7,16.8-0.7,25,0.2s16.8,1.9,25,2.4l25,1.7l25,2.1c16.8,1.7,33.3,3.1,50.1,5.2V750.7z"/>
		</g>
		<g>
			<path d="M2731.2,809.5c-16.8,2.1-33.3,3.5-50.1,5.2l-25,2.1l-25,1.7c-8.3,0.5-16.8,1.7-25,2.4c-8.3,0.9-16.8,0.9-25,0.2
				s-16.8-1.9-25-3.8c-8.3-1.9-16.8-4.3-25-7.8v-2.6c8.3-3.8,16.8-5.9,25-7.8s16.8-3.1,25-3.8c8.3-0.7,16.8-0.7,25,0.2
				c8.3,0.9,16.8,1.9,25,2.4l25,1.7l25,2.1c16.8,1.7,33.3,3.1,50.1,5.2V809.5z"/>
		</g>
		
			<linearGradient id="SVGID_5_" gradientUnits="userSpaceOnUse" x1="1788.6034" y1="1107.8319" x2="2183.7693" y2="-313.1684" gradientTransform="matrix(1 0 0 -1 0 816.4437)">
			<stop  offset="0" style="stop-color:#FFFFFF"/>
			<stop  offset="0.4437" style="stop-color:#FDFFFF"/>
			<stop  offset="0.6035" style="stop-color:#F6FDFF"/>
			<stop  offset="0.7174" style="stop-color:#EBFAFF"/>
			<stop  offset="0.8095" style="stop-color:#DAF6FE"/>
			<stop  offset="0.8883" style="stop-color:#C4F1FE"/>
			<stop  offset="0.9569" style="stop-color:#A9EAFD"/>
			<stop  offset="1" style="stop-color:#94E5FD"/>
		</linearGradient>
		<path class="st6" d="M2170,31.5c-452,59.3-614.8,694.4-463.3,1066.3c138,134.9,386.5,116.7,559.3,77.7
			c-49.4-66.2-80.8-217.6-82.5-298.7c8.7-207.7,143.2-313.8,234.2-482.5C2441,211.3,2356.9,68.8,2170,31.5z"/>
		
			<linearGradient id="SVGID_6_" gradientUnits="userSpaceOnUse" x1="2019.0398" y1="1095.0084" x2="2641.7251" y2="-437.7559" gradientTransform="matrix(1 0 0 -1 0 816.4437)">
			<stop  offset="0.162" style="stop-color:#EC3E3F"/>
			<stop  offset="0.4553" style="stop-color:#EA3F41"/>
			<stop  offset="0.5609" style="stop-color:#E44148"/>
			<stop  offset="0.6362" style="stop-color:#D84453"/>
			<stop  offset="0.697" style="stop-color:#C84964"/>
			<stop  offset="0.7486" style="stop-color:#B4507A"/>
			<stop  offset="0.7581" style="stop-color:#AF517F"/>
		</linearGradient>
		<path class="st7" d="M2198.8,35.5c0,0,148.9,34.3,201.1,157.8c62.6,148.9-35.7,283.8-40.4,289.9c-19.4,25-39.9,42.3-55.3,53.6
			c0,0-220.4,238.2-63.3,625l53.2,13.7l239.6-101.8l-22-127.8l8.5-61.9l47.5-59.8l18-133.7l-19.8-79.6l37.1-54.1l22.7-201.5l-52-163
			L2461.8,83.7L2368,35.5l-143.7-11.6l-83.9,11.6H2198.8z"/>
		
			<linearGradient id="SVGID_7_" gradientUnits="userSpaceOnUse" x1="1429.365" y1="855.4531" x2="2052.0505" y2="-677.3113" gradientTransform="matrix(1 0 0 -1 0 816.4437)">
			<stop  offset="0.162" style="stop-color:#EC3E3F"/>
			<stop  offset="0.4553" style="stop-color:#EA3F41"/>
			<stop  offset="0.5609" style="stop-color:#E44148"/>
			<stop  offset="0.6362" style="stop-color:#D84453"/>
			<stop  offset="0.697" style="stop-color:#C84964"/>
			<stop  offset="0.7486" style="stop-color:#B4507A"/>
			<stop  offset="0.7581" style="stop-color:#AF517F"/>
		</linearGradient>
		<path class="st8" d="M1720.4,406c-19.6-7.1-39-14.2-58.6-21.3c0,0,21.7-194.2,0-216c-18.7-18.7-127.8,9.5-177.7,180.8
			c-18.7,64-4,133,39.7,183.4c18.4,21.3,42.1,43.9,71.8,64.7c24.6,17.2,57.7,34,65.4,13.5C1685.6,545.6,1720.4,406,1720.4,406z"/>
		
			<linearGradient id="SVGID_8_" gradientUnits="userSpaceOnUse" x1="1798.2054" y1="1005.2944" x2="2420.8906" y2="-527.4697" gradientTransform="matrix(1 0 0 -1 0 816.4437)">
			<stop  offset="0.162" style="stop-color:#EC3E3F"/>
			<stop  offset="0.4553" style="stop-color:#EA3F41"/>
			<stop  offset="0.5609" style="stop-color:#E44148"/>
			<stop  offset="0.6362" style="stop-color:#D84453"/>
			<stop  offset="0.697" style="stop-color:#C84964"/>
			<stop  offset="0.7486" style="stop-color:#B4507A"/>
			<stop  offset="0.7581" style="stop-color:#AF517F"/>
		</linearGradient>
		<polygon class="st9" points="2035.8,278.1 1929.9,231.6 1929.9,270.1 2012.4,337.9 2050.2,296.8 		"/>
		
			<linearGradient id="SVGID_9_" gradientUnits="userSpaceOnUse" x1="1562.0969" y1="-107.2787" x2="1128.5989" y2="-370.3483" gradientTransform="matrix(0.9002 0.2615 0.3017 -1.0385 1421.7157 -452.5352)">
			<stop  offset="0" style="stop-color:#F878A3"/>
			<stop  offset="3.790116e-02" style="stop-color:#F984AB;stop-opacity:0.9621"/>
			<stop  offset="0.1744" style="stop-color:#FBA9C5;stop-opacity:0.8256"/>
			<stop  offset="0.3171" style="stop-color:#FCC8DA;stop-opacity:0.6829"/>
			<stop  offset="0.4655" style="stop-color:#FDE1EA;stop-opacity:0.5345"/>
			<stop  offset="0.6219" style="stop-color:#FEF2F6;stop-opacity:0.3781"/>
			<stop  offset="0.7918" style="stop-color:#FFFCFD;stop-opacity:0.2082"/>
			<stop  offset="1" style="stop-color:#FFFFFF;stop-opacity:0"/>
		</linearGradient>
		<path class="st10" d="M2490.6,408.8c13.7-3.5,85.3-22.2,115.8-81.5c0.5-1.2,0.9-2.1,1.4-2.6c2.8-9.2,5.7-23.4,2.6-39.9
			c-3.1-16.3-10.6-27.6-14.2-32.8c-28.4-42.3-31.4-61-50.1-85.8c-48.4-64.7-151.9-103.7-166.8-109.4l-14.2-6.4h-0.2c0,0,0,0-0.2,0
			h-0.2c0,0,0,0-0.2,0h-0.2c0,0,0,0-0.2,0l0,0h-0.2c-46.1-20.3-94.3-28.6-142.2-26c1.4,0.7,3.1,1.2,4.5,1.9c2.6,5.7,5,11.3,7.6,17
			c17,3.3,41.6,10.2,67.1,26c52.2,31.7,74.2,78.9,90.3,111.8c24.6,50.1,45.8,127.8,29.5,235.1
			C2450.9,417.3,2475.3,412.8,2490.6,408.8z"/>
		<g>
			<path d="M2554,879.9c37.6-44.2,53.6-108.5,45.4-181.2c-2.4-21.3-7.1-43-13.7-64.5c88.6-226.4,48.2-367.9-3.1-447.5
				C2485.2,35,2346.7,1.5,2247.7,0c-102.1-1.4-182.2,29.8-191.1,33.3c-103,33.8-204.9,122.9-282.1,247.9
				c-17.7,28.8-36.4,63.1-54.1,103l-48.4-14.4c16.1-42.8,23.9-86,23.4-128.8c-0.5-45.8-10.6-75.1-29.8-86.7
				c-25.5-15.6-56.5-4.7-72.8,3.3l-1.7,0.9c-15.4,9.7-29.5,21-42.8,33.3c-20.1,19.1-37.3,40.9-51.3,65.2
				c-17,24.1-59.8,107.3-45.1,187.1c10.6,57.2,50.3,110.1,112,149.3c24.8,15.8,52.7,28.8,82.7,39c-10.9,64.5-17.2,135.9-16.8,214.3
				c0.5,74.4,12.5,209.8,88.1,281.6c65.2,61.9,172.7,93.1,319.4,93.1c5.7,0,11.1,0,17-0.2c113.9-1.9,207.2-21.5,211.2-22.4l25.8-5.4
				l-0.2-0.5c191.9-46.8,259.4-109.6,262.3-112.2l9.2-9l-5.7-11.6c-18.9-39.5-29.3-91.7-30.7-154.8
				C2536.5,898.1,2545.7,889.6,2554,879.9z M1911.5,166.4c7.8-7.6,15.8-14.6,24.1-21.5c12.5,14.4,21.7,27.4,28.4,38
				c1.9,3.3,3.8,6.4,5.4,9.5C1954.3,184.3,1935.1,175.1,1911.5,166.4z M1583.3,563.8c-53.4-34-87.4-78.7-96.2-125.9
				c-13-69.9,27.9-144.6,39.5-160.7l0.9-1.7c12.3-21.5,27.6-40.9,45.4-57.9c11.1-10.6,23.4-20.3,36.6-28.6
				c12.3-5.9,28.6-9.9,37.8-4.5c0.2,0,12.3,8,12.8,56.9c0.5,44.2-9.2,89.1-28.6,133.7l-0.5,1.2l-4.7,17.5l27.6,7.3l52.5,15.6
				c-20.8,51.7-39.5,111.8-53.2,180.3C1628,588.6,1604.6,577.3,1583.3,563.8z M1742.8,1103c-66.2-62.6-76.8-187.4-77.3-256.1
				c-1.7-263,74.9-442.5,139.2-546.7c25.8-41.6,54.1-78.9,84.6-111.3c7.1,2.4,13.7,5,19.8,7.3c-3.3,2.1-5.7,5.7-6.1,9.7
				c-0.2,1.2-3.8,27.4,7.1,58.1c9.9,28.4,34.7,66.4,95.2,86c1.4,0.5,2.8,0.7,4.5,0.7c1.9,0,3.5-0.2,5.4-0.9
				c10.9-4.5,20.3-11.3,27.6-19.8c18.7-22,17.7-47.7,16.5-57.9c-0.7-6.4-5.9-11.6-12.3-12.3c-20.1-2.4-39.7-7.8-58.1-16.3
				c-18.9-8.7-36.2-20.6-51.5-34.7c33.8,16.1,51.7,29.8,52,30c2.6,2.1,5.7,3.1,8.7,3.1c2.6,0,5-0.7,7.3-1.9c5-3.1,7.8-8.7,6.9-14.6
				c-0.5-2.4-8-44.4-54.3-97.6c42.1-31.9,85.8-54.1,127.6-65c23.9-6.1,47-7.6,63.1-7.6c11.8,0,20.1,0.7,22,0.9l0,0
				c41.6,4.3,85.1,20.3,121.9,45.4c40.2,27.2,71.6,63.8,91,105.9c25,54.1,29.5,118.4,12.8,180.8c-13.5,50.3-51.7,98.5-92.1,149.6
				c-15.8,19.8-31.9,40.4-47,61.4c-68.5,96.4-101.6,214.5-92.6,332.2c8.5,113.9,48.4,199.9,69.7,238.6
				C2149.2,1183.6,1866.9,1220.7,1742.8,1103z M1933.3,242c13.5,10.6,28.1,19.6,43.9,26.7c17.2,8,35.4,13.7,54.3,17
				c-0.7,7.6-3.1,17.2-10.2,25.5c-3.3,4-7.6,7.3-12.3,9.9C1956.6,302.5,1938.9,267.7,1933.3,242z M2519.7,1062.8
				c-24.6,18-98.3,63.6-249,99c-16.8-28.8-62.4-116.2-71.1-233.9c-0.5-5.2-0.7-10.6-0.9-15.8c9.5,20.6,30.5,33.1,43.9,39.2l1.9,0.7
				c17.2,5.7,35,9.9,52.7,12.1c12.3,1.7,24.8,2.4,37.1,2.4c15.4,0,30.7-1.2,45.8-3.8c19.6-1.4,67.1-10.4,112-34.5
				C2495.1,980.8,2504.3,1025.7,2519.7,1062.8z M2377.2,927.7l-1.9,0.2c-24.3,4-49.1,4.5-73.5,1.2c-15.4-2.1-30.5-5.4-45.1-10.4
				c-12.3-5.9-25.8-15.8-27.2-26.7c0-0.2-1.4-14.6,36.2-45.8c34-28.1,74.9-49.1,121.9-62.1l1.2-0.5l16.5-7.6l-9.2-20.6l-23.4-56.2
				c-3.8-9-14.2-13.2-23.2-9.7l0,0c-9,3.8-13.2,14.2-9.7,23.2l18,43.2c-43.5,14.6-82,35.7-114.8,62.8
				c-22.2,18.4-36.9,35.7-43.9,51.5c4.3-89.8,34.5-177.4,87.2-251.6c14.2-20.1,30.2-40.4,45.8-59.8c40.9-51.5,83.2-104.9,98.5-162.3
				c18.9-70.4,13.7-143.2-14.9-204.9c-22.2-48-57.9-89.5-103.3-120.3c-22-14.9-46.3-26.9-71.1-35.9c2.6,0,5.2,0,7.6,0
				c57.4,0.9,110.3,13,157.1,35.7c58.4,28.4,108,73.7,147,134.7c43.7,68.3,78.4,187.4,13.7,377.6c-13.2-29.5-30-58.6-50.1-86
				c-5.9-8-17.5-9.9-25.3-3.5l0,0c-7.6,5.9-9,16.5-3.5,24.3c42.3,57.9,69.2,122.9,76.3,184.8c7.3,62.8-5.9,117.4-37.1,154.1
				C2480.9,911.1,2397.1,926.5,2377.2,927.7z"/>
			<path d="M2320,373.4c-52-47.3-99.9-74.7-132.1-89.8c3.3-0.5,7.1-0.9,10.9-1.4c29.8-2.8,79.2-1.7,144.4,20.6l9.2-26.9
				c-137.3-46.5-212.9-8.7-216-7.1c-5.2,2.6-8.3,8.3-7.6,14.2c0.7,5.9,4.7,10.6,10.4,12.1c0.7,0.2,75.6,20.6,161.9,99.2L2320,373.4z
				"/>
		</g>
	</g>
	<g>
		<g>
			<g>
				<path class="st11" d="M542.5,1712.1c-59.3,0-82-42.1-85.3-48.9l-30-55.8l-0.5-1.9c-122.2-450.1-106.8-470.4-100.9-478
					c3.8-5,9.2-7.6,15.4-7.6c2.8,0,7.3,0.7,12.1,4c13.5,9.7,39.2,20.1,71.1,20.1c36.2,0,71.8-12.8,105.9-37.8
					c87.4-64.5,230.1-112.9,236.3-115.1l13.9-4.7l7.1,13c2.4,4.3,57.7,109.2,120.5,318.5c10.4,34.5,19.1,62.8,26.5,86.5l0.7,1.9
					c36.4,116.7,39.2,126.2-1.7,162.8l-2.8,2.6c-46.8,41.8-304.1,129.7-368.8,139.2C555.3,1711.6,548.9,1712.1,542.5,1712.1
					L542.5,1712.1z"/>
				<g>
					<path d="M772.2,1007.3c0,0,56,105.1,119.3,315.4c10.4,34.5,19.1,63.1,26.7,86.7c37.6,120.7,36.6,117,0.9,149.1
						c-42.8,38.3-293.7,125.2-359.6,134.9c-5.9,0.9-11.6,1.2-17,1.2c-52.5,0-69.7-39.2-69.7-39.2l-29.3-54.3
						c0,0-125.9-463.6-102.5-463.6c0.5,0,1.2,0.2,1.9,0.7c16.1,11.6,45.1,23.2,81.3,23.2c34,0,74.4-10.4,116.2-41.3
						C627.1,1056.2,772.2,1007.3,772.2,1007.3 M789.2,964.8l-28.1,9.5c-6.1,2.1-151.2,51.3-241,117.7c-31,22.9-63.1,34.5-95.5,34.5
						c-27.6,0-49.6-8.7-61-16.8c-6.6-4.7-14.4-7.3-22.2-7.3c-11.6,0-22.2,5.2-29.3,14.4c-12.3,16.1-20.3,26.5,39.7,268.9
						c27.6,112.2,57.9,223.3,58.1,224.2l0.9,3.8l1.9,3.5l28.6,53.4c10.6,22.7,42.8,58.8,100.9,58.8c7.1,0,14.4-0.5,22-1.7
						c67.8-9.9,328-98.8,377.8-143.4l2.8-2.6c49.4-43.9,43.7-62.4,6.9-181l-0.7-1.9c-7.8-25.3-16.5-52.9-26.5-86.5
						C861,1101.1,805,995,802.7,990.5L789.2,964.8L789.2,964.8z"/>
				</g>
			</g>
			<g>
				<path class="st12" d="M941.8,1532.1c1.2-13.2-1.7-28.1-4.7-30c-0.5,0-0.7,0-1.2,0c-0.5,0-0.9,0-1.4,0
					c-53.6,8.7-72.1,20.3-89.8,31.7c-15.6,9.7-31.7,19.8-65.7,25.8c-6.9,1.2-13.9,1.9-20.6,1.9l0,0
					c-101.4,0-130.9-130.4-132.1-135.9c-3.5-13.7-0.9-28.8,7.8-42.8c45.4-72.3,265.1-116,289.9-120.7l15.6-3.1l4.5,15.4
					c0.5,1.2,37.1,128.1,51.7,184.1c18.2,70.4-27.9,91-29.8,91.7l-27.2,11.6L941.8,1532.1z"/>
				<path d="M927.2,1279c0,0,36.9,127.1,51.5,183.6c14.6,56.7-19.6,71.4-19.6,71.4s5-49.4-23.2-49.4c-1.4,0-2.8,0.2-4.5,0.5
					c-103.3,17-87.2,45.6-155.7,57.4c-6.1,0.9-12.1,1.4-17.5,1.4c-88.6,0-115.1-122.2-115.1-122.2
					C621.2,1337.4,927.2,1279,927.2,1279 M952,1238.6l-31.2,5.9c-41.8,8-253.1,51.7-301.5,128.8c-11.3,18-14.6,37.6-9.9,56.5
					c1.4,5.7,9.2,38,28.1,70.4c29.8,51.3,71.6,78.4,121,78.4c7.6,0,15.6-0.7,23.4-2.1c37.6-6.4,56-18,72.1-28.1
					c15.6-9.7,30.2-19.1,70.4-26.9c0.2,3.1,0.2,6.1,0,8.7l-5.2,58.1l53.6-22.7c21.5-9.2,57.4-44.4,39.7-112.2
					c-14.6-56.5-50.3-179.6-52-184.8L952,1238.6L952,1238.6z"/>
			</g>
			<path class="st12" d="M493.4,1531.4c9.5-0.7,77,7.1,82,28.4l14.4,81c0,0-0.2,0.2-0.7,0.5c-3.1,1.7-15.8,7.1-51,4
				c-41.6-3.5-47,16.5-43.2,26.9s16.5,16.8,16.5,16.8s-19.8,0.2-39.5-35.7c-19.4-36.2-31.2-63.1-31.2-63.1
				S483.9,1532.1,493.4,1531.4z"/>
			<g>
				
					<linearGradient id="SVGID_10_" gradientUnits="userSpaceOnUse" x1="331.8807" y1="-1494.3392" x2="331.8807" y2="-319.08" gradientTransform="matrix(1 0 0 -1 0 816.4437)">
					<stop  offset="0" style="stop-color:#5C2B8A"/>
					<stop  offset="1" style="stop-color:#873FC8"/>
				</linearGradient>
				<path class="st13" d="M217.4,1775.7c-2.8,0-5.7,0-8.5-0.2c-44.4-2.6-62.8-5.4-67.1-22.4c-3.8-15.4,9.7-23.6,19.6-29.5l4.7-2.8
					c6.4-4.7,29.5-38.5,49.9-84.8l17-44.2c8.5-26,13.7-50.8,15.1-72.5c2.8-44.7-1.2-72.1-12.1-83.9c-4-4.3-11.6-9.7-32.1-9.7
					c-3.3,0-6.9,0.2-10.6,0.5c-13,0.9-29.5,2.6-46.8,4.5c-32.1,3.3-65.2,6.9-87.9,6.9h-0.2c-12.8,0-34,0-39.9-16.3
					c-1.9-5.2-3.3-15.8,9.5-26.2c18.2-15.1,54.3-91,89.5-188.8c10.2-28.4,28.8-55.1,53.6-77.7l8-7.3l21.5,8.3v-23.9l8.7-5
					c32.1-18.4,68.3-28.6,104.7-29.3c3.5,0,7.1,0,10.2,0c77,0,89.5,22.7,141.3,117.9c8.3,15.4,17.7,32.6,28.8,52.5
					c13,23.2,25.8,45.6,38.3,67.6c72.3,126.4,129.5,226.4,110.1,288.7c-16.1,52-56.2,65.9-77.3,65.9c-19.8,0-25-11.1-26.5-15.8
					c-1.9-7.1-0.5-16.8,10.2-23.2c1.2-0.7,2.8-2.1,3.8-5.7c0.9-4.3,0-8.7-0.7-11.1c-8.3-4.3-20.3-8.7-35.2-8.7
					c-28.6,0-56.2,16.3-82.7,48.4C383.7,1709.3,299.9,1775.7,217.4,1775.7z"/>
				<g class="st14">
					<path class="st15" d="M662.1,1522.1c-11.3,3.3-22.4,6.6-33.8,9.9c1.9,13.9,1.4,26.2-1.9,36.9c-13.2,42.3-44.7,53.6-60.7,53.6
						c-8.5,0-12.8-3.3-7.1-6.9c19.1-11.8,12.3-41.3,5-45.6c-12.3-6.9-28.1-12.3-46.3-12.3c-28.4,0-62.1,13.2-96.2,54.8
						c-53.9,65.7-133,121.9-203.7,121.9c-2.6,0-5,0-7.6-0.2c-72.3-4.3-52.2-11.3-34.5-22.7c4.7-2.8,12.5-12.8,22-27.2
						c-7.1,0.5-14.2,0.7-21.3,1.2c-15.1,16.3-28.6,34-41.8,52c-1.9,2.4-4,4-6.4,4.7c11.6,22.7,42.1,24.6,79.9,26.7
						c3.1,0.2,6.4,0.2,9.7,0.2c88.6,0,177.2-69.7,230.8-134.7c22.9-27.9,46.1-42.1,69.2-42.1c4.7,0,9,0.7,13,1.4
						c-8.3,9.5-11.3,22.2-7.8,34.5c4,13.7,17.2,28.6,43.2,28.6c34.7,0,77.3-24.1,94-78.2C665.2,1562.3,665.4,1543.2,662.1,1522.1z"
						/>
				</g>
				<path d="M324.2,1088.1c77.5,0,75.1,18.7,155,161.4c83.2,148.6,167.3,277.4,147.2,342.6c-13.2,42.3-44.7,53.6-60.7,53.6
					c-8.5,0-12.8-3.3-7.1-6.9c19.1-11.8,12.3-41.3,5-45.6c-12.3-6.9-28.1-12.3-46.3-12.3c-28.4,0-62.1,13.2-96.2,54.8
					c-53.9,65.7-133,121.9-203.7,121.9c-2.6,0-5,0-7.6-0.2c-72.3-4.3-52.2-11.3-34.5-22.7c9.9-6.4,35.2-44.2,56.5-92.6l17.2-44.9
					c8.5-25.8,14.6-52.5,16.3-77.7c5.4-85.5-12.5-112.2-61.7-112.2c-3.8,0-7.8,0.2-11.8,0.5c-36.6,2.6-99.2,11.1-133.5,11.1
					c-20.1,0-30.2-2.8-19.6-11.6c28.6-23.6,72.3-134,95-196.3c9.2-25.3,26.2-50.1,49.1-70.6l35.2,13.5v-39.2
					c27.9-16.1,60.5-26.2,96.2-26.9C317.8,1088.1,321.1,1088.1,324.2,1088.1 M324.2,1053.1c-3.3,0-6.9,0-10.6,0
					c-39.2,0.7-78.4,11.6-112.9,31.4l-17.5,10.2v8.5l-7.8-3.1l-15.8,14.4c-26.9,24.6-47.3,53.9-58.4,84.6
					c-37.8,104.4-71.1,170.4-84.4,181.2C-5.4,1398.8,0,1419.8,2.2,1426c10.2,27.9,42.8,27.9,56.7,27.9c23.6,0,57.2-3.5,89.8-6.9
					c17.2-1.9,33.6-3.5,46.3-4.5c3.3-0.2,6.4-0.5,9.5-0.5c5.7,0,15.8,0.5,19.4,4.3c3.3,3.5,10.9,17.7,7.3,70.9
					c-1.2,20.1-6.1,43-14.4,68.3l-16.8,43.2c-18.2,41.3-37.8,70.4-44.4,77.3c-0.9,0.7-2.1,1.2-3.1,1.9
					c-10.4,6.1-34.3,20.8-27.4,48.7c7.8,31.2,40.9,33.1,83.2,35.7c3.1,0.2,6.4,0.2,9.7,0.2c88.6,0,177.2-69.7,230.8-134.7
					c22.9-27.9,46.1-42.1,69.2-42.1c4.7,0,9,0.7,13,1.4c-8.3,9.5-11.3,22.2-7.8,34.5c4,13.7,17.2,28.6,43.2,28.6
					c34.7,0,77.3-24.1,94-78.2c21.5-69.5-37.3-172.2-111.8-302.7c-12.5-22-25.5-44.4-38.3-67.3c-11.1-19.6-20.6-37.1-28.8-52.2
					C427.7,1082.7,411.6,1053.1,324.2,1053.1L324.2,1053.1z"/>
			</g>
			<g>
				<path class="st11" d="M3633.5,1712.1c-6.4,0-12.8-0.5-19.4-1.4c-64.7-9.5-321.8-97.1-368.8-139.2l-2.8-2.6
					c-41.1-36.6-38-46.1-1.9-162.6l0.7-1.9c7.6-24.1,16.3-52.5,26.5-86.5c62.9-209.6,118.1-314.2,120.5-318.5l7.1-13l13.9,4.7
					c6.1,2.1,148.6,50.6,236.3,115.1c34,25,69.7,37.8,105.9,37.8c31.9,0,57.7-10.4,71.1-20.1c4.7-3.3,9.2-4,12.1-4
					c5.9,0,11.6,2.8,15.4,7.6c5.9,7.6,21.3,27.9-100.9,478l-0.5,1.9l-30,55.8C3715.5,1670.1,3692.8,1712.1,3633.5,1712.1z"/>
				<g>
					<path d="M3403.8,1007.3c0,0,145.1,48.9,231.3,112.5c41.8,31,82.2,41.3,116.2,41.3c36.2,0,65.2-11.8,81.3-23.2
						c0.7-0.5,1.4-0.7,1.9-0.7c23.4,0-102.5,463.6-102.5,463.6l-29.3,54.3c0,0-17,39.2-69.7,39.2c-5.2,0-10.9-0.5-17-1.2
						c-65.9-9.5-316.8-96.6-359.6-134.9c-35.7-31.9-36.6-28.4,0.9-149.1c7.3-23.6,16.3-52.2,26.7-86.7
						C3347.9,1112.4,3403.8,1007.3,3403.8,1007.3 M3387.1,964.8l-13.9,26.2c-2.4,4.5-58.4,110.6-121.9,321.8
						c-10.2,33.8-18.9,61.7-26.2,85.1l-0.5,1.2l-0.7,1.9c-36.9,118.6-42.5,136.8,6.9,181l2.8,2.6c49.9,44.7,310.2,133.5,377.8,143.4
						c7.6,1.2,14.9,1.7,22,1.7c58.1,0,90.5-36.2,100.9-58.8l28.6-53.4l1.9-3.5l0.9-3.8c0.2-1.2,30.5-112.2,58.1-224.2
						c60-242.4,52-253.1,39.7-268.9c-7.1-9.2-17.7-14.4-29.3-14.4c-7.8,0-15.6,2.6-22.2,7.3c-11.3,8-33.3,16.8-61,16.8
						c-32.4,0-64.5-11.6-95.5-34.5c-89.8-66.2-234.9-115.5-241-117.7L3387.1,964.8L3387.1,964.8z"/>
				</g>
			</g>
			<g>
				<path class="st12" d="M3234,1559.2c-1.9-0.9-48-21.3-29.8-91.7c14.6-56.2,51.3-182.9,51.7-184.3l4.5-15.4l15.6,3.1
					c24.8,4.7,244.5,48.7,289.9,120.7c8.7,13.9,11.3,29.1,7.6,43.5c-0.9,4.7-30.5,135.2-131.8,135.2c-6.6,0-13.5-0.7-20.6-1.9
					c-34-5.9-50.1-15.8-65.7-25.8c-17.7-11.1-36.4-22.7-89.8-31.7c-0.5,0-1.2-0.2-1.7-0.2c-4,1.9-6.9,17-5.7,30.2l2.8,29.3
					L3234,1559.2z"/>
				<path d="M3272.7,1288.2c0,0,306.2,58.6,283.8,142.7c0,0-26.5,122.2-115.1,122.2c-5.7,0-11.3-0.5-17.5-1.4
					c-68.5-11.6-52.5-40.4-155.7-57.4c-1.7-0.2-3.1-0.5-4.5-0.5c-27.9,0-23.2,49.4-23.2,49.4s-34.3-14.6-19.6-71.4
					C3235.9,1415.3,3272.7,1288.2,3272.7,1288.2 M3247.9,1247.8l-9,30.5c-1.4,5.2-37.3,128.3-52,184.8
					c-17.5,67.8,18.4,103,39.7,112.2l54.3,23.2l-5.9-58.8c-0.2-2.6-0.2-5.7,0-8.7c40.2,7.8,55.1,17,70.4,26.9
					c16.3,10.2,34.7,21.7,72.1,28.1c7.8,1.4,15.8,2.1,23.4,2.1c49.4,0,91.2-27.2,121-78.4c18.7-32.4,26.7-64.5,28.1-70.4
					c5-19.1,1.4-38.7-9.9-56.5c-48.4-76.8-259.7-120.7-301.5-128.8L3247.9,1247.8L3247.9,1247.8z"/>
			</g>
			<path class="st12" d="M3682.7,1531.4c-9.5-0.7-77,7.1-82,28.4l-14.4,81c0,0,0.2,0.2,0.7,0.5c3.1,1.7,15.8,7.1,51,4
				c41.6-3.5,47,16.5,43.2,26.9c-3.8,10.4-16.5,16.8-16.5,16.8s19.8,0.2,39.5-35.7c19.4-36.2,31.2-63.1,31.2-63.1
				S3692.1,1532.1,3682.7,1531.4z"/>
			<g>
				
					<linearGradient id="SVGID_11_" gradientUnits="userSpaceOnUse" x1="3844.1328" y1="-1289.4382" x2="3844.1328" y2="-499.5952" gradientTransform="matrix(1 0 0 -1 0 816.4437)">
					<stop  offset="0" style="stop-color:#5C2B8A"/>
					<stop  offset="1" style="stop-color:#873FC8"/>
				</linearGradient>
				<path class="st16" d="M3958.9,1775.7c-82.5,0-166.3-66.4-217.1-128.3c-26.5-32.1-54.1-48.4-82.7-48.4c-14.6,0-26.9,4.5-35.2,8.7
					c-0.7,2.4-1.7,6.9-0.7,11.1c0.7,3.5,2.4,4.7,3.8,5.7c10.4,6.4,12.1,16.3,10.2,23.2c-1.4,4.7-6.6,15.8-26.5,15.8
					c-21,0-61.2-13.9-77.3-65.9c-19.4-62.1,37.8-162.1,110.1-288.7c12.5-22,25.5-44.7,38.3-67.6c11.1-19.8,20.6-37.1,28.8-52.5
					c52-95.2,64.3-117.9,141.3-117.9c3.3,0,6.6,0,10.2,0c36.4,0.7,72.5,10.6,104.7,29.3l8.7,5v23.9l21.5-8.3l8,7.3
					c25,22.7,43.5,49.4,53.6,77.7c35.4,97.8,71.4,173.7,89.5,188.8c12.5,10.4,11.3,20.8,9.5,26.2c-5.9,16.3-27.4,16.3-40.2,16.3
					c-22.7,0-56-3.5-87.9-6.9c-17.2-1.9-33.6-3.5-46.8-4.5c-3.8-0.2-7.3-0.5-10.6-0.5c-20.6,0-28.1,5.7-32.1,9.7
					c-11.1,11.8-14.9,39.2-12.1,83.9c1.4,21.7,6.6,46.5,15.4,73.2l17,44.2c20.1,45.6,43.2,79.2,49.9,84.4l4.5,2.8
					c9.9,5.9,23.4,14.2,19.6,29.5c-4.3,17-22.7,19.8-67.1,22.4C3964.5,1775.4,3961.7,1775.7,3958.9,1775.7L3958.9,1775.7z"/>
				<path class="st15" d="M3515.4,1527.6c11.3,3.3,22.4,6.6,33.8,9.9c-1.9,13.9-1.4,26.2,1.9,36.9c13.2,42.3,44.7,53.6,60.7,53.6
					c8.5,0,12.8-3.3,7.1-6.9c-19.1-11.8-12.3-41.3-5-45.6c12.3-6.9,28.1-12.3,46.3-12.3c28.4,0,62.1,13.2,96.2,54.8
					c53.9,65.7,133,121.9,203.7,121.9c2.6,0,5,0,7.6-0.2c72.3-4.3,52.2-11.3,34.5-22.7c-4.7-2.8-12.5-12.8-22-27.2
					c7.1,0.5,14.2,0.7,21.3,1.2c15.1,16.3,28.6,34,41.8,52c1.9,2.4,4,4,6.4,4.7c-11.6,22.7-42.1,24.6-79.9,26.7
					c-3.1,0.2-6.4,0.2-9.7,0.2c-88.6,0-177.2-69.7-230.8-134.7c-22.9-27.9-46.1-42.1-69.2-42.1c-4.7,0-9,0.7-13,1.4
					c8.3,9.5,11.3,22.2,7.8,34.5c-4,13.7-17.2,28.6-43.2,28.6c-34.7,0-77.3-24.1-94-78.2C3512.3,1567.7,3511.8,1548.6,3515.4,1527.6
					z"/>
				<path d="M3851.8,1088.1c3.1,0,6.6,0,9.9,0c35.7,0.5,68.3,10.9,96.2,26.9v39.2l35.2-13.5c22.9,20.6,39.9,45.4,49.1,70.6
					c22.4,62.4,66.4,172.7,95,196.3c10.6,8.7,0.2,11.6-19.6,11.6c-34,0-96.6-8.5-133.5-11.1c-4.3-0.2-8-0.5-11.8-0.5
					c-49.1,0-67.1,26.9-61.7,112.2c1.7,25.3,7.8,52,16.3,77.7l17.2,44.9c21.3,48.2,46.5,86.2,56.5,92.6c17.7,11.3,38,18.4-34.5,22.7
					c-2.6,0.2-5,0.2-7.6,0.2c-70.6,0-149.8-56.5-203.7-121.9c-34-41.6-67.8-54.8-96.2-54.8c-18,0-33.8,5.4-46.3,12.3
					c-7.3,4.3-14.2,33.6,5,45.6c5.7,3.5,1.4,6.9-7.1,6.9c-16.1,0-47.5-11.3-60.7-53.6c-20.1-65.2,64-194,147.2-342.6
					C3776.7,1106.8,3774.3,1088.1,3851.8,1088.1 M3851.8,1053.1L3851.8,1053.1c-87.4,0-103.5,29.5-156.7,127.1
					c-8.3,15.1-17.7,32.6-28.8,52.2c-12.8,22.9-25.8,45.6-38.3,67.3c-74.4,130.2-133.3,233-111.8,302.7c16.8,54.1,59.3,78.2,94,78.2
					c26,0,39.5-14.6,43.2-28.6c3.5-12.3,0.5-25-7.8-34.5c4-0.9,8.3-1.4,13-1.4c22.9,0,46.3,14.2,69.2,42.1
					c53.4,65.2,142.2,134.7,230.6,134.7c3.3,0,6.4,0,9.7-0.2c42.1-2.4,75.4-4.5,83.2-35.7c6.9-27.9-17.2-42.5-27.4-48.7
					c-0.9-0.7-1.9-1.2-3.1-1.9c-6.9-7.1-26.2-36.2-44.4-77.3l-16.8-43.2c-8.3-25-13-48-14.4-68c-3.5-53.2,4-67.3,7.3-70.9
					c3.5-3.8,13.7-4.3,19.4-4.3c3.1,0,6.1,0.2,9.5,0.5c12.8,0.9,29.1,2.6,46.3,4.5c32.6,3.3,66.2,6.9,89.8,6.9
					c13.9,0,46.5,0,56.7-27.9c2.1-6.1,7.6-27.2-14.6-45.6c-13.2-11.1-46.5-76.8-84.4-181.2c-11.1-31-31.4-60.3-58.4-84.8l-15.8-14.4
					l-7.8,3.1v-8.5l-17.5-10.2c-34.7-20.1-73.7-31-112.9-31.4C3858.7,1053.1,3855.4,1053.1,3851.8,1053.1L3851.8,1053.1z"/>
			</g>
			<g>
				<g>
					<g>
						<g>
							
								<linearGradient id="SVGID_12_" gradientUnits="userSpaceOnUse" x1="2084.0422" y1="-874.3146" x2="2084.0422" y2="-319.1812" gradientTransform="matrix(1 0 0 -1 0 816.4437)">
								<stop  offset="0" style="stop-color:#5C2B8A"/>
								<stop  offset="1" style="stop-color:#873FC8"/>
							</linearGradient>
							<path class="st17" d="M710.8,1542.2c-29.1,0-51.7-35.4-56-42.5l-0.7-1.2l-0.5-1.2c-5.4-14.4-13.5-32.6-22.4-53.6
								c-47.7-110.6-127.6-295.6-80.3-411.8c51.7-127.4,223-147.9,348-162.8c12.8-1.4,25-3.1,36.9-4.5l10.4-1.4l5.2,9
								c8.5,14.2,14.9,28.8,21,43.2c5.4-15.1,10.6-30,16.1-44.7l3.8-10.2h18.7c173.9,0,350.6,9,521.5,17.5
								c166.8,8.3,339.3,17,508.2,17.2h13.7c225.6,0,453.2-12.1,673.4-23.6c136.3-7.3,277.2-14.6,416.3-19.1c0,0,83.6-0.9,106.8-0.9
								c134.4,0,345,62.8,368.8,161.4c40.6,166.6-26.9,407.3-109.9,495.7l-5.4,5.9l-144.8-18.2c-22.4-3.5-43.9-7.1-65.4-10.6
								c-102.1-17-198.5-32.8-318-32.8c-96.4,0-199.2,10.6-314,32.6c-146,27.9-341.9,42.5-566.6,42.5
								c-255.7,0-518.2-19.6-720.4-53.9l-2.8-0.5l-2.4-1.4c-11.1-6.4-18.4-13.5-23.4-20.6c-0.2,1.2-6.4,20.3-6.4,20.3l-16.1-7.1
								c-30.2-13.5-65.7-19.6-111.3-19.6c-29.8,0-60.5,2.6-90,5.2c-29.5,2.6-57.4,5-84.4,5c-5.9,0-11.8,0-17.5-0.5
								c-4-0.2-8.3-0.2-12.5-0.2c-88.4,0-220.2,38.3-276.7,80.3C725.9,1539.9,718.6,1542.2,710.8,1542.2z"/>
							<path class="st18" d="M3339.8,921.3c57.2,2.1,140.6,6.1,224.5,52c13.2,7.3,32.8,18.9,54.8,36.4
								c-27.2-96.9-235.1-158.5-368.1-158.5c-23.4,0-106.8,0.9-106.8,0.9c-139.4,4.5-280.2,12.1-416.3,19.1
								c-220.2,11.6-448,23.6-673.4,23.6h-13.7c-168.9-0.5-341.4-9-508.2-17.2c-171.1-8.5-347.8-17.5-521.5-17.5h-18.7l-3.8,10.2
								c-5.4,14.6-10.9,29.8-16.1,44.7c-6.1-14.4-12.5-29.1-21-43.2l-5.2-9l-10.4,1.4c-11.6,1.4-23.9,3.1-36.9,4.5
								C788.7,881.8,642.5,899.1,574,990.5c66.9-19.1,149.8-39.5,245-55.5c333.2-56,543.2-13.2,949.8,4.7
								c237.5,10.4,407.8,6.6,659.2,0c285.9-7.6,572-7.1,857.7-18.9C3290.2,921.3,3311.5,920.3,3339.8,921.3z"/>
							<path class="st15" d="M3499.5,1470.6c-0.2,0.5-0.7,0.7-0.9,1.2l-2.6-0.2c-1.7,0.2-3.3,0-4.7-0.5l-129.7-16.3
								c-127.1-20.1-239.3-43.7-385.4-43.7c-89.3,0-191.4,9-317.1,32.8c-151.2,28.8-353,42.3-563.8,42.3
								c-250.5,0-513.2-18.9-717.8-53.6c-35.9-20.6-18.7-44.4-32.6-69.9c-4,20.8-8,40.9-14.4,61.9c-36.6-16.3-76.8-21-117.7-21
								c-59.5,0-120.5,10.2-174.4,10.2c-5.7,0-11.3,0-16.8-0.5c-4.3-0.2-8.7-0.2-13.2-0.2c-93.8,0-229.2,41.1-286.1,83.6
								c-4,3.1-8.3,4.3-12.3,4.3c-2.1,0-4.5-0.5-6.6-0.9c-14.9,0.7-29.5-7.6-40.4-18.2c-5.2-5-9.7-10.4-14.4-15.8
								c-4.3,1.7-8.5,3.5-12.8,5.2c0.9,2.1,1.7,4.3,2.4,6.1l0.9,2.6l1.4,2.4c7.1,11.8,32.8,50.3,69.5,50.3c11.1,0,22-3.5,31.2-10.6
								c47.7-35.7,174.8-77.3,267.2-77.3c4,0,8,0,11.8,0.2c5.9,0.2,12.1,0.5,18.2,0.5c27.6,0,57.2-2.6,85.8-5
								c29.3-2.6,59.5-5.2,88.6-5.2c43.2,0,76.6,5.9,104.9,18.2l32.4,14.4l4-12.8c2.6,1.7,5.2,3.5,8,5.2l4.7,2.8l5.4,0.9
								c203,34.3,466.4,54.1,723,54.1c225.6,0,422.7-14.9,569.7-42.8c113.9-21.7,215.7-32.4,311.2-32.4
								c118.1,0,213.8,15.8,315.4,32.6c21.5,3.5,43,7.1,65,10.6h0.5h0.5l136.8,17.2l15.8,1.9l10.9-11.6
								c13.2-14.2,26.2-32.1,38.5-52.9C3541.1,1452.7,3521.3,1463.1,3499.5,1470.6z"/>
						</g>
					</g>
				</g>
			</g>
		</g>
		<path d="M3251,866.9c126.2,0,332,60.5,353.7,149.3c38,155.9-23.4,393.4-106.1,481.3l-136.8-17.2
			c-127.1-20.1-239.3-43.7-385.4-43.7c-89.3,0-191.4,9-317.1,32.8c-151.2,28.8-353,42.3-563.8,42.3c-250.5,0-513.2-18.9-717.8-53.6
			c-35.9-20.6-18.7-44.4-32.6-69.9c-4,20.8-8,40.9-14.4,61.9c-36.6-16.3-76.8-21-117.7-21c-59.5,0-120.5,10.2-174.4,10.2
			c-5.7,0-11.3,0-16.8-0.5c-4.3-0.2-8.7-0.2-13.2-0.2c-93.8,0-229.2,41.1-286.1,83.6c-4,3.1-8.3,4.3-12.3,4.3
			c-21.5,0-42.5-35-42.5-35c-34.7-89.8-156.4-322.3-103-453.7s249.5-141.5,372.4-157.6c14.9,25.3,23.6,52.2,36.2,78.2
			c9.7-27.4,19.4-55.3,29.3-82.2c2.6,0,5.2,0,7.8,0c343.1,0,687.1,34,1029.7,34.7c4.5,0,9.2,0,13.7,0
			C2419.8,911.1,3229.5,866.9,3251,866.9 M3251,835.5c-24.6,0-79.2,0.2-79.2,0.2l-28.4,0.9c-139.4,4.5-280.5,12.1-416.6,19.1
			c-220,11.6-447.5,23.6-672.7,23.6h-13.7c-168.7-0.5-340.9-9-507.5-17.2c-171.1-8.5-348-17.5-522.4-17.5h-7.8h-22l-7.6,20.6
			c-1.2,2.8-2.1,5.9-3.3,9c-1.7-3.3-3.5-6.6-5.4-9.9l-10.6-18l-20.6,2.6c-11.6,1.4-23.9,3.1-36.6,4.5
			c-129,15.4-305.5,36.4-360.8,172.5c-49.6,122.2,31.9,311.2,80.6,423.9c9,20.8,16.8,39,22.2,52.9l0.9,2.6l1.4,2.4
			c7.1,11.8,32.8,50.3,69.5,50.3c11.1,0,22-3.5,31.2-10.6c47.7-35.7,174.8-77.3,267.2-77.3c4,0,8,0,11.8,0.2
			c5.9,0.2,12.1,0.5,18.2,0.5c27.6,0,57.2-2.6,85.8-5c29.3-2.6,59.5-5.2,88.6-5.2c43.2,0,76.6,5.9,104.9,18.2l32.4,14.4l4-12.8
			c2.6,1.7,5.2,3.5,8,5.2l4.7,2.8l5.4,0.9c203,34.3,466.4,54.1,723,54.1c225.6,0,422.7-14.9,569.7-42.8
			c113.9-21.7,215.7-32.4,311.2-32.4c118.1,0,213.8,15.8,315.4,32.6c21.5,3.5,43,7.1,65,10.6h0.5h0.5l136.8,17.2l15.8,1.9l10.9-11.6
			c85.5-91.2,155.5-339.1,113.6-510.1C3607,893.4,3373.8,835.5,3251,835.5L3251,835.5z"/>
	</g>
	<g>
		<g>
			<g>
				<path class="st19" d="M1415.8,1292.5c-11.8,0.2-30.5-1.2-41.8-3.1c-32.8-5.7-50.1-24.3-50.3-58.6c-0.2-17.5,4-42.5,4.5-61.2
					c-26.7-9.9-41.8-27.6-41.1-57.4c0.2-10.2,0.9-26.9,3.1-36.6c6.9-31.7,24.1-52.2,59.8-51c39.7,1.2,92.6,4.7,132.3,9
					c35.7,3.8,49.1,27.4,50.8,59.8c0.5,9.9-1.4,26.7-2.8,36.9c-4,29.5-22,44.9-49.9,50.6c-2.6,18.7-2.1,43.9-5,61.4
					C1469.4,1275.9,1449.1,1291.8,1415.8,1292.5z"/>
			</g>
			<g>
				<path class="st19" d="M1519.5,1304.3c-66.6-6.6-114.4-58.8-112-126.4v-0.7c8-65.7,62.8-112.7,129-105.9
					c66.2,6.9,115.3,60.7,111.5,127.6C1644.5,1265.5,1586.2,1310.9,1519.5,1304.3z M1529,1180.7c-5.4-0.7-9.9,0.7-11.6,5.9
					c0,0.2,0,0.2,0,0.5c0,5.4,5.9,7.1,9.7,7.6c5.2,0.7,10.9-1.2,11.3-5.9C1539.4,1182.9,1533,1181.2,1529,1180.7z"/>
			</g>
			<g>
				<path class="st19" d="M1644.5,1347.8c-11.6-0.5-30.7-0.7-41.6-3.1c-32.4-6.9-53.6-23.6-52.2-60.5c1.7-46.8,5.9-105.9,10.4-152.2
					c3.5-36.6,25.8-48.2,58.1-50.3c11.1-0.7,28.6,3.5,40.6,3.5c3.8,0,6.1,1.2,9.5,1.7c9-0.9,17-2.6,26.5-1.2
					c63.1,8.7,103.5,59.8,101.8,123.6c-1.4,59.3-39.9,102.8-99,109.6C1684.9,1338.1,1669.6,1348.7,1644.5,1347.8z M1686.6,1202.7
					l0.7,0.7c0,0,0.2-1.2,0-1.4C1687.3,1202.2,1686.6,1202.7,1686.6,1202.7z"/>
			</g>
			<g>
				<path class="st19" d="M1865.4,1326c-11.8,0.2-31.4,0.5-42.8-1.4c-32.4-5.2-54.8-21.7-54.6-58.4c0.5-46.3,2.6-105.1,5.2-150.7
					c1.9-36.2,23.9-49.9,55.5-52.9c17.2-1.7,48,0.5,64,1.2c69,2.6,116.5,40.2,117.7,108.9c0.9,58.6-36.2,92.1-87.7,107.7
					C1913.9,1308.3,1896.4,1325.3,1865.4,1326z"/>
			</g>
			<g>
				<path class="st19" d="M2030.1,1330.3c-70.4-0.9-117.7-45.6-119.8-116.5c0,0,0-0.5,0-0.7c5-64,48-115.3,116.2-115.5
					c71.6-0.2,112,48,115.1,118.4c0.2,3.3,0.2,8.7-0.2,13c-0.5,5.2-2.1,12.3-4.3,17.7c-0.5,13.9-1.7,27.6-11.6,38.7
					C2099.4,1313.8,2070.5,1330.8,2030.1,1330.3z"/>
			</g>
			<g>
				<path class="st19" d="M2223.6,1325.8c-11.3,1.4-29.5,0.2-41.6,0.9c-6.9,0.5-11.6-1.2-17.7-2.4c-6.1,1.4-10.6,3.1-17.5,2.8
					c-11.8-0.5-30.2,1.7-41.6,0.2c-32.6-3.8-54.1-19.8-55.8-55.1c-1.7-35.2-1.9-82.2-0.5-117.4c1.2-35.2,22-51.3,54.3-56
					c11.1-1.7,28.8,0.2,40.9-0.7c3.8-0.2,6.4,0.5,9.9,0.7c8-1.7,17.2-4.3,25.5-3.8c60,3.8,92.9,35.9,96.4,97.3
					c1.2,20.8,2.6,54.8,1.7,76.6C2276.6,1303.1,2256.7,1321.3,2223.6,1325.8z"/>
			</g>
			<g>
				<path class="st19" d="M2305.6,1358.9c-29.1,1.4-58.8-3.8-85.8-17.5c-27.6-14.2-36.4-42.5-26-71.8c0.9-2.6,3.3-6.6,4.3-9.2
					c-8-17.7-14.2-34.5-13.7-54.3c1.7-61.4,41.6-107.5,103.3-113.4c10.2-0.9,18,0.7,27.6,2.1c3.3-0.5,5.9-1.2,9.7-1.2
					c12.1,0.2,29.3-2.1,40.6-1.4c32.8,1.9,53.2,18.7,56.5,52.2c2.6,24.8,3.8,65.4,4,88.4c0.5,37.6-5,63.3-28.8,89.3
					C2372.5,1348.7,2341.5,1357.2,2305.6,1358.9z M2286,1206L2286,1206L2286,1206z"/>
			</g>
			<g>
				<path class="st19" d="M2436.8,1319.9c-61-0.2-95.2-32.4-99.7-94.5c-1.4-21-2.8-54.8-2.1-76.6c1.2-34,19.8-52.2,52.5-58.1
					c11.1-1.9,28.6-1.2,40.4-2.6c6.6-0.9,11.1,0.5,17.2,1.4c5.9-1.7,10.2-3.8,17-4c11.6-0.2,29.3-3.5,40.6-2.8
					c32.4,1.9,54.1,16.5,57.7,51.5c3.5,35,6.6,81.8,7.1,117.2s-19.8,53.4-52.5,60c-11.1,2.4-29.8,1.7-41.8,3.3c-3.8,0.5-6.4,0-9.9,0
					C2455,1317.1,2445.3,1320.1,2436.8,1319.9z"/>
			</g>
			<g>
				<path class="st19" d="M2581.1,1305.7c-11.1,2.4-30.2,3.8-41.6,3.5c-33.1-0.9-54.6-15.6-58.6-51.3s-3.5-80.3-6.4-117.9
					c0-0.5,0-0.7,0-0.9c-0.5-3.5-1.4-6.1-1.4-9.9c0-9-1.9-22-1.4-30.5c1.9-33.1,18-53.9,51.3-59.1c11.8-1.9,30.5-3.1,42.3-2.8
					c33.1,0.5,52.2,18.2,58.1,50.3c1.4,8,1.2,21.3,2.1,30c0.5,3.8,0,6.6-0.2,9.9c0,0.2,0,0.7,0.2,0.9c1.4,37.6,7.3,81.5,7.6,117.4
					C2633.3,1281.4,2613.5,1299.3,2581.1,1305.7z"/>
			</g>
			<g>
				<path class="st19" d="M2723.6,1293.4c-11.1,2.1-29.5,2.4-41.3,3.8c-6.9,0.9-11.6-0.2-17.7-0.9c-5.9,1.9-10.6,4-17.5,4.3
					c-12.1,0.5-30.2,4-41.6,3.5c-32.8-1.2-55.3-15.4-58.8-50.6c-3.5-35.2-6.1-82-6.9-117.2c-0.7-35.2,18.7-52.9,51-59.8
					c11.1-2.4,28.8-1.7,40.6-3.5c3.8-0.7,6.4,0,9.9-0.2c8-2.4,17-5.7,25.3-5.7c60-1.2,95,29.5,102.3,90.5
					c2.6,20.8,5.7,54.6,5.9,76.3C2775.1,1267.9,2756.4,1286.8,2723.6,1293.4z"/>
			</g>
			<g>
				<path class="st19" d="M2793.3,1290.1c-32.1,2.6-62.6-4-90.7-20.8c-26-15.6-31.2-43.9-20.3-71.4c0.5-1.4,2.1-4,2.6-5.2
					c-3.8-11.1-7.6-20.1-7.8-32.4c-0.7-57.2,37.6-97.1,95.2-102.1c27.2-2.4,55.5,3.3,80.1,17.5c26.2,15.1,33.8,42.3,24.6,70.4
					c-0.2,0.5-0.7,1.7-0.7,1.9c7.1,14.2,12.8,24.3,13.2,41.6C2891.1,1251.4,2853.8,1285.2,2793.3,1290.1z"/>
			</g>
		</g>
		<g>
			<g>
				<path class="st19" d="M1387.5,1118.6c-15.4-0.9-30.7-1.9-45.8-2.8c0.9-12.5,2.1-24.8,3.1-37.3c44.7,2.8,89.5,5.7,134.2,9.2
					c-0.9,12.5-1.9,24.8-3.1,37.3c-15.4-1.4-30.5-2.8-45.8-3.8c-3.1,38.7-6.1,77.7-9.2,116.5c-14.2-1.2-28.4-2.1-42.5-3.1
					C1381.1,1196.1,1384.1,1157.3,1387.5,1118.6z"/>
				<path d="M1417.5,1272.4c-11.8,0.2-30.2-1.2-41.8-3.1c-21-3.3-32.6-14.6-32.1-37.6c0.5-24.1,5-55.1,6.1-80.3
					c-3.1-0.7-8-0.2-10.9-0.9c-20.1-3.8-32.4-15.8-31.9-37.3c0.2-10.4,0.9-26.7,3.1-36.6c4.3-20.6,14.6-33.6,38-32.6
					c41.1,1.7,91.7,5,132.8,9c23.4,2.4,31.4,17.2,32.4,38c0.5,10.2-1.4,26.5-2.8,36.9c-2.8,21.3-16.8,31.4-37.3,31.9
					c-2.8,0-7.8-0.9-10.9-0.9c-2.8,25.3-3.3,56.7-6.6,80.8C1452,1262.7,1438.7,1272.2,1417.5,1272.4z"/>
			</g>
			<g>
				<path class="st19" d="M1462.4,1181.9c0-0.2,0-0.5,0-0.7c7.3-35.9,32.6-58.6,70.4-54.8c37.8,3.5,58.8,30.7,61.2,67.1
					c0,0.2,0,0.5,0,0.7c-6.9,36.4-32.6,58.4-70.4,54.8S1464,1219,1462.4,1181.9z M1553.1,1190.6v-0.5c-0.5-14.6-7.8-27.2-23.4-28.8
					c-15.6-1.7-24.1,9.2-26.7,23.6v0.5c0.5,14.6,7.8,27.2,23.4,28.8C1542,1215.7,1550.5,1204.8,1553.1,1190.6z"/>
				<path d="M1521,1284.2c-55.8-5.4-94.7-48.9-93.3-105.1v-0.7c7.1-55.1,52.5-92.9,107.7-87.2c55.3,5.7,96.2,49.9,92.9,105.9
					C1624.7,1252.8,1576.5,1289.6,1521,1284.2z"/>
			</g>
			<g>
				<path class="st19" d="M1615.2,1136.3c13.9,1.4,27.6,2.6,41.6,4c-0.5,5.2-0.5,10.6-0.9,15.6c13.5-9.2,18.2-17.7,38-14.6
					c31.4,4.7,48.9,31.9,49.4,64.5v0.5c-2.6,33.1-23.2,57.7-55.1,57.4c-20.3,0-24.3-8.7-37.1-19.4c-0.5,16.3-1.9,32.8-2.6,49.1
					c-14.2-1.2-28.4-2.1-42.3-3.3C1609.1,1238.8,1612.2,1187.6,1615.2,1136.3z M1701.5,1203.4v-0.5c-0.9-14.4-7.8-26.9-23.2-28.1
					c-15.6-1.2-23.4,10.2-25.5,24.1v0.5c0.7,14.4,7.3,27.2,22.9,28.4C1691.3,1229.2,1699.3,1217.8,1701.5,1203.4z"/>
				<path d="M1645.7,1327.9c-11.6-0.5-30.5-0.9-41.6-3.1c-20.8-4.3-34.5-14.4-33.3-38.5c2.1-48,5.9-104.7,10.2-152.4
					c2.1-23.9,16.1-30.7,37.1-32.1c11.3-0.7,28.6,3.3,40.6,3.5c4,0,6.6,1.4,10.2,2.4c9.2-1.2,16.1-3.5,26-1.9
					c51.5,8.5,84.6,48.7,82.7,102.8c-2.1,55.1-35.2,91.4-92.4,90.3c-0.5,0-1.2,0-1.4,0C1678.3,1317.3,1666.5,1328.6,1645.7,1327.9z"
					/>
			</g>
			<g>
				<path class="st19" d="M1827.4,1116.7c18.7,1.2,47.7,0.7,64.5,1.9c39.5,2.8,58.8,17,64.5,54.6c0,0.2,0,0.2,0,0.5
					c-5.4,42.5-26.5,52.5-67.3,54.3c-5.7,0.2-14.9-0.5-21-0.5c-0.5,14.6-0.5,29.3-0.9,43.7c-14.4-0.5-28.8-0.9-43.5-1.4
					C1824.8,1219,1825.8,1168,1827.4,1116.7z M1888.4,1194.7c14.6-0.5,22.9-5.2,25-19.4c0-0.2,0-0.2,0-0.5
					c-1.9-14.6-9.9-19.6-24.8-20.6c-5-0.5-13.9-0.2-19.6-0.5c-0.2,13.5-0.5,27.2-0.7,40.6C1874,1194.2,1883.4,1194.9,1888.4,1194.7z
					"/>
				<path d="M1865.9,1306c-12.1,0.2-31.2,0.5-42.8-1.4c-21-3.1-35.2-13.2-35-37.1c0.7-47.5,2.6-104.2,4.5-151.5
					c0.9-23.6,15.1-32.1,35.4-33.8c17.2-1.2,48,0.5,64.3,1.2c58.1,3.1,97.3,29.1,97.6,89.8c0.2,57.2-34.3,81-87.2,89.3
					c-0.7,2.8,0,7.1-0.5,9.5C1899.5,1292.7,1887.9,1305.7,1865.9,1306z"/>
			</g>
			<g>
				<path class="st19" d="M1965.6,1214.3c0,0,0-0.5,0-0.7c3.8-34,23.4-61.4,60.3-61.2c43,0.5,56.7,23.9,60.5,63.6
					c0.2,3.1,0,5.9,0,8.7c-26.7,0.2-53.4,0.2-80.1,0.5c4.7,12.5,12.1,18.9,26,19.1c10.6,0.2,18.7-5.2,26.5-12.1
					c7.8,6.4,15.4,12.5,23.4,19.1c-15.6,14.9-28.6,24.8-52.2,23.9C1992.3,1273.8,1969.2,1252.3,1965.6,1214.3z M2047.1,1203.6
					c-2.4-11.3-8-21-20.8-21s-17.7,10.2-20.8,21.3C2019.5,1203.9,2033.2,1203.6,2047.1,1203.6z"/>
				<path d="M2030.4,1310.2c-57.7-0.9-97.1-38.7-99.9-96.4c0,0,0-0.5,0-0.7c4.7-53.2,38.7-95.7,95.9-95.9c60-0.2,92.1,39.9,95,98.5
					c0.2,3.1,0.2,7.8-0.2,11.3c-0.5,5.2-2.4,11.1-5,15.8c1.4,10.6,0.9,21.3-6.6,29.5C2088.3,1296.7,2063,1310.9,2030.4,1310.2z"/>
			</g>
			<g>
				<path class="st19" d="M2103.6,1153.6c13.9,0,27.6-0.2,41.6-0.5c0,5.4,0.2,11.3,0,16.5c10.6-10.2,18.7-20.6,35.7-19.1
					c25.3,2.1,39,14.2,40.4,43.5c1.2,21,0.7,53.4,1.7,76.6c-14.2,0.7-28.1,0.9-42.1,0.9c-0.5-19.1-0.2-46.1-0.9-63.3
					c-0.5-13.9-5.2-20.1-16.8-20.1s-17,6.4-17.2,20.6c-0.2,17.5,0.7,44.2,0.5,63.3c-13.9,0.5-27.9,0.5-42.1,0.5
					C2104.3,1232.9,2103.8,1193.2,2103.6,1153.6z"/>
				<path d="M2223.2,1305.7c-11.3,1.4-29.3,0.2-41.3,0.9c-7.1,0.5-11.6-1.7-17.7-4c-5.9,2.4-10.4,4.7-17.5,4.5
					c-12.1-0.5-30,1.7-41.3,0.2c-21-2.6-34.7-11.8-35.4-35.2c-1.2-35.9-1.4-81.5-0.7-117.4c0.5-23.4,13.7-32.6,34.7-35.7
					c11.3-1.7,28.8,0.2,40.9-0.7c4.3-0.2,6.9,0.7,10.6,1.4c7.8-1.9,16.5-5.2,24.8-4.3c50.3,5.2,71.8,25.5,76.1,77.7
					c1.9,22,1.9,54.3,1.7,76.6C2257.4,1292,2244.4,1302.9,2223.2,1305.7z"/>
			</g>
			<g>
				<path class="st19" d="M2244.2,1292.5c4-9.5,8.5-18.7,12.8-28.1c13.7,6.1,26.9,10.6,42.1,9.7c19.8-1.4,29.5-10.2,30.7-30
					c0-1.2-0.2-3.3,0-4.5c-12.1,10.4-18.7,18.9-37.1,18.4c-31.2-0.7-50.6-21-53.4-53.2v-0.5c1.2-31,19.6-53.4,49.1-56.2
					c19.1-1.9,25,5.7,38.5,14.6c-0.5-4.5-0.2-9.2-0.5-13.9c13.9-0.5,27.6-1.4,41.6-1.7c0.5,26.7,3.1,64.7,2.8,88.6
					c-0.2,23.2-0.7,33.8-14.2,49.4c-13.5,15.6-31.7,17.5-52.5,18.9C2284.8,1305.5,2262.6,1300.3,2244.2,1292.5z M2328.6,1202v-0.5
					c-1.9-13.5-10.6-22.2-24.8-21.5c-14.2,0.5-22.4,9.7-23.9,23.6v0.5c1.9,13.7,10.6,22.2,25,21.5
					C2319.3,1225.1,2327.4,1215.9,2328.6,1202z"/>
				<path d="M2305.2,1338.8c-25.5,1.4-52.5-3.5-76.3-15.4c-17.7-8.7-23.4-26.9-16.3-45.8c1.9-5.2,6.4-13.5,8.5-19.1
					c-9.5-17.5-17.5-32.1-16.5-53.4c2.6-54.6,28.8-86,83.4-92.6c11.6-1.4,17.2,1.4,27.4,2.8c3.5-0.7,6.1-1.9,10.2-1.9
					c12.1,0,29.3-2.1,40.6-1.7c21.3,0.9,34.3,11.6,35.9,33.3c2.1,25.3,3.5,65.4,3.8,88.6c0.2,32.1-3.5,52.7-23.6,74.7
					C2361.6,1331.2,2335.4,1337.4,2305.2,1338.8z"/>
			</g>
			<g>
				<path class="st19" d="M2392.3,1222.5c-1.7-21-1.7-53.6-3.1-76.8c13.9-1.2,27.6-1.7,41.6-2.4c1.2,19.1,1.7,46.1,2.8,63.3
					c0.9,13.9,6.1,19.8,17.7,19.1s16.5-7.6,16.3-21.5c-0.2-17.5-2.4-44.2-2.8-63.3c13.7-1.4,27.6-2.1,41.3-3.3
					c2.4,39.7,4.5,79.2,6.4,118.8c-13.9,0.9-28.1,2.1-42.1,3.1c-0.2-5.4-0.7-10.9-0.7-16.1c-10.4,10.6-18.2,21.3-35.4,20.8
					C2408.4,1263.7,2394.5,1251.8,2392.3,1222.5z"/>
				<path d="M2436.1,1299.8c-51.3-2.4-73.7-22.7-78.7-75.1c-2.1-22-2.6-54.3-2.6-76.6c0-22.2,12.5-33.6,33.3-37.1
					c11.3-1.9,28.6-1.4,40.4-2.6c7.1-0.7,11.3,1.2,17.2,3.1c5.7-2.8,9.9-5.4,17-5.7c11.8-0.2,29.3-3.5,40.6-2.8
					c21,1.4,34.7,9.7,36.9,32.8c3.1,35.7,5.9,81.3,6.9,117.2c0.7,23.4-12.3,34-33.6,38.3c-11.3,2.4-29.5,1.7-41.8,3.3
					c-4.3,0.5-6.9-0.2-10.9-0.7C2453.3,1296.5,2444.3,1300.3,2436.1,1299.8z"/>
			</g>
			<g>
				<path class="st19" d="M2525.8,1094.5c14.4-1.2,28.6-2.1,43-3.3c0.7,10.2,1.2,20.3,1.9,30.5c-14.4,1.2-28.8,2.4-43.2,3.5
					C2527,1115,2526.3,1104.9,2525.8,1094.5z M2529.1,1136.1c13.9-1.2,27.6-2.1,41.3-3.3c2.6,39.5,5,79.2,7.6,118.6
					c-13.9,1.2-28.1,2.4-42.1,3.5C2533.6,1215.2,2531.3,1175.8,2529.1,1136.1z"/>
				<path d="M2579.7,1285.9c-11.3,2.1-30,3.8-41.6,3.5c-21.3-0.5-35-9-37.3-32.6c-3.5-36.4-3.8-80.1-6.6-117.9c0-1.2,0-1.7,0-2.6
					c-0.5-2.8-1.4-5-1.4-8.3c0-9-1.9-22-1.4-30.5c1.2-21.3,11.1-34.7,32.6-37.6c12.1-1.7,30.2-2.8,42.3-3.1
					c21.5-0.2,33.3,11.3,37.1,32.1c1.4,8.3,1.2,21.3,2.1,30c0.5,3.3-0.2,5.4-0.5,8.5c0,0.9,0.2,1.7,0.2,2.6
					c1.7,37.8,6.6,81,7.3,117.7C2613.3,1271.2,2600.7,1281.9,2579.7,1285.9z"/>
			</g>
			<g>
				<path class="st19" d="M2593.7,1130.9c13.9-1.2,27.6-2.4,41.6-3.5c0.5,5.4,0.9,11.1,1.2,16.5c9.9-10.9,17.5-22,34.5-21.7
					c25.5,0,39.9,11.3,43,40.4c2.4,21,4,53.4,6.1,76.3c-13.9,1.7-27.9,2.8-42.1,3.8c-1.7-18.9-3.1-45.8-4.7-63.1
					c-1.4-13.7-6.4-19.6-18-18.7c-11.6,0.9-16.5,7.8-16.1,21.7c0.7,17.5,3.3,43.9,4.3,63.1c-13.9,1.7-28.1,2.6-42.1,4
					C2599.1,1209.8,2596.3,1170.3,2593.7,1130.9z"/>
				<path d="M2722.2,1273.3c-11.3,2.1-29.3,2.4-41.3,3.8c-7.1,0.9-11.6-0.9-17.7-2.8c-5.7,2.8-10.2,5.7-17.2,5.9
					c-12.1,0.5-30,4-41.6,3.5c-21.3-0.9-35.4-9-37.6-32.4c-3.1-35.7-5.9-81.5-7.3-117.2c-0.9-23.4,11.8-33.6,32.6-38.3
					c11.1-2.6,28.8-1.9,40.6-3.8c4.3-0.7,6.9,0.2,10.9,0.5c7.8-2.6,16.1-6.6,24.3-6.4c50.8,1.2,73.2,20.3,80.8,72.1
					c3.1,21.7,5.2,54.1,6.1,76.3C2755.5,1257.5,2743.2,1269.3,2722.2,1273.3z"/>
			</g>
			<g>
				<path class="st19" d="M2731.4,1222.8c4.5-9,9-17.7,13.7-26.5c12.3,6.6,28.4,10.9,41.3,10.4c7.6-0.2,9-1.4,10.6-7.1
					c0-0.2,0-0.2,0-0.5c-4.5-7.6-10.6-6.9-20.8-9c-19.1-4-40.9-9.9-44.2-34.3c0,0-0.2-0.2-0.2-0.5c1.4-27.4,17.7-39.7,44.7-42.5
					c17-1.7,34.3,3.1,49.9,10.2c-4,9.2-8,18.2-12.3,27.2c-10.4-5-25-9-35.2-8.5c-7.1,0.2-8,1.4-9.9,6.1c0,0.2,0,0.2,0,0.5
					c4.5,7.6,10.9,7.1,21,9.5c18.9,4.5,40.9,11.1,44.2,35l0.2,0.5c-1.7,28.4-17.5,39.7-45.6,42.5
					C2769.2,1237.4,2748.9,1231.8,2731.4,1222.8z"/>
				<path d="M2791.9,1270c-28.6,2.6-54.1-3.8-78.7-18c-16.8-9.7-20.1-27.9-13-45.4c1.7-4,5.7-10.9,7.6-14.9
					c-5.4-12.3-10.9-18.4-10.4-33.6c0.9-49.6,26.2-74.7,76.3-79.9c24.8-2.6,47.7,3.3,69.2,14.9c17.2,9.2,21.5,26.9,15.6,44.9
					c-1.2,3.5-4.3,9.2-5.4,12.5c8.7,14.4,16.3,21.3,16.1,40.9C2868.9,1241.9,2842.7,1265.5,2791.9,1270z"/>
			</g>
		</g>
		<g>
			<g>
				<path class="st19" d="M1387.5,1118.6c-15.4-0.9-30.7-1.9-45.8-2.8c0.9-12.5,2.1-24.8,3.1-37.3c44.7,2.8,89.5,5.7,134.2,9.2
					c-0.9,12.5-1.9,24.8-3.1,37.3c-15.4-1.4-30.5-2.8-45.8-3.8c-3.1,38.7-6.1,77.7-9.2,116.5c-14.2-1.2-28.4-2.1-42.5-3.1
					C1381.1,1196.1,1384.1,1157.3,1387.5,1118.6z"/>
			</g>
			<g>
				<path class="st19" d="M1462.4,1181.9c0-0.2,0-0.5,0-0.7c7.3-35.9,32.6-58.6,70.4-54.8c37.8,3.5,58.8,30.7,61.2,67.1
					c0,0.2,0,0.5,0,0.7c-6.9,36.4-32.6,58.4-70.4,54.8S1464,1219,1462.4,1181.9z M1553.1,1190.6v-0.5c-0.5-14.6-7.8-27.2-23.4-28.8
					c-15.6-1.7-24.1,9.2-26.7,23.6v0.5c0.5,14.6,7.8,27.2,23.4,28.8C1542,1215.7,1550.5,1204.8,1553.1,1190.6z"/>
			</g>
			<g>
				<path class="st19" d="M1615.2,1136.3c13.9,1.4,27.6,2.6,41.6,4c-0.5,5.2-0.5,10.6-0.9,15.6c13.5-9.2,18.2-17.7,38-14.6
					c31.4,4.7,48.9,31.9,49.4,64.5v0.5c-2.6,33.1-23.2,57.7-55.1,57.4c-20.3,0-24.3-8.7-37.1-19.4c-0.5,16.3-1.9,32.8-2.6,49.1
					c-14.2-1.2-28.4-2.1-42.3-3.3C1609.1,1238.8,1612.2,1187.6,1615.2,1136.3z M1701.5,1203.4v-0.5c-0.9-14.4-7.8-26.9-23.2-28.1
					c-15.6-1.2-23.4,10.2-25.5,24.1v0.5c0.7,14.4,7.3,27.2,22.9,28.4C1691.3,1229.2,1699.3,1217.8,1701.5,1203.4z"/>
			</g>
			<g>
				<path class="st19" d="M1827.4,1116.7c18.7,1.2,47.7,0.7,64.5,1.9c39.5,2.8,58.8,17,64.5,54.6c0,0.2,0,0.2,0,0.5
					c-5.4,42.5-26.5,52.5-67.3,54.3c-5.7,0.2-14.9-0.5-21-0.5c-0.5,14.6-0.5,29.3-0.9,43.7c-14.4-0.5-28.8-0.9-43.5-1.4
					C1824.8,1219,1825.8,1168,1827.4,1116.7z M1888.4,1194.7c14.6-0.5,22.9-5.2,25-19.4c0-0.2,0-0.2,0-0.5
					c-1.9-14.6-9.9-19.6-24.8-20.6c-5-0.5-13.9-0.2-19.6-0.5c-0.2,13.5-0.5,27.2-0.7,40.6C1874,1194.2,1883.4,1194.9,1888.4,1194.7z
					"/>
			</g>
			<g>
				<path class="st19" d="M1965.6,1214.3c0,0,0-0.5,0-0.7c3.8-34,23.4-61.4,60.3-61.2c43,0.5,56.7,23.9,60.5,63.6
					c0.2,3.1,0,5.9,0,8.7c-26.7,0.2-53.4,0.2-80.1,0.5c4.7,12.5,12.1,18.9,26,19.1c10.6,0.2,18.7-5.2,26.5-12.1
					c7.8,6.4,15.4,12.5,23.4,19.1c-15.6,14.9-28.6,24.8-52.2,23.9C1992.3,1273.8,1969.2,1252.3,1965.6,1214.3z M2047.1,1203.6
					c-2.4-11.3-8-21-20.8-21s-17.7,10.2-20.8,21.3C2019.5,1203.9,2033.2,1203.6,2047.1,1203.6z"/>
			</g>
			<g>
				<path class="st19" d="M2103.6,1153.6c13.9,0,27.6-0.2,41.6-0.5c0,5.4,0.2,11.3,0,16.5c10.6-10.2,18.7-20.6,35.7-19.1
					c25.3,2.1,39,14.2,40.4,43.5c1.2,21,0.7,53.4,1.7,76.6c-14.2,0.7-28.1,0.9-42.1,0.9c-0.5-19.1-0.2-46.1-0.9-63.3
					c-0.5-13.9-5.2-20.1-16.8-20.1c-11.6,0-17,6.4-17.2,20.6c-0.2,17.5,0.7,44.2,0.5,63.3c-13.9,0.5-27.9,0.5-42.1,0.5
					C2104.3,1232.9,2103.8,1193.2,2103.6,1153.6z"/>
			</g>
			<g>
				<path class="st19" d="M2244.2,1292.5c4-9.5,8.5-18.7,12.8-28.1c13.7,6.1,26.9,10.6,42.1,9.7c19.8-1.4,29.5-10.2,30.7-30
					c0-1.2-0.2-3.3,0-4.5c-12.1,10.4-18.7,18.9-37.1,18.4c-31.2-0.7-50.6-21-53.4-53.2v-0.5c1.2-31,19.6-53.4,49.1-56.2
					c19.1-1.9,25,5.7,38.5,14.6c-0.5-4.5-0.2-9.2-0.5-13.9c13.9-0.5,27.6-1.4,41.6-1.7c0.5,26.7,3.1,64.7,2.8,88.6
					c-0.2,23.2-0.7,33.8-14.2,49.4c-13.5,15.6-31.7,17.5-52.5,18.9C2284.8,1305.5,2262.6,1300.3,2244.2,1292.5z M2328.6,1202v-0.5
					c-1.9-13.5-10.6-22.2-24.8-21.5c-14.2,0.5-22.4,9.7-23.9,23.6v0.5c1.9,13.7,10.6,22.2,25,21.5
					C2319.3,1225.1,2327.4,1215.9,2328.6,1202z"/>
			</g>
			<g>
				<path class="st19" d="M2392.3,1222.5c-1.7-21-1.7-53.6-3.1-76.8c13.9-1.2,27.6-1.7,41.6-2.4c1.2,19.1,1.7,46.1,2.8,63.3
					c0.9,13.9,6.1,19.8,17.7,19.1s16.5-7.6,16.3-21.5c-0.2-17.5-2.4-44.2-2.8-63.3c13.7-1.4,27.6-2.1,41.3-3.3
					c2.4,39.7,4.5,79.2,6.4,118.8c-13.9,0.9-28.1,2.1-42.1,3.1c-0.2-5.4-0.7-10.9-0.7-16.1c-10.4,10.6-18.2,21.3-35.4,20.8
					C2408.4,1263.7,2394.5,1251.8,2392.3,1222.5z"/>
			</g>
			<g>
				<path class="st19" d="M2525.8,1094.5c14.4-1.2,28.6-2.1,43-3.3c0.7,10.2,1.2,20.3,1.9,30.5c-14.4,1.2-28.8,2.4-43.2,3.5
					C2527,1115,2526.3,1104.9,2525.8,1094.5z M2529.1,1136.1c13.9-1.2,27.6-2.1,41.3-3.3c2.6,39.5,5,79.2,7.6,118.6
					c-13.9,1.2-28.1,2.4-42.1,3.5C2533.6,1215.2,2531.3,1175.8,2529.1,1136.1z"/>
			</g>
			<g>
				<path class="st19" d="M2593.7,1130.9c13.9-1.2,27.6-2.4,41.6-3.5c0.5,5.4,0.9,11.1,1.2,16.5c9.9-10.9,17.5-22,34.5-21.7
					c25.5,0,39.9,11.3,43,40.4c2.4,21,4,53.4,6.1,76.3c-13.9,1.7-27.9,2.8-42.1,3.8c-1.7-18.9-3.1-45.8-4.7-63.1
					c-1.4-13.7-6.4-19.6-18-18.7c-11.6,0.9-16.5,7.8-16.1,21.7c0.7,17.5,3.3,43.9,4.3,63.1c-13.9,1.7-28.1,2.6-42.1,4
					C2599.1,1209.8,2596.3,1170.3,2593.7,1130.9z"/>
			</g>
			<g>
				<path class="st19" d="M2731.4,1222.8c4.5-9,9-17.7,13.7-26.5c12.3,6.6,28.4,10.9,41.3,10.4c7.6-0.2,9-1.4,10.6-7.1
					c0-0.2,0-0.2,0-0.5c-4.5-7.6-10.6-6.9-20.8-9c-19.1-4-40.9-9.9-44.2-34.3c0,0-0.2-0.2-0.2-0.5c1.4-27.4,17.7-39.7,44.7-42.5
					c17-1.7,34.3,3.1,49.9,10.2c-4,9.2-8,18.2-12.3,27.2c-10.4-5-25-9-35.2-8.5c-7.1,0.2-8,1.4-9.9,6.1c0,0.2,0,0.2,0,0.5
					c4.5,7.6,10.9,7.1,21,9.5c18.9,4.5,40.9,11.1,44.2,35l0.2,0.5c-1.7,28.4-17.5,39.7-45.6,42.5
					C2769.2,1237.4,2748.9,1231.8,2731.4,1222.8z"/>
			</g>
		</g>
	</g>
</g>
<g id="Layer_16">
</g>
</svg>
