<?xml version="1.0" encoding="utf-8"?>
<!-- Generator: Adobe Illustrator 25.2.1, SVG Export Plug-In . SVG Version: 6.00 Build 0)  -->
<svg version="1.1" xmlns="http://www.w3.org/2000/svg" xmlns:xlink="http://www.w3.org/1999/xlink" x="0px" y="0px"
	 viewBox="0 0 500 500" style="enable-background:new 0 0 500 500;" xml:space="preserve">
<style type="text/css">
	.my-penguin-unlocked-st0{display:none;}
	.my-penguin-unlocked-st1{display:inline;}
	.my-penguin-unlocked-st2{fill="url(#SVGID_1_)";}
	.my-penguin-unlocked-st3{fill="url(#SVGID_2_)";}
	.my-penguin-unlocked-st4{fill="url(#SVGID_3_)";}
	.my-penguin-unlocked-st5{fill="url(#SVGID_4_)";}
	.my-penguin-unlocked-st6{fill="url(#SVGID_5_)";}
	.my-penguin-unlocked-st7{fill:#7D499C;}
	.my-penguin-unlocked-st8{fill:#632D90;}
	.my-penguin-unlocked-st9{fill:#FFFFFF;}
	.my-penguin-unlocked-st10{fill="url(#SVGID_6_)";}
	.my-penguin-unlocked-st11{fill="url(#SVGID_7_)";}
	.my-penguin-unlocked-st12{fill="url(#SVGID_8_)";}
	.my-penguin-unlocked-st13{fill="url(#SVGID_9_)";}
	.my-penguin-unlocked-st14{fill="url(#SVGID_10_)";}
	.my-penguin-unlocked-st15{fill="url(#SVGID_11_)";}
	.my-penguin-unlocked-st16{fill="url(#SVGID_12_)";}
	.my-penguin-unlocked-st17{fill="url(#SVGID_13_)";}
	.my-penguin-unlocked-st18{fill="url(#SVGID_14_)";}
	.my-penguin-unlocked-st19{fill="url(#SVGID_15_)";}
	.my-penguin-unlocked-st20{fill:#1D1E1D;}
	.my-penguin-unlocked-st21{fill:#F6FBFD;}
	.my-penguin-unlocked-st22{fill:#1C1D1C;}
	.my-penguin-unlocked-st23{fill:#E64142;}
	.my-penguin-unlocked-st24{opacity:0.2;}
</style>
<g id="Layer_1" class="my-penguin-unlocked-st0">
	<g id="Layer_6" class="my-penguin-unlocked-st1">
		<g>
			<g>
				
					<linearGradient id="SVGID_1_" gradientUnits="userSpaceOnUse" x1="272.215" y1="315.0388" x2="348.1755" y2="315.0388" gradientTransform="matrix(-1 0 0 1 397.8514 0)">
					<stop  offset="0" style="stop-color:#5D3292"/>
					<stop  offset="0.8375" style="stop-color:#7C4A9C"/>
				</linearGradient>
				<path class="my-penguin-unlocked-st2" d="M56.1,285.2c16.1-3.4,47.5-9,67.8-6.9l1.7,63.7c0,0.5-0.4,1-0.9,1.1c-6.2,0.8-40.9,5.2-64.1,9
					c-6.3,1-11.2-5.2-8.8-11.1l9.7-23.4l-10.9-20.8C48.1,292.1,50.9,286.3,56.1,285.2z"/>
				<linearGradient id="SVGID_2_" gradientUnits="userSpaceOnUse" x1="108.1829" y1="286.1606" x2="108.7051" y2="349.6742">
					<stop  offset="0.5564" style="stop-color:#442A74"/>
					<stop  offset="0.589" style="stop-color:#4F307C"/>
					<stop  offset="0.6793" style="stop-color:#683E8D"/>
					<stop  offset="0.7617" style="stop-color:#774798"/>
					<stop  offset="0.8289" style="stop-color:#7C4A9C"/>
				</linearGradient>
				<path class="my-penguin-unlocked-st3" d="M125.6,276.6L98.1,319l-5.8,3.3L91,330l33.8,12.7c0.4,0.2,0.8-0.1,0.8-0.6V276.6z"/>
				<linearGradient id="SVGID_3_" gradientUnits="userSpaceOnUse" x1="374.3636" y1="315.0388" x2="450.3242" y2="315.0388">
					<stop  offset="0" style="stop-color:#5D3292"/>
					<stop  offset="0.8375" style="stop-color:#7C4A9C"/>
				</linearGradient>
				<path class="my-penguin-unlocked-st4" d="M443.9,285.2c-16.1-3.4-47.5-9-67.8-6.9l-1.7,63.7c0,0.5,0.4,1,0.9,1.1c6.2,0.8,40.9,5.2,64.1,9
					c6.3,1,11.2-5.2,8.8-11.1l-9.7-23.4l10.9-20.8C451.9,292.1,449.1,286.3,443.9,285.2z"/>
				<linearGradient id="SVGID_4_" gradientUnits="userSpaceOnUse" x1="391.6413" y1="305.3465" x2="391.6413" y2="339.6439">
					<stop  offset="0.5564" style="stop-color:#442A74"/>
					<stop  offset="0.5988" style="stop-color:#4F307C"/>
					<stop  offset="0.7158" style="stop-color:#683E8D"/>
					<stop  offset="0.8228" style="stop-color:#774798"/>
					<stop  offset="0.9099" style="stop-color:#7C4A9C"/>
				</linearGradient>
				<path class="my-penguin-unlocked-st5" d="M374.3,276.6l27.6,42.4l5.8,3.3l1.3,7.7l-33.8,12.7c-0.4,0.2-0.8-0.1-0.8-0.6V276.6z"/>
				<linearGradient id="SVGID_5_" gradientUnits="userSpaceOnUse" x1="91.0119" y1="295.9442" x2="408.9633" y2="295.9442">
					<stop  offset="0" style="stop-color:#814E9E"/>
					<stop  offset="0.5044" style="stop-color:#814E9E"/>
					<stop  offset="1" style="stop-color:#7C4A9C"/>
					<stop  offset="1" style="stop-color:#814E9E"/>
				</linearGradient>
				<rect x="91" y="261.9" class="my-penguin-unlocked-st6" width="318" height="68.1"/>
			</g>
		</g>
	</g>
	<g class="my-penguin-unlocked-st1">
		<g>
			<g>
				<g>
					<path class="my-penguin-unlocked-st7" d="M164.6,250.2c6.3-6.9-1.1-17.3-3.7-24.5C154.9,233.8,157.8,243.7,164.6,250.2z"/>
					<path class="my-penguin-unlocked-st7" d="M151.5,235.5c7.7-4.4,4.2-16.2,3.9-23.4C147.6,216.2,146.8,227.7,151.5,235.5z"/>
					<path class="my-penguin-unlocked-st7" d="M143.6,217.5c8.8-1.7,9.2-14.4,10.9-21.3C145.5,199.5,141.9,208.4,143.6,217.5z"/>
					<path class="my-penguin-unlocked-st7" d="M141.8,197.8c9.2,0.9,12.6-11.3,15.9-17.9C148.4,181.3,143,188.8,141.8,197.8z"/>
				</g>
				<path class="my-penguin-unlocked-st7" d="M145.2,177.4c9.8-5.5,12.6-19.5,14.7-29.7C150.2,154.7,143.9,165,145.2,177.4z"/>
				<g>
					<path class="my-penguin-unlocked-st7" d="M157.4,247.1c-9.6,8.4-21.3-7-25.3-15.1C140.1,232.6,150.6,240.7,157.4,247.1z"/>
					<path class="my-penguin-unlocked-st7" d="M145.6,230.5c-11.3,5.3-18-13.7-18.9-22.3C135.2,213.6,140.8,221.9,145.6,230.5z"/>
					<path class="my-penguin-unlocked-st7" d="M139.7,211c-11.7,1.2-12.3-17.2-11.3-25.3C134.6,190.1,138.2,202.5,139.7,211z"/>
					<path class="my-penguin-unlocked-st7" d="M139.9,190.7c-11-1.8-7.5-18.7-5.2-26.1C140.1,170,140.8,182.2,139.9,190.7z"/>
				</g>
			</g>
		</g>
		<g>
			<g>
				<g>
					<path class="my-penguin-unlocked-st7" d="M335.4,250.2c-6.3-6.9,1.1-17.3,3.7-24.5C345.1,233.8,342.2,243.7,335.4,250.2z"/>
					<path class="my-penguin-unlocked-st7" d="M348.5,235.5c-7.7-4.4-4.2-16.2-3.9-23.4C352.4,216.2,353.2,227.7,348.5,235.5z"/>
					<path class="my-penguin-unlocked-st7" d="M356.4,217.5c-8.8-1.7-9.2-14.4-10.9-21.3C354.5,199.5,358.1,208.4,356.4,217.5z"/>
					<path class="my-penguin-unlocked-st7" d="M358.2,197.8c-9.2,0.9-12.6-11.3-15.9-17.9C351.6,181.3,357,188.8,358.2,197.8z"/>
				</g>
				<path class="my-penguin-unlocked-st7" d="M354.8,177.4c-9.8-5.5-12.6-19.5-14.7-29.7C349.8,154.7,356.1,165,354.8,177.4z"/>
				<g>
					<path class="my-penguin-unlocked-st7" d="M342.6,247.1c9.6,8.4,21.3-7,25.3-15.1C359.9,232.6,349.4,240.7,342.6,247.1z"/>
					<path class="my-penguin-unlocked-st7" d="M354.4,230.5c11.3,5.3,18-13.7,18.9-22.3C364.8,213.6,359.2,221.9,354.4,230.5z"/>
					<path class="my-penguin-unlocked-st7" d="M360.3,211c11.7,1.2,12.3-17.2,11.3-25.3C365.4,190.1,361.8,202.5,360.3,211z"/>
					<path class="my-penguin-unlocked-st7" d="M360.1,190.7c11-1.8,7.5-18.7,5.2-26.1C359.9,170,359.2,182.2,360.1,190.7z"/>
				</g>
			</g>
		</g>
	</g>
	<g class="my-penguin-unlocked-st1">
		<path class="my-penguin-unlocked-st8" d="M107.5,279.4c-1.1,2.8-1.4,8.5,2.3,9.6c0.3,0.6,0.5,1.2,0.8,1.7c-1.7-1.1-4.3-2.1-6.1-2.7
			c1.1,3.3,4.5,8.7,8.6,7.1c0.6,0.8,1.2,1.7,1.8,2.5c-2-0.8-5.1-1.3-7-1.5c1.7,3,6.3,7.6,10,5.1c0.8,0.8,1.6,1.6,2.4,2.3
			c-2.3-0.3-5.4,0-7.5,0.2c1.4,1.5,4.1,3.3,6.3,3.7l0,0c1.7,0.4,3.7,0.2,4.8-1.1c1.3,0.9,2.4,1.6,3.9,2.3c0.2,0.1,0.5,0,0.7-0.2
			c0,0,0,0,0,0c0.2-0.3,0.1-0.6-0.2-0.8c-1-0.5-1.9-1-2.8-1.5c1.2-1.8,0.7-4.2-0.1-6.1c-0.4-1.1-1.3-2.6-1.8-3.4l-0.2,0.3
			c-0.9,1.8-1.7,4.8-1,6.9c-0.9-0.7-1.8-1.6-2.7-2.4c1.7-1.8,1.5-4.3,1-6.5c-0.2-1-0.7-2.5-1-3.2c-1.4,1.5-2.8,4.4-2.6,6.7
			c-0.7-0.9-1.4-1.8-2-2.7c2.6-2.3,1.8-6.6,1-9.5c-1.4,1.4-3,3.7-3.3,5.9c-0.7-1.2-1.3-2.4-1.9-3.8c1-1.7,0.3-4-0.6-5.6
			c-0.8-1.5-1.5-2.6-2.5-3.8L107.5,279.4z"/>
		<path class="my-penguin-unlocked-st8" d="M392.5,279.4c1.1,2.8,1.4,8.5-2.3,9.6c-0.3,0.6-0.5,1.2-0.8,1.7c1.7-1.1,4.3-2.1,6.1-2.7
			c-1.1,3.3-4.5,8.7-8.6,7.1c-0.6,0.8-1.2,1.7-1.8,2.5c2-0.8,5.1-1.3,7-1.5c-1.7,3-6.3,7.6-10,5.1c-0.8,0.8-1.6,1.6-2.4,2.3
			c2.3-0.3,5.4,0,7.5,0.2c-1.4,1.5-4.1,3.3-6.3,3.7l0,0c-1.7,0.4-3.7,0.2-4.8-1.1c-1.3,0.9-2.4,1.6-3.9,2.3c-0.2,0.1-0.5,0-0.7-0.2
			c0,0,0,0,0,0c-0.2-0.3-0.1-0.6,0.2-0.8c1-0.5,1.9-1,2.8-1.5c-1.2-1.8-0.7-4.2,0.1-6.1c0.4-1.1,1.3-2.6,1.8-3.4l0.2,0.3
			c0.9,1.8,1.7,4.8,1,6.9c0.9-0.7,1.8-1.6,2.7-2.4c-1.7-1.8-1.5-4.3-1-6.5c0.2-1,0.7-2.5,1-3.2c1.4,1.5,2.8,4.4,2.6,6.7
			c0.7-0.9,1.4-1.8,2-2.7c-2.6-2.3-1.8-6.6-1-9.5c1.4,1.4,3,3.7,3.3,5.9c0.7-1.2,1.3-2.4,1.9-3.8c-1-1.7-0.3-4,0.6-5.6
			c0.8-1.5,1.5-2.6,2.5-3.8L392.5,279.4z"/>
	</g>
	<g class="my-penguin-unlocked-st1">
		<path class="my-penguin-unlocked-st9" d="M163.1,284.3v5.1h9.5v6.6h-9.5v5.7h10.8v7h-19.1v-31.4h19.1v7H163.1z"/>
		<path class="my-penguin-unlocked-st9" d="M216.2,286.3c1.7,1.9,2.6,4.5,2.6,7.8v14.6h-8.3v-13.4c0-1.3-0.4-2.4-1.1-3.1c-0.7-0.7-1.7-1.1-2.9-1.1
			c-1.2,0-2.2,0.4-2.9,1.1c-0.7,0.7-1.1,1.8-1.1,3.1v13.4h-8.3v-13.4c0-1.3-0.3-2.4-1-3.1c-0.7-0.7-1.6-1.1-2.9-1.1
			c-1.2,0-2.2,0.4-2.9,1.1c-0.7,0.7-1.1,1.8-1.1,3.1v13.4h-8.3v-25h8.3v3.3c0.7-1.1,1.7-1.9,2.9-2.6c1.2-0.6,2.5-1,4-1
			c1.8,0,3.3,0.4,4.7,1.2c1.4,0.8,2.5,1.9,3.2,3.4c0.8-1.4,2-2.5,3.3-3.3c1.4-0.8,2.9-1.3,4.6-1.3
			C212.1,283.5,214.5,284.4,216.2,286.3z"/>
		<path class="my-penguin-unlocked-st9" d="M234.4,284.4c1.2-0.7,2.6-1,4.2-1c1.9,0,3.6,0.5,5.2,1.6c1.5,1,2.8,2.5,3.6,4.5c0.9,1.9,1.3,4.2,1.3,6.8
			s-0.4,4.8-1.3,6.8c-0.9,1.9-2.1,3.4-3.6,4.5c-1.5,1-3.3,1.6-5.2,1.6c-1.6,0-3-0.3-4.2-1s-2.1-1.6-2.8-2.8v15.4h-8.3v-36.9h8.3v3.5
			C232.3,286,233.2,285.1,234.4,284.4z M239,292.3c-0.8-0.9-1.9-1.4-3.1-1.4c-1.2,0-2.2,0.5-3.1,1.4s-1.2,2.2-1.2,3.8
			c0,1.6,0.4,2.9,1.2,3.8s1.9,1.4,3.1,1.4c1.2,0,2.2-0.5,3.1-1.4c0.8-0.9,1.2-2.2,1.2-3.8C240.2,294.5,239.8,293.2,239,292.3z"/>
		<path class="my-penguin-unlocked-st9" d="M274.7,297.9H259c0.1,1.4,0.4,2.4,1.1,3c0.6,0.7,1.4,1,2.4,1c1.4,0,2.4-0.7,3-2h8.9c-0.4,1.7-1.1,3.3-2.1,4.6
			c-1.1,1.4-2.4,2.4-4,3.2c-1.6,0.8-3.4,1.2-5.3,1.2c-2.3,0-4.4-0.5-6.3-1.6c-1.8-1-3.3-2.5-4.3-4.5c-1-1.9-1.5-4.2-1.5-6.8
			c0-2.6,0.5-4.9,1.5-6.8c1-1.9,2.4-3.4,4.3-4.4s3.9-1.6,6.3-1.6c2.3,0,4.4,0.5,6.2,1.5c1.8,1,3.2,2.5,4.2,4.3s1.5,4.1,1.5,6.7
			C274.8,296.6,274.8,297.2,274.7,297.9z M266.4,293.7c0-1.1-0.3-1.9-1-2.5c-0.7-0.6-1.5-0.9-2.5-0.9s-1.9,0.3-2.5,0.9
			s-1.1,1.4-1.3,2.6H266.4z"/>
		<path class="my-penguin-unlocked-st9" d="M289.9,284.7c1.3-0.8,2.8-1.2,4.3-1.2v9.3h-2.3c-1.8,0-3.2,0.4-4,1.1c-0.9,0.7-1.3,2-1.3,3.9v10.9h-8.3v-25
			h8.3v4.4C287.5,286.7,288.6,285.5,289.9,284.7z"/>
		<path class="my-penguin-unlocked-st9" d="M301.9,307.4c-1.9-1-3.4-2.5-4.4-4.5c-1.1-1.9-1.6-4.2-1.6-6.8c0-2.6,0.5-4.8,1.6-6.8
			c1.1-1.9,2.6-3.4,4.5-4.5s4-1.6,6.4-1.6s4.5,0.5,6.4,1.6s3.4,2.5,4.5,4.5c1.1,1.9,1.6,4.2,1.6,6.8s-0.5,4.8-1.6,6.8
			c-1.1,1.9-2.6,3.4-4.5,4.5s-4,1.6-6.4,1.6C305.9,309,303.8,308.5,301.9,307.4z M311.2,300c0.8-0.9,1.2-2.2,1.2-3.9
			c0-1.7-0.4-3-1.2-3.9c-0.8-0.9-1.7-1.3-2.9-1.3c-1.1,0-2.1,0.4-2.8,1.3c-0.8,0.9-1.1,2.2-1.1,3.9c0,1.7,0.4,3,1.1,3.9
			c0.7,0.9,1.7,1.3,2.8,1.3C309.4,301.4,310.4,300.9,311.2,300z"/>
		<path class="my-penguin-unlocked-st9" d="M335.9,284.7c1.3-0.8,2.8-1.2,4.3-1.2v9.3h-2.3c-1.8,0-3.2,0.4-4,1.1c-0.9,0.7-1.3,2-1.3,3.9v10.9h-8.3v-25
			h8.3v4.4C333.4,286.7,334.5,285.5,335.9,284.7z"/>
	</g>
</g>
<g id="Layer_7">
	<g>
		<g>
					<linearGradient id="SVGID_1_" gradientUnits="userSpaceOnUse" x1="272.215" y1="315.0388" x2="348.1755" y2="315.0388" gradientTransform="matrix(-1 0 0 1 397.8514 0)">
					<stop  offset="0" style="stop-color:#5D3292"/>
					<stop  offset="0.8375" style="stop-color:#7C4A9C"/>
				</linearGradient>
				<path class="emperor-locked-st0" fill="url(#SVGID_1_)" d="M56.1,285.2c16.1-3.4,47.5-9,67.8-6.9l1.7,63.7c0,0.5-0.4,1-0.9,1.1c-6.2,0.8-40.9,5.2-64.1,9
					c-6.3,1-11.2-5.2-8.8-11.1l9.7-23.4l-10.9-20.8C48.1,292.1,50.9,286.3,56.1,285.2z"/>
				<linearGradient id="SVGID_2_" gradientUnits="userSpaceOnUse" x1="108.1829" y1="286.1606" x2="108.7051" y2="349.6742">
					<stop  offset="0.5564" style="stop-color:#442A74"/>
					<stop  offset="0.589" style="stop-color:#4F307C"/>
					<stop  offset="0.6793" style="stop-color:#683E8D"/>
					<stop  offset="0.7617" style="stop-color:#774798"/>
					<stop  offset="0.8289" style="stop-color:#7C4A9C"/>
				</linearGradient>
				<path class="emperor-locked-st1" fill="url(#SVGID_2_)" d="M125.6,276.6L98.1,319l-5.8,3.3L91,330l33.8,12.7c0.4,0.2,0.8-0.1,0.8-0.6V276.6z"/>
				<linearGradient id="SVGID_3_" gradientUnits="userSpaceOnUse" x1="374.3636" y1="315.0388" x2="450.3242" y2="315.0388">
					<stop  offset="0" style="stop-color:#5D3292"/>
					<stop  offset="0.8375" style="stop-color:#7C4A9C"/>
				</linearGradient>
				<path class="emperor-locked-st2" fill="url(#SVGID_3_)" d="M443.9,285.2c-16.1-3.4-47.5-9-67.8-6.9l-1.7,63.7c0,0.5,0.4,1,0.9,1.1c6.2,0.8,40.9,5.2,64.1,9
					c6.3,1,11.2-5.2,8.8-11.1l-9.7-23.4l10.9-20.8C451.9,292.1,449.1,286.3,443.9,285.2z"/>
				<linearGradient id="SVGID_4_" gradientUnits="userSpaceOnUse" x1="391.6413" y1="305.3465" x2="391.6413" y2="339.6439">
					<stop  offset="0.5564" style="stop-color:#442A74"/>
					<stop  offset="0.5988" style="stop-color:#4F307C"/>
					<stop  offset="0.7158" style="stop-color:#683E8D"/>
					<stop  offset="0.8228" style="stop-color:#774798"/>
					<stop  offset="0.9099" style="stop-color:#7C4A9C"/>
				</linearGradient>
				<path class="emperor-locked-st3" fill="url(#SVGID_4_)" d="M374.3,276.6l27.6,42.4l5.8,3.3l1.3,7.7l-33.8,12.7c-0.4,0.2-0.8-0.1-0.8-0.6V276.6z"/>
				<linearGradient id="SVGID_5_" gradientUnits="userSpaceOnUse" x1="91.0119" y1="295.9442" x2="408.9633" y2="295.9442">
					<stop  offset="0" style="stop-color:#814E9E"/>
					<stop  offset="0.5044" style="stop-color:#814E9E"/>
					<stop  offset="1" style="stop-color:#7C4A9C"/>
					<stop  offset="1" style="stop-color:#814E9E"/>
				</linearGradient>
				<rect x="91" y="261.9" class="emperor-locked-st4" fill="url(#SVGID_5_)" width="318" height="68.1"/>
			</g>
	</g>
	<g>
		<g>
			<g>
				<g>
					<path class="my-penguin-unlocked-st7" d="M164.6,250.2c6.3-6.9-1.1-17.3-3.7-24.5C154.9,233.8,157.8,243.7,164.6,250.2z"/>
					<path class="my-penguin-unlocked-st7" d="M151.5,235.5c7.7-4.4,4.2-16.2,3.9-23.4C147.6,216.2,146.8,227.7,151.5,235.5z"/>
					<path class="my-penguin-unlocked-st7" d="M143.6,217.5c8.8-1.7,9.2-14.4,10.9-21.3C145.5,199.5,141.9,208.4,143.6,217.5z"/>
					<path class="my-penguin-unlocked-st7" d="M141.8,197.8c9.2,0.9,12.6-11.3,15.9-17.9C148.4,181.3,143,188.8,141.8,197.8z"/>
				</g>
				<path class="my-penguin-unlocked-st7" d="M145.2,177.4c9.8-5.5,12.6-19.5,14.7-29.7C150.2,154.7,143.9,165,145.2,177.4z"/>
				<g>
					<path class="my-penguin-unlocked-st7" d="M157.4,247.1c-9.6,8.4-21.3-7-25.3-15.1C140.1,232.6,150.6,240.7,157.4,247.1z"/>
					<path class="my-penguin-unlocked-st7" d="M145.6,230.5c-11.3,5.3-18-13.7-18.9-22.3C135.2,213.6,140.8,221.9,145.6,230.5z"/>
					<path class="my-penguin-unlocked-st7" d="M139.7,211c-11.7,1.2-12.3-17.2-11.3-25.3C134.6,190.1,138.2,202.5,139.7,211z"/>
					<path class="my-penguin-unlocked-st7" d="M139.9,190.7c-11-1.8-7.5-18.7-5.2-26.1C140.1,170,140.8,182.2,139.9,190.7z"/>
				</g>
			</g>
		</g>
		<g>
			<g>
				<g>
					<path class="my-penguin-unlocked-st7" d="M335.4,250.2c-6.3-6.9,1.1-17.3,3.7-24.5C345.1,233.8,342.2,243.7,335.4,250.2z"/>
					<path class="my-penguin-unlocked-st7" d="M348.5,235.5c-7.7-4.4-4.2-16.2-3.9-23.4C352.4,216.2,353.2,227.7,348.5,235.5z"/>
					<path class="my-penguin-unlocked-st7" d="M356.4,217.5c-8.8-1.7-9.2-14.4-10.9-21.3C354.5,199.5,358.1,208.4,356.4,217.5z"/>
					<path class="my-penguin-unlocked-st7" d="M358.2,197.8c-9.2,0.9-12.6-11.3-15.9-17.9C351.6,181.3,357,188.8,358.2,197.8z"/>
				</g>
				<path class="my-penguin-unlocked-st7" d="M354.8,177.4c-9.8-5.5-12.6-19.5-14.7-29.7C349.8,154.7,356.1,165,354.8,177.4z"/>
				<g>
					<path class="my-penguin-unlocked-st7" d="M342.6,247.1c9.6,8.4,21.3-7,25.3-15.1C359.9,232.6,349.4,240.7,342.6,247.1z"/>
					<path class="my-penguin-unlocked-st7" d="M354.4,230.5c11.3,5.3,18-13.7,18.9-22.3C364.8,213.6,359.2,221.9,354.4,230.5z"/>
					<path class="my-penguin-unlocked-st7" d="M360.3,211c11.7,1.2,12.3-17.2,11.3-25.3C365.4,190.1,361.8,202.5,360.3,211z"/>
					<path class="my-penguin-unlocked-st7" d="M360.1,190.7c11-1.8,7.5-18.7,5.2-26.1C359.9,170,359.2,182.2,360.1,190.7z"/>
				</g>
			</g>
		</g>
	</g>
	<g>
		<path class="my-penguin-unlocked-st8" d="M107.5,279.4c-1.1,2.8-1.4,8.5,2.3,9.6c0.3,0.6,0.5,1.2,0.8,1.7c-1.7-1.1-4.3-2.1-6.1-2.7
			c1.1,3.3,4.5,8.7,8.6,7.1c0.6,0.8,1.2,1.7,1.8,2.5c-2-0.8-5.1-1.3-7-1.5c1.7,3,6.3,7.6,10,5.1c0.8,0.8,1.6,1.6,2.4,2.3
			c-2.3-0.3-5.4,0-7.5,0.2c1.4,1.5,4.1,3.3,6.3,3.7l0,0c1.7,0.4,3.7,0.2,4.8-1.1c1.3,0.9,2.4,1.6,3.9,2.3c0.2,0.1,0.5,0,0.7-0.2
			c0,0,0,0,0,0c0.2-0.3,0.1-0.6-0.2-0.8c-1-0.5-1.9-1-2.8-1.5c1.2-1.8,0.7-4.2-0.1-6.1c-0.4-1.1-1.3-2.6-1.8-3.4l-0.2,0.3
			c-0.9,1.8-1.7,4.8-1,6.9c-0.9-0.7-1.8-1.6-2.7-2.4c1.7-1.8,1.5-4.3,1-6.5c-0.2-1-0.7-2.5-1-3.2c-1.4,1.5-2.8,4.4-2.6,6.7
			c-0.7-0.9-1.4-1.8-2-2.7c2.6-2.3,1.8-6.6,1-9.5c-1.4,1.4-3,3.7-3.3,5.9c-0.7-1.2-1.3-2.4-1.9-3.8c1-1.7,0.3-4-0.6-5.6
			c-0.8-1.5-1.5-2.6-2.5-3.8L107.5,279.4z"/>
		<path class="my-penguin-unlocked-st8" d="M392.5,279.4c1.1,2.8,1.4,8.5-2.3,9.6c-0.3,0.6-0.5,1.2-0.8,1.7c1.7-1.1,4.3-2.1,6.1-2.7
			c-1.1,3.3-4.5,8.7-8.6,7.1c-0.6,0.8-1.2,1.7-1.8,2.5c2-0.8,5.1-1.3,7-1.5c-1.7,3-6.3,7.6-10,5.1c-0.8,0.8-1.6,1.6-2.4,2.3
			c2.3-0.3,5.4,0,7.5,0.2c-1.4,1.5-4.1,3.3-6.3,3.7l0,0c-1.7,0.4-3.7,0.2-4.8-1.1c-1.3,0.9-2.4,1.6-3.9,2.3c-0.2,0.1-0.5,0-0.7-0.2
			c0,0,0,0,0,0c-0.2-0.3-0.1-0.6,0.2-0.8c1-0.5,1.9-1,2.8-1.5c-1.2-1.8-0.7-4.2,0.1-6.1c0.4-1.1,1.3-2.6,1.8-3.4l0.2,0.3
			c0.9,1.8,1.7,4.8,1,6.9c0.9-0.7,1.8-1.6,2.7-2.4c-1.7-1.8-1.5-4.3-1-6.5c0.2-1,0.7-2.5,1-3.2c1.4,1.5,2.8,4.4,2.6,6.7
			c0.7-0.9,1.4-1.8,2-2.7c-2.6-2.3-1.8-6.6-1-9.5c1.4,1.4,3,3.7,3.3,5.9c0.7-1.2,1.3-2.4,1.9-3.8c-1-1.7-0.3-4,0.6-5.6
			c0.8-1.5,1.5-2.6,2.5-3.8L392.5,279.4z"/>
	</g>
	<g id="Layer_9">
		<g>
			<path class="my-penguin-unlocked-st9" d="M179.6,283.6l-8.1,16.5v7.7H165v-7.7l-8.1-16.5h7.3l4.1,9.4l4.1-9.4H179.6z"/>
			<path class="my-penguin-unlocked-st9" d="M185.2,306.8c-1.5-0.8-2.6-1.9-3.4-3.4c-0.8-1.5-1.2-3.2-1.2-5.3c0-2,0.4-3.7,1.3-5.2c0.8-1.5,2-2.6,3.4-3.4
				c1.5-0.8,3.1-1.2,4.9-1.2c1.8,0,3.5,0.4,4.9,1.2c1.5,0.8,2.6,1.9,3.4,3.4c0.8,1.5,1.3,3.2,1.3,5.2s-0.4,3.7-1.3,5.2
				c-0.8,1.5-2,2.7-3.5,3.5c-1.5,0.8-3.1,1.2-4.9,1.2C188.3,308,186.7,307.6,185.2,306.8z M192.4,301.1c0.6-0.7,0.9-1.7,0.9-3
				c0-1.3-0.3-2.3-0.9-3c-0.6-0.7-1.3-1-2.2-1s-1.6,0.3-2.2,1c-0.6,0.7-0.9,1.7-0.9,3c0,1.3,0.3,2.3,0.9,3c0.6,0.7,1.3,1,2.2,1
				S191.8,301.8,192.4,301.1z"/>
			<path class="my-penguin-unlocked-st9" d="M221.2,288.5v19.3h-6.5v-2.8c-0.5,0.9-1.3,1.6-2.3,2.1c-1,0.5-2.1,0.8-3.3,0.8c-2.1,0-3.8-0.7-5.1-2.2
				c-1.2-1.5-1.9-3.5-1.9-6v-11.2h6.4v10.4c0,1.1,0.3,2,0.8,2.6c0.6,0.6,1.3,0.9,2.2,0.9c0.9,0,1.7-0.3,2.2-0.9
				c0.5-0.6,0.8-1.5,0.8-2.6v-10.4H221.2z"/>
			<path class="my-penguin-unlocked-st9" d="M233.9,289.3c1-0.6,2.1-1,3.3-1v7.2h-1.8c-1.4,0-2.4,0.3-3.1,0.9c-0.7,0.6-1,1.6-1,3v8.4h-6.4v-19.3h6.4v3.4
				C232,290.8,232.9,289.9,233.9,289.3z"/>
			<path class="my-penguin-unlocked-st9" d="M247.9,306c-1.7-1.3-2.7-3.3-2.8-5.8h6.8c0.1,0.8,0.3,1.5,0.7,1.9c0.4,0.4,1,0.6,1.6,0.6
				c0.6,0,1.1-0.2,1.5-0.5c0.4-0.3,0.6-0.7,0.6-1.3c0-0.7-0.3-1.3-1-1.7c-0.6-0.4-1.7-0.8-3.1-1.3c-1.5-0.5-2.7-1-3.7-1.5
				c-0.9-0.5-1.7-1.2-2.4-2.2s-1-2.2-1-3.7c0-1.6,0.4-2.9,1.1-4c0.7-1.1,1.8-2,3.1-2.5c1.3-0.6,2.8-0.9,4.5-0.9c2.7,0,4.8,0.7,6.4,2
				c1.6,1.3,2.5,3.2,2.6,5.6h-7c0-0.7-0.2-1.3-0.6-1.7c-0.4-0.4-0.9-0.5-1.6-0.5c-0.5,0-0.9,0.1-1.2,0.4c-0.3,0.3-0.5,0.7-0.5,1.3
				c0,0.5,0.2,0.9,0.5,1.2c0.3,0.3,0.8,0.6,1.3,0.9c0.5,0.2,1.2,0.5,2.2,0.9c1.5,0.5,2.7,1,3.6,1.6c1,0.5,1.8,1.2,2.5,2.2
				c0.7,0.9,1,2.1,1,3.5c0,1.4-0.3,2.7-1,3.9c-0.7,1.1-1.7,2.1-3,2.7c-1.3,0.7-2.8,1-4.6,1C251.8,308,249.6,307.4,247.9,306z"/>
			<path class="my-penguin-unlocked-st9" d="M266.2,292.9c0.8-1.5,1.9-2.6,3.3-3.4c1.4-0.8,3-1.2,4.8-1.2c2.3,0,4.3,0.7,5.9,2c1.6,1.3,2.6,3.2,3.1,5.6
				h-6.8c-0.4-1.3-1.2-1.9-2.3-1.9c-0.8,0-1.4,0.4-1.9,1c-0.5,0.7-0.7,1.7-0.7,3.1c0,1.4,0.2,2.4,0.7,3.1c0.5,0.7,1.1,1.1,1.9,1.1
				c1.2,0,1.9-0.6,2.3-1.9h6.8c-0.5,2.4-1.5,4.3-3.1,5.6c-1.6,1.4-3.6,2-5.9,2c-1.8,0-3.4-0.4-4.8-1.2c-1.4-0.8-2.5-1.9-3.3-3.4
				c-0.8-1.5-1.2-3.2-1.2-5.3C265.1,296.1,265.4,294.4,266.2,292.9z"/>
			<path class="my-penguin-unlocked-st9" d="M289.6,306.8c-1.5-0.8-2.6-1.9-3.4-3.4c-0.8-1.5-1.2-3.2-1.2-5.3c0-2,0.4-3.7,1.3-5.2c0.8-1.5,2-2.6,3.4-3.4
				c1.5-0.8,3.1-1.2,4.9-1.2c1.8,0,3.5,0.4,4.9,1.2s2.6,1.9,3.4,3.4c0.8,1.5,1.3,3.2,1.3,5.2s-0.4,3.7-1.3,5.2
				c-0.8,1.5-2,2.7-3.5,3.5c-1.5,0.8-3.1,1.2-4.9,1.2C292.7,308,291.1,307.6,289.6,306.8z M296.8,301.1c0.6-0.7,0.9-1.7,0.9-3
				c0-1.3-0.3-2.3-0.9-3c-0.6-0.7-1.3-1-2.2-1c-0.9,0-1.6,0.3-2.2,1c-0.6,0.7-0.9,1.7-0.9,3c0,1.3,0.3,2.3,0.9,3
				c0.6,0.7,1.3,1,2.2,1S296.2,301.8,296.8,301.1z"/>
			<path class="my-penguin-unlocked-st9" d="M315.9,289.3c1-0.6,2.1-1,3.3-1v7.2h-1.8c-1.4,0-2.4,0.3-3.1,0.9c-0.7,0.6-1,1.6-1,3v8.4h-6.4v-19.3h6.4v3.4
				C314,290.8,314.8,289.9,315.9,289.3z"/>
			<path class="my-penguin-unlocked-st9" d="M338.9,299.5h-12.2c0.1,1.1,0.3,1.8,0.8,2.4c0.5,0.5,1.1,0.8,1.9,0.8c1.1,0,1.8-0.5,2.3-1.5h6.8
				c-0.3,1.3-0.8,2.5-1.7,3.6c-0.8,1-1.9,1.9-3.1,2.5c-1.2,0.6-2.6,0.9-4.1,0.9c-1.8,0-3.4-0.4-4.8-1.2c-1.4-0.8-2.5-1.9-3.3-3.4
				c-0.8-1.5-1.2-3.2-1.2-5.3c0-2,0.4-3.8,1.2-5.2c0.8-1.5,1.9-2.6,3.3-3.4c1.4-0.8,3-1.2,4.9-1.2c1.8,0,3.4,0.4,4.8,1.2
				s2.5,1.9,3.3,3.4s1.2,3.2,1.2,5.1C339,298.5,339,299,338.9,299.5z M332.5,296.2c0-0.8-0.3-1.5-0.8-1.9s-1.2-0.7-2-0.7
				s-1.4,0.2-1.9,0.7c-0.5,0.4-0.8,1.1-1,2H332.5z"/>
		</g>
	</g>
</g>
<g id="Layer_8" class="my-penguin-unlocked-st0">
	<g class="my-penguin-unlocked-st1">
		<g>
			
				<linearGradient id="SVGID_11_" gradientUnits="userSpaceOnUse" x1="272.215" y1="315.0388" x2="348.1755" y2="315.0388" gradientTransform="matrix(-1 0 0 1 397.8514 0)">
				<stop  offset="0" style="stop-color:#5D3292"/>
				<stop  offset="0.8375" style="stop-color:#7C4A9C"/>
			</linearGradient>
			<path class="my-penguin-unlocked-st15" d="M56.1,285.2c16.1-3.4,47.5-9,67.8-6.9l1.7,63.7c0,0.5-0.4,1-0.9,1.1c-6.2,0.8-40.9,5.2-64.1,9
				c-6.3,1-11.2-5.2-8.8-11.1l9.7-23.4l-10.9-20.8C48.1,292.1,50.9,286.3,56.1,285.2z"/>
			<linearGradient id="SVGID_12_" gradientUnits="userSpaceOnUse" x1="108.1829" y1="286.1606" x2="108.7051" y2="349.6742">
				<stop  offset="0.5564" style="stop-color:#442A74"/>
				<stop  offset="0.589" style="stop-color:#4F307C"/>
				<stop  offset="0.6793" style="stop-color:#683E8D"/>
				<stop  offset="0.7617" style="stop-color:#774798"/>
				<stop  offset="0.8289" style="stop-color:#7C4A9C"/>
			</linearGradient>
			<path class="my-penguin-unlocked-st16" d="M125.6,276.6L98.1,319l-5.8,3.3L91,330l33.8,12.7c0.4,0.2,0.8-0.1,0.8-0.6V276.6z"/>
			<linearGradient id="SVGID_13_" gradientUnits="userSpaceOnUse" x1="374.3636" y1="315.0388" x2="450.3242" y2="315.0388">
				<stop  offset="0" style="stop-color:#5D3292"/>
				<stop  offset="0.8375" style="stop-color:#7C4A9C"/>
			</linearGradient>
			<path class="my-penguin-unlocked-st17" d="M443.9,285.2c-16.1-3.4-47.5-9-67.8-6.9l-1.7,63.7c0,0.5,0.4,1,0.9,1.1c6.2,0.8,40.9,5.2,64.1,9
				c6.3,1,11.2-5.2,8.8-11.1l-9.7-23.4l10.9-20.8C451.9,292.1,449.1,286.3,443.9,285.2z"/>
			<linearGradient id="SVGID_14_" gradientUnits="userSpaceOnUse" x1="391.6413" y1="305.3465" x2="391.6413" y2="339.6439">
				<stop  offset="0.5564" style="stop-color:#442A74"/>
				<stop  offset="0.5988" style="stop-color:#4F307C"/>
				<stop  offset="0.7158" style="stop-color:#683E8D"/>
				<stop  offset="0.8228" style="stop-color:#774798"/>
				<stop  offset="0.9099" style="stop-color:#7C4A9C"/>
			</linearGradient>
			<path class="my-penguin-unlocked-st18" d="M374.3,276.6l27.6,42.4l5.8,3.3l1.3,7.7l-33.8,12.7c-0.4,0.2-0.8-0.1-0.8-0.6V276.6z"/>
			<linearGradient id="SVGID_15_" gradientUnits="userSpaceOnUse" x1="91.0119" y1="295.9442" x2="408.9633" y2="295.9442">
				<stop  offset="0" style="stop-color:#814E9E"/>
				<stop  offset="0.5044" style="stop-color:#814E9E"/>
				<stop  offset="1" style="stop-color:#7C4A9C"/>
				<stop  offset="1" style="stop-color:#814E9E"/>
			</linearGradient>
			<rect x="91" y="261.9" class="my-penguin-unlocked-st19" width="318" height="68.1"/>
		</g>
	</g>
	<g class="my-penguin-unlocked-st1">
		<g>
			<g>
				<g>
					<path class="my-penguin-unlocked-st7" d="M164.6,250.2c6.3-6.9-1.1-17.3-3.7-24.5C154.9,233.8,157.8,243.7,164.6,250.2z"/>
					<path class="my-penguin-unlocked-st7" d="M151.5,235.5c7.7-4.4,4.2-16.2,3.9-23.4C147.6,216.2,146.8,227.7,151.5,235.5z"/>
					<path class="my-penguin-unlocked-st7" d="M143.6,217.5c8.8-1.7,9.2-14.4,10.9-21.3C145.5,199.5,141.9,208.4,143.6,217.5z"/>
					<path class="my-penguin-unlocked-st7" d="M141.8,197.8c9.2,0.9,12.6-11.3,15.9-17.9C148.4,181.3,143,188.8,141.8,197.8z"/>
				</g>
				<path class="my-penguin-unlocked-st7" d="M145.2,177.4c9.8-5.5,12.6-19.5,14.7-29.7C150.2,154.7,143.9,165,145.2,177.4z"/>
				<g>
					<path class="my-penguin-unlocked-st7" d="M157.4,247.1c-9.6,8.4-21.3-7-25.3-15.1C140.1,232.6,150.6,240.7,157.4,247.1z"/>
					<path class="my-penguin-unlocked-st7" d="M145.6,230.5c-11.3,5.3-18-13.7-18.9-22.3C135.2,213.6,140.8,221.9,145.6,230.5z"/>
					<path class="my-penguin-unlocked-st7" d="M139.7,211c-11.7,1.2-12.3-17.2-11.3-25.3C134.6,190.1,138.2,202.5,139.7,211z"/>
					<path class="my-penguin-unlocked-st7" d="M139.9,190.7c-11-1.8-7.5-18.7-5.2-26.1C140.1,170,140.8,182.2,139.9,190.7z"/>
				</g>
			</g>
		</g>
		<g>
			<g>
				<g>
					<path class="my-penguin-unlocked-st7" d="M335.4,250.2c-6.3-6.9,1.1-17.3,3.7-24.5C345.1,233.8,342.2,243.7,335.4,250.2z"/>
					<path class="my-penguin-unlocked-st7" d="M348.5,235.5c-7.7-4.4-4.2-16.2-3.9-23.4C352.4,216.2,353.2,227.7,348.5,235.5z"/>
					<path class="my-penguin-unlocked-st7" d="M356.4,217.5c-8.8-1.7-9.2-14.4-10.9-21.3C354.5,199.5,358.1,208.4,356.4,217.5z"/>
					<path class="my-penguin-unlocked-st7" d="M358.2,197.8c-9.2,0.9-12.6-11.3-15.9-17.9C351.6,181.3,357,188.8,358.2,197.8z"/>
				</g>
				<path class="my-penguin-unlocked-st7" d="M354.8,177.4c-9.8-5.5-12.6-19.5-14.7-29.7C349.8,154.7,356.1,165,354.8,177.4z"/>
				<g>
					<path class="my-penguin-unlocked-st7" d="M342.6,247.1c9.6,8.4,21.3-7,25.3-15.1C359.9,232.6,349.4,240.7,342.6,247.1z"/>
					<path class="my-penguin-unlocked-st7" d="M354.4,230.5c11.3,5.3,18-13.7,18.9-22.3C364.8,213.6,359.2,221.9,354.4,230.5z"/>
					<path class="my-penguin-unlocked-st7" d="M360.3,211c11.7,1.2,12.3-17.2,11.3-25.3C365.4,190.1,361.8,202.5,360.3,211z"/>
					<path class="my-penguin-unlocked-st7" d="M360.1,190.7c11-1.8,7.5-18.7,5.2-26.1C359.9,170,359.2,182.2,360.1,190.7z"/>
				</g>
			</g>
		</g>
	</g>
	<g class="my-penguin-unlocked-st1">
		<path class="my-penguin-unlocked-st8" d="M107.5,279.4c-1.1,2.8-1.4,8.5,2.3,9.6c0.3,0.6,0.5,1.2,0.8,1.7c-1.7-1.1-4.3-2.1-6.1-2.7
			c1.1,3.3,4.5,8.7,8.6,7.1c0.6,0.8,1.2,1.7,1.8,2.5c-2-0.8-5.1-1.3-7-1.5c1.7,3,6.3,7.6,10,5.1c0.8,0.8,1.6,1.6,2.4,2.3
			c-2.3-0.3-5.4,0-7.5,0.2c1.4,1.5,4.1,3.3,6.3,3.7l0,0c1.7,0.4,3.7,0.2,4.8-1.1c1.3,0.9,2.4,1.6,3.9,2.3c0.2,0.1,0.5,0,0.7-0.2
			c0,0,0,0,0,0c0.2-0.3,0.1-0.6-0.2-0.8c-1-0.5-1.9-1-2.8-1.5c1.2-1.8,0.7-4.2-0.1-6.1c-0.4-1.1-1.3-2.6-1.8-3.4l-0.2,0.3
			c-0.9,1.8-1.7,4.8-1,6.9c-0.9-0.7-1.8-1.6-2.7-2.4c1.7-1.8,1.5-4.3,1-6.5c-0.2-1-0.7-2.5-1-3.2c-1.4,1.5-2.8,4.4-2.6,6.7
			c-0.7-0.9-1.4-1.8-2-2.7c2.6-2.3,1.8-6.6,1-9.5c-1.4,1.4-3,3.7-3.3,5.9c-0.7-1.2-1.3-2.4-1.9-3.8c1-1.7,0.3-4-0.6-5.6
			c-0.8-1.5-1.5-2.6-2.5-3.8L107.5,279.4z"/>
		<path class="my-penguin-unlocked-st8" d="M392.5,279.4c1.1,2.8,1.4,8.5-2.3,9.6c-0.3,0.6-0.5,1.2-0.8,1.7c1.7-1.1,4.3-2.1,6.1-2.7
			c-1.1,3.3-4.5,8.7-8.6,7.1c-0.6,0.8-1.2,1.7-1.8,2.5c2-0.8,5.1-1.3,7-1.5c-1.7,3-6.3,7.6-10,5.1c-0.8,0.8-1.6,1.6-2.4,2.3
			c2.3-0.3,5.4,0,7.5,0.2c-1.4,1.5-4.1,3.3-6.3,3.7l0,0c-1.7,0.4-3.7,0.2-4.8-1.1c-1.3,0.9-2.4,1.6-3.9,2.3c-0.2,0.1-0.5,0-0.7-0.2
			c0,0,0,0,0,0c-0.2-0.3-0.1-0.6,0.2-0.8c1-0.5,1.9-1,2.8-1.5c-1.2-1.8-0.7-4.2,0.1-6.1c0.4-1.1,1.3-2.6,1.8-3.4l0.2,0.3
			c0.9,1.8,1.7,4.8,1,6.9c0.9-0.7,1.8-1.6,2.7-2.4c-1.7-1.8-1.5-4.3-1-6.5c0.2-1,0.7-2.5,1-3.2c1.4,1.5,2.8,4.4,2.6,6.7
			c0.7-0.9,1.4-1.8,2-2.7c-2.6-2.3-1.8-6.6-1-9.5c1.4,1.4,3,3.7,3.3,5.9c0.7-1.2,1.3-2.4,1.9-3.8c-1-1.7-0.3-4,0.6-5.6
			c0.8-1.5,1.5-2.6,2.5-3.8L392.5,279.4z"/>
	</g>
	<g class="my-penguin-unlocked-st1">
		<path class="my-penguin-unlocked-st9" d="M152.6,283.7v5.4h-6.2V308H140v-18.9h-6.1v-5.4H152.6z"/>
		<path class="my-penguin-unlocked-st9" d="M158.6,307c-1.5-0.8-2.6-2-3.4-3.4c-0.8-1.5-1.2-3.2-1.2-5.3c0-2,0.4-3.7,1.3-5.2c0.8-1.5,2-2.6,3.4-3.4
			c1.5-0.8,3.1-1.2,4.9-1.2s3.5,0.4,4.9,1.2c1.5,0.8,2.6,2,3.4,3.4c0.8,1.5,1.3,3.2,1.3,5.2s-0.4,3.7-1.3,5.3
			c-0.8,1.5-2,2.7-3.5,3.5c-1.5,0.8-3.1,1.2-5,1.2S160,307.8,158.6,307z M165.8,301.3c0.6-0.7,0.9-1.7,0.9-3s-0.3-2.3-0.9-3
			c-0.6-0.7-1.3-1-2.2-1c-0.9,0-1.6,0.3-2.2,1c-0.6,0.7-0.9,1.7-0.9,3c0,1.3,0.3,2.3,0.9,3c0.6,0.7,1.3,1,2.2,1
			C164.4,302.4,165.2,302,165.8,301.3z"/>
		<path class="my-penguin-unlocked-st9" d="M184.4,289.2c0.9-0.5,2-0.8,3.2-0.8c1.5,0,2.8,0.4,4,1.2c1.2,0.8,2.1,2,2.8,3.4c0.7,1.5,1,3.2,1,5.2
			s-0.3,3.7-1,5.3c-0.7,1.5-1.6,2.7-2.8,3.5c-1.2,0.8-2.5,1.2-4,1.2c-1.2,0-2.3-0.3-3.2-0.8s-1.6-1.2-2.1-2.1v11.9h-6.4v-28.5h6.4
			v2.7C182.7,290.4,183.5,289.7,184.4,289.2z M188,295.3c-0.6-0.7-1.4-1-2.4-1c-0.9,0-1.7,0.4-2.4,1.1c-0.6,0.7-1,1.7-1,2.9
			c0,1.3,0.3,2.2,1,3c0.6,0.7,1.4,1.1,2.4,1.1c0.9,0,1.7-0.4,2.4-1.1c0.6-0.7,1-1.7,1-2.9C188.9,297,188.6,296,188,295.3z"/>
		<path class="my-penguin-unlocked-st9" d="M221.7,295.8c-0.6,1.2-1.6,2.2-2.9,2.9c-1.3,0.7-2.9,1.1-4.8,1.1h-3.2v8.2h-6.4v-24.3h9.6
			c1.9,0,3.4,0.3,4.7,1c1.3,0.7,2.3,1.6,2.9,2.9c0.7,1.2,1,2.6,1,4.2C222.6,293.3,222.3,294.6,221.7,295.8z M216.1,291.8
			c0-1.8-0.9-2.7-2.7-2.7h-2.6v5.3h2.6C215.2,294.4,216.1,293.5,216.1,291.8z"/>
		<path class="my-penguin-unlocked-st9" d="M242.7,299.7h-12.2c0.1,1.1,0.3,1.8,0.8,2.4c0.5,0.5,1.1,0.8,1.9,0.8c1.1,0,1.8-0.5,2.3-1.5h6.9
			c-0.3,1.3-0.8,2.5-1.7,3.6c-0.8,1-1.9,1.9-3.1,2.5c-1.2,0.6-2.6,0.9-4.1,0.9c-1.8,0-3.4-0.4-4.8-1.2c-1.4-0.8-2.5-2-3.3-3.4
			c-0.8-1.5-1.2-3.2-1.2-5.3c0-2,0.4-3.8,1.2-5.3c0.8-1.5,1.9-2.6,3.3-3.4s3-1.2,4.9-1.2c1.8,0,3.4,0.4,4.8,1.2
			c1.4,0.8,2.5,1.9,3.3,3.4c0.8,1.5,1.2,3.2,1.2,5.1C242.8,298.6,242.8,299.1,242.7,299.7z M236.3,296.4c0-0.8-0.3-1.5-0.8-1.9
			c-0.5-0.5-1.2-0.7-2-0.7c-0.8,0-1.4,0.2-1.9,0.7c-0.5,0.4-0.8,1.1-1,2H236.3z"/>
		<path class="my-penguin-unlocked-st9" d="M262.5,290.7c1.2,1.5,1.9,3.5,1.9,6V308H258v-10.4c0-1.1-0.3-2-0.8-2.6c-0.5-0.6-1.3-0.9-2.2-0.9
			c-1,0-1.7,0.3-2.3,0.9c-0.5,0.6-0.8,1.5-0.8,2.6V308h-6.4v-19.3h6.4v2.8c0.6-0.9,1.3-1.6,2.3-2.1c1-0.5,2.1-0.8,3.3-0.8
			C259.6,288.5,261.3,289.2,262.5,290.7z"/>
		<path class="my-penguin-unlocked-st9" d="M278,289.2c0.9,0.5,1.6,1.2,2.1,2.1v-2.7h6.4v19.1c0,1.8-0.3,3.4-1,4.9c-0.7,1.5-1.7,2.6-3.1,3.5
			c-1.4,0.9-3.1,1.3-5.3,1.3c-2.8,0-5.1-0.7-6.8-2.1c-1.7-1.4-2.7-3.3-2.9-5.7h6.3c0.1,0.6,0.5,1.1,1,1.4c0.5,0.3,1.2,0.5,2,0.5
			c2.2,0,3.3-1.3,3.3-3.9v-2.5c-0.5,0.9-1.2,1.6-2.1,2.1c-0.9,0.5-2,0.8-3.3,0.8c-1.5,0-2.8-0.4-4-1.2c-1.2-0.8-2.1-2-2.8-3.5
			c-0.7-1.5-1-3.3-1-5.3s0.3-3.7,1-5.2s1.6-2.6,2.8-3.4c1.2-0.8,2.5-1.2,4-1.2C276,288.4,277.1,288.7,278,289.2z M279.2,295.4
			c-0.6-0.7-1.4-1.1-2.4-1.1c-1,0-1.8,0.4-2.4,1c-0.6,0.7-1,1.7-1,2.9c0,1.2,0.3,2.2,1,2.9c0.6,0.7,1.4,1.1,2.4,1.1
			c0.9,0,1.7-0.4,2.4-1.1c0.6-0.7,1-1.7,1-3C280.1,297.1,279.8,296.1,279.2,295.4z"/>
		<path class="my-penguin-unlocked-st9" d="M309.1,288.6V308h-6.5v-2.8c-0.5,0.9-1.3,1.6-2.3,2.1s-2.1,0.8-3.3,0.8c-2.1,0-3.8-0.7-5.1-2.2
			s-1.9-3.5-1.9-6v-11.2h6.4V299c0,1.1,0.3,2,0.8,2.6c0.6,0.6,1.3,0.9,2.2,0.9c0.9,0,1.7-0.3,2.2-0.9c0.5-0.6,0.8-1.5,0.8-2.6v-10.4
			H309.1z"/>
		<path class="my-penguin-unlocked-st9" d="M313.2,285.9c-0.7-0.7-1-1.5-1-2.5c0-1,0.3-1.8,1-2.5c0.7-0.7,1.6-1,2.7-1c1.1,0,2,0.3,2.7,1
			c0.7,0.7,1,1.5,1,2.5c0,1-0.3,1.8-1,2.5s-1.6,1-2.7,1C314.8,286.9,313.9,286.5,313.2,285.9z M319.2,288.6V308h-6.4v-19.3H319.2z"
			/>
		<path class="my-penguin-unlocked-st9" d="M339.9,290.7c1.2,1.5,1.9,3.5,1.9,6V308h-6.4v-10.4c0-1.1-0.3-2-0.8-2.6c-0.5-0.6-1.3-0.9-2.2-0.9
			c-1,0-1.7,0.3-2.3,0.9c-0.5,0.6-0.8,1.5-0.8,2.6V308h-6.4v-19.3h6.4v2.8c0.6-0.9,1.3-1.6,2.3-2.1c1-0.5,2.1-0.8,3.3-0.8
			C337,288.5,338.7,289.2,339.9,290.7z"/>
		<path class="my-penguin-unlocked-st9" d="M348.7,307.3c-1.3-0.6-2.3-1.4-3.1-2.4c-0.8-1-1.2-2.2-1.3-3.5h6.2c0.1,0.6,0.4,1.1,0.8,1.4
			c0.5,0.3,1,0.5,1.7,0.5c0.5,0,0.9-0.1,1.2-0.3c0.3-0.2,0.5-0.5,0.5-0.9c0-0.5-0.3-0.8-0.8-1.1c-0.5-0.2-1.3-0.5-2.5-0.8
			c-1.3-0.3-2.4-0.6-3.3-0.9c-0.9-0.3-1.6-0.9-2.3-1.7c-0.6-0.8-1-1.8-1-3.2c0-1.1,0.3-2.2,0.9-3.1c0.6-0.9,1.5-1.7,2.6-2.2
			s2.5-0.8,4.1-0.8c2.4,0,4.3,0.6,5.7,1.9c1.4,1.2,2.2,2.9,2.4,4.9H355c-0.1-0.6-0.4-1.1-0.8-1.4c-0.4-0.3-0.9-0.5-1.6-0.5
			c-0.5,0-0.9,0.1-1.2,0.3c-0.3,0.2-0.4,0.5-0.4,0.9c0,0.5,0.3,0.8,0.8,1c0.5,0.2,1.3,0.5,2.4,0.7c1.3,0.3,2.4,0.6,3.3,1
			s1.7,1,2.3,1.8s1,1.9,1,3.3c0,1.1-0.3,2.1-0.9,3s-1.5,1.6-2.7,2.1c-1.1,0.5-2.5,0.8-4,0.8C351.5,308.2,350,307.9,348.7,307.3z"/>
	</g>
</g>
<g id="Layer_4">
	<g>
		<g id="Shape_2_">
			<g id="Shape_1_">
				<g id="Shape">
					<path class="my-penguin-unlocked-st20" d="M313.2,211.5c0.1-4-0.3-7.9-1-11.8c-4.9-27.2-27.3-47.8-54.9-50.5c-1.4-0.1-2.8-0.2-4.3-0.3
						c-28.3-0.8-53.6,17.8-61.2,45.1c-0.1,0.3-0.2,0.5-0.4,0.7c-5.4,4.7-6.2,12.7-2,18.3c0.1,0.2,0.2,0.4,0.2,0.6
						c0,0.8,0.1,1.5,0.1,2.3c0,0.1,0,0.2,0,0.3c0.1,0.5,0.1,0.9,0.1,1.4c0,0.3,0.1,0.7,0.1,1c0.1,0.3,0.1,0.5,0.2,0.8c0,0,0,0,0,0.1
						c0.1,0.6,0.2,1.3,0.3,1.9c5.9,33.6,37.9,56.1,71.5,50.3C291.3,266.4,312.8,241.2,313.2,211.5L313.2,211.5z M191.1,204.8
						c-0.6-0.7-0.5-1.6-0.4-2.5c0.1-1.1,0.4-2.2,0.8-3.3c0.6-1.4,1.7-2.2,3-2.8c0.1,0,0.3,0,0.4,0c0.7,0.2,1.2,0.7,1.4,1.4
						c0.2,0.9,0.2,1.9,0.1,2.8c0,0.9-0.2,1.8-0.6,2.7c-0.6,1.4-1.7,2.1-3.1,2.4C192.1,205.7,191.5,205.3,191.1,204.8L191.1,204.8z
						 M192.9,217.2L192.9,217.2c2.3-0.8,4.6-1.5,7-2.2c4.1-1.2,8.3-2.4,12.5-3.4c0.5-0.1,1-0.2,1.5-0.1c0.4,0.1,0.7,0.3,0.9,0.5
						c0.7,1.1,0.6,2.6-0.3,3.5c-0.4,0.4-1,0.6-1.5,0.6c-2.3,0.1-4.6,0.2-6.9,0.3c-2.2,0.1-4.3,0.2-6.5,0.4c-2.1,0.1-4.3,0.2-6.4,0.4
						C193.1,217.2,193,217.2,192.9,217.2L192.9,217.2z M264.5,268.2c-0.6,0.2-1.3,0.3-1.9,0.3c-2.7,0.4-5.4,0.8-8.1,1.4
						c-0.8,0.1-1.6,0.2-2.4,0.1c-0.8,0-1.7-0.1-2.7-0.2c-1.4-0.1-3.1-0.2-4.8-0.4c-7.8-1-15.1-3.1-22-7.1c-5.5-3.1-10.4-7-14.7-11.6
						c-4.4-4.7-7.9-10.1-10.5-16c-2-4.6-3.4-9.4-4.3-14.3c-0.2-0.8,0.1-1.1,0.9-1.2c2.8-0.2,5.7-0.4,8.5-0.5
						c2.6-0.2,5.2-0.3,7.8-0.4c1.1-0.1,2.1-0.1,3.2-0.1c1.4,0,2.7-0.8,3.3-2.1c0.8-1.4,0.9-3.1,0.3-4.6c-0.4-1.1-1.2-1.9-2.3-2.3
						c-1-0.4-1.1-0.6-0.9-1.6c0.9-5-0.3-9.2-4-12.7c-3.4-3.3-8.4-4.6-13-3.2c-0.5,0.1-1,0.3-1.5,0.5c-0.3,0.1-0.3,0-0.3-0.2
						c0-0.1,0-0.2,0.1-0.4c1.1-2.3,2.1-4.6,3.2-6.9c0.7-1.6,1.9-2.9,3.4-3.7c2.8-1.5,5.5-3,8.5-4.1c2.3-0.8,4.6-1.4,7-1.6
						c1.1-0.1,2.2-0.3,3.3-0.4c0.7-0.1,1.4-0.1,2.2-0.1c2.2,0,4.4,0.1,6.6,0.3c5,0.5,9.9,1.8,14.6,3.8c2.4,1,4.1,2.7,5.6,4.8
						c2,3,3.6,6.3,4.7,9.8c1.7,4.8,3.1,9.8,4.3,14.8c0.5,2,0.8,3.9,1,5.9c0.1,1-0.1,2.1-0.7,2.9c-3.7,5.6-8.3,10.2-13.5,14.3
						c-2.4,1.8-4.7,3.7-6.7,6c-2.6,2.8-4.5,6.2-5.7,9.9c-0.2,0.6-0.4,1.2-0.5,1.8c-0.2,1.1,0.3,2.2,1.2,2.8c1.2,0.9,2.6,1.5,4.1,1.9
						c1.8,0.5,3.6,0.8,5.4,1c1,0.1,2.1,0.2,3.2,0.4c2.3,0.3,4.5-0.1,6.7-0.3c2.1-0.2,4.2-0.6,6.3-1.2c0.4-0.1,0.7,0.1,0.7,0.5
						c-0.1,3.1,1,5.9,2.4,8.6c0.7,1.3,1.5,2.5,2.2,3.7c0.1,0.2,0.3,0.5,0.4,0.7C265.1,267.7,265,268,264.5,268.2z M310.4,215.3
						c-0.2,2.3-0.6,4.7-1.1,7c-0.8,3.8-1.9,7.5-3.4,11.1c-3.1,7.3-7.6,13.9-13.3,19.4c-3.2,3.1-6.7,5.8-10.4,8.1
						c-2.7,1.6-5.6,3.1-8.5,4.3c-1.9,0.8-3.9,1.4-5.9,2c-0.5,0.2-1,0-1.2-0.5l0,0c-1-1.8-2.1-3.5-3.1-5.3c-1-1.8-1.6-3.9-1.8-6
						c-0.1-0.6-0.2-1.3-0.3-1.9c-0.1-0.4,0-0.7,0.5-0.8c2-0.4,3.6-1.5,5.1-2.9c1.1-0.9,2.1-1.9,3.2-2.8c0.3-0.3,0.6-0.5,0.9-0.7
						c0.2-0.1,0.3-0.4,0.2-0.6c0,0,0,0,0,0c-0.1-0.2-0.2-0.4-0.4-0.6c-0.2-0.4-0.4-0.4-0.8-0.2c-3.7,2.3-7.4,4.6-11,6.9
						c-1.1,0.7-2.3,0.9-3.5,1c-1.5,0.2-2.9,0.4-4.4,0.6c-2.3,0.3-4.6,0.3-6.8,0c-2.1-0.3-4.2-0.6-6.2-1.1c-1.1-0.3-2.2-0.7-3.1-1.3
						c-0.6-0.3-1-0.9-1-1.5c0.2-1.2,0.6-2.3,1.1-3.4c1.2-2.9,3.1-5.4,5.2-7.7c2-2.2,4.3-4.2,6.8-6c4.2-3,7.9-6.7,10.9-10.9
						c2-2.8,4.1-5.6,6.1-8.4c0.4-0.6,0.4-0.8-0.1-1.2c-0.5-0.4-0.9-0.3-1.3,0.2c-0.4,0.5-0.8,1.1-1.3,1.7c-0.2-0.9-0.3-1.7-0.5-2.5
						c-0.7-4-1.8-7.9-3-11.8c-1.1-3.5-2.1-7.1-3.6-10.4c-1.1-2.6-2.4-5.2-4.3-7.4c-1.7-2-3.9-3.7-6.3-4.7c-2.2-0.9-4.6-1.7-6.9-2.2
						c-3.6-0.9-7.2-1.4-10.9-1.6c-5.3-0.4-10.6,0.3-15.7,1.9c-2.5,0.8-4.9,1.9-7.1,3.3c0,0-0.1,0.1-0.1,0.1
						c-0.3,0.2-0.7,0.4-0.9,0.2c-0.2-0.1,0.2-0.4,0.3-0.7c2.3-3.5,5-6.8,8-9.7c3.4-3.4,7.3-6.4,11.5-8.8c6.3-3.6,13.2-6.1,20.4-7.2
						c2.3-0.4,4.6-0.6,6.9-0.7c3-0.1,6,0,9,0.3c3.1,0.3,6.2,0.9,9.2,2c1.4,0.2,2.8,0.5,4.1,1c3.8,1.4,7.5,3.2,11,5.3
						c3.3,2,6.3,4.3,9.1,6.9c8.4,7.8,14.4,17.9,17.2,29.1c0.8,3,1.3,6.1,1.6,9.2c0.1,1.5,0.2,3,0.2,4.5
						C310.6,211.7,310.6,213.5,310.4,215.3z"/>
				</g>
				<g>
					<path class="my-penguin-unlocked-st21" d="M249.4,269.8c-1.4-0.1-3.1-0.2-4.8-0.4c-7.8-1-15.1-3.1-22-7.1c-5.5-3.1-10.4-7-14.7-11.6
						c-4.4-4.7-7.9-10.1-10.5-16c-2-4.6-3.4-9.4-4.3-14.3c-0.2-0.8,0.1-1.1,0.9-1.2c2.8-0.2,5.7-0.4,8.5-0.5
						c2.6-0.2,5.2-0.3,7.8-0.4c1.1-0.1,2.1-0.1,3.2-0.1c1.4,0,2.7-0.8,3.3-2.1c0.8-1.4,0.9-3.1,0.3-4.6c-0.4-1.1-1.2-1.9-2.3-2.3
						c-1-0.4-1.1-0.6-0.9-1.6c0.9-5-0.3-9.2-4-12.7c-3.4-3.3-8.4-4.6-13-3.2c-0.5,0.1-1,0.3-1.5,0.5c-0.3,0.1-0.3,0-0.3-0.2
						c0-0.1,0-0.2,0.1-0.4c1.1-2.3,2.1-4.6,3.2-6.9c0.7-1.6,1.9-2.9,3.4-3.7c2.8-1.5,5.5-3,8.5-4.1c2.3-0.8,4.6-1.4,7-1.6
						c1.1-0.1,2.2-0.3,3.3-0.4c0.7-0.1,1.4-0.1,2.2-0.1c2.2,0,4.4,0.1,6.6,0.3c5,0.5,9.9,1.8,14.6,3.8c2.4,1,4.1,2.7,5.6,4.8
						c2,3,3.6,6.3,4.7,9.8c1.7,4.8,3.1,9.8,4.3,14.8c0.5,2,0.8,3.9,1,5.9c0.1,1-0.1,2.1-0.7,2.9c-3.7,5.6-8.3,10.2-13.5,14.3
						c-2.4,1.8-4.7,3.7-6.7,6c-2.6,2.8-4.5,6.2-5.7,9.9c-0.2,0.6-0.4,1.2-0.5,1.8c-0.2,1.1,0.3,2.2,1.2,2.8c1.2,0.9,2.6,1.5,4.1,1.9
						c1.8,0.5,3.6,0.8,5.4,1c1,0.1,2.1,0.2,3.2,0.4c2.3,0.3,4.5-0.1,6.7-0.3c2.1-0.2,4.2-0.6,6.3-1.2c0.4-0.1,0.7,0.1,0.7,0.5
						c-0.1,3.1,1,5.9,2.4,8.6c0.7,1.3,1.5,2.5,2.2,3.7c0.1,0.2,0.3,0.5,0.4,0.7c0.2,0.5,0.1,0.8-0.4,0.9c-0.6,0.2-1.3,0.3-1.9,0.3
						c-2.7,0.4-5.4,0.8-8.1,1.4c-0.8,0.1-1.6,0.2-2.4,0.1C251.3,269.9,250.4,269.9,249.4,269.8z M237.6,188.1
						c-7.6-0.3-14.1,5.6-14.4,13.2c-0.3,7.6,5.6,14.1,13.2,14.4s14.1-5.6,14.4-13.2c0,0,0,0,0,0c0,0,0-0.1,0-0.1
						C251.1,194.8,245.2,188.4,237.6,188.1z"/>
				</g>
				<g>
					<path class="my-penguin-unlocked-st9" d="M196.3,200.4c0,0.9-0.2,1.8-0.6,2.7c-0.6,1.4-1.7,2.1-3.1,2.4c-0.6,0.2-1.2-0.2-1.6-0.8
						c-0.6-0.7-0.5-1.6-0.4-2.5c0.1-1.1,0.4-2.2,0.8-3.3c0.6-1.4,1.7-2.2,3-2.8c0.1,0,0.3,0,0.4,0c0.7,0.2,1.2,0.7,1.4,1.4
						C196.4,198.6,196.4,199.5,196.3,200.4z"/>
				</g>
				<g id="Eye">
					<path class="my-penguin-unlocked-st22" d="M237.6,188.1c7.6,0.3,13.6,6.8,13.2,14.4c-0.3,7.6-6.8,13.6-14.4,13.2c-7.6-0.3-13.6-6.8-13.2-14.4
						c0,0,0,0,0-0.1C223.6,193.7,230,187.8,237.6,188.1z M234.6,197.4c0.1-0.8,0.1-1.6-0.1-2.4c-0.2-1.1-1.2-1.8-2.2-1.6
						c0,0,0,0,0,0c0,0-0.1,0-0.1,0c-1.6,0.3-2.9,1.3-3.6,2.7c-0.7,1.5-1.1,3.1-1,4.7c0,1.2,0.9,2.2,2.1,2.2c0.2,0,0.3,0,0.5,0
						c0.8-0.1,1.5-0.4,2.3-0.7c0.8-0.4,1.4-1,1.7-1.8C234.4,199.4,234.6,198.4,234.6,197.4L234.6,197.4z"/>
				</g>
				<g>
					<path class="my-penguin-unlocked-st9" d="M234.6,197.4c0,1-0.2,2-0.6,3c-0.3,0.8-0.9,1.4-1.7,1.8c-0.7,0.4-1.5,0.6-2.3,0.7
						c-1.2,0.2-2.3-0.5-2.6-1.7c0-0.2,0-0.3,0-0.5c-0.1-1.6,0.3-3.3,1-4.7c0.7-1.4,2.1-2.4,3.6-2.7c1-0.3,2.1,0.4,2.3,1.4l0,0
						c0,0,0,0.1,0,0.1C234.7,195.8,234.7,196.6,234.6,197.4z"/>
				</g>
			</g>
		</g>
		<g id="Banner-Avatar">
			<path class="my-penguin-unlocked-st23" d="M214.8,212c0.7,1.1,0.6,2.6-0.3,3.5c-0.4,0.4-1,0.6-1.5,0.6c-2.3,0.1-4.6,0.2-6.8,0.3
				c-2.2,0.1-4.3,0.2-6.5,0.4c-2.1,0.1-4.3,0.2-6.4,0.4c-0.1,0-0.2,0-0.2,0l0-0.1c2.3-0.7,4.6-1.4,7-2.1c4.1-1.2,8.3-2.4,12.5-3.4
				c0.5-0.1,1-0.2,1.5-0.1C214.2,211.5,214.6,211.7,214.8,212z"/>
			<path class="my-penguin-unlocked-st23" d="M310.4,215.3c-0.2,2.3-0.6,4.7-1.1,7c-0.8,3.8-1.9,7.5-3.4,11.1c-3.1,7.3-7.6,13.9-13.3,19.4
				c-3.2,3.1-6.7,5.8-10.4,8.1c-2.7,1.6-5.6,3.1-8.5,4.3c-1.9,0.8-3.9,1.4-5.9,2c-0.5,0.2-1,0-1.2-0.5h0c-1-1.8-2.1-3.5-3.1-5.3
				c-1-1.8-1.6-3.9-1.8-6c-0.1-0.6-0.2-1.3-0.3-1.9c-0.1-0.4,0-0.7,0.5-0.8c2-0.4,3.6-1.6,5.1-2.9c1.1-0.9,2.1-1.9,3.2-2.8
				c0.3-0.3,0.6-0.5,0.9-0.7c0.2-0.1,0.3-0.4,0.2-0.6c0,0,0,0,0,0c-0.1-0.2-0.2-0.4-0.4-0.6c-0.2-0.4-0.4-0.4-0.8-0.2
				c-3.7,2.3-7.4,4.6-11,6.8c-1.1,0.7-2.3,0.9-3.5,1c-1.5,0.2-2.9,0.4-4.4,0.6c-2.3,0.3-4.6,0.3-6.8,0c-2.1-0.3-4.2-0.6-6.3-1.1
				c-1.1-0.3-2.2-0.7-3.1-1.3c-0.6-0.3-1-0.9-1-1.5c0.2-1.2,0.6-2.3,1.1-3.4c1.2-2.9,3.1-5.4,5.2-7.7c2-2.2,4.3-4.2,6.8-6
				c4.2-3,7.8-6.7,10.9-10.9c2-2.8,4.1-5.6,6.1-8.4c0.4-0.6,0.4-0.8-0.1-1.2c-0.5-0.4-0.9-0.3-1.3,0.2c-0.4,0.5-0.8,1.1-1.3,1.7
				c-0.2-0.9-0.3-1.7-0.5-2.4c-0.7-4-1.8-7.9-3-11.8c-1.1-3.5-2.1-7.1-3.6-10.4c-1.1-2.6-2.4-5.2-4.3-7.4c-1.7-2-3.8-3.7-6.3-4.7
				c-2.2-0.9-4.6-1.7-6.9-2.2c-3.6-0.9-7.2-1.4-10.9-1.6c-5.3-0.4-10.7,0.3-15.7,1.9c-2.5,0.8-4.9,1.9-7.1,3.3c0,0-0.1,0.1-0.1,0.1
				c-0.3,0.2-0.7,0.4-0.9,0.2c-0.2-0.1,0.2-0.4,0.3-0.7c2.3-3.5,5-6.8,8-9.7c3.4-3.4,7.3-6.4,11.5-8.8c6.3-3.6,13.2-6.1,20.4-7.2
				c2.3-0.4,4.6-0.6,6.9-0.7c3-0.1,6,0,8.9,0.3c3.1,0.3,6.2,0.9,9.2,2c1.4,0.2,2.8,0.5,4.1,1c3.8,1.4,7.5,3.2,11,5.3
				c3.3,2,6.3,4.3,9.1,6.9c8.4,7.8,14.4,17.9,17.2,29.1c0.8,3,1.3,6.1,1.6,9.2c0.1,1.5,0.2,3,0.2,4.5
				C310.6,211.7,310.6,213.5,310.4,215.3z"/>
		</g>
		<g id="Opacity" class="my-penguin-unlocked-st24">
			<path d="M234,249.4c0.6,0.2,1.2,0.3,1.8,0.4c1.8,0.3,3.6,0.5,5.4,0.5c1.7,0,3.5,0,5.2-0.1c2.7-0.2,5.4-0.7,8.1-1.4
				c3.6-1,7.2-2.4,10.4-4.2c2.2-1.2,4.2-2.6,6.2-4.1c1.4-1.1,2.7-2.2,3.9-3.4c5.3-5.1,9.4-11.3,12.2-18.1c1-2.6,1.9-5.3,2.5-8
				c0.4-1.7,0.7-3.3,0.9-5c0.3-2.2,0.5-4.4,0.5-6.7c0-1.8,0-3.6-0.2-5.4c-0.3-3.6-1-7.1-1.9-10.5c-0.9-3.1-2.1-6.2-3.6-9.1
				c-1.2-2.4-2.6-4.7-4.1-6.8c-0.6-0.8-1.2-1.6-1.9-2.4c-1.1-1.3-2.2-2.6-3.4-3.8c-1.2-1.2-2.6-2.4-3.9-3.5c-1.5-1.2-3-2.3-4.5-3.4
				c-0.1-0.1-0.3-0.2-0.3-0.3c1.4,0.2,2.8,0.5,4.1,1c3.8,1.4,7.5,3.2,11,5.3c3.3,2,6.3,4.3,9.1,6.9c8.4,7.8,14.4,17.9,17.2,29.1
				c0.8,3,1.3,6.1,1.6,9.2c0.1,1.5,0.2,3,0.2,4.5c0,1.8,0,3.7-0.2,5.5c-0.2,2.3-0.6,4.7-1.1,7c-0.8,3.8-1.9,7.5-3.4,11.1
				c-3.1,7.3-7.6,13.9-13.3,19.4c-3.2,3.1-6.7,5.8-10.4,8.1c-2.7,1.6-5.6,3.1-8.5,4.3c-1.9,0.8-3.9,1.4-5.9,2c-0.5,0.2-1,0-1.2-0.5
				l0,0c-1-1.8-2.1-3.5-3.1-5.3c-1-1.8-1.6-3.9-1.8-6c-0.1-0.6-0.2-1.3-0.3-1.9c-0.1-0.4,0-0.7,0.5-0.8c2-0.4,3.6-1.5,5.1-2.9
				c1.1-0.9,2.1-1.9,3.2-2.8c0.3-0.3,0.6-0.5,0.9-0.7c0.2-0.1,0.3-0.4,0.2-0.6c0,0,0,0,0,0c-0.1-0.2-0.2-0.4-0.4-0.6
				c-0.2-0.4-0.4-0.4-0.8-0.2c-3.7,2.3-7.4,4.6-11,6.9c-1.1,0.7-2.3,0.9-3.5,1c-1.5,0.2-2.9,0.4-4.4,0.6c-2.3,0.3-4.6,0.3-6.8,0
				c-2.1-0.3-4.2-0.6-6.2-1.1c-1.1-0.3-2.2-0.7-3.1-1.3C234.5,250.6,234.1,250,234,249.4z"/>
			<path d="M270.6,208.9c-0.6,0-1.2-0.1-1.8-0.1c-0.2,0-0.3,0-0.5-0.1c-0.6-0.2-0.7-0.6-0.3-1.2c1.1-1.4,2.1-2.8,3.2-4.3
				c1.6-2.2,3.3-4.3,4.9-6.5c0.1-0.1,0.2-0.3,0.3-0.4c0.3-0.3,0.8-0.4,1.1-0.1c0.1,0.1,0.1,0.1,0.2,0.2c0.3,0.4,0.5,0.8,0.7,1.2
				c0.4,0.6,0.7,1.3,1.1,1.9c0.4,0.7,0.4,1.5-0.1,2.1c-1.6,2.2-3.3,4.3-5,6.4c-0.5,0.6-1.2,0.9-2,0.9
				C271.8,209.1,271.2,209,270.6,208.9z"/>
			<path d="M279.8,209.5c-1.1-0.1-2-0.1-2.9-0.2c-0.1,0-0.2,0-0.3,0c-0.8-0.2-1.2-0.7-0.6-1.5c1.1-1.5,2.1-3,3.2-4.4
				c0.5-0.7,1.3-0.7,1.7,0.1c0.9,1.6,1.8,3.3,2.6,4.9c0.4,0.7,0.1,1.1-0.7,1.2C281.8,209.7,280.7,209.5,279.8,209.5z"/>
		</g>
	</g>
	<g>
	</g>
	<g>
	</g>
	<g>
	</g>
	<g>
	</g>
	<g>
	</g>
	<g>
	</g>
</g>
</svg>
