<?xml version="1.0" encoding="utf-8"?>
<!-- Generator: Adobe Illustrator 25.2.1, SVG Export Plug-In . SVG Version: 6.00 Build 0)  -->
<svg version="1.1" id="Layer_1" xmlns="http://www.w3.org/2000/svg" xmlns:xlink="http://www.w3.org/1999/xlink" x="0px" y="0px"
	 viewBox="0 0 4176 1760.6" style="enable-background:new 0 0 4176 1760.6;" xml:space="preserve">
<style type="text/css">
	.st0{fill:url(#SVGID_1_);}
	.st1{fill:url(#SVGID_2_);}
	.st2{fill:url(#SVGID_3_);}
	.st3{fill:#FFFFFF;}
	.st4{fill:url(#SVGID_4_);}
	.st5{fill:url(#SVGID_5_);}
	.st6{fill:#CC9A1D;}
	.st7{fill:#FFC62A;}
	.st8{fill:#FEFEFE;}
	.st9{opacity:7.000000e-02;}
	.st10{opacity:0.2;}
	.st11{opacity:0.26;}
	.st12{fill:#4E277C;}
	.st13{fill:#5C2B8A;}
	.st14{fill:url(#SVGID_6_);}
	.st15{opacity:0.18;}
	.st16{opacity:0.18;fill:#341E68;enable-background:new    ;}
	.st17{fill:url(#SVGID_7_);}
	.st18{fill:url(#SVGID_8_);}
	.st19{opacity:0.17;fill:#FFFFFF;enable-background:new    ;}
	.st20{fill:#F9EEDA;}
</style>
<g id="Layer_5">
</g>
<g id="Layer_3">
	<g id="Layer_10">
	</g>
</g>
<g id="Layer_18">
</g>
<g id="Layer_4">
</g>
<g id="Layer_15">
	<g>
		
			<linearGradient id="SVGID_1_" gradientUnits="userSpaceOnUse" x1="4085.7195" y1="1507.7158" x2="4109.2534" y2="-1028.0809" gradientTransform="matrix(-1 0 0 -1 5983.1592 773.274)">
			<stop  offset="0.162" style="stop-color:#EC3E3F"/>
			<stop  offset="0.4553" style="stop-color:#EA3F41"/>
			<stop  offset="0.5609" style="stop-color:#E44148"/>
			<stop  offset="0.6362" style="stop-color:#D84453"/>
			<stop  offset="0.697" style="stop-color:#C84964"/>
			<stop  offset="0.7486" style="stop-color:#B4507A"/>
			<stop  offset="0.7581" style="stop-color:#AF517F"/>
		</linearGradient>
		<path class="st0" d="M1760.6,350.7c-0.2,22,21.5,29.1,48.4,66.6c23.9,33.5,18,43.5,37.1,78.4c38.5,70.6,114.6,123.8,134,112.5
			c5.4-3.1,5.4-10.9,5.7-15.6c3.5-112.7,52.7-161.1,11.3-222.1c-13-18.9-28.1-29.5-45.6-41.8c-26.7-18.7-73.5-51.3-123.8-39.2
			C1795.3,297.1,1761,323.3,1760.6,350.7z"/>
		
			<linearGradient id="SVGID_2_" gradientUnits="userSpaceOnUse" x1="3423.1101" y1="998.8587" x2="3367.9602" y2="-1026.6322" gradientTransform="matrix(-1 0 0 -1 5983.1592 773.274)">
			<stop  offset="0.162" style="stop-color:#EC3E3F"/>
			<stop  offset="0.4553" style="stop-color:#EA3F41"/>
			<stop  offset="0.5609" style="stop-color:#E44148"/>
			<stop  offset="0.6362" style="stop-color:#D84453"/>
			<stop  offset="0.697" style="stop-color:#C84964"/>
			<stop  offset="0.7486" style="stop-color:#B4507A"/>
			<stop  offset="0.7581" style="stop-color:#AF517F"/>
		</linearGradient>
		<path class="st1" d="M2705.1,1109.3c12.8-2.6,25-101.4,32.1-111.5c3.8-5.4,11.8-41.6,12.3-44.7c13.9-29.8-26.7-7.3-22.2-24.8
			c1.9,0.7,39.7,22.2,39.7,22.2s23.9-1.7,49.6-14.9c0,0-68.7,46.5,0,0c79.9-54.1,22.4-187.3,24.8-202.9c1.2-8,4-7.6-5-22.2
			l-7.3-66.9c0,0-8.5-66.1-29.8-79.1c-17.2-10.6-7.3-65-6.6-85.5c16.8-98.8-5.2-197.7-61.9-280c-2.1-3.1-4.3-6.1-6.6-9.2
			c-61.4-83.9-152.1-138-255.1-152.1l-16.5-2.4h-0.2h-0.2h-0.2h-0.2h-0.2h-0.2l0,0h-0.2c-53.2-7.1-105.1-2.8-153.6,10.9
			c1.7,0.2,3.3,0.5,5.2,0.7l14.2,1.9c77,10.6,146,43.9,199.2,96.4c52,51.3,111.5,146.5,99.5,308.5v0.7c-1.4,20.1-77,452.2-108,632.7
			C2554.6,1093.7,2658.1,1119.2,2705.1,1109.3z"/>
		
			<linearGradient id="SVGID_3_" gradientUnits="userSpaceOnUse" x1="1571.4047" y1="1036.8202" x2="1844.1571" y2="-305.4086" gradientTransform="matrix(0.9998 1.897453e-02 1.897453e-02 -0.9998 512.4135 719.1257)">
			<stop  offset="0" style="stop-color:#FFFFFF"/>
			<stop  offset="0.4437" style="stop-color:#FDFFFF"/>
			<stop  offset="0.6035" style="stop-color:#F6FDFF"/>
			<stop  offset="0.7174" style="stop-color:#EBFAFF"/>
			<stop  offset="0.8095" style="stop-color:#DAF6FE"/>
			<stop  offset="0.8883" style="stop-color:#C4F1FE"/>
			<stop  offset="0.9569" style="stop-color:#A9EAFD"/>
			<stop  offset="1" style="stop-color:#94E5FD"/>
		</linearGradient>
		<path class="st2" d="M2230.5,72.2c-108.4,54.3-189.2,159.2-207.2,288.2l-68,486.9c-2.6,18.7,11.3,151.4,30,153.8l546.7,78.4
			l-2.4-118.8c52-301.7,56.7-494.5,57.6-508.2v-0.7c11.3-151.4-43-239.6-90.7-286.8c-48.9-48.2-112.2-78.9-183.1-88.8l-14.2-1.9
			C2276.3,71.2,2253.1,70.5,2230.5,72.2z"/>
		<g>
			<g>
				<circle class="st3" cx="2385.7" cy="337.7" r="37.3"/>
			</g>
		</g>
		<path d="M2507.3,463.6c-29.5-20.1-67.6-34.3-110.1-39c-28.1-3.1-55-1.9-79.9,2.8c-8.7-19.4-12.3-41.6-9.2-64
			c9-64.5,68.3-109.4,132.8-100.4c64.5,9,109.4,68.3,100.4,132.8C2537.8,422.5,2525.3,446.1,2507.3,463.6z"/>
		
			<linearGradient id="SVGID_4_" gradientUnits="userSpaceOnUse" x1="2317.3596" y1="780.1757" x2="1935.3241" y2="548.3362" gradientTransform="matrix(0.9998 1.760726e-02 1.760726e-02 -0.9998 512.4728 722.7443)">
			<stop  offset="0" style="stop-color:#F878A3"/>
			<stop  offset="3.790116e-02" style="stop-color:#F984AB;stop-opacity:0.9621"/>
			<stop  offset="0.1744" style="stop-color:#FBA9C5;stop-opacity:0.8256"/>
			<stop  offset="0.3171" style="stop-color:#FCC8DA;stop-opacity:0.6829"/>
			<stop  offset="0.4655" style="stop-color:#FDE1EA;stop-opacity:0.5345"/>
			<stop  offset="0.6219" style="stop-color:#FEF2F6;stop-opacity:0.3781"/>
			<stop  offset="0.7918" style="stop-color:#FFFCFD;stop-opacity:0.2082"/>
			<stop  offset="1" style="stop-color:#FFFFFF;stop-opacity:0"/>
		</linearGradient>
		<path class="st4" d="M2757.5,244.4c0-0.2,0-0.5,0-0.5c-7.8-15.4-16.8-30.5-26.7-44.9c-2.1-3.1-4.3-6.1-6.6-9.2
			c-61.4-83.9-152.1-138-255.1-152.1l-16.5-2.4h-0.2h-0.2h-0.2h-0.2h-0.2h-0.2l0,0h-0.2c-53.2-7.1-105.1-2.8-153.6,10.9
			c1.7,0.2,3.3,0.5,5.2,0.7l14.2,1.9c77,10.6,146,43.9,199.2,96.4c39.5,39,83.2,103.2,96.6,202.7
			C2657.6,358.5,2747.4,306.1,2757.5,244.4z"/>
		<path d="M2828.9,604.9c-5-20.8-10.2-42.5-14.6-63.6l9.7-56.9c0.7-4.3,1.4-8.7,1.9-13c14.6-106.5-12.3-213.3-76.1-300.3
			c-66.6-91-164.9-149.5-276.4-164.9L2457,3.9c-0.2,0-0.2,0-0.5,0l-1.4-0.2c-81.7-10.9-163.7,2.6-237.4,39l-53.4,31.7l-0.2,0.2
			c-94,65.7-157.1,168.4-172.7,281.8L1924,962.1c-2.4,17.2,2.1,34.7,12.8,48.7c10.6,13.9,26,23.2,43.5,25.5l688.9,95.2
			c3.1,0.5,6.1,0.7,9.2,0.7c31.7,0,59.1-22.4,64.5-54.6l11.3-112.5c10.9,5.2,22.2,7.6,33.8,7.6c19.1,0,37.8-7.1,51.7-21
			c19.8-19.8,22.2-45.8,24.3-66.9c0.2-2.8,0.5-5.7,0.9-8.5v-0.9C2870.9,781.9,2849.4,691.8,2828.9,604.9z M1985,1001.1
			c-16.5-2.4-28.1-17.5-25.8-34c10.9-79.1,22-189.7,32.8-296.7c10.6-107,22-217.3,32.8-296.5l1.7-12.8c4.5-33.8,13.9-66.9,27.6-98.3
			c35-80.6,97.8-146.9,176.7-186.9c22.4-1.7,44.9-0.9,67.3,2.1l14.2,1.9c70.2,9.7,133,39.9,181.2,87.6
			c47.2,46.5,101.1,133.5,90,283.7v0.7c-1.4,19.6-33.1,323.7-83.6,620.4L1985,1001.1z M2827.7,872.3c-0.2,2.8-0.5,5.7-0.9,8.7
			c-1.7,18.2-3.3,33.8-13.5,44.2c-16.1,16.1-39.7,11.6-53.9-0.9c-43.7-38.3-93.1-131.1-112-168.9c-4.5-9-15.4-12.8-24.6-8.5l0,0
			c-9.4,4.5-13.2,15.8-8.7,25c18.7,37.3,65.7,126.6,106.8,167l-13,132.3c-2.8,16.1-17.7,26.9-34,24.8l-139.2-19.1
			c30.9-182.1,82.5-603.1,83.9-622.5v-0.7c12-163.7-48-259.6-100.4-311.6c-53.9-52.9-123.3-86.7-201.3-97.6h-0.5
			c43.9-10.2,88.8-12,133.7-6.1l0.7-3.5l-0.2,3.8h0.5l0,0l0.7-3.8l0,0l-0.2,3.8l17,2.4c102.1,14.2,191.8,67.6,252.8,150.7
			c2.1,3.1,4.3,6.1,6.4,9c56,81.3,77.7,179.8,61.2,277.4l-10.9,71.8c4.7,21,9.7,42.5,14.6,63.1
			C2812.8,697.8,2833.4,784.7,2827.7,872.3z"/>
		<g>
			<g>
				<path d="M1753.5,305.8c13.2-25.8,43.9-34.5,68.7-34c0.2,0,0.7,0,0.9,0c21.5,0.7,45.4,6.4,73.2,17.5
					c20.3,8.3,40.9,19.1,66.6,35.4c11.1,7.1,22.4,14.4,33.5,21.5c3.5,2.4,7.1,4.5,10.4,6.9c-2.4,10.2-5,20.3-7.3,30.5
					c-6.4-4.3-13-8.3-19.4-12.5c-10.9-7.1-22.2-14.4-33.3-21.3c-24.1-15.4-43.2-25.5-61.7-32.8c-24.6-9.9-45.4-14.9-63.1-15.4
					c-0.2,0-0.5,0-0.7,0c-16.3-0.2-35.4,5.2-42.1,18c-6.6,13.2,0,31.4,7.6,47.7c17.7,38.3,42.8,78,78.7,125.2
					c31.7,41.6,66.9,81.3,97.3,115.1c0.7,0.7,1.4,1.4,2.1,2.4c-2.8,11.3-5.9,22.7-8.5,34c-0.9-0.7-1.9-1.4-2.6-2.4
					c-4.3-4.7-8.5-9.4-12.8-14.2c-30.9-34.3-66.4-74.4-98.8-116.9c-37.1-48.9-63.3-90.2-82-130.6
					C1750.2,356.8,1741.2,330.4,1753.5,305.8z"/>
			</g>
		</g>
		<g>
			<g>
				<circle class="st3" cx="2463.6" cy="355.2" r="38.3"/>
			</g>
		</g>
		<path d="M2198.1,412.6c-29.5-20.1-67.6-34.3-110.1-39c-28.1-3.1-55-1.9-79.9,2.8c-8.7-19.4-12.3-41.6-9.2-64
			c9-64.5,68.3-109.4,132.8-100.4s109.4,68.3,100.4,132.8C2228.6,371.5,2216,394.9,2198.1,412.6z"/>
		<g>
			<g>
				<circle class="st3" cx="2154.6" cy="303.9" r="38.3"/>
			</g>
		</g>
		<g>
			<path d="M2185.3,466c-62.6-32.1-76.3-99.9-78.4-113.2L2101,316l25.5,27.4c17.2,18.7,39,33.3,62.6,42.1
				c37.3,13.9,71.1,10.9,92.8,5.9c4.3-0.9,8.5,0.5,11.3,3.5c2.8,3.1,4,7.6,2.6,11.6l-20.3,65.9c-1.4,4.7-5.4,7.8-10.4,8.3
				c-4.3,0.5-9,0.7-14.2,0.7C2232.6,481.6,2209.2,478,2185.3,466z M2269.2,416.6c-23.9,3.1-54.6,2.4-88.1-9.9
				c-14.4-5.4-28.1-12.5-40.9-21.3c9.4,20.8,26,45.4,55.5,60.5c22.2,11.3,44.2,13.5,60.2,13L2269.2,416.6z M2286.9,413.3
				L2286.9,413.3L2286.9,413.3z M2274.4,399.8L2274.4,399.8L2274.4,399.8L2274.4,399.8z"/>
		</g>
		
			<linearGradient id="SVGID_5_" gradientUnits="userSpaceOnUse" x1="3765.5188" y1="489.5749" x2="3824.9937" y2="-49.9466" gradientTransform="matrix(-1 0 0 -1 5983.1592 773.274)">
			<stop  offset="0.162" style="stop-color:#EC3E3F"/>
			<stop  offset="0.4553" style="stop-color:#EA3F41"/>
			<stop  offset="0.5609" style="stop-color:#E44148"/>
			<stop  offset="0.6362" style="stop-color:#D84453"/>
			<stop  offset="0.697" style="stop-color:#C84964"/>
			<stop  offset="0.7486" style="stop-color:#B4507A"/>
			<stop  offset="0.7581" style="stop-color:#AF517F"/>
		</linearGradient>
		<path class="st5" d="M2269.2,416.6c-23.9,3.1-54.6,2.4-88.1-9.9c-14.4-5.4-28.1-12.5-40.9-21.3c9.4,20.8,26,45.4,55.5,60.5
			c22.2,11.3,44.2,13.5,60.2,13L2269.2,416.6z"/>
		<g>
			<g>
				<g>
					
						<rect x="1719.3" y="394.2" transform="matrix(0.2276 -0.9738 0.9738 0.2276 938.444 2017.0729)" class="st6" width="42.8" height="45.6"/>
				</g>
				<g>
					<path class="st7" d="M1792.2,394.6l-87.9-20.6c-7.3-1.7-12-9.2-10.2-16.5l3.3-13.7c1.7-7.3,9.2-12,16.5-10.2l87.9,20.6
						c7.3,1.7,12,9.2,10.2,16.5l-3.3,13.7C1807.1,391.6,1799.8,396.3,1792.2,394.6z"/>
				</g>
			</g>
			<g>
				<g>
					<path d="M1733.6,398.4l18.7,4.5l-8.5,36.6l-18.7-4.5L1733.6,398.4 M1716.4,370.8l-5.2,22.4l-8.5,36.6l-5.2,22.4l22.4,5.2
						l18.7,4.5l22.4,5.2l5.2-22.4l8.5-36.6l5.2-22.4l-22.4-5.2l-18.7-4.5L1716.4,370.8L1716.4,370.8z"/>
				</g>
				<g>
					<path d="M1791.7,405.8c-1.7,0-3.5-0.2-5.2-0.7l-82-19.1c-7.3-1.7-13.7-6.1-17.7-12.8c-4-6.4-5.2-13.9-3.5-21.5l1.9-7.8
						c3.5-15.1,18.9-24.8,34-21.3l82,19.1c7.3,1.7,13.7,6.1,17.7,12.8c4,6.4,5.2,13.9,3.5,21.5l-1.9,7.8
						C1817.5,397.5,1805.2,406.5,1791.7,405.8z M1713.3,345.3c-2.4,0-4.7,1.7-5.4,4l-1.9,7.8c-0.5,1.9,0.2,3.3,0.7,4
						c0.5,0.7,1.4,1.9,3.3,2.4l82,19.1l0,0c1.9,0.5,3.3-0.2,4-0.7c0.7-0.5,1.9-1.4,2.4-3.3l1.9-7.8c0.5-1.9-0.2-3.3-0.7-4
						c-0.5-0.7-1.4-1.9-3.3-2.4l-82-19.1C1714,345.3,1713.5,345.3,1713.3,345.3z"/>
				</g>
			</g>
			<g>
				<circle class="st8" cx="1663.7" cy="724.9" r="227.7"/>
			</g>
			<g class="st9">
				<path d="M1588.3,578.9c102.3-52.7,225.9-20.6,290.3,70.9c-3.5-9.9-7.6-19.6-12.5-29.1c-57.6-111.7-194.9-155.7-306.9-98
					c-112,57.6-155.7,194.9-98,306.9c5,9.4,10.4,18.7,16.5,27.2C1440.7,750.9,1486,631.6,1588.3,578.9z"/>
			</g>
			<g>
				<path d="M1700.6,582.9c3.5,0.9,7.1-1.2,8-4.7l9-34.3c0.9-3.5-1.2-7.1-4.7-8c-3.5-0.9-7.1,1.2-8,4.7l-9,34.3
					C1694.9,578.4,1697,582,1700.6,582.9z"/>
				<path d="M1702.7,588.8c-1.2,0-2.4,0-3.8-0.5c-6.6-1.7-10.6-8.5-8.7-15.1l9-34.3c0.9-3.1,2.8-5.9,5.7-7.6
					c2.8-1.7,6.1-2.1,9.4-1.4c3.1,0.9,5.9,2.8,7.6,5.7c1.7,2.8,2.1,6.1,1.4,9.4l-9,34.3C1712.6,584.8,1707.9,588.6,1702.7,588.8z
					 M1710.9,541.4c-0.2,0-0.2,0-0.2,0c-0.2,0-0.2,0.2-0.5,0.5l-9,34.3c0,0.5,0.2,0.9,0.5,0.9c0.5,0,0.9-0.2,0.9-0.5l9-34.3
					c0-0.2,0-0.5,0-0.5c0-0.2-0.2-0.2-0.5-0.5C1711.2,541.4,1710.9,541.4,1710.9,541.4z"/>
			</g>
			<g>
				<path d="M1621.4,899.3c3.5,0.9,7.1-1.2,8-4.7l9-34.3c0.9-3.5-1.2-7.1-4.7-8c-3.5-0.9-7.1,1.2-8,4.7l-9,34.3
					C1616,894.8,1618.1,898.3,1621.4,899.3z"/>
				<path d="M1623.8,905.2c-1.2,0-2.4,0-3.8-0.5c-6.6-1.7-10.6-8.5-8.7-15.1l9-34.3c0.9-3.1,2.8-5.9,5.7-7.6
					c2.8-1.7,6.1-2.1,9.4-1.4c3.1,0.9,5.9,2.8,7.6,5.7c1.7,2.8,2.1,6.1,1.4,9.4l-9,34.3C1633.7,901.2,1629,904.9,1623.8,905.2z
					 M1632,857.7c-0.2,0-0.2,0-0.2,0c-0.2,0-0.2,0.2-0.5,0.5l-9,34.3c0,0.5,0.2,0.9,0.5,0.9c0.5,0,0.9-0.2,0.9-0.5l9-34.3
					c0-0.2,0-0.5,0-0.5c0-0.2-0.2-0.2-0.5-0.5C1632.3,857.7,1632,857.7,1632,857.7z"/>
			</g>
			<g>
				<path d="M1802.4,748.8c-0.9,3.5,1.2,7.1,4.7,7.8l34.5,8.3c3.5,0.9,7.1-1.2,7.8-4.7c0.9-3.5-1.2-7.1-4.7-7.8l-34.5-8.3
					C1806.6,743.1,1803.1,745.5,1802.4,748.8z"/>
				<path d="M1796.2,751.1c0-1.2,0-2.4,0.2-3.8c1.7-6.6,8.3-10.6,14.9-9l34.5,8.3c3.3,0.7,5.9,2.8,7.6,5.7c1.7,2.8,2.1,6.1,1.4,9.2
					c-0.7,3.3-2.8,5.9-5.7,7.6c-2.8,1.7-6.1,2.1-9.2,1.4l-34.5-8.3C1800.2,761.1,1796.7,756.3,1796.2,751.1z M1843.7,758.7
					c0-0.2,0-0.2,0-0.2c0-0.2-0.2-0.2-0.5-0.2l-34.5-8.3c-0.5,0-0.9,0.2-0.9,0.5c0,0.5,0.2,0.9,0.5,0.9l34.5,8.3c0.2,0,0.5,0,0.5,0
					c0.2,0,0.2-0.2,0.2-0.5C1843.7,758.9,1843.7,758.9,1843.7,758.7z"/>
			</g>
			<g>
				<path d="M1484.9,674.6c-0.9,3.5,1.2,7.1,4.7,7.8l34.5,8.3c3.5,0.9,7.1-1.2,7.8-4.7c0.7-3.5-1.2-7.1-4.7-7.8l-34.5-8.3
					C1489.1,668.9,1485.6,671.1,1484.9,674.6z"/>
				<path d="M1479,677c0-1.2,0-2.4,0.2-3.8c1.7-6.6,8.3-10.6,14.9-9l34.5,8.3c3.3,0.7,5.9,2.8,7.6,5.7c1.7,2.8,2.1,6.1,1.4,9.2
					c-0.7,3.3-2.8,5.9-5.7,7.6c-2.8,1.7-6.1,2.1-9.2,1.4l-34.5-8.3C1483,686.9,1479.2,682.2,1479,677z M1526.4,684.5
					c0-0.2,0-0.2,0-0.2c0-0.2-0.2-0.2-0.5-0.2l-34.5-8.3c-0.5,0-0.9,0.2-0.9,0.5c0,0.5,0.2,0.9,0.5,0.9l34.5,8.3c0.2,0,0.5,0,0.5,0
					c0.2,0,0.2-0.2,0.2-0.5C1526.4,684.8,1526.4,684.5,1526.4,684.5z"/>
			</g>
			<g>
				<path d="M1785.1,644.4c1.9,3.1,5.9,4,9,2.1l30.2-18.4c3.1-1.9,4-5.9,2.1-9c-1.9-3.1-5.9-4-9-2.1l-30.2,18.4
					C1784.2,637.3,1783.2,641.3,1785.1,644.4z"/>
				<path d="M1782.5,650.3c-0.9-0.7-1.7-1.7-2.4-2.8c-3.5-5.9-1.7-13.5,4.3-17l30.2-18.4c2.8-1.7,6.1-2.1,9.2-1.4
					c3.3,0.7,5.9,2.8,7.6,5.7c1.7,2.8,2.1,6.1,1.4,9.2c-0.7,3.3-2.8,5.9-5.7,7.6l-30.2,18.4C1792.2,654.5,1786.3,653.8,1782.5,650.3
					z M1821.5,622.2l-0.2-0.2c-0.2,0-0.5,0-0.5,0l-30.2,18.4c-0.5,0.2-0.5,0.7-0.2,1.2c0.2,0.5,0.7,0.5,1.2,0.2l30.2-18.4
					c0.2-0.2,0.2-0.2,0.2-0.5C1821.7,622.9,1821.7,622.6,1821.5,622.2C1821.5,622.4,1821.5,622.2,1821.5,622.2z"/>
			</g>
			<g>
				<path d="M1507.5,815.6c1.9,3.1,5.9,4,9,2.1l30.2-18.4c3.1-1.9,4-5.9,2.1-9c-1.9-3.1-5.9-4-9-2.1l-30.2,18.4
					C1506.8,808.6,1505.6,812.6,1507.5,815.6z"/>
				<path d="M1504.9,821.5c-0.9-0.7-1.7-1.7-2.4-2.8c-3.5-5.9-1.7-13.5,4.3-17l30.2-18.4c2.8-1.7,6.1-2.1,9.2-1.4
					c3.3,0.7,5.9,2.8,7.6,5.7c1.7,2.8,2.1,6.1,1.4,9.2s-2.8,5.9-5.7,7.6l-30.2,18.4C1514.9,825.8,1509,825.1,1504.9,821.5z
					 M1544.2,793.4l-0.2-0.2c-0.2,0-0.5,0-0.5,0l-30.2,18.4c-0.5,0.2-0.5,0.7-0.2,1.2c0.2,0.5,0.7,0.5,1.2,0.2l30.2-18.4
					c0.2-0.2,0.2-0.2,0.2-0.5C1544.4,793.9,1544.4,793.9,1544.2,793.4L1544.2,793.4z"/>
			</g>
			<g>
				<path d="M1597.3,597.6c-3.1,1.9-7.1,0.9-9-2.4l-18.2-30.5c-1.9-3.1-0.9-7.1,2.4-9c3.1-1.9,7.1-0.9,9,2.4l18.2,30.5
					C1601.3,591.7,1600.4,595.7,1597.3,597.6z"/>
				<path d="M1583.4,598.3l-18.2-30.5c-1.7-2.8-2.1-6.1-1.4-9.2c0.7-3.3,2.8-5.9,5.7-7.6c2.8-1.7,6.1-2.1,9.2-1.4
					c3.3,0.7,5.9,2.8,7.6,5.7l18.2,30.5c3.5,5.9,1.7,13.5-4.3,16.8c-1.2,0.7-2.4,1.2-3.5,1.4C1591.6,605.1,1586.2,603,1583.4,598.3z
					 M1575.3,561c-0.2,0.2-0.2,0.2-0.2,0.5s0,0.5,0,0.5l18.2,30.5c0.2,0.5,0.7,0.5,1.2,0.2s0.5-0.7,0.2-1.2l-18.2-30.5
					c0-0.2-0.2-0.2-0.5-0.2C1575.8,560.7,1575.8,560.7,1575.3,561C1575.6,560.7,1575.6,560.7,1575.3,561z"/>
			</g>
			<g>
				<path d="M1761.7,879.2c-3.1,1.9-7.1,0.9-9-2.4l-18.2-30.5c-1.9-3.1-0.9-7.1,2.4-9c3.1-1.9,7.1-0.9,9,2.4l18.2,30.5
					C1765.8,873.3,1764.8,877.3,1761.7,879.2z"/>
				<path d="M1747.8,879.9l-18.2-30.5c-1.7-2.8-2.1-6.1-1.4-9.2c0.7-3.3,2.8-5.9,5.7-7.6c2.8-1.7,6.1-2.1,9.2-1.4
					c3.3,0.7,5.9,2.8,7.6,5.7l18.2,30.5c3.5,5.9,1.7,13.5-4.3,16.8c-1.2,0.7-2.4,1.2-3.5,1.4
					C1756.1,886.8,1750.6,884.6,1747.8,879.9z M1739.8,842.3c-0.2,0.2-0.2,0.2-0.2,0.5c0,0.2,0,0.5,0,0.5l18.2,30.5
					c0.2,0.5,0.7,0.5,1.2,0.2c0.5-0.2,0.5-0.7,0.2-1.2l-18.2-30.5c0-0.2-0.2-0.2-0.5-0.2C1740.2,842.3,1740.2,842.3,1739.8,842.3
					C1740,842.3,1740,842.3,1739.8,842.3z"/>
			</g>
			<g>
				<path class="st7" d="M1524.5,455.6c-148.8,76.8-207.2,259.6-130.6,408.5s259.6,207.2,408.5,130.6s207.2-259.6,130.6-408.5
					C1856.2,437.2,1673.4,378.8,1524.5,455.6z M1767.9,927.4c-111.7,57.6-249.2,13.7-306.9-98c-57.6-111.7-13.7-249.2,98-306.9
					s249.2-13.7,306.9,98C1923.6,732.5,1879.6,869.7,1767.9,927.4z"/>
			</g>
			<g>
				<path class="st3" d="M1539.9,477.8c89.3-46.1,190.4-46.1,275.7-8.5c-85-45.8-190.7-50.3-283-2.6
					c-100.9,52-160.2,152.6-164.2,258.5C1380.7,622.9,1441.6,528.4,1539.9,477.8z"/>
			</g>
			<g class="st10">
				<g>
					<path d="M1791.5,973c-145.3,74.9-322.7,21-402.6-119.8c1.7,3.5,3.5,7.3,5.4,10.9c76.8,148.8,259.6,207.2,408.5,130.6
						s207.2-259.6,130.6-408.5c-1.9-3.5-3.8-7.1-5.9-10.6C1995.9,722.1,1936.6,898.1,1791.5,973z"/>
				</g>
			</g>
			<g>
				<path d="M1614.6,626.4c-3.1,1.7-4.5,5.7-2.6,9l41.3,76.8c-2.4,2.4-4.3,5.2-5.2,8.7c-3.3,10.6,2.8,22,13.5,25.3
					c3.5,0.9,6.9,1.2,10.2,0.5l18.7,35c1.7,3.1,5.7,4.5,9,2.6c3.1-1.7,4.5-5.7,2.6-9l-19.1-35.4c1.7-2.1,3.1-4.5,3.8-7.1
					c3.3-10.6-2.8-22-13.5-25.3c-2.6-0.7-5.4-0.9-8-0.7l-41.6-77.5C1621.6,625.7,1617.9,624.5,1614.6,626.4z"/>
				<path d="M1703.6,786.1c-0.7,0.7-1.4,1.2-2.4,1.7c-5.2,2.8-11.8,0.9-14.6-4.5l-17.2-32.1c-3.1,0.2-6.1,0-9-0.9
					c-6.4-1.9-11.6-6.1-14.6-11.8c-3.1-5.9-3.8-12.5-1.9-18.7c0.9-2.8,2.4-5.7,4.3-8l-39.7-74.2c-1.4-2.6-1.7-5.4-0.9-8.3
					c0.9-2.8,2.6-5,5.2-6.4l0,0c5.2-2.8,11.8-0.9,14.6,4.5l40.2,75.1c2.4,0,4.5,0.5,6.9,0.9c6.4,1.9,11.6,6.1,14.6,11.8
					c3.1,5.9,3.8,12.5,1.9,18.7c-0.7,2.1-1.7,4.3-2.8,6.1l17.7,33.1c1.4,2.6,1.7,5.4,0.9,8.3C1706,783,1705,784.7,1703.6,786.1z
					 M1616.2,630.4c-0.2,0.2-0.5,0.7-0.7,0.9c0,0.2-0.2,0.9,0.2,1.7l42.8,79.6l-2.4,2.4c-1.9,1.9-3.3,4.3-4.3,6.9
					c-1.2,4-0.7,8.5,1.2,12c2.1,3.8,5.4,6.4,9.4,7.8c2.6,0.7,5.4,0.9,8,0.2l3.3-0.7l20.3,37.8c0.5,1.2,1.9,1.4,3.1,0.9
					c0.5-0.2,0.9-0.7,1.2-1.4c0-0.2,0.2-0.9-0.2-1.7l-20.3-38l1.9-2.1c1.4-1.7,2.4-3.5,3.1-5.7c1.2-4,0.7-8.5-1.2-12
					c-2.1-3.8-5.4-6.4-9.4-7.8c-2.1-0.7-4.3-0.7-6.4-0.5l-2.8,0.2l-43-80.1c-0.5-1.2-1.9-1.4-3.1-0.9l0,0
					C1616.4,630.2,1616.2,630.4,1616.2,630.4z"/>
			</g>
			<g>
				<path d="M1649.8,1040.8c-109.4-5-213.3-66.9-267.2-170.8c-79.9-155-18.9-346.1,136.1-426l0,0c155-79.9,346.1-18.9,426,136.1
					c79.9,155,18.9,346.1-136.1,426C1757.7,1032.3,1702.9,1043.1,1649.8,1040.8z M1530.7,467.2c-142.2,73.2-198.2,248.8-125,391
					c49.4,95.7,144.8,152.4,245.2,156.9c48.9,2.4,99.2-7.8,145.8-31.9c142.2-73.2,198.2-248.8,125-391
					C1848.2,449.7,1672.9,393.7,1530.7,467.2L1530.7,467.2z M1652.8,965.7c-21-0.9-42.1-4.7-62.6-11.3
					c-61.2-19.6-111.3-61.9-140.6-119.1c-29.5-57.2-35-122.4-15.4-183.6c19.6-61.2,61.9-111.3,119.1-140.6
					c117.9-60.7,263.4-14.4,324.4,103.7c29.5,57.2,35,122.4,15.4,183.6c-19.6,61.2-61.9,111.3-119.1,140.6l0,0
					C1736,958.6,1694.4,967.6,1652.8,965.7z M1673.1,510.4c-36.1-1.7-73.5,5.9-108,23.6c-51,26.2-88.6,70.9-106.1,125.4
					c-17.5,54.6-12.5,112.7,13.7,163.7c26.2,51,70.9,88.6,125.4,106.1c54.6,17.5,112.7,12.5,163.7-13.7l0,0
					c51-26.2,88.6-70.9,106.1-125.4s12.5-112.7-13.7-163.7C1818,555.8,1747.3,514,1673.1,510.4z"/>
			</g>
		</g>
		<g>
			<path d="M2478.5,1117.1c-20.6,3.8-40.6,1.9-59.3-5.7c-35.7-14.4-60.7-47.7-70.6-93.6c-9.4-43.7-3.8-94,15.6-142l0,0
				c17.5-43.5,63.8-144.1,114.8-142c18.4,0.7,30,11.3,37.1,23.9c14.2-12.5,32.4-20.8,51.7-13c12,4.7,26.7,17.2,29.3,48.4
				c10.6-2.6,22.4-1.7,34,6.9c18,13.5,24.3,40.9,19.1,81.3c-3.8,29.1-13.7,65.2-27.4,99c-19.4,48-50.6,87.9-87.6,112.9
				C2516.3,1105.8,2497.4,1113.8,2478.5,1117.1z M2475.9,767c-6.9,1.2-19.8,10.9-36.6,35c-15.4,22.2-31.2,52.9-44.7,86.2
				c-17,41.8-22,85.5-13.9,122.8c7.6,35,25.5,59.8,50.8,70.2c25.3,10.2,55.5,5,85.3-15.1c31.7-21.3,58.4-56,75.4-97.8
				c29.1-71.6,33.3-130.9,19.1-141.7c-7.3-5.4-19.4,7.1-19.6,7.3c-5,5.4-13,6.9-19.4,3.5c-6.6-3.3-10.2-10.4-9-17.5
				c2.8-15.8,1.4-40.6-8-44.4c-9.9-4-26,14.6-32.6,25.3c-3.8,6.1-11.1,9.2-18.2,7.6c-7.1-1.9-12-8-12.3-15.4c0-0.2-1.4-25.5-14.6-26
				C2477.1,766.7,2476.4,767,2475.9,767z M2379.5,882L2379.5,882L2379.5,882z"/>
		</g>
		<path class="st7" d="M2475.9,767c-6.9,1.2-19.8,10.9-36.6,35c-15.4,22.2-31.2,52.9-44.7,86.2c-17,41.8-22,85.5-13.9,122.8
			c7.6,35,25.5,59.8,50.8,70.2c25.3,10.2,55.5,5,85.3-15.1c31.7-21.3,58.4-56,75.4-97.8c29.1-71.6,33.3-130.9,19.1-141.7
			c-7.3-5.4-19.4,7.1-19.6,7.3c-5,5.4-13,6.9-19.4,3.5c-6.6-3.3-10.2-10.4-9-17.5c2.8-15.8,1.4-40.6-8-44.4
			c-9.9-4-26,14.6-32.6,25.3c-3.8,6.1-11.1,9.2-18.2,7.6c-7.1-1.9-12-8-12.3-15.4c0-0.2-1.4-25.5-14.6-26
			C2477.1,766.7,2476.4,767,2475.9,767z"/>
		<g>
			<path d="M2110.7,1063.5c-12.5,16.8-28.6,29.1-47.5,36.1c-35.9,13.5-77,6.1-115.3-21c-36.4-25.8-66.6-66.6-84.8-114.8l0,0
				c-16.5-43.7-50.8-149.1-12-182.1c13.9-11.8,29.8-12,43.5-7.6c1.9-18.7,9.7-37.3,29.1-44.7c12-4.5,31.2-5.4,54.6,15.8
				c5.9-9.2,15.4-16.5,29.5-18c22.2-2.1,45.6,13.5,69.2,46.8c17,23.9,34,57.2,47,91.2c18.2,48.4,22.7,99,12.3,142.2
				C2130.5,1029.4,2122,1048.3,2110.7,1063.5z M1870.9,808.1c-4.3,5.7-7.3,21.5-3.1,50.6c3.8,26.7,13,60,25.8,93.6
				c16.1,42.3,41.8,77.7,73,99.7c29.3,20.6,59.3,26.7,84.8,17c25.5-9.7,44.2-34,52.4-68.7c9-37.1,5-80.8-11.1-123.1
				c-27.2-72.3-64.5-118.8-82.2-116.9c-9.2,0.9-9.4,18.4-9.4,18.7c0,7.3-4.7,13.7-11.8,15.8c-7.1,2.1-14.4-0.7-18.4-6.9
				c-8.7-13.5-26.5-30.9-36.1-27.2c-9.9,3.8-9.2,28.3-6.6,40.6c1.4,7.1-1.9,14.4-8.3,18s-14.4,2.4-19.4-2.8
				c-0.2-0.2-18.2-17.7-28.3-9.2C1871.8,807.1,1871.4,807.6,1870.9,808.1z M1878.2,958.1L1878.2,958.1L1878.2,958.1z"/>
		</g>
		<path class="st7" d="M1870.9,808.1c-4.3,5.7-7.3,21.5-3.1,50.6c3.8,26.7,13,60,25.8,93.6c16.1,42.3,41.8,77.7,73,99.7
			c29.3,20.6,59.3,26.7,84.8,17c25.5-9.7,44.2-34,52.4-68.7c9-37.1,5-80.8-11.1-123.1c-27.2-72.3-64.5-118.8-82.2-116.9
			c-9.2,0.9-9.4,18.4-9.4,18.7c0,7.3-4.7,13.7-11.8,15.8c-7.1,2.1-14.4-0.7-18.4-6.9c-8.7-13.5-26.5-30.9-36.1-27.2
			c-9.9,3.8-9.2,28.3-6.6,40.6c1.4,7.1-1.9,14.4-8.3,18s-14.4,2.4-19.4-2.8c-0.2-0.2-18.2-17.7-28.3-9.2
			C1871.8,807.1,1871.4,807.6,1870.9,808.1z"/>
		<g class="st11">
			
				<image style="overflow:visible;enable-background:new    ;" width="1471" height="1471" xlink:href="1A084359.png"  transform="matrix(0.5656 0 0 0.5656 1240.9542 289.0914)">
			</image>
		</g>
	</g>
	<g>
		<g>
			<g>
				<path class="st12" d="M542.5,1679.8c-59.3,0-82-42.1-85.3-48.9l-30-55.8l-0.5-1.9c-122.1-450.1-106.8-470.4-100.9-477.9
					c3.8-5,9.2-7.6,15.4-7.6c2.8,0,7.3,0.7,12,4c13.5,9.7,39.2,20.1,71.1,20.1c36.1,0,71.8-12.8,105.8-37.8
					c87.4-64.5,230.1-112.9,236.2-115.1l13.9-4.7l7.1,13c2.4,4.3,57.6,109.1,120.5,318.5c10.4,34.5,19.1,62.8,26.5,86.5l0.7,1.9
					c36.4,116.7,39.2,126.2-1.7,162.8l-2.8,2.6c-46.8,41.8-304.1,129.7-368.8,139.2C555.2,1679.4,548.6,1679.8,542.5,1679.8
					L542.5,1679.8z"/>
				<g>
					<path d="M772.1,975.3c0,0,56,105.1,119.3,315.4c10.4,34.5,19.1,63.1,26.7,86.7c37.6,120.7,36.6,116.9,0.9,149.1
						c-42.8,38.3-293.7,125.2-359.6,134.9c-5.9,0.9-11.6,1.2-17,1.2c-52.4,0-69.7-39.2-69.7-39.2l-29.3-54.3
						c0,0-125.9-463.5-102.5-463.5c0.5,0,1.2,0.2,1.9,0.7c16.1,11.6,45.1,23.2,81.3,23.2c34,0,74.4-10.4,116.2-41.3
						C627,1024,772.1,975.3,772.1,975.3 M788.9,932.6l-28.1,9.4c-6.1,2.1-151.2,51.3-241,117.7c-30.9,22.9-63.1,34.5-95.4,34.5
						c-27.6,0-49.6-8.7-61-16.8c-6.6-4.7-14.4-7.3-22.2-7.3c-11.6,0-22.2,5.2-29.3,14.4c-12.3,16.1-20.3,26.5,39.7,268.9
						c27.6,112.2,57.9,223.3,58.1,224.2l0.9,3.8l1.9,3.5l28.6,53.4c10.6,22.7,42.8,58.8,100.9,58.8c7.1,0,14.4-0.5,22-1.7
						c67.8-9.9,327.9-98.8,377.8-143.4l2.8-2.6c49.4-43.9,43.7-62.4,6.9-181l-0.7-1.9c-7.8-25.3-16.5-52.9-26.5-86.5
						c-63.6-211.2-119.5-317.3-121.9-321.8L788.9,932.6L788.9,932.6z"/>
				</g>
			</g>
			<g>
				<path class="st13" d="M941.5,1499.8c1.2-13.2-1.7-28.1-4.7-30c-0.5,0-0.7,0-1.2,0c-0.5,0-0.9,0-1.4,0
					c-53.6,8.7-72.1,20.3-89.8,31.7c-15.6,9.7-31.7,19.8-65.7,25.8c-6.9,1.2-13.9,1.9-20.6,1.9l0,0
					c-101.4,0-130.9-130.4-132.1-135.8c-3.5-13.7-0.9-28.8,7.8-42.8c45.4-72.3,265.1-116,289.9-120.7l15.6-3.1l4.5,15.4
					c0.5,1.2,37.1,128,51.7,184c18.2,70.4-27.9,91-29.8,91.7l-27.2,11.6L941.5,1499.8z"/>
				<path d="M927.1,1246.8c0,0,36.9,127.1,51.5,183.6c14.6,56.7-19.6,71.3-19.6,71.3s5-49.4-23.2-49.4c-1.4,0-2.8,0.2-4.5,0.5
					c-103.2,17-87.2,45.6-155.7,57.4c-6.1,0.9-12,1.4-17.5,1.4c-88.6,0-115.1-122.1-115.1-122.1
					C620.9,1305.4,927.1,1246.8,927.1,1246.8 M951.6,1206.4l-31.2,5.9c-41.8,8-253,51.7-301.5,128.8c-11.3,18-14.6,37.6-9.9,56.5
					c1.4,5.7,9.2,38,28.1,70.4c29.8,51.3,71.6,78.4,121,78.4c7.6,0,15.6-0.7,23.4-2.1c37.6-6.4,56-18,72.1-28.1
					c15.6-9.7,30.2-19.1,70.4-26.9c0.2,3.1,0.2,6.1,0,8.7l-5.2,58.1l53.6-22.7c21.5-9.2,57.4-44.4,39.7-112.2
					c-14.6-56.5-50.3-179.5-52-184.7L951.6,1206.4L951.6,1206.4z"/>
			</g>
			<path class="st13" d="M493.3,1499.1c9.4-0.7,77,7.1,82,28.3l14.4,81c0,0-0.2,0.2-0.7,0.5c-3.1,1.7-15.8,7.1-51,4
				c-41.6-3.5-47,16.5-43.2,26.9c3.8,10.4,16.5,16.8,16.5,16.8s-19.8,0.2-39.5-35.7c-19.4-36.1-31.2-63.1-31.2-63.1
				S483.9,1499.8,493.3,1499.1z"/>
			<g>
				
					<linearGradient id="SVGID_6_" gradientUnits="userSpaceOnUse" x1="331.6039" y1="-1505.2086" x2="331.6039" y2="-330.0932" gradientTransform="matrix(1 0 0 -1 9.094947e-13 773.274)">
					<stop  offset="0" style="stop-color:#5C2B8A"/>
					<stop  offset="1" style="stop-color:#873FC8"/>
				</linearGradient>
				<path class="st14" d="M217.1,1743.4c-2.8,0-5.7,0-8.5-0.2c-44.4-2.6-62.8-5.4-67.1-22.4c-3.8-15.4,9.7-23.6,19.6-29.5l4.7-2.8
					c6.4-4.7,29.5-38.5,49.8-84.8l17-44.2c8.5-26,13.7-50.8,15.1-72.5c2.8-44.7-1.2-72.1-12-83.9c-4-4.3-11.6-9.7-32.1-9.7
					c-3.3,0-6.9,0.2-10.6,0.5c-13,0.9-29.5,2.6-46.8,4.5c-32.1,3.3-65.2,6.9-87.9,6.9h-0.2c-12.8,0-34,0-39.9-16.3
					c-1.9-5.2-3.3-15.8,9.4-26.2c18.2-15.1,54.3-91,89.5-188.8c10.2-28.3,28.8-55,53.6-77.7l8-7.3l21.5,8.3v-24.1l8.7-5
					c32.1-18.4,68.3-28.6,104.7-29.3c3.5,0,7.1,0,10.2,0c77,0,89.5,22.7,141.3,117.9c8.3,15.4,17.7,32.6,28.8,52.4
					c13,23.2,25.8,45.6,38.3,67.6c72.3,126.4,129.5,226.3,110.1,288.7c-16.1,52-56.2,65.9-77.3,65.9c-19.8,0-25-11.1-26.5-15.8
					c-1.9-7.1-0.5-16.8,10.2-23.2c1.2-0.7,2.8-2.1,3.8-5.7c0.9-4.3,0-8.7-0.7-11.1c-8.3-4.3-20.3-8.7-35.2-8.7
					c-28.6,0-56.2,16.3-82.7,48.4C383.5,1677,299.6,1743.4,217.1,1743.4z"/>
				<g class="st15">
					<path class="st16" d="M661.8,1489.9c-11.3,3.3-22.4,6.6-33.8,9.9c1.9,13.9,1.4,26.2-1.9,36.9c-13.2,42.3-44.7,53.6-60.7,53.6
						c-8.5,0-12.8-3.3-7.1-6.9c19.1-11.8,12.3-41.3,5-45.6c-12.3-6.9-28.1-12.3-46.3-12.3c-28.3,0-62.1,13.2-96.2,54.8
						c-53.9,65.7-133,121.9-203.6,121.9c-2.6,0-5,0-7.6-0.2c-72.3-4.3-52.2-11.3-34.5-22.7c4.7-2.8,12.5-12.8,22-27.2
						c-7.1,0.5-14.2,0.7-21.3,1.2c-15.1,16.3-28.6,34-41.8,52c-1.9,2.4-4,4-6.4,4.7c11.6,22.7,42.1,24.6,79.9,26.7
						c3.1,0.2,6.4,0.2,9.7,0.2c88.6,0,177.2-69.7,230.8-134.7c22.9-27.9,46.1-42.1,69.2-42.1c4.7,0,9,0.7,13,1.4
						c-8.3,9.4-11.3,22.2-7.8,34.5c4,13.7,17.2,28.6,43.2,28.6c34.7,0,77.3-24.1,94-78.2C664.8,1530.1,665.3,1510.9,661.8,1489.9z"
						/>
				</g>
				<path d="M324.2,1055.9c77.5,0,75.1,18.7,155,161.4c83.2,148.6,167.3,277.4,147.2,342.6c-13.2,42.3-44.7,53.6-60.7,53.6
					c-8.5,0-12.8-3.3-7.1-6.9c19.1-11.8,12.3-41.3,5-45.6c-12.3-6.9-28.1-12.3-46.3-12.3c-28.3,0-62.1,13.2-96.2,54.8
					c-53.9,65.7-133,121.9-203.6,121.9c-2.6,0-5,0-7.6-0.2c-72.3-4.3-52.2-11.3-34.5-22.7c9.9-6.4,35.2-44.2,56.5-92.6L249,1565
					c8.5-25.8,14.6-52.4,16.3-77.7c5.4-85.5-12.5-112.2-61.7-112.2c-3.8,0-7.8,0.2-11.8,0.5c-36.6,2.6-99.2,11.1-133.5,11.1
					c-20.1,0-30.2-2.8-19.6-11.6c28.6-23.6,72.3-134,95-196.3c9.2-25.3,26.2-50.1,49.1-70.6l35.2,13.5v-39.2
					c27.9-16.1,60.5-26.2,96.2-26.9C317.6,1056.1,320.9,1055.9,324.2,1055.9 M324.2,1020.9c-3.3,0-6.9,0-10.6,0
					c-39.2,0.7-78.4,11.6-112.9,31.4l-17.5,10.2v8.5l-7.8-3.1l-15.8,14.4c-26.9,24.6-47.2,53.9-58.4,84.8
					c-37.8,104.4-71.1,170.3-84.3,181.2C-5.4,1366.8,0,1387.8,2.2,1394c10.2,27.9,42.8,27.9,56.7,27.9c23.6,0,57.2-3.5,89.8-6.9
					c17.2-1.9,33.5-3.5,46.3-4.5c3.3-0.2,6.4-0.5,9.4-0.5c5.7,0,15.8,0.5,19.4,4.3c3.3,3.5,10.9,17.7,7.3,70.9
					c-1.2,20.1-6.1,43-14.4,68.3l-16.8,43.2c-18.2,41.3-37.8,70.4-44.4,77.3c-0.9,0.7-2.1,1.2-3.1,1.9
					c-10.4,6.1-34.3,20.8-27.4,48.7c7.8,31.2,40.9,33.1,83.2,35.7c3.1,0.2,6.4,0.2,9.7,0.2c88.6,0,177.2-69.7,230.8-134.7
					c22.9-27.9,46.1-42.1,69.2-42.1c4.7,0,9,0.7,13,1.4c-8.3,9.4-11.3,22.2-7.8,34.5c4,13.7,17.2,28.6,43.2,28.6
					c34.7,0,77.3-24.1,94-78.2c21.5-69.5-37.3-172.2-111.7-302.6c-12.5-22-25.5-44.4-38.3-67.3c-11.1-19.6-20.6-37.1-28.8-52.2
					C427.6,1050.5,411.6,1020.9,324.2,1020.9L324.2,1020.9z"/>
			</g>
			<g>
				<path class="st12" d="M3633.1,1679.8c-6.4,0-12.8-0.5-19.4-1.4c-64.7-9.4-321.8-97.1-368.8-139.2l-2.8-2.6
					c-41.1-36.6-38-46.1-1.9-162.5l0.7-1.9c7.6-24.1,16.3-52.4,26.5-86.5c62.8-209.6,118.1-314.2,120.5-318.5l7.1-13l13.9,4.7
					c6.1,2.1,148.6,50.6,236.2,115.1c34,25,69.7,37.8,105.8,37.8c31.9,0,57.6-10.4,71.1-20.1c4.7-3.3,9.2-4,12-4
					c5.9,0,11.6,2.8,15.4,7.6c5.9,7.6,21.3,27.9-100.9,477.9l-0.5,1.9l-30,55.8C3715,1637.8,3692.4,1679.8,3633.1,1679.8z"/>
				<g>
					<path d="M3403.4,975.3c0,0,145.1,48.9,231.3,112.5c41.8,30.9,82.2,41.3,116.2,41.3c36.1,0,65.2-11.8,81.3-23.2
						c0.7-0.5,1.4-0.7,1.9-0.7c23.4,0-102.5,463.5-102.5,463.5l-29.3,54.3c0,0-17,39.2-69.7,39.2c-5.2,0-10.9-0.5-17-1.2
						c-65.9-9.4-316.8-96.6-359.6-134.9c-35.7-31.9-36.6-28.3,0.9-149.1c7.3-23.6,16.3-52.2,26.7-86.7
						C3347.4,1080.2,3403.4,975.3,3403.4,975.3 M3386.4,932.6l-13.9,26.2c-2.4,4.5-58.4,110.6-121.9,321.8
						c-10.2,33.8-18.9,61.7-26.2,85l-0.5,1.2l-0.7,1.9c-36.9,118.6-42.5,136.8,6.9,181l2.8,2.6c49.8,44.7,310.2,133.5,377.8,143.4
						c7.6,1.2,14.9,1.7,22,1.7c58.1,0,90.5-36.1,100.9-58.8l28.6-53.4l1.9-3.5l0.9-3.8c0.2-1.2,30.5-112.2,58.1-224.2
						c60-242.4,52-253,39.7-268.9c-7.1-9.2-17.7-14.4-29.3-14.4c-7.8,0-15.6,2.6-22.2,7.3c-11.3,8-33.3,16.8-61,16.8
						c-32.4,0-64.5-11.6-95.4-34.5c-89.8-66.1-234.8-115.5-241-117.7L3386.4,932.6L3386.4,932.6z"/>
				</g>
			</g>
			<g>
				<path class="st13" d="M3233.3,1527c-1.9-0.9-48-21.3-29.8-91.7c14.6-56.2,51.3-182.9,51.7-184.3l4.5-15.4l15.6,3.1
					c24.8,4.7,244.5,48.7,289.9,120.7c8.7,13.9,11.3,29.1,7.6,43.5c-0.9,4.7-30.5,135.1-131.8,135.1c-6.6,0-13.5-0.7-20.6-1.9
					c-34-5.9-50.1-15.8-65.7-25.8c-17.7-11.1-36.4-22.7-89.8-31.7c-0.5,0-1.2-0.2-1.7-0.2c-4,1.9-6.9,17-5.7,30.2l2.8,29.3
					L3233.3,1527z"/>
				<path d="M3272.1,1256c0,0,306.2,58.6,283.7,142.7c0,0-26.5,122.1-115.1,122.1c-5.7,0-11.6-0.5-17.5-1.4
					c-68.5-11.6-52.4-40.4-155.7-57.4c-1.7-0.2-3.1-0.5-4.5-0.5c-27.9,0-23.2,49.4-23.2,49.4s-34.3-14.6-19.6-71.3
					C3235.2,1383.1,3272.1,1256,3272.1,1256 M3247.5,1215.6l-9,30.5c-1.4,5.2-37.3,128.3-52,184.7c-17.5,67.8,18.4,103,39.7,112.2
					l54.3,23.2l-5.9-58.8c-0.2-2.6-0.2-5.7,0-8.7c40.2,7.8,55,17,70.4,26.9c16.3,10.2,34.7,21.7,72.1,28.1
					c7.8,1.4,15.8,2.1,23.4,2.1c49.4,0,91.2-27.2,121-78.4c18.7-32.4,26.7-64.5,28.1-70.4c5-19.1,1.4-38.7-9.9-56.5
					c-48.4-76.8-259.6-120.7-301.5-128.8L3247.5,1215.6L3247.5,1215.6z"/>
			</g>
			<path class="st13" d="M3682.2,1499.1c-9.4-0.7-77,7.1-82,28.3l-14.4,81c0,0,0.2,0.2,0.7,0.5c3.1,1.7,15.8,7.1,51,4
				c41.6-3.5,47,16.5,43.2,26.9c-3.8,10.4-16.5,16.8-16.5,16.8s19.8,0.2,39.5-35.7c19.4-36.1,31.2-63.1,31.2-63.1
				S3691.7,1499.8,3682.2,1499.1z"/>
			<g>
				
					<linearGradient id="SVGID_7_" gradientUnits="userSpaceOnUse" x1="3843.4258" y1="-1300.333" x2="3843.4258" y2="-510.5864" gradientTransform="matrix(1 0 0 -1 9.094947e-13 773.274)">
					<stop  offset="0" style="stop-color:#5C2B8A"/>
					<stop  offset="1" style="stop-color:#873FC8"/>
				</linearGradient>
				<path class="st17" d="M3958.1,1743.4c-82.5,0-166.3-66.4-217.1-128.3c-26.5-32.1-54.1-48.4-82.7-48.4c-14.6,0-26.9,4.5-35.2,8.7
					c-0.7,2.4-1.7,6.9-0.7,11.1c0.7,3.5,2.4,4.7,3.8,5.7c10.4,6.4,12,16.3,10.2,23.2c-1.4,4.7-6.6,15.8-26.5,15.8
					c-21,0-61.2-13.9-77.3-65.9c-19.4-62.1,37.8-162.1,110.1-288.7c12.5-22,25.5-44.7,38.3-67.6c11.1-19.8,20.6-37.1,28.8-52.4
					c52-95.2,64.3-117.9,141.3-117.9c3.3,0,6.6,0,10.2,0c36.4,0.7,72.5,10.6,104.7,29.3l8.7,5v23.9l21.5-8.3l8,7.3
					c25,22.7,43.5,49.4,53.6,77.7c35.4,97.8,71.3,173.6,89.5,188.8c12.5,10.4,11.3,20.8,9.5,26.2c-5.9,16.3-27.4,16.3-40.2,16.3
					c-22.7,0-56-3.5-87.9-6.9c-17.2-1.9-33.5-3.5-46.8-4.5c-3.8-0.2-7.3-0.5-10.6-0.5c-20.6,0-28.1,5.7-32.1,9.7
					c-11.1,11.8-14.9,39.2-12,83.9c1.4,21.7,6.6,46.5,15.4,73.2l17,44.2c20.1,45.6,43.2,79.1,49.8,84.3l4.5,2.8
					c9.9,5.9,23.4,14.2,19.6,29.5c-4.3,17-22.7,19.8-67.1,22.4C3963.8,1743.2,3961,1743.4,3958.1,1743.4L3958.1,1743.4z"/>
				<path class="st16" d="M3514.9,1495.6c11.3,3.3,22.4,6.6,33.8,9.9c-1.9,13.9-1.4,26.2,1.9,36.9c13.2,42.3,44.7,53.6,60.7,53.6
					c8.5,0,12.8-3.3,7.1-6.9c-19.1-11.8-12.3-41.3-5-45.6c12.3-6.9,28.1-12.3,46.3-12.3c28.3,0,62.1,13.2,96.2,54.8
					c53.9,65.7,133,121.9,203.6,121.9c2.6,0,5,0,7.6-0.2c72.3-4.3,52.2-11.3,34.5-22.7c-4.7-2.8-12.5-12.8-22-27.2
					c7.1,0.5,14.2,0.7,21.3,1.2c15.1,16.3,28.6,34,41.8,52c1.9,2.4,4,4,6.4,4.7c-11.6,22.7-42.1,24.6-79.9,26.7
					c-3.1,0.2-6.4,0.2-9.7,0.2c-88.6,0-177.2-69.7-230.8-134.7c-22.9-27.9-46.1-42.1-69.2-42.1c-4.7,0-9,0.7-13,1.4
					c8.3,9.4,11.3,22.2,7.8,34.5c-4,13.7-17.2,28.6-43.2,28.6c-34.7,0-77.3-24.1-94-78.2C3511.9,1535.7,3511.4,1516.6,3514.9,1495.6
					z"/>
				<path d="M3851.4,1055.9c3.1,0,6.6,0,9.9,0c35.7,0.5,68.3,10.9,96.2,26.9v39.2l35.2-13.5c22.9,20.6,39.9,45.4,49.1,70.6
					c22.4,62.4,66.4,172.7,95,196.3c10.6,8.7,0.2,11.6-19.6,11.6c-34,0-96.6-8.5-133.5-11.1c-4.3-0.2-8-0.5-11.8-0.5
					c-49.1,0-67.1,26.9-61.7,112.2c1.7,25.3,7.8,52,16.3,77.7l17.2,44.9c21.3,48.2,46.5,86.2,56.5,92.6c17.7,11.3,38,18.4-34.5,22.7
					c-2.6,0.2-5,0.2-7.6,0.2c-70.6,0-149.8-56.5-203.6-121.9c-34-41.6-67.8-54.8-96.2-54.8c-18,0-33.8,5.4-46.3,12.3
					c-7.3,4.3-14.2,33.5,5,45.6c5.7,3.5,1.4,6.9-7.1,6.9c-16.1,0-47.5-11.3-60.7-53.6c-20.1-65.2,64-194,147.2-342.6
					C3776.2,1074.8,3773.9,1055.9,3851.4,1055.9 M3851.4,1020.9L3851.4,1020.9c-87.4,0-103.5,29.5-156.6,127.1
					c-8.3,15.1-17.7,32.6-28.8,52.2c-12.8,22.9-25.8,45.6-38.3,67.3c-74.4,130.2-133.2,232.9-111.7,302.6
					c16.8,54.1,59.3,78.2,94,78.2c26,0,39.5-14.6,43.2-28.6c3.5-12.3,0.5-25-7.8-34.5c4-0.9,8.3-1.4,13-1.4
					c22.9,0,46.3,14.2,69.2,42.1c53.4,65.2,142.2,134.7,230.6,134.7c3.3,0,6.4,0,9.7-0.2c42.1-2.4,75.4-4.5,83.2-35.7
					c6.9-27.9-17.2-42.5-27.4-48.7c-0.9-0.7-1.9-1.2-3.1-1.9c-6.9-7.1-26.2-36.1-44.4-77.3l-16.8-43.2c-8.3-25-13-48-14.4-68
					c-3.5-53.2,4-67.3,7.3-70.9c3.5-3.8,13.7-4.3,19.4-4.3c3.1,0,6.1,0.2,9.4,0.5c12.8,0.9,29.1,2.6,46.3,4.5
					c32.6,3.3,66.1,6.9,89.8,6.9c13.9,0,46.5,0,56.7-27.9c2.1-6.1,7.6-27.2-14.6-45.6c-13.2-11.1-46.5-76.8-84.3-181.2
					c-11.1-30.9-31.4-60.2-58.4-84.8l-15.8-14.4l-7.8,3.1v-8.5l-17.5-10.2c-34.7-20.1-73.7-30.9-112.9-31.4
					C3858.2,1021.2,3854.7,1020.9,3851.4,1020.9L3851.4,1020.9z"/>
			</g>
			<g>
				<g>
					<g>
						<g>
							
								<linearGradient id="SVGID_8_" gradientUnits="userSpaceOnUse" x1="2083.5508" y1="-885.2602" x2="2083.5508" y2="-330.1947" gradientTransform="matrix(1 0 0 -1 9.094947e-13 773.274)">
								<stop  offset="0" style="stop-color:#5C2B8A"/>
								<stop  offset="1" style="stop-color:#873FC8"/>
							</linearGradient>
							<path class="st18" d="M710.4,1510c-29.1,0-51.7-35.4-56-42.5l-0.7-1.2l-0.5-1.2c-5.4-14.4-13.5-32.6-22.4-53.6
								c-47.7-110.6-127.6-295.5-80.3-411.8c51.7-127.3,223-147.9,348-162.8c12.8-1.4,25-3.1,36.9-4.5l10.4-1.4l5.2,9
								c8.5,14.2,14.9,28.8,21,43.2c5.4-15.1,10.6-30,16.1-44.7l3.8-10.2h18.7c173.9,0,350.6,9,521.4,17.5
								c166.8,8.3,339.3,17,508.2,17.2h13.7c225.6,0,453.1-12,673.3-23.6c136.3-7.3,277.1-14.6,416.3-19.1c0,0,83.6-0.9,106.8-0.9
								c134.4,0,344.9,62.8,368.8,161.4c40.6,166.6-26.9,407.3-109.9,495.6l-5.4,5.9l-144.8-18.2c-22.4-3.5-43.9-7.1-65.4-10.6
								c-102.1-17-198.4-32.8-318-32.8c-96.4,0-199.2,10.6-314,32.6c-146,27.9-341.9,42.5-566.5,42.5
								c-255.6,0-518.1-19.6-720.3-53.9l-2.8-0.5l-2.4-1.4c-11.1-6.4-18.4-13.5-23.4-20.6c-0.2,1.2-6.4,20.3-6.4,20.3l-16.1-7.1
								c-30.2-13.5-65.7-19.6-111.3-19.6c-29.8,0-60.5,2.6-90,5.2c-29.5,2.6-57.4,5-84.3,5c-5.9,0-11.8,0-17.5-0.5
								c-4-0.2-8.3-0.2-12.5-0.2c-88.4,0-220.2,38.3-276.6,80.3C725.6,1507.6,718.2,1510,710.4,1510z"/>
							<path class="st19" d="M3339.4,889.4c57.2,2.1,140.6,6.1,224.4,52c13.2,7.3,32.8,18.9,54.8,36.4
								c-27.2-96.9-235.1-158.5-368.1-158.5c-23.4,0-106.8,0.9-106.8,0.9c-139.4,4.5-280.2,12-416.3,19.1
								c-220.2,11.6-447.9,23.6-673.3,23.6h-13.7c-168.9-0.5-341.4-9-508.2-17.2c-171-8.5-347.8-17.5-521.4-17.5h-18.7l-3.8,10.2
								c-5.4,14.6-10.9,29.8-16.1,44.7c-6.1-14.4-12.5-29.1-21-43.2l-5.2-9l-10.4,1.4c-11.6,1.4-23.9,3.1-36.9,4.5
								c-110.3,13.2-256.6,30.5-325.1,121.9c66.9-19.1,149.8-39.5,245-55.5c333.1-56,543.1-13.2,949.7,4.7
								c237.4,10.4,407.8,6.6,659.1,0c285.9-7.6,572-7.1,857.6-18.9C3289.6,889.1,3310.8,888.2,3339.4,889.4z"/>
							<path class="st16" d="M3499.1,1438.4c-0.2,0.5-0.7,0.7-0.9,1.2l-2.6-0.2c-1.7,0.2-3.3,0-4.7-0.5l-129.7-16.3
								c-127.1-20.1-239.3-43.7-385.3-43.7c-89.3,0-191.4,9-317,32.8c-151.2,28.8-353,42.3-563.7,42.3
								c-250.4,0-513.1-18.9-717.7-53.6c-35.9-20.6-18.7-44.4-32.6-69.9c-4,20.8-8,40.9-14.4,61.9c-36.6-16.3-76.8-21-117.7-21
								c-59.5,0-120.5,10.2-174.4,10.2c-5.7,0-11.3,0-16.8-0.5c-4.3-0.2-8.7-0.2-13.2-0.2c-93.8,0-229.2,41.1-286.1,83.6
								c-4,3.1-8.3,4.3-12.3,4.3c-2.1,0-4.5-0.5-6.6-0.9c-14.9,0.7-29.5-7.6-40.4-18.2c-5.2-5-9.7-10.4-14.4-15.8
								c-4.3,1.7-8.5,3.5-12.8,5.2c0.9,2.1,1.7,4.3,2.4,6.1l0.9,2.6l1.4,2.4c7.1,11.8,32.8,50.3,69.5,50.3c11.1,0,22-3.5,31.2-10.6
								c47.7-35.7,174.8-77.3,267.2-77.3c4,0,8,0,11.8,0.2c5.9,0.2,12,0.5,18.2,0.5c27.6,0,57.2-2.6,85.8-5
								c29.3-2.6,59.5-5.2,88.6-5.2c43.2,0,76.5,5.9,104.9,18.2l32.4,14.4l4-12.8c2.6,1.7,5.2,3.5,8,5.2l4.7,2.8l5.4,0.9
								c202.9,34.3,466.4,54.1,722.9,54.1c225.6,0,422.6-14.9,569.6-42.8c113.9-21.7,215.7-32.4,311.1-32.4
								c118.1,0,213.8,15.8,315.4,32.6c21.5,3.5,43,7.1,65,10.6h0.5h0.5l136.8,17.2l15.8,1.9l10.9-11.6
								c13.2-14.2,26.2-32.1,38.5-52.9C3540.7,1420.4,3520.8,1431.1,3499.1,1438.4z"/>
						</g>
					</g>
				</g>
			</g>
		</g>
		<path d="M3250.6,835c126.2,0,331.9,60.5,353.7,149.3c38,155.9-23.4,393.4-106.1,481.2l-136.8-17.2
			c-127.1-20.1-239.3-43.7-385.3-43.7c-89.3,0-191.4,9-317,32.8c-151.2,28.8-353,42.3-563.7,42.3c-250.4,0-513.1-18.9-717.7-53.6
			c-35.9-20.6-18.7-44.4-32.6-69.9c-4,20.8-8,40.9-14.4,61.9c-36.6-16.3-76.8-21-117.7-21c-59.5,0-120.5,10.2-174.4,10.2
			c-5.7,0-11.3,0-16.8-0.5c-4.3-0.2-8.7-0.2-13.2-0.2c-93.8,0-229.2,41.1-286.1,83.6c-4,3.1-8.3,4.3-12.3,4.3
			c-21.5,0-42.5-35-42.5-35c-34.7-89.8-156.4-322.2-103-453.6S814.1,864.3,937,848.2c14.9,25.3,23.6,52.2,36.1,78.2
			c9.7-27.4,19.4-55.3,29.3-82.2c2.6,0,5.2,0,7.8,0c343,0,687,34,1029.6,34.7c4.5,0,9.2,0,13.7,0C2419.2,879,3228.8,835,3250.6,835
			 M3250.6,803.4c-24.6,0-79.1,0.2-79.1,0.2l-28.3,0.9c-139.4,4.5-280.4,12-416.5,19.1c-219.9,11.6-447.5,23.6-672.6,23.6h-13.7
			c-168.7-0.5-340.9-9-507.5-17.2c-171-8.5-348-17.5-522.3-17.5h-7.8h-22l-7.6,20.6c-1.2,2.8-2.1,5.9-3.3,9
			c-1.7-3.3-3.5-6.6-5.4-9.9l-10.6-18l-20.6,2.6c-11.6,1.4-23.9,3.1-36.6,4.5c-129,15.4-305.5,36.4-360.8,172.5
			c-49.6,122.1,31.9,311.1,80.6,423.8c9,20.8,16.8,39,22.2,52.9l0.9,2.6l1.4,2.4c7.1,11.8,32.8,50.3,69.5,50.3
			c11.1,0,22-3.5,31.2-10.6c47.7-35.7,174.8-77.3,267.2-77.3c4,0,8,0,11.8,0.2c5.9,0.2,12,0.5,18.2,0.5c27.6,0,57.2-2.6,85.8-5
			c29.3-2.6,59.5-5.2,88.6-5.2c43.2,0,76.5,5.9,104.9,18.2l32.4,14.4l4-12.8c2.6,1.7,5.2,3.5,8,5.2l4.7,2.8l5.4,0.9
			c202.9,34.3,466.4,54.1,722.9,54.1c225.6,0,422.6-14.9,569.6-42.8c113.9-21.7,215.7-32.4,311.1-32.4
			c118.1,0,213.8,15.8,315.4,32.6c21.5,3.5,43,7.1,65,10.6h0.5h0.5l136.8,17.2l15.8,1.9l10.9-11.6c85.5-91.2,155.5-339,113.6-510.1
			C3606.6,861.5,3373.2,803.4,3250.6,803.4L3250.6,803.4z"/>
	</g>
	<g>
		<g>
			<g>
				<path class="st20" d="M1425.1,1276.8c-12.5,1.4-30.5,1.2-43-0.9c-35-5.9-50.6-22.2-55.5-57.4c-1.7-12.3,1.7-29.3,0.5-42.5
					c-14.4-27.9-35-57.9-48.2-84.8c-10.9-22.2-10.6-37.6,0.2-57.6c11.1-20.1,27.4-26.2,50.1-28.8c13.7-1.4,34.5,0.2,48.4,0.2
					s21.7,4.7,33.3,10.4c11.6-5.4,19.8-9.7,33.8-9.2c13.7,0.5,34-0.5,47.5,1.7c22.7,3.3,38.7,10.4,48.7,31.4
					c9.9,20.8,9.4,36.6-2.6,58.1c-14.6,26.2-36.6,54.8-52.4,81.5c-1.9,13.2,0.7,30.9-1.7,43.2
					C1476.8,1257.2,1460.3,1272.3,1425.1,1276.8z"/>
			</g>
			<g>
				<path class="st20" d="M1535.2,1283.4c-70.2-4.3-116.7-55.3-121.9-124l0.2-0.9c7.8-66.6,58.1-118.1,127.1-113.4
					s121.2,56.7,120.3,127.6C1659.7,1243.5,1605.6,1287.7,1535.2,1283.4z M1538.7,1157c-5.9-0.5-9.4,1.2-11.6,6.6c0,0.2,0,0.5,0,0.5
					c0.5,5.4,6.1,6.9,10.2,7.3c5.4,0.7,10.6-1.4,11.3-6.4C1549.4,1158.9,1543.2,1157.5,1538.7,1157z"/>
			</g>
			<g>
				<path class="st20" d="M1663.2,1293.1c-66.4-13.7-92.1-40.4-96.4-109.4c-1.4-23.4-1.2-55,1.9-78.2c4.5-36.1,22.9-49.6,57.9-53.6
					c12-1.4,29.3,2.4,41.8,2.6c7.1,0,11.8,2.4,18.2,3.8c6.4-0.7,11.1-2.4,18.2-1.4c12.3,1.7,30,0,41.8,3.1
					c34,9.2,53.6,23.9,55.8,61.2c2.1,37.3,1.7,82.7-1.4,119.8c-3.1,37.1-23.2,49.1-57.6,54.1c-11.8,1.7-29.5-2.6-42.3-2.1
					c-4,0-6.6-1.2-10.4-1.4C1681.4,1292.2,1672.7,1295,1663.2,1293.1z"/>
			</g>
			<g>
				<path class="st20" d="M1809.9,1298.8c-12,0.9-30.2,0.5-42.1-2.4c-34.3-8-54.1-23.4-56-60.7c-1.9-37.3-1.4-82.9,1.9-120
					c3.1-37.1,22.7-49.1,57.2-53.9c11.8-1.7,29.3,2.6,41.8,2.1c4.5-0.2,7.6,1.4,11.6,1.7c10.6,0,19.6-3.5,30.5-0.5
					c31.4,8.7,49.1,25.5,52.9,59.5c1.4,12.8,0.9,31.2-0.2,43.9c-2.6,27.9-15.4,40.6-38.7,52.9c-0.9,7.3,0.7,18-0.5,24.8
					C1861.4,1279.6,1844.9,1295.9,1809.9,1298.8z M1869,1205.5L1869,1205.5L1869,1205.5z M1865.2,1169.1L1865.2,1169.1
					L1865.2,1169.1z"/>
			</g>
			<g>
				<path class="st20" d="M1974.6,1307c-12.3,0.9-30.7,1.7-42.8-1.2c-34.5-8-54.6-22.2-56.2-60.7c-2.1-48.7-1.7-106.3,1.2-154.7
					c2.4-38.3,22.7-49.8,56.7-55.3c18.4-2.8,48.4-0.2,65.9,1.2c73.9,5.9,119.3,35,121.2,112.2c1.7,65.7-30.9,90.5-88.1,111.7
					C2020.9,1288.6,2006.7,1304.7,1974.6,1307z"/>
			</g>
			<g>
				<path class="st20" d="M2141.6,1309.2c-73.7-0.7-115.8-45.4-122.6-117.7c0-0.2-0.2-0.9-0.2-0.9c9-69.2,45.4-117.7,119.3-119.5
					c77.5-2.1,112,43.5,118.1,117.2c0.2,3.5,0.2,9.2-0.2,13.5c-0.5,5.4-2.1,12.8-4.3,18.2c-1.4,14.4-1.7,29.1-12.3,40.2
					C2211.8,1288.8,2183.9,1309.6,2141.6,1309.2z"/>
			</g>
			<g>
				<path class="st20" d="M2340.8,1297.4c-11.8,2.8-29.8,1.4-42.3,3.1c-7.1,0.9-11.8-0.7-18.4-1.4c-6.4,1.4-11.1,3.8-18.2,3.8
					c-12.5-0.2-30.2,3.5-42.3,1.9c-34.7-5.4-54.3-18.2-57.2-55.3c-2.8-37.1-2.8-82.7-0.2-120c2.4-37.3,21.7-51.5,55.8-60
					c11.8-3.1,29.1-0.7,41.6-2.4c4-0.5,6.6,0.5,10.4,0.2c8.7-1.4,17.2-5.4,26.5-4.7c66.6,5.9,91.9,28.6,98.8,96.6
					c2.4,23.2,3.3,54.6,1.4,78.2C2393.5,1273.5,2375.3,1289.1,2340.8,1297.4z"/>
			</g>
			<g>
				<path class="st20" d="M2424.9,1328.8c-29.8,2.4-59.8-1.9-87.9-15.8c-28.8-14.4-35.2-41.6-26.7-71.8c0.7-2.6,3.3-6.9,4-9.4
					c-6.9-18.7-15.1-35-13.7-55.8c4.5-64.3,42.5-109.9,106.3-121c10.4-1.9,18.7,0.7,28.8,1.4c3.5-0.2,6.1-1.4,10.2-1.4
					c12.5,0.2,29.8-3.5,41.6-2.1c34.7,4,53.4,19.1,58.1,54.6c3.5,26.2,3.5,66.1,3.1,90c-0.9,39.2-5.9,65.2-30.5,92.6
					C2492.7,1317.9,2462,1325.9,2424.9,1328.8z M2405.3,1171.9L2405.3,1171.9L2405.3,1171.9z"/>
			</g>
			<g>
				<path class="st20" d="M2559.1,1288.8c-67.1-6.4-93.1-29.8-100.6-98.3c-2.6-23.4-3.5-55-1.9-78.4c2.8-36.6,20.3-52.7,54.8-60.7
					c11.8-2.8,29.3-0.7,41.6-2.1c7.1-0.7,11.8,0.9,18.2,1.9c6.4-1.2,10.9-3.5,18-3.3c12.3,0.5,30-2.8,41.8-0.7
					c34.5,6.1,54.3,19.1,58.1,56.5c3.5,37.1,5,82.7,3.5,120s-20.3,51.3-54.6,59.1c-11.8,2.8-29.5,0-41.8,1.9
					c-3.8,0.5-6.6-0.5-10.2-0.2C2577,1285.8,2568.5,1289.6,2559.1,1288.8z"/>
			</g>
			<g>
				<path class="st20" d="M2705.3,1280.8c-11.8,2.6-29.8,3.1-41.8,0.9c-35-5.7-53.6-18.7-58.1-56.2c-4.7-37.6-1.7-82-4.7-121
					c0-0.5,0-0.7,0-1.2c-0.5-3.8-1.4-6.4-1.2-10.4c0.5-9.2-1.9-22.2-0.7-30.9c5.2-34.7,20.3-52.4,55.3-58.1
					c12.5-2.1,30.9-2.4,43.5-0.9c35.4,4,51.5,21,58.8,55.5c1.9,8.7,0.2,21.7,1.2,30.9c0.5,4-0.2,6.9-0.5,10.4c0,0.2,0.2,0.7,0.2,1.2
					c-0.5,39,5,83.2,2.6,121S2739.8,1273.3,2705.3,1280.8z"/>
			</g>
			<g>
				<path class="st20" d="M2850.6,1277.7c-11.8,2.4-29.5,0.2-41.8,1.4c-7.1,0.7-11.8-1.2-18.2-2.1c-6.4,1.2-11.1,3.3-18,3.1
					c-12.3-0.5-30,2.8-41.8,0.7c-34.5-6.1-54.3-19.1-58.1-56.5s-5-82.7-3.5-120s20.3-51.3,54.6-59.1c11.8-2.6,29.3,0,41.8-1.4
					c4-0.5,6.9,0.5,10.4,0.5c8.7-1.2,17.2-5,26.7-3.8c66.9,8,92.8,32.4,100.6,100.6c2.6,23.2,3.8,54.8,2.1,78.2
					C2902.8,1255.5,2885.1,1270.7,2850.6,1277.7z"/>
			</g>
		</g>
		<g>
			<g>
				<path class="st20" d="M1384.5,1160.3c-19.1-33.1-38.5-66.4-57.6-99.5c16.8,0,33.3,0.2,50.1,0.5c10.4,19.4,20.8,38.5,31.2,57.9
					c11.3-18.9,22.9-37.8,34.3-56.7c16.3,0.5,32.8,1.2,49.1,1.7c-20.8,32.1-41.8,64-62.8,96.2c-0.5,20.1-0.9,40.2-1.4,60.5
					c-14.6-0.2-29.5-0.7-44.2-0.9C1383.3,1199.8,1384,1180.2,1384.5,1160.3z"/>
				<path d="M1425.6,1256c-12.8,1.4-30.2,0.9-43-0.9c-22.7-3.5-32.6-13.5-35.4-36.9c-1.7-14.4,1.4-33.1,0.5-48.2
					c-16.1-29.8-36.1-61-51.5-90.2c-7.6-14.4-6.9-23.6,0.2-36.6c7.1-13,17-17.2,31.9-18.2c14.9-0.9,33.8-0.2,48.9,0.2
					c15.1,0.7,22.7,7.6,31.4,18.4c0.5,0.5,0.7,1.7,1.2,2.1c0.5-0.5,0.9-1.7,1.4-2.4c9.4-10.6,17.2-17.2,32.4-17.2
					c14.9,0,33.3-0.2,48.2,1.7c14.6,1.7,24.6,6.4,30.9,19.8c6.4,13.5,6.6,22.9-1.7,37.1c-16.8,28.3-38.5,57.9-56,86.7
					c-1.7,15.4,0.5,34.5-1.9,48.9C1459.1,1244,1448.5,1253.6,1425.6,1256z"/>
			</g>
			<g>
				<path class="st20" d="M1470.2,1161.3c0-0.2,0-0.7,0-0.9c9-36.4,29.5-60.7,69.5-58.6c39.9,2.1,59.1,28.8,66.4,65.9
					c0,0.2,0,0.7,0,0.9c-9,36.6-29.8,60-69.7,57.9C1496.7,1224.4,1477.3,1198.6,1470.2,1161.3z M1564,1166.2c0,0,0-0.5,0-0.7
					c-2.4-14.9-9.2-27.4-25.5-28.3c-16.3-0.9-23.2,10.4-26.2,24.8c0,0,0,0.5,0,0.7c2.4,14.9,9.2,27.2,25.5,28.1
					C1554.1,1192,1560.9,1180.9,1564,1166.2z"/>
				<path d="M1535.2,1262.4c-64-3.5-94.7-39.5-101.1-102.3c0-0.2,0-0.9,0-0.9c9.4-61.2,41.8-96.9,105.8-92.8
					c64,4,100.9,40.2,99.7,104.7C1638.2,1235,1599.2,1265.9,1535.2,1262.4z"/>
			</g>
			<g>
				<path class="st20" d="M1623.5,1186.6c-0.9-22,1.2-54.3,0.9-78c14.4,0.5,28.8,1.4,43.2,2.8c0,19.8-1.2,46.1-0.7,64.3
					c0.5,14.6,4,21.5,17,22.2c13,0.9,17.2-5.4,18.2-19.8c1.2-18.2,0.5-44.7,1.2-64.3c14.4,0.5,28.8,1.9,43,2.6
					c-0.5,40.9-1.2,81.7-1.7,122.6c-14.4-0.9-28.8-1.9-43.5-2.8c0.2-5.4,0-11.3,0.5-16.5c-12.8,8.5-20.3,19.6-38,15.8
					C1637.2,1229.5,1624.7,1217.3,1623.5,1186.6z"/>
				<path d="M1663.7,1272.3c-52.9-13.7-71.3-31.2-76.1-87.6c-2.1-23.6-0.5-54.3,1.7-78c2.1-23.6,14.2-31.9,36.9-34
					c12-1.2,29.3,2.4,41.8,2.6c7.6,0.2,11.8,3.1,18.2,5.7c6.6-1.7,10.9-4,18.2-3.1c12.5,1.7,29.8,0,41.8,3.1
					c22.2,5.7,34.7,14.4,35.7,39.2c1.2,38,0.9,82.2-1.4,120c-1.4,24.6-14.2,31.7-36.9,34.5c-12.3,1.7-29.5-2.4-42.3-2.1
					c-4.5,0-7.1-1.4-11.1-2.1C1681.4,1270.9,1672.4,1274.7,1663.7,1272.3z"/>
			</g>
			<g>
				<path class="st20" d="M1769.5,1118c14.4,0.9,28.8,1.9,43.2,2.6c0,8.3-0.2,16.5-0.2,24.6c9.4-16.5,19.8-23.6,39.2-24.3
					c-0.2,15.1-0.2,30.2-0.5,45.1c-1.2,0.2-2.6-0.5-3.5-0.2c-25.3,4.5-33.1,13.7-35.7,40.6c-0.9,9,0,26-0.5,36.4
					c-14.4-0.2-28.8-1.7-43.2-2.4C1768.6,1199.5,1769.1,1158.7,1769.5,1118z"/>
				<path d="M1810.2,1278.2c-12.3,0.7-30,0.2-42.1-2.4c-22.4-5-35-14.2-35.7-38.7c-1.2-38-0.7-82.2,1.7-120.3
					c1.4-24.6,13.9-31.7,36.6-34.5c12.3-1.7,29.3,2.4,41.8,2.1c4.7,0,7.8,1.7,12,2.4c8.7-1.2,19.6-4,28.1-1.7
					c21,5.7,31.9,15.6,34.3,38c1.4,13.2,0.9,30.9-0.2,43.9c-2.4,22.9-14.9,31.2-35.9,34.7c-0.7,0-1.7-0.2-2.4-0.2
					c-0.5,2.1-0.2,3.1-0.2,5.4c-0.9,11.1,1.2,26.2-0.7,36.9C1843.5,1266.9,1833.1,1276.8,1810.2,1278.2z M1844.7,1202.1
					L1844.7,1202.1L1844.7,1202.1z"/>
			</g>
			<g>
				<path class="st20" d="M1932.5,1090.6c20.1,1.4,47,0.2,65.9,2.4c44.4,4.7,56.9,13.9,67.6,56.5c0,0.2,0,0.2,0,0.5
					c-9.2,43.5-25.8,52.2-69,56.2c-5.9,0.5-14.9-0.7-21.3-0.5c-0.2,15.1-0.2,30.2-0.5,45.4c-14.6-0.5-29.5-0.9-44.2-1.4
					C1931.8,1196.5,1931.6,1143.6,1932.5,1090.6z M1996.1,1171.7c15.4-0.9,22.2-5.4,26-20.1c0-0.2,0-0.2,0-0.5
					c-3.5-14.9-10.2-19.8-26-21.5c-5.2-0.5-14.2-0.2-19.8-0.5c-0.2,13.9-0.5,28.1-0.2,42.1C1981.7,1171,1990.9,1171.9,1996.1,1171.7
					z"/>
				<path d="M1974.6,1286.2c-12.8,0.7-30.5,1.2-43-1.4c-22.7-4.7-35.2-13.5-35.9-38.5c-1.4-50.1-0.7-105.8,1.2-155.7
					c0.9-25,13.9-32.6,36.1-35.2c18.9-2.1,48.2-0.5,65.9,1.2c63.1,6.1,99.2,24.6,100.4,91.9c0.9,63.6-30.9,79.9-87.2,93.1
					c-1.2,2.8,0,7.1-0.7,9.7C2007,1272.8,1997.8,1285.1,1974.6,1286.2z"/>
			</g>
			<g>
				<path class="st20" d="M2076,1191.8v-0.7c6.4-34.3,23.2-62.8,61.4-63.3c44.9-0.5,55.5,22.4,62.1,62.6c0.5,3.1-0.2,6.1,0,9
					c-27.4,1.2-54.8,1.9-82.2,2.8c5.7,12.3,12.5,18.9,26.7,18.9c10.9,0,18.9-6.1,27.2-12.8c8,6.4,16.1,12.5,24.1,18.9
					c-17,14.4-29.8,26.9-54.3,25.5C2102.6,1250.8,2082.1,1229.8,2076,1191.8z M2159.3,1179c-3.1-11.3-8-21.3-21.3-20.8
					c-13.2,0.5-17.7,10.9-21.3,22C2130.8,1179.9,2145.2,1179.5,2159.3,1179z"/>
				<path d="M2140.9,1288.6c-65.2-2.1-93.8-31.9-101.1-96.6c0-0.2-0.2-0.7,0-0.9c9-60.2,33.1-97.6,98-99c68.3-1.7,90,34.3,98,97.1
					c0.5,3.1,0,8-0.2,11.8c-0.5,5.2-2.6,11.3-5,16.5c0,10.9,1.4,22.2-7.3,30.7C2198.8,1271.8,2177.8,1289.8,2140.9,1288.6z"/>
			</g>
			<g>
				<path class="st20" d="M2217.7,1125.4c14.4-0.7,28.6-1.4,42.8-2.1c0,5.7,0.2,11.6,0,17c11.8-9.7,19.1-22.4,37.1-20.8
					c26.7,2.6,39,13.5,41.3,43.5c1.7,21.7,0.7,54.1,1.7,77.7c-14.4,1.4-28.8,2.4-43.2,2.8c-0.7-19.6-0.2-46.1-1.2-64.3
					c-0.7-14.4-4.3-20.8-17.2-20.1s-17.2,7.3-17.7,22c-0.7,18.2,0.5,44.7,0.5,64.3c-14.4,1.4-28.8,1.7-43.2,2.6
					C2218.2,1207.3,2217.7,1166.2,2217.7,1125.4z"/>
				<path d="M2340.3,1276.8c-12,2.8-29.5,1.7-42.1,2.8c-7.6,0.9-11.8-1.4-18.4-3.3c-6.4,2.4-10.6,5.4-18.2,5.4
					c-12.5,0-30,3.8-42.1,1.9c-22.7-3.3-35.2-10.6-36.4-35.4c-1.9-38-2.1-82.2-0.5-120.3c0.9-24.8,13.5-32.8,35.7-38.5
					c12-3.1,29.1-0.7,41.6-2.4c4.5-0.7,7.1,0.7,11.1,0.9c8.5-1.9,16.5-6.4,25.5-5.2c55.8,6.6,71.3,20.1,78,77
					c2.8,23.9,2.6,54.3,1.4,78.2C2374.8,1262.2,2362.8,1271.6,2340.3,1276.8z"/>
			</g>
			<g>
				<path class="st20" d="M2362.3,1262.6c4.3-9.9,8.7-19.6,13.2-29.3c14.2,5,27.9,10.2,43.2,8.5c20.1-2.1,28.8-11.8,31.7-31.7
					c0.2-1.2-0.2-3.3,0-4.5c-13.2,9.9-19.6,20.6-38.7,19.6c-32.1-1.4-49.6-20.6-54.6-52.4v-0.5c2.8-31.4,20.1-53.9,50.3-59.5
					c19.6-3.5,25.3,5.9,40.4,13.5c-0.7-4.5-0.5-9.7-0.7-14.4c14.4-0.7,28.6-2.1,43-2.1c0,27.6,2.8,65.2,2.1,90.5
					c-0.7,24.3-0.9,35.4-15.4,52c-14.2,16.8-32.1,18.2-53.6,20.6C2403.6,1274.7,2381.4,1269.2,2362.3,1262.6z M2449.2,1166.7v-0.5
					c-3.3-13.7-10.6-22.2-25.5-21.3s-22,10.6-24.6,24.8v0.5c3.3,13.7,10.9,22.2,25.8,21.3
					C2439.8,1190.6,2446.9,1180.6,2449.2,1166.7z"/>
				<path d="M2424.4,1308.2c-26.5,2.1-53.2-2.4-78.2-13.9c-18.4-8.5-22.9-26.5-16.8-45.8c1.7-5.4,6.6-13.9,8.5-19.6
					c-8.3-19.6-18.2-31.9-16.3-55c5-59.3,26.5-85.8,85.3-98.3c12.3-2.6,17.7,1.2,29.1,1.7c3.5-0.7,6.4-2.1,10.6-2.1
					c12.5,0,29.5-3.3,41.6-2.1c22.4,2.1,34.7,11.8,37.1,34.7c2.8,26.7,3.3,65.7,2.8,90c-0.5,33.8-4.3,54.6-24.8,78
					C2481.8,1300.2,2455.8,1305.6,2424.4,1308.2z"/>
			</g>
			<g>
				<path class="st20" d="M2514.9,1186.3c-1.9-21.7-1.2-54.3-2.6-78.2c14.4-1.4,28.6-2.1,43-2.4c0.9,19.8,0.9,46.3,2.1,64.5
					c0.9,14.6,5,21.3,18,20.8s16.8-7.3,17-22c0.2-18.2-1.4-44.4-1.7-64.3c14.2-0.9,28.6-0.9,43-1.4c1.2,40.9,2.4,81.7,3.8,122.6
					c-14.4,0.5-28.8,0.9-43,1.4c0-5.4-0.5-11.3-0.5-16.8c-12,9.7-19.1,21.7-36.9,19.8C2530.3,1227.7,2517.5,1216.6,2514.9,1186.3z"
					/>
				<path d="M2558.6,1267.8c-56-7.1-72.3-21-79.4-78.4c-3.1-24.1-3.1-54.6-2.1-78.7s12.5-33.5,35-38.7c12-2.8,29.3-1.2,41.6-2.4
					c7.3-0.7,11.8,1.9,18.2,3.8c6.4-2.4,10.6-5.2,18-5c12.5,0.2,29.5-2.8,41.8-0.7c22.7,3.8,35.2,11.3,37.1,36.1
					c2.8,38,4.3,82.2,3.5,120.3c-0.5,24.8-12.5,32.8-35,37.8c-12,2.6-29.3,0.2-41.8,1.7c-4.5,0.5-7.1-0.7-11.1-0.9
					C2575.9,1264.5,2567.8,1269,2558.6,1267.8z"/>
			</g>
			<g>
				<path class="st20" d="M2655.2,1060.2c14.9-0.2,30-0.7,44.9-0.9c0.2,10.6,0.7,21.3,0.9,31.7c-14.9,0.2-30,0.7-44.9,0.9
					C2655.9,1081.4,2655.7,1070.8,2655.2,1060.2z M2657.6,1102.9c14.4-0.2,28.6-0.7,43-0.9c1.2,40.9,2.4,81.7,3.8,122.6
					c-14.4,0.2-28.6,0.7-43,0.9C2660,1184.9,2658.8,1143.8,2657.6,1102.9z"/>
				<path d="M2704.8,1260c-12,2.4-29.5,2.8-41.8,0.9c-22.7-3.3-34.7-10.9-37.1-35.9c-3.8-38.3-2.1-81.7-4.5-121.2
					c0-1.2,0.2-1.9,0-2.8c-0.5-3.1-1.4-5.2-1.2-8.7c0.5-9.2-1.9-22-0.7-30.9c3.1-22.4,12.5-33.8,35.4-37.1
					c12.8-1.9,30.7-2.1,43.5-0.9c23.2,2.1,33.1,13,37.6,35.2c1.9,8.7,0.2,21.5,1.2,30.9c0.2,3.3-0.5,5.7-0.7,8.7
					c0,0.9,0.2,1.7,0.2,2.8c0,39.5,4.3,82.7,2.8,121.2C2738.6,1247.5,2727.3,1255.8,2704.8,1260z"/>
			</g>
			<g>
				<path class="st20" d="M2724.7,1101.5c14.4-0.2,28.6-0.7,43-0.9c0,5.7,0.5,11.6,0.5,17c12-9.4,18.9-21.7,36.9-19.6
					c26.7,3.5,39.5,14.9,42.1,45.1c1.9,21.7,1.4,54.3,2.8,78c-14.4,0.9-28.6,1.2-43,1.2c-0.9-19.6-0.9-46.3-2.1-64.3
					c-0.9-14.6-4.7-21-17.7-20.8s-17,6.9-17.2,21.5c-0.2,18.2,1.4,44.7,1.7,64.3c-14.2,0.9-28.6,0.7-43,1.4
					C2727.1,1183.2,2725.9,1142.4,2724.7,1101.5z"/>
				<path d="M2849.9,1257.2c-12,2.4-29.3,0.5-41.8,1.4c-7.3,0.5-11.8-1.9-18.2-4c-6.4,2.4-10.6,5-18,4.7
					c-12.5-0.5-29.5,2.6-41.8,0.5c-22.7-3.8-35.2-11.3-37.1-36.1c-2.8-37.8-4.3-82.2-3.5-120.3c0.5-24.8,12.5-32.6,35-37.8
					c12-2.6,29.3,0,41.8-1.4c4.5-0.5,7.3,0.9,11.3,1.2c8.5-1.4,16.5-5.9,25.8-4.5c55.8,8.5,72.1,22.9,79.4,80.1
					c3.1,24.1,3.3,54.3,2.4,78.4C2884.2,1243.5,2872.3,1252.7,2849.9,1257.2z"/>
			</g>
		</g>
		<g>
			<g>
				<path class="st20" d="M1384.5,1160.3c-19.1-33.1-38.5-66.4-57.6-99.5c16.8,0,33.3,0.2,50.1,0.5c10.4,19.4,20.8,38.5,31.2,57.9
					c11.3-18.9,22.9-37.8,34.3-56.7c16.3,0.5,32.8,1.2,49.1,1.7c-20.8,32.1-41.8,64-62.8,96.2c-0.5,20.1-0.9,40.2-1.4,60.5
					c-14.6-0.2-29.5-0.7-44.2-0.9C1383.3,1199.8,1384,1180.2,1384.5,1160.3z"/>
			</g>
			<g>
				<path class="st20" d="M1470.2,1161.3c0-0.2,0-0.7,0-0.9c9-36.4,29.5-60.7,69.5-58.6c39.9,2.1,59.1,28.8,66.4,65.9
					c0,0.2,0,0.7,0,0.9c-9,36.6-29.8,60-69.7,57.9C1496.7,1224.4,1477.3,1198.6,1470.2,1161.3z M1564,1166.2c0,0,0-0.5,0-0.7
					c-2.4-14.9-9.2-27.4-25.5-28.3c-16.3-0.9-23.2,10.4-26.2,24.8c0,0,0,0.5,0,0.7c2.4,14.9,9.2,27.2,25.5,28.1
					C1554.1,1192,1560.9,1180.9,1564,1166.2z"/>
			</g>
			<g>
				<path class="st20" d="M1623.5,1186.6c-0.9-22,1.2-54.3,0.9-78c14.4,0.5,28.8,1.4,43.2,2.8c0,19.8-1.2,46.1-0.7,64.3
					c0.5,14.6,4,21.5,17,22.2c13,0.9,17.2-5.4,18.2-19.8c1.2-18.2,0.5-44.7,1.2-64.3c14.4,0.5,28.8,1.9,43,2.6
					c-0.5,40.9-1.2,81.7-1.7,122.6c-14.4-0.9-28.8-1.9-43.5-2.8c0.2-5.4,0-11.3,0.5-16.5c-12.8,8.5-20.3,19.6-38,15.8
					C1637.2,1229.5,1624.7,1217.3,1623.5,1186.6z"/>
			</g>
			<g>
				<path class="st20" d="M1769.5,1118c14.4,0.9,28.8,1.9,43.2,2.6c0,8.3-0.2,16.5-0.2,24.6c9.4-16.5,19.8-23.6,39.2-24.3
					c-0.2,15.1-0.2,30.2-0.5,45.1c-1.2,0.2-2.6-0.5-3.5-0.2c-25.3,4.5-33.1,13.7-35.7,40.6c-0.9,9,0,26-0.5,36.4
					c-14.4-0.2-28.8-1.7-43.2-2.4C1768.6,1199.5,1769.1,1158.7,1769.5,1118z"/>
			</g>
			<g>
				<path class="st20" d="M1932.5,1090.6c20.1,1.4,47,0.2,65.9,2.4c44.4,4.7,56.9,13.9,67.6,56.5c0,0.2,0,0.2,0,0.5
					c-9.2,43.5-25.8,52.2-69,56.2c-5.9,0.5-14.9-0.7-21.3-0.5c-0.2,15.1-0.2,30.2-0.5,45.4c-14.6-0.5-29.5-0.9-44.2-1.4
					C1931.8,1196.5,1931.6,1143.6,1932.5,1090.6z M1996.1,1171.4c15.4-0.9,22.2-5.4,26-20.1c0-0.2,0-0.2,0-0.5
					c-3.5-14.9-10.2-19.8-26-21.5c-5.2-0.5-14.2-0.2-19.8-0.5c-0.2,13.9-0.5,28.1-0.2,42.1C1981.7,1171,1990.9,1171.9,1996.1,1171.4
					z"/>
			</g>
			<g>
				<path class="st20" d="M2076,1191.8v-0.7c6.4-34.3,23.2-62.8,61.4-63.3c44.9-0.5,55.5,22.4,62.1,62.6c0.5,3.1-0.2,6.1,0,9
					c-27.4,1.2-54.8,1.9-82.2,2.8c5.7,12.3,12.5,18.9,26.7,18.9c10.9,0,18.9-6.1,27.2-12.8c8,6.4,16.1,12.5,24.1,18.9
					c-17,14.4-29.8,26.9-54.3,25.5C2102.6,1250.8,2082.1,1229.8,2076,1191.8z M2159.3,1179c-3.1-11.3-8-21.3-21.3-20.8
					c-13.2,0.5-17.7,10.9-21.3,22C2130.8,1179.9,2145.2,1179.5,2159.3,1179z"/>
			</g>
			<g>
				<path class="st20" d="M2217.7,1125.4c14.4-0.7,28.6-1.4,42.8-2.1c0,5.7,0.2,11.6,0,17c11.8-9.7,19.1-22.4,37.1-20.8
					c26.7,2.6,39,13.5,41.3,43.5c1.7,21.7,0.7,54.1,1.7,77.7c-14.4,1.4-28.8,2.4-43.2,2.8c-0.7-19.6-0.2-46.1-1.2-64.3
					c-0.7-14.4-4.3-20.8-17.2-20.1s-17.2,7.3-17.7,22c-0.7,18.2,0.5,44.7,0.5,64.3c-14.4,1.4-28.8,1.7-43.2,2.6
					C2218.2,1207.3,2217.7,1166.2,2217.7,1125.4z"/>
			</g>
			<g>
				<path class="st20" d="M2362.3,1262.6c4.3-9.9,8.7-19.6,13.2-29.3c14.2,5,27.9,10.2,43.2,8.5c20.1-2.1,28.8-11.8,31.7-31.7
					c0.2-1.2-0.2-3.3,0-4.5c-13.2,9.9-19.6,20.6-38.7,19.6c-32.1-1.4-49.6-20.6-54.6-52.4v-0.5c2.8-31.4,20.1-53.9,50.3-59.5
					c19.6-3.5,25.3,5.9,40.4,13.5c-0.7-4.5-0.5-9.7-0.7-14.4c14.4-0.7,28.6-2.1,43-2.1c0,27.6,2.8,65.2,2.1,90.5
					c-0.7,24.3-0.9,35.4-15.4,52c-14.2,16.8-32.1,18.2-53.6,20.6C2403.6,1274.7,2381.4,1269.2,2362.3,1262.6z M2449.2,1166.7v-0.5
					c-3.3-13.7-10.6-22.2-25.5-21.3s-22,10.6-24.6,24.8v0.5c3.3,13.7,10.9,22.2,25.8,21.3
					C2439.8,1190.6,2446.9,1180.6,2449.2,1166.7z"/>
			</g>
			<g>
				<path class="st20" d="M2514.9,1186.3c-1.9-21.7-1.2-54.3-2.6-78.2c14.4-1.4,28.6-2.1,43-2.4c0.9,19.8,0.9,46.3,2.1,64.5
					c0.9,14.6,5,21.3,18,20.8s16.8-7.3,17-22c0.2-18.2-1.4-44.4-1.7-64.3c14.2-0.9,28.6-0.9,43-1.4c1.2,40.9,2.4,81.7,3.8,122.6
					c-14.4,0.5-28.8,0.9-43,1.4c0-5.4-0.5-11.3-0.5-16.8c-12,9.7-19.1,21.7-36.9,19.8C2530.3,1227.7,2517.5,1216.6,2514.9,1186.3z"
					/>
			</g>
			<g>
				<path class="st20" d="M2655.2,1060.2c14.9-0.2,30-0.7,44.9-0.9c0.2,10.6,0.7,21.3,0.9,31.7c-14.9,0.2-30,0.7-44.9,0.9
					C2655.9,1081.4,2655.7,1070.8,2655.2,1060.2z M2657.6,1102.9c14.4-0.2,28.6-0.7,43-0.9c1.2,40.9,2.4,81.7,3.8,122.6
					c-14.4,0.2-28.6,0.7-43,0.9C2660,1184.9,2658.8,1143.8,2657.6,1102.9z"/>
			</g>
			<g>
				<path class="st20" d="M2724.7,1101.5c14.4-0.2,28.6-0.7,43-0.9c0,5.7,0.5,11.6,0.5,17c12-9.4,18.9-21.7,36.9-19.6
					c26.7,3.5,39.5,14.9,42.1,45.1c1.9,21.7,1.4,54.3,2.8,78c-14.4,0.9-28.6,1.2-43,1.2c-0.9-19.6-0.9-46.3-2.1-64.3
					c-0.9-14.6-4.7-21-17.7-20.8s-17,6.9-17.2,21.5c-0.2,18.2,1.4,44.7,1.7,64.3c-14.2,0.9-28.6,0.7-43,1.4
					C2727.1,1183.2,2725.9,1142.4,2724.7,1101.5z"/>
			</g>
		</g>
	</g>
</g>
<g id="Layer_16">
</g>
</svg>
