<?xml version="1.0" encoding="utf-8"?>
<!-- Generator: Adobe Illustrator 25.2.1, SVG Export Plug-In . SVG Version: 6.00 Build 0)  -->
<svg version="1.1" id="Layer_5" xmlns="http://www.w3.org/2000/svg" xmlns:xlink="http://www.w3.org/1999/xlink" x="0px" y="0px"
	 viewBox="0 0 981.3 1276.3" style="enable-background:new 0 0 981.3 1276.3;" xml:space="preserve">
<style type="text/css">
	.st0{fill:#E4E4EF;}
	.st1{fill:#BECED3;}
	.st2{fill:#3EB4D9;}
	.st3{fill:#CED0D1;}
</style>
<g>
	<g>
		<polygon class="st0" points="221.7,378.3 221.7,144.1 831.9,144.1 837.2,151 863.7,185.3 840.3,215.6 863.7,245.9 840.3,276.2 
			863.7,306.5 839.9,337.3 863.1,378.4 		"/>
	</g>
	<g>
		<path d="M228.3,150.7l600.3,0l3.3,4.3l23.3,30.3L832,215.6l23.3,30.3L832,276.2l23.3,30.3L832,336.8l19.7,35l-623.4,0V150.7
			 M215,137.5v13.3v220.9V385l13.3,0l623.4,0l22.8,0l-11.2-19.8l-15.4-27.3l18-23.3l6.2-8.1l-6.2-8.1l-17.1-22.2l17.1-22.2l6.2-8.1
			l-6.2-8.1l-17.1-22.2l17.1-22.2l6.3-8.1l-6.3-8.1l-23.3-30.3l-3.3-4.3l-4-5.1l-6.5,0l-600.3,0L215,137.5L215,137.5z"/>
	</g>
</g>
<g>
	<g>
		<path class="st0" d="M158.2,396.3c-39.9,0-74.1-12.5-85.4-31.2c-4.8-6.3-7.3-13.8-7.3-21.6V135.9c0-19.8,16.1-35.9,35.9-35.9H215
			c19.8,0,35.9,16.1,35.9,35.9v207.5c0,7.9-2.5,15.4-7.3,21.7C232.3,383.7,198.1,396.3,158.2,396.3z"/>
	</g>
	<g>
		<path d="M215,106.7c16.1,0,29.2,13.1,29.2,29.2v207.5c0,6.7-2.3,13-6.2,17.9c-9.6,16.3-41.7,28.3-79.9,28.3
			c-38.2,0-70.3-12-79.9-28.3c-3.9-4.9-6.2-11.2-6.2-17.9V135.9c0-16.1,13.1-29.2,29.2-29.2H215 M215,93.4H101.4
			c-23.4,0-42.5,19.1-42.5,42.5v207.5c0,9.2,2.9,18,8.4,25.4c6.5,10.5,18.8,19.2,35.7,25.3c16,5.8,35.1,8.8,55.2,8.8
			c20.1,0,39.1-3,55.2-8.8c16.9-6.1,29.2-14.8,35.7-25.3c5.5-7.4,8.4-16.2,8.4-25.4V135.9C257.5,112.4,238.4,93.4,215,93.4L215,93.4
			z"/>
	</g>
</g>
<g>
	<g>
		<path class="st1" d="M149.8,319.5c-23.9-26.5-42.9-57.5-50.5-92.7c-7.5-34.7-10.7-70.8-3.8-105.8c-13.1,1.3-23.3,12.4-23.3,25.8
			v207.5c0.6,4,2.4,11.1,7.6,18.4c7.2,9.9,16.6,13.9,20.4,15.2c12.5,3.7,29.9,7.5,50.8,7.8c24,0.3,43.7-4,57.1-8.2
			c2.2-1.2,4.7-2.7,7.2-4.4c2.4-1.7,4.6-3.3,6.4-4.9C194.5,362.5,169.8,341.7,149.8,319.5z"/>
	</g>
</g>
<g>
	<g>
		<g>
			<path class="st2" d="M158,169.6c-49.2,0-90.7-18.3-90.7-40.1c0-21.7,41.6-40.1,90.7-40.1c49.2,0,90.7,18.3,90.7,40.1
				C248.7,151.2,207.1,169.6,158,169.6z"/>
		</g>
	</g>
</g>
<g>
	<g>
		<g>
			<path class="st3" d="M222.8,97.7c3.1,12.1,1.1,24.8-9.2,36.6c-21.1,24.2-56.4,29.7-86,20.2c-14.8-4.7-27.8-14.4-42.5-18.7
				c-11-3.2-15.7-0.3-17.6,6.3c11.7,18,47.7,31.1,90.4,31.1c52.2,0,94.4-19.6,94.4-43.8C252.4,116.9,241,105.6,222.8,97.7z"/>
		</g>
	</g>
</g>
<g>
	<g>
		<g>
			<path d="M105.7,341.2c0-48.2,0-96.3,0-144.5c0-2,0-3.9,0-5.9c0-4.2-6.5-4.2-6.5,0c0,48.2,0,96.3,0,144.5c0,2,0,3.9,0,5.9
				C99.2,345.4,105.7,345.4,105.7,341.2L105.7,341.2z"/>
			<path d="M102.5,346.8c-3.2,0-5.7-2.4-5.7-5.6V190.9c0-3.2,2.4-5.6,5.7-5.6c3.2,0,5.7,2.4,5.7,5.6v150.4
				C108.1,344.4,105.7,346.8,102.5,346.8z M102.5,190.1c-0.8,0-0.8,0.5-0.8,0.7v150.4c0,0.2,0,0.7,0.8,0.7c0.8,0,0.8-0.5,0.8-0.7
				V190.9C103.3,190.7,103.3,190.1,102.5,190.1z"/>
		</g>
	</g>
</g>
<g>
	<g>
		<g>
			<g>
				<path class="st0" d="M158.2,151.3c-25.1,0-44.8-9.5-44.8-21.6s19.7-21.6,44.8-21.6c25.1,0,44.8,9.5,44.8,21.6
					S183.3,151.3,158.2,151.3z"/>
			</g>
			<g>
				<path d="M158.2,112.9c23.5,0,39.9,8.8,39.9,16.8c0,7.9-16.4,16.8-39.9,16.8c-23.5,0-39.9-8.8-39.9-16.8
					C118.3,121.8,134.7,112.9,158.2,112.9 M158.2,103.3c-28.3,0-49.6,11.4-49.6,26.4c0,15.1,21.3,26.4,49.6,26.4
					c28.3,0,49.6-11.4,49.6-26.4C207.8,114.6,186.5,103.3,158.2,103.3L158.2,103.3z"/>
			</g>
		</g>
	</g>
</g>
<g>
	<path d="M158.3,93.8c47.5,0,86,16.1,86,36c0,19.9-38.5,36-86,36s-86-16.1-86-36C72.3,109.9,110.8,93.8,158.3,93.8 M158.3,80.5
		c-24.7,0-48.1,4.1-65.9,11.6c-29,12.1-33.3,28.8-33.3,37.7s4.3,25.6,33.3,37.7c17.8,7.5,41.2,11.6,65.9,11.6s48.1-4.1,65.9-11.6
		c29-12.1,33.3-28.8,33.3-37.7s-4.3-25.6-33.3-37.7C206.3,84.6,182.9,80.5,158.3,80.5L158.3,80.5z"/>
</g>
</svg>
